<?xml version="1.0" encoding="ISO-8859-1"?>
<MIDIFile>
<Format>1</Format>
<TrackCount>16</TrackCount>
<TicksPerBeat>384</TicksPerBeat>
<TimestampType>Absolute</TimestampType>
<Track Number="0">
  <Event>
    <Absolute>0</Absolute>
    <TimeSignature Numerator="4" LogDenominator="2" MIDIClocksPerMetronomeClick="96" ThirtySecondsPer24Clocks="8"/>
  </Event>
  <Event>
    <Absolute>0</Absolute>
    <SequencerSpecific>00 00 41</SequencerSpecific>
  </Event>
  <Event>
    <Absolute>0</Absolute>
    <SequencerSpecific>00 00 77 0e 01</SequencerSpecific>
  </Event>
  <Event>
    <Absolute>0</Absolute>
    <SetTempo Value="400000"/>
  </Event>
  <Event>
    <Absolute>130560</Absolute>
    <SetTempo Value="447761"/>
  </Event>
  <Event>
    <Absolute>167428</Absolute>
    <SetTempo Value="405405"/>
  </Event>
  <Event>
    <Absolute>167428</Absolute>
    <EndOfTrack/>
  </Event>
</Track>
<Track Number="1">
  <Event>
    <Absolute>0</Absolute>
    <TrackName>Good Vibrations By The Beach Boys (1966)</TrackName>
  </Event>
  <Event>
    <Absolute>0</Absolute>
    <EndOfTrack/>
  </Event>
</Track>
<Track Number="2">
  <Event>
    <Absolute>0</Absolute>
    <TrackName>Sequenced by Anne Wallace http://homepages.enterprise.net/annew</TrackName>
  </Event>
  <Event>
    <Absolute>0</Absolute>
    <EndOfTrack/>
  </Event>
</Track>
<Track Number="3">
  <Event>
    <Absolute>0</Absolute>
    <TrackName>Bass</TrackName>
  </Event>
  <Event>
    <Absolute>0</Absolute>
    <ControlChange Channel="1" Control="0" Value="0"/>
  </Event>
  <Event>
    <Absolute>0</Absolute>
    <ProgramChange Channel="1" Number="44"/>
  </Event>
  <Event>
    <Absolute>0</Absolute>
    <ControlChange Channel="1" Control="7" Value="88"/>
  </Event>
  <Event>
    <Absolute>0</Absolute>
    <ControlChange Channel="1" Control="10" Value="47"/>
  </Event>
  <Event>
    <Absolute>0</Absolute>
    <ControlChange Channel="1" Control="91" Value="114"/>
  </Event>
  <Event>
    <Absolute>0</Absolute>
    <ControlChange Channel="1" Control="93" Value="110"/>
  </Event>
  <Event>
    <Absolute>0</Absolute>
    <KeySignature Fifths="0" Mode="0"/>
  </Event>
  <Event>
    <Absolute>1792</Absolute>
    <NoteOn Channel="1" Note="58" Velocity="127"/>
  </Event>
  <Event>
    <Absolute>1920</Absolute>
    <NoteOff Channel="1" Note="58" Velocity="0"/>
  </Event>
  <Event>
    <Absolute>1920</Absolute>
    <NoteOn Channel="1" Note="51" Velocity="127"/>
  </Event>
  <Event>
    <Absolute>2176</Absolute>
    <NoteOff Channel="1" Note="51" Velocity="0"/>
  </Event>
  <Event>
    <Absolute>2304</Absolute>
    <NoteOn Channel="1" Note="58" Velocity="127"/>
  </Event>
  <Event>
    <Absolute>2688</Absolute>
    <NoteOff Channel="1" Note="58" Velocity="0"/>
  </Event>
  <Event>
    <Absolute>2944</Absolute>
    <NoteOn Channel="1" Note="51" Velocity="127"/>
  </Event>
  <Event>
    <Absolute>3072</Absolute>
    <NoteOff Channel="1" Note="51" Velocity="0"/>
  </Event>
  <Event>
    <Absolute>3072</Absolute>
    <NoteOn Channel="1" Note="53" Velocity="127"/>
  </Event>
  <Event>
    <Absolute>3456</Absolute>
    <NoteOff Channel="1" Note="53" Velocity="0"/>
  </Event>
  <Event>
    <Absolute>3456</Absolute>
    <NoteOn Channel="1" Note="54" Velocity="127"/>
  </Event>
  <Event>
    <Absolute>3840</Absolute>
    <NoteOff Channel="1" Note="54" Velocity="0"/>
  </Event>
  <Event>
    <Absolute>4864</Absolute>
    <NoteOn Channel="1" Note="56" Velocity="127"/>
  </Event>
  <Event>
    <Absolute>4992</Absolute>
    <NoteOff Channel="1" Note="56" Velocity="0"/>
  </Event>
  <Event>
    <Absolute>4992</Absolute>
    <NoteOn Channel="1" Note="49" Velocity="127"/>
  </Event>
  <Event>
    <Absolute>5376</Absolute>
    <NoteOff Channel="1" Note="49" Velocity="0"/>
  </Event>
  <Event>
    <Absolute>5376</Absolute>
    <NoteOn Channel="1" Note="56" Velocity="127"/>
  </Event>
  <Event>
    <Absolute>5760</Absolute>
    <NoteOff Channel="1" Note="56" Velocity="0"/>
  </Event>
  <Event>
    <Absolute>6016</Absolute>
    <NoteOn Channel="1" Note="49" Velocity="127"/>
  </Event>
  <Event>
    <Absolute>6144</Absolute>
    <NoteOff Channel="1" Note="49" Velocity="0"/>
  </Event>
  <Event>
    <Absolute>6144</Absolute>
    <NoteOn Channel="1" Note="51" Velocity="127"/>
  </Event>
  <Event>
    <Absolute>6528</Absolute>
    <NoteOff Channel="1" Note="51" Velocity="0"/>
  </Event>
  <Event>
    <Absolute>6528</Absolute>
    <NoteOn Channel="1" Note="53" Velocity="127"/>
  </Event>
  <Event>
    <Absolute>6912</Absolute>
    <NoteOff Channel="1" Note="53" Velocity="0"/>
  </Event>
  <Event>
    <Absolute>7936</Absolute>
    <NoteOn Channel="1" Note="54" Velocity="127"/>
  </Event>
  <Event>
    <Absolute>8064</Absolute>
    <NoteOff Channel="1" Note="54" Velocity="0"/>
  </Event>
  <Event>
    <Absolute>8064</Absolute>
    <NoteOn Channel="1" Note="47" Velocity="127"/>
  </Event>
  <Event>
    <Absolute>8448</Absolute>
    <NoteOff Channel="1" Note="47" Velocity="0"/>
  </Event>
  <Event>
    <Absolute>8448</Absolute>
    <NoteOn Channel="1" Note="54" Velocity="127"/>
  </Event>
  <Event>
    <Absolute>8704</Absolute>
    <NoteOff Channel="1" Note="54" Velocity="0"/>
  </Event>
  <Event>
    <Absolute>9088</Absolute>
    <NoteOn Channel="1" Note="47" Velocity="127"/>
  </Event>
  <Event>
    <Absolute>9216</Absolute>
    <NoteOff Channel="1" Note="47" Velocity="0"/>
  </Event>
  <Event>
    <Absolute>9216</Absolute>
    <NoteOn Channel="1" Note="49" Velocity="127"/>
  </Event>
  <Event>
    <Absolute>9600</Absolute>
    <NoteOff Channel="1" Note="49" Velocity="0"/>
  </Event>
  <Event>
    <Absolute>9600</Absolute>
    <NoteOn Channel="1" Note="51" Velocity="127"/>
  </Event>
  <Event>
    <Absolute>9984</Absolute>
    <NoteOff Channel="1" Note="51" Velocity="0"/>
  </Event>
  <Event>
    <Absolute>11008</Absolute>
    <NoteOn Channel="1" Note="53" Velocity="127"/>
  </Event>
  <Event>
    <Absolute>11136</Absolute>
    <NoteOff Channel="1" Note="53" Velocity="0"/>
  </Event>
  <Event>
    <Absolute>11136</Absolute>
    <NoteOn Channel="1" Note="46" Velocity="127"/>
  </Event>
  <Event>
    <Absolute>11520</Absolute>
    <NoteOff Channel="1" Note="46" Velocity="0"/>
  </Event>
  <Event>
    <Absolute>11520</Absolute>
    <NoteOn Channel="1" Note="53" Velocity="127"/>
  </Event>
  <Event>
    <Absolute>11904</Absolute>
    <NoteOff Channel="1" Note="53" Velocity="0"/>
  </Event>
  <Event>
    <Absolute>12160</Absolute>
    <NoteOn Channel="1" Note="46" Velocity="127"/>
  </Event>
  <Event>
    <Absolute>12288</Absolute>
    <NoteOff Channel="1" Note="46" Velocity="0"/>
  </Event>
  <Event>
    <Absolute>12288</Absolute>
    <NoteOn Channel="1" Note="48" Velocity="127"/>
  </Event>
  <Event>
    <Absolute>12672</Absolute>
    <NoteOff Channel="1" Note="48" Velocity="0"/>
  </Event>
  <Event>
    <Absolute>12672</Absolute>
    <NoteOn Channel="1" Note="50" Velocity="127"/>
  </Event>
  <Event>
    <Absolute>13056</Absolute>
    <NoteOff Channel="1" Note="50" Velocity="0"/>
  </Event>
  <Event>
    <Absolute>14080</Absolute>
    <NoteOn Channel="1" Note="58" Velocity="127"/>
  </Event>
  <Event>
    <Absolute>14208</Absolute>
    <NoteOff Channel="1" Note="58" Velocity="0"/>
  </Event>
  <Event>
    <Absolute>14208</Absolute>
    <NoteOn Channel="1" Note="51" Velocity="127"/>
  </Event>
  <Event>
    <Absolute>14464</Absolute>
    <NoteOff Channel="1" Note="51" Velocity="0"/>
  </Event>
  <Event>
    <Absolute>14592</Absolute>
    <NoteOn Channel="1" Note="58" Velocity="127"/>
  </Event>
  <Event>
    <Absolute>14976</Absolute>
    <NoteOff Channel="1" Note="58" Velocity="0"/>
  </Event>
  <Event>
    <Absolute>15232</Absolute>
    <NoteOn Channel="1" Note="51" Velocity="127"/>
  </Event>
  <Event>
    <Absolute>15360</Absolute>
    <NoteOff Channel="1" Note="51" Velocity="0"/>
  </Event>
  <Event>
    <Absolute>15360</Absolute>
    <NoteOn Channel="1" Note="53" Velocity="127"/>
  </Event>
  <Event>
    <Absolute>15744</Absolute>
    <NoteOff Channel="1" Note="53" Velocity="0"/>
  </Event>
  <Event>
    <Absolute>15744</Absolute>
    <NoteOn Channel="1" Note="54" Velocity="127"/>
  </Event>
  <Event>
    <Absolute>16128</Absolute>
    <NoteOff Channel="1" Note="54" Velocity="0"/>
  </Event>
  <Event>
    <Absolute>17152</Absolute>
    <NoteOn Channel="1" Note="56" Velocity="127"/>
  </Event>
  <Event>
    <Absolute>17280</Absolute>
    <NoteOff Channel="1" Note="56" Velocity="0"/>
  </Event>
  <Event>
    <Absolute>17280</Absolute>
    <NoteOn Channel="1" Note="49" Velocity="127"/>
  </Event>
  <Event>
    <Absolute>17664</Absolute>
    <NoteOff Channel="1" Note="49" Velocity="0"/>
  </Event>
  <Event>
    <Absolute>17664</Absolute>
    <NoteOn Channel="1" Note="56" Velocity="127"/>
  </Event>
  <Event>
    <Absolute>18048</Absolute>
    <NoteOff Channel="1" Note="56" Velocity="0"/>
  </Event>
  <Event>
    <Absolute>18304</Absolute>
    <NoteOn Channel="1" Note="49" Velocity="127"/>
  </Event>
  <Event>
    <Absolute>18432</Absolute>
    <NoteOff Channel="1" Note="49" Velocity="0"/>
  </Event>
  <Event>
    <Absolute>18432</Absolute>
    <NoteOn Channel="1" Note="51" Velocity="127"/>
  </Event>
  <Event>
    <Absolute>18816</Absolute>
    <NoteOff Channel="1" Note="51" Velocity="0"/>
  </Event>
  <Event>
    <Absolute>18816</Absolute>
    <NoteOn Channel="1" Note="53" Velocity="127"/>
  </Event>
  <Event>
    <Absolute>19200</Absolute>
    <NoteOff Channel="1" Note="53" Velocity="0"/>
  </Event>
  <Event>
    <Absolute>20224</Absolute>
    <NoteOn Channel="1" Note="54" Velocity="127"/>
  </Event>
  <Event>
    <Absolute>20352</Absolute>
    <NoteOff Channel="1" Note="54" Velocity="0"/>
  </Event>
  <Event>
    <Absolute>20352</Absolute>
    <NoteOn Channel="1" Note="47" Velocity="127"/>
  </Event>
  <Event>
    <Absolute>20736</Absolute>
    <NoteOff Channel="1" Note="47" Velocity="0"/>
  </Event>
  <Event>
    <Absolute>20736</Absolute>
    <NoteOn Channel="1" Note="54" Velocity="127"/>
  </Event>
  <Event>
    <Absolute>21120</Absolute>
    <NoteOff Channel="1" Note="54" Velocity="0"/>
  </Event>
  <Event>
    <Absolute>21376</Absolute>
    <NoteOn Channel="1" Note="47" Velocity="127"/>
  </Event>
  <Event>
    <Absolute>21504</Absolute>
    <NoteOn Channel="1" Note="49" Velocity="127"/>
  </Event>
  <Event>
    <Absolute>21632</Absolute>
    <NoteOff Channel="1" Note="47" Velocity="0"/>
  </Event>
  <Event>
    <Absolute>21888</Absolute>
    <NoteOff Channel="1" Note="49" Velocity="0"/>
  </Event>
  <Event>
    <Absolute>21888</Absolute>
    <NoteOn Channel="1" Note="51" Velocity="127"/>
  </Event>
  <Event>
    <Absolute>22144</Absolute>
    <NoteOff Channel="1" Note="51" Velocity="0"/>
  </Event>
  <Event>
    <Absolute>23296</Absolute>
    <NoteOn Channel="1" Note="53" Velocity="127"/>
  </Event>
  <Event>
    <Absolute>23424</Absolute>
    <NoteOff Channel="1" Note="53" Velocity="0"/>
  </Event>
  <Event>
    <Absolute>23424</Absolute>
    <NoteOn Channel="1" Note="46" Velocity="127"/>
  </Event>
  <Event>
    <Absolute>23808</Absolute>
    <NoteOff Channel="1" Note="46" Velocity="0"/>
  </Event>
  <Event>
    <Absolute>23808</Absolute>
    <NoteOn Channel="1" Note="53" Velocity="127"/>
  </Event>
  <Event>
    <Absolute>24192</Absolute>
    <NoteOff Channel="1" Note="53" Velocity="0"/>
  </Event>
  <Event>
    <Absolute>24192</Absolute>
    <NoteOn Channel="1" Note="46" Velocity="127"/>
  </Event>
  <Event>
    <Absolute>24576</Absolute>
    <NoteOff Channel="1" Note="46" Velocity="0"/>
  </Event>
  <Event>
    <Absolute>24576</Absolute>
    <NoteOn Channel="1" Note="49" Velocity="127"/>
  </Event>
  <Event>
    <Absolute>24832</Absolute>
    <NoteOff Channel="1" Note="49" Velocity="0"/>
  </Event>
  <Event>
    <Absolute>24960</Absolute>
    <NoteOn Channel="1" Note="49" Velocity="127"/>
  </Event>
  <Event>
    <Absolute>25216</Absolute>
    <NoteOff Channel="1" Note="49" Velocity="0"/>
  </Event>
  <Event>
    <Absolute>25344</Absolute>
    <NoteOn Channel="1" Note="49" Velocity="127"/>
  </Event>
  <Event>
    <Absolute>25728</Absolute>
    <NoteOff Channel="1" Note="49" Velocity="0"/>
  </Event>
  <Event>
    <Absolute>25728</Absolute>
    <NoteOn Channel="1" Note="49" Velocity="127"/>
  </Event>
  <Event>
    <Absolute>25904</Absolute>
    <PitchBendChange Channel="1" Value="7644"/>
  </Event>
  <Event>
    <Absolute>25920</Absolute>
    <PitchBendChange Channel="1" Value="6876"/>
  </Event>
  <Event>
    <Absolute>25932</Absolute>
    <PitchBendChange Channel="1" Value="6236"/>
  </Event>
  <Event>
    <Absolute>25948</Absolute>
    <PitchBendChange Channel="1" Value="5468"/>
  </Event>
  <Event>
    <Absolute>25960</Absolute>
    <PitchBendChange Channel="1" Value="4828"/>
  </Event>
  <Event>
    <Absolute>25984</Absolute>
    <NoteOff Channel="1" Note="49" Velocity="0"/>
  </Event>
  <Event>
    <Absolute>25988</Absolute>
    <PitchBendChange Channel="1" Value="3548"/>
  </Event>
  <Event>
    <Absolute>26000</Absolute>
    <PitchBendChange Channel="1" Value="2268"/>
  </Event>
  <Event>
    <Absolute>26016</Absolute>
    <PitchBendChange Channel="1" Value="0"/>
  </Event>
  <Event>
    <Absolute>26028</Absolute>
    <PitchBendChange Channel="1" Value="0"/>
  </Event>
  <Event>
    <Absolute>26044</Absolute>
    <PitchBendChange Channel="1" Value="0"/>
  </Event>
  <Event>
    <Absolute>26048</Absolute>
    <PitchBendChange Channel="1" Value="8192"/>
  </Event>
  <Event>
    <Absolute>50944</Absolute>
    <NoteOn Channel="1" Note="58" Velocity="127"/>
  </Event>
  <Event>
    <Absolute>51072</Absolute>
    <NoteOff Channel="1" Note="58" Velocity="0"/>
  </Event>
  <Event>
    <Absolute>51072</Absolute>
    <NoteOn Channel="1" Note="51" Velocity="127"/>
  </Event>
  <Event>
    <Absolute>51328</Absolute>
    <NoteOff Channel="1" Note="51" Velocity="0"/>
  </Event>
  <Event>
    <Absolute>51456</Absolute>
    <NoteOn Channel="1" Note="58" Velocity="127"/>
  </Event>
  <Event>
    <Absolute>51840</Absolute>
    <NoteOff Channel="1" Note="58" Velocity="0"/>
  </Event>
  <Event>
    <Absolute>52096</Absolute>
    <NoteOn Channel="1" Note="51" Velocity="127"/>
  </Event>
  <Event>
    <Absolute>52224</Absolute>
    <NoteOff Channel="1" Note="51" Velocity="0"/>
  </Event>
  <Event>
    <Absolute>52224</Absolute>
    <NoteOn Channel="1" Note="53" Velocity="127"/>
  </Event>
  <Event>
    <Absolute>52608</Absolute>
    <NoteOff Channel="1" Note="53" Velocity="0"/>
  </Event>
  <Event>
    <Absolute>52608</Absolute>
    <NoteOn Channel="1" Note="54" Velocity="127"/>
  </Event>
  <Event>
    <Absolute>52992</Absolute>
    <NoteOff Channel="1" Note="54" Velocity="0"/>
  </Event>
  <Event>
    <Absolute>54016</Absolute>
    <NoteOn Channel="1" Note="56" Velocity="127"/>
  </Event>
  <Event>
    <Absolute>54144</Absolute>
    <NoteOff Channel="1" Note="56" Velocity="0"/>
  </Event>
  <Event>
    <Absolute>54144</Absolute>
    <NoteOn Channel="1" Note="49" Velocity="127"/>
  </Event>
  <Event>
    <Absolute>54528</Absolute>
    <NoteOff Channel="1" Note="49" Velocity="0"/>
  </Event>
  <Event>
    <Absolute>54528</Absolute>
    <NoteOn Channel="1" Note="56" Velocity="127"/>
  </Event>
  <Event>
    <Absolute>54912</Absolute>
    <NoteOff Channel="1" Note="56" Velocity="0"/>
  </Event>
  <Event>
    <Absolute>55168</Absolute>
    <NoteOn Channel="1" Note="49" Velocity="127"/>
  </Event>
  <Event>
    <Absolute>55296</Absolute>
    <NoteOff Channel="1" Note="49" Velocity="0"/>
  </Event>
  <Event>
    <Absolute>55296</Absolute>
    <NoteOn Channel="1" Note="51" Velocity="127"/>
  </Event>
  <Event>
    <Absolute>55680</Absolute>
    <NoteOff Channel="1" Note="51" Velocity="0"/>
  </Event>
  <Event>
    <Absolute>55680</Absolute>
    <NoteOn Channel="1" Note="53" Velocity="127"/>
  </Event>
  <Event>
    <Absolute>56064</Absolute>
    <NoteOff Channel="1" Note="53" Velocity="0"/>
  </Event>
  <Event>
    <Absolute>57088</Absolute>
    <NoteOn Channel="1" Note="54" Velocity="127"/>
  </Event>
  <Event>
    <Absolute>57216</Absolute>
    <NoteOff Channel="1" Note="54" Velocity="0"/>
  </Event>
  <Event>
    <Absolute>57216</Absolute>
    <NoteOn Channel="1" Note="47" Velocity="127"/>
  </Event>
  <Event>
    <Absolute>57600</Absolute>
    <NoteOff Channel="1" Note="47" Velocity="0"/>
  </Event>
  <Event>
    <Absolute>57600</Absolute>
    <NoteOn Channel="1" Note="54" Velocity="127"/>
  </Event>
  <Event>
    <Absolute>57856</Absolute>
    <NoteOff Channel="1" Note="54" Velocity="0"/>
  </Event>
  <Event>
    <Absolute>58240</Absolute>
    <NoteOn Channel="1" Note="47" Velocity="127"/>
  </Event>
  <Event>
    <Absolute>58368</Absolute>
    <NoteOff Channel="1" Note="47" Velocity="0"/>
  </Event>
  <Event>
    <Absolute>58368</Absolute>
    <NoteOn Channel="1" Note="49" Velocity="127"/>
  </Event>
  <Event>
    <Absolute>58752</Absolute>
    <NoteOff Channel="1" Note="49" Velocity="0"/>
  </Event>
  <Event>
    <Absolute>58752</Absolute>
    <NoteOn Channel="1" Note="51" Velocity="127"/>
  </Event>
  <Event>
    <Absolute>59136</Absolute>
    <NoteOff Channel="1" Note="51" Velocity="0"/>
  </Event>
  <Event>
    <Absolute>60160</Absolute>
    <NoteOn Channel="1" Note="53" Velocity="127"/>
  </Event>
  <Event>
    <Absolute>60288</Absolute>
    <NoteOff Channel="1" Note="53" Velocity="0"/>
  </Event>
  <Event>
    <Absolute>60288</Absolute>
    <NoteOn Channel="1" Note="46" Velocity="127"/>
  </Event>
  <Event>
    <Absolute>60672</Absolute>
    <NoteOff Channel="1" Note="46" Velocity="0"/>
  </Event>
  <Event>
    <Absolute>60672</Absolute>
    <NoteOn Channel="1" Note="53" Velocity="127"/>
  </Event>
  <Event>
    <Absolute>61056</Absolute>
    <NoteOff Channel="1" Note="53" Velocity="0"/>
  </Event>
  <Event>
    <Absolute>61312</Absolute>
    <NoteOn Channel="1" Note="46" Velocity="127"/>
  </Event>
  <Event>
    <Absolute>61440</Absolute>
    <NoteOff Channel="1" Note="46" Velocity="0"/>
  </Event>
  <Event>
    <Absolute>61440</Absolute>
    <NoteOn Channel="1" Note="48" Velocity="127"/>
  </Event>
  <Event>
    <Absolute>61824</Absolute>
    <NoteOff Channel="1" Note="48" Velocity="0"/>
  </Event>
  <Event>
    <Absolute>61824</Absolute>
    <NoteOn Channel="1" Note="50" Velocity="127"/>
  </Event>
  <Event>
    <Absolute>62208</Absolute>
    <NoteOff Channel="1" Note="50" Velocity="0"/>
  </Event>
  <Event>
    <Absolute>63232</Absolute>
    <NoteOn Channel="1" Note="58" Velocity="127"/>
  </Event>
  <Event>
    <Absolute>63360</Absolute>
    <NoteOff Channel="1" Note="58" Velocity="0"/>
  </Event>
  <Event>
    <Absolute>63360</Absolute>
    <NoteOn Channel="1" Note="51" Velocity="127"/>
  </Event>
  <Event>
    <Absolute>63616</Absolute>
    <NoteOff Channel="1" Note="51" Velocity="0"/>
  </Event>
  <Event>
    <Absolute>63744</Absolute>
    <NoteOn Channel="1" Note="58" Velocity="127"/>
  </Event>
  <Event>
    <Absolute>64128</Absolute>
    <NoteOff Channel="1" Note="58" Velocity="0"/>
  </Event>
  <Event>
    <Absolute>64384</Absolute>
    <NoteOn Channel="1" Note="51" Velocity="127"/>
  </Event>
  <Event>
    <Absolute>64512</Absolute>
    <NoteOff Channel="1" Note="51" Velocity="0"/>
  </Event>
  <Event>
    <Absolute>64512</Absolute>
    <NoteOn Channel="1" Note="53" Velocity="127"/>
  </Event>
  <Event>
    <Absolute>64896</Absolute>
    <NoteOff Channel="1" Note="53" Velocity="0"/>
  </Event>
  <Event>
    <Absolute>64896</Absolute>
    <NoteOn Channel="1" Note="54" Velocity="127"/>
  </Event>
  <Event>
    <Absolute>65280</Absolute>
    <NoteOff Channel="1" Note="54" Velocity="0"/>
  </Event>
  <Event>
    <Absolute>66304</Absolute>
    <NoteOn Channel="1" Note="56" Velocity="127"/>
  </Event>
  <Event>
    <Absolute>66432</Absolute>
    <NoteOff Channel="1" Note="56" Velocity="0"/>
  </Event>
  <Event>
    <Absolute>66432</Absolute>
    <NoteOn Channel="1" Note="49" Velocity="127"/>
  </Event>
  <Event>
    <Absolute>66816</Absolute>
    <NoteOff Channel="1" Note="49" Velocity="0"/>
  </Event>
  <Event>
    <Absolute>66816</Absolute>
    <NoteOn Channel="1" Note="56" Velocity="127"/>
  </Event>
  <Event>
    <Absolute>67200</Absolute>
    <NoteOff Channel="1" Note="56" Velocity="0"/>
  </Event>
  <Event>
    <Absolute>67456</Absolute>
    <NoteOn Channel="1" Note="49" Velocity="127"/>
  </Event>
  <Event>
    <Absolute>67584</Absolute>
    <NoteOff Channel="1" Note="49" Velocity="0"/>
  </Event>
  <Event>
    <Absolute>67584</Absolute>
    <NoteOn Channel="1" Note="51" Velocity="127"/>
  </Event>
  <Event>
    <Absolute>67968</Absolute>
    <NoteOff Channel="1" Note="51" Velocity="0"/>
  </Event>
  <Event>
    <Absolute>67968</Absolute>
    <NoteOn Channel="1" Note="53" Velocity="127"/>
  </Event>
  <Event>
    <Absolute>68352</Absolute>
    <NoteOff Channel="1" Note="53" Velocity="0"/>
  </Event>
  <Event>
    <Absolute>69376</Absolute>
    <NoteOn Channel="1" Note="54" Velocity="127"/>
  </Event>
  <Event>
    <Absolute>69504</Absolute>
    <NoteOff Channel="1" Note="54" Velocity="0"/>
  </Event>
  <Event>
    <Absolute>69504</Absolute>
    <NoteOn Channel="1" Note="47" Velocity="127"/>
  </Event>
  <Event>
    <Absolute>69888</Absolute>
    <NoteOff Channel="1" Note="47" Velocity="0"/>
  </Event>
  <Event>
    <Absolute>69888</Absolute>
    <NoteOn Channel="1" Note="54" Velocity="127"/>
  </Event>
  <Event>
    <Absolute>70272</Absolute>
    <NoteOff Channel="1" Note="54" Velocity="0"/>
  </Event>
  <Event>
    <Absolute>70528</Absolute>
    <NoteOn Channel="1" Note="47" Velocity="127"/>
  </Event>
  <Event>
    <Absolute>70656</Absolute>
    <NoteOn Channel="1" Note="49" Velocity="127"/>
  </Event>
  <Event>
    <Absolute>70784</Absolute>
    <NoteOff Channel="1" Note="47" Velocity="0"/>
  </Event>
  <Event>
    <Absolute>71040</Absolute>
    <NoteOff Channel="1" Note="49" Velocity="0"/>
  </Event>
  <Event>
    <Absolute>71040</Absolute>
    <NoteOn Channel="1" Note="51" Velocity="127"/>
  </Event>
  <Event>
    <Absolute>71296</Absolute>
    <NoteOff Channel="1" Note="51" Velocity="0"/>
  </Event>
  <Event>
    <Absolute>72448</Absolute>
    <NoteOn Channel="1" Note="53" Velocity="127"/>
  </Event>
  <Event>
    <Absolute>72576</Absolute>
    <NoteOff Channel="1" Note="53" Velocity="0"/>
  </Event>
  <Event>
    <Absolute>72576</Absolute>
    <NoteOn Channel="1" Note="46" Velocity="127"/>
  </Event>
  <Event>
    <Absolute>72960</Absolute>
    <NoteOff Channel="1" Note="46" Velocity="0"/>
  </Event>
  <Event>
    <Absolute>72960</Absolute>
    <NoteOn Channel="1" Note="53" Velocity="127"/>
  </Event>
  <Event>
    <Absolute>73344</Absolute>
    <NoteOff Channel="1" Note="53" Velocity="0"/>
  </Event>
  <Event>
    <Absolute>73344</Absolute>
    <NoteOn Channel="1" Note="46" Velocity="127"/>
  </Event>
  <Event>
    <Absolute>73728</Absolute>
    <NoteOff Channel="1" Note="46" Velocity="0"/>
  </Event>
  <Event>
    <Absolute>73728</Absolute>
    <NoteOn Channel="1" Note="49" Velocity="127"/>
  </Event>
  <Event>
    <Absolute>73984</Absolute>
    <NoteOff Channel="1" Note="49" Velocity="0"/>
  </Event>
  <Event>
    <Absolute>74112</Absolute>
    <NoteOn Channel="1" Note="49" Velocity="127"/>
  </Event>
  <Event>
    <Absolute>74368</Absolute>
    <NoteOff Channel="1" Note="49" Velocity="0"/>
  </Event>
  <Event>
    <Absolute>74496</Absolute>
    <NoteOn Channel="1" Note="49" Velocity="127"/>
  </Event>
  <Event>
    <Absolute>74880</Absolute>
    <NoteOff Channel="1" Note="49" Velocity="0"/>
  </Event>
  <Event>
    <Absolute>74880</Absolute>
    <NoteOn Channel="1" Note="49" Velocity="127"/>
  </Event>
  <Event>
    <Absolute>75056</Absolute>
    <PitchBendChange Channel="1" Value="7644"/>
  </Event>
  <Event>
    <Absolute>75072</Absolute>
    <PitchBendChange Channel="1" Value="6876"/>
  </Event>
  <Event>
    <Absolute>75084</Absolute>
    <PitchBendChange Channel="1" Value="6236"/>
  </Event>
  <Event>
    <Absolute>75100</Absolute>
    <PitchBendChange Channel="1" Value="5468"/>
  </Event>
  <Event>
    <Absolute>75112</Absolute>
    <PitchBendChange Channel="1" Value="4828"/>
  </Event>
  <Event>
    <Absolute>75136</Absolute>
    <NoteOff Channel="1" Note="49" Velocity="0"/>
  </Event>
  <Event>
    <Absolute>75140</Absolute>
    <PitchBendChange Channel="1" Value="3548"/>
  </Event>
  <Event>
    <Absolute>75152</Absolute>
    <PitchBendChange Channel="1" Value="2268"/>
  </Event>
  <Event>
    <Absolute>75168</Absolute>
    <PitchBendChange Channel="1" Value="0"/>
  </Event>
  <Event>
    <Absolute>75180</Absolute>
    <PitchBendChange Channel="1" Value="0"/>
  </Event>
  <Event>
    <Absolute>75196</Absolute>
    <PitchBendChange Channel="1" Value="0"/>
  </Event>
  <Event>
    <Absolute>75200</Absolute>
    <PitchBendChange Channel="1" Value="8192"/>
  </Event>
  <Event>
    <Absolute>99840</Absolute>
    <NoteOn Channel="1" Note="34" Velocity="127"/>
  </Event>
  <Event>
    <Absolute>100944</Absolute>
    <NoteOff Channel="1" Note="34" Velocity="0"/>
  </Event>
  <Event>
    <Absolute>198880</Absolute>
    <ControlChange Channel="1" Control="7" Value="81"/>
  </Event>
  <Event>
    <Absolute>200048</Absolute>
    <ControlChange Channel="1" Control="7" Value="80"/>
  </Event>
  <Event>
    <Absolute>200704</Absolute>
    <ControlChange Channel="1" Control="7" Value="79"/>
  </Event>
  <Event>
    <Absolute>200816</Absolute>
    <ControlChange Channel="1" Control="7" Value="78"/>
  </Event>
  <Event>
    <Absolute>201120</Absolute>
    <ControlChange Channel="1" Control="7" Value="77"/>
  </Event>
  <Event>
    <Absolute>201312</Absolute>
    <ControlChange Channel="1" Control="7" Value="76"/>
  </Event>
  <Event>
    <Absolute>201536</Absolute>
    <ControlChange Channel="1" Control="7" Value="75"/>
  </Event>
  <Event>
    <Absolute>201584</Absolute>
    <ControlChange Channel="1" Control="7" Value="74"/>
  </Event>
  <Event>
    <Absolute>201952</Absolute>
    <ControlChange Channel="1" Control="7" Value="73"/>
  </Event>
  <Event>
    <Absolute>202032</Absolute>
    <ControlChange Channel="1" Control="7" Value="72"/>
  </Event>
  <Event>
    <Absolute>202256</Absolute>
    <ControlChange Channel="1" Control="7" Value="71"/>
  </Event>
  <Event>
    <Absolute>202304</Absolute>
    <ControlChange Channel="1" Control="7" Value="70"/>
  </Event>
  <Event>
    <Absolute>202400</Absolute>
    <ControlChange Channel="1" Control="7" Value="69"/>
  </Event>
  <Event>
    <Absolute>202416</Absolute>
    <ControlChange Channel="1" Control="7" Value="68"/>
  </Event>
  <Event>
    <Absolute>202480</Absolute>
    <ControlChange Channel="1" Control="7" Value="67"/>
  </Event>
  <Event>
    <Absolute>202528</Absolute>
    <ControlChange Channel="1" Control="7" Value="66"/>
  </Event>
  <Event>
    <Absolute>202576</Absolute>
    <ControlChange Channel="1" Control="7" Value="65"/>
  </Event>
  <Event>
    <Absolute>202592</Absolute>
    <ControlChange Channel="1" Control="7" Value="64"/>
  </Event>
  <Event>
    <Absolute>202672</Absolute>
    <ControlChange Channel="1" Control="7" Value="63"/>
  </Event>
  <Event>
    <Absolute>202720</Absolute>
    <ControlChange Channel="1" Control="7" Value="62"/>
  </Event>
  <Event>
    <Absolute>202772</Absolute>
    <ControlChange Channel="1" Control="7" Value="61"/>
  </Event>
  <Event>
    <Absolute>202864</Absolute>
    <ControlChange Channel="1" Control="7" Value="60"/>
  </Event>
  <Event>
    <Absolute>203008</Absolute>
    <ControlChange Channel="1" Control="7" Value="59"/>
  </Event>
  <Event>
    <Absolute>203040</Absolute>
    <ControlChange Channel="1" Control="7" Value="58"/>
  </Event>
  <Event>
    <Absolute>203188</Absolute>
    <ControlChange Channel="1" Control="7" Value="57"/>
  </Event>
  <Event>
    <Absolute>203232</Absolute>
    <ControlChange Channel="1" Control="7" Value="56"/>
  </Event>
  <Event>
    <Absolute>203360</Absolute>
    <ControlChange Channel="1" Control="7" Value="55"/>
  </Event>
  <Event>
    <Absolute>203408</Absolute>
    <ControlChange Channel="1" Control="7" Value="54"/>
  </Event>
  <Event>
    <Absolute>203536</Absolute>
    <ControlChange Channel="1" Control="7" Value="53"/>
  </Event>
  <Event>
    <Absolute>203624</Absolute>
    <ControlChange Channel="1" Control="7" Value="52"/>
  </Event>
  <Event>
    <Absolute>203720</Absolute>
    <ControlChange Channel="1" Control="7" Value="51"/>
  </Event>
  <Event>
    <Absolute>203752</Absolute>
    <ControlChange Channel="1" Control="7" Value="50"/>
  </Event>
  <Event>
    <Absolute>203808</Absolute>
    <ControlChange Channel="1" Control="7" Value="49"/>
  </Event>
  <Event>
    <Absolute>203920</Absolute>
    <ControlChange Channel="1" Control="7" Value="48"/>
  </Event>
  <Event>
    <Absolute>203984</Absolute>
    <ControlChange Channel="1" Control="7" Value="47"/>
  </Event>
  <Event>
    <Absolute>204032</Absolute>
    <ControlChange Channel="1" Control="7" Value="46"/>
  </Event>
  <Event>
    <Absolute>204112</Absolute>
    <ControlChange Channel="1" Control="7" Value="45"/>
  </Event>
  <Event>
    <Absolute>204192</Absolute>
    <ControlChange Channel="1" Control="7" Value="44"/>
  </Event>
  <Event>
    <Absolute>204324</Absolute>
    <ControlChange Channel="1" Control="7" Value="43"/>
  </Event>
  <Event>
    <Absolute>204368</Absolute>
    <ControlChange Channel="1" Control="7" Value="42"/>
  </Event>
  <Event>
    <Absolute>204432</Absolute>
    <ControlChange Channel="1" Control="7" Value="41"/>
  </Event>
  <Event>
    <Absolute>204544</Absolute>
    <ControlChange Channel="1" Control="7" Value="40"/>
  </Event>
  <Event>
    <Absolute>204624</Absolute>
    <ControlChange Channel="1" Control="7" Value="39"/>
  </Event>
  <Event>
    <Absolute>204672</Absolute>
    <ControlChange Channel="1" Control="7" Value="38"/>
  </Event>
  <Event>
    <Absolute>204736</Absolute>
    <ControlChange Channel="1" Control="7" Value="37"/>
  </Event>
  <Event>
    <Absolute>204768</Absolute>
    <ControlChange Channel="1" Control="7" Value="36"/>
  </Event>
  <Event>
    <Absolute>204896</Absolute>
    <ControlChange Channel="1" Control="7" Value="35"/>
  </Event>
  <Event>
    <Absolute>204928</Absolute>
    <ControlChange Channel="1" Control="7" Value="34"/>
  </Event>
  <Event>
    <Absolute>205024</Absolute>
    <ControlChange Channel="1" Control="7" Value="33"/>
  </Event>
  <Event>
    <Absolute>205056</Absolute>
    <ControlChange Channel="1" Control="7" Value="32"/>
  </Event>
  <Event>
    <Absolute>205184</Absolute>
    <ControlChange Channel="1" Control="7" Value="31"/>
  </Event>
  <Event>
    <Absolute>205264</Absolute>
    <ControlChange Channel="1" Control="7" Value="30"/>
  </Event>
  <Event>
    <Absolute>205424</Absolute>
    <ControlChange Channel="1" Control="7" Value="29"/>
  </Event>
  <Event>
    <Absolute>205456</Absolute>
    <ControlChange Channel="1" Control="7" Value="28"/>
  </Event>
  <Event>
    <Absolute>205488</Absolute>
    <ControlChange Channel="1" Control="7" Value="27"/>
  </Event>
  <Event>
    <Absolute>205536</Absolute>
    <ControlChange Channel="1" Control="7" Value="26"/>
  </Event>
  <Event>
    <Absolute>205552</Absolute>
    <ControlChange Channel="1" Control="7" Value="25"/>
  </Event>
  <Event>
    <Absolute>205648</Absolute>
    <ControlChange Channel="1" Control="7" Value="24"/>
  </Event>
  <Event>
    <Absolute>205728</Absolute>
    <ControlChange Channel="1" Control="7" Value="23"/>
  </Event>
  <Event>
    <Absolute>205904</Absolute>
    <ControlChange Channel="1" Control="7" Value="22"/>
  </Event>
  <Event>
    <Absolute>205920</Absolute>
    <ControlChange Channel="1" Control="7" Value="21"/>
  </Event>
  <Event>
    <Absolute>206032</Absolute>
    <ControlChange Channel="1" Control="7" Value="20"/>
  </Event>
  <Event>
    <Absolute>206228</Absolute>
    <ControlChange Channel="1" Control="7" Value="19"/>
  </Event>
  <Event>
    <Absolute>206288</Absolute>
    <ControlChange Channel="1" Control="7" Value="18"/>
  </Event>
  <Event>
    <Absolute>206528</Absolute>
    <ControlChange Channel="1" Control="7" Value="17"/>
  </Event>
  <Event>
    <Absolute>206624</Absolute>
    <ControlChange Channel="1" Control="7" Value="16"/>
  </Event>
  <Event>
    <Absolute>206720</Absolute>
    <ControlChange Channel="1" Control="7" Value="15"/>
  </Event>
  <Event>
    <Absolute>206792</Absolute>
    <ControlChange Channel="1" Control="7" Value="14"/>
  </Event>
  <Event>
    <Absolute>206880</Absolute>
    <ControlChange Channel="1" Control="7" Value="13"/>
  </Event>
  <Event>
    <Absolute>207008</Absolute>
    <ControlChange Channel="1" Control="7" Value="12"/>
  </Event>
  <Event>
    <Absolute>207360</Absolute>
    <ControlChange Channel="1" Control="7" Value="11"/>
  </Event>
  <Event>
    <Absolute>207392</Absolute>
    <ControlChange Channel="1" Control="7" Value="10"/>
  </Event>
  <Event>
    <Absolute>207696</Absolute>
    <ControlChange Channel="1" Control="7" Value="9"/>
  </Event>
  <Event>
    <Absolute>207808</Absolute>
    <ControlChange Channel="1" Control="7" Value="8"/>
  </Event>
  <Event>
    <Absolute>207824</Absolute>
    <ControlChange Channel="1" Control="7" Value="7"/>
  </Event>
  <Event>
    <Absolute>208128</Absolute>
    <ControlChange Channel="1" Control="7" Value="6"/>
  </Event>
  <Event>
    <Absolute>208224</Absolute>
    <ControlChange Channel="1" Control="7" Value="5"/>
  </Event>
  <Event>
    <Absolute>208720</Absolute>
    <ControlChange Channel="1" Control="7" Value="4"/>
  </Event>
  <Event>
    <Absolute>208912</Absolute>
    <ControlChange Channel="1" Control="7" Value="3"/>
  </Event>
  <Event>
    <Absolute>209120</Absolute>
    <ControlChange Channel="1" Control="7" Value="2"/>
  </Event>
  <Event>
    <Absolute>209120</Absolute>
    <EndOfTrack/>
  </Event>
</Track>
<Track Number="4">
  <Event>
    <Absolute>0</Absolute>
    <TrackName>Organ</TrackName>
  </Event>
  <Event>
    <Absolute>0</Absolute>
    <ControlChange Channel="2" Control="0" Value="0"/>
  </Event>
  <Event>
    <Absolute>0</Absolute>
    <ProgramChange Channel="2" Number="18"/>
  </Event>
  <Event>
    <Absolute>0</Absolute>
    <ControlChange Channel="2" Control="7" Value="86"/>
  </Event>
  <Event>
    <Absolute>0</Absolute>
    <ControlChange Channel="2" Control="10" Value="63"/>
  </Event>
  <Event>
    <Absolute>0</Absolute>
    <ControlChange Channel="2" Control="91" Value="127"/>
  </Event>
  <Event>
    <Absolute>0</Absolute>
    <ControlChange Channel="2" Control="93" Value="124"/>
  </Event>
  <Event>
    <Absolute>0</Absolute>
    <KeySignature Fifths="0" Mode="0"/>
  </Event>
  <Event>
    <Absolute>1536</Absolute>
    <NoteOn Channel="2" Note="87" Velocity="127"/>
  </Event>
  <Event>
    <Absolute>1536</Absolute>
    <NoteOn Channel="2" Note="90" Velocity="127"/>
  </Event>
  <Event>
    <Absolute>1536</Absolute>
    <NoteOn Channel="2" Note="94" Velocity="127"/>
  </Event>
  <Event>
    <Absolute>1728</Absolute>
    <NoteOff Channel="2" Note="87" Velocity="0"/>
  </Event>
  <Event>
    <Absolute>1728</Absolute>
    <NoteOff Channel="2" Note="90" Velocity="0"/>
  </Event>
  <Event>
    <Absolute>1728</Absolute>
    <NoteOff Channel="2" Note="94" Velocity="0"/>
  </Event>
  <Event>
    <Absolute>1920</Absolute>
    <NoteOn Channel="2" Note="90" Velocity="127"/>
  </Event>
  <Event>
    <Absolute>1920</Absolute>
    <NoteOn Channel="2" Note="94" Velocity="127"/>
  </Event>
  <Event>
    <Absolute>1920</Absolute>
    <NoteOn Channel="2" Note="87" Velocity="127"/>
  </Event>
  <Event>
    <Absolute>2112</Absolute>
    <NoteOff Channel="2" Note="90" Velocity="0"/>
  </Event>
  <Event>
    <Absolute>2112</Absolute>
    <NoteOff Channel="2" Note="94" Velocity="0"/>
  </Event>
  <Event>
    <Absolute>2112</Absolute>
    <NoteOff Channel="2" Note="87" Velocity="0"/>
  </Event>
  <Event>
    <Absolute>2304</Absolute>
    <NoteOn Channel="2" Note="87" Velocity="127"/>
  </Event>
  <Event>
    <Absolute>2304</Absolute>
    <NoteOn Channel="2" Note="90" Velocity="127"/>
  </Event>
  <Event>
    <Absolute>2304</Absolute>
    <NoteOn Channel="2" Note="94" Velocity="127"/>
  </Event>
  <Event>
    <Absolute>2496</Absolute>
    <NoteOff Channel="2" Note="87" Velocity="0"/>
  </Event>
  <Event>
    <Absolute>2496</Absolute>
    <NoteOff Channel="2" Note="90" Velocity="0"/>
  </Event>
  <Event>
    <Absolute>2496</Absolute>
    <NoteOff Channel="2" Note="94" Velocity="0"/>
  </Event>
  <Event>
    <Absolute>2688</Absolute>
    <NoteOn Channel="2" Note="87" Velocity="127"/>
  </Event>
  <Event>
    <Absolute>2688</Absolute>
    <NoteOn Channel="2" Note="90" Velocity="127"/>
  </Event>
  <Event>
    <Absolute>2688</Absolute>
    <NoteOn Channel="2" Note="94" Velocity="127"/>
  </Event>
  <Event>
    <Absolute>2880</Absolute>
    <NoteOff Channel="2" Note="87" Velocity="0"/>
  </Event>
  <Event>
    <Absolute>2880</Absolute>
    <NoteOff Channel="2" Note="90" Velocity="0"/>
  </Event>
  <Event>
    <Absolute>2880</Absolute>
    <NoteOff Channel="2" Note="94" Velocity="0"/>
  </Event>
  <Event>
    <Absolute>3072</Absolute>
    <NoteOn Channel="2" Note="87" Velocity="127"/>
  </Event>
  <Event>
    <Absolute>3072</Absolute>
    <NoteOn Channel="2" Note="90" Velocity="127"/>
  </Event>
  <Event>
    <Absolute>3072</Absolute>
    <NoteOn Channel="2" Note="94" Velocity="127"/>
  </Event>
  <Event>
    <Absolute>3264</Absolute>
    <NoteOff Channel="2" Note="87" Velocity="0"/>
  </Event>
  <Event>
    <Absolute>3264</Absolute>
    <NoteOff Channel="2" Note="90" Velocity="0"/>
  </Event>
  <Event>
    <Absolute>3264</Absolute>
    <NoteOff Channel="2" Note="94" Velocity="0"/>
  </Event>
  <Event>
    <Absolute>3456</Absolute>
    <NoteOn Channel="2" Note="87" Velocity="127"/>
  </Event>
  <Event>
    <Absolute>3456</Absolute>
    <NoteOn Channel="2" Note="90" Velocity="127"/>
  </Event>
  <Event>
    <Absolute>3456</Absolute>
    <NoteOn Channel="2" Note="94" Velocity="127"/>
  </Event>
  <Event>
    <Absolute>3648</Absolute>
    <NoteOff Channel="2" Note="87" Velocity="0"/>
  </Event>
  <Event>
    <Absolute>3648</Absolute>
    <NoteOff Channel="2" Note="90" Velocity="0"/>
  </Event>
  <Event>
    <Absolute>3648</Absolute>
    <NoteOff Channel="2" Note="94" Velocity="0"/>
  </Event>
  <Event>
    <Absolute>3840</Absolute>
    <NoteOn Channel="2" Note="87" Velocity="127"/>
  </Event>
  <Event>
    <Absolute>3840</Absolute>
    <NoteOn Channel="2" Note="90" Velocity="127"/>
  </Event>
  <Event>
    <Absolute>3840</Absolute>
    <NoteOn Channel="2" Note="94" Velocity="127"/>
  </Event>
  <Event>
    <Absolute>4032</Absolute>
    <NoteOff Channel="2" Note="87" Velocity="0"/>
  </Event>
  <Event>
    <Absolute>4032</Absolute>
    <NoteOff Channel="2" Note="90" Velocity="0"/>
  </Event>
  <Event>
    <Absolute>4032</Absolute>
    <NoteOff Channel="2" Note="94" Velocity="0"/>
  </Event>
  <Event>
    <Absolute>4224</Absolute>
    <NoteOn Channel="2" Note="87" Velocity="127"/>
  </Event>
  <Event>
    <Absolute>4224</Absolute>
    <NoteOn Channel="2" Note="90" Velocity="127"/>
  </Event>
  <Event>
    <Absolute>4224</Absolute>
    <NoteOn Channel="2" Note="94" Velocity="127"/>
  </Event>
  <Event>
    <Absolute>4416</Absolute>
    <NoteOff Channel="2" Note="87" Velocity="0"/>
  </Event>
  <Event>
    <Absolute>4416</Absolute>
    <NoteOff Channel="2" Note="90" Velocity="0"/>
  </Event>
  <Event>
    <Absolute>4416</Absolute>
    <NoteOff Channel="2" Note="94" Velocity="0"/>
  </Event>
  <Event>
    <Absolute>4608</Absolute>
    <NoteOn Channel="2" Note="85" Velocity="127"/>
  </Event>
  <Event>
    <Absolute>4608</Absolute>
    <NoteOn Channel="2" Note="89" Velocity="127"/>
  </Event>
  <Event>
    <Absolute>4608</Absolute>
    <NoteOn Channel="2" Note="92" Velocity="127"/>
  </Event>
  <Event>
    <Absolute>4800</Absolute>
    <NoteOff Channel="2" Note="85" Velocity="0"/>
  </Event>
  <Event>
    <Absolute>4800</Absolute>
    <NoteOff Channel="2" Note="89" Velocity="0"/>
  </Event>
  <Event>
    <Absolute>4800</Absolute>
    <NoteOff Channel="2" Note="92" Velocity="0"/>
  </Event>
  <Event>
    <Absolute>4992</Absolute>
    <NoteOn Channel="2" Note="89" Velocity="127"/>
  </Event>
  <Event>
    <Absolute>4992</Absolute>
    <NoteOn Channel="2" Note="85" Velocity="127"/>
  </Event>
  <Event>
    <Absolute>4992</Absolute>
    <NoteOn Channel="2" Note="92" Velocity="127"/>
  </Event>
  <Event>
    <Absolute>5184</Absolute>
    <NoteOff Channel="2" Note="89" Velocity="0"/>
  </Event>
  <Event>
    <Absolute>5184</Absolute>
    <NoteOff Channel="2" Note="85" Velocity="0"/>
  </Event>
  <Event>
    <Absolute>5184</Absolute>
    <NoteOff Channel="2" Note="92" Velocity="0"/>
  </Event>
  <Event>
    <Absolute>5376</Absolute>
    <NoteOn Channel="2" Note="85" Velocity="127"/>
  </Event>
  <Event>
    <Absolute>5376</Absolute>
    <NoteOn Channel="2" Note="89" Velocity="127"/>
  </Event>
  <Event>
    <Absolute>5376</Absolute>
    <NoteOn Channel="2" Note="92" Velocity="127"/>
  </Event>
  <Event>
    <Absolute>5568</Absolute>
    <NoteOff Channel="2" Note="85" Velocity="0"/>
  </Event>
  <Event>
    <Absolute>5568</Absolute>
    <NoteOff Channel="2" Note="89" Velocity="0"/>
  </Event>
  <Event>
    <Absolute>5568</Absolute>
    <NoteOff Channel="2" Note="92" Velocity="0"/>
  </Event>
  <Event>
    <Absolute>5760</Absolute>
    <NoteOn Channel="2" Note="85" Velocity="127"/>
  </Event>
  <Event>
    <Absolute>5760</Absolute>
    <NoteOn Channel="2" Note="89" Velocity="127"/>
  </Event>
  <Event>
    <Absolute>5760</Absolute>
    <NoteOn Channel="2" Note="92" Velocity="127"/>
  </Event>
  <Event>
    <Absolute>5952</Absolute>
    <NoteOff Channel="2" Note="85" Velocity="0"/>
  </Event>
  <Event>
    <Absolute>5952</Absolute>
    <NoteOff Channel="2" Note="89" Velocity="0"/>
  </Event>
  <Event>
    <Absolute>5952</Absolute>
    <NoteOff Channel="2" Note="92" Velocity="0"/>
  </Event>
  <Event>
    <Absolute>6144</Absolute>
    <NoteOn Channel="2" Note="85" Velocity="127"/>
  </Event>
  <Event>
    <Absolute>6144</Absolute>
    <NoteOn Channel="2" Note="89" Velocity="127"/>
  </Event>
  <Event>
    <Absolute>6144</Absolute>
    <NoteOn Channel="2" Note="92" Velocity="127"/>
  </Event>
  <Event>
    <Absolute>6336</Absolute>
    <NoteOff Channel="2" Note="85" Velocity="0"/>
  </Event>
  <Event>
    <Absolute>6336</Absolute>
    <NoteOff Channel="2" Note="89" Velocity="0"/>
  </Event>
  <Event>
    <Absolute>6336</Absolute>
    <NoteOff Channel="2" Note="92" Velocity="0"/>
  </Event>
  <Event>
    <Absolute>6528</Absolute>
    <NoteOn Channel="2" Note="85" Velocity="127"/>
  </Event>
  <Event>
    <Absolute>6528</Absolute>
    <NoteOn Channel="2" Note="92" Velocity="127"/>
  </Event>
  <Event>
    <Absolute>6528</Absolute>
    <NoteOn Channel="2" Note="89" Velocity="127"/>
  </Event>
  <Event>
    <Absolute>6720</Absolute>
    <NoteOff Channel="2" Note="85" Velocity="0"/>
  </Event>
  <Event>
    <Absolute>6720</Absolute>
    <NoteOff Channel="2" Note="92" Velocity="0"/>
  </Event>
  <Event>
    <Absolute>6720</Absolute>
    <NoteOff Channel="2" Note="89" Velocity="0"/>
  </Event>
  <Event>
    <Absolute>6912</Absolute>
    <NoteOn Channel="2" Note="85" Velocity="127"/>
  </Event>
  <Event>
    <Absolute>6912</Absolute>
    <NoteOn Channel="2" Note="92" Velocity="127"/>
  </Event>
  <Event>
    <Absolute>6912</Absolute>
    <NoteOn Channel="2" Note="89" Velocity="127"/>
  </Event>
  <Event>
    <Absolute>7104</Absolute>
    <NoteOff Channel="2" Note="85" Velocity="0"/>
  </Event>
  <Event>
    <Absolute>7104</Absolute>
    <NoteOff Channel="2" Note="92" Velocity="0"/>
  </Event>
  <Event>
    <Absolute>7104</Absolute>
    <NoteOff Channel="2" Note="89" Velocity="0"/>
  </Event>
  <Event>
    <Absolute>7296</Absolute>
    <NoteOn Channel="2" Note="85" Velocity="127"/>
  </Event>
  <Event>
    <Absolute>7296</Absolute>
    <NoteOn Channel="2" Note="92" Velocity="127"/>
  </Event>
  <Event>
    <Absolute>7296</Absolute>
    <NoteOn Channel="2" Note="89" Velocity="127"/>
  </Event>
  <Event>
    <Absolute>7488</Absolute>
    <NoteOff Channel="2" Note="85" Velocity="0"/>
  </Event>
  <Event>
    <Absolute>7488</Absolute>
    <NoteOff Channel="2" Note="92" Velocity="0"/>
  </Event>
  <Event>
    <Absolute>7488</Absolute>
    <NoteOff Channel="2" Note="89" Velocity="0"/>
  </Event>
  <Event>
    <Absolute>7680</Absolute>
    <NoteOn Channel="2" Note="83" Velocity="127"/>
  </Event>
  <Event>
    <Absolute>7680</Absolute>
    <NoteOn Channel="2" Note="87" Velocity="127"/>
  </Event>
  <Event>
    <Absolute>7680</Absolute>
    <NoteOn Channel="2" Note="90" Velocity="127"/>
  </Event>
  <Event>
    <Absolute>7872</Absolute>
    <NoteOff Channel="2" Note="83" Velocity="0"/>
  </Event>
  <Event>
    <Absolute>7872</Absolute>
    <NoteOff Channel="2" Note="87" Velocity="0"/>
  </Event>
  <Event>
    <Absolute>7872</Absolute>
    <NoteOff Channel="2" Note="90" Velocity="0"/>
  </Event>
  <Event>
    <Absolute>8064</Absolute>
    <NoteOn Channel="2" Note="83" Velocity="127"/>
  </Event>
  <Event>
    <Absolute>8064</Absolute>
    <NoteOn Channel="2" Note="87" Velocity="127"/>
  </Event>
  <Event>
    <Absolute>8064</Absolute>
    <NoteOn Channel="2" Note="90" Velocity="127"/>
  </Event>
  <Event>
    <Absolute>8256</Absolute>
    <NoteOff Channel="2" Note="83" Velocity="0"/>
  </Event>
  <Event>
    <Absolute>8256</Absolute>
    <NoteOff Channel="2" Note="87" Velocity="0"/>
  </Event>
  <Event>
    <Absolute>8256</Absolute>
    <NoteOff Channel="2" Note="90" Velocity="0"/>
  </Event>
  <Event>
    <Absolute>8448</Absolute>
    <NoteOn Channel="2" Note="90" Velocity="127"/>
  </Event>
  <Event>
    <Absolute>8448</Absolute>
    <NoteOn Channel="2" Note="83" Velocity="127"/>
  </Event>
  <Event>
    <Absolute>8448</Absolute>
    <NoteOn Channel="2" Note="87" Velocity="127"/>
  </Event>
  <Event>
    <Absolute>8640</Absolute>
    <NoteOff Channel="2" Note="90" Velocity="0"/>
  </Event>
  <Event>
    <Absolute>8640</Absolute>
    <NoteOff Channel="2" Note="83" Velocity="0"/>
  </Event>
  <Event>
    <Absolute>8640</Absolute>
    <NoteOff Channel="2" Note="87" Velocity="0"/>
  </Event>
  <Event>
    <Absolute>8832</Absolute>
    <NoteOn Channel="2" Note="83" Velocity="127"/>
  </Event>
  <Event>
    <Absolute>8832</Absolute>
    <NoteOn Channel="2" Note="87" Velocity="127"/>
  </Event>
  <Event>
    <Absolute>8832</Absolute>
    <NoteOn Channel="2" Note="90" Velocity="127"/>
  </Event>
  <Event>
    <Absolute>9024</Absolute>
    <NoteOff Channel="2" Note="83" Velocity="0"/>
  </Event>
  <Event>
    <Absolute>9024</Absolute>
    <NoteOff Channel="2" Note="87" Velocity="0"/>
  </Event>
  <Event>
    <Absolute>9024</Absolute>
    <NoteOff Channel="2" Note="90" Velocity="0"/>
  </Event>
  <Event>
    <Absolute>9216</Absolute>
    <NoteOn Channel="2" Note="90" Velocity="127"/>
  </Event>
  <Event>
    <Absolute>9216</Absolute>
    <NoteOn Channel="2" Note="87" Velocity="127"/>
  </Event>
  <Event>
    <Absolute>9216</Absolute>
    <NoteOn Channel="2" Note="83" Velocity="127"/>
  </Event>
  <Event>
    <Absolute>9408</Absolute>
    <NoteOff Channel="2" Note="90" Velocity="0"/>
  </Event>
  <Event>
    <Absolute>9408</Absolute>
    <NoteOff Channel="2" Note="87" Velocity="0"/>
  </Event>
  <Event>
    <Absolute>9408</Absolute>
    <NoteOff Channel="2" Note="83" Velocity="0"/>
  </Event>
  <Event>
    <Absolute>9600</Absolute>
    <NoteOn Channel="2" Note="90" Velocity="127"/>
  </Event>
  <Event>
    <Absolute>9600</Absolute>
    <NoteOn Channel="2" Note="83" Velocity="127"/>
  </Event>
  <Event>
    <Absolute>9600</Absolute>
    <NoteOn Channel="2" Note="87" Velocity="127"/>
  </Event>
  <Event>
    <Absolute>9792</Absolute>
    <NoteOff Channel="2" Note="90" Velocity="0"/>
  </Event>
  <Event>
    <Absolute>9792</Absolute>
    <NoteOff Channel="2" Note="83" Velocity="0"/>
  </Event>
  <Event>
    <Absolute>9792</Absolute>
    <NoteOff Channel="2" Note="87" Velocity="0"/>
  </Event>
  <Event>
    <Absolute>9984</Absolute>
    <NoteOn Channel="2" Note="83" Velocity="127"/>
  </Event>
  <Event>
    <Absolute>9984</Absolute>
    <NoteOn Channel="2" Note="87" Velocity="127"/>
  </Event>
  <Event>
    <Absolute>9984</Absolute>
    <NoteOn Channel="2" Note="90" Velocity="127"/>
  </Event>
  <Event>
    <Absolute>10176</Absolute>
    <NoteOff Channel="2" Note="83" Velocity="0"/>
  </Event>
  <Event>
    <Absolute>10176</Absolute>
    <NoteOff Channel="2" Note="87" Velocity="0"/>
  </Event>
  <Event>
    <Absolute>10176</Absolute>
    <NoteOff Channel="2" Note="90" Velocity="0"/>
  </Event>
  <Event>
    <Absolute>10368</Absolute>
    <NoteOn Channel="2" Note="83" Velocity="127"/>
  </Event>
  <Event>
    <Absolute>10368</Absolute>
    <NoteOn Channel="2" Note="90" Velocity="127"/>
  </Event>
  <Event>
    <Absolute>10368</Absolute>
    <NoteOn Channel="2" Note="87" Velocity="127"/>
  </Event>
  <Event>
    <Absolute>10560</Absolute>
    <NoteOff Channel="2" Note="83" Velocity="0"/>
  </Event>
  <Event>
    <Absolute>10560</Absolute>
    <NoteOff Channel="2" Note="90" Velocity="0"/>
  </Event>
  <Event>
    <Absolute>10560</Absolute>
    <NoteOff Channel="2" Note="87" Velocity="0"/>
  </Event>
  <Event>
    <Absolute>10752</Absolute>
    <NoteOn Channel="2" Note="82" Velocity="127"/>
  </Event>
  <Event>
    <Absolute>10752</Absolute>
    <NoteOn Channel="2" Note="86" Velocity="127"/>
  </Event>
  <Event>
    <Absolute>10752</Absolute>
    <NoteOn Channel="2" Note="89" Velocity="127"/>
  </Event>
  <Event>
    <Absolute>10944</Absolute>
    <NoteOff Channel="2" Note="82" Velocity="0"/>
  </Event>
  <Event>
    <Absolute>10944</Absolute>
    <NoteOff Channel="2" Note="86" Velocity="0"/>
  </Event>
  <Event>
    <Absolute>10944</Absolute>
    <NoteOff Channel="2" Note="89" Velocity="0"/>
  </Event>
  <Event>
    <Absolute>11136</Absolute>
    <NoteOn Channel="2" Note="82" Velocity="127"/>
  </Event>
  <Event>
    <Absolute>11136</Absolute>
    <NoteOn Channel="2" Note="89" Velocity="127"/>
  </Event>
  <Event>
    <Absolute>11136</Absolute>
    <NoteOn Channel="2" Note="86" Velocity="127"/>
  </Event>
  <Event>
    <Absolute>11328</Absolute>
    <NoteOff Channel="2" Note="82" Velocity="0"/>
  </Event>
  <Event>
    <Absolute>11328</Absolute>
    <NoteOff Channel="2" Note="89" Velocity="0"/>
  </Event>
  <Event>
    <Absolute>11328</Absolute>
    <NoteOff Channel="2" Note="86" Velocity="0"/>
  </Event>
  <Event>
    <Absolute>11520</Absolute>
    <NoteOn Channel="2" Note="82" Velocity="127"/>
  </Event>
  <Event>
    <Absolute>11520</Absolute>
    <NoteOn Channel="2" Note="89" Velocity="127"/>
  </Event>
  <Event>
    <Absolute>11520</Absolute>
    <NoteOn Channel="2" Note="86" Velocity="127"/>
  </Event>
  <Event>
    <Absolute>11712</Absolute>
    <NoteOff Channel="2" Note="82" Velocity="0"/>
  </Event>
  <Event>
    <Absolute>11712</Absolute>
    <NoteOff Channel="2" Note="89" Velocity="0"/>
  </Event>
  <Event>
    <Absolute>11712</Absolute>
    <NoteOff Channel="2" Note="86" Velocity="0"/>
  </Event>
  <Event>
    <Absolute>11904</Absolute>
    <NoteOn Channel="2" Note="82" Velocity="127"/>
  </Event>
  <Event>
    <Absolute>11904</Absolute>
    <NoteOn Channel="2" Note="86" Velocity="127"/>
  </Event>
  <Event>
    <Absolute>11904</Absolute>
    <NoteOn Channel="2" Note="89" Velocity="127"/>
  </Event>
  <Event>
    <Absolute>12096</Absolute>
    <NoteOff Channel="2" Note="82" Velocity="0"/>
  </Event>
  <Event>
    <Absolute>12096</Absolute>
    <NoteOff Channel="2" Note="86" Velocity="0"/>
  </Event>
  <Event>
    <Absolute>12096</Absolute>
    <NoteOff Channel="2" Note="89" Velocity="0"/>
  </Event>
  <Event>
    <Absolute>12288</Absolute>
    <NoteOn Channel="2" Note="82" Velocity="127"/>
  </Event>
  <Event>
    <Absolute>12288</Absolute>
    <NoteOn Channel="2" Note="86" Velocity="127"/>
  </Event>
  <Event>
    <Absolute>12288</Absolute>
    <NoteOn Channel="2" Note="89" Velocity="127"/>
  </Event>
  <Event>
    <Absolute>12480</Absolute>
    <NoteOff Channel="2" Note="82" Velocity="0"/>
  </Event>
  <Event>
    <Absolute>12480</Absolute>
    <NoteOff Channel="2" Note="86" Velocity="0"/>
  </Event>
  <Event>
    <Absolute>12480</Absolute>
    <NoteOff Channel="2" Note="89" Velocity="0"/>
  </Event>
  <Event>
    <Absolute>12672</Absolute>
    <NoteOn Channel="2" Note="82" Velocity="127"/>
  </Event>
  <Event>
    <Absolute>12672</Absolute>
    <NoteOn Channel="2" Note="86" Velocity="127"/>
  </Event>
  <Event>
    <Absolute>12672</Absolute>
    <NoteOn Channel="2" Note="89" Velocity="127"/>
  </Event>
  <Event>
    <Absolute>12864</Absolute>
    <NoteOff Channel="2" Note="82" Velocity="0"/>
  </Event>
  <Event>
    <Absolute>12864</Absolute>
    <NoteOff Channel="2" Note="86" Velocity="0"/>
  </Event>
  <Event>
    <Absolute>12864</Absolute>
    <NoteOff Channel="2" Note="89" Velocity="0"/>
  </Event>
  <Event>
    <Absolute>13056</Absolute>
    <NoteOn Channel="2" Note="82" Velocity="127"/>
  </Event>
  <Event>
    <Absolute>13056</Absolute>
    <NoteOn Channel="2" Note="86" Velocity="127"/>
  </Event>
  <Event>
    <Absolute>13056</Absolute>
    <NoteOn Channel="2" Note="89" Velocity="127"/>
  </Event>
  <Event>
    <Absolute>13248</Absolute>
    <NoteOff Channel="2" Note="82" Velocity="0"/>
  </Event>
  <Event>
    <Absolute>13248</Absolute>
    <NoteOff Channel="2" Note="86" Velocity="0"/>
  </Event>
  <Event>
    <Absolute>13248</Absolute>
    <NoteOff Channel="2" Note="89" Velocity="0"/>
  </Event>
  <Event>
    <Absolute>13440</Absolute>
    <NoteOn Channel="2" Note="82" Velocity="127"/>
  </Event>
  <Event>
    <Absolute>13440</Absolute>
    <NoteOn Channel="2" Note="86" Velocity="127"/>
  </Event>
  <Event>
    <Absolute>13440</Absolute>
    <NoteOn Channel="2" Note="89" Velocity="127"/>
  </Event>
  <Event>
    <Absolute>13632</Absolute>
    <NoteOff Channel="2" Note="82" Velocity="0"/>
  </Event>
  <Event>
    <Absolute>13632</Absolute>
    <NoteOff Channel="2" Note="86" Velocity="0"/>
  </Event>
  <Event>
    <Absolute>13632</Absolute>
    <NoteOff Channel="2" Note="89" Velocity="0"/>
  </Event>
  <Event>
    <Absolute>13824</Absolute>
    <NoteOn Channel="2" Note="87" Velocity="127"/>
  </Event>
  <Event>
    <Absolute>13824</Absolute>
    <NoteOn Channel="2" Note="94" Velocity="127"/>
  </Event>
  <Event>
    <Absolute>13824</Absolute>
    <NoteOn Channel="2" Note="90" Velocity="127"/>
  </Event>
  <Event>
    <Absolute>14016</Absolute>
    <NoteOff Channel="2" Note="87" Velocity="0"/>
  </Event>
  <Event>
    <Absolute>14016</Absolute>
    <NoteOff Channel="2" Note="94" Velocity="0"/>
  </Event>
  <Event>
    <Absolute>14016</Absolute>
    <NoteOff Channel="2" Note="90" Velocity="0"/>
  </Event>
  <Event>
    <Absolute>14208</Absolute>
    <NoteOn Channel="2" Note="87" Velocity="127"/>
  </Event>
  <Event>
    <Absolute>14208</Absolute>
    <NoteOn Channel="2" Note="90" Velocity="127"/>
  </Event>
  <Event>
    <Absolute>14208</Absolute>
    <NoteOn Channel="2" Note="94" Velocity="127"/>
  </Event>
  <Event>
    <Absolute>14400</Absolute>
    <NoteOff Channel="2" Note="87" Velocity="0"/>
  </Event>
  <Event>
    <Absolute>14400</Absolute>
    <NoteOff Channel="2" Note="90" Velocity="0"/>
  </Event>
  <Event>
    <Absolute>14400</Absolute>
    <NoteOff Channel="2" Note="94" Velocity="0"/>
  </Event>
  <Event>
    <Absolute>14592</Absolute>
    <NoteOn Channel="2" Note="87" Velocity="127"/>
  </Event>
  <Event>
    <Absolute>14592</Absolute>
    <NoteOn Channel="2" Note="90" Velocity="127"/>
  </Event>
  <Event>
    <Absolute>14592</Absolute>
    <NoteOn Channel="2" Note="94" Velocity="127"/>
  </Event>
  <Event>
    <Absolute>14784</Absolute>
    <NoteOff Channel="2" Note="87" Velocity="0"/>
  </Event>
  <Event>
    <Absolute>14784</Absolute>
    <NoteOff Channel="2" Note="90" Velocity="0"/>
  </Event>
  <Event>
    <Absolute>14784</Absolute>
    <NoteOff Channel="2" Note="94" Velocity="0"/>
  </Event>
  <Event>
    <Absolute>14976</Absolute>
    <NoteOn Channel="2" Note="87" Velocity="127"/>
  </Event>
  <Event>
    <Absolute>14976</Absolute>
    <NoteOn Channel="2" Note="90" Velocity="127"/>
  </Event>
  <Event>
    <Absolute>14976</Absolute>
    <NoteOn Channel="2" Note="94" Velocity="127"/>
  </Event>
  <Event>
    <Absolute>15168</Absolute>
    <NoteOff Channel="2" Note="87" Velocity="0"/>
  </Event>
  <Event>
    <Absolute>15168</Absolute>
    <NoteOff Channel="2" Note="90" Velocity="0"/>
  </Event>
  <Event>
    <Absolute>15168</Absolute>
    <NoteOff Channel="2" Note="94" Velocity="0"/>
  </Event>
  <Event>
    <Absolute>15360</Absolute>
    <NoteOn Channel="2" Note="87" Velocity="127"/>
  </Event>
  <Event>
    <Absolute>15360</Absolute>
    <NoteOn Channel="2" Note="90" Velocity="127"/>
  </Event>
  <Event>
    <Absolute>15360</Absolute>
    <NoteOn Channel="2" Note="94" Velocity="127"/>
  </Event>
  <Event>
    <Absolute>15552</Absolute>
    <NoteOff Channel="2" Note="87" Velocity="0"/>
  </Event>
  <Event>
    <Absolute>15552</Absolute>
    <NoteOff Channel="2" Note="90" Velocity="0"/>
  </Event>
  <Event>
    <Absolute>15552</Absolute>
    <NoteOff Channel="2" Note="94" Velocity="0"/>
  </Event>
  <Event>
    <Absolute>15744</Absolute>
    <NoteOn Channel="2" Note="87" Velocity="127"/>
  </Event>
  <Event>
    <Absolute>15744</Absolute>
    <NoteOn Channel="2" Note="90" Velocity="127"/>
  </Event>
  <Event>
    <Absolute>15744</Absolute>
    <NoteOn Channel="2" Note="94" Velocity="127"/>
  </Event>
  <Event>
    <Absolute>15936</Absolute>
    <NoteOff Channel="2" Note="87" Velocity="0"/>
  </Event>
  <Event>
    <Absolute>15936</Absolute>
    <NoteOff Channel="2" Note="90" Velocity="0"/>
  </Event>
  <Event>
    <Absolute>15936</Absolute>
    <NoteOff Channel="2" Note="94" Velocity="0"/>
  </Event>
  <Event>
    <Absolute>16128</Absolute>
    <NoteOn Channel="2" Note="87" Velocity="127"/>
  </Event>
  <Event>
    <Absolute>16128</Absolute>
    <NoteOn Channel="2" Note="94" Velocity="127"/>
  </Event>
  <Event>
    <Absolute>16128</Absolute>
    <NoteOn Channel="2" Note="90" Velocity="127"/>
  </Event>
  <Event>
    <Absolute>16320</Absolute>
    <NoteOff Channel="2" Note="87" Velocity="0"/>
  </Event>
  <Event>
    <Absolute>16320</Absolute>
    <NoteOff Channel="2" Note="94" Velocity="0"/>
  </Event>
  <Event>
    <Absolute>16320</Absolute>
    <NoteOff Channel="2" Note="90" Velocity="0"/>
  </Event>
  <Event>
    <Absolute>16512</Absolute>
    <NoteOn Channel="2" Note="87" Velocity="127"/>
  </Event>
  <Event>
    <Absolute>16512</Absolute>
    <NoteOn Channel="2" Note="90" Velocity="127"/>
  </Event>
  <Event>
    <Absolute>16512</Absolute>
    <NoteOn Channel="2" Note="94" Velocity="127"/>
  </Event>
  <Event>
    <Absolute>16704</Absolute>
    <NoteOff Channel="2" Note="87" Velocity="0"/>
  </Event>
  <Event>
    <Absolute>16704</Absolute>
    <NoteOff Channel="2" Note="90" Velocity="0"/>
  </Event>
  <Event>
    <Absolute>16704</Absolute>
    <NoteOff Channel="2" Note="94" Velocity="0"/>
  </Event>
  <Event>
    <Absolute>16896</Absolute>
    <NoteOn Channel="2" Note="85" Velocity="127"/>
  </Event>
  <Event>
    <Absolute>16896</Absolute>
    <NoteOn Channel="2" Note="89" Velocity="127"/>
  </Event>
  <Event>
    <Absolute>16896</Absolute>
    <NoteOn Channel="2" Note="92" Velocity="127"/>
  </Event>
  <Event>
    <Absolute>17088</Absolute>
    <NoteOff Channel="2" Note="85" Velocity="0"/>
  </Event>
  <Event>
    <Absolute>17088</Absolute>
    <NoteOff Channel="2" Note="89" Velocity="0"/>
  </Event>
  <Event>
    <Absolute>17088</Absolute>
    <NoteOff Channel="2" Note="92" Velocity="0"/>
  </Event>
  <Event>
    <Absolute>17280</Absolute>
    <NoteOn Channel="2" Note="85" Velocity="127"/>
  </Event>
  <Event>
    <Absolute>17280</Absolute>
    <NoteOn Channel="2" Note="89" Velocity="127"/>
  </Event>
  <Event>
    <Absolute>17280</Absolute>
    <NoteOn Channel="2" Note="92" Velocity="127"/>
  </Event>
  <Event>
    <Absolute>17472</Absolute>
    <NoteOff Channel="2" Note="85" Velocity="0"/>
  </Event>
  <Event>
    <Absolute>17472</Absolute>
    <NoteOff Channel="2" Note="89" Velocity="0"/>
  </Event>
  <Event>
    <Absolute>17472</Absolute>
    <NoteOff Channel="2" Note="92" Velocity="0"/>
  </Event>
  <Event>
    <Absolute>17664</Absolute>
    <NoteOn Channel="2" Note="85" Velocity="127"/>
  </Event>
  <Event>
    <Absolute>17664</Absolute>
    <NoteOn Channel="2" Note="89" Velocity="127"/>
  </Event>
  <Event>
    <Absolute>17664</Absolute>
    <NoteOn Channel="2" Note="92" Velocity="127"/>
  </Event>
  <Event>
    <Absolute>17856</Absolute>
    <NoteOff Channel="2" Note="85" Velocity="0"/>
  </Event>
  <Event>
    <Absolute>17856</Absolute>
    <NoteOff Channel="2" Note="89" Velocity="0"/>
  </Event>
  <Event>
    <Absolute>17856</Absolute>
    <NoteOff Channel="2" Note="92" Velocity="0"/>
  </Event>
  <Event>
    <Absolute>18048</Absolute>
    <NoteOn Channel="2" Note="85" Velocity="127"/>
  </Event>
  <Event>
    <Absolute>18048</Absolute>
    <NoteOn Channel="2" Note="92" Velocity="127"/>
  </Event>
  <Event>
    <Absolute>18048</Absolute>
    <NoteOn Channel="2" Note="89" Velocity="127"/>
  </Event>
  <Event>
    <Absolute>18240</Absolute>
    <NoteOff Channel="2" Note="85" Velocity="0"/>
  </Event>
  <Event>
    <Absolute>18240</Absolute>
    <NoteOff Channel="2" Note="92" Velocity="0"/>
  </Event>
  <Event>
    <Absolute>18240</Absolute>
    <NoteOff Channel="2" Note="89" Velocity="0"/>
  </Event>
  <Event>
    <Absolute>18432</Absolute>
    <NoteOn Channel="2" Note="85" Velocity="127"/>
  </Event>
  <Event>
    <Absolute>18432</Absolute>
    <NoteOn Channel="2" Note="89" Velocity="127"/>
  </Event>
  <Event>
    <Absolute>18432</Absolute>
    <NoteOn Channel="2" Note="92" Velocity="127"/>
  </Event>
  <Event>
    <Absolute>18624</Absolute>
    <NoteOff Channel="2" Note="85" Velocity="0"/>
  </Event>
  <Event>
    <Absolute>18624</Absolute>
    <NoteOff Channel="2" Note="89" Velocity="0"/>
  </Event>
  <Event>
    <Absolute>18624</Absolute>
    <NoteOff Channel="2" Note="92" Velocity="0"/>
  </Event>
  <Event>
    <Absolute>18816</Absolute>
    <NoteOn Channel="2" Note="85" Velocity="127"/>
  </Event>
  <Event>
    <Absolute>18816</Absolute>
    <NoteOn Channel="2" Note="89" Velocity="127"/>
  </Event>
  <Event>
    <Absolute>18816</Absolute>
    <NoteOn Channel="2" Note="92" Velocity="127"/>
  </Event>
  <Event>
    <Absolute>19008</Absolute>
    <NoteOff Channel="2" Note="85" Velocity="0"/>
  </Event>
  <Event>
    <Absolute>19008</Absolute>
    <NoteOff Channel="2" Note="89" Velocity="0"/>
  </Event>
  <Event>
    <Absolute>19008</Absolute>
    <NoteOff Channel="2" Note="92" Velocity="0"/>
  </Event>
  <Event>
    <Absolute>19200</Absolute>
    <NoteOn Channel="2" Note="85" Velocity="127"/>
  </Event>
  <Event>
    <Absolute>19200</Absolute>
    <NoteOn Channel="2" Note="89" Velocity="127"/>
  </Event>
  <Event>
    <Absolute>19200</Absolute>
    <NoteOn Channel="2" Note="92" Velocity="127"/>
  </Event>
  <Event>
    <Absolute>19392</Absolute>
    <NoteOff Channel="2" Note="85" Velocity="0"/>
  </Event>
  <Event>
    <Absolute>19392</Absolute>
    <NoteOff Channel="2" Note="89" Velocity="0"/>
  </Event>
  <Event>
    <Absolute>19392</Absolute>
    <NoteOff Channel="2" Note="92" Velocity="0"/>
  </Event>
  <Event>
    <Absolute>19584</Absolute>
    <NoteOn Channel="2" Note="85" Velocity="127"/>
  </Event>
  <Event>
    <Absolute>19584</Absolute>
    <NoteOn Channel="2" Note="89" Velocity="127"/>
  </Event>
  <Event>
    <Absolute>19584</Absolute>
    <NoteOn Channel="2" Note="92" Velocity="127"/>
  </Event>
  <Event>
    <Absolute>19776</Absolute>
    <NoteOff Channel="2" Note="85" Velocity="0"/>
  </Event>
  <Event>
    <Absolute>19776</Absolute>
    <NoteOff Channel="2" Note="89" Velocity="0"/>
  </Event>
  <Event>
    <Absolute>19776</Absolute>
    <NoteOff Channel="2" Note="92" Velocity="0"/>
  </Event>
  <Event>
    <Absolute>19968</Absolute>
    <NoteOn Channel="2" Note="90" Velocity="127"/>
  </Event>
  <Event>
    <Absolute>19968</Absolute>
    <NoteOn Channel="2" Note="83" Velocity="127"/>
  </Event>
  <Event>
    <Absolute>19968</Absolute>
    <NoteOn Channel="2" Note="87" Velocity="127"/>
  </Event>
  <Event>
    <Absolute>20160</Absolute>
    <NoteOff Channel="2" Note="90" Velocity="0"/>
  </Event>
  <Event>
    <Absolute>20160</Absolute>
    <NoteOff Channel="2" Note="83" Velocity="0"/>
  </Event>
  <Event>
    <Absolute>20160</Absolute>
    <NoteOff Channel="2" Note="87" Velocity="0"/>
  </Event>
  <Event>
    <Absolute>20352</Absolute>
    <NoteOn Channel="2" Note="83" Velocity="127"/>
  </Event>
  <Event>
    <Absolute>20352</Absolute>
    <NoteOn Channel="2" Note="87" Velocity="127"/>
  </Event>
  <Event>
    <Absolute>20352</Absolute>
    <NoteOn Channel="2" Note="90" Velocity="127"/>
  </Event>
  <Event>
    <Absolute>20544</Absolute>
    <NoteOff Channel="2" Note="83" Velocity="0"/>
  </Event>
  <Event>
    <Absolute>20544</Absolute>
    <NoteOff Channel="2" Note="87" Velocity="0"/>
  </Event>
  <Event>
    <Absolute>20544</Absolute>
    <NoteOff Channel="2" Note="90" Velocity="0"/>
  </Event>
  <Event>
    <Absolute>20736</Absolute>
    <NoteOn Channel="2" Note="90" Velocity="127"/>
  </Event>
  <Event>
    <Absolute>20736</Absolute>
    <NoteOn Channel="2" Note="83" Velocity="127"/>
  </Event>
  <Event>
    <Absolute>20736</Absolute>
    <NoteOn Channel="2" Note="87" Velocity="127"/>
  </Event>
  <Event>
    <Absolute>20928</Absolute>
    <NoteOff Channel="2" Note="90" Velocity="0"/>
  </Event>
  <Event>
    <Absolute>20928</Absolute>
    <NoteOff Channel="2" Note="83" Velocity="0"/>
  </Event>
  <Event>
    <Absolute>20928</Absolute>
    <NoteOff Channel="2" Note="87" Velocity="0"/>
  </Event>
  <Event>
    <Absolute>21120</Absolute>
    <NoteOn Channel="2" Note="90" Velocity="127"/>
  </Event>
  <Event>
    <Absolute>21120</Absolute>
    <NoteOn Channel="2" Note="83" Velocity="127"/>
  </Event>
  <Event>
    <Absolute>21120</Absolute>
    <NoteOn Channel="2" Note="87" Velocity="127"/>
  </Event>
  <Event>
    <Absolute>21312</Absolute>
    <NoteOff Channel="2" Note="90" Velocity="0"/>
  </Event>
  <Event>
    <Absolute>21312</Absolute>
    <NoteOff Channel="2" Note="83" Velocity="0"/>
  </Event>
  <Event>
    <Absolute>21312</Absolute>
    <NoteOff Channel="2" Note="87" Velocity="0"/>
  </Event>
  <Event>
    <Absolute>21504</Absolute>
    <NoteOn Channel="2" Note="87" Velocity="127"/>
  </Event>
  <Event>
    <Absolute>21504</Absolute>
    <NoteOn Channel="2" Note="90" Velocity="127"/>
  </Event>
  <Event>
    <Absolute>21504</Absolute>
    <NoteOn Channel="2" Note="83" Velocity="127"/>
  </Event>
  <Event>
    <Absolute>21696</Absolute>
    <NoteOff Channel="2" Note="87" Velocity="0"/>
  </Event>
  <Event>
    <Absolute>21696</Absolute>
    <NoteOff Channel="2" Note="90" Velocity="0"/>
  </Event>
  <Event>
    <Absolute>21696</Absolute>
    <NoteOff Channel="2" Note="83" Velocity="0"/>
  </Event>
  <Event>
    <Absolute>21888</Absolute>
    <NoteOn Channel="2" Note="87" Velocity="127"/>
  </Event>
  <Event>
    <Absolute>21888</Absolute>
    <NoteOn Channel="2" Note="83" Velocity="127"/>
  </Event>
  <Event>
    <Absolute>21888</Absolute>
    <NoteOn Channel="2" Note="90" Velocity="127"/>
  </Event>
  <Event>
    <Absolute>22080</Absolute>
    <NoteOff Channel="2" Note="87" Velocity="0"/>
  </Event>
  <Event>
    <Absolute>22080</Absolute>
    <NoteOff Channel="2" Note="83" Velocity="0"/>
  </Event>
  <Event>
    <Absolute>22080</Absolute>
    <NoteOff Channel="2" Note="90" Velocity="0"/>
  </Event>
  <Event>
    <Absolute>22272</Absolute>
    <NoteOn Channel="2" Note="90" Velocity="127"/>
  </Event>
  <Event>
    <Absolute>22272</Absolute>
    <NoteOn Channel="2" Note="87" Velocity="127"/>
  </Event>
  <Event>
    <Absolute>22272</Absolute>
    <NoteOn Channel="2" Note="83" Velocity="127"/>
  </Event>
  <Event>
    <Absolute>22464</Absolute>
    <NoteOff Channel="2" Note="90" Velocity="0"/>
  </Event>
  <Event>
    <Absolute>22464</Absolute>
    <NoteOff Channel="2" Note="87" Velocity="0"/>
  </Event>
  <Event>
    <Absolute>22464</Absolute>
    <NoteOff Channel="2" Note="83" Velocity="0"/>
  </Event>
  <Event>
    <Absolute>22656</Absolute>
    <NoteOn Channel="2" Note="90" Velocity="127"/>
  </Event>
  <Event>
    <Absolute>22656</Absolute>
    <NoteOn Channel="2" Note="83" Velocity="127"/>
  </Event>
  <Event>
    <Absolute>22656</Absolute>
    <NoteOn Channel="2" Note="87" Velocity="127"/>
  </Event>
  <Event>
    <Absolute>22848</Absolute>
    <NoteOff Channel="2" Note="90" Velocity="0"/>
  </Event>
  <Event>
    <Absolute>22848</Absolute>
    <NoteOff Channel="2" Note="83" Velocity="0"/>
  </Event>
  <Event>
    <Absolute>22848</Absolute>
    <NoteOff Channel="2" Note="87" Velocity="0"/>
  </Event>
  <Event>
    <Absolute>23040</Absolute>
    <NoteOn Channel="2" Note="82" Velocity="127"/>
  </Event>
  <Event>
    <Absolute>23040</Absolute>
    <NoteOn Channel="2" Note="86" Velocity="127"/>
  </Event>
  <Event>
    <Absolute>23040</Absolute>
    <NoteOn Channel="2" Note="89" Velocity="127"/>
  </Event>
  <Event>
    <Absolute>23232</Absolute>
    <NoteOff Channel="2" Note="82" Velocity="0"/>
  </Event>
  <Event>
    <Absolute>23232</Absolute>
    <NoteOff Channel="2" Note="86" Velocity="0"/>
  </Event>
  <Event>
    <Absolute>23232</Absolute>
    <NoteOff Channel="2" Note="89" Velocity="0"/>
  </Event>
  <Event>
    <Absolute>23424</Absolute>
    <NoteOn Channel="2" Note="82" Velocity="127"/>
  </Event>
  <Event>
    <Absolute>23424</Absolute>
    <NoteOn Channel="2" Note="86" Velocity="127"/>
  </Event>
  <Event>
    <Absolute>23424</Absolute>
    <NoteOn Channel="2" Note="89" Velocity="127"/>
  </Event>
  <Event>
    <Absolute>23616</Absolute>
    <NoteOff Channel="2" Note="82" Velocity="0"/>
  </Event>
  <Event>
    <Absolute>23616</Absolute>
    <NoteOff Channel="2" Note="86" Velocity="0"/>
  </Event>
  <Event>
    <Absolute>23616</Absolute>
    <NoteOff Channel="2" Note="89" Velocity="0"/>
  </Event>
  <Event>
    <Absolute>23808</Absolute>
    <NoteOn Channel="2" Note="82" Velocity="127"/>
  </Event>
  <Event>
    <Absolute>23808</Absolute>
    <NoteOn Channel="2" Note="86" Velocity="127"/>
  </Event>
  <Event>
    <Absolute>23808</Absolute>
    <NoteOn Channel="2" Note="89" Velocity="127"/>
  </Event>
  <Event>
    <Absolute>24000</Absolute>
    <NoteOff Channel="2" Note="82" Velocity="0"/>
  </Event>
  <Event>
    <Absolute>24000</Absolute>
    <NoteOff Channel="2" Note="86" Velocity="0"/>
  </Event>
  <Event>
    <Absolute>24000</Absolute>
    <NoteOff Channel="2" Note="89" Velocity="0"/>
  </Event>
  <Event>
    <Absolute>24192</Absolute>
    <NoteOn Channel="2" Note="82" Velocity="127"/>
  </Event>
  <Event>
    <Absolute>24192</Absolute>
    <NoteOn Channel="2" Note="86" Velocity="127"/>
  </Event>
  <Event>
    <Absolute>24192</Absolute>
    <NoteOn Channel="2" Note="89" Velocity="127"/>
  </Event>
  <Event>
    <Absolute>24384</Absolute>
    <NoteOff Channel="2" Note="82" Velocity="0"/>
  </Event>
  <Event>
    <Absolute>24384</Absolute>
    <NoteOff Channel="2" Note="86" Velocity="0"/>
  </Event>
  <Event>
    <Absolute>24384</Absolute>
    <NoteOff Channel="2" Note="89" Velocity="0"/>
  </Event>
  <Event>
    <Absolute>24576</Absolute>
    <NoteOn Channel="2" Note="85" Velocity="127"/>
  </Event>
  <Event>
    <Absolute>24576</Absolute>
    <NoteOn Channel="2" Note="89" Velocity="127"/>
  </Event>
  <Event>
    <Absolute>24576</Absolute>
    <NoteOn Channel="2" Note="92" Velocity="127"/>
  </Event>
  <Event>
    <Absolute>24768</Absolute>
    <NoteOff Channel="2" Note="85" Velocity="0"/>
  </Event>
  <Event>
    <Absolute>24768</Absolute>
    <NoteOff Channel="2" Note="89" Velocity="0"/>
  </Event>
  <Event>
    <Absolute>24768</Absolute>
    <NoteOff Channel="2" Note="92" Velocity="0"/>
  </Event>
  <Event>
    <Absolute>24960</Absolute>
    <NoteOn Channel="2" Note="85" Velocity="127"/>
  </Event>
  <Event>
    <Absolute>24960</Absolute>
    <NoteOn Channel="2" Note="89" Velocity="127"/>
  </Event>
  <Event>
    <Absolute>24960</Absolute>
    <NoteOn Channel="2" Note="92" Velocity="127"/>
  </Event>
  <Event>
    <Absolute>25152</Absolute>
    <NoteOff Channel="2" Note="85" Velocity="0"/>
  </Event>
  <Event>
    <Absolute>25152</Absolute>
    <NoteOff Channel="2" Note="89" Velocity="0"/>
  </Event>
  <Event>
    <Absolute>25152</Absolute>
    <NoteOff Channel="2" Note="92" Velocity="0"/>
  </Event>
  <Event>
    <Absolute>25344</Absolute>
    <NoteOn Channel="2" Note="85" Velocity="127"/>
  </Event>
  <Event>
    <Absolute>25344</Absolute>
    <NoteOn Channel="2" Note="89" Velocity="127"/>
  </Event>
  <Event>
    <Absolute>25344</Absolute>
    <NoteOn Channel="2" Note="92" Velocity="127"/>
  </Event>
  <Event>
    <Absolute>25536</Absolute>
    <NoteOff Channel="2" Note="85" Velocity="0"/>
  </Event>
  <Event>
    <Absolute>25536</Absolute>
    <NoteOff Channel="2" Note="89" Velocity="0"/>
  </Event>
  <Event>
    <Absolute>25536</Absolute>
    <NoteOff Channel="2" Note="92" Velocity="0"/>
  </Event>
  <Event>
    <Absolute>25728</Absolute>
    <NoteOn Channel="2" Note="85" Velocity="127"/>
  </Event>
  <Event>
    <Absolute>25728</Absolute>
    <NoteOn Channel="2" Note="89" Velocity="127"/>
  </Event>
  <Event>
    <Absolute>25728</Absolute>
    <NoteOn Channel="2" Note="92" Velocity="127"/>
  </Event>
  <Event>
    <Absolute>25920</Absolute>
    <NoteOff Channel="2" Note="85" Velocity="0"/>
  </Event>
  <Event>
    <Absolute>25920</Absolute>
    <NoteOff Channel="2" Note="89" Velocity="0"/>
  </Event>
  <Event>
    <Absolute>25920</Absolute>
    <NoteOff Channel="2" Note="92" Velocity="0"/>
  </Event>
  <Event>
    <Absolute>50688</Absolute>
    <NoteOn Channel="2" Note="87" Velocity="127"/>
  </Event>
  <Event>
    <Absolute>50688</Absolute>
    <NoteOn Channel="2" Note="90" Velocity="127"/>
  </Event>
  <Event>
    <Absolute>50688</Absolute>
    <NoteOn Channel="2" Note="94" Velocity="127"/>
  </Event>
  <Event>
    <Absolute>50880</Absolute>
    <NoteOff Channel="2" Note="87" Velocity="0"/>
  </Event>
  <Event>
    <Absolute>50880</Absolute>
    <NoteOff Channel="2" Note="90" Velocity="0"/>
  </Event>
  <Event>
    <Absolute>50880</Absolute>
    <NoteOff Channel="2" Note="94" Velocity="0"/>
  </Event>
  <Event>
    <Absolute>51072</Absolute>
    <NoteOn Channel="2" Note="90" Velocity="127"/>
  </Event>
  <Event>
    <Absolute>51072</Absolute>
    <NoteOn Channel="2" Note="94" Velocity="127"/>
  </Event>
  <Event>
    <Absolute>51072</Absolute>
    <NoteOn Channel="2" Note="87" Velocity="127"/>
  </Event>
  <Event>
    <Absolute>51264</Absolute>
    <NoteOff Channel="2" Note="90" Velocity="0"/>
  </Event>
  <Event>
    <Absolute>51264</Absolute>
    <NoteOff Channel="2" Note="94" Velocity="0"/>
  </Event>
  <Event>
    <Absolute>51264</Absolute>
    <NoteOff Channel="2" Note="87" Velocity="0"/>
  </Event>
  <Event>
    <Absolute>51456</Absolute>
    <NoteOn Channel="2" Note="87" Velocity="127"/>
  </Event>
  <Event>
    <Absolute>51456</Absolute>
    <NoteOn Channel="2" Note="90" Velocity="127"/>
  </Event>
  <Event>
    <Absolute>51456</Absolute>
    <NoteOn Channel="2" Note="94" Velocity="127"/>
  </Event>
  <Event>
    <Absolute>51648</Absolute>
    <NoteOff Channel="2" Note="87" Velocity="0"/>
  </Event>
  <Event>
    <Absolute>51648</Absolute>
    <NoteOff Channel="2" Note="90" Velocity="0"/>
  </Event>
  <Event>
    <Absolute>51648</Absolute>
    <NoteOff Channel="2" Note="94" Velocity="0"/>
  </Event>
  <Event>
    <Absolute>51840</Absolute>
    <NoteOn Channel="2" Note="87" Velocity="127"/>
  </Event>
  <Event>
    <Absolute>51840</Absolute>
    <NoteOn Channel="2" Note="90" Velocity="127"/>
  </Event>
  <Event>
    <Absolute>51840</Absolute>
    <NoteOn Channel="2" Note="94" Velocity="127"/>
  </Event>
  <Event>
    <Absolute>52032</Absolute>
    <NoteOff Channel="2" Note="87" Velocity="0"/>
  </Event>
  <Event>
    <Absolute>52032</Absolute>
    <NoteOff Channel="2" Note="90" Velocity="0"/>
  </Event>
  <Event>
    <Absolute>52032</Absolute>
    <NoteOff Channel="2" Note="94" Velocity="0"/>
  </Event>
  <Event>
    <Absolute>52224</Absolute>
    <NoteOn Channel="2" Note="87" Velocity="127"/>
  </Event>
  <Event>
    <Absolute>52224</Absolute>
    <NoteOn Channel="2" Note="90" Velocity="127"/>
  </Event>
  <Event>
    <Absolute>52224</Absolute>
    <NoteOn Channel="2" Note="94" Velocity="127"/>
  </Event>
  <Event>
    <Absolute>52416</Absolute>
    <NoteOff Channel="2" Note="87" Velocity="0"/>
  </Event>
  <Event>
    <Absolute>52416</Absolute>
    <NoteOff Channel="2" Note="90" Velocity="0"/>
  </Event>
  <Event>
    <Absolute>52416</Absolute>
    <NoteOff Channel="2" Note="94" Velocity="0"/>
  </Event>
  <Event>
    <Absolute>52608</Absolute>
    <NoteOn Channel="2" Note="87" Velocity="127"/>
  </Event>
  <Event>
    <Absolute>52608</Absolute>
    <NoteOn Channel="2" Note="90" Velocity="127"/>
  </Event>
  <Event>
    <Absolute>52608</Absolute>
    <NoteOn Channel="2" Note="94" Velocity="127"/>
  </Event>
  <Event>
    <Absolute>52800</Absolute>
    <NoteOff Channel="2" Note="87" Velocity="0"/>
  </Event>
  <Event>
    <Absolute>52800</Absolute>
    <NoteOff Channel="2" Note="90" Velocity="0"/>
  </Event>
  <Event>
    <Absolute>52800</Absolute>
    <NoteOff Channel="2" Note="94" Velocity="0"/>
  </Event>
  <Event>
    <Absolute>52992</Absolute>
    <NoteOn Channel="2" Note="87" Velocity="127"/>
  </Event>
  <Event>
    <Absolute>52992</Absolute>
    <NoteOn Channel="2" Note="90" Velocity="127"/>
  </Event>
  <Event>
    <Absolute>52992</Absolute>
    <NoteOn Channel="2" Note="94" Velocity="127"/>
  </Event>
  <Event>
    <Absolute>53184</Absolute>
    <NoteOff Channel="2" Note="87" Velocity="0"/>
  </Event>
  <Event>
    <Absolute>53184</Absolute>
    <NoteOff Channel="2" Note="90" Velocity="0"/>
  </Event>
  <Event>
    <Absolute>53184</Absolute>
    <NoteOff Channel="2" Note="94" Velocity="0"/>
  </Event>
  <Event>
    <Absolute>53376</Absolute>
    <NoteOn Channel="2" Note="87" Velocity="127"/>
  </Event>
  <Event>
    <Absolute>53376</Absolute>
    <NoteOn Channel="2" Note="90" Velocity="127"/>
  </Event>
  <Event>
    <Absolute>53376</Absolute>
    <NoteOn Channel="2" Note="94" Velocity="127"/>
  </Event>
  <Event>
    <Absolute>53568</Absolute>
    <NoteOff Channel="2" Note="87" Velocity="0"/>
  </Event>
  <Event>
    <Absolute>53568</Absolute>
    <NoteOff Channel="2" Note="90" Velocity="0"/>
  </Event>
  <Event>
    <Absolute>53568</Absolute>
    <NoteOff Channel="2" Note="94" Velocity="0"/>
  </Event>
  <Event>
    <Absolute>53760</Absolute>
    <NoteOn Channel="2" Note="85" Velocity="127"/>
  </Event>
  <Event>
    <Absolute>53760</Absolute>
    <NoteOn Channel="2" Note="89" Velocity="127"/>
  </Event>
  <Event>
    <Absolute>53760</Absolute>
    <NoteOn Channel="2" Note="92" Velocity="127"/>
  </Event>
  <Event>
    <Absolute>53952</Absolute>
    <NoteOff Channel="2" Note="85" Velocity="0"/>
  </Event>
  <Event>
    <Absolute>53952</Absolute>
    <NoteOff Channel="2" Note="89" Velocity="0"/>
  </Event>
  <Event>
    <Absolute>53952</Absolute>
    <NoteOff Channel="2" Note="92" Velocity="0"/>
  </Event>
  <Event>
    <Absolute>54144</Absolute>
    <NoteOn Channel="2" Note="89" Velocity="127"/>
  </Event>
  <Event>
    <Absolute>54144</Absolute>
    <NoteOn Channel="2" Note="85" Velocity="127"/>
  </Event>
  <Event>
    <Absolute>54144</Absolute>
    <NoteOn Channel="2" Note="92" Velocity="127"/>
  </Event>
  <Event>
    <Absolute>54336</Absolute>
    <NoteOff Channel="2" Note="89" Velocity="0"/>
  </Event>
  <Event>
    <Absolute>54336</Absolute>
    <NoteOff Channel="2" Note="85" Velocity="0"/>
  </Event>
  <Event>
    <Absolute>54336</Absolute>
    <NoteOff Channel="2" Note="92" Velocity="0"/>
  </Event>
  <Event>
    <Absolute>54528</Absolute>
    <NoteOn Channel="2" Note="85" Velocity="127"/>
  </Event>
  <Event>
    <Absolute>54528</Absolute>
    <NoteOn Channel="2" Note="89" Velocity="127"/>
  </Event>
  <Event>
    <Absolute>54528</Absolute>
    <NoteOn Channel="2" Note="92" Velocity="127"/>
  </Event>
  <Event>
    <Absolute>54720</Absolute>
    <NoteOff Channel="2" Note="85" Velocity="0"/>
  </Event>
  <Event>
    <Absolute>54720</Absolute>
    <NoteOff Channel="2" Note="89" Velocity="0"/>
  </Event>
  <Event>
    <Absolute>54720</Absolute>
    <NoteOff Channel="2" Note="92" Velocity="0"/>
  </Event>
  <Event>
    <Absolute>54912</Absolute>
    <NoteOn Channel="2" Note="85" Velocity="127"/>
  </Event>
  <Event>
    <Absolute>54912</Absolute>
    <NoteOn Channel="2" Note="89" Velocity="127"/>
  </Event>
  <Event>
    <Absolute>54912</Absolute>
    <NoteOn Channel="2" Note="92" Velocity="127"/>
  </Event>
  <Event>
    <Absolute>55104</Absolute>
    <NoteOff Channel="2" Note="85" Velocity="0"/>
  </Event>
  <Event>
    <Absolute>55104</Absolute>
    <NoteOff Channel="2" Note="89" Velocity="0"/>
  </Event>
  <Event>
    <Absolute>55104</Absolute>
    <NoteOff Channel="2" Note="92" Velocity="0"/>
  </Event>
  <Event>
    <Absolute>55296</Absolute>
    <NoteOn Channel="2" Note="85" Velocity="127"/>
  </Event>
  <Event>
    <Absolute>55296</Absolute>
    <NoteOn Channel="2" Note="89" Velocity="127"/>
  </Event>
  <Event>
    <Absolute>55296</Absolute>
    <NoteOn Channel="2" Note="92" Velocity="127"/>
  </Event>
  <Event>
    <Absolute>55488</Absolute>
    <NoteOff Channel="2" Note="85" Velocity="0"/>
  </Event>
  <Event>
    <Absolute>55488</Absolute>
    <NoteOff Channel="2" Note="89" Velocity="0"/>
  </Event>
  <Event>
    <Absolute>55488</Absolute>
    <NoteOff Channel="2" Note="92" Velocity="0"/>
  </Event>
  <Event>
    <Absolute>55680</Absolute>
    <NoteOn Channel="2" Note="85" Velocity="127"/>
  </Event>
  <Event>
    <Absolute>55680</Absolute>
    <NoteOn Channel="2" Note="92" Velocity="127"/>
  </Event>
  <Event>
    <Absolute>55680</Absolute>
    <NoteOn Channel="2" Note="89" Velocity="127"/>
  </Event>
  <Event>
    <Absolute>55872</Absolute>
    <NoteOff Channel="2" Note="85" Velocity="0"/>
  </Event>
  <Event>
    <Absolute>55872</Absolute>
    <NoteOff Channel="2" Note="92" Velocity="0"/>
  </Event>
  <Event>
    <Absolute>55872</Absolute>
    <NoteOff Channel="2" Note="89" Velocity="0"/>
  </Event>
  <Event>
    <Absolute>56064</Absolute>
    <NoteOn Channel="2" Note="85" Velocity="127"/>
  </Event>
  <Event>
    <Absolute>56064</Absolute>
    <NoteOn Channel="2" Note="92" Velocity="127"/>
  </Event>
  <Event>
    <Absolute>56064</Absolute>
    <NoteOn Channel="2" Note="89" Velocity="127"/>
  </Event>
  <Event>
    <Absolute>56256</Absolute>
    <NoteOff Channel="2" Note="85" Velocity="0"/>
  </Event>
  <Event>
    <Absolute>56256</Absolute>
    <NoteOff Channel="2" Note="92" Velocity="0"/>
  </Event>
  <Event>
    <Absolute>56256</Absolute>
    <NoteOff Channel="2" Note="89" Velocity="0"/>
  </Event>
  <Event>
    <Absolute>56448</Absolute>
    <NoteOn Channel="2" Note="85" Velocity="127"/>
  </Event>
  <Event>
    <Absolute>56448</Absolute>
    <NoteOn Channel="2" Note="92" Velocity="127"/>
  </Event>
  <Event>
    <Absolute>56448</Absolute>
    <NoteOn Channel="2" Note="89" Velocity="127"/>
  </Event>
  <Event>
    <Absolute>56640</Absolute>
    <NoteOff Channel="2" Note="85" Velocity="0"/>
  </Event>
  <Event>
    <Absolute>56640</Absolute>
    <NoteOff Channel="2" Note="92" Velocity="0"/>
  </Event>
  <Event>
    <Absolute>56640</Absolute>
    <NoteOff Channel="2" Note="89" Velocity="0"/>
  </Event>
  <Event>
    <Absolute>56832</Absolute>
    <NoteOn Channel="2" Note="83" Velocity="127"/>
  </Event>
  <Event>
    <Absolute>56832</Absolute>
    <NoteOn Channel="2" Note="87" Velocity="127"/>
  </Event>
  <Event>
    <Absolute>56832</Absolute>
    <NoteOn Channel="2" Note="90" Velocity="127"/>
  </Event>
  <Event>
    <Absolute>57024</Absolute>
    <NoteOff Channel="2" Note="83" Velocity="0"/>
  </Event>
  <Event>
    <Absolute>57024</Absolute>
    <NoteOff Channel="2" Note="87" Velocity="0"/>
  </Event>
  <Event>
    <Absolute>57024</Absolute>
    <NoteOff Channel="2" Note="90" Velocity="0"/>
  </Event>
  <Event>
    <Absolute>57216</Absolute>
    <NoteOn Channel="2" Note="83" Velocity="127"/>
  </Event>
  <Event>
    <Absolute>57216</Absolute>
    <NoteOn Channel="2" Note="87" Velocity="127"/>
  </Event>
  <Event>
    <Absolute>57216</Absolute>
    <NoteOn Channel="2" Note="90" Velocity="127"/>
  </Event>
  <Event>
    <Absolute>57408</Absolute>
    <NoteOff Channel="2" Note="83" Velocity="0"/>
  </Event>
  <Event>
    <Absolute>57408</Absolute>
    <NoteOff Channel="2" Note="87" Velocity="0"/>
  </Event>
  <Event>
    <Absolute>57408</Absolute>
    <NoteOff Channel="2" Note="90" Velocity="0"/>
  </Event>
  <Event>
    <Absolute>57600</Absolute>
    <NoteOn Channel="2" Note="90" Velocity="127"/>
  </Event>
  <Event>
    <Absolute>57600</Absolute>
    <NoteOn Channel="2" Note="83" Velocity="127"/>
  </Event>
  <Event>
    <Absolute>57600</Absolute>
    <NoteOn Channel="2" Note="87" Velocity="127"/>
  </Event>
  <Event>
    <Absolute>57792</Absolute>
    <NoteOff Channel="2" Note="90" Velocity="0"/>
  </Event>
  <Event>
    <Absolute>57792</Absolute>
    <NoteOff Channel="2" Note="83" Velocity="0"/>
  </Event>
  <Event>
    <Absolute>57792</Absolute>
    <NoteOff Channel="2" Note="87" Velocity="0"/>
  </Event>
  <Event>
    <Absolute>57984</Absolute>
    <NoteOn Channel="2" Note="83" Velocity="127"/>
  </Event>
  <Event>
    <Absolute>57984</Absolute>
    <NoteOn Channel="2" Note="87" Velocity="127"/>
  </Event>
  <Event>
    <Absolute>57984</Absolute>
    <NoteOn Channel="2" Note="90" Velocity="127"/>
  </Event>
  <Event>
    <Absolute>58176</Absolute>
    <NoteOff Channel="2" Note="83" Velocity="0"/>
  </Event>
  <Event>
    <Absolute>58176</Absolute>
    <NoteOff Channel="2" Note="87" Velocity="0"/>
  </Event>
  <Event>
    <Absolute>58176</Absolute>
    <NoteOff Channel="2" Note="90" Velocity="0"/>
  </Event>
  <Event>
    <Absolute>58368</Absolute>
    <NoteOn Channel="2" Note="90" Velocity="127"/>
  </Event>
  <Event>
    <Absolute>58368</Absolute>
    <NoteOn Channel="2" Note="87" Velocity="127"/>
  </Event>
  <Event>
    <Absolute>58368</Absolute>
    <NoteOn Channel="2" Note="83" Velocity="127"/>
  </Event>
  <Event>
    <Absolute>58560</Absolute>
    <NoteOff Channel="2" Note="90" Velocity="0"/>
  </Event>
  <Event>
    <Absolute>58560</Absolute>
    <NoteOff Channel="2" Note="87" Velocity="0"/>
  </Event>
  <Event>
    <Absolute>58560</Absolute>
    <NoteOff Channel="2" Note="83" Velocity="0"/>
  </Event>
  <Event>
    <Absolute>58752</Absolute>
    <NoteOn Channel="2" Note="90" Velocity="127"/>
  </Event>
  <Event>
    <Absolute>58752</Absolute>
    <NoteOn Channel="2" Note="83" Velocity="127"/>
  </Event>
  <Event>
    <Absolute>58752</Absolute>
    <NoteOn Channel="2" Note="87" Velocity="127"/>
  </Event>
  <Event>
    <Absolute>58944</Absolute>
    <NoteOff Channel="2" Note="90" Velocity="0"/>
  </Event>
  <Event>
    <Absolute>58944</Absolute>
    <NoteOff Channel="2" Note="83" Velocity="0"/>
  </Event>
  <Event>
    <Absolute>58944</Absolute>
    <NoteOff Channel="2" Note="87" Velocity="0"/>
  </Event>
  <Event>
    <Absolute>59136</Absolute>
    <NoteOn Channel="2" Note="83" Velocity="127"/>
  </Event>
  <Event>
    <Absolute>59136</Absolute>
    <NoteOn Channel="2" Note="87" Velocity="127"/>
  </Event>
  <Event>
    <Absolute>59136</Absolute>
    <NoteOn Channel="2" Note="90" Velocity="127"/>
  </Event>
  <Event>
    <Absolute>59328</Absolute>
    <NoteOff Channel="2" Note="83" Velocity="0"/>
  </Event>
  <Event>
    <Absolute>59328</Absolute>
    <NoteOff Channel="2" Note="87" Velocity="0"/>
  </Event>
  <Event>
    <Absolute>59328</Absolute>
    <NoteOff Channel="2" Note="90" Velocity="0"/>
  </Event>
  <Event>
    <Absolute>59520</Absolute>
    <NoteOn Channel="2" Note="83" Velocity="127"/>
  </Event>
  <Event>
    <Absolute>59520</Absolute>
    <NoteOn Channel="2" Note="90" Velocity="127"/>
  </Event>
  <Event>
    <Absolute>59520</Absolute>
    <NoteOn Channel="2" Note="87" Velocity="127"/>
  </Event>
  <Event>
    <Absolute>59712</Absolute>
    <NoteOff Channel="2" Note="83" Velocity="0"/>
  </Event>
  <Event>
    <Absolute>59712</Absolute>
    <NoteOff Channel="2" Note="90" Velocity="0"/>
  </Event>
  <Event>
    <Absolute>59712</Absolute>
    <NoteOff Channel="2" Note="87" Velocity="0"/>
  </Event>
  <Event>
    <Absolute>59904</Absolute>
    <NoteOn Channel="2" Note="82" Velocity="127"/>
  </Event>
  <Event>
    <Absolute>59904</Absolute>
    <NoteOn Channel="2" Note="86" Velocity="127"/>
  </Event>
  <Event>
    <Absolute>59904</Absolute>
    <NoteOn Channel="2" Note="89" Velocity="127"/>
  </Event>
  <Event>
    <Absolute>60096</Absolute>
    <NoteOff Channel="2" Note="82" Velocity="0"/>
  </Event>
  <Event>
    <Absolute>60096</Absolute>
    <NoteOff Channel="2" Note="86" Velocity="0"/>
  </Event>
  <Event>
    <Absolute>60096</Absolute>
    <NoteOff Channel="2" Note="89" Velocity="0"/>
  </Event>
  <Event>
    <Absolute>60288</Absolute>
    <NoteOn Channel="2" Note="82" Velocity="127"/>
  </Event>
  <Event>
    <Absolute>60288</Absolute>
    <NoteOn Channel="2" Note="89" Velocity="127"/>
  </Event>
  <Event>
    <Absolute>60288</Absolute>
    <NoteOn Channel="2" Note="86" Velocity="127"/>
  </Event>
  <Event>
    <Absolute>60480</Absolute>
    <NoteOff Channel="2" Note="82" Velocity="0"/>
  </Event>
  <Event>
    <Absolute>60480</Absolute>
    <NoteOff Channel="2" Note="89" Velocity="0"/>
  </Event>
  <Event>
    <Absolute>60480</Absolute>
    <NoteOff Channel="2" Note="86" Velocity="0"/>
  </Event>
  <Event>
    <Absolute>60672</Absolute>
    <NoteOn Channel="2" Note="82" Velocity="127"/>
  </Event>
  <Event>
    <Absolute>60672</Absolute>
    <NoteOn Channel="2" Note="89" Velocity="127"/>
  </Event>
  <Event>
    <Absolute>60672</Absolute>
    <NoteOn Channel="2" Note="86" Velocity="127"/>
  </Event>
  <Event>
    <Absolute>60864</Absolute>
    <NoteOff Channel="2" Note="82" Velocity="0"/>
  </Event>
  <Event>
    <Absolute>60864</Absolute>
    <NoteOff Channel="2" Note="89" Velocity="0"/>
  </Event>
  <Event>
    <Absolute>60864</Absolute>
    <NoteOff Channel="2" Note="86" Velocity="0"/>
  </Event>
  <Event>
    <Absolute>61056</Absolute>
    <NoteOn Channel="2" Note="82" Velocity="127"/>
  </Event>
  <Event>
    <Absolute>61056</Absolute>
    <NoteOn Channel="2" Note="86" Velocity="127"/>
  </Event>
  <Event>
    <Absolute>61056</Absolute>
    <NoteOn Channel="2" Note="89" Velocity="127"/>
  </Event>
  <Event>
    <Absolute>61248</Absolute>
    <NoteOff Channel="2" Note="82" Velocity="0"/>
  </Event>
  <Event>
    <Absolute>61248</Absolute>
    <NoteOff Channel="2" Note="86" Velocity="0"/>
  </Event>
  <Event>
    <Absolute>61248</Absolute>
    <NoteOff Channel="2" Note="89" Velocity="0"/>
  </Event>
  <Event>
    <Absolute>61440</Absolute>
    <NoteOn Channel="2" Note="82" Velocity="127"/>
  </Event>
  <Event>
    <Absolute>61440</Absolute>
    <NoteOn Channel="2" Note="86" Velocity="127"/>
  </Event>
  <Event>
    <Absolute>61440</Absolute>
    <NoteOn Channel="2" Note="89" Velocity="127"/>
  </Event>
  <Event>
    <Absolute>61632</Absolute>
    <NoteOff Channel="2" Note="82" Velocity="0"/>
  </Event>
  <Event>
    <Absolute>61632</Absolute>
    <NoteOff Channel="2" Note="86" Velocity="0"/>
  </Event>
  <Event>
    <Absolute>61632</Absolute>
    <NoteOff Channel="2" Note="89" Velocity="0"/>
  </Event>
  <Event>
    <Absolute>61824</Absolute>
    <NoteOn Channel="2" Note="82" Velocity="127"/>
  </Event>
  <Event>
    <Absolute>61824</Absolute>
    <NoteOn Channel="2" Note="86" Velocity="127"/>
  </Event>
  <Event>
    <Absolute>61824</Absolute>
    <NoteOn Channel="2" Note="89" Velocity="127"/>
  </Event>
  <Event>
    <Absolute>62016</Absolute>
    <NoteOff Channel="2" Note="82" Velocity="0"/>
  </Event>
  <Event>
    <Absolute>62016</Absolute>
    <NoteOff Channel="2" Note="86" Velocity="0"/>
  </Event>
  <Event>
    <Absolute>62016</Absolute>
    <NoteOff Channel="2" Note="89" Velocity="0"/>
  </Event>
  <Event>
    <Absolute>62208</Absolute>
    <NoteOn Channel="2" Note="82" Velocity="127"/>
  </Event>
  <Event>
    <Absolute>62208</Absolute>
    <NoteOn Channel="2" Note="86" Velocity="127"/>
  </Event>
  <Event>
    <Absolute>62208</Absolute>
    <NoteOn Channel="2" Note="89" Velocity="127"/>
  </Event>
  <Event>
    <Absolute>62400</Absolute>
    <NoteOff Channel="2" Note="82" Velocity="0"/>
  </Event>
  <Event>
    <Absolute>62400</Absolute>
    <NoteOff Channel="2" Note="86" Velocity="0"/>
  </Event>
  <Event>
    <Absolute>62400</Absolute>
    <NoteOff Channel="2" Note="89" Velocity="0"/>
  </Event>
  <Event>
    <Absolute>62592</Absolute>
    <NoteOn Channel="2" Note="82" Velocity="127"/>
  </Event>
  <Event>
    <Absolute>62592</Absolute>
    <NoteOn Channel="2" Note="86" Velocity="127"/>
  </Event>
  <Event>
    <Absolute>62592</Absolute>
    <NoteOn Channel="2" Note="89" Velocity="127"/>
  </Event>
  <Event>
    <Absolute>62784</Absolute>
    <NoteOff Channel="2" Note="82" Velocity="0"/>
  </Event>
  <Event>
    <Absolute>62784</Absolute>
    <NoteOff Channel="2" Note="86" Velocity="0"/>
  </Event>
  <Event>
    <Absolute>62784</Absolute>
    <NoteOff Channel="2" Note="89" Velocity="0"/>
  </Event>
  <Event>
    <Absolute>62976</Absolute>
    <NoteOn Channel="2" Note="87" Velocity="127"/>
  </Event>
  <Event>
    <Absolute>62976</Absolute>
    <NoteOn Channel="2" Note="94" Velocity="127"/>
  </Event>
  <Event>
    <Absolute>62976</Absolute>
    <NoteOn Channel="2" Note="90" Velocity="127"/>
  </Event>
  <Event>
    <Absolute>63168</Absolute>
    <NoteOff Channel="2" Note="87" Velocity="0"/>
  </Event>
  <Event>
    <Absolute>63168</Absolute>
    <NoteOff Channel="2" Note="94" Velocity="0"/>
  </Event>
  <Event>
    <Absolute>63168</Absolute>
    <NoteOff Channel="2" Note="90" Velocity="0"/>
  </Event>
  <Event>
    <Absolute>63360</Absolute>
    <NoteOn Channel="2" Note="87" Velocity="127"/>
  </Event>
  <Event>
    <Absolute>63360</Absolute>
    <NoteOn Channel="2" Note="90" Velocity="127"/>
  </Event>
  <Event>
    <Absolute>63360</Absolute>
    <NoteOn Channel="2" Note="94" Velocity="127"/>
  </Event>
  <Event>
    <Absolute>63552</Absolute>
    <NoteOff Channel="2" Note="87" Velocity="0"/>
  </Event>
  <Event>
    <Absolute>63552</Absolute>
    <NoteOff Channel="2" Note="90" Velocity="0"/>
  </Event>
  <Event>
    <Absolute>63552</Absolute>
    <NoteOff Channel="2" Note="94" Velocity="0"/>
  </Event>
  <Event>
    <Absolute>63744</Absolute>
    <NoteOn Channel="2" Note="87" Velocity="127"/>
  </Event>
  <Event>
    <Absolute>63744</Absolute>
    <NoteOn Channel="2" Note="90" Velocity="127"/>
  </Event>
  <Event>
    <Absolute>63744</Absolute>
    <NoteOn Channel="2" Note="94" Velocity="127"/>
  </Event>
  <Event>
    <Absolute>63936</Absolute>
    <NoteOff Channel="2" Note="87" Velocity="0"/>
  </Event>
  <Event>
    <Absolute>63936</Absolute>
    <NoteOff Channel="2" Note="90" Velocity="0"/>
  </Event>
  <Event>
    <Absolute>63936</Absolute>
    <NoteOff Channel="2" Note="94" Velocity="0"/>
  </Event>
  <Event>
    <Absolute>64128</Absolute>
    <NoteOn Channel="2" Note="87" Velocity="127"/>
  </Event>
  <Event>
    <Absolute>64128</Absolute>
    <NoteOn Channel="2" Note="90" Velocity="127"/>
  </Event>
  <Event>
    <Absolute>64128</Absolute>
    <NoteOn Channel="2" Note="94" Velocity="127"/>
  </Event>
  <Event>
    <Absolute>64320</Absolute>
    <NoteOff Channel="2" Note="87" Velocity="0"/>
  </Event>
  <Event>
    <Absolute>64320</Absolute>
    <NoteOff Channel="2" Note="90" Velocity="0"/>
  </Event>
  <Event>
    <Absolute>64320</Absolute>
    <NoteOff Channel="2" Note="94" Velocity="0"/>
  </Event>
  <Event>
    <Absolute>64512</Absolute>
    <NoteOn Channel="2" Note="87" Velocity="127"/>
  </Event>
  <Event>
    <Absolute>64512</Absolute>
    <NoteOn Channel="2" Note="90" Velocity="127"/>
  </Event>
  <Event>
    <Absolute>64512</Absolute>
    <NoteOn Channel="2" Note="94" Velocity="127"/>
  </Event>
  <Event>
    <Absolute>64704</Absolute>
    <NoteOff Channel="2" Note="87" Velocity="0"/>
  </Event>
  <Event>
    <Absolute>64704</Absolute>
    <NoteOff Channel="2" Note="90" Velocity="0"/>
  </Event>
  <Event>
    <Absolute>64704</Absolute>
    <NoteOff Channel="2" Note="94" Velocity="0"/>
  </Event>
  <Event>
    <Absolute>64896</Absolute>
    <NoteOn Channel="2" Note="87" Velocity="127"/>
  </Event>
  <Event>
    <Absolute>64896</Absolute>
    <NoteOn Channel="2" Note="90" Velocity="127"/>
  </Event>
  <Event>
    <Absolute>64896</Absolute>
    <NoteOn Channel="2" Note="94" Velocity="127"/>
  </Event>
  <Event>
    <Absolute>65088</Absolute>
    <NoteOff Channel="2" Note="87" Velocity="0"/>
  </Event>
  <Event>
    <Absolute>65088</Absolute>
    <NoteOff Channel="2" Note="90" Velocity="0"/>
  </Event>
  <Event>
    <Absolute>65088</Absolute>
    <NoteOff Channel="2" Note="94" Velocity="0"/>
  </Event>
  <Event>
    <Absolute>65280</Absolute>
    <NoteOn Channel="2" Note="87" Velocity="127"/>
  </Event>
  <Event>
    <Absolute>65280</Absolute>
    <NoteOn Channel="2" Note="94" Velocity="127"/>
  </Event>
  <Event>
    <Absolute>65280</Absolute>
    <NoteOn Channel="2" Note="90" Velocity="127"/>
  </Event>
  <Event>
    <Absolute>65472</Absolute>
    <NoteOff Channel="2" Note="87" Velocity="0"/>
  </Event>
  <Event>
    <Absolute>65472</Absolute>
    <NoteOff Channel="2" Note="94" Velocity="0"/>
  </Event>
  <Event>
    <Absolute>65472</Absolute>
    <NoteOff Channel="2" Note="90" Velocity="0"/>
  </Event>
  <Event>
    <Absolute>65664</Absolute>
    <NoteOn Channel="2" Note="87" Velocity="127"/>
  </Event>
  <Event>
    <Absolute>65664</Absolute>
    <NoteOn Channel="2" Note="90" Velocity="127"/>
  </Event>
  <Event>
    <Absolute>65664</Absolute>
    <NoteOn Channel="2" Note="94" Velocity="127"/>
  </Event>
  <Event>
    <Absolute>65856</Absolute>
    <NoteOff Channel="2" Note="87" Velocity="0"/>
  </Event>
  <Event>
    <Absolute>65856</Absolute>
    <NoteOff Channel="2" Note="90" Velocity="0"/>
  </Event>
  <Event>
    <Absolute>65856</Absolute>
    <NoteOff Channel="2" Note="94" Velocity="0"/>
  </Event>
  <Event>
    <Absolute>66048</Absolute>
    <NoteOn Channel="2" Note="85" Velocity="127"/>
  </Event>
  <Event>
    <Absolute>66048</Absolute>
    <NoteOn Channel="2" Note="89" Velocity="127"/>
  </Event>
  <Event>
    <Absolute>66048</Absolute>
    <NoteOn Channel="2" Note="92" Velocity="127"/>
  </Event>
  <Event>
    <Absolute>66240</Absolute>
    <NoteOff Channel="2" Note="85" Velocity="0"/>
  </Event>
  <Event>
    <Absolute>66240</Absolute>
    <NoteOff Channel="2" Note="89" Velocity="0"/>
  </Event>
  <Event>
    <Absolute>66240</Absolute>
    <NoteOff Channel="2" Note="92" Velocity="0"/>
  </Event>
  <Event>
    <Absolute>66432</Absolute>
    <NoteOn Channel="2" Note="85" Velocity="127"/>
  </Event>
  <Event>
    <Absolute>66432</Absolute>
    <NoteOn Channel="2" Note="89" Velocity="127"/>
  </Event>
  <Event>
    <Absolute>66432</Absolute>
    <NoteOn Channel="2" Note="92" Velocity="127"/>
  </Event>
  <Event>
    <Absolute>66624</Absolute>
    <NoteOff Channel="2" Note="85" Velocity="0"/>
  </Event>
  <Event>
    <Absolute>66624</Absolute>
    <NoteOff Channel="2" Note="89" Velocity="0"/>
  </Event>
  <Event>
    <Absolute>66624</Absolute>
    <NoteOff Channel="2" Note="92" Velocity="0"/>
  </Event>
  <Event>
    <Absolute>66816</Absolute>
    <NoteOn Channel="2" Note="85" Velocity="127"/>
  </Event>
  <Event>
    <Absolute>66816</Absolute>
    <NoteOn Channel="2" Note="89" Velocity="127"/>
  </Event>
  <Event>
    <Absolute>66816</Absolute>
    <NoteOn Channel="2" Note="92" Velocity="127"/>
  </Event>
  <Event>
    <Absolute>67008</Absolute>
    <NoteOff Channel="2" Note="85" Velocity="0"/>
  </Event>
  <Event>
    <Absolute>67008</Absolute>
    <NoteOff Channel="2" Note="89" Velocity="0"/>
  </Event>
  <Event>
    <Absolute>67008</Absolute>
    <NoteOff Channel="2" Note="92" Velocity="0"/>
  </Event>
  <Event>
    <Absolute>67200</Absolute>
    <NoteOn Channel="2" Note="85" Velocity="127"/>
  </Event>
  <Event>
    <Absolute>67200</Absolute>
    <NoteOn Channel="2" Note="92" Velocity="127"/>
  </Event>
  <Event>
    <Absolute>67200</Absolute>
    <NoteOn Channel="2" Note="89" Velocity="127"/>
  </Event>
  <Event>
    <Absolute>67392</Absolute>
    <NoteOff Channel="2" Note="85" Velocity="0"/>
  </Event>
  <Event>
    <Absolute>67392</Absolute>
    <NoteOff Channel="2" Note="92" Velocity="0"/>
  </Event>
  <Event>
    <Absolute>67392</Absolute>
    <NoteOff Channel="2" Note="89" Velocity="0"/>
  </Event>
  <Event>
    <Absolute>67584</Absolute>
    <NoteOn Channel="2" Note="85" Velocity="127"/>
  </Event>
  <Event>
    <Absolute>67584</Absolute>
    <NoteOn Channel="2" Note="89" Velocity="127"/>
  </Event>
  <Event>
    <Absolute>67584</Absolute>
    <NoteOn Channel="2" Note="92" Velocity="127"/>
  </Event>
  <Event>
    <Absolute>67776</Absolute>
    <NoteOff Channel="2" Note="85" Velocity="0"/>
  </Event>
  <Event>
    <Absolute>67776</Absolute>
    <NoteOff Channel="2" Note="89" Velocity="0"/>
  </Event>
  <Event>
    <Absolute>67776</Absolute>
    <NoteOff Channel="2" Note="92" Velocity="0"/>
  </Event>
  <Event>
    <Absolute>67968</Absolute>
    <NoteOn Channel="2" Note="85" Velocity="127"/>
  </Event>
  <Event>
    <Absolute>67968</Absolute>
    <NoteOn Channel="2" Note="89" Velocity="127"/>
  </Event>
  <Event>
    <Absolute>67968</Absolute>
    <NoteOn Channel="2" Note="92" Velocity="127"/>
  </Event>
  <Event>
    <Absolute>68160</Absolute>
    <NoteOff Channel="2" Note="85" Velocity="0"/>
  </Event>
  <Event>
    <Absolute>68160</Absolute>
    <NoteOff Channel="2" Note="89" Velocity="0"/>
  </Event>
  <Event>
    <Absolute>68160</Absolute>
    <NoteOff Channel="2" Note="92" Velocity="0"/>
  </Event>
  <Event>
    <Absolute>68352</Absolute>
    <NoteOn Channel="2" Note="85" Velocity="127"/>
  </Event>
  <Event>
    <Absolute>68352</Absolute>
    <NoteOn Channel="2" Note="89" Velocity="127"/>
  </Event>
  <Event>
    <Absolute>68352</Absolute>
    <NoteOn Channel="2" Note="92" Velocity="127"/>
  </Event>
  <Event>
    <Absolute>68544</Absolute>
    <NoteOff Channel="2" Note="85" Velocity="0"/>
  </Event>
  <Event>
    <Absolute>68544</Absolute>
    <NoteOff Channel="2" Note="89" Velocity="0"/>
  </Event>
  <Event>
    <Absolute>68544</Absolute>
    <NoteOff Channel="2" Note="92" Velocity="0"/>
  </Event>
  <Event>
    <Absolute>68736</Absolute>
    <NoteOn Channel="2" Note="85" Velocity="127"/>
  </Event>
  <Event>
    <Absolute>68736</Absolute>
    <NoteOn Channel="2" Note="89" Velocity="127"/>
  </Event>
  <Event>
    <Absolute>68736</Absolute>
    <NoteOn Channel="2" Note="92" Velocity="127"/>
  </Event>
  <Event>
    <Absolute>68928</Absolute>
    <NoteOff Channel="2" Note="85" Velocity="0"/>
  </Event>
  <Event>
    <Absolute>68928</Absolute>
    <NoteOff Channel="2" Note="89" Velocity="0"/>
  </Event>
  <Event>
    <Absolute>68928</Absolute>
    <NoteOff Channel="2" Note="92" Velocity="0"/>
  </Event>
  <Event>
    <Absolute>69120</Absolute>
    <NoteOn Channel="2" Note="90" Velocity="127"/>
  </Event>
  <Event>
    <Absolute>69120</Absolute>
    <NoteOn Channel="2" Note="83" Velocity="127"/>
  </Event>
  <Event>
    <Absolute>69120</Absolute>
    <NoteOn Channel="2" Note="87" Velocity="127"/>
  </Event>
  <Event>
    <Absolute>69312</Absolute>
    <NoteOff Channel="2" Note="90" Velocity="0"/>
  </Event>
  <Event>
    <Absolute>69312</Absolute>
    <NoteOff Channel="2" Note="83" Velocity="0"/>
  </Event>
  <Event>
    <Absolute>69312</Absolute>
    <NoteOff Channel="2" Note="87" Velocity="0"/>
  </Event>
  <Event>
    <Absolute>69504</Absolute>
    <NoteOn Channel="2" Note="83" Velocity="127"/>
  </Event>
  <Event>
    <Absolute>69504</Absolute>
    <NoteOn Channel="2" Note="87" Velocity="127"/>
  </Event>
  <Event>
    <Absolute>69504</Absolute>
    <NoteOn Channel="2" Note="90" Velocity="127"/>
  </Event>
  <Event>
    <Absolute>69696</Absolute>
    <NoteOff Channel="2" Note="83" Velocity="0"/>
  </Event>
  <Event>
    <Absolute>69696</Absolute>
    <NoteOff Channel="2" Note="87" Velocity="0"/>
  </Event>
  <Event>
    <Absolute>69696</Absolute>
    <NoteOff Channel="2" Note="90" Velocity="0"/>
  </Event>
  <Event>
    <Absolute>69888</Absolute>
    <NoteOn Channel="2" Note="90" Velocity="127"/>
  </Event>
  <Event>
    <Absolute>69888</Absolute>
    <NoteOn Channel="2" Note="83" Velocity="127"/>
  </Event>
  <Event>
    <Absolute>69888</Absolute>
    <NoteOn Channel="2" Note="87" Velocity="127"/>
  </Event>
  <Event>
    <Absolute>70080</Absolute>
    <NoteOff Channel="2" Note="90" Velocity="0"/>
  </Event>
  <Event>
    <Absolute>70080</Absolute>
    <NoteOff Channel="2" Note="83" Velocity="0"/>
  </Event>
  <Event>
    <Absolute>70080</Absolute>
    <NoteOff Channel="2" Note="87" Velocity="0"/>
  </Event>
  <Event>
    <Absolute>70272</Absolute>
    <NoteOn Channel="2" Note="90" Velocity="127"/>
  </Event>
  <Event>
    <Absolute>70272</Absolute>
    <NoteOn Channel="2" Note="83" Velocity="127"/>
  </Event>
  <Event>
    <Absolute>70272</Absolute>
    <NoteOn Channel="2" Note="87" Velocity="127"/>
  </Event>
  <Event>
    <Absolute>70464</Absolute>
    <NoteOff Channel="2" Note="90" Velocity="0"/>
  </Event>
  <Event>
    <Absolute>70464</Absolute>
    <NoteOff Channel="2" Note="83" Velocity="0"/>
  </Event>
  <Event>
    <Absolute>70464</Absolute>
    <NoteOff Channel="2" Note="87" Velocity="0"/>
  </Event>
  <Event>
    <Absolute>70656</Absolute>
    <NoteOn Channel="2" Note="87" Velocity="127"/>
  </Event>
  <Event>
    <Absolute>70656</Absolute>
    <NoteOn Channel="2" Note="90" Velocity="127"/>
  </Event>
  <Event>
    <Absolute>70656</Absolute>
    <NoteOn Channel="2" Note="83" Velocity="127"/>
  </Event>
  <Event>
    <Absolute>70848</Absolute>
    <NoteOff Channel="2" Note="87" Velocity="0"/>
  </Event>
  <Event>
    <Absolute>70848</Absolute>
    <NoteOff Channel="2" Note="90" Velocity="0"/>
  </Event>
  <Event>
    <Absolute>70848</Absolute>
    <NoteOff Channel="2" Note="83" Velocity="0"/>
  </Event>
  <Event>
    <Absolute>71040</Absolute>
    <NoteOn Channel="2" Note="87" Velocity="127"/>
  </Event>
  <Event>
    <Absolute>71040</Absolute>
    <NoteOn Channel="2" Note="83" Velocity="127"/>
  </Event>
  <Event>
    <Absolute>71040</Absolute>
    <NoteOn Channel="2" Note="90" Velocity="127"/>
  </Event>
  <Event>
    <Absolute>71232</Absolute>
    <NoteOff Channel="2" Note="87" Velocity="0"/>
  </Event>
  <Event>
    <Absolute>71232</Absolute>
    <NoteOff Channel="2" Note="83" Velocity="0"/>
  </Event>
  <Event>
    <Absolute>71232</Absolute>
    <NoteOff Channel="2" Note="90" Velocity="0"/>
  </Event>
  <Event>
    <Absolute>71424</Absolute>
    <NoteOn Channel="2" Note="90" Velocity="127"/>
  </Event>
  <Event>
    <Absolute>71424</Absolute>
    <NoteOn Channel="2" Note="87" Velocity="127"/>
  </Event>
  <Event>
    <Absolute>71424</Absolute>
    <NoteOn Channel="2" Note="83" Velocity="127"/>
  </Event>
  <Event>
    <Absolute>71616</Absolute>
    <NoteOff Channel="2" Note="90" Velocity="0"/>
  </Event>
  <Event>
    <Absolute>71616</Absolute>
    <NoteOff Channel="2" Note="87" Velocity="0"/>
  </Event>
  <Event>
    <Absolute>71616</Absolute>
    <NoteOff Channel="2" Note="83" Velocity="0"/>
  </Event>
  <Event>
    <Absolute>71808</Absolute>
    <NoteOn Channel="2" Note="90" Velocity="127"/>
  </Event>
  <Event>
    <Absolute>71808</Absolute>
    <NoteOn Channel="2" Note="83" Velocity="127"/>
  </Event>
  <Event>
    <Absolute>71808</Absolute>
    <NoteOn Channel="2" Note="87" Velocity="127"/>
  </Event>
  <Event>
    <Absolute>72000</Absolute>
    <NoteOff Channel="2" Note="90" Velocity="0"/>
  </Event>
  <Event>
    <Absolute>72000</Absolute>
    <NoteOff Channel="2" Note="83" Velocity="0"/>
  </Event>
  <Event>
    <Absolute>72000</Absolute>
    <NoteOff Channel="2" Note="87" Velocity="0"/>
  </Event>
  <Event>
    <Absolute>72192</Absolute>
    <NoteOn Channel="2" Note="82" Velocity="127"/>
  </Event>
  <Event>
    <Absolute>72192</Absolute>
    <NoteOn Channel="2" Note="86" Velocity="127"/>
  </Event>
  <Event>
    <Absolute>72192</Absolute>
    <NoteOn Channel="2" Note="89" Velocity="127"/>
  </Event>
  <Event>
    <Absolute>72384</Absolute>
    <NoteOff Channel="2" Note="82" Velocity="0"/>
  </Event>
  <Event>
    <Absolute>72384</Absolute>
    <NoteOff Channel="2" Note="86" Velocity="0"/>
  </Event>
  <Event>
    <Absolute>72384</Absolute>
    <NoteOff Channel="2" Note="89" Velocity="0"/>
  </Event>
  <Event>
    <Absolute>72576</Absolute>
    <NoteOn Channel="2" Note="82" Velocity="127"/>
  </Event>
  <Event>
    <Absolute>72576</Absolute>
    <NoteOn Channel="2" Note="86" Velocity="127"/>
  </Event>
  <Event>
    <Absolute>72576</Absolute>
    <NoteOn Channel="2" Note="89" Velocity="127"/>
  </Event>
  <Event>
    <Absolute>72768</Absolute>
    <NoteOff Channel="2" Note="82" Velocity="0"/>
  </Event>
  <Event>
    <Absolute>72768</Absolute>
    <NoteOff Channel="2" Note="86" Velocity="0"/>
  </Event>
  <Event>
    <Absolute>72768</Absolute>
    <NoteOff Channel="2" Note="89" Velocity="0"/>
  </Event>
  <Event>
    <Absolute>72960</Absolute>
    <NoteOn Channel="2" Note="82" Velocity="127"/>
  </Event>
  <Event>
    <Absolute>72960</Absolute>
    <NoteOn Channel="2" Note="86" Velocity="127"/>
  </Event>
  <Event>
    <Absolute>72960</Absolute>
    <NoteOn Channel="2" Note="89" Velocity="127"/>
  </Event>
  <Event>
    <Absolute>73152</Absolute>
    <NoteOff Channel="2" Note="82" Velocity="0"/>
  </Event>
  <Event>
    <Absolute>73152</Absolute>
    <NoteOff Channel="2" Note="86" Velocity="0"/>
  </Event>
  <Event>
    <Absolute>73152</Absolute>
    <NoteOff Channel="2" Note="89" Velocity="0"/>
  </Event>
  <Event>
    <Absolute>73344</Absolute>
    <NoteOn Channel="2" Note="82" Velocity="127"/>
  </Event>
  <Event>
    <Absolute>73344</Absolute>
    <NoteOn Channel="2" Note="86" Velocity="127"/>
  </Event>
  <Event>
    <Absolute>73344</Absolute>
    <NoteOn Channel="2" Note="89" Velocity="127"/>
  </Event>
  <Event>
    <Absolute>73536</Absolute>
    <NoteOff Channel="2" Note="82" Velocity="0"/>
  </Event>
  <Event>
    <Absolute>73536</Absolute>
    <NoteOff Channel="2" Note="86" Velocity="0"/>
  </Event>
  <Event>
    <Absolute>73536</Absolute>
    <NoteOff Channel="2" Note="89" Velocity="0"/>
  </Event>
  <Event>
    <Absolute>73728</Absolute>
    <NoteOn Channel="2" Note="85" Velocity="127"/>
  </Event>
  <Event>
    <Absolute>73728</Absolute>
    <NoteOn Channel="2" Note="89" Velocity="127"/>
  </Event>
  <Event>
    <Absolute>73728</Absolute>
    <NoteOn Channel="2" Note="92" Velocity="127"/>
  </Event>
  <Event>
    <Absolute>73920</Absolute>
    <NoteOff Channel="2" Note="85" Velocity="0"/>
  </Event>
  <Event>
    <Absolute>73920</Absolute>
    <NoteOff Channel="2" Note="89" Velocity="0"/>
  </Event>
  <Event>
    <Absolute>73920</Absolute>
    <NoteOff Channel="2" Note="92" Velocity="0"/>
  </Event>
  <Event>
    <Absolute>74112</Absolute>
    <NoteOn Channel="2" Note="85" Velocity="127"/>
  </Event>
  <Event>
    <Absolute>74112</Absolute>
    <NoteOn Channel="2" Note="89" Velocity="127"/>
  </Event>
  <Event>
    <Absolute>74112</Absolute>
    <NoteOn Channel="2" Note="92" Velocity="127"/>
  </Event>
  <Event>
    <Absolute>74304</Absolute>
    <NoteOff Channel="2" Note="85" Velocity="0"/>
  </Event>
  <Event>
    <Absolute>74304</Absolute>
    <NoteOff Channel="2" Note="89" Velocity="0"/>
  </Event>
  <Event>
    <Absolute>74304</Absolute>
    <NoteOff Channel="2" Note="92" Velocity="0"/>
  </Event>
  <Event>
    <Absolute>74496</Absolute>
    <NoteOn Channel="2" Note="85" Velocity="127"/>
  </Event>
  <Event>
    <Absolute>74496</Absolute>
    <NoteOn Channel="2" Note="89" Velocity="127"/>
  </Event>
  <Event>
    <Absolute>74496</Absolute>
    <NoteOn Channel="2" Note="92" Velocity="127"/>
  </Event>
  <Event>
    <Absolute>74688</Absolute>
    <NoteOff Channel="2" Note="85" Velocity="0"/>
  </Event>
  <Event>
    <Absolute>74688</Absolute>
    <NoteOff Channel="2" Note="89" Velocity="0"/>
  </Event>
  <Event>
    <Absolute>74688</Absolute>
    <NoteOff Channel="2" Note="92" Velocity="0"/>
  </Event>
  <Event>
    <Absolute>74880</Absolute>
    <NoteOn Channel="2" Note="85" Velocity="127"/>
  </Event>
  <Event>
    <Absolute>74880</Absolute>
    <NoteOn Channel="2" Note="89" Velocity="127"/>
  </Event>
  <Event>
    <Absolute>74880</Absolute>
    <NoteOn Channel="2" Note="92" Velocity="127"/>
  </Event>
  <Event>
    <Absolute>75072</Absolute>
    <NoteOff Channel="2" Note="85" Velocity="0"/>
  </Event>
  <Event>
    <Absolute>75072</Absolute>
    <NoteOff Channel="2" Note="89" Velocity="0"/>
  </Event>
  <Event>
    <Absolute>75072</Absolute>
    <NoteOff Channel="2" Note="92" Velocity="0"/>
  </Event>
  <Event>
    <Absolute>128896</Absolute>
    <ControlChange Channel="2" Control="7" Value="80"/>
  </Event>
  <Event>
    <Absolute>130560</Absolute>
    <ProgramChange Channel="2" Number="16"/>
  </Event>
  <Event>
    <Absolute>130560</Absolute>
    <NoteOn Channel="2" Note="48" Velocity="57"/>
  </Event>
  <Event>
    <Absolute>130560</Absolute>
    <NoteOn Channel="2" Note="53" Velocity="57"/>
  </Event>
  <Event>
    <Absolute>130560</Absolute>
    <NoteOn Channel="2" Note="57" Velocity="57"/>
  </Event>
  <Event>
    <Absolute>133632</Absolute>
    <NoteOff Channel="2" Note="48" Velocity="0"/>
  </Event>
  <Event>
    <Absolute>133632</Absolute>
    <NoteOff Channel="2" Note="53" Velocity="0"/>
  </Event>
  <Event>
    <Absolute>133632</Absolute>
    <NoteOff Channel="2" Note="57" Velocity="0"/>
  </Event>
  <Event>
    <Absolute>133632</Absolute>
    <NoteOn Channel="2" Note="50" Velocity="57"/>
  </Event>
  <Event>
    <Absolute>133632</Absolute>
    <NoteOn Channel="2" Note="55" Velocity="57"/>
  </Event>
  <Event>
    <Absolute>133632</Absolute>
    <NoteOn Channel="2" Note="58" Velocity="57"/>
  </Event>
  <Event>
    <Absolute>135168</Absolute>
    <NoteOff Channel="2" Note="50" Velocity="0"/>
  </Event>
  <Event>
    <Absolute>135168</Absolute>
    <NoteOff Channel="2" Note="55" Velocity="0"/>
  </Event>
  <Event>
    <Absolute>135168</Absolute>
    <NoteOff Channel="2" Note="58" Velocity="0"/>
  </Event>
  <Event>
    <Absolute>135168</Absolute>
    <NoteOn Channel="2" Note="52" Velocity="57"/>
  </Event>
  <Event>
    <Absolute>135168</Absolute>
    <NoteOn Channel="2" Note="55" Velocity="57"/>
  </Event>
  <Event>
    <Absolute>135168</Absolute>
    <NoteOn Channel="2" Note="60" Velocity="57"/>
  </Event>
  <Event>
    <Absolute>136704</Absolute>
    <NoteOff Channel="2" Note="52" Velocity="0"/>
  </Event>
  <Event>
    <Absolute>136704</Absolute>
    <NoteOff Channel="2" Note="55" Velocity="0"/>
  </Event>
  <Event>
    <Absolute>136704</Absolute>
    <NoteOff Channel="2" Note="60" Velocity="0"/>
  </Event>
  <Event>
    <Absolute>136704</Absolute>
    <NoteOn Channel="2" Note="48" Velocity="57"/>
  </Event>
  <Event>
    <Absolute>136704</Absolute>
    <NoteOn Channel="2" Note="53" Velocity="57"/>
  </Event>
  <Event>
    <Absolute>136704</Absolute>
    <NoteOn Channel="2" Note="57" Velocity="57"/>
  </Event>
  <Event>
    <Absolute>139776</Absolute>
    <NoteOff Channel="2" Note="48" Velocity="0"/>
  </Event>
  <Event>
    <Absolute>139776</Absolute>
    <NoteOff Channel="2" Note="53" Velocity="0"/>
  </Event>
  <Event>
    <Absolute>139776</Absolute>
    <NoteOff Channel="2" Note="57" Velocity="0"/>
  </Event>
  <Event>
    <Absolute>139776</Absolute>
    <NoteOn Channel="2" Note="50" Velocity="57"/>
  </Event>
  <Event>
    <Absolute>139776</Absolute>
    <NoteOn Channel="2" Note="55" Velocity="57"/>
  </Event>
  <Event>
    <Absolute>139776</Absolute>
    <NoteOn Channel="2" Note="58" Velocity="57"/>
  </Event>
  <Event>
    <Absolute>141312</Absolute>
    <NoteOff Channel="2" Note="50" Velocity="0"/>
  </Event>
  <Event>
    <Absolute>141312</Absolute>
    <NoteOff Channel="2" Note="55" Velocity="0"/>
  </Event>
  <Event>
    <Absolute>141312</Absolute>
    <NoteOff Channel="2" Note="58" Velocity="0"/>
  </Event>
  <Event>
    <Absolute>141312</Absolute>
    <NoteOn Channel="2" Note="52" Velocity="57"/>
  </Event>
  <Event>
    <Absolute>141312</Absolute>
    <NoteOn Channel="2" Note="55" Velocity="57"/>
  </Event>
  <Event>
    <Absolute>141312</Absolute>
    <NoteOn Channel="2" Note="60" Velocity="57"/>
  </Event>
  <Event>
    <Absolute>142848</Absolute>
    <NoteOff Channel="2" Note="52" Velocity="0"/>
  </Event>
  <Event>
    <Absolute>142848</Absolute>
    <NoteOff Channel="2" Note="55" Velocity="0"/>
  </Event>
  <Event>
    <Absolute>142848</Absolute>
    <NoteOff Channel="2" Note="60" Velocity="0"/>
  </Event>
  <Event>
    <Absolute>142848</Absolute>
    <NoteOn Channel="2" Note="48" Velocity="57"/>
  </Event>
  <Event>
    <Absolute>142848</Absolute>
    <NoteOn Channel="2" Note="53" Velocity="57"/>
  </Event>
  <Event>
    <Absolute>142848</Absolute>
    <NoteOn Channel="2" Note="57" Velocity="57"/>
  </Event>
  <Event>
    <Absolute>145920</Absolute>
    <NoteOff Channel="2" Note="48" Velocity="0"/>
  </Event>
  <Event>
    <Absolute>145920</Absolute>
    <NoteOff Channel="2" Note="53" Velocity="0"/>
  </Event>
  <Event>
    <Absolute>145920</Absolute>
    <NoteOff Channel="2" Note="57" Velocity="0"/>
  </Event>
  <Event>
    <Absolute>145920</Absolute>
    <NoteOn Channel="2" Note="50" Velocity="57"/>
  </Event>
  <Event>
    <Absolute>145920</Absolute>
    <NoteOn Channel="2" Note="55" Velocity="57"/>
  </Event>
  <Event>
    <Absolute>145920</Absolute>
    <NoteOn Channel="2" Note="58" Velocity="57"/>
  </Event>
  <Event>
    <Absolute>147456</Absolute>
    <NoteOff Channel="2" Note="50" Velocity="0"/>
  </Event>
  <Event>
    <Absolute>147456</Absolute>
    <NoteOff Channel="2" Note="55" Velocity="0"/>
  </Event>
  <Event>
    <Absolute>147456</Absolute>
    <NoteOff Channel="2" Note="58" Velocity="0"/>
  </Event>
  <Event>
    <Absolute>147456</Absolute>
    <NoteOn Channel="2" Note="52" Velocity="57"/>
  </Event>
  <Event>
    <Absolute>147456</Absolute>
    <NoteOn Channel="2" Note="55" Velocity="57"/>
  </Event>
  <Event>
    <Absolute>147456</Absolute>
    <NoteOn Channel="2" Note="60" Velocity="57"/>
  </Event>
  <Event>
    <Absolute>148992</Absolute>
    <NoteOff Channel="2" Note="52" Velocity="0"/>
  </Event>
  <Event>
    <Absolute>148992</Absolute>
    <NoteOff Channel="2" Note="55" Velocity="0"/>
  </Event>
  <Event>
    <Absolute>148992</Absolute>
    <NoteOff Channel="2" Note="60" Velocity="0"/>
  </Event>
  <Event>
    <Absolute>148992</Absolute>
    <NoteOn Channel="2" Note="48" Velocity="57"/>
  </Event>
  <Event>
    <Absolute>148992</Absolute>
    <NoteOn Channel="2" Note="53" Velocity="57"/>
  </Event>
  <Event>
    <Absolute>148992</Absolute>
    <NoteOn Channel="2" Note="57" Velocity="57"/>
  </Event>
  <Event>
    <Absolute>152064</Absolute>
    <NoteOff Channel="2" Note="48" Velocity="0"/>
  </Event>
  <Event>
    <Absolute>152064</Absolute>
    <NoteOff Channel="2" Note="53" Velocity="0"/>
  </Event>
  <Event>
    <Absolute>152064</Absolute>
    <NoteOff Channel="2" Note="57" Velocity="0"/>
  </Event>
  <Event>
    <Absolute>152064</Absolute>
    <NoteOn Channel="2" Note="50" Velocity="57"/>
  </Event>
  <Event>
    <Absolute>152064</Absolute>
    <NoteOn Channel="2" Note="55" Velocity="57"/>
  </Event>
  <Event>
    <Absolute>152064</Absolute>
    <NoteOn Channel="2" Note="58" Velocity="57"/>
  </Event>
  <Event>
    <Absolute>153600</Absolute>
    <NoteOff Channel="2" Note="50" Velocity="0"/>
  </Event>
  <Event>
    <Absolute>153600</Absolute>
    <NoteOff Channel="2" Note="55" Velocity="0"/>
  </Event>
  <Event>
    <Absolute>153600</Absolute>
    <NoteOff Channel="2" Note="58" Velocity="0"/>
  </Event>
  <Event>
    <Absolute>153600</Absolute>
    <NoteOn Channel="2" Note="52" Velocity="57"/>
  </Event>
  <Event>
    <Absolute>153600</Absolute>
    <NoteOn Channel="2" Note="55" Velocity="57"/>
  </Event>
  <Event>
    <Absolute>153600</Absolute>
    <NoteOn Channel="2" Note="60" Velocity="57"/>
  </Event>
  <Event>
    <Absolute>155136</Absolute>
    <NoteOff Channel="2" Note="52" Velocity="0"/>
  </Event>
  <Event>
    <Absolute>155136</Absolute>
    <NoteOff Channel="2" Note="55" Velocity="0"/>
  </Event>
  <Event>
    <Absolute>155136</Absolute>
    <NoteOff Channel="2" Note="60" Velocity="0"/>
  </Event>
  <Event>
    <Absolute>155136</Absolute>
    <NoteOn Channel="2" Note="48" Velocity="57"/>
  </Event>
  <Event>
    <Absolute>155136</Absolute>
    <NoteOn Channel="2" Note="53" Velocity="57"/>
  </Event>
  <Event>
    <Absolute>155136</Absolute>
    <NoteOn Channel="2" Note="57" Velocity="57"/>
  </Event>
  <Event>
    <Absolute>158208</Absolute>
    <NoteOff Channel="2" Note="48" Velocity="0"/>
  </Event>
  <Event>
    <Absolute>158208</Absolute>
    <NoteOff Channel="2" Note="53" Velocity="0"/>
  </Event>
  <Event>
    <Absolute>158208</Absolute>
    <NoteOff Channel="2" Note="57" Velocity="0"/>
  </Event>
  <Event>
    <Absolute>158208</Absolute>
    <NoteOn Channel="2" Note="50" Velocity="57"/>
  </Event>
  <Event>
    <Absolute>158208</Absolute>
    <NoteOn Channel="2" Note="55" Velocity="57"/>
  </Event>
  <Event>
    <Absolute>158208</Absolute>
    <NoteOn Channel="2" Note="58" Velocity="57"/>
  </Event>
  <Event>
    <Absolute>159744</Absolute>
    <NoteOff Channel="2" Note="50" Velocity="0"/>
  </Event>
  <Event>
    <Absolute>159744</Absolute>
    <NoteOff Channel="2" Note="55" Velocity="0"/>
  </Event>
  <Event>
    <Absolute>159744</Absolute>
    <NoteOff Channel="2" Note="58" Velocity="0"/>
  </Event>
  <Event>
    <Absolute>159744</Absolute>
    <NoteOn Channel="2" Note="52" Velocity="57"/>
  </Event>
  <Event>
    <Absolute>159744</Absolute>
    <NoteOn Channel="2" Note="55" Velocity="57"/>
  </Event>
  <Event>
    <Absolute>159744</Absolute>
    <NoteOn Channel="2" Note="60" Velocity="57"/>
  </Event>
  <Event>
    <Absolute>161280</Absolute>
    <NoteOff Channel="2" Note="52" Velocity="0"/>
  </Event>
  <Event>
    <Absolute>161280</Absolute>
    <NoteOff Channel="2" Note="55" Velocity="0"/>
  </Event>
  <Event>
    <Absolute>161280</Absolute>
    <NoteOff Channel="2" Note="60" Velocity="0"/>
  </Event>
  <Event>
    <Absolute>161280</Absolute>
    <NoteOn Channel="2" Note="48" Velocity="57"/>
  </Event>
  <Event>
    <Absolute>161280</Absolute>
    <NoteOn Channel="2" Note="53" Velocity="57"/>
  </Event>
  <Event>
    <Absolute>161280</Absolute>
    <NoteOn Channel="2" Note="57" Velocity="57"/>
  </Event>
  <Event>
    <Absolute>164352</Absolute>
    <NoteOff Channel="2" Note="48" Velocity="0"/>
  </Event>
  <Event>
    <Absolute>164352</Absolute>
    <NoteOff Channel="2" Note="53" Velocity="0"/>
  </Event>
  <Event>
    <Absolute>164352</Absolute>
    <NoteOff Channel="2" Note="57" Velocity="0"/>
  </Event>
  <Event>
    <Absolute>198880</Absolute>
    <ControlChange Channel="2" Control="7" Value="79"/>
  </Event>
  <Event>
    <Absolute>200048</Absolute>
    <ControlChange Channel="2" Control="7" Value="78"/>
  </Event>
  <Event>
    <Absolute>200704</Absolute>
    <ControlChange Channel="2" Control="7" Value="77"/>
  </Event>
  <Event>
    <Absolute>200816</Absolute>
    <ControlChange Channel="2" Control="7" Value="76"/>
  </Event>
  <Event>
    <Absolute>201120</Absolute>
    <ControlChange Channel="2" Control="7" Value="75"/>
  </Event>
  <Event>
    <Absolute>201312</Absolute>
    <ControlChange Channel="2" Control="7" Value="74"/>
  </Event>
  <Event>
    <Absolute>201536</Absolute>
    <ControlChange Channel="2" Control="7" Value="73"/>
  </Event>
  <Event>
    <Absolute>201728</Absolute>
    <ControlChange Channel="2" Control="7" Value="72"/>
  </Event>
  <Event>
    <Absolute>201952</Absolute>
    <ControlChange Channel="2" Control="7" Value="71"/>
  </Event>
  <Event>
    <Absolute>202112</Absolute>
    <ControlChange Channel="2" Control="7" Value="70"/>
  </Event>
  <Event>
    <Absolute>202256</Absolute>
    <ControlChange Channel="2" Control="7" Value="69"/>
  </Event>
  <Event>
    <Absolute>202304</Absolute>
    <ControlChange Channel="2" Control="7" Value="68"/>
  </Event>
  <Event>
    <Absolute>202416</Absolute>
    <ControlChange Channel="2" Control="7" Value="66"/>
  </Event>
  <Event>
    <Absolute>202528</Absolute>
    <ControlChange Channel="2" Control="7" Value="64"/>
  </Event>
  <Event>
    <Absolute>202592</Absolute>
    <ControlChange Channel="2" Control="7" Value="62"/>
  </Event>
  <Event>
    <Absolute>202720</Absolute>
    <ControlChange Channel="2" Control="7" Value="61"/>
  </Event>
  <Event>
    <Absolute>202772</Absolute>
    <ControlChange Channel="2" Control="7" Value="60"/>
  </Event>
  <Event>
    <Absolute>202788</Absolute>
    <ControlChange Channel="2" Control="7" Value="59"/>
  </Event>
  <Event>
    <Absolute>202944</Absolute>
    <ControlChange Channel="2" Control="7" Value="58"/>
  </Event>
  <Event>
    <Absolute>203008</Absolute>
    <ControlChange Channel="2" Control="7" Value="57"/>
  </Event>
  <Event>
    <Absolute>203120</Absolute>
    <ControlChange Channel="2" Control="7" Value="56"/>
  </Event>
  <Event>
    <Absolute>203232</Absolute>
    <ControlChange Channel="2" Control="7" Value="55"/>
  </Event>
  <Event>
    <Absolute>203280</Absolute>
    <ControlChange Channel="2" Control="7" Value="54"/>
  </Event>
  <Event>
    <Absolute>203408</Absolute>
    <ControlChange Channel="2" Control="7" Value="53"/>
  </Event>
  <Event>
    <Absolute>203504</Absolute>
    <ControlChange Channel="2" Control="7" Value="52"/>
  </Event>
  <Event>
    <Absolute>203624</Absolute>
    <ControlChange Channel="2" Control="7" Value="51"/>
  </Event>
  <Event>
    <Absolute>203720</Absolute>
    <ControlChange Channel="2" Control="7" Value="50"/>
  </Event>
  <Event>
    <Absolute>203752</Absolute>
    <ControlChange Channel="2" Control="7" Value="49"/>
  </Event>
  <Event>
    <Absolute>203808</Absolute>
    <ControlChange Channel="2" Control="7" Value="48"/>
  </Event>
  <Event>
    <Absolute>203920</Absolute>
    <ControlChange Channel="2" Control="7" Value="47"/>
  </Event>
  <Event>
    <Absolute>203984</Absolute>
    <ControlChange Channel="2" Control="7" Value="46"/>
  </Event>
  <Event>
    <Absolute>204032</Absolute>
    <ControlChange Channel="2" Control="7" Value="45"/>
  </Event>
  <Event>
    <Absolute>204112</Absolute>
    <ControlChange Channel="2" Control="7" Value="44"/>
  </Event>
  <Event>
    <Absolute>204192</Absolute>
    <ControlChange Channel="2" Control="7" Value="43"/>
  </Event>
  <Event>
    <Absolute>204324</Absolute>
    <ControlChange Channel="2" Control="7" Value="42"/>
  </Event>
  <Event>
    <Absolute>204368</Absolute>
    <ControlChange Channel="2" Control="7" Value="41"/>
  </Event>
  <Event>
    <Absolute>204432</Absolute>
    <ControlChange Channel="2" Control="7" Value="40"/>
  </Event>
  <Event>
    <Absolute>204544</Absolute>
    <ControlChange Channel="2" Control="7" Value="39"/>
  </Event>
  <Event>
    <Absolute>204624</Absolute>
    <ControlChange Channel="2" Control="7" Value="38"/>
  </Event>
  <Event>
    <Absolute>204672</Absolute>
    <ControlChange Channel="2" Control="7" Value="37"/>
  </Event>
  <Event>
    <Absolute>204736</Absolute>
    <ControlChange Channel="2" Control="7" Value="36"/>
  </Event>
  <Event>
    <Absolute>204768</Absolute>
    <ControlChange Channel="2" Control="7" Value="35"/>
  </Event>
  <Event>
    <Absolute>204896</Absolute>
    <ControlChange Channel="2" Control="7" Value="34"/>
  </Event>
  <Event>
    <Absolute>204992</Absolute>
    <ControlChange Channel="2" Control="7" Value="33"/>
  </Event>
  <Event>
    <Absolute>205024</Absolute>
    <ControlChange Channel="2" Control="7" Value="32"/>
  </Event>
  <Event>
    <Absolute>205080</Absolute>
    <ControlChange Channel="2" Control="7" Value="31"/>
  </Event>
  <Event>
    <Absolute>205184</Absolute>
    <ControlChange Channel="2" Control="7" Value="30"/>
  </Event>
  <Event>
    <Absolute>205328</Absolute>
    <ControlChange Channel="2" Control="7" Value="29"/>
  </Event>
  <Event>
    <Absolute>205424</Absolute>
    <ControlChange Channel="2" Control="7" Value="28"/>
  </Event>
  <Event>
    <Absolute>205456</Absolute>
    <ControlChange Channel="2" Control="7" Value="27"/>
  </Event>
  <Event>
    <Absolute>205536</Absolute>
    <ControlChange Channel="2" Control="7" Value="25"/>
  </Event>
  <Event>
    <Absolute>205648</Absolute>
    <ControlChange Channel="2" Control="7" Value="23"/>
  </Event>
  <Event>
    <Absolute>205904</Absolute>
    <ControlChange Channel="2" Control="7" Value="22"/>
  </Event>
  <Event>
    <Absolute>205920</Absolute>
    <ControlChange Channel="2" Control="7" Value="21"/>
  </Event>
  <Event>
    <Absolute>206032</Absolute>
    <ControlChange Channel="2" Control="7" Value="20"/>
  </Event>
  <Event>
    <Absolute>206112</Absolute>
    <ControlChange Channel="2" Control="7" Value="19"/>
  </Event>
  <Event>
    <Absolute>206228</Absolute>
    <ControlChange Channel="2" Control="7" Value="18"/>
  </Event>
  <Event>
    <Absolute>206432</Absolute>
    <ControlChange Channel="2" Control="7" Value="17"/>
  </Event>
  <Event>
    <Absolute>206624</Absolute>
    <ControlChange Channel="2" Control="7" Value="16"/>
  </Event>
  <Event>
    <Absolute>206640</Absolute>
    <ControlChange Channel="2" Control="7" Value="15"/>
  </Event>
  <Event>
    <Absolute>206792</Absolute>
    <ControlChange Channel="2" Control="7" Value="14"/>
  </Event>
  <Event>
    <Absolute>206848</Absolute>
    <ControlChange Channel="2" Control="7" Value="13"/>
  </Event>
  <Event>
    <Absolute>207008</Absolute>
    <ControlChange Channel="2" Control="7" Value="12"/>
  </Event>
  <Event>
    <Absolute>207088</Absolute>
    <ControlChange Channel="2" Control="7" Value="11"/>
  </Event>
  <Event>
    <Absolute>207392</Absolute>
    <ControlChange Channel="2" Control="7" Value="10"/>
  </Event>
  <Event>
    <Absolute>207696</Absolute>
    <ControlChange Channel="2" Control="7" Value="9"/>
  </Event>
  <Event>
    <Absolute>207808</Absolute>
    <ControlChange Channel="2" Control="7" Value="8"/>
  </Event>
  <Event>
    <Absolute>207824</Absolute>
    <ControlChange Channel="2" Control="7" Value="7"/>
  </Event>
  <Event>
    <Absolute>208128</Absolute>
    <ControlChange Channel="2" Control="7" Value="6"/>
  </Event>
  <Event>
    <Absolute>208224</Absolute>
    <ControlChange Channel="2" Control="7" Value="5"/>
  </Event>
  <Event>
    <Absolute>208720</Absolute>
    <ControlChange Channel="2" Control="7" Value="4"/>
  </Event>
  <Event>
    <Absolute>208912</Absolute>
    <ControlChange Channel="2" Control="7" Value="3"/>
  </Event>
  <Event>
    <Absolute>209120</Absolute>
    <ControlChange Channel="2" Control="7" Value="2"/>
  </Event>
  <Event>
    <Absolute>209120</Absolute>
    <EndOfTrack/>
  </Event>
</Track>
<Track Number="5">
  <Event>
    <Absolute>0</Absolute>
    <TrackName>Fretless Bass</TrackName>
  </Event>
  <Event>
    <Absolute>0</Absolute>
    <ControlChange Channel="3" Control="0" Value="0"/>
  </Event>
  <Event>
    <Absolute>0</Absolute>
    <ProgramChange Channel="3" Number="35"/>
  </Event>
  <Event>
    <Absolute>0</Absolute>
    <ControlChange Channel="3" Control="7" Value="95"/>
  </Event>
  <Event>
    <Absolute>0</Absolute>
    <ControlChange Channel="3" Control="10" Value="80"/>
  </Event>
  <Event>
    <Absolute>0</Absolute>
    <ControlChange Channel="3" Control="91" Value="127"/>
  </Event>
  <Event>
    <Absolute>0</Absolute>
    <ControlChange Channel="3" Control="93" Value="87"/>
  </Event>
  <Event>
    <Absolute>0</Absolute>
    <KeySignature Fifths="0" Mode="0"/>
  </Event>
  <Event>
    <Absolute>13824</Absolute>
    <NoteOn Channel="3" Note="39" Velocity="70"/>
  </Event>
  <Event>
    <Absolute>16512</Absolute>
    <NoteOff Channel="3" Note="39" Velocity="0"/>
  </Event>
  <Event>
    <Absolute>16896</Absolute>
    <NoteOn Channel="3" Note="37" Velocity="70"/>
  </Event>
  <Event>
    <Absolute>19584</Absolute>
    <NoteOff Channel="3" Note="37" Velocity="0"/>
  </Event>
  <Event>
    <Absolute>19968</Absolute>
    <NoteOn Channel="3" Note="35" Velocity="70"/>
  </Event>
  <Event>
    <Absolute>22656</Absolute>
    <NoteOff Channel="3" Note="35" Velocity="0"/>
  </Event>
  <Event>
    <Absolute>23040</Absolute>
    <NoteOn Channel="3" Note="34" Velocity="70"/>
  </Event>
  <Event>
    <Absolute>25920</Absolute>
    <NoteOff Channel="3" Note="34" Velocity="0"/>
  </Event>
  <Event>
    <Absolute>25984</Absolute>
    <ControlChange Channel="3" Control="91" Value="1"/>
  </Event>
  <Event>
    <Absolute>26112</Absolute>
    <NoteOn Channel="3" Note="30" Velocity="126"/>
  </Event>
  <Event>
    <Absolute>26296</Absolute>
    <NoteOff Channel="3" Note="30" Velocity="0"/>
  </Event>
  <Event>
    <Absolute>26496</Absolute>
    <NoteOn Channel="3" Note="42" Velocity="126"/>
  </Event>
  <Event>
    <Absolute>26688</Absolute>
    <NoteOff Channel="3" Note="42" Velocity="0"/>
  </Event>
  <Event>
    <Absolute>26880</Absolute>
    <NoteOn Channel="3" Note="40" Velocity="126"/>
  </Event>
  <Event>
    <Absolute>27072</Absolute>
    <NoteOff Channel="3" Note="40" Velocity="0"/>
  </Event>
  <Event>
    <Absolute>27264</Absolute>
    <NoteOn Channel="3" Note="39" Velocity="126"/>
  </Event>
  <Event>
    <Absolute>27456</Absolute>
    <NoteOff Channel="3" Note="39" Velocity="0"/>
  </Event>
  <Event>
    <Absolute>27648</Absolute>
    <NoteOn Channel="3" Note="30" Velocity="126"/>
  </Event>
  <Event>
    <Absolute>27840</Absolute>
    <NoteOff Channel="3" Note="30" Velocity="0"/>
  </Event>
  <Event>
    <Absolute>28032</Absolute>
    <NoteOn Channel="3" Note="32" Velocity="126"/>
  </Event>
  <Event>
    <Absolute>28224</Absolute>
    <NoteOff Channel="3" Note="32" Velocity="0"/>
  </Event>
  <Event>
    <Absolute>28416</Absolute>
    <NoteOn Channel="3" Note="34" Velocity="126"/>
  </Event>
  <Event>
    <Absolute>28608</Absolute>
    <NoteOff Channel="3" Note="34" Velocity="0"/>
  </Event>
  <Event>
    <Absolute>28800</Absolute>
    <NoteOn Channel="3" Note="37" Velocity="126"/>
  </Event>
  <Event>
    <Absolute>28992</Absolute>
    <NoteOff Channel="3" Note="37" Velocity="0"/>
  </Event>
  <Event>
    <Absolute>29568</Absolute>
    <NoteOn Channel="3" Note="42" Velocity="126"/>
  </Event>
  <Event>
    <Absolute>29760</Absolute>
    <NoteOff Channel="3" Note="42" Velocity="0"/>
  </Event>
  <Event>
    <Absolute>29952</Absolute>
    <NoteOn Channel="3" Note="40" Velocity="126"/>
  </Event>
  <Event>
    <Absolute>30144</Absolute>
    <NoteOff Channel="3" Note="40" Velocity="0"/>
  </Event>
  <Event>
    <Absolute>30336</Absolute>
    <NoteOn Channel="3" Note="39" Velocity="126"/>
  </Event>
  <Event>
    <Absolute>30528</Absolute>
    <NoteOff Channel="3" Note="39" Velocity="0"/>
  </Event>
  <Event>
    <Absolute>30720</Absolute>
    <NoteOn Channel="3" Note="30" Velocity="126"/>
  </Event>
  <Event>
    <Absolute>30912</Absolute>
    <NoteOff Channel="3" Note="30" Velocity="0"/>
  </Event>
  <Event>
    <Absolute>31104</Absolute>
    <NoteOn Channel="3" Note="32" Velocity="126"/>
  </Event>
  <Event>
    <Absolute>31296</Absolute>
    <NoteOff Channel="3" Note="32" Velocity="0"/>
  </Event>
  <Event>
    <Absolute>31488</Absolute>
    <NoteOn Channel="3" Note="34" Velocity="126"/>
  </Event>
  <Event>
    <Absolute>31680</Absolute>
    <NoteOff Channel="3" Note="34" Velocity="0"/>
  </Event>
  <Event>
    <Absolute>31872</Absolute>
    <NoteOn Channel="3" Note="37" Velocity="126"/>
  </Event>
  <Event>
    <Absolute>32064</Absolute>
    <NoteOff Channel="3" Note="37" Velocity="0"/>
  </Event>
  <Event>
    <Absolute>32640</Absolute>
    <NoteOn Channel="3" Note="42" Velocity="126"/>
  </Event>
  <Event>
    <Absolute>32832</Absolute>
    <NoteOff Channel="3" Note="42" Velocity="0"/>
  </Event>
  <Event>
    <Absolute>33024</Absolute>
    <NoteOn Channel="3" Note="40" Velocity="126"/>
  </Event>
  <Event>
    <Absolute>33216</Absolute>
    <NoteOff Channel="3" Note="40" Velocity="0"/>
  </Event>
  <Event>
    <Absolute>33408</Absolute>
    <NoteOn Channel="3" Note="39" Velocity="126"/>
  </Event>
  <Event>
    <Absolute>33600</Absolute>
    <NoteOff Channel="3" Note="39" Velocity="0"/>
  </Event>
  <Event>
    <Absolute>33792</Absolute>
    <NoteOn Channel="3" Note="30" Velocity="126"/>
  </Event>
  <Event>
    <Absolute>33984</Absolute>
    <NoteOff Channel="3" Note="30" Velocity="0"/>
  </Event>
  <Event>
    <Absolute>34176</Absolute>
    <NoteOn Channel="3" Note="32" Velocity="126"/>
  </Event>
  <Event>
    <Absolute>34368</Absolute>
    <NoteOff Channel="3" Note="32" Velocity="0"/>
  </Event>
  <Event>
    <Absolute>34560</Absolute>
    <NoteOn Channel="3" Note="34" Velocity="126"/>
  </Event>
  <Event>
    <Absolute>34752</Absolute>
    <NoteOff Channel="3" Note="34" Velocity="0"/>
  </Event>
  <Event>
    <Absolute>34944</Absolute>
    <NoteOn Channel="3" Note="37" Velocity="126"/>
  </Event>
  <Event>
    <Absolute>35136</Absolute>
    <NoteOff Channel="3" Note="37" Velocity="0"/>
  </Event>
  <Event>
    <Absolute>35712</Absolute>
    <NoteOn Channel="3" Note="42" Velocity="126"/>
  </Event>
  <Event>
    <Absolute>35904</Absolute>
    <NoteOff Channel="3" Note="42" Velocity="0"/>
  </Event>
  <Event>
    <Absolute>36096</Absolute>
    <NoteOn Channel="3" Note="40" Velocity="126"/>
  </Event>
  <Event>
    <Absolute>36288</Absolute>
    <NoteOff Channel="3" Note="40" Velocity="0"/>
  </Event>
  <Event>
    <Absolute>36480</Absolute>
    <NoteOn Channel="3" Note="39" Velocity="126"/>
  </Event>
  <Event>
    <Absolute>36672</Absolute>
    <NoteOff Channel="3" Note="39" Velocity="0"/>
  </Event>
  <Event>
    <Absolute>36864</Absolute>
    <NoteOn Channel="3" Note="30" Velocity="126"/>
  </Event>
  <Event>
    <Absolute>37056</Absolute>
    <NoteOff Channel="3" Note="30" Velocity="0"/>
  </Event>
  <Event>
    <Absolute>37248</Absolute>
    <NoteOn Channel="3" Note="32" Velocity="126"/>
  </Event>
  <Event>
    <Absolute>37440</Absolute>
    <NoteOff Channel="3" Note="32" Velocity="0"/>
  </Event>
  <Event>
    <Absolute>37632</Absolute>
    <NoteOn Channel="3" Note="34" Velocity="126"/>
  </Event>
  <Event>
    <Absolute>37824</Absolute>
    <NoteOff Channel="3" Note="34" Velocity="0"/>
  </Event>
  <Event>
    <Absolute>38016</Absolute>
    <NoteOn Channel="3" Note="37" Velocity="126"/>
  </Event>
  <Event>
    <Absolute>38208</Absolute>
    <NoteOff Channel="3" Note="37" Velocity="0"/>
  </Event>
  <Event>
    <Absolute>38784</Absolute>
    <NoteOn Channel="3" Note="44" Velocity="126"/>
  </Event>
  <Event>
    <Absolute>38976</Absolute>
    <NoteOff Channel="3" Note="44" Velocity="0"/>
  </Event>
  <Event>
    <Absolute>39168</Absolute>
    <NoteOn Channel="3" Note="42" Velocity="126"/>
  </Event>
  <Event>
    <Absolute>39360</Absolute>
    <NoteOff Channel="3" Note="42" Velocity="0"/>
  </Event>
  <Event>
    <Absolute>39552</Absolute>
    <NoteOn Channel="3" Note="41" Velocity="126"/>
  </Event>
  <Event>
    <Absolute>39744</Absolute>
    <NoteOff Channel="3" Note="41" Velocity="0"/>
  </Event>
  <Event>
    <Absolute>39936</Absolute>
    <NoteOn Channel="3" Note="32" Velocity="126"/>
  </Event>
  <Event>
    <Absolute>40128</Absolute>
    <NoteOff Channel="3" Note="32" Velocity="0"/>
  </Event>
  <Event>
    <Absolute>40320</Absolute>
    <NoteOn Channel="3" Note="34" Velocity="126"/>
  </Event>
  <Event>
    <Absolute>40512</Absolute>
    <NoteOff Channel="3" Note="34" Velocity="0"/>
  </Event>
  <Event>
    <Absolute>40704</Absolute>
    <NoteOn Channel="3" Note="36" Velocity="126"/>
  </Event>
  <Event>
    <Absolute>40896</Absolute>
    <NoteOff Channel="3" Note="36" Velocity="0"/>
  </Event>
  <Event>
    <Absolute>41088</Absolute>
    <NoteOn Channel="3" Note="39" Velocity="126"/>
  </Event>
  <Event>
    <Absolute>41280</Absolute>
    <NoteOff Channel="3" Note="39" Velocity="0"/>
  </Event>
  <Event>
    <Absolute>41856</Absolute>
    <NoteOn Channel="3" Note="44" Velocity="126"/>
  </Event>
  <Event>
    <Absolute>42048</Absolute>
    <NoteOff Channel="3" Note="44" Velocity="0"/>
  </Event>
  <Event>
    <Absolute>42240</Absolute>
    <NoteOn Channel="3" Note="42" Velocity="126"/>
  </Event>
  <Event>
    <Absolute>42432</Absolute>
    <NoteOff Channel="3" Note="42" Velocity="0"/>
  </Event>
  <Event>
    <Absolute>42624</Absolute>
    <NoteOn Channel="3" Note="41" Velocity="126"/>
  </Event>
  <Event>
    <Absolute>42816</Absolute>
    <NoteOff Channel="3" Note="41" Velocity="0"/>
  </Event>
  <Event>
    <Absolute>43008</Absolute>
    <NoteOn Channel="3" Note="32" Velocity="126"/>
  </Event>
  <Event>
    <Absolute>43200</Absolute>
    <NoteOff Channel="3" Note="32" Velocity="0"/>
  </Event>
  <Event>
    <Absolute>43392</Absolute>
    <NoteOn Channel="3" Note="34" Velocity="126"/>
  </Event>
  <Event>
    <Absolute>43584</Absolute>
    <NoteOff Channel="3" Note="34" Velocity="0"/>
  </Event>
  <Event>
    <Absolute>43776</Absolute>
    <NoteOn Channel="3" Note="36" Velocity="126"/>
  </Event>
  <Event>
    <Absolute>43968</Absolute>
    <NoteOff Channel="3" Note="36" Velocity="0"/>
  </Event>
  <Event>
    <Absolute>44160</Absolute>
    <NoteOn Channel="3" Note="39" Velocity="126"/>
  </Event>
  <Event>
    <Absolute>44352</Absolute>
    <NoteOff Channel="3" Note="39" Velocity="0"/>
  </Event>
  <Event>
    <Absolute>44928</Absolute>
    <NoteOn Channel="3" Note="46" Velocity="126"/>
  </Event>
  <Event>
    <Absolute>45120</Absolute>
    <NoteOff Channel="3" Note="46" Velocity="0"/>
  </Event>
  <Event>
    <Absolute>45312</Absolute>
    <NoteOn Channel="3" Note="44" Velocity="126"/>
  </Event>
  <Event>
    <Absolute>45504</Absolute>
    <NoteOff Channel="3" Note="44" Velocity="0"/>
  </Event>
  <Event>
    <Absolute>45696</Absolute>
    <NoteOn Channel="3" Note="43" Velocity="126"/>
  </Event>
  <Event>
    <Absolute>45888</Absolute>
    <NoteOff Channel="3" Note="43" Velocity="0"/>
  </Event>
  <Event>
    <Absolute>46080</Absolute>
    <NoteOn Channel="3" Note="34" Velocity="126"/>
  </Event>
  <Event>
    <Absolute>46272</Absolute>
    <NoteOff Channel="3" Note="34" Velocity="0"/>
  </Event>
  <Event>
    <Absolute>46464</Absolute>
    <NoteOn Channel="3" Note="36" Velocity="126"/>
  </Event>
  <Event>
    <Absolute>46656</Absolute>
    <NoteOff Channel="3" Note="36" Velocity="0"/>
  </Event>
  <Event>
    <Absolute>46848</Absolute>
    <NoteOn Channel="3" Note="38" Velocity="126"/>
  </Event>
  <Event>
    <Absolute>47040</Absolute>
    <NoteOff Channel="3" Note="38" Velocity="0"/>
  </Event>
  <Event>
    <Absolute>47232</Absolute>
    <NoteOn Channel="3" Note="41" Velocity="126"/>
  </Event>
  <Event>
    <Absolute>47424</Absolute>
    <NoteOff Channel="3" Note="41" Velocity="0"/>
  </Event>
  <Event>
    <Absolute>48000</Absolute>
    <NoteOn Channel="3" Note="46" Velocity="126"/>
  </Event>
  <Event>
    <Absolute>48192</Absolute>
    <NoteOff Channel="3" Note="46" Velocity="0"/>
  </Event>
  <Event>
    <Absolute>48384</Absolute>
    <NoteOn Channel="3" Note="44" Velocity="126"/>
  </Event>
  <Event>
    <Absolute>48576</Absolute>
    <NoteOff Channel="3" Note="44" Velocity="0"/>
  </Event>
  <Event>
    <Absolute>48768</Absolute>
    <NoteOn Channel="3" Note="43" Velocity="126"/>
  </Event>
  <Event>
    <Absolute>48960</Absolute>
    <NoteOff Channel="3" Note="43" Velocity="0"/>
  </Event>
  <Event>
    <Absolute>49152</Absolute>
    <NoteOn Channel="3" Note="34" Velocity="126"/>
  </Event>
  <Event>
    <Absolute>49344</Absolute>
    <NoteOff Channel="3" Note="34" Velocity="0"/>
  </Event>
  <Event>
    <Absolute>49536</Absolute>
    <NoteOn Channel="3" Note="36" Velocity="126"/>
  </Event>
  <Event>
    <Absolute>49728</Absolute>
    <NoteOff Channel="3" Note="36" Velocity="0"/>
  </Event>
  <Event>
    <Absolute>49920</Absolute>
    <NoteOn Channel="3" Note="38" Velocity="126"/>
  </Event>
  <Event>
    <Absolute>50112</Absolute>
    <NoteOff Channel="3" Note="38" Velocity="0"/>
  </Event>
  <Event>
    <Absolute>50304</Absolute>
    <NoteOn Channel="3" Note="41" Velocity="126"/>
  </Event>
  <Event>
    <Absolute>50496</Absolute>
    <NoteOff Channel="3" Note="41" Velocity="0"/>
  </Event>
  <Event>
    <Absolute>62976</Absolute>
    <NoteOn Channel="3" Note="39" Velocity="70"/>
  </Event>
  <Event>
    <Absolute>65664</Absolute>
    <NoteOff Channel="3" Note="39" Velocity="0"/>
  </Event>
  <Event>
    <Absolute>66048</Absolute>
    <NoteOn Channel="3" Note="37" Velocity="70"/>
  </Event>
  <Event>
    <Absolute>68736</Absolute>
    <NoteOff Channel="3" Note="37" Velocity="0"/>
  </Event>
  <Event>
    <Absolute>69120</Absolute>
    <NoteOn Channel="3" Note="35" Velocity="70"/>
  </Event>
  <Event>
    <Absolute>71808</Absolute>
    <NoteOff Channel="3" Note="35" Velocity="0"/>
  </Event>
  <Event>
    <Absolute>72192</Absolute>
    <NoteOn Channel="3" Note="34" Velocity="70"/>
  </Event>
  <Event>
    <Absolute>75072</Absolute>
    <NoteOff Channel="3" Note="34" Velocity="0"/>
  </Event>
  <Event>
    <Absolute>75264</Absolute>
    <NoteOn Channel="3" Note="30" Velocity="126"/>
  </Event>
  <Event>
    <Absolute>75448</Absolute>
    <NoteOff Channel="3" Note="30" Velocity="0"/>
  </Event>
  <Event>
    <Absolute>75648</Absolute>
    <NoteOn Channel="3" Note="42" Velocity="126"/>
  </Event>
  <Event>
    <Absolute>75840</Absolute>
    <NoteOff Channel="3" Note="42" Velocity="0"/>
  </Event>
  <Event>
    <Absolute>76032</Absolute>
    <NoteOn Channel="3" Note="40" Velocity="126"/>
  </Event>
  <Event>
    <Absolute>76224</Absolute>
    <NoteOff Channel="3" Note="40" Velocity="0"/>
  </Event>
  <Event>
    <Absolute>76416</Absolute>
    <NoteOn Channel="3" Note="39" Velocity="126"/>
  </Event>
  <Event>
    <Absolute>76608</Absolute>
    <NoteOff Channel="3" Note="39" Velocity="0"/>
  </Event>
  <Event>
    <Absolute>76800</Absolute>
    <NoteOn Channel="3" Note="30" Velocity="126"/>
  </Event>
  <Event>
    <Absolute>76992</Absolute>
    <NoteOff Channel="3" Note="30" Velocity="0"/>
  </Event>
  <Event>
    <Absolute>77184</Absolute>
    <NoteOn Channel="3" Note="32" Velocity="126"/>
  </Event>
  <Event>
    <Absolute>77376</Absolute>
    <NoteOff Channel="3" Note="32" Velocity="0"/>
  </Event>
  <Event>
    <Absolute>77568</Absolute>
    <NoteOn Channel="3" Note="34" Velocity="126"/>
  </Event>
  <Event>
    <Absolute>77760</Absolute>
    <NoteOff Channel="3" Note="34" Velocity="0"/>
  </Event>
  <Event>
    <Absolute>77952</Absolute>
    <NoteOn Channel="3" Note="37" Velocity="126"/>
  </Event>
  <Event>
    <Absolute>78144</Absolute>
    <NoteOff Channel="3" Note="37" Velocity="0"/>
  </Event>
  <Event>
    <Absolute>78720</Absolute>
    <NoteOn Channel="3" Note="42" Velocity="126"/>
  </Event>
  <Event>
    <Absolute>78912</Absolute>
    <NoteOff Channel="3" Note="42" Velocity="0"/>
  </Event>
  <Event>
    <Absolute>79104</Absolute>
    <NoteOn Channel="3" Note="40" Velocity="126"/>
  </Event>
  <Event>
    <Absolute>79296</Absolute>
    <NoteOff Channel="3" Note="40" Velocity="0"/>
  </Event>
  <Event>
    <Absolute>79488</Absolute>
    <NoteOn Channel="3" Note="39" Velocity="126"/>
  </Event>
  <Event>
    <Absolute>79680</Absolute>
    <NoteOff Channel="3" Note="39" Velocity="0"/>
  </Event>
  <Event>
    <Absolute>79872</Absolute>
    <NoteOn Channel="3" Note="30" Velocity="126"/>
  </Event>
  <Event>
    <Absolute>80064</Absolute>
    <NoteOff Channel="3" Note="30" Velocity="0"/>
  </Event>
  <Event>
    <Absolute>80256</Absolute>
    <NoteOn Channel="3" Note="32" Velocity="126"/>
  </Event>
  <Event>
    <Absolute>80448</Absolute>
    <NoteOff Channel="3" Note="32" Velocity="0"/>
  </Event>
  <Event>
    <Absolute>80640</Absolute>
    <NoteOn Channel="3" Note="34" Velocity="126"/>
  </Event>
  <Event>
    <Absolute>80832</Absolute>
    <NoteOff Channel="3" Note="34" Velocity="0"/>
  </Event>
  <Event>
    <Absolute>81024</Absolute>
    <NoteOn Channel="3" Note="37" Velocity="126"/>
  </Event>
  <Event>
    <Absolute>81216</Absolute>
    <NoteOff Channel="3" Note="37" Velocity="0"/>
  </Event>
  <Event>
    <Absolute>81792</Absolute>
    <NoteOn Channel="3" Note="42" Velocity="126"/>
  </Event>
  <Event>
    <Absolute>81984</Absolute>
    <NoteOff Channel="3" Note="42" Velocity="0"/>
  </Event>
  <Event>
    <Absolute>82176</Absolute>
    <NoteOn Channel="3" Note="40" Velocity="126"/>
  </Event>
  <Event>
    <Absolute>82368</Absolute>
    <NoteOff Channel="3" Note="40" Velocity="0"/>
  </Event>
  <Event>
    <Absolute>82560</Absolute>
    <NoteOn Channel="3" Note="39" Velocity="126"/>
  </Event>
  <Event>
    <Absolute>82752</Absolute>
    <NoteOff Channel="3" Note="39" Velocity="0"/>
  </Event>
  <Event>
    <Absolute>82944</Absolute>
    <NoteOn Channel="3" Note="30" Velocity="126"/>
  </Event>
  <Event>
    <Absolute>83136</Absolute>
    <NoteOff Channel="3" Note="30" Velocity="0"/>
  </Event>
  <Event>
    <Absolute>83328</Absolute>
    <NoteOn Channel="3" Note="32" Velocity="126"/>
  </Event>
  <Event>
    <Absolute>83520</Absolute>
    <NoteOff Channel="3" Note="32" Velocity="0"/>
  </Event>
  <Event>
    <Absolute>83712</Absolute>
    <NoteOn Channel="3" Note="34" Velocity="126"/>
  </Event>
  <Event>
    <Absolute>83904</Absolute>
    <NoteOff Channel="3" Note="34" Velocity="0"/>
  </Event>
  <Event>
    <Absolute>84096</Absolute>
    <NoteOn Channel="3" Note="37" Velocity="126"/>
  </Event>
  <Event>
    <Absolute>84288</Absolute>
    <NoteOff Channel="3" Note="37" Velocity="0"/>
  </Event>
  <Event>
    <Absolute>84864</Absolute>
    <NoteOn Channel="3" Note="42" Velocity="126"/>
  </Event>
  <Event>
    <Absolute>85056</Absolute>
    <NoteOff Channel="3" Note="42" Velocity="0"/>
  </Event>
  <Event>
    <Absolute>85248</Absolute>
    <NoteOn Channel="3" Note="40" Velocity="126"/>
  </Event>
  <Event>
    <Absolute>85440</Absolute>
    <NoteOff Channel="3" Note="40" Velocity="0"/>
  </Event>
  <Event>
    <Absolute>85632</Absolute>
    <NoteOn Channel="3" Note="39" Velocity="126"/>
  </Event>
  <Event>
    <Absolute>85824</Absolute>
    <NoteOff Channel="3" Note="39" Velocity="0"/>
  </Event>
  <Event>
    <Absolute>86016</Absolute>
    <NoteOn Channel="3" Note="30" Velocity="126"/>
  </Event>
  <Event>
    <Absolute>86208</Absolute>
    <NoteOff Channel="3" Note="30" Velocity="0"/>
  </Event>
  <Event>
    <Absolute>86400</Absolute>
    <NoteOn Channel="3" Note="32" Velocity="126"/>
  </Event>
  <Event>
    <Absolute>86592</Absolute>
    <NoteOff Channel="3" Note="32" Velocity="0"/>
  </Event>
  <Event>
    <Absolute>86784</Absolute>
    <NoteOn Channel="3" Note="34" Velocity="126"/>
  </Event>
  <Event>
    <Absolute>86976</Absolute>
    <NoteOff Channel="3" Note="34" Velocity="0"/>
  </Event>
  <Event>
    <Absolute>87168</Absolute>
    <NoteOn Channel="3" Note="37" Velocity="126"/>
  </Event>
  <Event>
    <Absolute>87360</Absolute>
    <NoteOff Channel="3" Note="37" Velocity="0"/>
  </Event>
  <Event>
    <Absolute>87936</Absolute>
    <NoteOn Channel="3" Note="44" Velocity="126"/>
  </Event>
  <Event>
    <Absolute>88128</Absolute>
    <NoteOff Channel="3" Note="44" Velocity="0"/>
  </Event>
  <Event>
    <Absolute>88320</Absolute>
    <NoteOn Channel="3" Note="42" Velocity="126"/>
  </Event>
  <Event>
    <Absolute>88512</Absolute>
    <NoteOff Channel="3" Note="42" Velocity="0"/>
  </Event>
  <Event>
    <Absolute>88704</Absolute>
    <NoteOn Channel="3" Note="41" Velocity="126"/>
  </Event>
  <Event>
    <Absolute>88896</Absolute>
    <NoteOff Channel="3" Note="41" Velocity="0"/>
  </Event>
  <Event>
    <Absolute>89088</Absolute>
    <NoteOn Channel="3" Note="32" Velocity="126"/>
  </Event>
  <Event>
    <Absolute>89280</Absolute>
    <NoteOff Channel="3" Note="32" Velocity="0"/>
  </Event>
  <Event>
    <Absolute>89472</Absolute>
    <NoteOn Channel="3" Note="34" Velocity="126"/>
  </Event>
  <Event>
    <Absolute>89664</Absolute>
    <NoteOff Channel="3" Note="34" Velocity="0"/>
  </Event>
  <Event>
    <Absolute>89856</Absolute>
    <NoteOn Channel="3" Note="36" Velocity="126"/>
  </Event>
  <Event>
    <Absolute>90048</Absolute>
    <NoteOff Channel="3" Note="36" Velocity="0"/>
  </Event>
  <Event>
    <Absolute>90240</Absolute>
    <NoteOn Channel="3" Note="39" Velocity="126"/>
  </Event>
  <Event>
    <Absolute>90432</Absolute>
    <NoteOff Channel="3" Note="39" Velocity="0"/>
  </Event>
  <Event>
    <Absolute>91008</Absolute>
    <NoteOn Channel="3" Note="44" Velocity="126"/>
  </Event>
  <Event>
    <Absolute>91200</Absolute>
    <NoteOff Channel="3" Note="44" Velocity="0"/>
  </Event>
  <Event>
    <Absolute>91392</Absolute>
    <NoteOn Channel="3" Note="42" Velocity="126"/>
  </Event>
  <Event>
    <Absolute>91584</Absolute>
    <NoteOff Channel="3" Note="42" Velocity="0"/>
  </Event>
  <Event>
    <Absolute>91776</Absolute>
    <NoteOn Channel="3" Note="41" Velocity="126"/>
  </Event>
  <Event>
    <Absolute>91968</Absolute>
    <NoteOff Channel="3" Note="41" Velocity="0"/>
  </Event>
  <Event>
    <Absolute>92160</Absolute>
    <NoteOn Channel="3" Note="32" Velocity="126"/>
  </Event>
  <Event>
    <Absolute>92352</Absolute>
    <NoteOff Channel="3" Note="32" Velocity="0"/>
  </Event>
  <Event>
    <Absolute>92544</Absolute>
    <NoteOn Channel="3" Note="34" Velocity="126"/>
  </Event>
  <Event>
    <Absolute>92736</Absolute>
    <NoteOff Channel="3" Note="34" Velocity="0"/>
  </Event>
  <Event>
    <Absolute>92928</Absolute>
    <NoteOn Channel="3" Note="36" Velocity="126"/>
  </Event>
  <Event>
    <Absolute>93120</Absolute>
    <NoteOff Channel="3" Note="36" Velocity="0"/>
  </Event>
  <Event>
    <Absolute>93312</Absolute>
    <NoteOn Channel="3" Note="39" Velocity="126"/>
  </Event>
  <Event>
    <Absolute>93504</Absolute>
    <NoteOff Channel="3" Note="39" Velocity="0"/>
  </Event>
  <Event>
    <Absolute>94080</Absolute>
    <NoteOn Channel="3" Note="46" Velocity="126"/>
  </Event>
  <Event>
    <Absolute>94272</Absolute>
    <NoteOff Channel="3" Note="46" Velocity="0"/>
  </Event>
  <Event>
    <Absolute>94464</Absolute>
    <NoteOn Channel="3" Note="44" Velocity="126"/>
  </Event>
  <Event>
    <Absolute>94656</Absolute>
    <NoteOff Channel="3" Note="44" Velocity="0"/>
  </Event>
  <Event>
    <Absolute>94848</Absolute>
    <NoteOn Channel="3" Note="43" Velocity="126"/>
  </Event>
  <Event>
    <Absolute>95040</Absolute>
    <NoteOff Channel="3" Note="43" Velocity="0"/>
  </Event>
  <Event>
    <Absolute>95232</Absolute>
    <NoteOn Channel="3" Note="34" Velocity="126"/>
  </Event>
  <Event>
    <Absolute>95424</Absolute>
    <NoteOff Channel="3" Note="34" Velocity="0"/>
  </Event>
  <Event>
    <Absolute>95616</Absolute>
    <NoteOn Channel="3" Note="36" Velocity="126"/>
  </Event>
  <Event>
    <Absolute>95808</Absolute>
    <NoteOff Channel="3" Note="36" Velocity="0"/>
  </Event>
  <Event>
    <Absolute>96000</Absolute>
    <NoteOn Channel="3" Note="38" Velocity="126"/>
  </Event>
  <Event>
    <Absolute>96192</Absolute>
    <NoteOff Channel="3" Note="38" Velocity="0"/>
  </Event>
  <Event>
    <Absolute>96384</Absolute>
    <NoteOn Channel="3" Note="41" Velocity="126"/>
  </Event>
  <Event>
    <Absolute>96576</Absolute>
    <NoteOff Channel="3" Note="41" Velocity="0"/>
  </Event>
  <Event>
    <Absolute>97152</Absolute>
    <NoteOn Channel="3" Note="46" Velocity="126"/>
  </Event>
  <Event>
    <Absolute>97344</Absolute>
    <NoteOff Channel="3" Note="46" Velocity="0"/>
  </Event>
  <Event>
    <Absolute>97536</Absolute>
    <NoteOn Channel="3" Note="44" Velocity="126"/>
  </Event>
  <Event>
    <Absolute>97728</Absolute>
    <NoteOff Channel="3" Note="44" Velocity="0"/>
  </Event>
  <Event>
    <Absolute>97920</Absolute>
    <NoteOn Channel="3" Note="43" Velocity="126"/>
  </Event>
  <Event>
    <Absolute>98112</Absolute>
    <NoteOff Channel="3" Note="43" Velocity="0"/>
  </Event>
  <Event>
    <Absolute>98304</Absolute>
    <NoteOn Channel="3" Note="34" Velocity="126"/>
  </Event>
  <Event>
    <Absolute>98496</Absolute>
    <NoteOff Channel="3" Note="34" Velocity="0"/>
  </Event>
  <Event>
    <Absolute>98688</Absolute>
    <NoteOn Channel="3" Note="36" Velocity="126"/>
  </Event>
  <Event>
    <Absolute>98880</Absolute>
    <NoteOff Channel="3" Note="36" Velocity="0"/>
  </Event>
  <Event>
    <Absolute>99072</Absolute>
    <NoteOn Channel="3" Note="38" Velocity="126"/>
  </Event>
  <Event>
    <Absolute>99264</Absolute>
    <NoteOff Channel="3" Note="38" Velocity="0"/>
  </Event>
  <Event>
    <Absolute>99456</Absolute>
    <NoteOn Channel="3" Note="41" Velocity="126"/>
  </Event>
  <Event>
    <Absolute>99648</Absolute>
    <NoteOff Channel="3" Note="41" Velocity="0"/>
  </Event>
  <Event>
    <Absolute>99832</Absolute>
    <NoteOn Channel="3" Note="46" Velocity="126"/>
  </Event>
  <Event>
    <Absolute>99840</Absolute>
    <NoteOn Channel="3" Note="34" Velocity="127"/>
  </Event>
  <Event>
    <Absolute>100224</Absolute>
    <NoteOff Channel="3" Note="34" Velocity="0"/>
  </Event>
  <Event>
    <Absolute>100608</Absolute>
    <NoteOn Channel="3" Note="34" Velocity="127"/>
  </Event>
  <Event>
    <Absolute>101020</Absolute>
    <NoteOff Channel="3" Note="34" Velocity="0"/>
  </Event>
  <Event>
    <Absolute>101376</Absolute>
    <NoteOn Channel="3" Note="34" Velocity="127"/>
  </Event>
  <Event>
    <Absolute>101804</Absolute>
    <NoteOff Channel="3" Note="34" Velocity="0"/>
  </Event>
  <Event>
    <Absolute>102144</Absolute>
    <NoteOn Channel="3" Note="34" Velocity="127"/>
  </Event>
  <Event>
    <Absolute>102572</Absolute>
    <NoteOff Channel="3" Note="34" Velocity="0"/>
  </Event>
  <Event>
    <Absolute>102912</Absolute>
    <NoteOn Channel="3" Note="34" Velocity="127"/>
  </Event>
  <Event>
    <Absolute>103328</Absolute>
    <NoteOff Channel="3" Note="34" Velocity="0"/>
  </Event>
  <Event>
    <Absolute>103680</Absolute>
    <NoteOn Channel="3" Note="34" Velocity="127"/>
  </Event>
  <Event>
    <Absolute>104060</Absolute>
    <NoteOff Channel="3" Note="46" Velocity="0"/>
  </Event>
  <Event>
    <Absolute>104080</Absolute>
    <NoteOff Channel="3" Note="34" Velocity="0"/>
  </Event>
  <Event>
    <Absolute>104448</Absolute>
    <NoteOn Channel="3" Note="34" Velocity="127"/>
  </Event>
  <Event>
    <Absolute>104860</Absolute>
    <NoteOff Channel="3" Note="34" Velocity="0"/>
  </Event>
  <Event>
    <Absolute>105216</Absolute>
    <NoteOn Channel="3" Note="34" Velocity="127"/>
  </Event>
  <Event>
    <Absolute>105592</Absolute>
    <NoteOff Channel="3" Note="34" Velocity="0"/>
  </Event>
  <Event>
    <Absolute>105984</Absolute>
    <NoteOn Channel="3" Note="34" Velocity="127"/>
  </Event>
  <Event>
    <Absolute>106340</Absolute>
    <NoteOff Channel="3" Note="34" Velocity="0"/>
  </Event>
  <Event>
    <Absolute>106752</Absolute>
    <NoteOn Channel="3" Note="34" Velocity="127"/>
  </Event>
  <Event>
    <Absolute>107164</Absolute>
    <NoteOff Channel="3" Note="34" Velocity="0"/>
  </Event>
  <Event>
    <Absolute>107520</Absolute>
    <NoteOn Channel="3" Note="34" Velocity="127"/>
  </Event>
  <Event>
    <Absolute>107948</Absolute>
    <NoteOff Channel="3" Note="34" Velocity="0"/>
  </Event>
  <Event>
    <Absolute>108288</Absolute>
    <NoteOn Channel="3" Note="34" Velocity="127"/>
  </Event>
  <Event>
    <Absolute>108716</Absolute>
    <NoteOff Channel="3" Note="34" Velocity="0"/>
  </Event>
  <Event>
    <Absolute>109056</Absolute>
    <NoteOn Channel="3" Note="34" Velocity="127"/>
  </Event>
  <Event>
    <Absolute>109472</Absolute>
    <NoteOff Channel="3" Note="34" Velocity="0"/>
  </Event>
  <Event>
    <Absolute>109824</Absolute>
    <NoteOn Channel="3" Note="34" Velocity="127"/>
  </Event>
  <Event>
    <Absolute>110224</Absolute>
    <NoteOff Channel="3" Note="34" Velocity="0"/>
  </Event>
  <Event>
    <Absolute>110592</Absolute>
    <NoteOn Channel="3" Note="34" Velocity="127"/>
  </Event>
  <Event>
    <Absolute>111004</Absolute>
    <NoteOff Channel="3" Note="34" Velocity="0"/>
  </Event>
  <Event>
    <Absolute>111360</Absolute>
    <NoteOn Channel="3" Note="34" Velocity="127"/>
  </Event>
  <Event>
    <Absolute>111736</Absolute>
    <NoteOff Channel="3" Note="34" Velocity="0"/>
  </Event>
  <Event>
    <Absolute>112128</Absolute>
    <NoteOn Channel="3" Note="34" Velocity="127"/>
  </Event>
  <Event>
    <Absolute>112484</Absolute>
    <NoteOff Channel="3" Note="34" Velocity="0"/>
  </Event>
  <Event>
    <Absolute>112896</Absolute>
    <NoteOn Channel="3" Note="34" Velocity="127"/>
  </Event>
  <Event>
    <Absolute>113308</Absolute>
    <NoteOff Channel="3" Note="34" Velocity="0"/>
  </Event>
  <Event>
    <Absolute>113664</Absolute>
    <NoteOn Channel="3" Note="34" Velocity="127"/>
  </Event>
  <Event>
    <Absolute>114092</Absolute>
    <NoteOff Channel="3" Note="34" Velocity="0"/>
  </Event>
  <Event>
    <Absolute>114432</Absolute>
    <NoteOn Channel="3" Note="34" Velocity="127"/>
  </Event>
  <Event>
    <Absolute>114860</Absolute>
    <NoteOff Channel="3" Note="34" Velocity="0"/>
  </Event>
  <Event>
    <Absolute>115200</Absolute>
    <NoteOn Channel="3" Note="34" Velocity="127"/>
  </Event>
  <Event>
    <Absolute>115616</Absolute>
    <NoteOff Channel="3" Note="34" Velocity="0"/>
  </Event>
  <Event>
    <Absolute>115968</Absolute>
    <NoteOn Channel="3" Note="34" Velocity="127"/>
  </Event>
  <Event>
    <Absolute>116368</Absolute>
    <NoteOff Channel="3" Note="34" Velocity="0"/>
  </Event>
  <Event>
    <Absolute>116736</Absolute>
    <NoteOn Channel="3" Note="34" Velocity="127"/>
  </Event>
  <Event>
    <Absolute>117148</Absolute>
    <NoteOff Channel="3" Note="34" Velocity="0"/>
  </Event>
  <Event>
    <Absolute>117504</Absolute>
    <NoteOn Channel="3" Note="34" Velocity="127"/>
  </Event>
  <Event>
    <Absolute>117880</Absolute>
    <NoteOff Channel="3" Note="34" Velocity="0"/>
  </Event>
  <Event>
    <Absolute>118272</Absolute>
    <NoteOn Channel="3" Note="39" Velocity="97"/>
  </Event>
  <Event>
    <Absolute>118848</Absolute>
    <NoteOff Channel="3" Note="39" Velocity="0"/>
  </Event>
  <Event>
    <Absolute>119040</Absolute>
    <NoteOn Channel="3" Note="39" Velocity="97"/>
  </Event>
  <Event>
    <Absolute>119616</Absolute>
    <NoteOff Channel="3" Note="39" Velocity="0"/>
  </Event>
  <Event>
    <Absolute>119808</Absolute>
    <NoteOn Channel="3" Note="39" Velocity="97"/>
  </Event>
  <Event>
    <Absolute>120576</Absolute>
    <NoteOff Channel="3" Note="39" Velocity="0"/>
  </Event>
  <Event>
    <Absolute>120576</Absolute>
    <NoteOn Channel="3" Note="39" Velocity="97"/>
  </Event>
  <Event>
    <Absolute>121152</Absolute>
    <NoteOff Channel="3" Note="39" Velocity="0"/>
  </Event>
  <Event>
    <Absolute>121344</Absolute>
    <NoteOn Channel="3" Note="39" Velocity="97"/>
  </Event>
  <Event>
    <Absolute>121920</Absolute>
    <NoteOff Channel="3" Note="39" Velocity="0"/>
  </Event>
  <Event>
    <Absolute>122112</Absolute>
    <NoteOn Channel="3" Note="39" Velocity="97"/>
  </Event>
  <Event>
    <Absolute>122880</Absolute>
    <NoteOff Channel="3" Note="39" Velocity="0"/>
  </Event>
  <Event>
    <Absolute>122880</Absolute>
    <NoteOn Channel="3" Note="39" Velocity="97"/>
  </Event>
  <Event>
    <Absolute>123456</Absolute>
    <NoteOff Channel="3" Note="39" Velocity="0"/>
  </Event>
  <Event>
    <Absolute>123648</Absolute>
    <NoteOn Channel="3" Note="39" Velocity="97"/>
  </Event>
  <Event>
    <Absolute>124224</Absolute>
    <NoteOff Channel="3" Note="39" Velocity="0"/>
  </Event>
  <Event>
    <Absolute>124416</Absolute>
    <NoteOn Channel="3" Note="34" Velocity="97"/>
  </Event>
  <Event>
    <Absolute>125184</Absolute>
    <NoteOff Channel="3" Note="34" Velocity="0"/>
  </Event>
  <Event>
    <Absolute>125184</Absolute>
    <NoteOn Channel="3" Note="34" Velocity="97"/>
  </Event>
  <Event>
    <Absolute>125952</Absolute>
    <NoteOff Channel="3" Note="34" Velocity="0"/>
  </Event>
  <Event>
    <Absolute>125952</Absolute>
    <NoteOn Channel="3" Note="34" Velocity="97"/>
  </Event>
  <Event>
    <Absolute>126528</Absolute>
    <NoteOff Channel="3" Note="34" Velocity="0"/>
  </Event>
  <Event>
    <Absolute>126720</Absolute>
    <NoteOn Channel="3" Note="34" Velocity="97"/>
  </Event>
  <Event>
    <Absolute>127296</Absolute>
    <NoteOff Channel="3" Note="34" Velocity="0"/>
  </Event>
  <Event>
    <Absolute>127488</Absolute>
    <NoteOn Channel="3" Note="34" Velocity="97"/>
  </Event>
  <Event>
    <Absolute>128064</Absolute>
    <NoteOff Channel="3" Note="34" Velocity="0"/>
  </Event>
  <Event>
    <Absolute>128256</Absolute>
    <NoteOn Channel="3" Note="34" Velocity="97"/>
  </Event>
  <Event>
    <Absolute>128832</Absolute>
    <NoteOff Channel="3" Note="34" Velocity="0"/>
  </Event>
  <Event>
    <Absolute>129024</Absolute>
    <NoteOn Channel="3" Note="34" Velocity="97"/>
  </Event>
  <Event>
    <Absolute>129600</Absolute>
    <NoteOff Channel="3" Note="34" Velocity="0"/>
  </Event>
  <Event>
    <Absolute>129792</Absolute>
    <NoteOn Channel="3" Note="34" Velocity="97"/>
  </Event>
  <Event>
    <Absolute>130368</Absolute>
    <NoteOff Channel="3" Note="34" Velocity="0"/>
  </Event>
  <Event>
    <Absolute>142368</Absolute>
    <NoteOn Channel="3" Note="36" Velocity="101"/>
  </Event>
  <Event>
    <Absolute>142464</Absolute>
    <NoteOff Channel="3" Note="36" Velocity="0"/>
  </Event>
  <Event>
    <Absolute>142464</Absolute>
    <NoteOn Channel="3" Note="38" Velocity="101"/>
  </Event>
  <Event>
    <Absolute>142848</Absolute>
    <NoteOff Channel="3" Note="38" Velocity="0"/>
  </Event>
  <Event>
    <Absolute>142848</Absolute>
    <NoteOn Channel="3" Note="41" Velocity="101"/>
  </Event>
  <Event>
    <Absolute>143136</Absolute>
    <NoteOff Channel="3" Note="41" Velocity="0"/>
  </Event>
  <Event>
    <Absolute>143232</Absolute>
    <NoteOn Channel="3" Note="41" Velocity="101"/>
  </Event>
  <Event>
    <Absolute>143520</Absolute>
    <NoteOff Channel="3" Note="41" Velocity="0"/>
  </Event>
  <Event>
    <Absolute>143616</Absolute>
    <NoteOn Channel="3" Note="41" Velocity="101"/>
  </Event>
  <Event>
    <Absolute>143904</Absolute>
    <NoteOff Channel="3" Note="41" Velocity="0"/>
  </Event>
  <Event>
    <Absolute>144000</Absolute>
    <NoteOn Channel="3" Note="41" Velocity="101"/>
  </Event>
  <Event>
    <Absolute>144288</Absolute>
    <NoteOff Channel="3" Note="41" Velocity="0"/>
  </Event>
  <Event>
    <Absolute>144384</Absolute>
    <NoteOn Channel="3" Note="41" Velocity="101"/>
  </Event>
  <Event>
    <Absolute>144672</Absolute>
    <NoteOff Channel="3" Note="41" Velocity="0"/>
  </Event>
  <Event>
    <Absolute>144768</Absolute>
    <NoteOn Channel="3" Note="41" Velocity="101"/>
  </Event>
  <Event>
    <Absolute>145056</Absolute>
    <NoteOff Channel="3" Note="41" Velocity="0"/>
  </Event>
  <Event>
    <Absolute>145152</Absolute>
    <NoteOn Channel="3" Note="41" Velocity="101"/>
  </Event>
  <Event>
    <Absolute>145440</Absolute>
    <NoteOff Channel="3" Note="41" Velocity="0"/>
  </Event>
  <Event>
    <Absolute>145536</Absolute>
    <NoteOn Channel="3" Note="41" Velocity="101"/>
  </Event>
  <Event>
    <Absolute>145824</Absolute>
    <NoteOff Channel="3" Note="41" Velocity="0"/>
  </Event>
  <Event>
    <Absolute>145920</Absolute>
    <NoteOn Channel="3" Note="43" Velocity="101"/>
  </Event>
  <Event>
    <Absolute>146208</Absolute>
    <NoteOff Channel="3" Note="43" Velocity="0"/>
  </Event>
  <Event>
    <Absolute>146304</Absolute>
    <NoteOn Channel="3" Note="43" Velocity="101"/>
  </Event>
  <Event>
    <Absolute>146592</Absolute>
    <NoteOff Channel="3" Note="43" Velocity="0"/>
  </Event>
  <Event>
    <Absolute>146688</Absolute>
    <NoteOn Channel="3" Note="43" Velocity="101"/>
  </Event>
  <Event>
    <Absolute>146976</Absolute>
    <NoteOff Channel="3" Note="43" Velocity="0"/>
  </Event>
  <Event>
    <Absolute>147072</Absolute>
    <NoteOn Channel="3" Note="43" Velocity="101"/>
  </Event>
  <Event>
    <Absolute>147456</Absolute>
    <NoteOff Channel="3" Note="43" Velocity="0"/>
  </Event>
  <Event>
    <Absolute>147456</Absolute>
    <NoteOn Channel="3" Note="36" Velocity="101"/>
  </Event>
  <Event>
    <Absolute>147744</Absolute>
    <NoteOff Channel="3" Note="36" Velocity="0"/>
  </Event>
  <Event>
    <Absolute>147840</Absolute>
    <NoteOn Channel="3" Note="36" Velocity="101"/>
  </Event>
  <Event>
    <Absolute>148128</Absolute>
    <NoteOff Channel="3" Note="36" Velocity="0"/>
  </Event>
  <Event>
    <Absolute>148224</Absolute>
    <NoteOn Channel="3" Note="36" Velocity="101"/>
  </Event>
  <Event>
    <Absolute>148512</Absolute>
    <NoteOff Channel="3" Note="36" Velocity="0"/>
  </Event>
  <Event>
    <Absolute>148608</Absolute>
    <NoteOn Channel="3" Note="36" Velocity="101"/>
  </Event>
  <Event>
    <Absolute>148896</Absolute>
    <NoteOff Channel="3" Note="36" Velocity="0"/>
  </Event>
  <Event>
    <Absolute>148992</Absolute>
    <NoteOn Channel="3" Note="41" Velocity="101"/>
  </Event>
  <Event>
    <Absolute>149280</Absolute>
    <NoteOff Channel="3" Note="41" Velocity="0"/>
  </Event>
  <Event>
    <Absolute>149376</Absolute>
    <NoteOn Channel="3" Note="41" Velocity="101"/>
  </Event>
  <Event>
    <Absolute>149664</Absolute>
    <NoteOff Channel="3" Note="41" Velocity="0"/>
  </Event>
  <Event>
    <Absolute>149760</Absolute>
    <NoteOn Channel="3" Note="41" Velocity="101"/>
  </Event>
  <Event>
    <Absolute>150048</Absolute>
    <NoteOff Channel="3" Note="41" Velocity="0"/>
  </Event>
  <Event>
    <Absolute>150144</Absolute>
    <NoteOn Channel="3" Note="41" Velocity="101"/>
  </Event>
  <Event>
    <Absolute>150432</Absolute>
    <NoteOff Channel="3" Note="41" Velocity="0"/>
  </Event>
  <Event>
    <Absolute>150528</Absolute>
    <NoteOn Channel="3" Note="41" Velocity="101"/>
  </Event>
  <Event>
    <Absolute>150816</Absolute>
    <NoteOff Channel="3" Note="41" Velocity="0"/>
  </Event>
  <Event>
    <Absolute>150912</Absolute>
    <NoteOn Channel="3" Note="41" Velocity="101"/>
  </Event>
  <Event>
    <Absolute>151200</Absolute>
    <NoteOff Channel="3" Note="41" Velocity="0"/>
  </Event>
  <Event>
    <Absolute>151296</Absolute>
    <NoteOn Channel="3" Note="41" Velocity="101"/>
  </Event>
  <Event>
    <Absolute>151584</Absolute>
    <NoteOff Channel="3" Note="41" Velocity="0"/>
  </Event>
  <Event>
    <Absolute>151680</Absolute>
    <NoteOn Channel="3" Note="41" Velocity="101"/>
  </Event>
  <Event>
    <Absolute>151968</Absolute>
    <NoteOff Channel="3" Note="41" Velocity="0"/>
  </Event>
  <Event>
    <Absolute>152064</Absolute>
    <NoteOn Channel="3" Note="43" Velocity="101"/>
  </Event>
  <Event>
    <Absolute>152352</Absolute>
    <NoteOff Channel="3" Note="43" Velocity="0"/>
  </Event>
  <Event>
    <Absolute>152448</Absolute>
    <NoteOn Channel="3" Note="43" Velocity="101"/>
  </Event>
  <Event>
    <Absolute>152736</Absolute>
    <NoteOff Channel="3" Note="43" Velocity="0"/>
  </Event>
  <Event>
    <Absolute>152832</Absolute>
    <NoteOn Channel="3" Note="43" Velocity="101"/>
  </Event>
  <Event>
    <Absolute>153120</Absolute>
    <NoteOff Channel="3" Note="43" Velocity="0"/>
  </Event>
  <Event>
    <Absolute>153216</Absolute>
    <NoteOn Channel="3" Note="43" Velocity="101"/>
  </Event>
  <Event>
    <Absolute>153504</Absolute>
    <NoteOff Channel="3" Note="43" Velocity="0"/>
  </Event>
  <Event>
    <Absolute>153600</Absolute>
    <NoteOn Channel="3" Note="36" Velocity="101"/>
  </Event>
  <Event>
    <Absolute>153888</Absolute>
    <NoteOff Channel="3" Note="36" Velocity="0"/>
  </Event>
  <Event>
    <Absolute>153984</Absolute>
    <NoteOn Channel="3" Note="36" Velocity="101"/>
  </Event>
  <Event>
    <Absolute>154272</Absolute>
    <NoteOff Channel="3" Note="36" Velocity="0"/>
  </Event>
  <Event>
    <Absolute>154368</Absolute>
    <NoteOn Channel="3" Note="36" Velocity="101"/>
  </Event>
  <Event>
    <Absolute>154656</Absolute>
    <NoteOff Channel="3" Note="36" Velocity="0"/>
  </Event>
  <Event>
    <Absolute>154752</Absolute>
    <NoteOn Channel="3" Note="36" Velocity="101"/>
  </Event>
  <Event>
    <Absolute>155136</Absolute>
    <NoteOff Channel="3" Note="36" Velocity="0"/>
  </Event>
  <Event>
    <Absolute>155136</Absolute>
    <NoteOn Channel="3" Note="41" Velocity="101"/>
  </Event>
  <Event>
    <Absolute>155424</Absolute>
    <NoteOff Channel="3" Note="41" Velocity="0"/>
  </Event>
  <Event>
    <Absolute>155520</Absolute>
    <NoteOn Channel="3" Note="41" Velocity="101"/>
  </Event>
  <Event>
    <Absolute>155808</Absolute>
    <NoteOff Channel="3" Note="41" Velocity="0"/>
  </Event>
  <Event>
    <Absolute>155904</Absolute>
    <NoteOn Channel="3" Note="41" Velocity="101"/>
  </Event>
  <Event>
    <Absolute>156192</Absolute>
    <NoteOff Channel="3" Note="41" Velocity="0"/>
  </Event>
  <Event>
    <Absolute>156288</Absolute>
    <NoteOn Channel="3" Note="41" Velocity="101"/>
  </Event>
  <Event>
    <Absolute>156576</Absolute>
    <NoteOff Channel="3" Note="41" Velocity="0"/>
  </Event>
  <Event>
    <Absolute>156672</Absolute>
    <NoteOn Channel="3" Note="41" Velocity="101"/>
  </Event>
  <Event>
    <Absolute>156960</Absolute>
    <NoteOff Channel="3" Note="41" Velocity="0"/>
  </Event>
  <Event>
    <Absolute>157056</Absolute>
    <NoteOn Channel="3" Note="41" Velocity="101"/>
  </Event>
  <Event>
    <Absolute>157344</Absolute>
    <NoteOff Channel="3" Note="41" Velocity="0"/>
  </Event>
  <Event>
    <Absolute>157440</Absolute>
    <NoteOn Channel="3" Note="41" Velocity="101"/>
  </Event>
  <Event>
    <Absolute>157728</Absolute>
    <NoteOff Channel="3" Note="41" Velocity="0"/>
  </Event>
  <Event>
    <Absolute>157824</Absolute>
    <NoteOn Channel="3" Note="41" Velocity="101"/>
  </Event>
  <Event>
    <Absolute>158112</Absolute>
    <NoteOff Channel="3" Note="41" Velocity="0"/>
  </Event>
  <Event>
    <Absolute>158208</Absolute>
    <NoteOn Channel="3" Note="43" Velocity="101"/>
  </Event>
  <Event>
    <Absolute>158496</Absolute>
    <NoteOff Channel="3" Note="43" Velocity="0"/>
  </Event>
  <Event>
    <Absolute>158592</Absolute>
    <NoteOn Channel="3" Note="43" Velocity="101"/>
  </Event>
  <Event>
    <Absolute>158880</Absolute>
    <NoteOff Channel="3" Note="43" Velocity="0"/>
  </Event>
  <Event>
    <Absolute>158976</Absolute>
    <NoteOn Channel="3" Note="43" Velocity="101"/>
  </Event>
  <Event>
    <Absolute>159264</Absolute>
    <NoteOff Channel="3" Note="43" Velocity="0"/>
  </Event>
  <Event>
    <Absolute>159360</Absolute>
    <NoteOn Channel="3" Note="43" Velocity="101"/>
  </Event>
  <Event>
    <Absolute>159648</Absolute>
    <NoteOff Channel="3" Note="43" Velocity="0"/>
  </Event>
  <Event>
    <Absolute>159744</Absolute>
    <NoteOn Channel="3" Note="36" Velocity="101"/>
  </Event>
  <Event>
    <Absolute>160032</Absolute>
    <NoteOff Channel="3" Note="36" Velocity="0"/>
  </Event>
  <Event>
    <Absolute>160128</Absolute>
    <NoteOn Channel="3" Note="36" Velocity="101"/>
  </Event>
  <Event>
    <Absolute>160416</Absolute>
    <NoteOff Channel="3" Note="36" Velocity="0"/>
  </Event>
  <Event>
    <Absolute>160512</Absolute>
    <NoteOn Channel="3" Note="36" Velocity="101"/>
  </Event>
  <Event>
    <Absolute>160800</Absolute>
    <NoteOff Channel="3" Note="36" Velocity="0"/>
  </Event>
  <Event>
    <Absolute>160896</Absolute>
    <NoteOn Channel="3" Note="36" Velocity="101"/>
  </Event>
  <Event>
    <Absolute>161184</Absolute>
    <NoteOff Channel="3" Note="36" Velocity="0"/>
  </Event>
  <Event>
    <Absolute>161280</Absolute>
    <NoteOn Channel="3" Note="41" Velocity="101"/>
  </Event>
  <Event>
    <Absolute>161568</Absolute>
    <NoteOff Channel="3" Note="41" Velocity="0"/>
  </Event>
  <Event>
    <Absolute>161664</Absolute>
    <NoteOn Channel="3" Note="41" Velocity="101"/>
  </Event>
  <Event>
    <Absolute>161952</Absolute>
    <NoteOff Channel="3" Note="41" Velocity="0"/>
  </Event>
  <Event>
    <Absolute>162048</Absolute>
    <NoteOn Channel="3" Note="41" Velocity="101"/>
  </Event>
  <Event>
    <Absolute>162336</Absolute>
    <NoteOff Channel="3" Note="41" Velocity="0"/>
  </Event>
  <Event>
    <Absolute>162432</Absolute>
    <NoteOn Channel="3" Note="41" Velocity="101"/>
  </Event>
  <Event>
    <Absolute>162624</Absolute>
    <NoteOff Channel="3" Note="41" Velocity="0"/>
  </Event>
  <Event>
    <Absolute>162816</Absolute>
    <NoteOn Channel="3" Note="41" Velocity="101"/>
  </Event>
  <Event>
    <Absolute>163104</Absolute>
    <NoteOff Channel="3" Note="41" Velocity="0"/>
  </Event>
  <Event>
    <Absolute>163200</Absolute>
    <NoteOn Channel="3" Note="41" Velocity="101"/>
  </Event>
  <Event>
    <Absolute>163488</Absolute>
    <NoteOff Channel="3" Note="41" Velocity="0"/>
  </Event>
  <Event>
    <Absolute>163584</Absolute>
    <NoteOn Channel="3" Note="41" Velocity="101"/>
  </Event>
  <Event>
    <Absolute>163872</Absolute>
    <NoteOff Channel="3" Note="41" Velocity="0"/>
  </Event>
  <Event>
    <Absolute>163968</Absolute>
    <NoteOn Channel="3" Note="41" Velocity="101"/>
  </Event>
  <Event>
    <Absolute>164256</Absolute>
    <NoteOff Channel="3" Note="41" Velocity="0"/>
  </Event>
  <Event>
    <Absolute>164352</Absolute>
    <NoteOn Channel="3" Note="41" Velocity="101"/>
  </Event>
  <Event>
    <Absolute>164640</Absolute>
    <NoteOff Channel="3" Note="41" Velocity="0"/>
  </Event>
  <Event>
    <Absolute>164736</Absolute>
    <NoteOn Channel="3" Note="41" Velocity="101"/>
  </Event>
  <Event>
    <Absolute>164928</Absolute>
    <NoteOff Channel="3" Note="41" Velocity="0"/>
  </Event>
  <Event>
    <Absolute>165120</Absolute>
    <NoteOn Channel="3" Note="41" Velocity="101"/>
  </Event>
  <Event>
    <Absolute>165408</Absolute>
    <NoteOff Channel="3" Note="41" Velocity="0"/>
  </Event>
  <Event>
    <Absolute>165504</Absolute>
    <NoteOn Channel="3" Note="41" Velocity="101"/>
  </Event>
  <Event>
    <Absolute>165792</Absolute>
    <NoteOff Channel="3" Note="41" Velocity="0"/>
  </Event>
  <Event>
    <Absolute>165888</Absolute>
    <NoteOn Channel="3" Note="41" Velocity="101"/>
  </Event>
  <Event>
    <Absolute>166080</Absolute>
    <NoteOff Channel="3" Note="41" Velocity="0"/>
  </Event>
  <Event>
    <Absolute>167088</Absolute>
    <ControlChange Channel="3" Control="91" Value="0"/>
  </Event>
  <Event>
    <Absolute>167808</Absolute>
    <NoteOn Channel="3" Note="46" Velocity="126"/>
  </Event>
  <Event>
    <Absolute>168000</Absolute>
    <NoteOff Channel="3" Note="46" Velocity="0"/>
  </Event>
  <Event>
    <Absolute>168192</Absolute>
    <NoteOn Channel="3" Note="44" Velocity="126"/>
  </Event>
  <Event>
    <Absolute>168384</Absolute>
    <NoteOff Channel="3" Note="44" Velocity="0"/>
  </Event>
  <Event>
    <Absolute>168576</Absolute>
    <NoteOn Channel="3" Note="43" Velocity="126"/>
  </Event>
  <Event>
    <Absolute>168768</Absolute>
    <NoteOff Channel="3" Note="43" Velocity="0"/>
  </Event>
  <Event>
    <Absolute>168960</Absolute>
    <NoteOn Channel="3" Note="34" Velocity="126"/>
  </Event>
  <Event>
    <Absolute>169152</Absolute>
    <NoteOff Channel="3" Note="34" Velocity="0"/>
  </Event>
  <Event>
    <Absolute>169344</Absolute>
    <NoteOn Channel="3" Note="36" Velocity="126"/>
  </Event>
  <Event>
    <Absolute>169536</Absolute>
    <NoteOff Channel="3" Note="36" Velocity="0"/>
  </Event>
  <Event>
    <Absolute>169728</Absolute>
    <NoteOn Channel="3" Note="38" Velocity="126"/>
  </Event>
  <Event>
    <Absolute>169920</Absolute>
    <NoteOff Channel="3" Note="38" Velocity="0"/>
  </Event>
  <Event>
    <Absolute>170112</Absolute>
    <NoteOn Channel="3" Note="41" Velocity="126"/>
  </Event>
  <Event>
    <Absolute>170304</Absolute>
    <NoteOff Channel="3" Note="41" Velocity="0"/>
  </Event>
  <Event>
    <Absolute>170880</Absolute>
    <NoteOn Channel="3" Note="46" Velocity="126"/>
  </Event>
  <Event>
    <Absolute>171072</Absolute>
    <NoteOff Channel="3" Note="46" Velocity="0"/>
  </Event>
  <Event>
    <Absolute>171264</Absolute>
    <NoteOn Channel="3" Note="44" Velocity="126"/>
  </Event>
  <Event>
    <Absolute>171456</Absolute>
    <NoteOff Channel="3" Note="44" Velocity="0"/>
  </Event>
  <Event>
    <Absolute>171648</Absolute>
    <NoteOn Channel="3" Note="43" Velocity="126"/>
  </Event>
  <Event>
    <Absolute>171840</Absolute>
    <NoteOff Channel="3" Note="43" Velocity="0"/>
  </Event>
  <Event>
    <Absolute>172032</Absolute>
    <NoteOn Channel="3" Note="34" Velocity="126"/>
  </Event>
  <Event>
    <Absolute>172224</Absolute>
    <NoteOff Channel="3" Note="34" Velocity="0"/>
  </Event>
  <Event>
    <Absolute>172416</Absolute>
    <NoteOn Channel="3" Note="36" Velocity="126"/>
  </Event>
  <Event>
    <Absolute>172608</Absolute>
    <NoteOff Channel="3" Note="36" Velocity="0"/>
  </Event>
  <Event>
    <Absolute>172800</Absolute>
    <NoteOn Channel="3" Note="38" Velocity="126"/>
  </Event>
  <Event>
    <Absolute>172992</Absolute>
    <NoteOff Channel="3" Note="38" Velocity="0"/>
  </Event>
  <Event>
    <Absolute>173184</Absolute>
    <NoteOn Channel="3" Note="41" Velocity="126"/>
  </Event>
  <Event>
    <Absolute>173376</Absolute>
    <NoteOff Channel="3" Note="41" Velocity="0"/>
  </Event>
  <Event>
    <Absolute>173952</Absolute>
    <NoteOn Channel="3" Note="44" Velocity="126"/>
  </Event>
  <Event>
    <Absolute>174144</Absolute>
    <NoteOff Channel="3" Note="44" Velocity="0"/>
  </Event>
  <Event>
    <Absolute>174336</Absolute>
    <NoteOn Channel="3" Note="42" Velocity="126"/>
  </Event>
  <Event>
    <Absolute>174528</Absolute>
    <NoteOff Channel="3" Note="42" Velocity="0"/>
  </Event>
  <Event>
    <Absolute>174720</Absolute>
    <NoteOn Channel="3" Note="41" Velocity="126"/>
  </Event>
  <Event>
    <Absolute>174912</Absolute>
    <NoteOff Channel="3" Note="41" Velocity="0"/>
  </Event>
  <Event>
    <Absolute>175104</Absolute>
    <NoteOn Channel="3" Note="32" Velocity="126"/>
  </Event>
  <Event>
    <Absolute>175296</Absolute>
    <NoteOff Channel="3" Note="32" Velocity="0"/>
  </Event>
  <Event>
    <Absolute>175488</Absolute>
    <NoteOn Channel="3" Note="34" Velocity="126"/>
  </Event>
  <Event>
    <Absolute>175680</Absolute>
    <NoteOff Channel="3" Note="34" Velocity="0"/>
  </Event>
  <Event>
    <Absolute>175872</Absolute>
    <NoteOn Channel="3" Note="36" Velocity="126"/>
  </Event>
  <Event>
    <Absolute>176064</Absolute>
    <NoteOff Channel="3" Note="36" Velocity="0"/>
  </Event>
  <Event>
    <Absolute>176256</Absolute>
    <NoteOn Channel="3" Note="39" Velocity="126"/>
  </Event>
  <Event>
    <Absolute>176448</Absolute>
    <NoteOff Channel="3" Note="39" Velocity="0"/>
  </Event>
  <Event>
    <Absolute>177024</Absolute>
    <NoteOn Channel="3" Note="44" Velocity="126"/>
  </Event>
  <Event>
    <Absolute>177216</Absolute>
    <NoteOff Channel="3" Note="44" Velocity="0"/>
  </Event>
  <Event>
    <Absolute>177408</Absolute>
    <NoteOn Channel="3" Note="42" Velocity="126"/>
  </Event>
  <Event>
    <Absolute>177600</Absolute>
    <NoteOff Channel="3" Note="42" Velocity="0"/>
  </Event>
  <Event>
    <Absolute>177792</Absolute>
    <NoteOn Channel="3" Note="41" Velocity="126"/>
  </Event>
  <Event>
    <Absolute>177984</Absolute>
    <NoteOff Channel="3" Note="41" Velocity="0"/>
  </Event>
  <Event>
    <Absolute>178176</Absolute>
    <NoteOn Channel="3" Note="32" Velocity="126"/>
  </Event>
  <Event>
    <Absolute>178368</Absolute>
    <NoteOff Channel="3" Note="32" Velocity="0"/>
  </Event>
  <Event>
    <Absolute>178560</Absolute>
    <NoteOn Channel="3" Note="34" Velocity="126"/>
  </Event>
  <Event>
    <Absolute>178752</Absolute>
    <NoteOff Channel="3" Note="34" Velocity="0"/>
  </Event>
  <Event>
    <Absolute>178944</Absolute>
    <NoteOn Channel="3" Note="36" Velocity="126"/>
  </Event>
  <Event>
    <Absolute>179136</Absolute>
    <NoteOff Channel="3" Note="36" Velocity="0"/>
  </Event>
  <Event>
    <Absolute>179328</Absolute>
    <NoteOn Channel="3" Note="39" Velocity="126"/>
  </Event>
  <Event>
    <Absolute>179520</Absolute>
    <NoteOff Channel="3" Note="39" Velocity="0"/>
  </Event>
  <Event>
    <Absolute>179712</Absolute>
    <NoteOn Channel="3" Note="30" Velocity="126"/>
  </Event>
  <Event>
    <Absolute>179896</Absolute>
    <NoteOff Channel="3" Note="30" Velocity="0"/>
  </Event>
  <Event>
    <Absolute>180096</Absolute>
    <NoteOn Channel="3" Note="42" Velocity="126"/>
  </Event>
  <Event>
    <Absolute>180288</Absolute>
    <NoteOff Channel="3" Note="42" Velocity="0"/>
  </Event>
  <Event>
    <Absolute>180480</Absolute>
    <NoteOn Channel="3" Note="40" Velocity="126"/>
  </Event>
  <Event>
    <Absolute>180672</Absolute>
    <NoteOff Channel="3" Note="40" Velocity="0"/>
  </Event>
  <Event>
    <Absolute>180864</Absolute>
    <NoteOn Channel="3" Note="39" Velocity="126"/>
  </Event>
  <Event>
    <Absolute>181056</Absolute>
    <NoteOff Channel="3" Note="39" Velocity="0"/>
  </Event>
  <Event>
    <Absolute>181248</Absolute>
    <NoteOn Channel="3" Note="30" Velocity="126"/>
  </Event>
  <Event>
    <Absolute>181440</Absolute>
    <NoteOff Channel="3" Note="30" Velocity="0"/>
  </Event>
  <Event>
    <Absolute>181632</Absolute>
    <NoteOn Channel="3" Note="32" Velocity="126"/>
  </Event>
  <Event>
    <Absolute>181824</Absolute>
    <NoteOff Channel="3" Note="32" Velocity="0"/>
  </Event>
  <Event>
    <Absolute>182016</Absolute>
    <NoteOn Channel="3" Note="34" Velocity="126"/>
  </Event>
  <Event>
    <Absolute>182208</Absolute>
    <NoteOff Channel="3" Note="34" Velocity="0"/>
  </Event>
  <Event>
    <Absolute>182400</Absolute>
    <NoteOn Channel="3" Note="37" Velocity="126"/>
  </Event>
  <Event>
    <Absolute>182592</Absolute>
    <NoteOff Channel="3" Note="37" Velocity="0"/>
  </Event>
  <Event>
    <Absolute>182784</Absolute>
    <NoteOn Channel="3" Note="30" Velocity="127"/>
  </Event>
  <Event>
    <Absolute>183456</Absolute>
    <NoteOff Channel="3" Note="30" Velocity="0"/>
  </Event>
  <Event>
    <Absolute>183552</Absolute>
    <NoteOn Channel="3" Note="30" Velocity="127"/>
  </Event>
  <Event>
    <Absolute>184224</Absolute>
    <NoteOff Channel="3" Note="30" Velocity="0"/>
  </Event>
  <Event>
    <Absolute>184320</Absolute>
    <NoteOn Channel="3" Note="30" Velocity="127"/>
  </Event>
  <Event>
    <Absolute>184992</Absolute>
    <NoteOff Channel="3" Note="30" Velocity="0"/>
  </Event>
  <Event>
    <Absolute>185088</Absolute>
    <NoteOn Channel="3" Note="30" Velocity="127"/>
  </Event>
  <Event>
    <Absolute>185760</Absolute>
    <NoteOff Channel="3" Note="30" Velocity="0"/>
  </Event>
  <Event>
    <Absolute>185856</Absolute>
    <NoteOn Channel="3" Note="32" Velocity="127"/>
  </Event>
  <Event>
    <Absolute>186528</Absolute>
    <NoteOff Channel="3" Note="32" Velocity="0"/>
  </Event>
  <Event>
    <Absolute>186624</Absolute>
    <NoteOn Channel="3" Note="32" Velocity="127"/>
  </Event>
  <Event>
    <Absolute>187296</Absolute>
    <NoteOff Channel="3" Note="32" Velocity="0"/>
  </Event>
  <Event>
    <Absolute>187392</Absolute>
    <NoteOn Channel="3" Note="32" Velocity="127"/>
  </Event>
  <Event>
    <Absolute>188064</Absolute>
    <NoteOff Channel="3" Note="32" Velocity="0"/>
  </Event>
  <Event>
    <Absolute>188160</Absolute>
    <NoteOn Channel="3" Note="32" Velocity="127"/>
  </Event>
  <Event>
    <Absolute>188736</Absolute>
    <NoteOff Channel="3" Note="32" Velocity="0"/>
  </Event>
  <Event>
    <Absolute>188928</Absolute>
    <NoteOn Channel="3" Note="34" Velocity="127"/>
  </Event>
  <Event>
    <Absolute>189600</Absolute>
    <NoteOff Channel="3" Note="34" Velocity="0"/>
  </Event>
  <Event>
    <Absolute>189696</Absolute>
    <NoteOn Channel="3" Note="34" Velocity="127"/>
  </Event>
  <Event>
    <Absolute>190272</Absolute>
    <NoteOff Channel="3" Note="34" Velocity="0"/>
  </Event>
  <Event>
    <Absolute>190464</Absolute>
    <NoteOn Channel="3" Note="34" Velocity="127"/>
  </Event>
  <Event>
    <Absolute>191040</Absolute>
    <NoteOff Channel="3" Note="34" Velocity="0"/>
  </Event>
  <Event>
    <Absolute>191232</Absolute>
    <NoteOn Channel="3" Note="34" Velocity="127"/>
  </Event>
  <Event>
    <Absolute>191904</Absolute>
    <NoteOff Channel="3" Note="34" Velocity="0"/>
  </Event>
  <Event>
    <Absolute>192000</Absolute>
    <NoteOn Channel="3" Note="32" Velocity="127"/>
  </Event>
  <Event>
    <Absolute>192672</Absolute>
    <NoteOff Channel="3" Note="32" Velocity="0"/>
  </Event>
  <Event>
    <Absolute>192768</Absolute>
    <NoteOn Channel="3" Note="32" Velocity="127"/>
  </Event>
  <Event>
    <Absolute>193344</Absolute>
    <NoteOff Channel="3" Note="32" Velocity="0"/>
  </Event>
  <Event>
    <Absolute>193536</Absolute>
    <NoteOn Channel="3" Note="32" Velocity="127"/>
  </Event>
  <Event>
    <Absolute>194208</Absolute>
    <NoteOff Channel="3" Note="32" Velocity="0"/>
  </Event>
  <Event>
    <Absolute>194304</Absolute>
    <NoteOn Channel="3" Note="32" Velocity="127"/>
  </Event>
  <Event>
    <Absolute>194976</Absolute>
    <NoteOff Channel="3" Note="32" Velocity="0"/>
  </Event>
  <Event>
    <Absolute>198528</Absolute>
    <NoteOn Channel="3" Note="44" Velocity="126"/>
  </Event>
  <Event>
    <Absolute>198720</Absolute>
    <NoteOff Channel="3" Note="44" Velocity="0"/>
  </Event>
  <Event>
    <Absolute>198880</Absolute>
    <ControlChange Channel="3" Control="7" Value="126"/>
  </Event>
  <Event>
    <Absolute>198880</Absolute>
    <ControlChange Channel="3" Control="7" Value="126"/>
  </Event>
  <Event>
    <Absolute>198912</Absolute>
    <NoteOn Channel="3" Note="42" Velocity="126"/>
  </Event>
  <Event>
    <Absolute>199104</Absolute>
    <NoteOff Channel="3" Note="42" Velocity="0"/>
  </Event>
  <Event>
    <Absolute>199296</Absolute>
    <NoteOn Channel="3" Note="41" Velocity="126"/>
  </Event>
  <Event>
    <Absolute>199488</Absolute>
    <NoteOff Channel="3" Note="41" Velocity="0"/>
  </Event>
  <Event>
    <Absolute>199680</Absolute>
    <NoteOn Channel="3" Note="32" Velocity="126"/>
  </Event>
  <Event>
    <Absolute>199872</Absolute>
    <NoteOff Channel="3" Note="32" Velocity="0"/>
  </Event>
  <Event>
    <Absolute>200048</Absolute>
    <ControlChange Channel="3" Control="7" Value="125"/>
  </Event>
  <Event>
    <Absolute>200048</Absolute>
    <ControlChange Channel="3" Control="7" Value="125"/>
  </Event>
  <Event>
    <Absolute>200064</Absolute>
    <NoteOn Channel="3" Note="34" Velocity="126"/>
  </Event>
  <Event>
    <Absolute>200256</Absolute>
    <NoteOff Channel="3" Note="34" Velocity="0"/>
  </Event>
  <Event>
    <Absolute>200408</Absolute>
    <ControlChange Channel="3" Control="7" Value="124"/>
  </Event>
  <Event>
    <Absolute>200408</Absolute>
    <ControlChange Channel="3" Control="7" Value="124"/>
  </Event>
  <Event>
    <Absolute>200448</Absolute>
    <NoteOn Channel="3" Note="36" Velocity="126"/>
  </Event>
  <Event>
    <Absolute>200640</Absolute>
    <NoteOff Channel="3" Note="36" Velocity="0"/>
  </Event>
  <Event>
    <Absolute>200704</Absolute>
    <ControlChange Channel="3" Control="7" Value="123"/>
  </Event>
  <Event>
    <Absolute>200704</Absolute>
    <ControlChange Channel="3" Control="7" Value="123"/>
  </Event>
  <Event>
    <Absolute>200816</Absolute>
    <ControlChange Channel="3" Control="7" Value="122"/>
  </Event>
  <Event>
    <Absolute>200816</Absolute>
    <ControlChange Channel="3" Control="7" Value="122"/>
  </Event>
  <Event>
    <Absolute>200832</Absolute>
    <NoteOn Channel="3" Note="39" Velocity="126"/>
  </Event>
  <Event>
    <Absolute>201024</Absolute>
    <NoteOff Channel="3" Note="39" Velocity="0"/>
  </Event>
  <Event>
    <Absolute>201104</Absolute>
    <ControlChange Channel="3" Control="7" Value="121"/>
  </Event>
  <Event>
    <Absolute>201104</Absolute>
    <ControlChange Channel="3" Control="7" Value="121"/>
  </Event>
  <Event>
    <Absolute>201120</Absolute>
    <ControlChange Channel="3" Control="7" Value="120"/>
  </Event>
  <Event>
    <Absolute>201120</Absolute>
    <ControlChange Channel="3" Control="7" Value="120"/>
  </Event>
  <Event>
    <Absolute>201312</Absolute>
    <ControlChange Channel="3" Control="7" Value="119"/>
  </Event>
  <Event>
    <Absolute>201312</Absolute>
    <ControlChange Channel="3" Control="7" Value="119"/>
  </Event>
  <Event>
    <Absolute>201472</Absolute>
    <ControlChange Channel="3" Control="7" Value="118"/>
  </Event>
  <Event>
    <Absolute>201472</Absolute>
    <ControlChange Channel="3" Control="7" Value="118"/>
  </Event>
  <Event>
    <Absolute>201536</Absolute>
    <ControlChange Channel="3" Control="7" Value="117"/>
  </Event>
  <Event>
    <Absolute>201536</Absolute>
    <ControlChange Channel="3" Control="7" Value="117"/>
  </Event>
  <Event>
    <Absolute>201584</Absolute>
    <ControlChange Channel="3" Control="7" Value="116"/>
  </Event>
  <Event>
    <Absolute>201584</Absolute>
    <ControlChange Channel="3" Control="7" Value="116"/>
  </Event>
  <Event>
    <Absolute>201600</Absolute>
    <NoteOn Channel="3" Note="44" Velocity="126"/>
  </Event>
  <Event>
    <Absolute>201728</Absolute>
    <ControlChange Channel="3" Control="7" Value="115"/>
  </Event>
  <Event>
    <Absolute>201728</Absolute>
    <ControlChange Channel="3" Control="7" Value="115"/>
  </Event>
  <Event>
    <Absolute>201792</Absolute>
    <NoteOff Channel="3" Note="44" Velocity="0"/>
  </Event>
  <Event>
    <Absolute>201952</Absolute>
    <ControlChange Channel="3" Control="7" Value="114"/>
  </Event>
  <Event>
    <Absolute>201952</Absolute>
    <ControlChange Channel="3" Control="7" Value="114"/>
  </Event>
  <Event>
    <Absolute>201984</Absolute>
    <NoteOn Channel="3" Note="42" Velocity="126"/>
  </Event>
  <Event>
    <Absolute>202032</Absolute>
    <ControlChange Channel="3" Control="7" Value="113"/>
  </Event>
  <Event>
    <Absolute>202032</Absolute>
    <ControlChange Channel="3" Control="7" Value="113"/>
  </Event>
  <Event>
    <Absolute>202112</Absolute>
    <ControlChange Channel="3" Control="7" Value="112"/>
  </Event>
  <Event>
    <Absolute>202112</Absolute>
    <ControlChange Channel="3" Control="7" Value="112"/>
  </Event>
  <Event>
    <Absolute>202176</Absolute>
    <NoteOff Channel="3" Note="42" Velocity="0"/>
  </Event>
  <Event>
    <Absolute>202256</Absolute>
    <ControlChange Channel="3" Control="7" Value="111"/>
  </Event>
  <Event>
    <Absolute>202256</Absolute>
    <ControlChange Channel="3" Control="7" Value="111"/>
  </Event>
  <Event>
    <Absolute>202304</Absolute>
    <ControlChange Channel="3" Control="7" Value="109"/>
  </Event>
  <Event>
    <Absolute>202304</Absolute>
    <ControlChange Channel="3" Control="7" Value="109"/>
  </Event>
  <Event>
    <Absolute>202368</Absolute>
    <NoteOn Channel="3" Note="41" Velocity="126"/>
  </Event>
  <Event>
    <Absolute>202400</Absolute>
    <ControlChange Channel="3" Control="7" Value="108"/>
  </Event>
  <Event>
    <Absolute>202400</Absolute>
    <ControlChange Channel="3" Control="7" Value="108"/>
  </Event>
  <Event>
    <Absolute>202416</Absolute>
    <ControlChange Channel="3" Control="7" Value="106"/>
  </Event>
  <Event>
    <Absolute>202416</Absolute>
    <ControlChange Channel="3" Control="7" Value="106"/>
  </Event>
  <Event>
    <Absolute>202480</Absolute>
    <ControlChange Channel="3" Control="7" Value="105"/>
  </Event>
  <Event>
    <Absolute>202480</Absolute>
    <ControlChange Channel="3" Control="7" Value="105"/>
  </Event>
  <Event>
    <Absolute>202528</Absolute>
    <ControlChange Channel="3" Control="7" Value="103"/>
  </Event>
  <Event>
    <Absolute>202528</Absolute>
    <ControlChange Channel="3" Control="7" Value="103"/>
  </Event>
  <Event>
    <Absolute>202560</Absolute>
    <NoteOff Channel="3" Note="41" Velocity="0"/>
  </Event>
  <Event>
    <Absolute>202576</Absolute>
    <ControlChange Channel="3" Control="7" Value="102"/>
  </Event>
  <Event>
    <Absolute>202576</Absolute>
    <ControlChange Channel="3" Control="7" Value="102"/>
  </Event>
  <Event>
    <Absolute>202592</Absolute>
    <ControlChange Channel="3" Control="7" Value="100"/>
  </Event>
  <Event>
    <Absolute>202592</Absolute>
    <ControlChange Channel="3" Control="7" Value="100"/>
  </Event>
  <Event>
    <Absolute>202672</Absolute>
    <ControlChange Channel="3" Control="7" Value="99"/>
  </Event>
  <Event>
    <Absolute>202672</Absolute>
    <ControlChange Channel="3" Control="7" Value="99"/>
  </Event>
  <Event>
    <Absolute>202720</Absolute>
    <ControlChange Channel="3" Control="7" Value="97"/>
  </Event>
  <Event>
    <Absolute>202720</Absolute>
    <ControlChange Channel="3" Control="7" Value="97"/>
  </Event>
  <Event>
    <Absolute>202752</Absolute>
    <NoteOn Channel="3" Note="32" Velocity="126"/>
  </Event>
  <Event>
    <Absolute>202772</Absolute>
    <ControlChange Channel="3" Control="7" Value="96"/>
  </Event>
  <Event>
    <Absolute>202772</Absolute>
    <ControlChange Channel="3" Control="7" Value="96"/>
  </Event>
  <Event>
    <Absolute>202788</Absolute>
    <ControlChange Channel="3" Control="7" Value="95"/>
  </Event>
  <Event>
    <Absolute>202788</Absolute>
    <ControlChange Channel="3" Control="7" Value="95"/>
  </Event>
  <Event>
    <Absolute>202864</Absolute>
    <ControlChange Channel="3" Control="7" Value="94"/>
  </Event>
  <Event>
    <Absolute>202864</Absolute>
    <ControlChange Channel="3" Control="7" Value="94"/>
  </Event>
  <Event>
    <Absolute>202944</Absolute>
    <NoteOff Channel="3" Note="32" Velocity="0"/>
  </Event>
  <Event>
    <Absolute>202944</Absolute>
    <ControlChange Channel="3" Control="7" Value="93"/>
  </Event>
  <Event>
    <Absolute>202944</Absolute>
    <ControlChange Channel="3" Control="7" Value="93"/>
  </Event>
  <Event>
    <Absolute>203008</Absolute>
    <ControlChange Channel="3" Control="7" Value="92"/>
  </Event>
  <Event>
    <Absolute>203008</Absolute>
    <ControlChange Channel="3" Control="7" Value="92"/>
  </Event>
  <Event>
    <Absolute>203040</Absolute>
    <ControlChange Channel="3" Control="7" Value="91"/>
  </Event>
  <Event>
    <Absolute>203040</Absolute>
    <ControlChange Channel="3" Control="7" Value="91"/>
  </Event>
  <Event>
    <Absolute>203120</Absolute>
    <ControlChange Channel="3" Control="7" Value="90"/>
  </Event>
  <Event>
    <Absolute>203120</Absolute>
    <ControlChange Channel="3" Control="7" Value="90"/>
  </Event>
  <Event>
    <Absolute>203136</Absolute>
    <NoteOn Channel="3" Note="34" Velocity="126"/>
  </Event>
  <Event>
    <Absolute>203188</Absolute>
    <ControlChange Channel="3" Control="7" Value="89"/>
  </Event>
  <Event>
    <Absolute>203188</Absolute>
    <ControlChange Channel="3" Control="7" Value="89"/>
  </Event>
  <Event>
    <Absolute>203232</Absolute>
    <ControlChange Channel="3" Control="7" Value="88"/>
  </Event>
  <Event>
    <Absolute>203232</Absolute>
    <ControlChange Channel="3" Control="7" Value="88"/>
  </Event>
  <Event>
    <Absolute>203280</Absolute>
    <ControlChange Channel="3" Control="7" Value="87"/>
  </Event>
  <Event>
    <Absolute>203280</Absolute>
    <ControlChange Channel="3" Control="7" Value="87"/>
  </Event>
  <Event>
    <Absolute>203328</Absolute>
    <NoteOff Channel="3" Note="34" Velocity="0"/>
  </Event>
  <Event>
    <Absolute>203360</Absolute>
    <ControlChange Channel="3" Control="7" Value="86"/>
  </Event>
  <Event>
    <Absolute>203360</Absolute>
    <ControlChange Channel="3" Control="7" Value="86"/>
  </Event>
  <Event>
    <Absolute>203408</Absolute>
    <ControlChange Channel="3" Control="7" Value="85"/>
  </Event>
  <Event>
    <Absolute>203408</Absolute>
    <ControlChange Channel="3" Control="7" Value="85"/>
  </Event>
  <Event>
    <Absolute>203504</Absolute>
    <ControlChange Channel="3" Control="7" Value="84"/>
  </Event>
  <Event>
    <Absolute>203504</Absolute>
    <ControlChange Channel="3" Control="7" Value="84"/>
  </Event>
  <Event>
    <Absolute>203520</Absolute>
    <NoteOn Channel="3" Note="36" Velocity="126"/>
  </Event>
  <Event>
    <Absolute>203536</Absolute>
    <ControlChange Channel="3" Control="7" Value="83"/>
  </Event>
  <Event>
    <Absolute>203536</Absolute>
    <ControlChange Channel="3" Control="7" Value="83"/>
  </Event>
  <Event>
    <Absolute>203624</Absolute>
    <ControlChange Channel="3" Control="7" Value="82"/>
  </Event>
  <Event>
    <Absolute>203624</Absolute>
    <ControlChange Channel="3" Control="7" Value="82"/>
  </Event>
  <Event>
    <Absolute>203664</Absolute>
    <ControlChange Channel="3" Control="7" Value="81"/>
  </Event>
  <Event>
    <Absolute>203664</Absolute>
    <ControlChange Channel="3" Control="7" Value="81"/>
  </Event>
  <Event>
    <Absolute>203712</Absolute>
    <NoteOff Channel="3" Note="36" Velocity="0"/>
  </Event>
  <Event>
    <Absolute>203720</Absolute>
    <ControlChange Channel="3" Control="7" Value="80"/>
  </Event>
  <Event>
    <Absolute>203720</Absolute>
    <ControlChange Channel="3" Control="7" Value="80"/>
  </Event>
  <Event>
    <Absolute>203752</Absolute>
    <ControlChange Channel="3" Control="7" Value="78"/>
  </Event>
  <Event>
    <Absolute>203752</Absolute>
    <ControlChange Channel="3" Control="7" Value="78"/>
  </Event>
  <Event>
    <Absolute>203808</Absolute>
    <ControlChange Channel="3" Control="7" Value="77"/>
  </Event>
  <Event>
    <Absolute>203808</Absolute>
    <ControlChange Channel="3" Control="7" Value="77"/>
  </Event>
  <Event>
    <Absolute>203904</Absolute>
    <NoteOn Channel="3" Note="39" Velocity="126"/>
  </Event>
  <Event>
    <Absolute>203920</Absolute>
    <ControlChange Channel="3" Control="7" Value="75"/>
  </Event>
  <Event>
    <Absolute>203920</Absolute>
    <ControlChange Channel="3" Control="7" Value="75"/>
  </Event>
  <Event>
    <Absolute>203984</Absolute>
    <ControlChange Channel="3" Control="7" Value="74"/>
  </Event>
  <Event>
    <Absolute>203984</Absolute>
    <ControlChange Channel="3" Control="7" Value="74"/>
  </Event>
  <Event>
    <Absolute>204032</Absolute>
    <ControlChange Channel="3" Control="7" Value="72"/>
  </Event>
  <Event>
    <Absolute>204032</Absolute>
    <ControlChange Channel="3" Control="7" Value="72"/>
  </Event>
  <Event>
    <Absolute>204096</Absolute>
    <NoteOff Channel="3" Note="39" Velocity="0"/>
  </Event>
  <Event>
    <Absolute>204112</Absolute>
    <ControlChange Channel="3" Control="7" Value="71"/>
  </Event>
  <Event>
    <Absolute>204112</Absolute>
    <ControlChange Channel="3" Control="7" Value="71"/>
  </Event>
  <Event>
    <Absolute>204192</Absolute>
    <ControlChange Channel="3" Control="7" Value="69"/>
  </Event>
  <Event>
    <Absolute>204192</Absolute>
    <ControlChange Channel="3" Control="7" Value="69"/>
  </Event>
  <Event>
    <Absolute>204324</Absolute>
    <ControlChange Channel="3" Control="7" Value="68"/>
  </Event>
  <Event>
    <Absolute>204324</Absolute>
    <ControlChange Channel="3" Control="7" Value="68"/>
  </Event>
  <Event>
    <Absolute>204368</Absolute>
    <ControlChange Channel="3" Control="7" Value="66"/>
  </Event>
  <Event>
    <Absolute>204368</Absolute>
    <ControlChange Channel="3" Control="7" Value="66"/>
  </Event>
  <Event>
    <Absolute>204432</Absolute>
    <ControlChange Channel="3" Control="7" Value="65"/>
  </Event>
  <Event>
    <Absolute>204432</Absolute>
    <ControlChange Channel="3" Control="7" Value="65"/>
  </Event>
  <Event>
    <Absolute>204480</Absolute>
    <ControlChange Channel="3" Control="7" Value="64"/>
  </Event>
  <Event>
    <Absolute>204480</Absolute>
    <ControlChange Channel="3" Control="7" Value="64"/>
  </Event>
  <Event>
    <Absolute>204544</Absolute>
    <ControlChange Channel="3" Control="7" Value="63"/>
  </Event>
  <Event>
    <Absolute>204544</Absolute>
    <ControlChange Channel="3" Control="7" Value="63"/>
  </Event>
  <Event>
    <Absolute>204560</Absolute>
    <ControlChange Channel="3" Control="7" Value="62"/>
  </Event>
  <Event>
    <Absolute>204560</Absolute>
    <ControlChange Channel="3" Control="7" Value="62"/>
  </Event>
  <Event>
    <Absolute>204624</Absolute>
    <ControlChange Channel="3" Control="7" Value="61"/>
  </Event>
  <Event>
    <Absolute>204624</Absolute>
    <ControlChange Channel="3" Control="7" Value="61"/>
  </Event>
  <Event>
    <Absolute>204672</Absolute>
    <ControlChange Channel="3" Control="7" Value="60"/>
  </Event>
  <Event>
    <Absolute>204672</Absolute>
    <ControlChange Channel="3" Control="7" Value="60"/>
  </Event>
  <Event>
    <Absolute>204672</Absolute>
    <NoteOn Channel="3" Note="44" Velocity="126"/>
  </Event>
  <Event>
    <Absolute>204712</Absolute>
    <ControlChange Channel="3" Control="7" Value="59"/>
  </Event>
  <Event>
    <Absolute>204712</Absolute>
    <ControlChange Channel="3" Control="7" Value="59"/>
  </Event>
  <Event>
    <Absolute>204736</Absolute>
    <ControlChange Channel="3" Control="7" Value="58"/>
  </Event>
  <Event>
    <Absolute>204736</Absolute>
    <ControlChange Channel="3" Control="7" Value="58"/>
  </Event>
  <Event>
    <Absolute>204768</Absolute>
    <ControlChange Channel="3" Control="7" Value="57"/>
  </Event>
  <Event>
    <Absolute>204768</Absolute>
    <ControlChange Channel="3" Control="7" Value="57"/>
  </Event>
  <Event>
    <Absolute>204816</Absolute>
    <ControlChange Channel="3" Control="7" Value="56"/>
  </Event>
  <Event>
    <Absolute>204816</Absolute>
    <ControlChange Channel="3" Control="7" Value="56"/>
  </Event>
  <Event>
    <Absolute>204864</Absolute>
    <NoteOff Channel="3" Note="44" Velocity="0"/>
  </Event>
  <Event>
    <Absolute>204896</Absolute>
    <ControlChange Channel="3" Control="7" Value="55"/>
  </Event>
  <Event>
    <Absolute>204896</Absolute>
    <ControlChange Channel="3" Control="7" Value="55"/>
  </Event>
  <Event>
    <Absolute>204928</Absolute>
    <ControlChange Channel="3" Control="7" Value="54"/>
  </Event>
  <Event>
    <Absolute>204928</Absolute>
    <ControlChange Channel="3" Control="7" Value="54"/>
  </Event>
  <Event>
    <Absolute>204992</Absolute>
    <ControlChange Channel="3" Control="7" Value="53"/>
  </Event>
  <Event>
    <Absolute>204992</Absolute>
    <ControlChange Channel="3" Control="7" Value="53"/>
  </Event>
  <Event>
    <Absolute>205024</Absolute>
    <ControlChange Channel="3" Control="7" Value="52"/>
  </Event>
  <Event>
    <Absolute>205024</Absolute>
    <ControlChange Channel="3" Control="7" Value="52"/>
  </Event>
  <Event>
    <Absolute>205056</Absolute>
    <ControlChange Channel="3" Control="7" Value="51"/>
  </Event>
  <Event>
    <Absolute>205056</Absolute>
    <ControlChange Channel="3" Control="7" Value="51"/>
  </Event>
  <Event>
    <Absolute>205056</Absolute>
    <NoteOn Channel="3" Note="42" Velocity="126"/>
  </Event>
  <Event>
    <Absolute>205080</Absolute>
    <ControlChange Channel="3" Control="7" Value="50"/>
  </Event>
  <Event>
    <Absolute>205080</Absolute>
    <ControlChange Channel="3" Control="7" Value="50"/>
  </Event>
  <Event>
    <Absolute>205184</Absolute>
    <ControlChange Channel="3" Control="7" Value="49"/>
  </Event>
  <Event>
    <Absolute>205184</Absolute>
    <ControlChange Channel="3" Control="7" Value="49"/>
  </Event>
  <Event>
    <Absolute>205248</Absolute>
    <NoteOff Channel="3" Note="42" Velocity="0"/>
  </Event>
  <Event>
    <Absolute>205264</Absolute>
    <ControlChange Channel="3" Control="7" Value="48"/>
  </Event>
  <Event>
    <Absolute>205264</Absolute>
    <ControlChange Channel="3" Control="7" Value="48"/>
  </Event>
  <Event>
    <Absolute>205328</Absolute>
    <ControlChange Channel="3" Control="7" Value="47"/>
  </Event>
  <Event>
    <Absolute>205328</Absolute>
    <ControlChange Channel="3" Control="7" Value="47"/>
  </Event>
  <Event>
    <Absolute>205424</Absolute>
    <ControlChange Channel="3" Control="7" Value="46"/>
  </Event>
  <Event>
    <Absolute>205424</Absolute>
    <ControlChange Channel="3" Control="7" Value="46"/>
  </Event>
  <Event>
    <Absolute>205440</Absolute>
    <NoteOn Channel="3" Note="41" Velocity="126"/>
  </Event>
  <Event>
    <Absolute>205456</Absolute>
    <ControlChange Channel="3" Control="7" Value="44"/>
  </Event>
  <Event>
    <Absolute>205456</Absolute>
    <ControlChange Channel="3" Control="7" Value="44"/>
  </Event>
  <Event>
    <Absolute>205488</Absolute>
    <ControlChange Channel="3" Control="7" Value="43"/>
  </Event>
  <Event>
    <Absolute>205488</Absolute>
    <ControlChange Channel="3" Control="7" Value="43"/>
  </Event>
  <Event>
    <Absolute>205536</Absolute>
    <ControlChange Channel="3" Control="7" Value="41"/>
  </Event>
  <Event>
    <Absolute>205536</Absolute>
    <ControlChange Channel="3" Control="7" Value="41"/>
  </Event>
  <Event>
    <Absolute>205552</Absolute>
    <ControlChange Channel="3" Control="7" Value="40"/>
  </Event>
  <Event>
    <Absolute>205552</Absolute>
    <ControlChange Channel="3" Control="7" Value="40"/>
  </Event>
  <Event>
    <Absolute>205632</Absolute>
    <NoteOff Channel="3" Note="41" Velocity="0"/>
  </Event>
  <Event>
    <Absolute>205648</Absolute>
    <ControlChange Channel="3" Control="7" Value="38"/>
  </Event>
  <Event>
    <Absolute>205648</Absolute>
    <ControlChange Channel="3" Control="7" Value="38"/>
  </Event>
  <Event>
    <Absolute>205728</Absolute>
    <ControlChange Channel="3" Control="7" Value="37"/>
  </Event>
  <Event>
    <Absolute>205728</Absolute>
    <ControlChange Channel="3" Control="7" Value="37"/>
  </Event>
  <Event>
    <Absolute>205824</Absolute>
    <NoteOn Channel="3" Note="32" Velocity="126"/>
  </Event>
  <Event>
    <Absolute>205904</Absolute>
    <ControlChange Channel="3" Control="7" Value="35"/>
  </Event>
  <Event>
    <Absolute>205904</Absolute>
    <ControlChange Channel="3" Control="7" Value="35"/>
  </Event>
  <Event>
    <Absolute>205920</Absolute>
    <ControlChange Channel="3" Control="7" Value="34"/>
  </Event>
  <Event>
    <Absolute>205920</Absolute>
    <ControlChange Channel="3" Control="7" Value="34"/>
  </Event>
  <Event>
    <Absolute>206016</Absolute>
    <NoteOff Channel="3" Note="32" Velocity="0"/>
  </Event>
  <Event>
    <Absolute>206032</Absolute>
    <ControlChange Channel="3" Control="7" Value="32"/>
  </Event>
  <Event>
    <Absolute>206032</Absolute>
    <ControlChange Channel="3" Control="7" Value="32"/>
  </Event>
  <Event>
    <Absolute>206112</Absolute>
    <ControlChange Channel="3" Control="7" Value="31"/>
  </Event>
  <Event>
    <Absolute>206112</Absolute>
    <ControlChange Channel="3" Control="7" Value="31"/>
  </Event>
  <Event>
    <Absolute>206208</Absolute>
    <NoteOn Channel="3" Note="34" Velocity="126"/>
  </Event>
  <Event>
    <Absolute>206228</Absolute>
    <ControlChange Channel="3" Control="7" Value="30"/>
  </Event>
  <Event>
    <Absolute>206228</Absolute>
    <ControlChange Channel="3" Control="7" Value="30"/>
  </Event>
  <Event>
    <Absolute>206288</Absolute>
    <ControlChange Channel="3" Control="7" Value="29"/>
  </Event>
  <Event>
    <Absolute>206288</Absolute>
    <ControlChange Channel="3" Control="7" Value="29"/>
  </Event>
  <Event>
    <Absolute>206400</Absolute>
    <NoteOff Channel="3" Note="34" Velocity="0"/>
  </Event>
  <Event>
    <Absolute>206432</Absolute>
    <ControlChange Channel="3" Control="7" Value="28"/>
  </Event>
  <Event>
    <Absolute>206432</Absolute>
    <ControlChange Channel="3" Control="7" Value="28"/>
  </Event>
  <Event>
    <Absolute>206528</Absolute>
    <ControlChange Channel="3" Control="7" Value="27"/>
  </Event>
  <Event>
    <Absolute>206528</Absolute>
    <ControlChange Channel="3" Control="7" Value="27"/>
  </Event>
  <Event>
    <Absolute>206592</Absolute>
    <NoteOn Channel="3" Note="36" Velocity="126"/>
  </Event>
  <Event>
    <Absolute>206624</Absolute>
    <ControlChange Channel="3" Control="7" Value="26"/>
  </Event>
  <Event>
    <Absolute>206624</Absolute>
    <ControlChange Channel="3" Control="7" Value="26"/>
  </Event>
  <Event>
    <Absolute>206640</Absolute>
    <ControlChange Channel="3" Control="7" Value="25"/>
  </Event>
  <Event>
    <Absolute>206640</Absolute>
    <ControlChange Channel="3" Control="7" Value="25"/>
  </Event>
  <Event>
    <Absolute>206720</Absolute>
    <ControlChange Channel="3" Control="7" Value="24"/>
  </Event>
  <Event>
    <Absolute>206720</Absolute>
    <ControlChange Channel="3" Control="7" Value="24"/>
  </Event>
  <Event>
    <Absolute>206784</Absolute>
    <NoteOff Channel="3" Note="36" Velocity="0"/>
  </Event>
  <Event>
    <Absolute>206792</Absolute>
    <ControlChange Channel="3" Control="7" Value="23"/>
  </Event>
  <Event>
    <Absolute>206792</Absolute>
    <ControlChange Channel="3" Control="7" Value="23"/>
  </Event>
  <Event>
    <Absolute>206848</Absolute>
    <ControlChange Channel="3" Control="7" Value="22"/>
  </Event>
  <Event>
    <Absolute>206848</Absolute>
    <ControlChange Channel="3" Control="7" Value="22"/>
  </Event>
  <Event>
    <Absolute>206880</Absolute>
    <ControlChange Channel="3" Control="7" Value="21"/>
  </Event>
  <Event>
    <Absolute>206880</Absolute>
    <ControlChange Channel="3" Control="7" Value="21"/>
  </Event>
  <Event>
    <Absolute>206976</Absolute>
    <NoteOn Channel="3" Note="39" Velocity="126"/>
  </Event>
  <Event>
    <Absolute>207008</Absolute>
    <ControlChange Channel="3" Control="7" Value="20"/>
  </Event>
  <Event>
    <Absolute>207008</Absolute>
    <ControlChange Channel="3" Control="7" Value="20"/>
  </Event>
  <Event>
    <Absolute>207088</Absolute>
    <ControlChange Channel="3" Control="7" Value="19"/>
  </Event>
  <Event>
    <Absolute>207088</Absolute>
    <ControlChange Channel="3" Control="7" Value="19"/>
  </Event>
  <Event>
    <Absolute>207168</Absolute>
    <NoteOff Channel="3" Note="39" Velocity="0"/>
  </Event>
  <Event>
    <Absolute>207360</Absolute>
    <ControlChange Channel="3" Control="7" Value="18"/>
  </Event>
  <Event>
    <Absolute>207360</Absolute>
    <ControlChange Channel="3" Control="7" Value="18"/>
  </Event>
  <Event>
    <Absolute>207392</Absolute>
    <ControlChange Channel="3" Control="7" Value="17"/>
  </Event>
  <Event>
    <Absolute>207392</Absolute>
    <ControlChange Channel="3" Control="7" Value="17"/>
  </Event>
  <Event>
    <Absolute>207584</Absolute>
    <ControlChange Channel="3" Control="7" Value="16"/>
  </Event>
  <Event>
    <Absolute>207584</Absolute>
    <ControlChange Channel="3" Control="7" Value="16"/>
  </Event>
  <Event>
    <Absolute>207696</Absolute>
    <ControlChange Channel="3" Control="7" Value="15"/>
  </Event>
  <Event>
    <Absolute>207696</Absolute>
    <ControlChange Channel="3" Control="7" Value="15"/>
  </Event>
  <Event>
    <Absolute>207744</Absolute>
    <NoteOn Channel="3" Note="44" Velocity="126"/>
  </Event>
  <Event>
    <Absolute>207808</Absolute>
    <ControlChange Channel="3" Control="7" Value="13"/>
  </Event>
  <Event>
    <Absolute>207808</Absolute>
    <ControlChange Channel="3" Control="7" Value="13"/>
  </Event>
  <Event>
    <Absolute>207824</Absolute>
    <ControlChange Channel="3" Control="7" Value="12"/>
  </Event>
  <Event>
    <Absolute>207824</Absolute>
    <ControlChange Channel="3" Control="7" Value="12"/>
  </Event>
  <Event>
    <Absolute>207936</Absolute>
    <NoteOff Channel="3" Note="44" Velocity="0"/>
  </Event>
  <Event>
    <Absolute>208128</Absolute>
    <ControlChange Channel="3" Control="7" Value="10"/>
  </Event>
  <Event>
    <Absolute>208128</Absolute>
    <ControlChange Channel="3" Control="7" Value="10"/>
  </Event>
  <Event>
    <Absolute>208128</Absolute>
    <NoteOn Channel="3" Note="42" Velocity="126"/>
  </Event>
  <Event>
    <Absolute>208224</Absolute>
    <ControlChange Channel="3" Control="7" Value="9"/>
  </Event>
  <Event>
    <Absolute>208224</Absolute>
    <ControlChange Channel="3" Control="7" Value="9"/>
  </Event>
  <Event>
    <Absolute>208320</Absolute>
    <NoteOff Channel="3" Note="42" Velocity="0"/>
  </Event>
  <Event>
    <Absolute>208512</Absolute>
    <NoteOn Channel="3" Note="41" Velocity="126"/>
  </Event>
  <Event>
    <Absolute>208704</Absolute>
    <NoteOff Channel="3" Note="41" Velocity="0"/>
  </Event>
  <Event>
    <Absolute>208720</Absolute>
    <ControlChange Channel="3" Control="7" Value="7"/>
  </Event>
  <Event>
    <Absolute>208720</Absolute>
    <ControlChange Channel="3" Control="7" Value="7"/>
  </Event>
  <Event>
    <Absolute>208912</Absolute>
    <ControlChange Channel="3" Control="7" Value="6"/>
  </Event>
  <Event>
    <Absolute>208912</Absolute>
    <ControlChange Channel="3" Control="7" Value="6"/>
  </Event>
  <Event>
    <Absolute>209120</Absolute>
    <ControlChange Channel="3" Control="7" Value="4"/>
  </Event>
  <Event>
    <Absolute>209120</Absolute>
    <ControlChange Channel="3" Control="7" Value="4"/>
  </Event>
  <Event>
    <Absolute>209120</Absolute>
    <EndOfTrack/>
  </Event>
</Track>
<Track Number="6">
  <Event>
    <Absolute>0</Absolute>
    <TrackName>Melody</TrackName>
  </Event>
  <Event>
    <Absolute>0</Absolute>
    <ControlChange Channel="4" Control="0" Value="0"/>
  </Event>
  <Event>
    <Absolute>0</Absolute>
    <ProgramChange Channel="4" Number="73"/>
  </Event>
  <Event>
    <Absolute>0</Absolute>
    <ControlChange Channel="4" Control="7" Value="106"/>
  </Event>
  <Event>
    <Absolute>0</Absolute>
    <ControlChange Channel="4" Control="10" Value="63"/>
  </Event>
  <Event>
    <Absolute>0</Absolute>
    <ControlChange Channel="4" Control="91" Value="127"/>
  </Event>
  <Event>
    <Absolute>0</Absolute>
    <ControlChange Channel="4" Control="93" Value="127"/>
  </Event>
  <Event>
    <Absolute>0</Absolute>
    <KeySignature Fifths="0" Mode="0"/>
  </Event>
  <Event>
    <Absolute>1536</Absolute>
    <PitchBendChange Channel="4" Value="5468"/>
  </Event>
  <Event>
    <Absolute>1536</Absolute>
    <NoteOn Channel="4" Note="75" Velocity="127"/>
  </Event>
  <Event>
    <Absolute>1612</Absolute>
    <PitchBendChange Channel="4" Value="6364"/>
  </Event>
  <Event>
    <Absolute>1616</Absolute>
    <PitchBendChange Channel="4" Value="6876"/>
  </Event>
  <Event>
    <Absolute>1624</Absolute>
    <PitchBendChange Channel="4" Value="7260"/>
  </Event>
  <Event>
    <Absolute>1632</Absolute>
    <PitchBendChange Channel="4" Value="7644"/>
  </Event>
  <Event>
    <Absolute>1648</Absolute>
    <PitchBendChange Channel="4" Value="8192"/>
  </Event>
  <Event>
    <Absolute>2304</Absolute>
    <NoteOff Channel="4" Note="75" Velocity="0"/>
  </Event>
  <Event>
    <Absolute>3328</Absolute>
    <NoteOn Channel="4" Note="70" Velocity="127"/>
  </Event>
  <Event>
    <Absolute>3456</Absolute>
    <NoteOff Channel="4" Note="70" Velocity="0"/>
  </Event>
  <Event>
    <Absolute>3456</Absolute>
    <NoteOn Channel="4" Note="70" Velocity="127"/>
  </Event>
  <Event>
    <Absolute>3584</Absolute>
    <NoteOff Channel="4" Note="70" Velocity="0"/>
  </Event>
  <Event>
    <Absolute>3712</Absolute>
    <NoteOn Channel="4" Note="70" Velocity="127"/>
  </Event>
  <Event>
    <Absolute>3840</Absolute>
    <NoteOff Channel="4" Note="70" Velocity="0"/>
  </Event>
  <Event>
    <Absolute>3840</Absolute>
    <NoteOn Channel="4" Note="75" Velocity="127"/>
  </Event>
  <Event>
    <Absolute>3968</Absolute>
    <NoteOff Channel="4" Note="75" Velocity="0"/>
  </Event>
  <Event>
    <Absolute>4096</Absolute>
    <NoteOn Channel="4" Note="75" Velocity="127"/>
  </Event>
  <Event>
    <Absolute>4224</Absolute>
    <NoteOff Channel="4" Note="75" Velocity="0"/>
  </Event>
  <Event>
    <Absolute>4224</Absolute>
    <NoteOn Channel="4" Note="78" Velocity="127"/>
  </Event>
  <Event>
    <Absolute>4480</Absolute>
    <NoteOff Channel="4" Note="78" Velocity="0"/>
  </Event>
  <Event>
    <Absolute>4608</Absolute>
    <NoteOn Channel="4" Note="80" Velocity="127"/>
  </Event>
  <Event>
    <Absolute>4736</Absolute>
    <NoteOff Channel="4" Note="80" Velocity="0"/>
  </Event>
  <Event>
    <Absolute>4992</Absolute>
    <NoteOn Channel="4" Note="73" Velocity="127"/>
  </Event>
  <Event>
    <Absolute>5120</Absolute>
    <NoteOff Channel="4" Note="73" Velocity="0"/>
  </Event>
  <Event>
    <Absolute>5248</Absolute>
    <NoteOn Channel="4" Note="73" Velocity="127"/>
  </Event>
  <Event>
    <Absolute>5632</Absolute>
    <NoteOff Channel="4" Note="73" Velocity="0"/>
  </Event>
  <Event>
    <Absolute>5632</Absolute>
    <NoteOn Channel="4" Note="71" Velocity="127"/>
  </Event>
  <Event>
    <Absolute>5760</Absolute>
    <NoteOff Channel="4" Note="71" Velocity="0"/>
  </Event>
  <Event>
    <Absolute>5760</Absolute>
    <NoteOn Channel="4" Note="70" Velocity="127"/>
  </Event>
  <Event>
    <Absolute>6144</Absolute>
    <NoteOff Channel="4" Note="70" Velocity="0"/>
  </Event>
  <Event>
    <Absolute>7296</Absolute>
    <NoteOn Channel="4" Note="68" Velocity="127"/>
  </Event>
  <Event>
    <Absolute>7552</Absolute>
    <NoteOff Channel="4" Note="68" Velocity="0"/>
  </Event>
  <Event>
    <Absolute>7552</Absolute>
    <NoteOn Channel="4" Note="70" Velocity="127"/>
  </Event>
  <Event>
    <Absolute>7680</Absolute>
    <NoteOff Channel="4" Note="70" Velocity="0"/>
  </Event>
  <Event>
    <Absolute>7680</Absolute>
    <NoteOn Channel="4" Note="71" Velocity="127"/>
  </Event>
  <Event>
    <Absolute>7936</Absolute>
    <NoteOff Channel="4" Note="71" Velocity="0"/>
  </Event>
  <Event>
    <Absolute>8064</Absolute>
    <NoteOn Channel="4" Note="73" Velocity="127"/>
  </Event>
  <Event>
    <Absolute>8320</Absolute>
    <NoteOff Channel="4" Note="73" Velocity="0"/>
  </Event>
  <Event>
    <Absolute>8448</Absolute>
    <NoteOn Channel="4" Note="68" Velocity="127"/>
  </Event>
  <Event>
    <Absolute>8704</Absolute>
    <NoteOff Channel="4" Note="68" Velocity="0"/>
  </Event>
  <Event>
    <Absolute>8832</Absolute>
    <NoteOn Channel="4" Note="70" Velocity="127"/>
  </Event>
  <Event>
    <Absolute>9088</Absolute>
    <NoteOff Channel="4" Note="70" Velocity="0"/>
  </Event>
  <Event>
    <Absolute>9216</Absolute>
    <NoteOn Channel="4" Note="71" Velocity="127"/>
  </Event>
  <Event>
    <Absolute>9472</Absolute>
    <NoteOff Channel="4" Note="71" Velocity="0"/>
  </Event>
  <Event>
    <Absolute>9600</Absolute>
    <NoteOn Channel="4" Note="70" Velocity="127"/>
  </Event>
  <Event>
    <Absolute>9856</Absolute>
    <NoteOff Channel="4" Note="70" Velocity="0"/>
  </Event>
  <Event>
    <Absolute>9856</Absolute>
    <NoteOn Channel="4" Note="68" Velocity="127"/>
  </Event>
  <Event>
    <Absolute>10112</Absolute>
    <NoteOff Channel="4" Note="68" Velocity="0"/>
  </Event>
  <Event>
    <Absolute>10240</Absolute>
    <NoteOn Channel="4" Note="66" Velocity="127"/>
  </Event>
  <Event>
    <Absolute>10496</Absolute>
    <NoteOff Channel="4" Note="66" Velocity="0"/>
  </Event>
  <Event>
    <Absolute>10624</Absolute>
    <NoteOn Channel="4" Note="68" Velocity="127"/>
  </Event>
  <Event>
    <Absolute>11008</Absolute>
    <NoteOff Channel="4" Note="68" Velocity="0"/>
  </Event>
  <Event>
    <Absolute>11008</Absolute>
    <NoteOn Channel="4" Note="66" Velocity="127"/>
  </Event>
  <Event>
    <Absolute>11136</Absolute>
    <NoteOff Channel="4" Note="66" Velocity="0"/>
  </Event>
  <Event>
    <Absolute>11136</Absolute>
    <NoteOn Channel="4" Note="65" Velocity="127"/>
  </Event>
  <Event>
    <Absolute>11776</Absolute>
    <NoteOff Channel="4" Note="65" Velocity="0"/>
  </Event>
  <Event>
    <Absolute>13296</Absolute>
    <PitchBendChange Channel="4" Value="7132"/>
  </Event>
  <Event>
    <Absolute>13312</Absolute>
    <PitchBendChange Channel="4" Value="5468"/>
  </Event>
  <Event>
    <Absolute>13324</Absolute>
    <PitchBendChange Channel="4" Value="2268"/>
  </Event>
  <Event>
    <Absolute>13340</Absolute>
    <PitchBendChange Channel="4" Value="0"/>
  </Event>
  <Event>
    <Absolute>13352</Absolute>
    <PitchBendChange Channel="4" Value="0"/>
  </Event>
  <Event>
    <Absolute>13824</Absolute>
    <NoteOn Channel="4" Note="82" Velocity="127"/>
  </Event>
  <Event>
    <Absolute>13876</Absolute>
    <PitchBendChange Channel="4" Value="0"/>
  </Event>
  <Event>
    <Absolute>13888</Absolute>
    <PitchBendChange Channel="4" Value="4828"/>
  </Event>
  <Event>
    <Absolute>13904</Absolute>
    <PitchBendChange Channel="4" Value="7132"/>
  </Event>
  <Event>
    <Absolute>13920</Absolute>
    <PitchBendChange Channel="4" Value="8192"/>
  </Event>
  <Event>
    <Absolute>15616</Absolute>
    <NoteOff Channel="4" Note="82" Velocity="0"/>
  </Event>
  <Event>
    <Absolute>15744</Absolute>
    <NoteOn Channel="4" Note="82" Velocity="127"/>
  </Event>
  <Event>
    <Absolute>15872</Absolute>
    <NoteOff Channel="4" Note="82" Velocity="0"/>
  </Event>
  <Event>
    <Absolute>16000</Absolute>
    <NoteOn Channel="4" Note="82" Velocity="127"/>
  </Event>
  <Event>
    <Absolute>16128</Absolute>
    <NoteOff Channel="4" Note="82" Velocity="0"/>
  </Event>
  <Event>
    <Absolute>16128</Absolute>
    <NoteOn Channel="4" Note="82" Velocity="127"/>
  </Event>
  <Event>
    <Absolute>16384</Absolute>
    <NoteOff Channel="4" Note="82" Velocity="0"/>
  </Event>
  <Event>
    <Absolute>16384</Absolute>
    <NoteOn Channel="4" Note="80" Velocity="127"/>
  </Event>
  <Event>
    <Absolute>16512</Absolute>
    <NoteOff Channel="4" Note="80" Velocity="0"/>
  </Event>
  <Event>
    <Absolute>16512</Absolute>
    <NoteOn Channel="4" Note="78" Velocity="127"/>
  </Event>
  <Event>
    <Absolute>16768</Absolute>
    <NoteOff Channel="4" Note="78" Velocity="0"/>
  </Event>
  <Event>
    <Absolute>16896</Absolute>
    <NoteOn Channel="4" Note="73" Velocity="127"/>
  </Event>
  <Event>
    <Absolute>17152</Absolute>
    <NoteOff Channel="4" Note="73" Velocity="0"/>
  </Event>
  <Event>
    <Absolute>17280</Absolute>
    <NoteOn Channel="4" Note="75" Velocity="127"/>
  </Event>
  <Event>
    <Absolute>17536</Absolute>
    <NoteOff Channel="4" Note="75" Velocity="0"/>
  </Event>
  <Event>
    <Absolute>17664</Absolute>
    <NoteOn Channel="4" Note="70" Velocity="127"/>
  </Event>
  <Event>
    <Absolute>18688</Absolute>
    <NoteOff Channel="4" Note="70" Velocity="0"/>
  </Event>
  <Event>
    <Absolute>18688</Absolute>
    <NoteOn Channel="4" Note="68" Velocity="127"/>
  </Event>
  <Event>
    <Absolute>18816</Absolute>
    <NoteOff Channel="4" Note="68" Velocity="0"/>
  </Event>
  <Event>
    <Absolute>18816</Absolute>
    <NoteOn Channel="4" Note="66" Velocity="127"/>
  </Event>
  <Event>
    <Absolute>19072</Absolute>
    <NoteOff Channel="4" Note="66" Velocity="0"/>
  </Event>
  <Event>
    <Absolute>19456</Absolute>
    <NoteOn Channel="4" Note="68" Velocity="127"/>
  </Event>
  <Event>
    <Absolute>19712</Absolute>
    <NoteOff Channel="4" Note="68" Velocity="0"/>
  </Event>
  <Event>
    <Absolute>19840</Absolute>
    <NoteOn Channel="4" Note="70" Velocity="127"/>
  </Event>
  <Event>
    <Absolute>19968</Absolute>
    <NoteOff Channel="4" Note="70" Velocity="0"/>
  </Event>
  <Event>
    <Absolute>19968</Absolute>
    <NoteOn Channel="4" Note="71" Velocity="127"/>
  </Event>
  <Event>
    <Absolute>20224</Absolute>
    <NoteOff Channel="4" Note="71" Velocity="0"/>
  </Event>
  <Event>
    <Absolute>20352</Absolute>
    <NoteOn Channel="4" Note="73" Velocity="127"/>
  </Event>
  <Event>
    <Absolute>20608</Absolute>
    <NoteOff Channel="4" Note="73" Velocity="0"/>
  </Event>
  <Event>
    <Absolute>20736</Absolute>
    <NoteOn Channel="4" Note="68" Velocity="127"/>
  </Event>
  <Event>
    <Absolute>20992</Absolute>
    <NoteOff Channel="4" Note="68" Velocity="0"/>
  </Event>
  <Event>
    <Absolute>21120</Absolute>
    <NoteOn Channel="4" Note="70" Velocity="127"/>
  </Event>
  <Event>
    <Absolute>21376</Absolute>
    <NoteOff Channel="4" Note="70" Velocity="0"/>
  </Event>
  <Event>
    <Absolute>21504</Absolute>
    <NoteOn Channel="4" Note="71" Velocity="127"/>
  </Event>
  <Event>
    <Absolute>21760</Absolute>
    <NoteOff Channel="4" Note="71" Velocity="0"/>
  </Event>
  <Event>
    <Absolute>21888</Absolute>
    <NoteOn Channel="4" Note="70" Velocity="127"/>
  </Event>
  <Event>
    <Absolute>22144</Absolute>
    <NoteOff Channel="4" Note="70" Velocity="0"/>
  </Event>
  <Event>
    <Absolute>22144</Absolute>
    <NoteOn Channel="4" Note="68" Velocity="127"/>
  </Event>
  <Event>
    <Absolute>22400</Absolute>
    <NoteOff Channel="4" Note="68" Velocity="0"/>
  </Event>
  <Event>
    <Absolute>22528</Absolute>
    <NoteOn Channel="4" Note="66" Velocity="127"/>
  </Event>
  <Event>
    <Absolute>22784</Absolute>
    <NoteOff Channel="4" Note="66" Velocity="0"/>
  </Event>
  <Event>
    <Absolute>22912</Absolute>
    <NoteOn Channel="4" Note="68" Velocity="127"/>
  </Event>
  <Event>
    <Absolute>23296</Absolute>
    <NoteOff Channel="4" Note="68" Velocity="0"/>
  </Event>
  <Event>
    <Absolute>23296</Absolute>
    <NoteOn Channel="4" Note="66" Velocity="127"/>
  </Event>
  <Event>
    <Absolute>23424</Absolute>
    <NoteOff Channel="4" Note="66" Velocity="0"/>
  </Event>
  <Event>
    <Absolute>23424</Absolute>
    <NoteOn Channel="4" Note="65" Velocity="127"/>
  </Event>
  <Event>
    <Absolute>24192</Absolute>
    <NoteOff Channel="4" Note="65" Velocity="0"/>
  </Event>
  <Event>
    <Absolute>50672</Absolute>
    <NoteOn Channel="4" Note="75" Velocity="127"/>
  </Event>
  <Event>
    <Absolute>50928</Absolute>
    <NoteOff Channel="4" Note="75" Velocity="0"/>
  </Event>
  <Event>
    <Absolute>51008</Absolute>
    <NoteOn Channel="4" Note="75" Velocity="127"/>
  </Event>
  <Event>
    <Absolute>51208</Absolute>
    <NoteOff Channel="4" Note="75" Velocity="0"/>
  </Event>
  <Event>
    <Absolute>51288</Absolute>
    <NoteOn Channel="4" Note="75" Velocity="127"/>
  </Event>
  <Event>
    <Absolute>51624</Absolute>
    <NoteOff Channel="4" Note="75" Velocity="0"/>
  </Event>
  <Event>
    <Absolute>51624</Absolute>
    <NoteOn Channel="4" Note="73" Velocity="127"/>
  </Event>
  <Event>
    <Absolute>51784</Absolute>
    <NoteOn Channel="4" Note="70" Velocity="127"/>
  </Event>
  <Event>
    <Absolute>51852</Absolute>
    <NoteOff Channel="4" Note="73" Velocity="0"/>
  </Event>
  <Event>
    <Absolute>52264</Absolute>
    <NoteOff Channel="4" Note="70" Velocity="0"/>
  </Event>
  <Event>
    <Absolute>52600</Absolute>
    <NoteOn Channel="4" Note="70" Velocity="127"/>
  </Event>
  <Event>
    <Absolute>52864</Absolute>
    <NoteOff Channel="4" Note="70" Velocity="0"/>
  </Event>
  <Event>
    <Absolute>53000</Absolute>
    <NoteOn Channel="4" Note="75" Velocity="127"/>
  </Event>
  <Event>
    <Absolute>53252</Absolute>
    <NoteOff Channel="4" Note="75" Velocity="0"/>
  </Event>
  <Event>
    <Absolute>53388</Absolute>
    <NoteOn Channel="4" Note="78" Velocity="127"/>
  </Event>
  <Event>
    <Absolute>53644</Absolute>
    <NoteOff Channel="4" Note="78" Velocity="0"/>
  </Event>
  <Event>
    <Absolute>53776</Absolute>
    <NoteOn Channel="4" Note="80" Velocity="127"/>
  </Event>
  <Event>
    <Absolute>53976</Absolute>
    <NoteOff Channel="4" Note="80" Velocity="0"/>
  </Event>
  <Event>
    <Absolute>54152</Absolute>
    <NoteOn Channel="4" Note="73" Velocity="127"/>
  </Event>
  <Event>
    <Absolute>54312</Absolute>
    <NoteOff Channel="4" Note="73" Velocity="0"/>
  </Event>
  <Event>
    <Absolute>54404</Absolute>
    <NoteOn Channel="4" Note="73" Velocity="127"/>
  </Event>
  <Event>
    <Absolute>54740</Absolute>
    <NoteOff Channel="4" Note="73" Velocity="0"/>
  </Event>
  <Event>
    <Absolute>54768</Absolute>
    <NoteOn Channel="4" Note="71" Velocity="127"/>
  </Event>
  <Event>
    <Absolute>54928</Absolute>
    <NoteOn Channel="4" Note="70" Velocity="127"/>
  </Event>
  <Event>
    <Absolute>54952</Absolute>
    <NoteOff Channel="4" Note="71" Velocity="0"/>
  </Event>
  <Event>
    <Absolute>55624</Absolute>
    <NoteOff Channel="4" Note="70" Velocity="0"/>
  </Event>
  <Event>
    <Absolute>56864</Absolute>
    <NoteOn Channel="4" Note="71" Velocity="127"/>
  </Event>
  <Event>
    <Absolute>57132</Absolute>
    <NoteOff Channel="4" Note="71" Velocity="0"/>
  </Event>
  <Event>
    <Absolute>57256</Absolute>
    <NoteOn Channel="4" Note="73" Velocity="127"/>
  </Event>
  <Event>
    <Absolute>57468</Absolute>
    <NoteOff Channel="4" Note="73" Velocity="0"/>
  </Event>
  <Event>
    <Absolute>57616</Absolute>
    <NoteOn Channel="4" Note="68" Velocity="127"/>
  </Event>
  <Event>
    <Absolute>57884</Absolute>
    <NoteOff Channel="4" Note="68" Velocity="0"/>
  </Event>
  <Event>
    <Absolute>57992</Absolute>
    <NoteOn Channel="4" Note="70" Velocity="127"/>
  </Event>
  <Event>
    <Absolute>58260</Absolute>
    <NoteOff Channel="4" Note="70" Velocity="0"/>
  </Event>
  <Event>
    <Absolute>58376</Absolute>
    <NoteOn Channel="4" Note="71" Velocity="127"/>
  </Event>
  <Event>
    <Absolute>58644</Absolute>
    <NoteOff Channel="4" Note="71" Velocity="0"/>
  </Event>
  <Event>
    <Absolute>58768</Absolute>
    <NoteOn Channel="4" Note="70" Velocity="127"/>
  </Event>
  <Event>
    <Absolute>58896</Absolute>
    <NoteOff Channel="4" Note="70" Velocity="0"/>
  </Event>
  <Event>
    <Absolute>59008</Absolute>
    <NoteOn Channel="4" Note="70" Velocity="127"/>
  </Event>
  <Event>
    <Absolute>59032</Absolute>
    <NoteOff Channel="4" Note="70" Velocity="0"/>
  </Event>
  <Event>
    <Absolute>59044</Absolute>
    <NoteOn Channel="4" Note="68" Velocity="127"/>
  </Event>
  <Event>
    <Absolute>59288</Absolute>
    <NoteOff Channel="4" Note="68" Velocity="0"/>
  </Event>
  <Event>
    <Absolute>59424</Absolute>
    <NoteOn Channel="4" Note="66" Velocity="127"/>
  </Event>
  <Event>
    <Absolute>59676</Absolute>
    <NoteOff Channel="4" Note="66" Velocity="0"/>
  </Event>
  <Event>
    <Absolute>59796</Absolute>
    <NoteOn Channel="4" Note="68" Velocity="127"/>
  </Event>
  <Event>
    <Absolute>60144</Absolute>
    <NoteOff Channel="4" Note="68" Velocity="0"/>
  </Event>
  <Event>
    <Absolute>60156</Absolute>
    <NoteOn Channel="4" Note="66" Velocity="127"/>
  </Event>
  <Event>
    <Absolute>60268</Absolute>
    <NoteOff Channel="4" Note="66" Velocity="0"/>
  </Event>
  <Event>
    <Absolute>60268</Absolute>
    <NoteOn Channel="4" Note="65" Velocity="127"/>
  </Event>
  <Event>
    <Absolute>61388</Absolute>
    <NoteOff Channel="4" Note="65" Velocity="0"/>
  </Event>
  <Event>
    <Absolute>62976</Absolute>
    <NoteOn Channel="4" Note="82" Velocity="127"/>
  </Event>
  <Event>
    <Absolute>63028</Absolute>
    <PitchBendChange Channel="4" Value="0"/>
  </Event>
  <Event>
    <Absolute>63040</Absolute>
    <PitchBendChange Channel="4" Value="4828"/>
  </Event>
  <Event>
    <Absolute>63056</Absolute>
    <PitchBendChange Channel="4" Value="7132"/>
  </Event>
  <Event>
    <Absolute>63072</Absolute>
    <PitchBendChange Channel="4" Value="8192"/>
  </Event>
  <Event>
    <Absolute>64768</Absolute>
    <NoteOff Channel="4" Note="82" Velocity="0"/>
  </Event>
  <Event>
    <Absolute>64896</Absolute>
    <NoteOn Channel="4" Note="82" Velocity="127"/>
  </Event>
  <Event>
    <Absolute>65024</Absolute>
    <NoteOff Channel="4" Note="82" Velocity="0"/>
  </Event>
  <Event>
    <Absolute>65152</Absolute>
    <NoteOn Channel="4" Note="82" Velocity="127"/>
  </Event>
  <Event>
    <Absolute>65280</Absolute>
    <NoteOff Channel="4" Note="82" Velocity="0"/>
  </Event>
  <Event>
    <Absolute>65280</Absolute>
    <NoteOn Channel="4" Note="82" Velocity="127"/>
  </Event>
  <Event>
    <Absolute>65536</Absolute>
    <NoteOff Channel="4" Note="82" Velocity="0"/>
  </Event>
  <Event>
    <Absolute>65536</Absolute>
    <NoteOn Channel="4" Note="80" Velocity="127"/>
  </Event>
  <Event>
    <Absolute>65664</Absolute>
    <NoteOff Channel="4" Note="80" Velocity="0"/>
  </Event>
  <Event>
    <Absolute>65664</Absolute>
    <NoteOn Channel="4" Note="78" Velocity="127"/>
  </Event>
  <Event>
    <Absolute>65920</Absolute>
    <NoteOff Channel="4" Note="78" Velocity="0"/>
  </Event>
  <Event>
    <Absolute>66048</Absolute>
    <NoteOn Channel="4" Note="73" Velocity="127"/>
  </Event>
  <Event>
    <Absolute>66304</Absolute>
    <NoteOff Channel="4" Note="73" Velocity="0"/>
  </Event>
  <Event>
    <Absolute>66432</Absolute>
    <NoteOn Channel="4" Note="75" Velocity="127"/>
  </Event>
  <Event>
    <Absolute>66688</Absolute>
    <NoteOff Channel="4" Note="75" Velocity="0"/>
  </Event>
  <Event>
    <Absolute>66816</Absolute>
    <NoteOn Channel="4" Note="70" Velocity="127"/>
  </Event>
  <Event>
    <Absolute>67840</Absolute>
    <NoteOff Channel="4" Note="70" Velocity="0"/>
  </Event>
  <Event>
    <Absolute>67840</Absolute>
    <NoteOn Channel="4" Note="68" Velocity="127"/>
  </Event>
  <Event>
    <Absolute>67968</Absolute>
    <NoteOff Channel="4" Note="68" Velocity="0"/>
  </Event>
  <Event>
    <Absolute>67968</Absolute>
    <NoteOn Channel="4" Note="66" Velocity="127"/>
  </Event>
  <Event>
    <Absolute>68224</Absolute>
    <NoteOff Channel="4" Note="66" Velocity="0"/>
  </Event>
  <Event>
    <Absolute>68608</Absolute>
    <NoteOn Channel="4" Note="68" Velocity="127"/>
  </Event>
  <Event>
    <Absolute>68864</Absolute>
    <NoteOff Channel="4" Note="68" Velocity="0"/>
  </Event>
  <Event>
    <Absolute>68992</Absolute>
    <NoteOn Channel="4" Note="70" Velocity="127"/>
  </Event>
  <Event>
    <Absolute>69120</Absolute>
    <NoteOff Channel="4" Note="70" Velocity="0"/>
  </Event>
  <Event>
    <Absolute>69120</Absolute>
    <NoteOn Channel="4" Note="71" Velocity="127"/>
  </Event>
  <Event>
    <Absolute>69376</Absolute>
    <NoteOff Channel="4" Note="71" Velocity="0"/>
  </Event>
  <Event>
    <Absolute>69504</Absolute>
    <NoteOn Channel="4" Note="73" Velocity="127"/>
  </Event>
  <Event>
    <Absolute>69760</Absolute>
    <NoteOff Channel="4" Note="73" Velocity="0"/>
  </Event>
  <Event>
    <Absolute>69888</Absolute>
    <NoteOn Channel="4" Note="68" Velocity="127"/>
  </Event>
  <Event>
    <Absolute>70144</Absolute>
    <NoteOff Channel="4" Note="68" Velocity="0"/>
  </Event>
  <Event>
    <Absolute>70272</Absolute>
    <NoteOn Channel="4" Note="70" Velocity="127"/>
  </Event>
  <Event>
    <Absolute>70528</Absolute>
    <NoteOff Channel="4" Note="70" Velocity="0"/>
  </Event>
  <Event>
    <Absolute>70656</Absolute>
    <NoteOn Channel="4" Note="71" Velocity="127"/>
  </Event>
  <Event>
    <Absolute>70912</Absolute>
    <NoteOff Channel="4" Note="71" Velocity="0"/>
  </Event>
  <Event>
    <Absolute>71040</Absolute>
    <NoteOn Channel="4" Note="70" Velocity="127"/>
  </Event>
  <Event>
    <Absolute>71296</Absolute>
    <NoteOff Channel="4" Note="70" Velocity="0"/>
  </Event>
  <Event>
    <Absolute>71296</Absolute>
    <NoteOn Channel="4" Note="68" Velocity="127"/>
  </Event>
  <Event>
    <Absolute>71552</Absolute>
    <NoteOff Channel="4" Note="68" Velocity="0"/>
  </Event>
  <Event>
    <Absolute>71680</Absolute>
    <NoteOn Channel="4" Note="66" Velocity="127"/>
  </Event>
  <Event>
    <Absolute>71936</Absolute>
    <NoteOff Channel="4" Note="66" Velocity="0"/>
  </Event>
  <Event>
    <Absolute>72064</Absolute>
    <NoteOn Channel="4" Note="68" Velocity="127"/>
  </Event>
  <Event>
    <Absolute>72448</Absolute>
    <NoteOff Channel="4" Note="68" Velocity="0"/>
  </Event>
  <Event>
    <Absolute>72448</Absolute>
    <NoteOn Channel="4" Note="66" Velocity="127"/>
  </Event>
  <Event>
    <Absolute>72576</Absolute>
    <NoteOff Channel="4" Note="66" Velocity="0"/>
  </Event>
  <Event>
    <Absolute>72576</Absolute>
    <NoteOn Channel="4" Note="65" Velocity="127"/>
  </Event>
  <Event>
    <Absolute>73344</Absolute>
    <NoteOff Channel="4" Note="65" Velocity="0"/>
  </Event>
  <Event>
    <Absolute>128848</Absolute>
    <ControlChange Channel="4" Control="7" Value="124"/>
  </Event>
  <Event>
    <Absolute>128868</Absolute>
    <ControlChange Channel="4" Control="7" Value="115"/>
  </Event>
  <Event>
    <Absolute>128896</Absolute>
    <ControlChange Channel="4" Control="7" Value="106"/>
  </Event>
  <Event>
    <Absolute>128912</Absolute>
    <ControlChange Channel="4" Control="7" Value="103"/>
  </Event>
  <Event>
    <Absolute>128944</Absolute>
    <ControlChange Channel="4" Control="7" Value="100"/>
  </Event>
  <Event>
    <Absolute>128960</Absolute>
    <ControlChange Channel="4" Control="7" Value="99"/>
  </Event>
  <Event>
    <Absolute>128992</Absolute>
    <ControlChange Channel="4" Control="7" Value="96"/>
  </Event>
  <Event>
    <Absolute>129024</Absolute>
    <ControlChange Channel="4" Control="7" Value="95"/>
  </Event>
  <Event>
    <Absolute>129072</Absolute>
    <ControlChange Channel="4" Control="7" Value="94"/>
  </Event>
  <Event>
    <Absolute>129248</Absolute>
    <ControlChange Channel="4" Control="7" Value="93"/>
  </Event>
  <Event>
    <Absolute>129264</Absolute>
    <ControlChange Channel="4" Control="7" Value="90"/>
  </Event>
  <Event>
    <Absolute>129316</Absolute>
    <ControlChange Channel="4" Control="7" Value="89"/>
  </Event>
  <Event>
    <Absolute>129364</Absolute>
    <ControlChange Channel="4" Control="7" Value="88"/>
  </Event>
  <Event>
    <Absolute>130368</Absolute>
    <ControlChange Channel="4" Control="91" Value="127"/>
  </Event>
  <Event>
    <Absolute>137088</Absolute>
    <NoteOn Channel="4" Note="57" Velocity="100"/>
  </Event>
  <Event>
    <Absolute>137856</Absolute>
    <NoteOff Channel="4" Note="57" Velocity="0"/>
  </Event>
  <Event>
    <Absolute>137856</Absolute>
    <NoteOn Channel="4" Note="56" Velocity="100"/>
  </Event>
  <Event>
    <Absolute>138048</Absolute>
    <NoteOff Channel="4" Note="56" Velocity="0"/>
  </Event>
  <Event>
    <Absolute>138048</Absolute>
    <NoteOn Channel="4" Note="57" Velocity="100"/>
  </Event>
  <Event>
    <Absolute>138528</Absolute>
    <NoteOff Channel="4" Note="57" Velocity="0"/>
  </Event>
  <Event>
    <Absolute>138624</Absolute>
    <NoteOn Channel="4" Note="48" Velocity="100"/>
  </Event>
  <Event>
    <Absolute>138912</Absolute>
    <NoteOff Channel="4" Note="48" Velocity="0"/>
  </Event>
  <Event>
    <Absolute>139008</Absolute>
    <NoteOn Channel="4" Note="50" Velocity="100"/>
  </Event>
  <Event>
    <Absolute>139392</Absolute>
    <NoteOff Channel="4" Note="50" Velocity="0"/>
  </Event>
  <Event>
    <Absolute>139392</Absolute>
    <NoteOn Channel="4" Note="53" Velocity="100"/>
  </Event>
  <Event>
    <Absolute>139872</Absolute>
    <NoteOff Channel="4" Note="53" Velocity="0"/>
  </Event>
  <Event>
    <Absolute>140160</Absolute>
    <NoteOn Channel="4" Note="55" Velocity="100"/>
  </Event>
  <Event>
    <Absolute>140352</Absolute>
    <NoteOff Channel="4" Note="55" Velocity="0"/>
  </Event>
  <Event>
    <Absolute>140352</Absolute>
    <NoteOn Channel="4" Note="55" Velocity="100"/>
  </Event>
  <Event>
    <Absolute>140640</Absolute>
    <NoteOff Channel="4" Note="55" Velocity="0"/>
  </Event>
  <Event>
    <Absolute>140736</Absolute>
    <NoteOn Channel="4" Note="55" Velocity="100"/>
  </Event>
  <Event>
    <Absolute>141024</Absolute>
    <NoteOff Channel="4" Note="55" Velocity="0"/>
  </Event>
  <Event>
    <Absolute>141120</Absolute>
    <NoteOn Channel="4" Note="55" Velocity="100"/>
  </Event>
  <Event>
    <Absolute>141312</Absolute>
    <NoteOff Channel="4" Note="55" Velocity="0"/>
  </Event>
  <Event>
    <Absolute>141312</Absolute>
    <NoteOn Channel="4" Note="57" Velocity="100"/>
  </Event>
  <Event>
    <Absolute>141600</Absolute>
    <NoteOff Channel="4" Note="57" Velocity="0"/>
  </Event>
  <Event>
    <Absolute>141696</Absolute>
    <NoteOn Channel="4" Note="55" Velocity="100"/>
  </Event>
  <Event>
    <Absolute>141984</Absolute>
    <NoteOff Channel="4" Note="55" Velocity="0"/>
  </Event>
  <Event>
    <Absolute>142080</Absolute>
    <NoteOn Channel="4" Note="53" Velocity="100"/>
  </Event>
  <Event>
    <Absolute>142272</Absolute>
    <NoteOn Channel="4" Note="50" Velocity="100"/>
  </Event>
  <Event>
    <Absolute>142368</Absolute>
    <NoteOff Channel="4" Note="53" Velocity="0"/>
  </Event>
  <Event>
    <Absolute>142848</Absolute>
    <NoteOff Channel="4" Note="50" Velocity="0"/>
  </Event>
  <Event>
    <Absolute>143232</Absolute>
    <NoteOn Channel="4" Note="57" Velocity="100"/>
  </Event>
  <Event>
    <Absolute>144000</Absolute>
    <NoteOff Channel="4" Note="57" Velocity="0"/>
  </Event>
  <Event>
    <Absolute>144000</Absolute>
    <NoteOn Channel="4" Note="56" Velocity="100"/>
  </Event>
  <Event>
    <Absolute>144192</Absolute>
    <NoteOff Channel="4" Note="56" Velocity="0"/>
  </Event>
  <Event>
    <Absolute>144192</Absolute>
    <NoteOn Channel="4" Note="57" Velocity="100"/>
  </Event>
  <Event>
    <Absolute>144672</Absolute>
    <NoteOff Channel="4" Note="57" Velocity="0"/>
  </Event>
  <Event>
    <Absolute>144768</Absolute>
    <NoteOn Channel="4" Note="48" Velocity="100"/>
  </Event>
  <Event>
    <Absolute>145056</Absolute>
    <NoteOff Channel="4" Note="48" Velocity="0"/>
  </Event>
  <Event>
    <Absolute>145152</Absolute>
    <NoteOn Channel="4" Note="50" Velocity="100"/>
  </Event>
  <Event>
    <Absolute>145536</Absolute>
    <NoteOff Channel="4" Note="50" Velocity="0"/>
  </Event>
  <Event>
    <Absolute>145536</Absolute>
    <NoteOn Channel="4" Note="53" Velocity="100"/>
  </Event>
  <Event>
    <Absolute>146016</Absolute>
    <NoteOff Channel="4" Note="53" Velocity="0"/>
  </Event>
  <Event>
    <Absolute>146304</Absolute>
    <NoteOn Channel="4" Note="55" Velocity="100"/>
  </Event>
  <Event>
    <Absolute>146496</Absolute>
    <NoteOff Channel="4" Note="55" Velocity="0"/>
  </Event>
  <Event>
    <Absolute>146496</Absolute>
    <NoteOn Channel="4" Note="55" Velocity="100"/>
  </Event>
  <Event>
    <Absolute>146784</Absolute>
    <NoteOff Channel="4" Note="55" Velocity="0"/>
  </Event>
  <Event>
    <Absolute>146880</Absolute>
    <NoteOn Channel="4" Note="55" Velocity="100"/>
  </Event>
  <Event>
    <Absolute>147168</Absolute>
    <NoteOff Channel="4" Note="55" Velocity="0"/>
  </Event>
  <Event>
    <Absolute>147264</Absolute>
    <NoteOn Channel="4" Note="55" Velocity="100"/>
  </Event>
  <Event>
    <Absolute>147456</Absolute>
    <NoteOff Channel="4" Note="55" Velocity="0"/>
  </Event>
  <Event>
    <Absolute>147456</Absolute>
    <NoteOn Channel="4" Note="57" Velocity="100"/>
  </Event>
  <Event>
    <Absolute>147744</Absolute>
    <NoteOff Channel="4" Note="57" Velocity="0"/>
  </Event>
  <Event>
    <Absolute>147840</Absolute>
    <NoteOn Channel="4" Note="55" Velocity="100"/>
  </Event>
  <Event>
    <Absolute>148128</Absolute>
    <NoteOff Channel="4" Note="55" Velocity="0"/>
  </Event>
  <Event>
    <Absolute>148224</Absolute>
    <NoteOn Channel="4" Note="53" Velocity="100"/>
  </Event>
  <Event>
    <Absolute>148416</Absolute>
    <NoteOn Channel="4" Note="50" Velocity="100"/>
  </Event>
  <Event>
    <Absolute>148512</Absolute>
    <NoteOff Channel="4" Note="53" Velocity="0"/>
  </Event>
  <Event>
    <Absolute>148992</Absolute>
    <NoteOff Channel="4" Note="50" Velocity="0"/>
  </Event>
  <Event>
    <Absolute>149376</Absolute>
    <NoteOn Channel="4" Note="57" Velocity="94"/>
  </Event>
  <Event>
    <Absolute>150144</Absolute>
    <NoteOff Channel="4" Note="57" Velocity="0"/>
  </Event>
  <Event>
    <Absolute>150144</Absolute>
    <NoteOn Channel="4" Note="56" Velocity="82"/>
  </Event>
  <Event>
    <Absolute>150336</Absolute>
    <NoteOff Channel="4" Note="56" Velocity="0"/>
  </Event>
  <Event>
    <Absolute>150336</Absolute>
    <NoteOn Channel="4" Note="57" Velocity="79"/>
  </Event>
  <Event>
    <Absolute>150816</Absolute>
    <NoteOff Channel="4" Note="57" Velocity="0"/>
  </Event>
  <Event>
    <Absolute>150912</Absolute>
    <NoteOn Channel="4" Note="48" Velocity="69"/>
  </Event>
  <Event>
    <Absolute>151200</Absolute>
    <NoteOff Channel="4" Note="48" Velocity="0"/>
  </Event>
  <Event>
    <Absolute>151296</Absolute>
    <NoteOn Channel="4" Note="50" Velocity="63"/>
  </Event>
  <Event>
    <Absolute>151680</Absolute>
    <NoteOff Channel="4" Note="50" Velocity="0"/>
  </Event>
  <Event>
    <Absolute>151680</Absolute>
    <NoteOn Channel="4" Note="53" Velocity="57"/>
  </Event>
  <Event>
    <Absolute>152160</Absolute>
    <NoteOff Channel="4" Note="53" Velocity="0"/>
  </Event>
  <Event>
    <Absolute>152448</Absolute>
    <NoteOn Channel="4" Note="55" Velocity="44"/>
  </Event>
  <Event>
    <Absolute>152640</Absolute>
    <NoteOff Channel="4" Note="55" Velocity="0"/>
  </Event>
  <Event>
    <Absolute>152640</Absolute>
    <NoteOn Channel="4" Note="55" Velocity="41"/>
  </Event>
  <Event>
    <Absolute>152928</Absolute>
    <NoteOff Channel="4" Note="55" Velocity="0"/>
  </Event>
  <Event>
    <Absolute>153024</Absolute>
    <NoteOn Channel="4" Note="55" Velocity="35"/>
  </Event>
  <Event>
    <Absolute>153312</Absolute>
    <NoteOff Channel="4" Note="55" Velocity="0"/>
  </Event>
  <Event>
    <Absolute>153408</Absolute>
    <NoteOn Channel="4" Note="55" Velocity="29"/>
  </Event>
  <Event>
    <Absolute>153600</Absolute>
    <NoteOff Channel="4" Note="55" Velocity="0"/>
  </Event>
  <Event>
    <Absolute>153600</Absolute>
    <NoteOn Channel="4" Note="57" Velocity="25"/>
  </Event>
  <Event>
    <Absolute>153888</Absolute>
    <NoteOff Channel="4" Note="57" Velocity="0"/>
  </Event>
  <Event>
    <Absolute>153984</Absolute>
    <NoteOn Channel="4" Note="55" Velocity="19"/>
  </Event>
  <Event>
    <Absolute>154272</Absolute>
    <NoteOff Channel="4" Note="55" Velocity="0"/>
  </Event>
  <Event>
    <Absolute>154368</Absolute>
    <NoteOn Channel="4" Note="53" Velocity="13"/>
  </Event>
  <Event>
    <Absolute>154560</Absolute>
    <NoteOn Channel="4" Note="50" Velocity="10"/>
  </Event>
  <Event>
    <Absolute>154656</Absolute>
    <NoteOff Channel="4" Note="53" Velocity="0"/>
  </Event>
  <Event>
    <Absolute>155136</Absolute>
    <NoteOff Channel="4" Note="50" Velocity="0"/>
  </Event>
  <Event>
    <Absolute>198880</Absolute>
    <ControlChange Channel="4" Control="7" Value="87"/>
  </Event>
  <Event>
    <Absolute>200048</Absolute>
    <ControlChange Channel="4" Control="7" Value="86"/>
  </Event>
  <Event>
    <Absolute>200408</Absolute>
    <ControlChange Channel="4" Control="7" Value="85"/>
  </Event>
  <Event>
    <Absolute>200816</Absolute>
    <ControlChange Channel="4" Control="7" Value="84"/>
  </Event>
  <Event>
    <Absolute>201104</Absolute>
    <ControlChange Channel="4" Control="7" Value="83"/>
  </Event>
  <Event>
    <Absolute>201312</Absolute>
    <ControlChange Channel="4" Control="7" Value="82"/>
  </Event>
  <Event>
    <Absolute>201472</Absolute>
    <ControlChange Channel="4" Control="7" Value="81"/>
  </Event>
  <Event>
    <Absolute>201584</Absolute>
    <ControlChange Channel="4" Control="7" Value="80"/>
  </Event>
  <Event>
    <Absolute>201728</Absolute>
    <ControlChange Channel="4" Control="7" Value="79"/>
  </Event>
  <Event>
    <Absolute>201952</Absolute>
    <ControlChange Channel="4" Control="7" Value="78"/>
  </Event>
  <Event>
    <Absolute>202112</Absolute>
    <ControlChange Channel="4" Control="7" Value="77"/>
  </Event>
  <Event>
    <Absolute>202256</Absolute>
    <ControlChange Channel="4" Control="7" Value="76"/>
  </Event>
  <Event>
    <Absolute>202304</Absolute>
    <ControlChange Channel="4" Control="7" Value="75"/>
  </Event>
  <Event>
    <Absolute>202400</Absolute>
    <ControlChange Channel="4" Control="7" Value="74"/>
  </Event>
  <Event>
    <Absolute>202416</Absolute>
    <ControlChange Channel="4" Control="7" Value="73"/>
  </Event>
  <Event>
    <Absolute>202480</Absolute>
    <ControlChange Channel="4" Control="7" Value="72"/>
  </Event>
  <Event>
    <Absolute>202528</Absolute>
    <ControlChange Channel="4" Control="7" Value="71"/>
  </Event>
  <Event>
    <Absolute>202576</Absolute>
    <ControlChange Channel="4" Control="7" Value="70"/>
  </Event>
  <Event>
    <Absolute>202592</Absolute>
    <ControlChange Channel="4" Control="7" Value="69"/>
  </Event>
  <Event>
    <Absolute>202672</Absolute>
    <ControlChange Channel="4" Control="7" Value="68"/>
  </Event>
  <Event>
    <Absolute>202720</Absolute>
    <ControlChange Channel="4" Control="7" Value="67"/>
  </Event>
  <Event>
    <Absolute>202772</Absolute>
    <ControlChange Channel="4" Control="7" Value="66"/>
  </Event>
  <Event>
    <Absolute>202788</Absolute>
    <ControlChange Channel="4" Control="7" Value="65"/>
  </Event>
  <Event>
    <Absolute>202944</Absolute>
    <ControlChange Channel="4" Control="7" Value="64"/>
  </Event>
  <Event>
    <Absolute>203008</Absolute>
    <ControlChange Channel="4" Control="7" Value="63"/>
  </Event>
  <Event>
    <Absolute>203120</Absolute>
    <ControlChange Channel="4" Control="7" Value="62"/>
  </Event>
  <Event>
    <Absolute>203188</Absolute>
    <ControlChange Channel="4" Control="7" Value="61"/>
  </Event>
  <Event>
    <Absolute>203232</Absolute>
    <ControlChange Channel="4" Control="7" Value="60"/>
  </Event>
  <Event>
    <Absolute>203360</Absolute>
    <ControlChange Channel="4" Control="7" Value="59"/>
  </Event>
  <Event>
    <Absolute>203408</Absolute>
    <ControlChange Channel="4" Control="7" Value="58"/>
  </Event>
  <Event>
    <Absolute>203536</Absolute>
    <ControlChange Channel="4" Control="7" Value="57"/>
  </Event>
  <Event>
    <Absolute>203624</Absolute>
    <ControlChange Channel="4" Control="7" Value="56"/>
  </Event>
  <Event>
    <Absolute>203720</Absolute>
    <ControlChange Channel="4" Control="7" Value="55"/>
  </Event>
  <Event>
    <Absolute>203752</Absolute>
    <ControlChange Channel="4" Control="7" Value="54"/>
  </Event>
  <Event>
    <Absolute>203808</Absolute>
    <ControlChange Channel="4" Control="7" Value="53"/>
  </Event>
  <Event>
    <Absolute>203920</Absolute>
    <ControlChange Channel="4" Control="7" Value="51"/>
  </Event>
  <Event>
    <Absolute>204032</Absolute>
    <ControlChange Channel="4" Control="7" Value="49"/>
  </Event>
  <Event>
    <Absolute>204192</Absolute>
    <ControlChange Channel="4" Control="7" Value="47"/>
  </Event>
  <Event>
    <Absolute>204368</Absolute>
    <ControlChange Channel="4" Control="7" Value="45"/>
  </Event>
  <Event>
    <Absolute>204480</Absolute>
    <ControlChange Channel="4" Control="7" Value="44"/>
  </Event>
  <Event>
    <Absolute>204544</Absolute>
    <ControlChange Channel="4" Control="7" Value="43"/>
  </Event>
  <Event>
    <Absolute>204560</Absolute>
    <ControlChange Channel="4" Control="7" Value="42"/>
  </Event>
  <Event>
    <Absolute>204672</Absolute>
    <ControlChange Channel="4" Control="7" Value="41"/>
  </Event>
  <Event>
    <Absolute>204712</Absolute>
    <ControlChange Channel="4" Control="7" Value="40"/>
  </Event>
  <Event>
    <Absolute>204768</Absolute>
    <ControlChange Channel="4" Control="7" Value="39"/>
  </Event>
  <Event>
    <Absolute>204816</Absolute>
    <ControlChange Channel="4" Control="7" Value="38"/>
  </Event>
  <Event>
    <Absolute>204928</Absolute>
    <ControlChange Channel="4" Control="7" Value="37"/>
  </Event>
  <Event>
    <Absolute>204992</Absolute>
    <ControlChange Channel="4" Control="7" Value="36"/>
  </Event>
  <Event>
    <Absolute>205056</Absolute>
    <ControlChange Channel="4" Control="7" Value="35"/>
  </Event>
  <Event>
    <Absolute>205080</Absolute>
    <ControlChange Channel="4" Control="7" Value="34"/>
  </Event>
  <Event>
    <Absolute>205184</Absolute>
    <ControlChange Channel="4" Control="7" Value="33"/>
  </Event>
  <Event>
    <Absolute>205328</Absolute>
    <ControlChange Channel="4" Control="7" Value="32"/>
  </Event>
  <Event>
    <Absolute>205424</Absolute>
    <ControlChange Channel="4" Control="7" Value="31"/>
  </Event>
  <Event>
    <Absolute>205456</Absolute>
    <ControlChange Channel="4" Control="7" Value="30"/>
  </Event>
  <Event>
    <Absolute>205488</Absolute>
    <ControlChange Channel="4" Control="7" Value="29"/>
  </Event>
  <Event>
    <Absolute>205536</Absolute>
    <ControlChange Channel="4" Control="7" Value="28"/>
  </Event>
  <Event>
    <Absolute>205552</Absolute>
    <ControlChange Channel="4" Control="7" Value="27"/>
  </Event>
  <Event>
    <Absolute>205648</Absolute>
    <ControlChange Channel="4" Control="7" Value="26"/>
  </Event>
  <Event>
    <Absolute>205728</Absolute>
    <ControlChange Channel="4" Control="7" Value="25"/>
  </Event>
  <Event>
    <Absolute>205904</Absolute>
    <ControlChange Channel="4" Control="7" Value="24"/>
  </Event>
  <Event>
    <Absolute>205920</Absolute>
    <ControlChange Channel="4" Control="7" Value="23"/>
  </Event>
  <Event>
    <Absolute>206032</Absolute>
    <ControlChange Channel="4" Control="7" Value="22"/>
  </Event>
  <Event>
    <Absolute>206112</Absolute>
    <ControlChange Channel="4" Control="7" Value="21"/>
  </Event>
  <Event>
    <Absolute>206228</Absolute>
    <ControlChange Channel="4" Control="7" Value="20"/>
  </Event>
  <Event>
    <Absolute>206432</Absolute>
    <ControlChange Channel="4" Control="7" Value="19"/>
  </Event>
  <Event>
    <Absolute>206528</Absolute>
    <ControlChange Channel="4" Control="7" Value="18"/>
  </Event>
  <Event>
    <Absolute>206640</Absolute>
    <ControlChange Channel="4" Control="7" Value="17"/>
  </Event>
  <Event>
    <Absolute>206720</Absolute>
    <ControlChange Channel="4" Control="7" Value="16"/>
  </Event>
  <Event>
    <Absolute>206792</Absolute>
    <ControlChange Channel="4" Control="7" Value="15"/>
  </Event>
  <Event>
    <Absolute>206880</Absolute>
    <ControlChange Channel="4" Control="7" Value="14"/>
  </Event>
  <Event>
    <Absolute>207008</Absolute>
    <ControlChange Channel="4" Control="7" Value="13"/>
  </Event>
  <Event>
    <Absolute>207360</Absolute>
    <ControlChange Channel="4" Control="7" Value="12"/>
  </Event>
  <Event>
    <Absolute>207392</Absolute>
    <ControlChange Channel="4" Control="7" Value="11"/>
  </Event>
  <Event>
    <Absolute>207696</Absolute>
    <ControlChange Channel="4" Control="7" Value="10"/>
  </Event>
  <Event>
    <Absolute>207808</Absolute>
    <ControlChange Channel="4" Control="7" Value="9"/>
  </Event>
  <Event>
    <Absolute>207824</Absolute>
    <ControlChange Channel="4" Control="7" Value="8"/>
  </Event>
  <Event>
    <Absolute>208128</Absolute>
    <ControlChange Channel="4" Control="7" Value="6"/>
  </Event>
  <Event>
    <Absolute>208720</Absolute>
    <ControlChange Channel="4" Control="7" Value="4"/>
  </Event>
  <Event>
    <Absolute>209120</Absolute>
    <ControlChange Channel="4" Control="7" Value="2"/>
  </Event>
  <Event>
    <Absolute>209120</Absolute>
    <EndOfTrack/>
  </Event>
</Track>
<Track Number="7">
  <Event>
    <Absolute>0</Absolute>
    <TrackName>Backing</TrackName>
  </Event>
  <Event>
    <Absolute>0</Absolute>
    <ControlChange Channel="5" Control="0" Value="0"/>
  </Event>
  <Event>
    <Absolute>0</Absolute>
    <ProgramChange Channel="5" Number="79"/>
  </Event>
  <Event>
    <Absolute>0</Absolute>
    <ControlChange Channel="5" Control="7" Value="93"/>
  </Event>
  <Event>
    <Absolute>0</Absolute>
    <ControlChange Channel="5" Control="10" Value="75"/>
  </Event>
  <Event>
    <Absolute>0</Absolute>
    <ControlChange Channel="5" Control="91" Value="105"/>
  </Event>
  <Event>
    <Absolute>0</Absolute>
    <ControlChange Channel="5" Control="93" Value="68"/>
  </Event>
  <Event>
    <Absolute>0</Absolute>
    <KeySignature Fifths="0" Mode="0"/>
  </Event>
  <Event>
    <Absolute>0</Absolute>
    <ControlChange Channel="5" Control="1" Value="119"/>
  </Event>
  <Event>
    <Absolute>0</Absolute>
    <ControlChange Channel="5" Control="7" Value="80"/>
  </Event>
  <Event>
    <Absolute>0</Absolute>
    <PitchBendChange Channel="5" Value="8192"/>
  </Event>
  <Event>
    <Absolute>25424</Absolute>
    <ControlChange Channel="5" Control="7" Value="72"/>
  </Event>
  <Event>
    <Absolute>26112</Absolute>
    <NoteOn Channel="5" Note="73" Velocity="127"/>
  </Event>
  <Event>
    <Absolute>26496</Absolute>
    <NoteOff Channel="5" Note="73" Velocity="0"/>
  </Event>
  <Event>
    <Absolute>26496</Absolute>
    <NoteOn Channel="5" Note="85" Velocity="127"/>
  </Event>
  <Event>
    <Absolute>26720</Absolute>
    <PitchBendChange Channel="5" Value="7900"/>
  </Event>
  <Event>
    <Absolute>26736</Absolute>
    <PitchBendChange Channel="5" Value="7388"/>
  </Event>
  <Event>
    <Absolute>26748</Absolute>
    <PitchBendChange Channel="5" Value="6876"/>
  </Event>
  <Event>
    <Absolute>26768</Absolute>
    <PitchBendChange Channel="5" Value="6492"/>
  </Event>
  <Event>
    <Absolute>26788</Absolute>
    <PitchBendChange Channel="5" Value="5852"/>
  </Event>
  <Event>
    <Absolute>26808</Absolute>
    <PitchBendChange Channel="5" Value="5212"/>
  </Event>
  <Event>
    <Absolute>26828</Absolute>
    <PitchBendChange Channel="5" Value="4572"/>
  </Event>
  <Event>
    <Absolute>26848</Absolute>
    <PitchBendChange Channel="5" Value="3548"/>
  </Event>
  <Event>
    <Absolute>26864</Absolute>
    <PitchBendChange Channel="5" Value="2524"/>
  </Event>
  <Event>
    <Absolute>26896</Absolute>
    <PitchBendChange Channel="5" Value="476"/>
  </Event>
  <Event>
    <Absolute>26912</Absolute>
    <PitchBendChange Channel="5" Value="0"/>
  </Event>
  <Event>
    <Absolute>26928</Absolute>
    <PitchBendChange Channel="5" Value="0"/>
  </Event>
  <Event>
    <Absolute>26944</Absolute>
    <PitchBendChange Channel="5" Value="0"/>
  </Event>
  <Event>
    <Absolute>27636</Absolute>
    <PitchBendChange Channel="5" Value="0"/>
  </Event>
  <Event>
    <Absolute>27648</Absolute>
    <NoteOff Channel="5" Note="85" Velocity="0"/>
  </Event>
  <Event>
    <Absolute>27648</Absolute>
    <NoteOn Channel="5" Note="82" Velocity="127"/>
  </Event>
  <Event>
    <Absolute>27648</Absolute>
    <PitchBendChange Channel="5" Value="8192"/>
  </Event>
  <Event>
    <Absolute>28376</Absolute>
    <PitchBendChange Channel="5" Value="8192"/>
  </Event>
  <Event>
    <Absolute>28400</Absolute>
    <PitchBendChange Channel="5" Value="8320"/>
  </Event>
  <Event>
    <Absolute>28416</Absolute>
    <PitchBendChange Channel="5" Value="8832"/>
  </Event>
  <Event>
    <Absolute>28432</Absolute>
    <PitchBendChange Channel="5" Value="9344"/>
  </Event>
  <Event>
    <Absolute>28464</Absolute>
    <PitchBendChange Channel="5" Value="9856"/>
  </Event>
  <Event>
    <Absolute>28500</Absolute>
    <PitchBendChange Channel="5" Value="10368"/>
  </Event>
  <Event>
    <Absolute>28520</Absolute>
    <PitchBendChange Channel="5" Value="10880"/>
  </Event>
  <Event>
    <Absolute>28560</Absolute>
    <PitchBendChange Channel="5" Value="11392"/>
  </Event>
  <Event>
    <Absolute>28616</Absolute>
    <PitchBendChange Channel="5" Value="11904"/>
  </Event>
  <Event>
    <Absolute>29056</Absolute>
    <NoteOff Channel="5" Note="82" Velocity="0"/>
  </Event>
  <Event>
    <Absolute>29124</Absolute>
    <PitchBendChange Channel="5" Value="11904"/>
  </Event>
  <Event>
    <Absolute>29132</Absolute>
    <PitchBendChange Channel="5" Value="11136"/>
  </Event>
  <Event>
    <Absolute>29136</Absolute>
    <PitchBendChange Channel="5" Value="10368"/>
  </Event>
  <Event>
    <Absolute>29144</Absolute>
    <PitchBendChange Channel="5" Value="9472"/>
  </Event>
  <Event>
    <Absolute>29152</Absolute>
    <PitchBendChange Channel="5" Value="8192"/>
  </Event>
  <Event>
    <Absolute>29184</Absolute>
    <NoteOn Channel="5" Note="73" Velocity="127"/>
  </Event>
  <Event>
    <Absolute>29568</Absolute>
    <NoteOff Channel="5" Note="73" Velocity="0"/>
  </Event>
  <Event>
    <Absolute>29568</Absolute>
    <NoteOn Channel="5" Note="85" Velocity="127"/>
  </Event>
  <Event>
    <Absolute>29792</Absolute>
    <PitchBendChange Channel="5" Value="7900"/>
  </Event>
  <Event>
    <Absolute>29808</Absolute>
    <PitchBendChange Channel="5" Value="7388"/>
  </Event>
  <Event>
    <Absolute>29820</Absolute>
    <PitchBendChange Channel="5" Value="6876"/>
  </Event>
  <Event>
    <Absolute>29840</Absolute>
    <PitchBendChange Channel="5" Value="6492"/>
  </Event>
  <Event>
    <Absolute>29860</Absolute>
    <PitchBendChange Channel="5" Value="5852"/>
  </Event>
  <Event>
    <Absolute>29880</Absolute>
    <PitchBendChange Channel="5" Value="5212"/>
  </Event>
  <Event>
    <Absolute>29900</Absolute>
    <PitchBendChange Channel="5" Value="4572"/>
  </Event>
  <Event>
    <Absolute>29920</Absolute>
    <PitchBendChange Channel="5" Value="3548"/>
  </Event>
  <Event>
    <Absolute>29936</Absolute>
    <PitchBendChange Channel="5" Value="2524"/>
  </Event>
  <Event>
    <Absolute>29968</Absolute>
    <PitchBendChange Channel="5" Value="476"/>
  </Event>
  <Event>
    <Absolute>29984</Absolute>
    <PitchBendChange Channel="5" Value="0"/>
  </Event>
  <Event>
    <Absolute>30000</Absolute>
    <PitchBendChange Channel="5" Value="0"/>
  </Event>
  <Event>
    <Absolute>30016</Absolute>
    <PitchBendChange Channel="5" Value="0"/>
  </Event>
  <Event>
    <Absolute>30708</Absolute>
    <PitchBendChange Channel="5" Value="0"/>
  </Event>
  <Event>
    <Absolute>30720</Absolute>
    <NoteOff Channel="5" Note="85" Velocity="0"/>
  </Event>
  <Event>
    <Absolute>30720</Absolute>
    <NoteOn Channel="5" Note="82" Velocity="127"/>
  </Event>
  <Event>
    <Absolute>30720</Absolute>
    <PitchBendChange Channel="5" Value="8192"/>
  </Event>
  <Event>
    <Absolute>31448</Absolute>
    <PitchBendChange Channel="5" Value="8192"/>
  </Event>
  <Event>
    <Absolute>31472</Absolute>
    <PitchBendChange Channel="5" Value="8320"/>
  </Event>
  <Event>
    <Absolute>31488</Absolute>
    <PitchBendChange Channel="5" Value="8832"/>
  </Event>
  <Event>
    <Absolute>31504</Absolute>
    <PitchBendChange Channel="5" Value="9344"/>
  </Event>
  <Event>
    <Absolute>31536</Absolute>
    <PitchBendChange Channel="5" Value="9856"/>
  </Event>
  <Event>
    <Absolute>31572</Absolute>
    <PitchBendChange Channel="5" Value="10368"/>
  </Event>
  <Event>
    <Absolute>31592</Absolute>
    <PitchBendChange Channel="5" Value="10880"/>
  </Event>
  <Event>
    <Absolute>31632</Absolute>
    <PitchBendChange Channel="5" Value="11392"/>
  </Event>
  <Event>
    <Absolute>31688</Absolute>
    <PitchBendChange Channel="5" Value="11904"/>
  </Event>
  <Event>
    <Absolute>32128</Absolute>
    <NoteOff Channel="5" Note="82" Velocity="0"/>
  </Event>
  <Event>
    <Absolute>32196</Absolute>
    <PitchBendChange Channel="5" Value="11904"/>
  </Event>
  <Event>
    <Absolute>32204</Absolute>
    <PitchBendChange Channel="5" Value="11136"/>
  </Event>
  <Event>
    <Absolute>32208</Absolute>
    <PitchBendChange Channel="5" Value="10368"/>
  </Event>
  <Event>
    <Absolute>32216</Absolute>
    <PitchBendChange Channel="5" Value="9472"/>
  </Event>
  <Event>
    <Absolute>32224</Absolute>
    <PitchBendChange Channel="5" Value="8192"/>
  </Event>
  <Event>
    <Absolute>32256</Absolute>
    <NoteOn Channel="5" Note="73" Velocity="127"/>
  </Event>
  <Event>
    <Absolute>32640</Absolute>
    <NoteOff Channel="5" Note="73" Velocity="0"/>
  </Event>
  <Event>
    <Absolute>32640</Absolute>
    <NoteOn Channel="5" Note="85" Velocity="127"/>
  </Event>
  <Event>
    <Absolute>32864</Absolute>
    <PitchBendChange Channel="5" Value="7900"/>
  </Event>
  <Event>
    <Absolute>32880</Absolute>
    <PitchBendChange Channel="5" Value="7388"/>
  </Event>
  <Event>
    <Absolute>32892</Absolute>
    <PitchBendChange Channel="5" Value="6876"/>
  </Event>
  <Event>
    <Absolute>32912</Absolute>
    <PitchBendChange Channel="5" Value="6492"/>
  </Event>
  <Event>
    <Absolute>32932</Absolute>
    <PitchBendChange Channel="5" Value="5852"/>
  </Event>
  <Event>
    <Absolute>32952</Absolute>
    <PitchBendChange Channel="5" Value="5212"/>
  </Event>
  <Event>
    <Absolute>32972</Absolute>
    <PitchBendChange Channel="5" Value="4572"/>
  </Event>
  <Event>
    <Absolute>32992</Absolute>
    <PitchBendChange Channel="5" Value="3548"/>
  </Event>
  <Event>
    <Absolute>33008</Absolute>
    <PitchBendChange Channel="5" Value="2524"/>
  </Event>
  <Event>
    <Absolute>33040</Absolute>
    <PitchBendChange Channel="5" Value="476"/>
  </Event>
  <Event>
    <Absolute>33056</Absolute>
    <PitchBendChange Channel="5" Value="0"/>
  </Event>
  <Event>
    <Absolute>33072</Absolute>
    <PitchBendChange Channel="5" Value="0"/>
  </Event>
  <Event>
    <Absolute>33088</Absolute>
    <PitchBendChange Channel="5" Value="0"/>
  </Event>
  <Event>
    <Absolute>33780</Absolute>
    <PitchBendChange Channel="5" Value="0"/>
  </Event>
  <Event>
    <Absolute>33792</Absolute>
    <NoteOff Channel="5" Note="85" Velocity="0"/>
  </Event>
  <Event>
    <Absolute>33792</Absolute>
    <NoteOn Channel="5" Note="82" Velocity="127"/>
  </Event>
  <Event>
    <Absolute>33792</Absolute>
    <PitchBendChange Channel="5" Value="8192"/>
  </Event>
  <Event>
    <Absolute>34520</Absolute>
    <PitchBendChange Channel="5" Value="8192"/>
  </Event>
  <Event>
    <Absolute>34544</Absolute>
    <PitchBendChange Channel="5" Value="8320"/>
  </Event>
  <Event>
    <Absolute>34560</Absolute>
    <PitchBendChange Channel="5" Value="8832"/>
  </Event>
  <Event>
    <Absolute>34576</Absolute>
    <PitchBendChange Channel="5" Value="9344"/>
  </Event>
  <Event>
    <Absolute>34608</Absolute>
    <PitchBendChange Channel="5" Value="9856"/>
  </Event>
  <Event>
    <Absolute>34644</Absolute>
    <PitchBendChange Channel="5" Value="10368"/>
  </Event>
  <Event>
    <Absolute>34664</Absolute>
    <PitchBendChange Channel="5" Value="10880"/>
  </Event>
  <Event>
    <Absolute>34704</Absolute>
    <PitchBendChange Channel="5" Value="11392"/>
  </Event>
  <Event>
    <Absolute>34760</Absolute>
    <PitchBendChange Channel="5" Value="11904"/>
  </Event>
  <Event>
    <Absolute>35200</Absolute>
    <NoteOff Channel="5" Note="82" Velocity="0"/>
  </Event>
  <Event>
    <Absolute>35268</Absolute>
    <PitchBendChange Channel="5" Value="11904"/>
  </Event>
  <Event>
    <Absolute>35276</Absolute>
    <PitchBendChange Channel="5" Value="11136"/>
  </Event>
  <Event>
    <Absolute>35280</Absolute>
    <PitchBendChange Channel="5" Value="10368"/>
  </Event>
  <Event>
    <Absolute>35288</Absolute>
    <PitchBendChange Channel="5" Value="9472"/>
  </Event>
  <Event>
    <Absolute>35296</Absolute>
    <PitchBendChange Channel="5" Value="8192"/>
  </Event>
  <Event>
    <Absolute>35328</Absolute>
    <NoteOn Channel="5" Note="73" Velocity="127"/>
  </Event>
  <Event>
    <Absolute>35712</Absolute>
    <NoteOff Channel="5" Note="73" Velocity="0"/>
  </Event>
  <Event>
    <Absolute>35712</Absolute>
    <NoteOn Channel="5" Note="85" Velocity="127"/>
  </Event>
  <Event>
    <Absolute>35936</Absolute>
    <PitchBendChange Channel="5" Value="7900"/>
  </Event>
  <Event>
    <Absolute>35952</Absolute>
    <PitchBendChange Channel="5" Value="7388"/>
  </Event>
  <Event>
    <Absolute>35964</Absolute>
    <PitchBendChange Channel="5" Value="6876"/>
  </Event>
  <Event>
    <Absolute>35984</Absolute>
    <PitchBendChange Channel="5" Value="6492"/>
  </Event>
  <Event>
    <Absolute>36004</Absolute>
    <PitchBendChange Channel="5" Value="5852"/>
  </Event>
  <Event>
    <Absolute>36024</Absolute>
    <PitchBendChange Channel="5" Value="5212"/>
  </Event>
  <Event>
    <Absolute>36044</Absolute>
    <PitchBendChange Channel="5" Value="4572"/>
  </Event>
  <Event>
    <Absolute>36064</Absolute>
    <PitchBendChange Channel="5" Value="3548"/>
  </Event>
  <Event>
    <Absolute>36080</Absolute>
    <PitchBendChange Channel="5" Value="2524"/>
  </Event>
  <Event>
    <Absolute>36112</Absolute>
    <PitchBendChange Channel="5" Value="476"/>
  </Event>
  <Event>
    <Absolute>36128</Absolute>
    <PitchBendChange Channel="5" Value="0"/>
  </Event>
  <Event>
    <Absolute>36144</Absolute>
    <PitchBendChange Channel="5" Value="0"/>
  </Event>
  <Event>
    <Absolute>36160</Absolute>
    <PitchBendChange Channel="5" Value="0"/>
  </Event>
  <Event>
    <Absolute>36852</Absolute>
    <PitchBendChange Channel="5" Value="0"/>
  </Event>
  <Event>
    <Absolute>36864</Absolute>
    <NoteOff Channel="5" Note="85" Velocity="0"/>
  </Event>
  <Event>
    <Absolute>36864</Absolute>
    <NoteOn Channel="5" Note="82" Velocity="127"/>
  </Event>
  <Event>
    <Absolute>36864</Absolute>
    <PitchBendChange Channel="5" Value="8192"/>
  </Event>
  <Event>
    <Absolute>37592</Absolute>
    <PitchBendChange Channel="5" Value="8192"/>
  </Event>
  <Event>
    <Absolute>37616</Absolute>
    <PitchBendChange Channel="5" Value="8320"/>
  </Event>
  <Event>
    <Absolute>37632</Absolute>
    <PitchBendChange Channel="5" Value="8832"/>
  </Event>
  <Event>
    <Absolute>37648</Absolute>
    <PitchBendChange Channel="5" Value="9344"/>
  </Event>
  <Event>
    <Absolute>37680</Absolute>
    <PitchBendChange Channel="5" Value="9856"/>
  </Event>
  <Event>
    <Absolute>37716</Absolute>
    <PitchBendChange Channel="5" Value="10368"/>
  </Event>
  <Event>
    <Absolute>37736</Absolute>
    <PitchBendChange Channel="5" Value="10880"/>
  </Event>
  <Event>
    <Absolute>37776</Absolute>
    <PitchBendChange Channel="5" Value="11392"/>
  </Event>
  <Event>
    <Absolute>37832</Absolute>
    <PitchBendChange Channel="5" Value="11904"/>
  </Event>
  <Event>
    <Absolute>38144</Absolute>
    <NoteOff Channel="5" Note="82" Velocity="0"/>
  </Event>
  <Event>
    <Absolute>38340</Absolute>
    <PitchBendChange Channel="5" Value="11904"/>
  </Event>
  <Event>
    <Absolute>38348</Absolute>
    <PitchBendChange Channel="5" Value="11136"/>
  </Event>
  <Event>
    <Absolute>38352</Absolute>
    <PitchBendChange Channel="5" Value="10368"/>
  </Event>
  <Event>
    <Absolute>38360</Absolute>
    <PitchBendChange Channel="5" Value="9472"/>
  </Event>
  <Event>
    <Absolute>38368</Absolute>
    <PitchBendChange Channel="5" Value="8192"/>
  </Event>
  <Event>
    <Absolute>38400</Absolute>
    <NoteOn Channel="5" Note="75" Velocity="127"/>
  </Event>
  <Event>
    <Absolute>38784</Absolute>
    <NoteOff Channel="5" Note="75" Velocity="0"/>
  </Event>
  <Event>
    <Absolute>38784</Absolute>
    <NoteOn Channel="5" Note="87" Velocity="127"/>
  </Event>
  <Event>
    <Absolute>39008</Absolute>
    <PitchBendChange Channel="5" Value="7900"/>
  </Event>
  <Event>
    <Absolute>39024</Absolute>
    <PitchBendChange Channel="5" Value="7388"/>
  </Event>
  <Event>
    <Absolute>39036</Absolute>
    <PitchBendChange Channel="5" Value="6876"/>
  </Event>
  <Event>
    <Absolute>39056</Absolute>
    <PitchBendChange Channel="5" Value="6492"/>
  </Event>
  <Event>
    <Absolute>39076</Absolute>
    <PitchBendChange Channel="5" Value="5852"/>
  </Event>
  <Event>
    <Absolute>39096</Absolute>
    <PitchBendChange Channel="5" Value="5212"/>
  </Event>
  <Event>
    <Absolute>39116</Absolute>
    <PitchBendChange Channel="5" Value="4572"/>
  </Event>
  <Event>
    <Absolute>39136</Absolute>
    <PitchBendChange Channel="5" Value="3548"/>
  </Event>
  <Event>
    <Absolute>39152</Absolute>
    <PitchBendChange Channel="5" Value="2524"/>
  </Event>
  <Event>
    <Absolute>39184</Absolute>
    <PitchBendChange Channel="5" Value="476"/>
  </Event>
  <Event>
    <Absolute>39200</Absolute>
    <PitchBendChange Channel="5" Value="0"/>
  </Event>
  <Event>
    <Absolute>39216</Absolute>
    <PitchBendChange Channel="5" Value="0"/>
  </Event>
  <Event>
    <Absolute>39232</Absolute>
    <PitchBendChange Channel="5" Value="0"/>
  </Event>
  <Event>
    <Absolute>39924</Absolute>
    <PitchBendChange Channel="5" Value="0"/>
  </Event>
  <Event>
    <Absolute>39936</Absolute>
    <NoteOff Channel="5" Note="87" Velocity="0"/>
  </Event>
  <Event>
    <Absolute>39936</Absolute>
    <NoteOn Channel="5" Note="84" Velocity="127"/>
  </Event>
  <Event>
    <Absolute>39936</Absolute>
    <PitchBendChange Channel="5" Value="8192"/>
  </Event>
  <Event>
    <Absolute>40664</Absolute>
    <PitchBendChange Channel="5" Value="8192"/>
  </Event>
  <Event>
    <Absolute>40688</Absolute>
    <PitchBendChange Channel="5" Value="8320"/>
  </Event>
  <Event>
    <Absolute>40704</Absolute>
    <PitchBendChange Channel="5" Value="8832"/>
  </Event>
  <Event>
    <Absolute>40720</Absolute>
    <PitchBendChange Channel="5" Value="9344"/>
  </Event>
  <Event>
    <Absolute>40752</Absolute>
    <PitchBendChange Channel="5" Value="9856"/>
  </Event>
  <Event>
    <Absolute>40788</Absolute>
    <PitchBendChange Channel="5" Value="10368"/>
  </Event>
  <Event>
    <Absolute>40808</Absolute>
    <PitchBendChange Channel="5" Value="10880"/>
  </Event>
  <Event>
    <Absolute>40848</Absolute>
    <PitchBendChange Channel="5" Value="11392"/>
  </Event>
  <Event>
    <Absolute>40904</Absolute>
    <PitchBendChange Channel="5" Value="11904"/>
  </Event>
  <Event>
    <Absolute>41344</Absolute>
    <NoteOff Channel="5" Note="84" Velocity="0"/>
  </Event>
  <Event>
    <Absolute>41412</Absolute>
    <PitchBendChange Channel="5" Value="11904"/>
  </Event>
  <Event>
    <Absolute>41420</Absolute>
    <PitchBendChange Channel="5" Value="11136"/>
  </Event>
  <Event>
    <Absolute>41424</Absolute>
    <PitchBendChange Channel="5" Value="10368"/>
  </Event>
  <Event>
    <Absolute>41432</Absolute>
    <PitchBendChange Channel="5" Value="9472"/>
  </Event>
  <Event>
    <Absolute>41440</Absolute>
    <PitchBendChange Channel="5" Value="8192"/>
  </Event>
  <Event>
    <Absolute>41472</Absolute>
    <NoteOn Channel="5" Note="75" Velocity="127"/>
  </Event>
  <Event>
    <Absolute>41856</Absolute>
    <NoteOff Channel="5" Note="75" Velocity="0"/>
  </Event>
  <Event>
    <Absolute>41856</Absolute>
    <NoteOn Channel="5" Note="87" Velocity="127"/>
  </Event>
  <Event>
    <Absolute>42080</Absolute>
    <PitchBendChange Channel="5" Value="7900"/>
  </Event>
  <Event>
    <Absolute>42096</Absolute>
    <PitchBendChange Channel="5" Value="7388"/>
  </Event>
  <Event>
    <Absolute>42108</Absolute>
    <PitchBendChange Channel="5" Value="6876"/>
  </Event>
  <Event>
    <Absolute>42128</Absolute>
    <PitchBendChange Channel="5" Value="6492"/>
  </Event>
  <Event>
    <Absolute>42148</Absolute>
    <PitchBendChange Channel="5" Value="5852"/>
  </Event>
  <Event>
    <Absolute>42168</Absolute>
    <PitchBendChange Channel="5" Value="5212"/>
  </Event>
  <Event>
    <Absolute>42188</Absolute>
    <PitchBendChange Channel="5" Value="4572"/>
  </Event>
  <Event>
    <Absolute>42208</Absolute>
    <PitchBendChange Channel="5" Value="3548"/>
  </Event>
  <Event>
    <Absolute>42224</Absolute>
    <PitchBendChange Channel="5" Value="2524"/>
  </Event>
  <Event>
    <Absolute>42256</Absolute>
    <PitchBendChange Channel="5" Value="476"/>
  </Event>
  <Event>
    <Absolute>42272</Absolute>
    <PitchBendChange Channel="5" Value="0"/>
  </Event>
  <Event>
    <Absolute>42288</Absolute>
    <PitchBendChange Channel="5" Value="0"/>
  </Event>
  <Event>
    <Absolute>42304</Absolute>
    <PitchBendChange Channel="5" Value="0"/>
  </Event>
  <Event>
    <Absolute>42996</Absolute>
    <PitchBendChange Channel="5" Value="0"/>
  </Event>
  <Event>
    <Absolute>43008</Absolute>
    <NoteOff Channel="5" Note="87" Velocity="0"/>
  </Event>
  <Event>
    <Absolute>43008</Absolute>
    <NoteOn Channel="5" Note="84" Velocity="127"/>
  </Event>
  <Event>
    <Absolute>43008</Absolute>
    <PitchBendChange Channel="5" Value="8192"/>
  </Event>
  <Event>
    <Absolute>43736</Absolute>
    <PitchBendChange Channel="5" Value="8192"/>
  </Event>
  <Event>
    <Absolute>43760</Absolute>
    <PitchBendChange Channel="5" Value="8320"/>
  </Event>
  <Event>
    <Absolute>43776</Absolute>
    <PitchBendChange Channel="5" Value="8832"/>
  </Event>
  <Event>
    <Absolute>43792</Absolute>
    <PitchBendChange Channel="5" Value="9344"/>
  </Event>
  <Event>
    <Absolute>43824</Absolute>
    <PitchBendChange Channel="5" Value="9856"/>
  </Event>
  <Event>
    <Absolute>43860</Absolute>
    <PitchBendChange Channel="5" Value="10368"/>
  </Event>
  <Event>
    <Absolute>43880</Absolute>
    <PitchBendChange Channel="5" Value="10880"/>
  </Event>
  <Event>
    <Absolute>43920</Absolute>
    <PitchBendChange Channel="5" Value="11392"/>
  </Event>
  <Event>
    <Absolute>43976</Absolute>
    <PitchBendChange Channel="5" Value="11904"/>
  </Event>
  <Event>
    <Absolute>44484</Absolute>
    <PitchBendChange Channel="5" Value="11904"/>
  </Event>
  <Event>
    <Absolute>44492</Absolute>
    <PitchBendChange Channel="5" Value="11136"/>
  </Event>
  <Event>
    <Absolute>44496</Absolute>
    <PitchBendChange Channel="5" Value="10368"/>
  </Event>
  <Event>
    <Absolute>44504</Absolute>
    <PitchBendChange Channel="5" Value="9472"/>
  </Event>
  <Event>
    <Absolute>44512</Absolute>
    <PitchBendChange Channel="5" Value="8192"/>
  </Event>
  <Event>
    <Absolute>44544</Absolute>
    <NoteOff Channel="5" Note="84" Velocity="0"/>
  </Event>
  <Event>
    <Absolute>44544</Absolute>
    <NoteOn Channel="5" Note="77" Velocity="127"/>
  </Event>
  <Event>
    <Absolute>44928</Absolute>
    <NoteOff Channel="5" Note="77" Velocity="0"/>
  </Event>
  <Event>
    <Absolute>44928</Absolute>
    <NoteOn Channel="5" Note="89" Velocity="127"/>
  </Event>
  <Event>
    <Absolute>45152</Absolute>
    <PitchBendChange Channel="5" Value="7900"/>
  </Event>
  <Event>
    <Absolute>45168</Absolute>
    <PitchBendChange Channel="5" Value="7388"/>
  </Event>
  <Event>
    <Absolute>45180</Absolute>
    <PitchBendChange Channel="5" Value="6876"/>
  </Event>
  <Event>
    <Absolute>45200</Absolute>
    <PitchBendChange Channel="5" Value="6492"/>
  </Event>
  <Event>
    <Absolute>45220</Absolute>
    <PitchBendChange Channel="5" Value="5852"/>
  </Event>
  <Event>
    <Absolute>45240</Absolute>
    <PitchBendChange Channel="5" Value="5212"/>
  </Event>
  <Event>
    <Absolute>45260</Absolute>
    <PitchBendChange Channel="5" Value="4572"/>
  </Event>
  <Event>
    <Absolute>45280</Absolute>
    <PitchBendChange Channel="5" Value="3548"/>
  </Event>
  <Event>
    <Absolute>45296</Absolute>
    <PitchBendChange Channel="5" Value="2524"/>
  </Event>
  <Event>
    <Absolute>45328</Absolute>
    <PitchBendChange Channel="5" Value="476"/>
  </Event>
  <Event>
    <Absolute>45344</Absolute>
    <PitchBendChange Channel="5" Value="0"/>
  </Event>
  <Event>
    <Absolute>45360</Absolute>
    <PitchBendChange Channel="5" Value="0"/>
  </Event>
  <Event>
    <Absolute>45376</Absolute>
    <PitchBendChange Channel="5" Value="0"/>
  </Event>
  <Event>
    <Absolute>46068</Absolute>
    <PitchBendChange Channel="5" Value="0"/>
  </Event>
  <Event>
    <Absolute>46080</Absolute>
    <NoteOff Channel="5" Note="89" Velocity="0"/>
  </Event>
  <Event>
    <Absolute>46080</Absolute>
    <NoteOn Channel="5" Note="86" Velocity="127"/>
  </Event>
  <Event>
    <Absolute>46080</Absolute>
    <PitchBendChange Channel="5" Value="8192"/>
  </Event>
  <Event>
    <Absolute>46808</Absolute>
    <PitchBendChange Channel="5" Value="8192"/>
  </Event>
  <Event>
    <Absolute>46832</Absolute>
    <PitchBendChange Channel="5" Value="8320"/>
  </Event>
  <Event>
    <Absolute>46848</Absolute>
    <PitchBendChange Channel="5" Value="8832"/>
  </Event>
  <Event>
    <Absolute>46864</Absolute>
    <PitchBendChange Channel="5" Value="9344"/>
  </Event>
  <Event>
    <Absolute>46896</Absolute>
    <PitchBendChange Channel="5" Value="9856"/>
  </Event>
  <Event>
    <Absolute>46932</Absolute>
    <PitchBendChange Channel="5" Value="10368"/>
  </Event>
  <Event>
    <Absolute>46952</Absolute>
    <PitchBendChange Channel="5" Value="10880"/>
  </Event>
  <Event>
    <Absolute>46992</Absolute>
    <PitchBendChange Channel="5" Value="11392"/>
  </Event>
  <Event>
    <Absolute>47048</Absolute>
    <PitchBendChange Channel="5" Value="11904"/>
  </Event>
  <Event>
    <Absolute>47556</Absolute>
    <PitchBendChange Channel="5" Value="11904"/>
  </Event>
  <Event>
    <Absolute>47564</Absolute>
    <PitchBendChange Channel="5" Value="11136"/>
  </Event>
  <Event>
    <Absolute>47568</Absolute>
    <PitchBendChange Channel="5" Value="10368"/>
  </Event>
  <Event>
    <Absolute>47576</Absolute>
    <PitchBendChange Channel="5" Value="9472"/>
  </Event>
  <Event>
    <Absolute>47584</Absolute>
    <PitchBendChange Channel="5" Value="8192"/>
  </Event>
  <Event>
    <Absolute>47616</Absolute>
    <NoteOff Channel="5" Note="86" Velocity="0"/>
  </Event>
  <Event>
    <Absolute>47616</Absolute>
    <NoteOn Channel="5" Note="77" Velocity="127"/>
  </Event>
  <Event>
    <Absolute>48000</Absolute>
    <NoteOff Channel="5" Note="77" Velocity="0"/>
  </Event>
  <Event>
    <Absolute>48000</Absolute>
    <NoteOn Channel="5" Note="89" Velocity="127"/>
  </Event>
  <Event>
    <Absolute>48224</Absolute>
    <PitchBendChange Channel="5" Value="7900"/>
  </Event>
  <Event>
    <Absolute>48240</Absolute>
    <PitchBendChange Channel="5" Value="7388"/>
  </Event>
  <Event>
    <Absolute>48252</Absolute>
    <PitchBendChange Channel="5" Value="6876"/>
  </Event>
  <Event>
    <Absolute>48272</Absolute>
    <PitchBendChange Channel="5" Value="6492"/>
  </Event>
  <Event>
    <Absolute>48292</Absolute>
    <PitchBendChange Channel="5" Value="5852"/>
  </Event>
  <Event>
    <Absolute>48312</Absolute>
    <PitchBendChange Channel="5" Value="5212"/>
  </Event>
  <Event>
    <Absolute>48332</Absolute>
    <PitchBendChange Channel="5" Value="4572"/>
  </Event>
  <Event>
    <Absolute>48352</Absolute>
    <PitchBendChange Channel="5" Value="3548"/>
  </Event>
  <Event>
    <Absolute>48368</Absolute>
    <PitchBendChange Channel="5" Value="2524"/>
  </Event>
  <Event>
    <Absolute>48400</Absolute>
    <PitchBendChange Channel="5" Value="476"/>
  </Event>
  <Event>
    <Absolute>48416</Absolute>
    <PitchBendChange Channel="5" Value="0"/>
  </Event>
  <Event>
    <Absolute>48432</Absolute>
    <PitchBendChange Channel="5" Value="0"/>
  </Event>
  <Event>
    <Absolute>48448</Absolute>
    <PitchBendChange Channel="5" Value="0"/>
  </Event>
  <Event>
    <Absolute>49140</Absolute>
    <PitchBendChange Channel="5" Value="0"/>
  </Event>
  <Event>
    <Absolute>49152</Absolute>
    <NoteOff Channel="5" Note="89" Velocity="0"/>
  </Event>
  <Event>
    <Absolute>49152</Absolute>
    <NoteOn Channel="5" Note="86" Velocity="127"/>
  </Event>
  <Event>
    <Absolute>49152</Absolute>
    <PitchBendChange Channel="5" Value="8192"/>
  </Event>
  <Event>
    <Absolute>49880</Absolute>
    <PitchBendChange Channel="5" Value="8192"/>
  </Event>
  <Event>
    <Absolute>49904</Absolute>
    <PitchBendChange Channel="5" Value="8320"/>
  </Event>
  <Event>
    <Absolute>49920</Absolute>
    <PitchBendChange Channel="5" Value="8832"/>
  </Event>
  <Event>
    <Absolute>49936</Absolute>
    <PitchBendChange Channel="5" Value="9344"/>
  </Event>
  <Event>
    <Absolute>49968</Absolute>
    <PitchBendChange Channel="5" Value="9856"/>
  </Event>
  <Event>
    <Absolute>50004</Absolute>
    <PitchBendChange Channel="5" Value="10368"/>
  </Event>
  <Event>
    <Absolute>50024</Absolute>
    <PitchBendChange Channel="5" Value="10880"/>
  </Event>
  <Event>
    <Absolute>50064</Absolute>
    <PitchBendChange Channel="5" Value="11392"/>
  </Event>
  <Event>
    <Absolute>50120</Absolute>
    <PitchBendChange Channel="5" Value="11904"/>
  </Event>
  <Event>
    <Absolute>50688</Absolute>
    <NoteOff Channel="5" Note="86" Velocity="0"/>
  </Event>
  <Event>
    <Absolute>52224</Absolute>
    <PitchBendChange Channel="5" Value="8192"/>
  </Event>
  <Event>
    <Absolute>62976</Absolute>
    <ControlChange Channel="5" Control="1" Value="1"/>
  </Event>
  <Event>
    <Absolute>62984</Absolute>
    <NoteOn Channel="5" Note="75" Velocity="127"/>
  </Event>
  <Event>
    <Absolute>62984</Absolute>
    <NoteOn Channel="5" Note="82" Velocity="127"/>
  </Event>
  <Event>
    <Absolute>62996</Absolute>
    <NoteOn Channel="5" Note="78" Velocity="127"/>
  </Event>
  <Event>
    <Absolute>65872</Absolute>
    <NoteOff Channel="5" Note="82" Velocity="0"/>
  </Event>
  <Event>
    <Absolute>65924</Absolute>
    <NoteOff Channel="5" Note="78" Velocity="0"/>
  </Event>
  <Event>
    <Absolute>65952</Absolute>
    <NoteOff Channel="5" Note="75" Velocity="0"/>
  </Event>
  <Event>
    <Absolute>66048</Absolute>
    <NoteOn Channel="5" Note="73" Velocity="127"/>
  </Event>
  <Event>
    <Absolute>66076</Absolute>
    <NoteOn Channel="5" Note="80" Velocity="127"/>
  </Event>
  <Event>
    <Absolute>66140</Absolute>
    <NoteOn Channel="5" Note="77" Velocity="127"/>
  </Event>
  <Event>
    <Absolute>68868</Absolute>
    <NoteOff Channel="5" Note="77" Velocity="0"/>
  </Event>
  <Event>
    <Absolute>68896</Absolute>
    <NoteOff Channel="5" Note="80" Velocity="0"/>
  </Event>
  <Event>
    <Absolute>68964</Absolute>
    <NoteOff Channel="5" Note="73" Velocity="0"/>
  </Event>
  <Event>
    <Absolute>69108</Absolute>
    <NoteOn Channel="5" Note="71" Velocity="127"/>
  </Event>
  <Event>
    <Absolute>69108</Absolute>
    <NoteOn Channel="5" Note="75" Velocity="127"/>
  </Event>
  <Event>
    <Absolute>69124</Absolute>
    <NoteOn Channel="5" Note="78" Velocity="127"/>
  </Event>
  <Event>
    <Absolute>71944</Absolute>
    <NoteOff Channel="5" Note="71" Velocity="0"/>
  </Event>
  <Event>
    <Absolute>72012</Absolute>
    <NoteOff Channel="5" Note="78" Velocity="0"/>
  </Event>
  <Event>
    <Absolute>72036</Absolute>
    <NoteOff Channel="5" Note="75" Velocity="0"/>
  </Event>
  <Event>
    <Absolute>72188</Absolute>
    <NoteOn Channel="5" Note="74" Velocity="127"/>
  </Event>
  <Event>
    <Absolute>72224</Absolute>
    <NoteOn Channel="5" Note="77" Velocity="127"/>
  </Event>
  <Event>
    <Absolute>72268</Absolute>
    <NoteOn Channel="5" Note="70" Velocity="127"/>
  </Event>
  <Event>
    <Absolute>73340</Absolute>
    <NoteOff Channel="5" Note="74" Velocity="0"/>
  </Event>
  <Event>
    <Absolute>73376</Absolute>
    <NoteOff Channel="5" Note="77" Velocity="0"/>
  </Event>
  <Event>
    <Absolute>73420</Absolute>
    <NoteOff Channel="5" Note="70" Velocity="0"/>
  </Event>
  <Event>
    <Absolute>75264</Absolute>
    <PitchBendChange Channel="5" Value="8192"/>
  </Event>
  <Event>
    <Absolute>75264</Absolute>
    <ControlChange Channel="5" Control="1" Value="110"/>
  </Event>
  <Event>
    <Absolute>75264</Absolute>
    <NoteOn Channel="5" Note="73" Velocity="127"/>
  </Event>
  <Event>
    <Absolute>75648</Absolute>
    <NoteOff Channel="5" Note="73" Velocity="0"/>
  </Event>
  <Event>
    <Absolute>75648</Absolute>
    <NoteOn Channel="5" Note="85" Velocity="127"/>
  </Event>
  <Event>
    <Absolute>75872</Absolute>
    <PitchBendChange Channel="5" Value="7900"/>
  </Event>
  <Event>
    <Absolute>75888</Absolute>
    <PitchBendChange Channel="5" Value="7388"/>
  </Event>
  <Event>
    <Absolute>75900</Absolute>
    <PitchBendChange Channel="5" Value="6876"/>
  </Event>
  <Event>
    <Absolute>75920</Absolute>
    <PitchBendChange Channel="5" Value="6492"/>
  </Event>
  <Event>
    <Absolute>75940</Absolute>
    <PitchBendChange Channel="5" Value="5852"/>
  </Event>
  <Event>
    <Absolute>75960</Absolute>
    <PitchBendChange Channel="5" Value="5212"/>
  </Event>
  <Event>
    <Absolute>75980</Absolute>
    <PitchBendChange Channel="5" Value="4572"/>
  </Event>
  <Event>
    <Absolute>76000</Absolute>
    <PitchBendChange Channel="5" Value="3548"/>
  </Event>
  <Event>
    <Absolute>76016</Absolute>
    <PitchBendChange Channel="5" Value="2524"/>
  </Event>
  <Event>
    <Absolute>76048</Absolute>
    <PitchBendChange Channel="5" Value="476"/>
  </Event>
  <Event>
    <Absolute>76064</Absolute>
    <PitchBendChange Channel="5" Value="0"/>
  </Event>
  <Event>
    <Absolute>76080</Absolute>
    <PitchBendChange Channel="5" Value="0"/>
  </Event>
  <Event>
    <Absolute>76096</Absolute>
    <PitchBendChange Channel="5" Value="0"/>
  </Event>
  <Event>
    <Absolute>76788</Absolute>
    <PitchBendChange Channel="5" Value="0"/>
  </Event>
  <Event>
    <Absolute>76800</Absolute>
    <NoteOff Channel="5" Note="85" Velocity="0"/>
  </Event>
  <Event>
    <Absolute>76800</Absolute>
    <NoteOn Channel="5" Note="82" Velocity="127"/>
  </Event>
  <Event>
    <Absolute>76800</Absolute>
    <PitchBendChange Channel="5" Value="8192"/>
  </Event>
  <Event>
    <Absolute>77528</Absolute>
    <PitchBendChange Channel="5" Value="8192"/>
  </Event>
  <Event>
    <Absolute>77552</Absolute>
    <PitchBendChange Channel="5" Value="8320"/>
  </Event>
  <Event>
    <Absolute>77568</Absolute>
    <PitchBendChange Channel="5" Value="8832"/>
  </Event>
  <Event>
    <Absolute>77584</Absolute>
    <PitchBendChange Channel="5" Value="9344"/>
  </Event>
  <Event>
    <Absolute>77616</Absolute>
    <PitchBendChange Channel="5" Value="9856"/>
  </Event>
  <Event>
    <Absolute>77652</Absolute>
    <PitchBendChange Channel="5" Value="10368"/>
  </Event>
  <Event>
    <Absolute>77672</Absolute>
    <PitchBendChange Channel="5" Value="10880"/>
  </Event>
  <Event>
    <Absolute>77712</Absolute>
    <PitchBendChange Channel="5" Value="11392"/>
  </Event>
  <Event>
    <Absolute>77768</Absolute>
    <PitchBendChange Channel="5" Value="11904"/>
  </Event>
  <Event>
    <Absolute>78208</Absolute>
    <NoteOff Channel="5" Note="82" Velocity="0"/>
  </Event>
  <Event>
    <Absolute>78276</Absolute>
    <PitchBendChange Channel="5" Value="11904"/>
  </Event>
  <Event>
    <Absolute>78284</Absolute>
    <PitchBendChange Channel="5" Value="11136"/>
  </Event>
  <Event>
    <Absolute>78288</Absolute>
    <PitchBendChange Channel="5" Value="10368"/>
  </Event>
  <Event>
    <Absolute>78296</Absolute>
    <PitchBendChange Channel="5" Value="9472"/>
  </Event>
  <Event>
    <Absolute>78304</Absolute>
    <PitchBendChange Channel="5" Value="8192"/>
  </Event>
  <Event>
    <Absolute>78336</Absolute>
    <NoteOn Channel="5" Note="73" Velocity="127"/>
  </Event>
  <Event>
    <Absolute>78720</Absolute>
    <NoteOff Channel="5" Note="73" Velocity="0"/>
  </Event>
  <Event>
    <Absolute>78720</Absolute>
    <NoteOn Channel="5" Note="85" Velocity="127"/>
  </Event>
  <Event>
    <Absolute>78944</Absolute>
    <PitchBendChange Channel="5" Value="7900"/>
  </Event>
  <Event>
    <Absolute>78960</Absolute>
    <PitchBendChange Channel="5" Value="7388"/>
  </Event>
  <Event>
    <Absolute>78972</Absolute>
    <PitchBendChange Channel="5" Value="6876"/>
  </Event>
  <Event>
    <Absolute>78992</Absolute>
    <PitchBendChange Channel="5" Value="6492"/>
  </Event>
  <Event>
    <Absolute>79012</Absolute>
    <PitchBendChange Channel="5" Value="5852"/>
  </Event>
  <Event>
    <Absolute>79032</Absolute>
    <PitchBendChange Channel="5" Value="5212"/>
  </Event>
  <Event>
    <Absolute>79052</Absolute>
    <PitchBendChange Channel="5" Value="4572"/>
  </Event>
  <Event>
    <Absolute>79072</Absolute>
    <PitchBendChange Channel="5" Value="3548"/>
  </Event>
  <Event>
    <Absolute>79088</Absolute>
    <PitchBendChange Channel="5" Value="2524"/>
  </Event>
  <Event>
    <Absolute>79120</Absolute>
    <PitchBendChange Channel="5" Value="476"/>
  </Event>
  <Event>
    <Absolute>79136</Absolute>
    <PitchBendChange Channel="5" Value="0"/>
  </Event>
  <Event>
    <Absolute>79152</Absolute>
    <PitchBendChange Channel="5" Value="0"/>
  </Event>
  <Event>
    <Absolute>79168</Absolute>
    <PitchBendChange Channel="5" Value="0"/>
  </Event>
  <Event>
    <Absolute>79860</Absolute>
    <PitchBendChange Channel="5" Value="0"/>
  </Event>
  <Event>
    <Absolute>79872</Absolute>
    <NoteOff Channel="5" Note="85" Velocity="0"/>
  </Event>
  <Event>
    <Absolute>79872</Absolute>
    <NoteOn Channel="5" Note="82" Velocity="127"/>
  </Event>
  <Event>
    <Absolute>79872</Absolute>
    <PitchBendChange Channel="5" Value="8192"/>
  </Event>
  <Event>
    <Absolute>80600</Absolute>
    <PitchBendChange Channel="5" Value="8192"/>
  </Event>
  <Event>
    <Absolute>80624</Absolute>
    <PitchBendChange Channel="5" Value="8320"/>
  </Event>
  <Event>
    <Absolute>80640</Absolute>
    <PitchBendChange Channel="5" Value="8832"/>
  </Event>
  <Event>
    <Absolute>80656</Absolute>
    <PitchBendChange Channel="5" Value="9344"/>
  </Event>
  <Event>
    <Absolute>80688</Absolute>
    <PitchBendChange Channel="5" Value="9856"/>
  </Event>
  <Event>
    <Absolute>80724</Absolute>
    <PitchBendChange Channel="5" Value="10368"/>
  </Event>
  <Event>
    <Absolute>80744</Absolute>
    <PitchBendChange Channel="5" Value="10880"/>
  </Event>
  <Event>
    <Absolute>80784</Absolute>
    <PitchBendChange Channel="5" Value="11392"/>
  </Event>
  <Event>
    <Absolute>80840</Absolute>
    <PitchBendChange Channel="5" Value="11904"/>
  </Event>
  <Event>
    <Absolute>81280</Absolute>
    <NoteOff Channel="5" Note="82" Velocity="0"/>
  </Event>
  <Event>
    <Absolute>81348</Absolute>
    <PitchBendChange Channel="5" Value="11904"/>
  </Event>
  <Event>
    <Absolute>81356</Absolute>
    <PitchBendChange Channel="5" Value="11136"/>
  </Event>
  <Event>
    <Absolute>81360</Absolute>
    <PitchBendChange Channel="5" Value="10368"/>
  </Event>
  <Event>
    <Absolute>81368</Absolute>
    <PitchBendChange Channel="5" Value="9472"/>
  </Event>
  <Event>
    <Absolute>81376</Absolute>
    <PitchBendChange Channel="5" Value="8192"/>
  </Event>
  <Event>
    <Absolute>81408</Absolute>
    <NoteOn Channel="5" Note="73" Velocity="127"/>
  </Event>
  <Event>
    <Absolute>81792</Absolute>
    <NoteOff Channel="5" Note="73" Velocity="0"/>
  </Event>
  <Event>
    <Absolute>81792</Absolute>
    <NoteOn Channel="5" Note="85" Velocity="127"/>
  </Event>
  <Event>
    <Absolute>82016</Absolute>
    <PitchBendChange Channel="5" Value="7900"/>
  </Event>
  <Event>
    <Absolute>82032</Absolute>
    <PitchBendChange Channel="5" Value="7388"/>
  </Event>
  <Event>
    <Absolute>82044</Absolute>
    <PitchBendChange Channel="5" Value="6876"/>
  </Event>
  <Event>
    <Absolute>82064</Absolute>
    <PitchBendChange Channel="5" Value="6492"/>
  </Event>
  <Event>
    <Absolute>82084</Absolute>
    <PitchBendChange Channel="5" Value="5852"/>
  </Event>
  <Event>
    <Absolute>82104</Absolute>
    <PitchBendChange Channel="5" Value="5212"/>
  </Event>
  <Event>
    <Absolute>82124</Absolute>
    <PitchBendChange Channel="5" Value="4572"/>
  </Event>
  <Event>
    <Absolute>82144</Absolute>
    <PitchBendChange Channel="5" Value="3548"/>
  </Event>
  <Event>
    <Absolute>82160</Absolute>
    <PitchBendChange Channel="5" Value="2524"/>
  </Event>
  <Event>
    <Absolute>82192</Absolute>
    <PitchBendChange Channel="5" Value="476"/>
  </Event>
  <Event>
    <Absolute>82208</Absolute>
    <PitchBendChange Channel="5" Value="0"/>
  </Event>
  <Event>
    <Absolute>82224</Absolute>
    <PitchBendChange Channel="5" Value="0"/>
  </Event>
  <Event>
    <Absolute>82240</Absolute>
    <PitchBendChange Channel="5" Value="0"/>
  </Event>
  <Event>
    <Absolute>82932</Absolute>
    <PitchBendChange Channel="5" Value="0"/>
  </Event>
  <Event>
    <Absolute>82944</Absolute>
    <NoteOff Channel="5" Note="85" Velocity="0"/>
  </Event>
  <Event>
    <Absolute>82944</Absolute>
    <NoteOn Channel="5" Note="82" Velocity="127"/>
  </Event>
  <Event>
    <Absolute>82944</Absolute>
    <PitchBendChange Channel="5" Value="8192"/>
  </Event>
  <Event>
    <Absolute>83672</Absolute>
    <PitchBendChange Channel="5" Value="8192"/>
  </Event>
  <Event>
    <Absolute>83696</Absolute>
    <PitchBendChange Channel="5" Value="8320"/>
  </Event>
  <Event>
    <Absolute>83712</Absolute>
    <PitchBendChange Channel="5" Value="8832"/>
  </Event>
  <Event>
    <Absolute>83728</Absolute>
    <PitchBendChange Channel="5" Value="9344"/>
  </Event>
  <Event>
    <Absolute>83760</Absolute>
    <PitchBendChange Channel="5" Value="9856"/>
  </Event>
  <Event>
    <Absolute>83796</Absolute>
    <PitchBendChange Channel="5" Value="10368"/>
  </Event>
  <Event>
    <Absolute>83816</Absolute>
    <PitchBendChange Channel="5" Value="10880"/>
  </Event>
  <Event>
    <Absolute>83856</Absolute>
    <PitchBendChange Channel="5" Value="11392"/>
  </Event>
  <Event>
    <Absolute>83912</Absolute>
    <PitchBendChange Channel="5" Value="11904"/>
  </Event>
  <Event>
    <Absolute>84352</Absolute>
    <NoteOff Channel="5" Note="82" Velocity="0"/>
  </Event>
  <Event>
    <Absolute>84420</Absolute>
    <PitchBendChange Channel="5" Value="11904"/>
  </Event>
  <Event>
    <Absolute>84428</Absolute>
    <PitchBendChange Channel="5" Value="11136"/>
  </Event>
  <Event>
    <Absolute>84432</Absolute>
    <PitchBendChange Channel="5" Value="10368"/>
  </Event>
  <Event>
    <Absolute>84440</Absolute>
    <PitchBendChange Channel="5" Value="9472"/>
  </Event>
  <Event>
    <Absolute>84448</Absolute>
    <PitchBendChange Channel="5" Value="8192"/>
  </Event>
  <Event>
    <Absolute>84480</Absolute>
    <NoteOn Channel="5" Note="73" Velocity="127"/>
  </Event>
  <Event>
    <Absolute>84864</Absolute>
    <NoteOff Channel="5" Note="73" Velocity="0"/>
  </Event>
  <Event>
    <Absolute>84864</Absolute>
    <NoteOn Channel="5" Note="85" Velocity="127"/>
  </Event>
  <Event>
    <Absolute>85088</Absolute>
    <PitchBendChange Channel="5" Value="7900"/>
  </Event>
  <Event>
    <Absolute>85104</Absolute>
    <PitchBendChange Channel="5" Value="7388"/>
  </Event>
  <Event>
    <Absolute>85116</Absolute>
    <PitchBendChange Channel="5" Value="6876"/>
  </Event>
  <Event>
    <Absolute>85136</Absolute>
    <PitchBendChange Channel="5" Value="6492"/>
  </Event>
  <Event>
    <Absolute>85156</Absolute>
    <PitchBendChange Channel="5" Value="5852"/>
  </Event>
  <Event>
    <Absolute>85176</Absolute>
    <PitchBendChange Channel="5" Value="5212"/>
  </Event>
  <Event>
    <Absolute>85196</Absolute>
    <PitchBendChange Channel="5" Value="4572"/>
  </Event>
  <Event>
    <Absolute>85216</Absolute>
    <PitchBendChange Channel="5" Value="3548"/>
  </Event>
  <Event>
    <Absolute>85232</Absolute>
    <PitchBendChange Channel="5" Value="2524"/>
  </Event>
  <Event>
    <Absolute>85264</Absolute>
    <PitchBendChange Channel="5" Value="476"/>
  </Event>
  <Event>
    <Absolute>85280</Absolute>
    <PitchBendChange Channel="5" Value="0"/>
  </Event>
  <Event>
    <Absolute>85296</Absolute>
    <PitchBendChange Channel="5" Value="0"/>
  </Event>
  <Event>
    <Absolute>85312</Absolute>
    <PitchBendChange Channel="5" Value="0"/>
  </Event>
  <Event>
    <Absolute>86004</Absolute>
    <PitchBendChange Channel="5" Value="0"/>
  </Event>
  <Event>
    <Absolute>86016</Absolute>
    <NoteOff Channel="5" Note="85" Velocity="0"/>
  </Event>
  <Event>
    <Absolute>86016</Absolute>
    <NoteOn Channel="5" Note="82" Velocity="127"/>
  </Event>
  <Event>
    <Absolute>86016</Absolute>
    <PitchBendChange Channel="5" Value="8192"/>
  </Event>
  <Event>
    <Absolute>86744</Absolute>
    <PitchBendChange Channel="5" Value="8192"/>
  </Event>
  <Event>
    <Absolute>86768</Absolute>
    <PitchBendChange Channel="5" Value="8320"/>
  </Event>
  <Event>
    <Absolute>86784</Absolute>
    <PitchBendChange Channel="5" Value="8832"/>
  </Event>
  <Event>
    <Absolute>86800</Absolute>
    <PitchBendChange Channel="5" Value="9344"/>
  </Event>
  <Event>
    <Absolute>86832</Absolute>
    <PitchBendChange Channel="5" Value="9856"/>
  </Event>
  <Event>
    <Absolute>86868</Absolute>
    <PitchBendChange Channel="5" Value="10368"/>
  </Event>
  <Event>
    <Absolute>86888</Absolute>
    <PitchBendChange Channel="5" Value="10880"/>
  </Event>
  <Event>
    <Absolute>86928</Absolute>
    <PitchBendChange Channel="5" Value="11392"/>
  </Event>
  <Event>
    <Absolute>86984</Absolute>
    <PitchBendChange Channel="5" Value="11904"/>
  </Event>
  <Event>
    <Absolute>87296</Absolute>
    <NoteOff Channel="5" Note="82" Velocity="0"/>
  </Event>
  <Event>
    <Absolute>87492</Absolute>
    <PitchBendChange Channel="5" Value="11904"/>
  </Event>
  <Event>
    <Absolute>87500</Absolute>
    <PitchBendChange Channel="5" Value="11136"/>
  </Event>
  <Event>
    <Absolute>87504</Absolute>
    <PitchBendChange Channel="5" Value="10368"/>
  </Event>
  <Event>
    <Absolute>87512</Absolute>
    <PitchBendChange Channel="5" Value="9472"/>
  </Event>
  <Event>
    <Absolute>87520</Absolute>
    <PitchBendChange Channel="5" Value="8192"/>
  </Event>
  <Event>
    <Absolute>87552</Absolute>
    <NoteOn Channel="5" Note="75" Velocity="127"/>
  </Event>
  <Event>
    <Absolute>87936</Absolute>
    <NoteOff Channel="5" Note="75" Velocity="0"/>
  </Event>
  <Event>
    <Absolute>87936</Absolute>
    <NoteOn Channel="5" Note="87" Velocity="127"/>
  </Event>
  <Event>
    <Absolute>88160</Absolute>
    <PitchBendChange Channel="5" Value="7900"/>
  </Event>
  <Event>
    <Absolute>88176</Absolute>
    <PitchBendChange Channel="5" Value="7388"/>
  </Event>
  <Event>
    <Absolute>88188</Absolute>
    <PitchBendChange Channel="5" Value="6876"/>
  </Event>
  <Event>
    <Absolute>88208</Absolute>
    <PitchBendChange Channel="5" Value="6492"/>
  </Event>
  <Event>
    <Absolute>88228</Absolute>
    <PitchBendChange Channel="5" Value="5852"/>
  </Event>
  <Event>
    <Absolute>88248</Absolute>
    <PitchBendChange Channel="5" Value="5212"/>
  </Event>
  <Event>
    <Absolute>88268</Absolute>
    <PitchBendChange Channel="5" Value="4572"/>
  </Event>
  <Event>
    <Absolute>88288</Absolute>
    <PitchBendChange Channel="5" Value="3548"/>
  </Event>
  <Event>
    <Absolute>88304</Absolute>
    <PitchBendChange Channel="5" Value="2524"/>
  </Event>
  <Event>
    <Absolute>88336</Absolute>
    <PitchBendChange Channel="5" Value="476"/>
  </Event>
  <Event>
    <Absolute>88352</Absolute>
    <PitchBendChange Channel="5" Value="0"/>
  </Event>
  <Event>
    <Absolute>88368</Absolute>
    <PitchBendChange Channel="5" Value="0"/>
  </Event>
  <Event>
    <Absolute>88384</Absolute>
    <PitchBendChange Channel="5" Value="0"/>
  </Event>
  <Event>
    <Absolute>89076</Absolute>
    <PitchBendChange Channel="5" Value="0"/>
  </Event>
  <Event>
    <Absolute>89088</Absolute>
    <NoteOff Channel="5" Note="87" Velocity="0"/>
  </Event>
  <Event>
    <Absolute>89088</Absolute>
    <NoteOn Channel="5" Note="84" Velocity="127"/>
  </Event>
  <Event>
    <Absolute>89088</Absolute>
    <PitchBendChange Channel="5" Value="8192"/>
  </Event>
  <Event>
    <Absolute>89816</Absolute>
    <PitchBendChange Channel="5" Value="8192"/>
  </Event>
  <Event>
    <Absolute>89840</Absolute>
    <PitchBendChange Channel="5" Value="8320"/>
  </Event>
  <Event>
    <Absolute>89856</Absolute>
    <PitchBendChange Channel="5" Value="8832"/>
  </Event>
  <Event>
    <Absolute>89872</Absolute>
    <PitchBendChange Channel="5" Value="9344"/>
  </Event>
  <Event>
    <Absolute>89904</Absolute>
    <PitchBendChange Channel="5" Value="9856"/>
  </Event>
  <Event>
    <Absolute>89940</Absolute>
    <PitchBendChange Channel="5" Value="10368"/>
  </Event>
  <Event>
    <Absolute>89960</Absolute>
    <PitchBendChange Channel="5" Value="10880"/>
  </Event>
  <Event>
    <Absolute>90000</Absolute>
    <PitchBendChange Channel="5" Value="11392"/>
  </Event>
  <Event>
    <Absolute>90056</Absolute>
    <PitchBendChange Channel="5" Value="11904"/>
  </Event>
  <Event>
    <Absolute>90496</Absolute>
    <NoteOff Channel="5" Note="84" Velocity="0"/>
  </Event>
  <Event>
    <Absolute>90564</Absolute>
    <PitchBendChange Channel="5" Value="11904"/>
  </Event>
  <Event>
    <Absolute>90572</Absolute>
    <PitchBendChange Channel="5" Value="11136"/>
  </Event>
  <Event>
    <Absolute>90576</Absolute>
    <PitchBendChange Channel="5" Value="10368"/>
  </Event>
  <Event>
    <Absolute>90584</Absolute>
    <PitchBendChange Channel="5" Value="9472"/>
  </Event>
  <Event>
    <Absolute>90592</Absolute>
    <PitchBendChange Channel="5" Value="8192"/>
  </Event>
  <Event>
    <Absolute>90624</Absolute>
    <NoteOn Channel="5" Note="75" Velocity="127"/>
  </Event>
  <Event>
    <Absolute>91008</Absolute>
    <NoteOff Channel="5" Note="75" Velocity="0"/>
  </Event>
  <Event>
    <Absolute>91008</Absolute>
    <NoteOn Channel="5" Note="87" Velocity="127"/>
  </Event>
  <Event>
    <Absolute>91232</Absolute>
    <PitchBendChange Channel="5" Value="7900"/>
  </Event>
  <Event>
    <Absolute>91248</Absolute>
    <PitchBendChange Channel="5" Value="7388"/>
  </Event>
  <Event>
    <Absolute>91260</Absolute>
    <PitchBendChange Channel="5" Value="6876"/>
  </Event>
  <Event>
    <Absolute>91280</Absolute>
    <PitchBendChange Channel="5" Value="6492"/>
  </Event>
  <Event>
    <Absolute>91300</Absolute>
    <PitchBendChange Channel="5" Value="5852"/>
  </Event>
  <Event>
    <Absolute>91320</Absolute>
    <PitchBendChange Channel="5" Value="5212"/>
  </Event>
  <Event>
    <Absolute>91340</Absolute>
    <PitchBendChange Channel="5" Value="4572"/>
  </Event>
  <Event>
    <Absolute>91360</Absolute>
    <PitchBendChange Channel="5" Value="3548"/>
  </Event>
  <Event>
    <Absolute>91376</Absolute>
    <PitchBendChange Channel="5" Value="2524"/>
  </Event>
  <Event>
    <Absolute>91408</Absolute>
    <PitchBendChange Channel="5" Value="476"/>
  </Event>
  <Event>
    <Absolute>91424</Absolute>
    <PitchBendChange Channel="5" Value="0"/>
  </Event>
  <Event>
    <Absolute>91440</Absolute>
    <PitchBendChange Channel="5" Value="0"/>
  </Event>
  <Event>
    <Absolute>91456</Absolute>
    <PitchBendChange Channel="5" Value="0"/>
  </Event>
  <Event>
    <Absolute>92148</Absolute>
    <PitchBendChange Channel="5" Value="0"/>
  </Event>
  <Event>
    <Absolute>92160</Absolute>
    <NoteOff Channel="5" Note="87" Velocity="0"/>
  </Event>
  <Event>
    <Absolute>92160</Absolute>
    <NoteOn Channel="5" Note="84" Velocity="127"/>
  </Event>
  <Event>
    <Absolute>92160</Absolute>
    <PitchBendChange Channel="5" Value="8192"/>
  </Event>
  <Event>
    <Absolute>92888</Absolute>
    <PitchBendChange Channel="5" Value="8192"/>
  </Event>
  <Event>
    <Absolute>92912</Absolute>
    <PitchBendChange Channel="5" Value="8320"/>
  </Event>
  <Event>
    <Absolute>92928</Absolute>
    <PitchBendChange Channel="5" Value="8832"/>
  </Event>
  <Event>
    <Absolute>92944</Absolute>
    <PitchBendChange Channel="5" Value="9344"/>
  </Event>
  <Event>
    <Absolute>92976</Absolute>
    <PitchBendChange Channel="5" Value="9856"/>
  </Event>
  <Event>
    <Absolute>93012</Absolute>
    <PitchBendChange Channel="5" Value="10368"/>
  </Event>
  <Event>
    <Absolute>93032</Absolute>
    <PitchBendChange Channel="5" Value="10880"/>
  </Event>
  <Event>
    <Absolute>93072</Absolute>
    <PitchBendChange Channel="5" Value="11392"/>
  </Event>
  <Event>
    <Absolute>93128</Absolute>
    <PitchBendChange Channel="5" Value="11904"/>
  </Event>
  <Event>
    <Absolute>93636</Absolute>
    <PitchBendChange Channel="5" Value="11904"/>
  </Event>
  <Event>
    <Absolute>93644</Absolute>
    <PitchBendChange Channel="5" Value="11136"/>
  </Event>
  <Event>
    <Absolute>93648</Absolute>
    <PitchBendChange Channel="5" Value="10368"/>
  </Event>
  <Event>
    <Absolute>93656</Absolute>
    <PitchBendChange Channel="5" Value="9472"/>
  </Event>
  <Event>
    <Absolute>93664</Absolute>
    <PitchBendChange Channel="5" Value="8192"/>
  </Event>
  <Event>
    <Absolute>93696</Absolute>
    <NoteOff Channel="5" Note="84" Velocity="0"/>
  </Event>
  <Event>
    <Absolute>93696</Absolute>
    <NoteOn Channel="5" Note="77" Velocity="127"/>
  </Event>
  <Event>
    <Absolute>94080</Absolute>
    <NoteOff Channel="5" Note="77" Velocity="0"/>
  </Event>
  <Event>
    <Absolute>94080</Absolute>
    <NoteOn Channel="5" Note="89" Velocity="127"/>
  </Event>
  <Event>
    <Absolute>94304</Absolute>
    <PitchBendChange Channel="5" Value="7900"/>
  </Event>
  <Event>
    <Absolute>94320</Absolute>
    <PitchBendChange Channel="5" Value="7388"/>
  </Event>
  <Event>
    <Absolute>94332</Absolute>
    <PitchBendChange Channel="5" Value="6876"/>
  </Event>
  <Event>
    <Absolute>94352</Absolute>
    <PitchBendChange Channel="5" Value="6492"/>
  </Event>
  <Event>
    <Absolute>94372</Absolute>
    <PitchBendChange Channel="5" Value="5852"/>
  </Event>
  <Event>
    <Absolute>94392</Absolute>
    <PitchBendChange Channel="5" Value="5212"/>
  </Event>
  <Event>
    <Absolute>94412</Absolute>
    <PitchBendChange Channel="5" Value="4572"/>
  </Event>
  <Event>
    <Absolute>94432</Absolute>
    <PitchBendChange Channel="5" Value="3548"/>
  </Event>
  <Event>
    <Absolute>94448</Absolute>
    <PitchBendChange Channel="5" Value="2524"/>
  </Event>
  <Event>
    <Absolute>94480</Absolute>
    <PitchBendChange Channel="5" Value="476"/>
  </Event>
  <Event>
    <Absolute>94496</Absolute>
    <PitchBendChange Channel="5" Value="0"/>
  </Event>
  <Event>
    <Absolute>94512</Absolute>
    <PitchBendChange Channel="5" Value="0"/>
  </Event>
  <Event>
    <Absolute>94528</Absolute>
    <PitchBendChange Channel="5" Value="0"/>
  </Event>
  <Event>
    <Absolute>95220</Absolute>
    <PitchBendChange Channel="5" Value="0"/>
  </Event>
  <Event>
    <Absolute>95232</Absolute>
    <NoteOff Channel="5" Note="89" Velocity="0"/>
  </Event>
  <Event>
    <Absolute>95232</Absolute>
    <NoteOn Channel="5" Note="86" Velocity="127"/>
  </Event>
  <Event>
    <Absolute>95232</Absolute>
    <PitchBendChange Channel="5" Value="8192"/>
  </Event>
  <Event>
    <Absolute>95960</Absolute>
    <PitchBendChange Channel="5" Value="8192"/>
  </Event>
  <Event>
    <Absolute>95984</Absolute>
    <PitchBendChange Channel="5" Value="8320"/>
  </Event>
  <Event>
    <Absolute>96000</Absolute>
    <PitchBendChange Channel="5" Value="8832"/>
  </Event>
  <Event>
    <Absolute>96016</Absolute>
    <PitchBendChange Channel="5" Value="9344"/>
  </Event>
  <Event>
    <Absolute>96048</Absolute>
    <PitchBendChange Channel="5" Value="9856"/>
  </Event>
  <Event>
    <Absolute>96084</Absolute>
    <PitchBendChange Channel="5" Value="10368"/>
  </Event>
  <Event>
    <Absolute>96104</Absolute>
    <PitchBendChange Channel="5" Value="10880"/>
  </Event>
  <Event>
    <Absolute>96144</Absolute>
    <PitchBendChange Channel="5" Value="11392"/>
  </Event>
  <Event>
    <Absolute>96200</Absolute>
    <PitchBendChange Channel="5" Value="11904"/>
  </Event>
  <Event>
    <Absolute>96708</Absolute>
    <PitchBendChange Channel="5" Value="11904"/>
  </Event>
  <Event>
    <Absolute>96716</Absolute>
    <PitchBendChange Channel="5" Value="11136"/>
  </Event>
  <Event>
    <Absolute>96720</Absolute>
    <PitchBendChange Channel="5" Value="10368"/>
  </Event>
  <Event>
    <Absolute>96728</Absolute>
    <PitchBendChange Channel="5" Value="9472"/>
  </Event>
  <Event>
    <Absolute>96736</Absolute>
    <PitchBendChange Channel="5" Value="8192"/>
  </Event>
  <Event>
    <Absolute>96768</Absolute>
    <NoteOff Channel="5" Note="86" Velocity="0"/>
  </Event>
  <Event>
    <Absolute>96768</Absolute>
    <NoteOn Channel="5" Note="77" Velocity="127"/>
  </Event>
  <Event>
    <Absolute>97152</Absolute>
    <NoteOff Channel="5" Note="77" Velocity="0"/>
  </Event>
  <Event>
    <Absolute>97152</Absolute>
    <NoteOn Channel="5" Note="89" Velocity="127"/>
  </Event>
  <Event>
    <Absolute>97376</Absolute>
    <PitchBendChange Channel="5" Value="7900"/>
  </Event>
  <Event>
    <Absolute>97392</Absolute>
    <PitchBendChange Channel="5" Value="7388"/>
  </Event>
  <Event>
    <Absolute>97404</Absolute>
    <PitchBendChange Channel="5" Value="6876"/>
  </Event>
  <Event>
    <Absolute>97424</Absolute>
    <PitchBendChange Channel="5" Value="6492"/>
  </Event>
  <Event>
    <Absolute>97444</Absolute>
    <PitchBendChange Channel="5" Value="5852"/>
  </Event>
  <Event>
    <Absolute>97464</Absolute>
    <PitchBendChange Channel="5" Value="5212"/>
  </Event>
  <Event>
    <Absolute>97484</Absolute>
    <PitchBendChange Channel="5" Value="4572"/>
  </Event>
  <Event>
    <Absolute>97504</Absolute>
    <PitchBendChange Channel="5" Value="3548"/>
  </Event>
  <Event>
    <Absolute>97520</Absolute>
    <PitchBendChange Channel="5" Value="2524"/>
  </Event>
  <Event>
    <Absolute>97552</Absolute>
    <PitchBendChange Channel="5" Value="476"/>
  </Event>
  <Event>
    <Absolute>97568</Absolute>
    <PitchBendChange Channel="5" Value="0"/>
  </Event>
  <Event>
    <Absolute>97584</Absolute>
    <PitchBendChange Channel="5" Value="0"/>
  </Event>
  <Event>
    <Absolute>97600</Absolute>
    <PitchBendChange Channel="5" Value="0"/>
  </Event>
  <Event>
    <Absolute>98292</Absolute>
    <PitchBendChange Channel="5" Value="0"/>
  </Event>
  <Event>
    <Absolute>98304</Absolute>
    <NoteOff Channel="5" Note="89" Velocity="0"/>
  </Event>
  <Event>
    <Absolute>98304</Absolute>
    <NoteOn Channel="5" Note="86" Velocity="127"/>
  </Event>
  <Event>
    <Absolute>98304</Absolute>
    <PitchBendChange Channel="5" Value="8192"/>
  </Event>
  <Event>
    <Absolute>99032</Absolute>
    <PitchBendChange Channel="5" Value="8192"/>
  </Event>
  <Event>
    <Absolute>99056</Absolute>
    <PitchBendChange Channel="5" Value="8320"/>
  </Event>
  <Event>
    <Absolute>99072</Absolute>
    <PitchBendChange Channel="5" Value="8832"/>
  </Event>
  <Event>
    <Absolute>99088</Absolute>
    <PitchBendChange Channel="5" Value="9344"/>
  </Event>
  <Event>
    <Absolute>99120</Absolute>
    <PitchBendChange Channel="5" Value="9856"/>
  </Event>
  <Event>
    <Absolute>99156</Absolute>
    <PitchBendChange Channel="5" Value="10368"/>
  </Event>
  <Event>
    <Absolute>99176</Absolute>
    <PitchBendChange Channel="5" Value="10880"/>
  </Event>
  <Event>
    <Absolute>99216</Absolute>
    <PitchBendChange Channel="5" Value="11392"/>
  </Event>
  <Event>
    <Absolute>99272</Absolute>
    <PitchBendChange Channel="5" Value="11904"/>
  </Event>
  <Event>
    <Absolute>99840</Absolute>
    <NoteOff Channel="5" Note="86" Velocity="0"/>
  </Event>
  <Event>
    <Absolute>139536</Absolute>
    <ControlChange Channel="5" Control="7" Value="70"/>
  </Event>
  <Event>
    <Absolute>139600</Absolute>
    <ControlChange Channel="5" Control="7" Value="69"/>
  </Event>
  <Event>
    <Absolute>139648</Absolute>
    <ControlChange Channel="5" Control="7" Value="68"/>
  </Event>
  <Event>
    <Absolute>139680</Absolute>
    <ControlChange Channel="5" Control="7" Value="66"/>
  </Event>
  <Event>
    <Absolute>139840</Absolute>
    <ControlChange Channel="5" Control="7" Value="65"/>
  </Event>
  <Event>
    <Absolute>139920</Absolute>
    <ControlChange Channel="5" Control="7" Value="64"/>
  </Event>
  <Event>
    <Absolute>140000</Absolute>
    <ControlChange Channel="5" Control="7" Value="63"/>
  </Event>
  <Event>
    <Absolute>140016</Absolute>
    <ControlChange Channel="5" Control="7" Value="62"/>
  </Event>
  <Event>
    <Absolute>140112</Absolute>
    <ControlChange Channel="5" Control="7" Value="61"/>
  </Event>
  <Event>
    <Absolute>140336</Absolute>
    <ControlChange Channel="5" Control="7" Value="60"/>
  </Event>
  <Event>
    <Absolute>142640</Absolute>
    <ControlChange Channel="5" Control="91" Value="127"/>
  </Event>
  <Event>
    <Absolute>143232</Absolute>
    <PitchBendChange Channel="5" Value="8192"/>
  </Event>
  <Event>
    <Absolute>143232</Absolute>
    <ControlChange Channel="5" Control="1" Value="1"/>
  </Event>
  <Event>
    <Absolute>143232</Absolute>
    <NoteOn Channel="5" Note="81" Velocity="100"/>
  </Event>
  <Event>
    <Absolute>144000</Absolute>
    <NoteOff Channel="5" Note="81" Velocity="0"/>
  </Event>
  <Event>
    <Absolute>144000</Absolute>
    <NoteOn Channel="5" Note="80" Velocity="100"/>
  </Event>
  <Event>
    <Absolute>144192</Absolute>
    <NoteOff Channel="5" Note="80" Velocity="0"/>
  </Event>
  <Event>
    <Absolute>144192</Absolute>
    <NoteOn Channel="5" Note="81" Velocity="100"/>
  </Event>
  <Event>
    <Absolute>144576</Absolute>
    <NoteOff Channel="5" Note="81" Velocity="0"/>
  </Event>
  <Event>
    <Absolute>144768</Absolute>
    <NoteOn Channel="5" Note="72" Velocity="100"/>
  </Event>
  <Event>
    <Absolute>145056</Absolute>
    <NoteOff Channel="5" Note="72" Velocity="0"/>
  </Event>
  <Event>
    <Absolute>145152</Absolute>
    <NoteOn Channel="5" Note="74" Velocity="100"/>
  </Event>
  <Event>
    <Absolute>145536</Absolute>
    <NoteOff Channel="5" Note="74" Velocity="0"/>
  </Event>
  <Event>
    <Absolute>145536</Absolute>
    <NoteOn Channel="5" Note="77" Velocity="100"/>
  </Event>
  <Event>
    <Absolute>146016</Absolute>
    <NoteOff Channel="5" Note="77" Velocity="0"/>
  </Event>
  <Event>
    <Absolute>146272</Absolute>
    <ControlChange Channel="5" Control="7" Value="61"/>
  </Event>
  <Event>
    <Absolute>146304</Absolute>
    <NoteOn Channel="5" Note="79" Velocity="100"/>
  </Event>
  <Event>
    <Absolute>146496</Absolute>
    <NoteOff Channel="5" Note="79" Velocity="0"/>
  </Event>
  <Event>
    <Absolute>146496</Absolute>
    <NoteOn Channel="5" Note="79" Velocity="100"/>
  </Event>
  <Event>
    <Absolute>146784</Absolute>
    <NoteOff Channel="5" Note="79" Velocity="0"/>
  </Event>
  <Event>
    <Absolute>146880</Absolute>
    <NoteOn Channel="5" Note="79" Velocity="100"/>
  </Event>
  <Event>
    <Absolute>147168</Absolute>
    <NoteOff Channel="5" Note="79" Velocity="0"/>
  </Event>
  <Event>
    <Absolute>147264</Absolute>
    <NoteOn Channel="5" Note="79" Velocity="100"/>
  </Event>
  <Event>
    <Absolute>147456</Absolute>
    <NoteOff Channel="5" Note="79" Velocity="0"/>
  </Event>
  <Event>
    <Absolute>147456</Absolute>
    <ControlChange Channel="5" Control="7" Value="62"/>
  </Event>
  <Event>
    <Absolute>147456</Absolute>
    <NoteOn Channel="5" Note="81" Velocity="100"/>
  </Event>
  <Event>
    <Absolute>147744</Absolute>
    <NoteOff Channel="5" Note="81" Velocity="0"/>
  </Event>
  <Event>
    <Absolute>147824</Absolute>
    <ControlChange Channel="5" Control="7" Value="64"/>
  </Event>
  <Event>
    <Absolute>147840</Absolute>
    <NoteOn Channel="5" Note="79" Velocity="100"/>
  </Event>
  <Event>
    <Absolute>148128</Absolute>
    <NoteOff Channel="5" Note="79" Velocity="0"/>
  </Event>
  <Event>
    <Absolute>148224</Absolute>
    <NoteOn Channel="5" Note="77" Velocity="100"/>
  </Event>
  <Event>
    <Absolute>148416</Absolute>
    <NoteOn Channel="5" Note="74" Velocity="100"/>
  </Event>
  <Event>
    <Absolute>148464</Absolute>
    <ControlChange Channel="5" Control="7" Value="65"/>
  </Event>
  <Event>
    <Absolute>148512</Absolute>
    <NoteOff Channel="5" Note="77" Velocity="0"/>
  </Event>
  <Event>
    <Absolute>148560</Absolute>
    <ControlChange Channel="5" Control="7" Value="66"/>
  </Event>
  <Event>
    <Absolute>148912</Absolute>
    <ControlChange Channel="5" Control="7" Value="67"/>
  </Event>
  <Event>
    <Absolute>148992</Absolute>
    <NoteOff Channel="5" Note="74" Velocity="0"/>
  </Event>
  <Event>
    <Absolute>148996</Absolute>
    <NoteOn Channel="5" Note="89" Velocity="78"/>
  </Event>
  <Event>
    <Absolute>149012</Absolute>
    <ControlChange Channel="5" Control="7" Value="68"/>
  </Event>
  <Event>
    <Absolute>149328</Absolute>
    <ControlChange Channel="5" Control="7" Value="69"/>
  </Event>
  <Event>
    <Absolute>149376</Absolute>
    <NoteOn Channel="5" Note="81" Velocity="94"/>
  </Event>
  <Event>
    <Absolute>149680</Absolute>
    <ControlChange Channel="5" Control="7" Value="70"/>
  </Event>
  <Event>
    <Absolute>149856</Absolute>
    <ControlChange Channel="5" Control="7" Value="71"/>
  </Event>
  <Event>
    <Absolute>149920</Absolute>
    <ControlChange Channel="5" Control="7" Value="72"/>
  </Event>
  <Event>
    <Absolute>150080</Absolute>
    <ControlChange Channel="5" Control="7" Value="73"/>
  </Event>
  <Event>
    <Absolute>150144</Absolute>
    <NoteOff Channel="5" Note="81" Velocity="0"/>
  </Event>
  <Event>
    <Absolute>150144</Absolute>
    <NoteOn Channel="5" Note="80" Velocity="82"/>
  </Event>
  <Event>
    <Absolute>150336</Absolute>
    <NoteOff Channel="5" Note="80" Velocity="0"/>
  </Event>
  <Event>
    <Absolute>150336</Absolute>
    <NoteOn Channel="5" Note="81" Velocity="79"/>
  </Event>
  <Event>
    <Absolute>150528</Absolute>
    <ControlChange Channel="5" Control="7" Value="74"/>
  </Event>
  <Event>
    <Absolute>150720</Absolute>
    <NoteOff Channel="5" Note="81" Velocity="0"/>
  </Event>
  <Event>
    <Absolute>150800</Absolute>
    <ControlChange Channel="5" Control="7" Value="75"/>
  </Event>
  <Event>
    <Absolute>150896</Absolute>
    <ControlChange Channel="5" Control="7" Value="76"/>
  </Event>
  <Event>
    <Absolute>150912</Absolute>
    <NoteOn Channel="5" Note="72" Velocity="69"/>
  </Event>
  <Event>
    <Absolute>151200</Absolute>
    <NoteOff Channel="5" Note="72" Velocity="0"/>
  </Event>
  <Event>
    <Absolute>151200</Absolute>
    <ControlChange Channel="5" Control="7" Value="77"/>
  </Event>
  <Event>
    <Absolute>151296</Absolute>
    <NoteOn Channel="5" Note="74" Velocity="63"/>
  </Event>
  <Event>
    <Absolute>151312</Absolute>
    <ControlChange Channel="5" Control="7" Value="78"/>
  </Event>
  <Event>
    <Absolute>151680</Absolute>
    <NoteOff Channel="5" Note="74" Velocity="0"/>
  </Event>
  <Event>
    <Absolute>151680</Absolute>
    <NoteOn Channel="5" Note="77" Velocity="57"/>
  </Event>
  <Event>
    <Absolute>151760</Absolute>
    <ControlChange Channel="5" Control="7" Value="79"/>
  </Event>
  <Event>
    <Absolute>151888</Absolute>
    <ControlChange Channel="5" Control="7" Value="80"/>
  </Event>
  <Event>
    <Absolute>152080</Absolute>
    <NoteOff Channel="5" Note="89" Velocity="0"/>
  </Event>
  <Event>
    <Absolute>152080</Absolute>
    <NoteOn Channel="5" Note="91" Velocity="78"/>
  </Event>
  <Event>
    <Absolute>152160</Absolute>
    <NoteOff Channel="5" Note="77" Velocity="0"/>
  </Event>
  <Event>
    <Absolute>152448</Absolute>
    <NoteOn Channel="5" Note="79" Velocity="44"/>
  </Event>
  <Event>
    <Absolute>152640</Absolute>
    <NoteOff Channel="5" Note="79" Velocity="0"/>
  </Event>
  <Event>
    <Absolute>152640</Absolute>
    <NoteOn Channel="5" Note="79" Velocity="41"/>
  </Event>
  <Event>
    <Absolute>152928</Absolute>
    <NoteOff Channel="5" Note="79" Velocity="0"/>
  </Event>
  <Event>
    <Absolute>153024</Absolute>
    <NoteOn Channel="5" Note="79" Velocity="35"/>
  </Event>
  <Event>
    <Absolute>153312</Absolute>
    <NoteOff Channel="5" Note="79" Velocity="0"/>
  </Event>
  <Event>
    <Absolute>153408</Absolute>
    <NoteOn Channel="5" Note="79" Velocity="29"/>
  </Event>
  <Event>
    <Absolute>153600</Absolute>
    <NoteOff Channel="5" Note="91" Velocity="0"/>
  </Event>
  <Event>
    <Absolute>153600</Absolute>
    <NoteOff Channel="5" Note="79" Velocity="0"/>
  </Event>
  <Event>
    <Absolute>153600</Absolute>
    <NoteOn Channel="5" Note="81" Velocity="25"/>
  </Event>
  <Event>
    <Absolute>153600</Absolute>
    <NoteOn Channel="5" Note="93" Velocity="78"/>
  </Event>
  <Event>
    <Absolute>153864</Absolute>
    <NoteOff Channel="5" Note="93" Velocity="0"/>
  </Event>
  <Event>
    <Absolute>153872</Absolute>
    <NoteOn Channel="5" Note="92" Velocity="78"/>
  </Event>
  <Event>
    <Absolute>153888</Absolute>
    <NoteOff Channel="5" Note="81" Velocity="0"/>
  </Event>
  <Event>
    <Absolute>153984</Absolute>
    <NoteOn Channel="5" Note="79" Velocity="19"/>
  </Event>
  <Event>
    <Absolute>153992</Absolute>
    <NoteOff Channel="5" Note="92" Velocity="0"/>
  </Event>
  <Event>
    <Absolute>153996</Absolute>
    <NoteOn Channel="5" Note="93" Velocity="78"/>
  </Event>
  <Event>
    <Absolute>154268</Absolute>
    <NoteOn Channel="5" Note="92" Velocity="78"/>
  </Event>
  <Event>
    <Absolute>154272</Absolute>
    <NoteOff Channel="5" Note="79" Velocity="0"/>
  </Event>
  <Event>
    <Absolute>154272</Absolute>
    <NoteOff Channel="5" Note="93" Velocity="0"/>
  </Event>
  <Event>
    <Absolute>154352</Absolute>
    <NoteOff Channel="5" Note="92" Velocity="0"/>
  </Event>
  <Event>
    <Absolute>154368</Absolute>
    <NoteOn Channel="5" Note="77" Velocity="13"/>
  </Event>
  <Event>
    <Absolute>154400</Absolute>
    <NoteOn Channel="5" Note="93" Velocity="78"/>
  </Event>
  <Event>
    <Absolute>154560</Absolute>
    <NoteOn Channel="5" Note="74" Velocity="10"/>
  </Event>
  <Event>
    <Absolute>154656</Absolute>
    <NoteOff Channel="5" Note="77" Velocity="0"/>
  </Event>
  <Event>
    <Absolute>154768</Absolute>
    <NoteOff Channel="5" Note="93" Velocity="0"/>
  </Event>
  <Event>
    <Absolute>154784</Absolute>
    <NoteOn Channel="5" Note="86" Velocity="78"/>
  </Event>
  <Event>
    <Absolute>155136</Absolute>
    <NoteOff Channel="5" Note="74" Velocity="0"/>
  </Event>
  <Event>
    <Absolute>155140</Absolute>
    <NoteOn Channel="5" Note="89" Velocity="78"/>
  </Event>
  <Event>
    <Absolute>155152</Absolute>
    <NoteOff Channel="5" Note="86" Velocity="0"/>
  </Event>
  <Event>
    <Absolute>158212</Absolute>
    <NoteOff Channel="5" Note="89" Velocity="0"/>
  </Event>
  <Event>
    <Absolute>158224</Absolute>
    <NoteOn Channel="5" Note="91" Velocity="78"/>
  </Event>
  <Event>
    <Absolute>159752</Absolute>
    <NoteOn Channel="5" Note="93" Velocity="78"/>
  </Event>
  <Event>
    <Absolute>159764</Absolute>
    <NoteOff Channel="5" Note="91" Velocity="0"/>
  </Event>
  <Event>
    <Absolute>160016</Absolute>
    <NoteOff Channel="5" Note="93" Velocity="0"/>
  </Event>
  <Event>
    <Absolute>160016</Absolute>
    <NoteOn Channel="5" Note="92" Velocity="78"/>
  </Event>
  <Event>
    <Absolute>160144</Absolute>
    <NoteOff Channel="5" Note="92" Velocity="0"/>
  </Event>
  <Event>
    <Absolute>160144</Absolute>
    <NoteOn Channel="5" Note="93" Velocity="78"/>
  </Event>
  <Event>
    <Absolute>160400</Absolute>
    <NoteOn Channel="5" Note="92" Velocity="78"/>
  </Event>
  <Event>
    <Absolute>160408</Absolute>
    <NoteOff Channel="5" Note="93" Velocity="0"/>
  </Event>
  <Event>
    <Absolute>160480</Absolute>
    <NoteOff Channel="5" Note="92" Velocity="0"/>
  </Event>
  <Event>
    <Absolute>160504</Absolute>
    <NoteOn Channel="5" Note="93" Velocity="78"/>
  </Event>
  <Event>
    <Absolute>160876</Absolute>
    <NoteOff Channel="5" Note="93" Velocity="0"/>
  </Event>
  <Event>
    <Absolute>160884</Absolute>
    <NoteOn Channel="5" Note="86" Velocity="78"/>
  </Event>
  <Event>
    <Absolute>161292</Absolute>
    <NoteOff Channel="5" Note="86" Velocity="0"/>
  </Event>
  <Event>
    <Absolute>161292</Absolute>
    <NoteOn Channel="5" Note="89" Velocity="78"/>
  </Event>
  <Event>
    <Absolute>164280</Absolute>
    <NoteOff Channel="5" Note="89" Velocity="0"/>
  </Event>
  <Event>
    <Absolute>166768</Absolute>
    <ControlChange Channel="5" Control="91" Value="0"/>
  </Event>
  <Event>
    <Absolute>195072</Absolute>
    <ControlChange Channel="5" Control="1" Value="110"/>
  </Event>
  <Event>
    <Absolute>195072</Absolute>
    <NoteOn Channel="5" Note="75" Velocity="127"/>
  </Event>
  <Event>
    <Absolute>195072</Absolute>
    <PitchBendChange Channel="5" Value="8192"/>
  </Event>
  <Event>
    <Absolute>195456</Absolute>
    <NoteOff Channel="5" Note="75" Velocity="0"/>
  </Event>
  <Event>
    <Absolute>195456</Absolute>
    <NoteOn Channel="5" Note="87" Velocity="127"/>
  </Event>
  <Event>
    <Absolute>195680</Absolute>
    <PitchBendChange Channel="5" Value="7900"/>
  </Event>
  <Event>
    <Absolute>195696</Absolute>
    <PitchBendChange Channel="5" Value="7388"/>
  </Event>
  <Event>
    <Absolute>195708</Absolute>
    <PitchBendChange Channel="5" Value="6876"/>
  </Event>
  <Event>
    <Absolute>195728</Absolute>
    <PitchBendChange Channel="5" Value="6492"/>
  </Event>
  <Event>
    <Absolute>195748</Absolute>
    <PitchBendChange Channel="5" Value="5852"/>
  </Event>
  <Event>
    <Absolute>195768</Absolute>
    <PitchBendChange Channel="5" Value="5212"/>
  </Event>
  <Event>
    <Absolute>195788</Absolute>
    <PitchBendChange Channel="5" Value="4572"/>
  </Event>
  <Event>
    <Absolute>195808</Absolute>
    <PitchBendChange Channel="5" Value="3548"/>
  </Event>
  <Event>
    <Absolute>195824</Absolute>
    <PitchBendChange Channel="5" Value="2524"/>
  </Event>
  <Event>
    <Absolute>195856</Absolute>
    <PitchBendChange Channel="5" Value="476"/>
  </Event>
  <Event>
    <Absolute>195872</Absolute>
    <PitchBendChange Channel="5" Value="0"/>
  </Event>
  <Event>
    <Absolute>195888</Absolute>
    <PitchBendChange Channel="5" Value="0"/>
  </Event>
  <Event>
    <Absolute>195904</Absolute>
    <PitchBendChange Channel="5" Value="0"/>
  </Event>
  <Event>
    <Absolute>196596</Absolute>
    <PitchBendChange Channel="5" Value="0"/>
  </Event>
  <Event>
    <Absolute>196608</Absolute>
    <NoteOff Channel="5" Note="87" Velocity="0"/>
  </Event>
  <Event>
    <Absolute>196608</Absolute>
    <NoteOn Channel="5" Note="84" Velocity="127"/>
  </Event>
  <Event>
    <Absolute>196608</Absolute>
    <PitchBendChange Channel="5" Value="8192"/>
  </Event>
  <Event>
    <Absolute>197336</Absolute>
    <PitchBendChange Channel="5" Value="8192"/>
  </Event>
  <Event>
    <Absolute>197360</Absolute>
    <PitchBendChange Channel="5" Value="8320"/>
  </Event>
  <Event>
    <Absolute>197376</Absolute>
    <PitchBendChange Channel="5" Value="8832"/>
  </Event>
  <Event>
    <Absolute>197392</Absolute>
    <PitchBendChange Channel="5" Value="9344"/>
  </Event>
  <Event>
    <Absolute>197424</Absolute>
    <PitchBendChange Channel="5" Value="9856"/>
  </Event>
  <Event>
    <Absolute>197460</Absolute>
    <PitchBendChange Channel="5" Value="10368"/>
  </Event>
  <Event>
    <Absolute>197480</Absolute>
    <PitchBendChange Channel="5" Value="10880"/>
  </Event>
  <Event>
    <Absolute>197520</Absolute>
    <PitchBendChange Channel="5" Value="11392"/>
  </Event>
  <Event>
    <Absolute>197576</Absolute>
    <PitchBendChange Channel="5" Value="11904"/>
  </Event>
  <Event>
    <Absolute>198016</Absolute>
    <NoteOff Channel="5" Note="84" Velocity="0"/>
  </Event>
  <Event>
    <Absolute>198084</Absolute>
    <PitchBendChange Channel="5" Value="11904"/>
  </Event>
  <Event>
    <Absolute>198092</Absolute>
    <PitchBendChange Channel="5" Value="11136"/>
  </Event>
  <Event>
    <Absolute>198096</Absolute>
    <PitchBendChange Channel="5" Value="10368"/>
  </Event>
  <Event>
    <Absolute>198104</Absolute>
    <PitchBendChange Channel="5" Value="9472"/>
  </Event>
  <Event>
    <Absolute>198112</Absolute>
    <PitchBendChange Channel="5" Value="8192"/>
  </Event>
  <Event>
    <Absolute>198144</Absolute>
    <NoteOn Channel="5" Note="75" Velocity="127"/>
  </Event>
  <Event>
    <Absolute>198528</Absolute>
    <NoteOff Channel="5" Note="75" Velocity="0"/>
  </Event>
  <Event>
    <Absolute>198528</Absolute>
    <NoteOn Channel="5" Note="87" Velocity="127"/>
  </Event>
  <Event>
    <Absolute>198752</Absolute>
    <PitchBendChange Channel="5" Value="7900"/>
  </Event>
  <Event>
    <Absolute>198768</Absolute>
    <PitchBendChange Channel="5" Value="7388"/>
  </Event>
  <Event>
    <Absolute>198780</Absolute>
    <PitchBendChange Channel="5" Value="6876"/>
  </Event>
  <Event>
    <Absolute>198800</Absolute>
    <PitchBendChange Channel="5" Value="6492"/>
  </Event>
  <Event>
    <Absolute>198820</Absolute>
    <PitchBendChange Channel="5" Value="5852"/>
  </Event>
  <Event>
    <Absolute>198840</Absolute>
    <PitchBendChange Channel="5" Value="5212"/>
  </Event>
  <Event>
    <Absolute>198860</Absolute>
    <PitchBendChange Channel="5" Value="4572"/>
  </Event>
  <Event>
    <Absolute>198880</Absolute>
    <ControlChange Channel="5" Control="7" Value="79"/>
  </Event>
  <Event>
    <Absolute>198880</Absolute>
    <PitchBendChange Channel="5" Value="3548"/>
  </Event>
  <Event>
    <Absolute>198896</Absolute>
    <PitchBendChange Channel="5" Value="2524"/>
  </Event>
  <Event>
    <Absolute>198928</Absolute>
    <PitchBendChange Channel="5" Value="476"/>
  </Event>
  <Event>
    <Absolute>198944</Absolute>
    <PitchBendChange Channel="5" Value="0"/>
  </Event>
  <Event>
    <Absolute>198960</Absolute>
    <PitchBendChange Channel="5" Value="0"/>
  </Event>
  <Event>
    <Absolute>198976</Absolute>
    <PitchBendChange Channel="5" Value="0"/>
  </Event>
  <Event>
    <Absolute>199668</Absolute>
    <PitchBendChange Channel="5" Value="0"/>
  </Event>
  <Event>
    <Absolute>199680</Absolute>
    <NoteOff Channel="5" Note="87" Velocity="0"/>
  </Event>
  <Event>
    <Absolute>199680</Absolute>
    <NoteOn Channel="5" Note="84" Velocity="127"/>
  </Event>
  <Event>
    <Absolute>199680</Absolute>
    <PitchBendChange Channel="5" Value="8192"/>
  </Event>
  <Event>
    <Absolute>200048</Absolute>
    <ControlChange Channel="5" Control="7" Value="78"/>
  </Event>
  <Event>
    <Absolute>200408</Absolute>
    <PitchBendChange Channel="5" Value="8192"/>
  </Event>
  <Event>
    <Absolute>200432</Absolute>
    <PitchBendChange Channel="5" Value="8320"/>
  </Event>
  <Event>
    <Absolute>200448</Absolute>
    <PitchBendChange Channel="5" Value="8832"/>
  </Event>
  <Event>
    <Absolute>200464</Absolute>
    <PitchBendChange Channel="5" Value="9344"/>
  </Event>
  <Event>
    <Absolute>200496</Absolute>
    <PitchBendChange Channel="5" Value="9856"/>
  </Event>
  <Event>
    <Absolute>200532</Absolute>
    <PitchBendChange Channel="5" Value="10368"/>
  </Event>
  <Event>
    <Absolute>200552</Absolute>
    <PitchBendChange Channel="5" Value="10880"/>
  </Event>
  <Event>
    <Absolute>200592</Absolute>
    <PitchBendChange Channel="5" Value="11392"/>
  </Event>
  <Event>
    <Absolute>200648</Absolute>
    <PitchBendChange Channel="5" Value="11904"/>
  </Event>
  <Event>
    <Absolute>200704</Absolute>
    <ControlChange Channel="5" Control="7" Value="77"/>
  </Event>
  <Event>
    <Absolute>200816</Absolute>
    <ControlChange Channel="5" Control="7" Value="76"/>
  </Event>
  <Event>
    <Absolute>201120</Absolute>
    <ControlChange Channel="5" Control="7" Value="75"/>
  </Event>
  <Event>
    <Absolute>201156</Absolute>
    <PitchBendChange Channel="5" Value="11904"/>
  </Event>
  <Event>
    <Absolute>201216</Absolute>
    <NoteOff Channel="5" Note="84" Velocity="0"/>
  </Event>
  <Event>
    <Absolute>201216</Absolute>
    <NoteOn Channel="5" Note="75" Velocity="127"/>
  </Event>
  <Event>
    <Absolute>201216</Absolute>
    <PitchBendChange Channel="5" Value="8192"/>
  </Event>
  <Event>
    <Absolute>201312</Absolute>
    <ControlChange Channel="5" Control="7" Value="74"/>
  </Event>
  <Event>
    <Absolute>201536</Absolute>
    <ControlChange Channel="5" Control="7" Value="73"/>
  </Event>
  <Event>
    <Absolute>201600</Absolute>
    <NoteOff Channel="5" Note="75" Velocity="0"/>
  </Event>
  <Event>
    <Absolute>201600</Absolute>
    <NoteOn Channel="5" Note="87" Velocity="127"/>
  </Event>
  <Event>
    <Absolute>201728</Absolute>
    <ControlChange Channel="5" Control="7" Value="72"/>
  </Event>
  <Event>
    <Absolute>201824</Absolute>
    <PitchBendChange Channel="5" Value="7900"/>
  </Event>
  <Event>
    <Absolute>201840</Absolute>
    <PitchBendChange Channel="5" Value="7388"/>
  </Event>
  <Event>
    <Absolute>201852</Absolute>
    <PitchBendChange Channel="5" Value="6876"/>
  </Event>
  <Event>
    <Absolute>201872</Absolute>
    <PitchBendChange Channel="5" Value="6492"/>
  </Event>
  <Event>
    <Absolute>201892</Absolute>
    <PitchBendChange Channel="5" Value="5852"/>
  </Event>
  <Event>
    <Absolute>201912</Absolute>
    <PitchBendChange Channel="5" Value="5212"/>
  </Event>
  <Event>
    <Absolute>201932</Absolute>
    <PitchBendChange Channel="5" Value="4572"/>
  </Event>
  <Event>
    <Absolute>201952</Absolute>
    <ControlChange Channel="5" Control="7" Value="71"/>
  </Event>
  <Event>
    <Absolute>201952</Absolute>
    <PitchBendChange Channel="5" Value="3548"/>
  </Event>
  <Event>
    <Absolute>201968</Absolute>
    <PitchBendChange Channel="5" Value="2524"/>
  </Event>
  <Event>
    <Absolute>202000</Absolute>
    <PitchBendChange Channel="5" Value="476"/>
  </Event>
  <Event>
    <Absolute>202016</Absolute>
    <PitchBendChange Channel="5" Value="0"/>
  </Event>
  <Event>
    <Absolute>202032</Absolute>
    <PitchBendChange Channel="5" Value="0"/>
  </Event>
  <Event>
    <Absolute>202048</Absolute>
    <PitchBendChange Channel="5" Value="0"/>
  </Event>
  <Event>
    <Absolute>202112</Absolute>
    <ControlChange Channel="5" Control="7" Value="70"/>
  </Event>
  <Event>
    <Absolute>202256</Absolute>
    <ControlChange Channel="5" Control="7" Value="69"/>
  </Event>
  <Event>
    <Absolute>202304</Absolute>
    <ControlChange Channel="5" Control="7" Value="68"/>
  </Event>
  <Event>
    <Absolute>202416</Absolute>
    <ControlChange Channel="5" Control="7" Value="66"/>
  </Event>
  <Event>
    <Absolute>202528</Absolute>
    <ControlChange Channel="5" Control="7" Value="64"/>
  </Event>
  <Event>
    <Absolute>202592</Absolute>
    <ControlChange Channel="5" Control="7" Value="62"/>
  </Event>
  <Event>
    <Absolute>202720</Absolute>
    <ControlChange Channel="5" Control="7" Value="61"/>
  </Event>
  <Event>
    <Absolute>202740</Absolute>
    <PitchBendChange Channel="5" Value="0"/>
  </Event>
  <Event>
    <Absolute>202752</Absolute>
    <NoteOff Channel="5" Note="87" Velocity="0"/>
  </Event>
  <Event>
    <Absolute>202752</Absolute>
    <NoteOn Channel="5" Note="84" Velocity="127"/>
  </Event>
  <Event>
    <Absolute>202752</Absolute>
    <PitchBendChange Channel="5" Value="8192"/>
  </Event>
  <Event>
    <Absolute>202772</Absolute>
    <ControlChange Channel="5" Control="7" Value="60"/>
  </Event>
  <Event>
    <Absolute>202788</Absolute>
    <ControlChange Channel="5" Control="7" Value="59"/>
  </Event>
  <Event>
    <Absolute>202944</Absolute>
    <ControlChange Channel="5" Control="7" Value="58"/>
  </Event>
  <Event>
    <Absolute>203008</Absolute>
    <ControlChange Channel="5" Control="7" Value="57"/>
  </Event>
  <Event>
    <Absolute>203120</Absolute>
    <ControlChange Channel="5" Control="7" Value="56"/>
  </Event>
  <Event>
    <Absolute>203232</Absolute>
    <ControlChange Channel="5" Control="7" Value="55"/>
  </Event>
  <Event>
    <Absolute>203280</Absolute>
    <ControlChange Channel="5" Control="7" Value="54"/>
  </Event>
  <Event>
    <Absolute>203408</Absolute>
    <ControlChange Channel="5" Control="7" Value="53"/>
  </Event>
  <Event>
    <Absolute>203480</Absolute>
    <PitchBendChange Channel="5" Value="8192"/>
  </Event>
  <Event>
    <Absolute>203504</Absolute>
    <ControlChange Channel="5" Control="7" Value="52"/>
  </Event>
  <Event>
    <Absolute>203504</Absolute>
    <PitchBendChange Channel="5" Value="8320"/>
  </Event>
  <Event>
    <Absolute>203520</Absolute>
    <PitchBendChange Channel="5" Value="8832"/>
  </Event>
  <Event>
    <Absolute>203536</Absolute>
    <PitchBendChange Channel="5" Value="9344"/>
  </Event>
  <Event>
    <Absolute>203568</Absolute>
    <PitchBendChange Channel="5" Value="9856"/>
  </Event>
  <Event>
    <Absolute>203604</Absolute>
    <PitchBendChange Channel="5" Value="10368"/>
  </Event>
  <Event>
    <Absolute>203624</Absolute>
    <ControlChange Channel="5" Control="7" Value="51"/>
  </Event>
  <Event>
    <Absolute>203624</Absolute>
    <PitchBendChange Channel="5" Value="10880"/>
  </Event>
  <Event>
    <Absolute>203664</Absolute>
    <PitchBendChange Channel="5" Value="11392"/>
  </Event>
  <Event>
    <Absolute>203720</Absolute>
    <ControlChange Channel="5" Control="7" Value="50"/>
  </Event>
  <Event>
    <Absolute>203720</Absolute>
    <PitchBendChange Channel="5" Value="11904"/>
  </Event>
  <Event>
    <Absolute>203752</Absolute>
    <ControlChange Channel="5" Control="7" Value="49"/>
  </Event>
  <Event>
    <Absolute>203808</Absolute>
    <ControlChange Channel="5" Control="7" Value="48"/>
  </Event>
  <Event>
    <Absolute>203920</Absolute>
    <ControlChange Channel="5" Control="7" Value="47"/>
  </Event>
  <Event>
    <Absolute>203984</Absolute>
    <ControlChange Channel="5" Control="7" Value="46"/>
  </Event>
  <Event>
    <Absolute>204032</Absolute>
    <ControlChange Channel="5" Control="7" Value="45"/>
  </Event>
  <Event>
    <Absolute>204112</Absolute>
    <ControlChange Channel="5" Control="7" Value="44"/>
  </Event>
  <Event>
    <Absolute>204160</Absolute>
    <NoteOff Channel="5" Note="84" Velocity="0"/>
  </Event>
  <Event>
    <Absolute>204192</Absolute>
    <ControlChange Channel="5" Control="7" Value="43"/>
  </Event>
  <Event>
    <Absolute>204228</Absolute>
    <PitchBendChange Channel="5" Value="11904"/>
  </Event>
  <Event>
    <Absolute>204236</Absolute>
    <PitchBendChange Channel="5" Value="11136"/>
  </Event>
  <Event>
    <Absolute>204240</Absolute>
    <PitchBendChange Channel="5" Value="10368"/>
  </Event>
  <Event>
    <Absolute>204248</Absolute>
    <PitchBendChange Channel="5" Value="9472"/>
  </Event>
  <Event>
    <Absolute>204256</Absolute>
    <PitchBendChange Channel="5" Value="8192"/>
  </Event>
  <Event>
    <Absolute>204288</Absolute>
    <NoteOn Channel="5" Note="75" Velocity="127"/>
  </Event>
  <Event>
    <Absolute>204324</Absolute>
    <ControlChange Channel="5" Control="7" Value="42"/>
  </Event>
  <Event>
    <Absolute>204368</Absolute>
    <ControlChange Channel="5" Control="7" Value="41"/>
  </Event>
  <Event>
    <Absolute>204432</Absolute>
    <ControlChange Channel="5" Control="7" Value="40"/>
  </Event>
  <Event>
    <Absolute>204544</Absolute>
    <ControlChange Channel="5" Control="7" Value="39"/>
  </Event>
  <Event>
    <Absolute>204624</Absolute>
    <ControlChange Channel="5" Control="7" Value="38"/>
  </Event>
  <Event>
    <Absolute>204672</Absolute>
    <NoteOff Channel="5" Note="75" Velocity="0"/>
  </Event>
  <Event>
    <Absolute>204672</Absolute>
    <ControlChange Channel="5" Control="7" Value="37"/>
  </Event>
  <Event>
    <Absolute>204672</Absolute>
    <NoteOn Channel="5" Note="87" Velocity="127"/>
  </Event>
  <Event>
    <Absolute>204736</Absolute>
    <ControlChange Channel="5" Control="7" Value="36"/>
  </Event>
  <Event>
    <Absolute>204768</Absolute>
    <ControlChange Channel="5" Control="7" Value="35"/>
  </Event>
  <Event>
    <Absolute>204896</Absolute>
    <ControlChange Channel="5" Control="7" Value="34"/>
  </Event>
  <Event>
    <Absolute>204896</Absolute>
    <PitchBendChange Channel="5" Value="7900"/>
  </Event>
  <Event>
    <Absolute>204912</Absolute>
    <PitchBendChange Channel="5" Value="7388"/>
  </Event>
  <Event>
    <Absolute>204924</Absolute>
    <PitchBendChange Channel="5" Value="6876"/>
  </Event>
  <Event>
    <Absolute>204944</Absolute>
    <PitchBendChange Channel="5" Value="6492"/>
  </Event>
  <Event>
    <Absolute>204964</Absolute>
    <PitchBendChange Channel="5" Value="5852"/>
  </Event>
  <Event>
    <Absolute>204984</Absolute>
    <PitchBendChange Channel="5" Value="5212"/>
  </Event>
  <Event>
    <Absolute>204992</Absolute>
    <ControlChange Channel="5" Control="7" Value="33"/>
  </Event>
  <Event>
    <Absolute>205004</Absolute>
    <PitchBendChange Channel="5" Value="4572"/>
  </Event>
  <Event>
    <Absolute>205024</Absolute>
    <ControlChange Channel="5" Control="7" Value="32"/>
  </Event>
  <Event>
    <Absolute>205024</Absolute>
    <PitchBendChange Channel="5" Value="3548"/>
  </Event>
  <Event>
    <Absolute>205040</Absolute>
    <PitchBendChange Channel="5" Value="2524"/>
  </Event>
  <Event>
    <Absolute>205072</Absolute>
    <PitchBendChange Channel="5" Value="476"/>
  </Event>
  <Event>
    <Absolute>205080</Absolute>
    <ControlChange Channel="5" Control="7" Value="31"/>
  </Event>
  <Event>
    <Absolute>205088</Absolute>
    <PitchBendChange Channel="5" Value="0"/>
  </Event>
  <Event>
    <Absolute>205104</Absolute>
    <PitchBendChange Channel="5" Value="0"/>
  </Event>
  <Event>
    <Absolute>205120</Absolute>
    <PitchBendChange Channel="5" Value="0"/>
  </Event>
  <Event>
    <Absolute>205184</Absolute>
    <ControlChange Channel="5" Control="7" Value="30"/>
  </Event>
  <Event>
    <Absolute>205328</Absolute>
    <ControlChange Channel="5" Control="7" Value="29"/>
  </Event>
  <Event>
    <Absolute>205424</Absolute>
    <ControlChange Channel="5" Control="7" Value="28"/>
  </Event>
  <Event>
    <Absolute>205456</Absolute>
    <ControlChange Channel="5" Control="7" Value="27"/>
  </Event>
  <Event>
    <Absolute>205536</Absolute>
    <ControlChange Channel="5" Control="7" Value="25"/>
  </Event>
  <Event>
    <Absolute>205648</Absolute>
    <ControlChange Channel="5" Control="7" Value="23"/>
  </Event>
  <Event>
    <Absolute>205812</Absolute>
    <PitchBendChange Channel="5" Value="0"/>
  </Event>
  <Event>
    <Absolute>205824</Absolute>
    <NoteOff Channel="5" Note="87" Velocity="0"/>
  </Event>
  <Event>
    <Absolute>205824</Absolute>
    <NoteOn Channel="5" Note="84" Velocity="127"/>
  </Event>
  <Event>
    <Absolute>205824</Absolute>
    <PitchBendChange Channel="5" Value="8192"/>
  </Event>
  <Event>
    <Absolute>205904</Absolute>
    <ControlChange Channel="5" Control="7" Value="22"/>
  </Event>
  <Event>
    <Absolute>205920</Absolute>
    <ControlChange Channel="5" Control="7" Value="21"/>
  </Event>
  <Event>
    <Absolute>206032</Absolute>
    <ControlChange Channel="5" Control="7" Value="20"/>
  </Event>
  <Event>
    <Absolute>206112</Absolute>
    <ControlChange Channel="5" Control="7" Value="19"/>
  </Event>
  <Event>
    <Absolute>206228</Absolute>
    <ControlChange Channel="5" Control="7" Value="18"/>
  </Event>
  <Event>
    <Absolute>206432</Absolute>
    <ControlChange Channel="5" Control="7" Value="17"/>
  </Event>
  <Event>
    <Absolute>206552</Absolute>
    <PitchBendChange Channel="5" Value="8192"/>
  </Event>
  <Event>
    <Absolute>206576</Absolute>
    <PitchBendChange Channel="5" Value="8320"/>
  </Event>
  <Event>
    <Absolute>206592</Absolute>
    <PitchBendChange Channel="5" Value="8832"/>
  </Event>
  <Event>
    <Absolute>206608</Absolute>
    <PitchBendChange Channel="5" Value="9344"/>
  </Event>
  <Event>
    <Absolute>206624</Absolute>
    <ControlChange Channel="5" Control="7" Value="16"/>
  </Event>
  <Event>
    <Absolute>206640</Absolute>
    <ControlChange Channel="5" Control="7" Value="15"/>
  </Event>
  <Event>
    <Absolute>206640</Absolute>
    <PitchBendChange Channel="5" Value="9856"/>
  </Event>
  <Event>
    <Absolute>206676</Absolute>
    <PitchBendChange Channel="5" Value="10368"/>
  </Event>
  <Event>
    <Absolute>206696</Absolute>
    <PitchBendChange Channel="5" Value="10880"/>
  </Event>
  <Event>
    <Absolute>206736</Absolute>
    <PitchBendChange Channel="5" Value="11392"/>
  </Event>
  <Event>
    <Absolute>206792</Absolute>
    <ControlChange Channel="5" Control="7" Value="14"/>
  </Event>
  <Event>
    <Absolute>206792</Absolute>
    <PitchBendChange Channel="5" Value="11904"/>
  </Event>
  <Event>
    <Absolute>206848</Absolute>
    <ControlChange Channel="5" Control="7" Value="13"/>
  </Event>
  <Event>
    <Absolute>207008</Absolute>
    <ControlChange Channel="5" Control="7" Value="12"/>
  </Event>
  <Event>
    <Absolute>207088</Absolute>
    <ControlChange Channel="5" Control="7" Value="11"/>
  </Event>
  <Event>
    <Absolute>207300</Absolute>
    <PitchBendChange Channel="5" Value="11904"/>
  </Event>
  <Event>
    <Absolute>207360</Absolute>
    <NoteOff Channel="5" Note="84" Velocity="0"/>
  </Event>
  <Event>
    <Absolute>207360</Absolute>
    <NoteOn Channel="5" Note="75" Velocity="127"/>
  </Event>
  <Event>
    <Absolute>207360</Absolute>
    <PitchBendChange Channel="5" Value="8192"/>
  </Event>
  <Event>
    <Absolute>207392</Absolute>
    <ControlChange Channel="5" Control="7" Value="10"/>
  </Event>
  <Event>
    <Absolute>207696</Absolute>
    <ControlChange Channel="5" Control="7" Value="9"/>
  </Event>
  <Event>
    <Absolute>207744</Absolute>
    <NoteOff Channel="5" Note="75" Velocity="0"/>
  </Event>
  <Event>
    <Absolute>207744</Absolute>
    <NoteOn Channel="5" Note="87" Velocity="127"/>
  </Event>
  <Event>
    <Absolute>207808</Absolute>
    <ControlChange Channel="5" Control="7" Value="8"/>
  </Event>
  <Event>
    <Absolute>207824</Absolute>
    <ControlChange Channel="5" Control="7" Value="7"/>
  </Event>
  <Event>
    <Absolute>207968</Absolute>
    <PitchBendChange Channel="5" Value="7900"/>
  </Event>
  <Event>
    <Absolute>207984</Absolute>
    <PitchBendChange Channel="5" Value="7388"/>
  </Event>
  <Event>
    <Absolute>207996</Absolute>
    <PitchBendChange Channel="5" Value="6876"/>
  </Event>
  <Event>
    <Absolute>208016</Absolute>
    <PitchBendChange Channel="5" Value="6492"/>
  </Event>
  <Event>
    <Absolute>208036</Absolute>
    <PitchBendChange Channel="5" Value="5852"/>
  </Event>
  <Event>
    <Absolute>208056</Absolute>
    <PitchBendChange Channel="5" Value="5212"/>
  </Event>
  <Event>
    <Absolute>208076</Absolute>
    <PitchBendChange Channel="5" Value="4572"/>
  </Event>
  <Event>
    <Absolute>208096</Absolute>
    <PitchBendChange Channel="5" Value="3548"/>
  </Event>
  <Event>
    <Absolute>208112</Absolute>
    <PitchBendChange Channel="5" Value="2524"/>
  </Event>
  <Event>
    <Absolute>208128</Absolute>
    <ControlChange Channel="5" Control="7" Value="6"/>
  </Event>
  <Event>
    <Absolute>208144</Absolute>
    <PitchBendChange Channel="5" Value="476"/>
  </Event>
  <Event>
    <Absolute>208160</Absolute>
    <PitchBendChange Channel="5" Value="0"/>
  </Event>
  <Event>
    <Absolute>208176</Absolute>
    <PitchBendChange Channel="5" Value="0"/>
  </Event>
  <Event>
    <Absolute>208192</Absolute>
    <PitchBendChange Channel="5" Value="0"/>
  </Event>
  <Event>
    <Absolute>208224</Absolute>
    <ControlChange Channel="5" Control="7" Value="5"/>
  </Event>
  <Event>
    <Absolute>208720</Absolute>
    <ControlChange Channel="5" Control="7" Value="4"/>
  </Event>
  <Event>
    <Absolute>208884</Absolute>
    <PitchBendChange Channel="5" Value="0"/>
  </Event>
  <Event>
    <Absolute>208896</Absolute>
    <NoteOff Channel="5" Note="87" Velocity="0"/>
  </Event>
  <Event>
    <Absolute>208912</Absolute>
    <ControlChange Channel="5" Control="7" Value="3"/>
  </Event>
  <Event>
    <Absolute>209120</Absolute>
    <ControlChange Channel="5" Control="7" Value="2"/>
  </Event>
  <Event>
    <Absolute>209120</Absolute>
    <EndOfTrack/>
  </Event>
</Track>
<Track Number="8">
  <Event>
    <Absolute>0</Absolute>
    <TrackName>Cello</TrackName>
  </Event>
  <Event>
    <Absolute>0</Absolute>
    <ControlChange Channel="11" Control="0" Value="0"/>
  </Event>
  <Event>
    <Absolute>0</Absolute>
    <ProgramChange Channel="11" Number="43"/>
  </Event>
  <Event>
    <Absolute>0</Absolute>
    <ControlChange Channel="11" Control="7" Value="97"/>
  </Event>
  <Event>
    <Absolute>0</Absolute>
    <ControlChange Channel="11" Control="10" Value="47"/>
  </Event>
  <Event>
    <Absolute>0</Absolute>
    <ControlChange Channel="11" Control="91" Value="63"/>
  </Event>
  <Event>
    <Absolute>0</Absolute>
    <ControlChange Channel="11" Control="93" Value="56"/>
  </Event>
  <Event>
    <Absolute>0</Absolute>
    <KeySignature Fifths="0" Mode="0"/>
  </Event>
  <Event>
    <Absolute>26112</Absolute>
    <NoteOn Channel="11" Note="42" Velocity="126"/>
  </Event>
  <Event>
    <Absolute>26176</Absolute>
    <NoteOff Channel="11" Note="42" Velocity="0"/>
  </Event>
  <Event>
    <Absolute>26240</Absolute>
    <NoteOn Channel="11" Note="42" Velocity="126"/>
  </Event>
  <Event>
    <Absolute>26304</Absolute>
    <NoteOff Channel="11" Note="42" Velocity="0"/>
  </Event>
  <Event>
    <Absolute>26368</Absolute>
    <NoteOn Channel="11" Note="42" Velocity="126"/>
  </Event>
  <Event>
    <Absolute>26432</Absolute>
    <NoteOff Channel="11" Note="42" Velocity="0"/>
  </Event>
  <Event>
    <Absolute>26496</Absolute>
    <NoteOn Channel="11" Note="42" Velocity="126"/>
  </Event>
  <Event>
    <Absolute>26560</Absolute>
    <NoteOff Channel="11" Note="42" Velocity="0"/>
  </Event>
  <Event>
    <Absolute>26624</Absolute>
    <NoteOn Channel="11" Note="42" Velocity="126"/>
  </Event>
  <Event>
    <Absolute>26688</Absolute>
    <NoteOff Channel="11" Note="42" Velocity="0"/>
  </Event>
  <Event>
    <Absolute>26752</Absolute>
    <NoteOn Channel="11" Note="42" Velocity="126"/>
  </Event>
  <Event>
    <Absolute>26816</Absolute>
    <NoteOff Channel="11" Note="42" Velocity="0"/>
  </Event>
  <Event>
    <Absolute>26880</Absolute>
    <NoteOn Channel="11" Note="42" Velocity="126"/>
  </Event>
  <Event>
    <Absolute>26944</Absolute>
    <NoteOff Channel="11" Note="42" Velocity="0"/>
  </Event>
  <Event>
    <Absolute>27008</Absolute>
    <NoteOn Channel="11" Note="42" Velocity="126"/>
  </Event>
  <Event>
    <Absolute>27072</Absolute>
    <NoteOff Channel="11" Note="42" Velocity="0"/>
  </Event>
  <Event>
    <Absolute>27136</Absolute>
    <NoteOn Channel="11" Note="42" Velocity="126"/>
  </Event>
  <Event>
    <Absolute>27200</Absolute>
    <NoteOff Channel="11" Note="42" Velocity="0"/>
  </Event>
  <Event>
    <Absolute>27264</Absolute>
    <NoteOn Channel="11" Note="42" Velocity="126"/>
  </Event>
  <Event>
    <Absolute>27328</Absolute>
    <NoteOff Channel="11" Note="42" Velocity="0"/>
  </Event>
  <Event>
    <Absolute>27392</Absolute>
    <NoteOn Channel="11" Note="42" Velocity="126"/>
  </Event>
  <Event>
    <Absolute>27456</Absolute>
    <NoteOff Channel="11" Note="42" Velocity="0"/>
  </Event>
  <Event>
    <Absolute>27520</Absolute>
    <NoteOn Channel="11" Note="42" Velocity="126"/>
  </Event>
  <Event>
    <Absolute>27584</Absolute>
    <NoteOff Channel="11" Note="42" Velocity="0"/>
  </Event>
  <Event>
    <Absolute>27648</Absolute>
    <NoteOn Channel="11" Note="42" Velocity="126"/>
  </Event>
  <Event>
    <Absolute>27712</Absolute>
    <NoteOff Channel="11" Note="42" Velocity="0"/>
  </Event>
  <Event>
    <Absolute>27776</Absolute>
    <NoteOn Channel="11" Note="42" Velocity="126"/>
  </Event>
  <Event>
    <Absolute>27840</Absolute>
    <NoteOff Channel="11" Note="42" Velocity="0"/>
  </Event>
  <Event>
    <Absolute>27904</Absolute>
    <NoteOn Channel="11" Note="42" Velocity="126"/>
  </Event>
  <Event>
    <Absolute>27968</Absolute>
    <NoteOff Channel="11" Note="42" Velocity="0"/>
  </Event>
  <Event>
    <Absolute>28032</Absolute>
    <NoteOn Channel="11" Note="42" Velocity="126"/>
  </Event>
  <Event>
    <Absolute>28096</Absolute>
    <NoteOff Channel="11" Note="42" Velocity="0"/>
  </Event>
  <Event>
    <Absolute>28160</Absolute>
    <NoteOn Channel="11" Note="42" Velocity="126"/>
  </Event>
  <Event>
    <Absolute>28224</Absolute>
    <NoteOff Channel="11" Note="42" Velocity="0"/>
  </Event>
  <Event>
    <Absolute>28288</Absolute>
    <NoteOn Channel="11" Note="42" Velocity="126"/>
  </Event>
  <Event>
    <Absolute>28352</Absolute>
    <NoteOff Channel="11" Note="42" Velocity="0"/>
  </Event>
  <Event>
    <Absolute>28416</Absolute>
    <NoteOn Channel="11" Note="42" Velocity="126"/>
  </Event>
  <Event>
    <Absolute>28480</Absolute>
    <NoteOff Channel="11" Note="42" Velocity="0"/>
  </Event>
  <Event>
    <Absolute>28544</Absolute>
    <NoteOn Channel="11" Note="42" Velocity="126"/>
  </Event>
  <Event>
    <Absolute>28608</Absolute>
    <NoteOff Channel="11" Note="42" Velocity="0"/>
  </Event>
  <Event>
    <Absolute>28672</Absolute>
    <NoteOn Channel="11" Note="42" Velocity="126"/>
  </Event>
  <Event>
    <Absolute>28736</Absolute>
    <NoteOff Channel="11" Note="42" Velocity="0"/>
  </Event>
  <Event>
    <Absolute>28800</Absolute>
    <NoteOn Channel="11" Note="42" Velocity="126"/>
  </Event>
  <Event>
    <Absolute>28864</Absolute>
    <NoteOff Channel="11" Note="42" Velocity="0"/>
  </Event>
  <Event>
    <Absolute>28928</Absolute>
    <NoteOn Channel="11" Note="42" Velocity="126"/>
  </Event>
  <Event>
    <Absolute>28992</Absolute>
    <NoteOff Channel="11" Note="42" Velocity="0"/>
  </Event>
  <Event>
    <Absolute>29056</Absolute>
    <NoteOn Channel="11" Note="42" Velocity="126"/>
  </Event>
  <Event>
    <Absolute>29120</Absolute>
    <NoteOff Channel="11" Note="42" Velocity="0"/>
  </Event>
  <Event>
    <Absolute>29184</Absolute>
    <NoteOn Channel="11" Note="42" Velocity="126"/>
  </Event>
  <Event>
    <Absolute>29248</Absolute>
    <NoteOff Channel="11" Note="42" Velocity="0"/>
  </Event>
  <Event>
    <Absolute>29312</Absolute>
    <NoteOn Channel="11" Note="42" Velocity="126"/>
  </Event>
  <Event>
    <Absolute>29376</Absolute>
    <NoteOff Channel="11" Note="42" Velocity="0"/>
  </Event>
  <Event>
    <Absolute>29440</Absolute>
    <NoteOn Channel="11" Note="42" Velocity="126"/>
  </Event>
  <Event>
    <Absolute>29504</Absolute>
    <NoteOff Channel="11" Note="42" Velocity="0"/>
  </Event>
  <Event>
    <Absolute>29568</Absolute>
    <NoteOn Channel="11" Note="42" Velocity="126"/>
  </Event>
  <Event>
    <Absolute>29632</Absolute>
    <NoteOff Channel="11" Note="42" Velocity="0"/>
  </Event>
  <Event>
    <Absolute>29696</Absolute>
    <NoteOn Channel="11" Note="42" Velocity="126"/>
  </Event>
  <Event>
    <Absolute>29760</Absolute>
    <NoteOff Channel="11" Note="42" Velocity="0"/>
  </Event>
  <Event>
    <Absolute>29824</Absolute>
    <NoteOn Channel="11" Note="42" Velocity="126"/>
  </Event>
  <Event>
    <Absolute>29888</Absolute>
    <NoteOff Channel="11" Note="42" Velocity="0"/>
  </Event>
  <Event>
    <Absolute>29952</Absolute>
    <NoteOn Channel="11" Note="42" Velocity="126"/>
  </Event>
  <Event>
    <Absolute>30016</Absolute>
    <NoteOff Channel="11" Note="42" Velocity="0"/>
  </Event>
  <Event>
    <Absolute>30080</Absolute>
    <NoteOn Channel="11" Note="42" Velocity="126"/>
  </Event>
  <Event>
    <Absolute>30144</Absolute>
    <NoteOff Channel="11" Note="42" Velocity="0"/>
  </Event>
  <Event>
    <Absolute>30208</Absolute>
    <NoteOn Channel="11" Note="42" Velocity="126"/>
  </Event>
  <Event>
    <Absolute>30272</Absolute>
    <NoteOff Channel="11" Note="42" Velocity="0"/>
  </Event>
  <Event>
    <Absolute>30336</Absolute>
    <NoteOn Channel="11" Note="42" Velocity="126"/>
  </Event>
  <Event>
    <Absolute>30400</Absolute>
    <NoteOff Channel="11" Note="42" Velocity="0"/>
  </Event>
  <Event>
    <Absolute>30464</Absolute>
    <NoteOn Channel="11" Note="42" Velocity="126"/>
  </Event>
  <Event>
    <Absolute>30528</Absolute>
    <NoteOff Channel="11" Note="42" Velocity="0"/>
  </Event>
  <Event>
    <Absolute>30592</Absolute>
    <NoteOn Channel="11" Note="42" Velocity="126"/>
  </Event>
  <Event>
    <Absolute>30656</Absolute>
    <NoteOff Channel="11" Note="42" Velocity="0"/>
  </Event>
  <Event>
    <Absolute>30720</Absolute>
    <NoteOn Channel="11" Note="42" Velocity="126"/>
  </Event>
  <Event>
    <Absolute>30784</Absolute>
    <NoteOff Channel="11" Note="42" Velocity="0"/>
  </Event>
  <Event>
    <Absolute>30848</Absolute>
    <NoteOn Channel="11" Note="42" Velocity="126"/>
  </Event>
  <Event>
    <Absolute>30912</Absolute>
    <NoteOff Channel="11" Note="42" Velocity="0"/>
  </Event>
  <Event>
    <Absolute>30976</Absolute>
    <NoteOn Channel="11" Note="42" Velocity="126"/>
  </Event>
  <Event>
    <Absolute>31040</Absolute>
    <NoteOff Channel="11" Note="42" Velocity="0"/>
  </Event>
  <Event>
    <Absolute>31104</Absolute>
    <NoteOn Channel="11" Note="42" Velocity="126"/>
  </Event>
  <Event>
    <Absolute>31168</Absolute>
    <NoteOff Channel="11" Note="42" Velocity="0"/>
  </Event>
  <Event>
    <Absolute>31232</Absolute>
    <NoteOn Channel="11" Note="42" Velocity="126"/>
  </Event>
  <Event>
    <Absolute>31296</Absolute>
    <NoteOff Channel="11" Note="42" Velocity="0"/>
  </Event>
  <Event>
    <Absolute>31360</Absolute>
    <NoteOn Channel="11" Note="42" Velocity="126"/>
  </Event>
  <Event>
    <Absolute>31424</Absolute>
    <NoteOff Channel="11" Note="42" Velocity="0"/>
  </Event>
  <Event>
    <Absolute>31488</Absolute>
    <NoteOn Channel="11" Note="42" Velocity="126"/>
  </Event>
  <Event>
    <Absolute>31552</Absolute>
    <NoteOff Channel="11" Note="42" Velocity="0"/>
  </Event>
  <Event>
    <Absolute>31616</Absolute>
    <NoteOn Channel="11" Note="42" Velocity="126"/>
  </Event>
  <Event>
    <Absolute>31680</Absolute>
    <NoteOff Channel="11" Note="42" Velocity="0"/>
  </Event>
  <Event>
    <Absolute>31744</Absolute>
    <NoteOn Channel="11" Note="42" Velocity="126"/>
  </Event>
  <Event>
    <Absolute>31808</Absolute>
    <NoteOff Channel="11" Note="42" Velocity="0"/>
  </Event>
  <Event>
    <Absolute>31872</Absolute>
    <NoteOn Channel="11" Note="42" Velocity="126"/>
  </Event>
  <Event>
    <Absolute>31936</Absolute>
    <NoteOff Channel="11" Note="42" Velocity="0"/>
  </Event>
  <Event>
    <Absolute>32000</Absolute>
    <NoteOn Channel="11" Note="42" Velocity="126"/>
  </Event>
  <Event>
    <Absolute>32064</Absolute>
    <NoteOff Channel="11" Note="42" Velocity="0"/>
  </Event>
  <Event>
    <Absolute>32128</Absolute>
    <NoteOn Channel="11" Note="42" Velocity="126"/>
  </Event>
  <Event>
    <Absolute>32192</Absolute>
    <NoteOff Channel="11" Note="42" Velocity="0"/>
  </Event>
  <Event>
    <Absolute>32256</Absolute>
    <NoteOn Channel="11" Note="42" Velocity="126"/>
  </Event>
  <Event>
    <Absolute>32320</Absolute>
    <NoteOff Channel="11" Note="42" Velocity="0"/>
  </Event>
  <Event>
    <Absolute>32384</Absolute>
    <NoteOn Channel="11" Note="42" Velocity="126"/>
  </Event>
  <Event>
    <Absolute>32448</Absolute>
    <NoteOff Channel="11" Note="42" Velocity="0"/>
  </Event>
  <Event>
    <Absolute>32512</Absolute>
    <NoteOn Channel="11" Note="42" Velocity="126"/>
  </Event>
  <Event>
    <Absolute>32576</Absolute>
    <NoteOff Channel="11" Note="42" Velocity="0"/>
  </Event>
  <Event>
    <Absolute>32640</Absolute>
    <NoteOn Channel="11" Note="42" Velocity="126"/>
  </Event>
  <Event>
    <Absolute>32704</Absolute>
    <NoteOff Channel="11" Note="42" Velocity="0"/>
  </Event>
  <Event>
    <Absolute>32768</Absolute>
    <NoteOn Channel="11" Note="42" Velocity="126"/>
  </Event>
  <Event>
    <Absolute>32832</Absolute>
    <NoteOff Channel="11" Note="42" Velocity="0"/>
  </Event>
  <Event>
    <Absolute>32896</Absolute>
    <NoteOn Channel="11" Note="42" Velocity="126"/>
  </Event>
  <Event>
    <Absolute>32960</Absolute>
    <NoteOff Channel="11" Note="42" Velocity="0"/>
  </Event>
  <Event>
    <Absolute>33024</Absolute>
    <NoteOn Channel="11" Note="42" Velocity="126"/>
  </Event>
  <Event>
    <Absolute>33088</Absolute>
    <NoteOff Channel="11" Note="42" Velocity="0"/>
  </Event>
  <Event>
    <Absolute>33152</Absolute>
    <NoteOn Channel="11" Note="42" Velocity="126"/>
  </Event>
  <Event>
    <Absolute>33216</Absolute>
    <NoteOff Channel="11" Note="42" Velocity="0"/>
  </Event>
  <Event>
    <Absolute>33280</Absolute>
    <NoteOn Channel="11" Note="42" Velocity="126"/>
  </Event>
  <Event>
    <Absolute>33344</Absolute>
    <NoteOff Channel="11" Note="42" Velocity="0"/>
  </Event>
  <Event>
    <Absolute>33408</Absolute>
    <NoteOn Channel="11" Note="42" Velocity="126"/>
  </Event>
  <Event>
    <Absolute>33472</Absolute>
    <NoteOff Channel="11" Note="42" Velocity="0"/>
  </Event>
  <Event>
    <Absolute>33536</Absolute>
    <NoteOn Channel="11" Note="42" Velocity="126"/>
  </Event>
  <Event>
    <Absolute>33600</Absolute>
    <NoteOff Channel="11" Note="42" Velocity="0"/>
  </Event>
  <Event>
    <Absolute>33664</Absolute>
    <NoteOn Channel="11" Note="42" Velocity="126"/>
  </Event>
  <Event>
    <Absolute>33728</Absolute>
    <NoteOff Channel="11" Note="42" Velocity="0"/>
  </Event>
  <Event>
    <Absolute>33792</Absolute>
    <NoteOn Channel="11" Note="42" Velocity="126"/>
  </Event>
  <Event>
    <Absolute>33856</Absolute>
    <NoteOff Channel="11" Note="42" Velocity="0"/>
  </Event>
  <Event>
    <Absolute>33920</Absolute>
    <NoteOn Channel="11" Note="42" Velocity="126"/>
  </Event>
  <Event>
    <Absolute>33984</Absolute>
    <NoteOff Channel="11" Note="42" Velocity="0"/>
  </Event>
  <Event>
    <Absolute>34048</Absolute>
    <NoteOn Channel="11" Note="42" Velocity="126"/>
  </Event>
  <Event>
    <Absolute>34112</Absolute>
    <NoteOff Channel="11" Note="42" Velocity="0"/>
  </Event>
  <Event>
    <Absolute>34176</Absolute>
    <NoteOn Channel="11" Note="42" Velocity="126"/>
  </Event>
  <Event>
    <Absolute>34240</Absolute>
    <NoteOff Channel="11" Note="42" Velocity="0"/>
  </Event>
  <Event>
    <Absolute>34304</Absolute>
    <NoteOn Channel="11" Note="42" Velocity="126"/>
  </Event>
  <Event>
    <Absolute>34368</Absolute>
    <NoteOff Channel="11" Note="42" Velocity="0"/>
  </Event>
  <Event>
    <Absolute>34432</Absolute>
    <NoteOn Channel="11" Note="42" Velocity="126"/>
  </Event>
  <Event>
    <Absolute>34496</Absolute>
    <NoteOff Channel="11" Note="42" Velocity="0"/>
  </Event>
  <Event>
    <Absolute>34560</Absolute>
    <NoteOn Channel="11" Note="42" Velocity="126"/>
  </Event>
  <Event>
    <Absolute>34624</Absolute>
    <NoteOff Channel="11" Note="42" Velocity="0"/>
  </Event>
  <Event>
    <Absolute>34688</Absolute>
    <NoteOn Channel="11" Note="42" Velocity="126"/>
  </Event>
  <Event>
    <Absolute>34752</Absolute>
    <NoteOff Channel="11" Note="42" Velocity="0"/>
  </Event>
  <Event>
    <Absolute>34816</Absolute>
    <NoteOn Channel="11" Note="42" Velocity="126"/>
  </Event>
  <Event>
    <Absolute>34880</Absolute>
    <NoteOff Channel="11" Note="42" Velocity="0"/>
  </Event>
  <Event>
    <Absolute>34944</Absolute>
    <NoteOn Channel="11" Note="42" Velocity="126"/>
  </Event>
  <Event>
    <Absolute>35008</Absolute>
    <NoteOff Channel="11" Note="42" Velocity="0"/>
  </Event>
  <Event>
    <Absolute>35072</Absolute>
    <NoteOn Channel="11" Note="42" Velocity="126"/>
  </Event>
  <Event>
    <Absolute>35136</Absolute>
    <NoteOff Channel="11" Note="42" Velocity="0"/>
  </Event>
  <Event>
    <Absolute>35200</Absolute>
    <NoteOn Channel="11" Note="42" Velocity="126"/>
  </Event>
  <Event>
    <Absolute>35264</Absolute>
    <NoteOff Channel="11" Note="42" Velocity="0"/>
  </Event>
  <Event>
    <Absolute>35328</Absolute>
    <NoteOn Channel="11" Note="42" Velocity="126"/>
  </Event>
  <Event>
    <Absolute>35392</Absolute>
    <NoteOff Channel="11" Note="42" Velocity="0"/>
  </Event>
  <Event>
    <Absolute>35456</Absolute>
    <NoteOn Channel="11" Note="42" Velocity="126"/>
  </Event>
  <Event>
    <Absolute>35520</Absolute>
    <NoteOff Channel="11" Note="42" Velocity="0"/>
  </Event>
  <Event>
    <Absolute>35584</Absolute>
    <NoteOn Channel="11" Note="42" Velocity="126"/>
  </Event>
  <Event>
    <Absolute>35648</Absolute>
    <NoteOff Channel="11" Note="42" Velocity="0"/>
  </Event>
  <Event>
    <Absolute>35712</Absolute>
    <NoteOn Channel="11" Note="42" Velocity="126"/>
  </Event>
  <Event>
    <Absolute>35776</Absolute>
    <NoteOff Channel="11" Note="42" Velocity="0"/>
  </Event>
  <Event>
    <Absolute>35840</Absolute>
    <NoteOn Channel="11" Note="42" Velocity="126"/>
  </Event>
  <Event>
    <Absolute>35904</Absolute>
    <NoteOff Channel="11" Note="42" Velocity="0"/>
  </Event>
  <Event>
    <Absolute>35968</Absolute>
    <NoteOn Channel="11" Note="42" Velocity="126"/>
  </Event>
  <Event>
    <Absolute>36032</Absolute>
    <NoteOff Channel="11" Note="42" Velocity="0"/>
  </Event>
  <Event>
    <Absolute>36096</Absolute>
    <NoteOn Channel="11" Note="42" Velocity="126"/>
  </Event>
  <Event>
    <Absolute>36160</Absolute>
    <NoteOff Channel="11" Note="42" Velocity="0"/>
  </Event>
  <Event>
    <Absolute>36224</Absolute>
    <NoteOn Channel="11" Note="42" Velocity="126"/>
  </Event>
  <Event>
    <Absolute>36288</Absolute>
    <NoteOff Channel="11" Note="42" Velocity="0"/>
  </Event>
  <Event>
    <Absolute>36352</Absolute>
    <NoteOn Channel="11" Note="42" Velocity="126"/>
  </Event>
  <Event>
    <Absolute>36416</Absolute>
    <NoteOff Channel="11" Note="42" Velocity="0"/>
  </Event>
  <Event>
    <Absolute>36480</Absolute>
    <NoteOn Channel="11" Note="42" Velocity="126"/>
  </Event>
  <Event>
    <Absolute>36544</Absolute>
    <NoteOff Channel="11" Note="42" Velocity="0"/>
  </Event>
  <Event>
    <Absolute>36608</Absolute>
    <NoteOn Channel="11" Note="42" Velocity="126"/>
  </Event>
  <Event>
    <Absolute>36672</Absolute>
    <NoteOff Channel="11" Note="42" Velocity="0"/>
  </Event>
  <Event>
    <Absolute>36736</Absolute>
    <NoteOn Channel="11" Note="42" Velocity="126"/>
  </Event>
  <Event>
    <Absolute>36800</Absolute>
    <NoteOff Channel="11" Note="42" Velocity="0"/>
  </Event>
  <Event>
    <Absolute>36864</Absolute>
    <NoteOn Channel="11" Note="42" Velocity="126"/>
  </Event>
  <Event>
    <Absolute>36928</Absolute>
    <NoteOff Channel="11" Note="42" Velocity="0"/>
  </Event>
  <Event>
    <Absolute>36992</Absolute>
    <NoteOn Channel="11" Note="42" Velocity="126"/>
  </Event>
  <Event>
    <Absolute>37056</Absolute>
    <NoteOff Channel="11" Note="42" Velocity="0"/>
  </Event>
  <Event>
    <Absolute>37120</Absolute>
    <NoteOn Channel="11" Note="42" Velocity="126"/>
  </Event>
  <Event>
    <Absolute>37184</Absolute>
    <NoteOff Channel="11" Note="42" Velocity="0"/>
  </Event>
  <Event>
    <Absolute>37248</Absolute>
    <NoteOn Channel="11" Note="42" Velocity="126"/>
  </Event>
  <Event>
    <Absolute>37312</Absolute>
    <NoteOff Channel="11" Note="42" Velocity="0"/>
  </Event>
  <Event>
    <Absolute>37376</Absolute>
    <NoteOn Channel="11" Note="42" Velocity="126"/>
  </Event>
  <Event>
    <Absolute>37440</Absolute>
    <NoteOff Channel="11" Note="42" Velocity="0"/>
  </Event>
  <Event>
    <Absolute>37504</Absolute>
    <NoteOn Channel="11" Note="42" Velocity="126"/>
  </Event>
  <Event>
    <Absolute>37568</Absolute>
    <NoteOff Channel="11" Note="42" Velocity="0"/>
  </Event>
  <Event>
    <Absolute>37632</Absolute>
    <NoteOn Channel="11" Note="42" Velocity="126"/>
  </Event>
  <Event>
    <Absolute>37696</Absolute>
    <NoteOff Channel="11" Note="42" Velocity="0"/>
  </Event>
  <Event>
    <Absolute>37760</Absolute>
    <NoteOn Channel="11" Note="42" Velocity="126"/>
  </Event>
  <Event>
    <Absolute>37824</Absolute>
    <NoteOff Channel="11" Note="42" Velocity="0"/>
  </Event>
  <Event>
    <Absolute>37888</Absolute>
    <NoteOn Channel="11" Note="42" Velocity="126"/>
  </Event>
  <Event>
    <Absolute>37952</Absolute>
    <NoteOff Channel="11" Note="42" Velocity="0"/>
  </Event>
  <Event>
    <Absolute>38016</Absolute>
    <NoteOn Channel="11" Note="42" Velocity="126"/>
  </Event>
  <Event>
    <Absolute>38080</Absolute>
    <NoteOff Channel="11" Note="42" Velocity="0"/>
  </Event>
  <Event>
    <Absolute>38144</Absolute>
    <NoteOn Channel="11" Note="42" Velocity="126"/>
  </Event>
  <Event>
    <Absolute>38208</Absolute>
    <NoteOff Channel="11" Note="42" Velocity="0"/>
  </Event>
  <Event>
    <Absolute>38272</Absolute>
    <NoteOn Channel="11" Note="42" Velocity="126"/>
  </Event>
  <Event>
    <Absolute>38336</Absolute>
    <NoteOff Channel="11" Note="42" Velocity="0"/>
  </Event>
  <Event>
    <Absolute>38400</Absolute>
    <NoteOn Channel="11" Note="44" Velocity="126"/>
  </Event>
  <Event>
    <Absolute>38464</Absolute>
    <NoteOff Channel="11" Note="44" Velocity="0"/>
  </Event>
  <Event>
    <Absolute>38528</Absolute>
    <NoteOn Channel="11" Note="44" Velocity="126"/>
  </Event>
  <Event>
    <Absolute>38592</Absolute>
    <NoteOff Channel="11" Note="44" Velocity="0"/>
  </Event>
  <Event>
    <Absolute>38656</Absolute>
    <NoteOn Channel="11" Note="44" Velocity="126"/>
  </Event>
  <Event>
    <Absolute>38720</Absolute>
    <NoteOff Channel="11" Note="44" Velocity="0"/>
  </Event>
  <Event>
    <Absolute>38784</Absolute>
    <NoteOn Channel="11" Note="44" Velocity="126"/>
  </Event>
  <Event>
    <Absolute>38848</Absolute>
    <NoteOff Channel="11" Note="44" Velocity="0"/>
  </Event>
  <Event>
    <Absolute>38912</Absolute>
    <NoteOn Channel="11" Note="44" Velocity="126"/>
  </Event>
  <Event>
    <Absolute>38976</Absolute>
    <NoteOff Channel="11" Note="44" Velocity="0"/>
  </Event>
  <Event>
    <Absolute>39040</Absolute>
    <NoteOn Channel="11" Note="44" Velocity="126"/>
  </Event>
  <Event>
    <Absolute>39104</Absolute>
    <NoteOff Channel="11" Note="44" Velocity="0"/>
  </Event>
  <Event>
    <Absolute>39168</Absolute>
    <NoteOn Channel="11" Note="44" Velocity="126"/>
  </Event>
  <Event>
    <Absolute>39232</Absolute>
    <NoteOff Channel="11" Note="44" Velocity="0"/>
  </Event>
  <Event>
    <Absolute>39296</Absolute>
    <NoteOn Channel="11" Note="44" Velocity="126"/>
  </Event>
  <Event>
    <Absolute>39360</Absolute>
    <NoteOff Channel="11" Note="44" Velocity="0"/>
  </Event>
  <Event>
    <Absolute>39424</Absolute>
    <NoteOn Channel="11" Note="44" Velocity="126"/>
  </Event>
  <Event>
    <Absolute>39488</Absolute>
    <NoteOff Channel="11" Note="44" Velocity="0"/>
  </Event>
  <Event>
    <Absolute>39552</Absolute>
    <NoteOn Channel="11" Note="44" Velocity="126"/>
  </Event>
  <Event>
    <Absolute>39616</Absolute>
    <NoteOff Channel="11" Note="44" Velocity="0"/>
  </Event>
  <Event>
    <Absolute>39680</Absolute>
    <NoteOn Channel="11" Note="44" Velocity="126"/>
  </Event>
  <Event>
    <Absolute>39744</Absolute>
    <NoteOff Channel="11" Note="44" Velocity="0"/>
  </Event>
  <Event>
    <Absolute>39808</Absolute>
    <NoteOn Channel="11" Note="44" Velocity="126"/>
  </Event>
  <Event>
    <Absolute>39872</Absolute>
    <NoteOff Channel="11" Note="44" Velocity="0"/>
  </Event>
  <Event>
    <Absolute>39936</Absolute>
    <NoteOn Channel="11" Note="44" Velocity="126"/>
  </Event>
  <Event>
    <Absolute>40000</Absolute>
    <NoteOff Channel="11" Note="44" Velocity="0"/>
  </Event>
  <Event>
    <Absolute>40064</Absolute>
    <NoteOn Channel="11" Note="44" Velocity="126"/>
  </Event>
  <Event>
    <Absolute>40128</Absolute>
    <NoteOff Channel="11" Note="44" Velocity="0"/>
  </Event>
  <Event>
    <Absolute>40192</Absolute>
    <NoteOn Channel="11" Note="44" Velocity="126"/>
  </Event>
  <Event>
    <Absolute>40256</Absolute>
    <NoteOff Channel="11" Note="44" Velocity="0"/>
  </Event>
  <Event>
    <Absolute>40320</Absolute>
    <NoteOn Channel="11" Note="44" Velocity="126"/>
  </Event>
  <Event>
    <Absolute>40384</Absolute>
    <NoteOff Channel="11" Note="44" Velocity="0"/>
  </Event>
  <Event>
    <Absolute>40448</Absolute>
    <NoteOn Channel="11" Note="44" Velocity="126"/>
  </Event>
  <Event>
    <Absolute>40512</Absolute>
    <NoteOff Channel="11" Note="44" Velocity="0"/>
  </Event>
  <Event>
    <Absolute>40576</Absolute>
    <NoteOn Channel="11" Note="44" Velocity="126"/>
  </Event>
  <Event>
    <Absolute>40640</Absolute>
    <NoteOff Channel="11" Note="44" Velocity="0"/>
  </Event>
  <Event>
    <Absolute>40704</Absolute>
    <NoteOn Channel="11" Note="44" Velocity="126"/>
  </Event>
  <Event>
    <Absolute>40768</Absolute>
    <NoteOff Channel="11" Note="44" Velocity="0"/>
  </Event>
  <Event>
    <Absolute>40832</Absolute>
    <NoteOn Channel="11" Note="44" Velocity="126"/>
  </Event>
  <Event>
    <Absolute>40896</Absolute>
    <NoteOff Channel="11" Note="44" Velocity="0"/>
  </Event>
  <Event>
    <Absolute>40960</Absolute>
    <NoteOn Channel="11" Note="44" Velocity="126"/>
  </Event>
  <Event>
    <Absolute>41024</Absolute>
    <NoteOff Channel="11" Note="44" Velocity="0"/>
  </Event>
  <Event>
    <Absolute>41088</Absolute>
    <NoteOn Channel="11" Note="44" Velocity="126"/>
  </Event>
  <Event>
    <Absolute>41152</Absolute>
    <NoteOff Channel="11" Note="44" Velocity="0"/>
  </Event>
  <Event>
    <Absolute>41216</Absolute>
    <NoteOn Channel="11" Note="44" Velocity="126"/>
  </Event>
  <Event>
    <Absolute>41280</Absolute>
    <NoteOff Channel="11" Note="44" Velocity="0"/>
  </Event>
  <Event>
    <Absolute>41344</Absolute>
    <NoteOn Channel="11" Note="44" Velocity="126"/>
  </Event>
  <Event>
    <Absolute>41408</Absolute>
    <NoteOff Channel="11" Note="44" Velocity="0"/>
  </Event>
  <Event>
    <Absolute>41472</Absolute>
    <NoteOn Channel="11" Note="44" Velocity="126"/>
  </Event>
  <Event>
    <Absolute>41536</Absolute>
    <NoteOff Channel="11" Note="44" Velocity="0"/>
  </Event>
  <Event>
    <Absolute>41600</Absolute>
    <NoteOn Channel="11" Note="44" Velocity="126"/>
  </Event>
  <Event>
    <Absolute>41664</Absolute>
    <NoteOff Channel="11" Note="44" Velocity="0"/>
  </Event>
  <Event>
    <Absolute>41728</Absolute>
    <NoteOn Channel="11" Note="44" Velocity="126"/>
  </Event>
  <Event>
    <Absolute>41792</Absolute>
    <NoteOff Channel="11" Note="44" Velocity="0"/>
  </Event>
  <Event>
    <Absolute>41856</Absolute>
    <NoteOn Channel="11" Note="44" Velocity="126"/>
  </Event>
  <Event>
    <Absolute>41920</Absolute>
    <NoteOff Channel="11" Note="44" Velocity="0"/>
  </Event>
  <Event>
    <Absolute>41984</Absolute>
    <NoteOn Channel="11" Note="44" Velocity="126"/>
  </Event>
  <Event>
    <Absolute>42048</Absolute>
    <NoteOff Channel="11" Note="44" Velocity="0"/>
  </Event>
  <Event>
    <Absolute>42112</Absolute>
    <NoteOn Channel="11" Note="44" Velocity="126"/>
  </Event>
  <Event>
    <Absolute>42176</Absolute>
    <NoteOff Channel="11" Note="44" Velocity="0"/>
  </Event>
  <Event>
    <Absolute>42240</Absolute>
    <NoteOn Channel="11" Note="44" Velocity="126"/>
  </Event>
  <Event>
    <Absolute>42304</Absolute>
    <NoteOff Channel="11" Note="44" Velocity="0"/>
  </Event>
  <Event>
    <Absolute>42368</Absolute>
    <NoteOn Channel="11" Note="44" Velocity="126"/>
  </Event>
  <Event>
    <Absolute>42432</Absolute>
    <NoteOff Channel="11" Note="44" Velocity="0"/>
  </Event>
  <Event>
    <Absolute>42496</Absolute>
    <NoteOn Channel="11" Note="44" Velocity="126"/>
  </Event>
  <Event>
    <Absolute>42560</Absolute>
    <NoteOff Channel="11" Note="44" Velocity="0"/>
  </Event>
  <Event>
    <Absolute>42624</Absolute>
    <NoteOn Channel="11" Note="44" Velocity="126"/>
  </Event>
  <Event>
    <Absolute>42688</Absolute>
    <NoteOff Channel="11" Note="44" Velocity="0"/>
  </Event>
  <Event>
    <Absolute>42752</Absolute>
    <NoteOn Channel="11" Note="44" Velocity="126"/>
  </Event>
  <Event>
    <Absolute>42816</Absolute>
    <NoteOff Channel="11" Note="44" Velocity="0"/>
  </Event>
  <Event>
    <Absolute>42880</Absolute>
    <NoteOn Channel="11" Note="44" Velocity="126"/>
  </Event>
  <Event>
    <Absolute>42944</Absolute>
    <NoteOff Channel="11" Note="44" Velocity="0"/>
  </Event>
  <Event>
    <Absolute>43008</Absolute>
    <NoteOn Channel="11" Note="44" Velocity="126"/>
  </Event>
  <Event>
    <Absolute>43072</Absolute>
    <NoteOff Channel="11" Note="44" Velocity="0"/>
  </Event>
  <Event>
    <Absolute>43136</Absolute>
    <NoteOn Channel="11" Note="44" Velocity="126"/>
  </Event>
  <Event>
    <Absolute>43200</Absolute>
    <NoteOff Channel="11" Note="44" Velocity="0"/>
  </Event>
  <Event>
    <Absolute>43264</Absolute>
    <NoteOn Channel="11" Note="44" Velocity="126"/>
  </Event>
  <Event>
    <Absolute>43328</Absolute>
    <NoteOff Channel="11" Note="44" Velocity="0"/>
  </Event>
  <Event>
    <Absolute>43392</Absolute>
    <NoteOn Channel="11" Note="44" Velocity="126"/>
  </Event>
  <Event>
    <Absolute>43456</Absolute>
    <NoteOff Channel="11" Note="44" Velocity="0"/>
  </Event>
  <Event>
    <Absolute>43520</Absolute>
    <NoteOn Channel="11" Note="44" Velocity="126"/>
  </Event>
  <Event>
    <Absolute>43584</Absolute>
    <NoteOff Channel="11" Note="44" Velocity="0"/>
  </Event>
  <Event>
    <Absolute>43648</Absolute>
    <NoteOn Channel="11" Note="44" Velocity="126"/>
  </Event>
  <Event>
    <Absolute>43712</Absolute>
    <NoteOff Channel="11" Note="44" Velocity="0"/>
  </Event>
  <Event>
    <Absolute>43776</Absolute>
    <NoteOn Channel="11" Note="44" Velocity="126"/>
  </Event>
  <Event>
    <Absolute>43840</Absolute>
    <NoteOff Channel="11" Note="44" Velocity="0"/>
  </Event>
  <Event>
    <Absolute>43904</Absolute>
    <NoteOn Channel="11" Note="44" Velocity="126"/>
  </Event>
  <Event>
    <Absolute>43968</Absolute>
    <NoteOff Channel="11" Note="44" Velocity="0"/>
  </Event>
  <Event>
    <Absolute>44032</Absolute>
    <NoteOn Channel="11" Note="44" Velocity="126"/>
  </Event>
  <Event>
    <Absolute>44096</Absolute>
    <NoteOff Channel="11" Note="44" Velocity="0"/>
  </Event>
  <Event>
    <Absolute>44160</Absolute>
    <NoteOn Channel="11" Note="44" Velocity="126"/>
  </Event>
  <Event>
    <Absolute>44224</Absolute>
    <NoteOff Channel="11" Note="44" Velocity="0"/>
  </Event>
  <Event>
    <Absolute>44288</Absolute>
    <NoteOn Channel="11" Note="44" Velocity="126"/>
  </Event>
  <Event>
    <Absolute>44352</Absolute>
    <NoteOff Channel="11" Note="44" Velocity="0"/>
  </Event>
  <Event>
    <Absolute>44416</Absolute>
    <NoteOn Channel="11" Note="44" Velocity="126"/>
  </Event>
  <Event>
    <Absolute>44480</Absolute>
    <NoteOff Channel="11" Note="44" Velocity="0"/>
  </Event>
  <Event>
    <Absolute>44544</Absolute>
    <NoteOn Channel="11" Note="46" Velocity="126"/>
  </Event>
  <Event>
    <Absolute>44608</Absolute>
    <NoteOff Channel="11" Note="46" Velocity="0"/>
  </Event>
  <Event>
    <Absolute>44672</Absolute>
    <NoteOn Channel="11" Note="46" Velocity="126"/>
  </Event>
  <Event>
    <Absolute>44736</Absolute>
    <NoteOff Channel="11" Note="46" Velocity="0"/>
  </Event>
  <Event>
    <Absolute>44800</Absolute>
    <NoteOn Channel="11" Note="46" Velocity="126"/>
  </Event>
  <Event>
    <Absolute>44864</Absolute>
    <NoteOff Channel="11" Note="46" Velocity="0"/>
  </Event>
  <Event>
    <Absolute>44928</Absolute>
    <NoteOn Channel="11" Note="46" Velocity="126"/>
  </Event>
  <Event>
    <Absolute>44992</Absolute>
    <NoteOff Channel="11" Note="46" Velocity="0"/>
  </Event>
  <Event>
    <Absolute>45056</Absolute>
    <NoteOn Channel="11" Note="46" Velocity="126"/>
  </Event>
  <Event>
    <Absolute>45120</Absolute>
    <NoteOff Channel="11" Note="46" Velocity="0"/>
  </Event>
  <Event>
    <Absolute>45184</Absolute>
    <NoteOn Channel="11" Note="46" Velocity="126"/>
  </Event>
  <Event>
    <Absolute>45248</Absolute>
    <NoteOff Channel="11" Note="46" Velocity="0"/>
  </Event>
  <Event>
    <Absolute>45312</Absolute>
    <NoteOn Channel="11" Note="46" Velocity="126"/>
  </Event>
  <Event>
    <Absolute>45376</Absolute>
    <NoteOff Channel="11" Note="46" Velocity="0"/>
  </Event>
  <Event>
    <Absolute>45440</Absolute>
    <NoteOn Channel="11" Note="46" Velocity="126"/>
  </Event>
  <Event>
    <Absolute>45504</Absolute>
    <NoteOff Channel="11" Note="46" Velocity="0"/>
  </Event>
  <Event>
    <Absolute>45568</Absolute>
    <NoteOn Channel="11" Note="46" Velocity="126"/>
  </Event>
  <Event>
    <Absolute>45632</Absolute>
    <NoteOff Channel="11" Note="46" Velocity="0"/>
  </Event>
  <Event>
    <Absolute>45696</Absolute>
    <NoteOn Channel="11" Note="46" Velocity="126"/>
  </Event>
  <Event>
    <Absolute>45760</Absolute>
    <NoteOff Channel="11" Note="46" Velocity="0"/>
  </Event>
  <Event>
    <Absolute>45824</Absolute>
    <NoteOn Channel="11" Note="46" Velocity="126"/>
  </Event>
  <Event>
    <Absolute>45888</Absolute>
    <NoteOff Channel="11" Note="46" Velocity="0"/>
  </Event>
  <Event>
    <Absolute>45952</Absolute>
    <NoteOn Channel="11" Note="46" Velocity="126"/>
  </Event>
  <Event>
    <Absolute>46016</Absolute>
    <NoteOff Channel="11" Note="46" Velocity="0"/>
  </Event>
  <Event>
    <Absolute>46080</Absolute>
    <NoteOn Channel="11" Note="46" Velocity="126"/>
  </Event>
  <Event>
    <Absolute>46144</Absolute>
    <NoteOff Channel="11" Note="46" Velocity="0"/>
  </Event>
  <Event>
    <Absolute>46208</Absolute>
    <NoteOn Channel="11" Note="46" Velocity="126"/>
  </Event>
  <Event>
    <Absolute>46272</Absolute>
    <NoteOff Channel="11" Note="46" Velocity="0"/>
  </Event>
  <Event>
    <Absolute>46336</Absolute>
    <NoteOn Channel="11" Note="46" Velocity="126"/>
  </Event>
  <Event>
    <Absolute>46400</Absolute>
    <NoteOff Channel="11" Note="46" Velocity="0"/>
  </Event>
  <Event>
    <Absolute>46464</Absolute>
    <NoteOn Channel="11" Note="46" Velocity="126"/>
  </Event>
  <Event>
    <Absolute>46528</Absolute>
    <NoteOff Channel="11" Note="46" Velocity="0"/>
  </Event>
  <Event>
    <Absolute>46592</Absolute>
    <NoteOn Channel="11" Note="46" Velocity="126"/>
  </Event>
  <Event>
    <Absolute>46656</Absolute>
    <NoteOff Channel="11" Note="46" Velocity="0"/>
  </Event>
  <Event>
    <Absolute>46720</Absolute>
    <NoteOn Channel="11" Note="46" Velocity="126"/>
  </Event>
  <Event>
    <Absolute>46784</Absolute>
    <NoteOff Channel="11" Note="46" Velocity="0"/>
  </Event>
  <Event>
    <Absolute>46848</Absolute>
    <NoteOn Channel="11" Note="46" Velocity="126"/>
  </Event>
  <Event>
    <Absolute>46912</Absolute>
    <NoteOff Channel="11" Note="46" Velocity="0"/>
  </Event>
  <Event>
    <Absolute>46976</Absolute>
    <NoteOn Channel="11" Note="46" Velocity="126"/>
  </Event>
  <Event>
    <Absolute>47040</Absolute>
    <NoteOff Channel="11" Note="46" Velocity="0"/>
  </Event>
  <Event>
    <Absolute>47104</Absolute>
    <NoteOn Channel="11" Note="46" Velocity="126"/>
  </Event>
  <Event>
    <Absolute>47168</Absolute>
    <NoteOff Channel="11" Note="46" Velocity="0"/>
  </Event>
  <Event>
    <Absolute>47232</Absolute>
    <NoteOn Channel="11" Note="46" Velocity="126"/>
  </Event>
  <Event>
    <Absolute>47296</Absolute>
    <NoteOff Channel="11" Note="46" Velocity="0"/>
  </Event>
  <Event>
    <Absolute>47360</Absolute>
    <NoteOn Channel="11" Note="46" Velocity="126"/>
  </Event>
  <Event>
    <Absolute>47424</Absolute>
    <NoteOff Channel="11" Note="46" Velocity="0"/>
  </Event>
  <Event>
    <Absolute>47488</Absolute>
    <NoteOn Channel="11" Note="46" Velocity="126"/>
  </Event>
  <Event>
    <Absolute>47552</Absolute>
    <NoteOff Channel="11" Note="46" Velocity="0"/>
  </Event>
  <Event>
    <Absolute>47616</Absolute>
    <NoteOn Channel="11" Note="46" Velocity="126"/>
  </Event>
  <Event>
    <Absolute>47680</Absolute>
    <NoteOff Channel="11" Note="46" Velocity="0"/>
  </Event>
  <Event>
    <Absolute>47744</Absolute>
    <NoteOn Channel="11" Note="46" Velocity="126"/>
  </Event>
  <Event>
    <Absolute>47808</Absolute>
    <NoteOff Channel="11" Note="46" Velocity="0"/>
  </Event>
  <Event>
    <Absolute>47872</Absolute>
    <NoteOn Channel="11" Note="46" Velocity="126"/>
  </Event>
  <Event>
    <Absolute>47936</Absolute>
    <NoteOff Channel="11" Note="46" Velocity="0"/>
  </Event>
  <Event>
    <Absolute>48000</Absolute>
    <NoteOn Channel="11" Note="46" Velocity="126"/>
  </Event>
  <Event>
    <Absolute>48064</Absolute>
    <NoteOff Channel="11" Note="46" Velocity="0"/>
  </Event>
  <Event>
    <Absolute>48128</Absolute>
    <NoteOn Channel="11" Note="46" Velocity="126"/>
  </Event>
  <Event>
    <Absolute>48192</Absolute>
    <NoteOff Channel="11" Note="46" Velocity="0"/>
  </Event>
  <Event>
    <Absolute>48256</Absolute>
    <NoteOn Channel="11" Note="46" Velocity="126"/>
  </Event>
  <Event>
    <Absolute>48320</Absolute>
    <NoteOff Channel="11" Note="46" Velocity="0"/>
  </Event>
  <Event>
    <Absolute>48384</Absolute>
    <NoteOn Channel="11" Note="46" Velocity="126"/>
  </Event>
  <Event>
    <Absolute>48448</Absolute>
    <NoteOff Channel="11" Note="46" Velocity="0"/>
  </Event>
  <Event>
    <Absolute>48512</Absolute>
    <NoteOn Channel="11" Note="46" Velocity="126"/>
  </Event>
  <Event>
    <Absolute>48576</Absolute>
    <NoteOff Channel="11" Note="46" Velocity="0"/>
  </Event>
  <Event>
    <Absolute>48640</Absolute>
    <NoteOn Channel="11" Note="46" Velocity="126"/>
  </Event>
  <Event>
    <Absolute>48704</Absolute>
    <NoteOff Channel="11" Note="46" Velocity="0"/>
  </Event>
  <Event>
    <Absolute>48768</Absolute>
    <NoteOn Channel="11" Note="46" Velocity="126"/>
  </Event>
  <Event>
    <Absolute>48832</Absolute>
    <NoteOff Channel="11" Note="46" Velocity="0"/>
  </Event>
  <Event>
    <Absolute>48896</Absolute>
    <NoteOn Channel="11" Note="46" Velocity="126"/>
  </Event>
  <Event>
    <Absolute>48960</Absolute>
    <NoteOff Channel="11" Note="46" Velocity="0"/>
  </Event>
  <Event>
    <Absolute>49024</Absolute>
    <NoteOn Channel="11" Note="46" Velocity="126"/>
  </Event>
  <Event>
    <Absolute>49088</Absolute>
    <NoteOff Channel="11" Note="46" Velocity="0"/>
  </Event>
  <Event>
    <Absolute>49152</Absolute>
    <NoteOn Channel="11" Note="46" Velocity="126"/>
  </Event>
  <Event>
    <Absolute>49216</Absolute>
    <NoteOff Channel="11" Note="46" Velocity="0"/>
  </Event>
  <Event>
    <Absolute>49280</Absolute>
    <NoteOn Channel="11" Note="46" Velocity="126"/>
  </Event>
  <Event>
    <Absolute>49344</Absolute>
    <NoteOff Channel="11" Note="46" Velocity="0"/>
  </Event>
  <Event>
    <Absolute>49408</Absolute>
    <NoteOn Channel="11" Note="46" Velocity="126"/>
  </Event>
  <Event>
    <Absolute>49472</Absolute>
    <NoteOff Channel="11" Note="46" Velocity="0"/>
  </Event>
  <Event>
    <Absolute>49536</Absolute>
    <NoteOn Channel="11" Note="46" Velocity="126"/>
  </Event>
  <Event>
    <Absolute>49600</Absolute>
    <NoteOff Channel="11" Note="46" Velocity="0"/>
  </Event>
  <Event>
    <Absolute>49664</Absolute>
    <NoteOn Channel="11" Note="46" Velocity="126"/>
  </Event>
  <Event>
    <Absolute>49728</Absolute>
    <NoteOff Channel="11" Note="46" Velocity="0"/>
  </Event>
  <Event>
    <Absolute>49792</Absolute>
    <NoteOn Channel="11" Note="46" Velocity="126"/>
  </Event>
  <Event>
    <Absolute>49856</Absolute>
    <NoteOff Channel="11" Note="46" Velocity="0"/>
  </Event>
  <Event>
    <Absolute>49920</Absolute>
    <NoteOn Channel="11" Note="46" Velocity="126"/>
  </Event>
  <Event>
    <Absolute>49984</Absolute>
    <NoteOff Channel="11" Note="46" Velocity="0"/>
  </Event>
  <Event>
    <Absolute>50048</Absolute>
    <NoteOn Channel="11" Note="46" Velocity="126"/>
  </Event>
  <Event>
    <Absolute>50112</Absolute>
    <NoteOff Channel="11" Note="46" Velocity="0"/>
  </Event>
  <Event>
    <Absolute>50176</Absolute>
    <NoteOn Channel="11" Note="46" Velocity="126"/>
  </Event>
  <Event>
    <Absolute>50240</Absolute>
    <NoteOff Channel="11" Note="46" Velocity="0"/>
  </Event>
  <Event>
    <Absolute>50304</Absolute>
    <NoteOn Channel="11" Note="46" Velocity="126"/>
  </Event>
  <Event>
    <Absolute>50368</Absolute>
    <NoteOff Channel="11" Note="46" Velocity="0"/>
  </Event>
  <Event>
    <Absolute>50432</Absolute>
    <NoteOn Channel="11" Note="46" Velocity="126"/>
  </Event>
  <Event>
    <Absolute>50496</Absolute>
    <NoteOff Channel="11" Note="46" Velocity="0"/>
  </Event>
  <Event>
    <Absolute>50560</Absolute>
    <NoteOn Channel="11" Note="46" Velocity="126"/>
  </Event>
  <Event>
    <Absolute>50624</Absolute>
    <NoteOff Channel="11" Note="46" Velocity="0"/>
  </Event>
  <Event>
    <Absolute>75264</Absolute>
    <NoteOn Channel="11" Note="42" Velocity="126"/>
  </Event>
  <Event>
    <Absolute>75328</Absolute>
    <NoteOff Channel="11" Note="42" Velocity="0"/>
  </Event>
  <Event>
    <Absolute>75392</Absolute>
    <NoteOn Channel="11" Note="42" Velocity="126"/>
  </Event>
  <Event>
    <Absolute>75456</Absolute>
    <NoteOff Channel="11" Note="42" Velocity="0"/>
  </Event>
  <Event>
    <Absolute>75520</Absolute>
    <NoteOn Channel="11" Note="42" Velocity="126"/>
  </Event>
  <Event>
    <Absolute>75584</Absolute>
    <NoteOff Channel="11" Note="42" Velocity="0"/>
  </Event>
  <Event>
    <Absolute>75648</Absolute>
    <NoteOn Channel="11" Note="42" Velocity="126"/>
  </Event>
  <Event>
    <Absolute>75712</Absolute>
    <NoteOff Channel="11" Note="42" Velocity="0"/>
  </Event>
  <Event>
    <Absolute>75776</Absolute>
    <NoteOn Channel="11" Note="42" Velocity="126"/>
  </Event>
  <Event>
    <Absolute>75840</Absolute>
    <NoteOff Channel="11" Note="42" Velocity="0"/>
  </Event>
  <Event>
    <Absolute>75904</Absolute>
    <NoteOn Channel="11" Note="42" Velocity="126"/>
  </Event>
  <Event>
    <Absolute>75968</Absolute>
    <NoteOff Channel="11" Note="42" Velocity="0"/>
  </Event>
  <Event>
    <Absolute>76032</Absolute>
    <NoteOn Channel="11" Note="42" Velocity="126"/>
  </Event>
  <Event>
    <Absolute>76096</Absolute>
    <NoteOff Channel="11" Note="42" Velocity="0"/>
  </Event>
  <Event>
    <Absolute>76160</Absolute>
    <NoteOn Channel="11" Note="42" Velocity="126"/>
  </Event>
  <Event>
    <Absolute>76224</Absolute>
    <NoteOff Channel="11" Note="42" Velocity="0"/>
  </Event>
  <Event>
    <Absolute>76288</Absolute>
    <NoteOn Channel="11" Note="42" Velocity="126"/>
  </Event>
  <Event>
    <Absolute>76352</Absolute>
    <NoteOff Channel="11" Note="42" Velocity="0"/>
  </Event>
  <Event>
    <Absolute>76416</Absolute>
    <NoteOn Channel="11" Note="42" Velocity="126"/>
  </Event>
  <Event>
    <Absolute>76480</Absolute>
    <NoteOff Channel="11" Note="42" Velocity="0"/>
  </Event>
  <Event>
    <Absolute>76544</Absolute>
    <NoteOn Channel="11" Note="42" Velocity="126"/>
  </Event>
  <Event>
    <Absolute>76608</Absolute>
    <NoteOff Channel="11" Note="42" Velocity="0"/>
  </Event>
  <Event>
    <Absolute>76672</Absolute>
    <NoteOn Channel="11" Note="42" Velocity="126"/>
  </Event>
  <Event>
    <Absolute>76736</Absolute>
    <NoteOff Channel="11" Note="42" Velocity="0"/>
  </Event>
  <Event>
    <Absolute>76800</Absolute>
    <NoteOn Channel="11" Note="42" Velocity="126"/>
  </Event>
  <Event>
    <Absolute>76864</Absolute>
    <NoteOff Channel="11" Note="42" Velocity="0"/>
  </Event>
  <Event>
    <Absolute>76928</Absolute>
    <NoteOn Channel="11" Note="42" Velocity="126"/>
  </Event>
  <Event>
    <Absolute>76992</Absolute>
    <NoteOff Channel="11" Note="42" Velocity="0"/>
  </Event>
  <Event>
    <Absolute>77056</Absolute>
    <NoteOn Channel="11" Note="42" Velocity="126"/>
  </Event>
  <Event>
    <Absolute>77120</Absolute>
    <NoteOff Channel="11" Note="42" Velocity="0"/>
  </Event>
  <Event>
    <Absolute>77184</Absolute>
    <NoteOn Channel="11" Note="42" Velocity="126"/>
  </Event>
  <Event>
    <Absolute>77248</Absolute>
    <NoteOff Channel="11" Note="42" Velocity="0"/>
  </Event>
  <Event>
    <Absolute>77312</Absolute>
    <NoteOn Channel="11" Note="42" Velocity="126"/>
  </Event>
  <Event>
    <Absolute>77376</Absolute>
    <NoteOff Channel="11" Note="42" Velocity="0"/>
  </Event>
  <Event>
    <Absolute>77440</Absolute>
    <NoteOn Channel="11" Note="42" Velocity="126"/>
  </Event>
  <Event>
    <Absolute>77504</Absolute>
    <NoteOff Channel="11" Note="42" Velocity="0"/>
  </Event>
  <Event>
    <Absolute>77568</Absolute>
    <NoteOn Channel="11" Note="42" Velocity="126"/>
  </Event>
  <Event>
    <Absolute>77632</Absolute>
    <NoteOff Channel="11" Note="42" Velocity="0"/>
  </Event>
  <Event>
    <Absolute>77696</Absolute>
    <NoteOn Channel="11" Note="42" Velocity="126"/>
  </Event>
  <Event>
    <Absolute>77760</Absolute>
    <NoteOff Channel="11" Note="42" Velocity="0"/>
  </Event>
  <Event>
    <Absolute>77824</Absolute>
    <NoteOn Channel="11" Note="42" Velocity="126"/>
  </Event>
  <Event>
    <Absolute>77888</Absolute>
    <NoteOff Channel="11" Note="42" Velocity="0"/>
  </Event>
  <Event>
    <Absolute>77952</Absolute>
    <NoteOn Channel="11" Note="42" Velocity="126"/>
  </Event>
  <Event>
    <Absolute>78016</Absolute>
    <NoteOff Channel="11" Note="42" Velocity="0"/>
  </Event>
  <Event>
    <Absolute>78080</Absolute>
    <NoteOn Channel="11" Note="42" Velocity="126"/>
  </Event>
  <Event>
    <Absolute>78144</Absolute>
    <NoteOff Channel="11" Note="42" Velocity="0"/>
  </Event>
  <Event>
    <Absolute>78208</Absolute>
    <NoteOn Channel="11" Note="42" Velocity="126"/>
  </Event>
  <Event>
    <Absolute>78272</Absolute>
    <NoteOff Channel="11" Note="42" Velocity="0"/>
  </Event>
  <Event>
    <Absolute>78336</Absolute>
    <NoteOn Channel="11" Note="42" Velocity="126"/>
  </Event>
  <Event>
    <Absolute>78400</Absolute>
    <NoteOff Channel="11" Note="42" Velocity="0"/>
  </Event>
  <Event>
    <Absolute>78464</Absolute>
    <NoteOn Channel="11" Note="42" Velocity="126"/>
  </Event>
  <Event>
    <Absolute>78528</Absolute>
    <NoteOff Channel="11" Note="42" Velocity="0"/>
  </Event>
  <Event>
    <Absolute>78592</Absolute>
    <NoteOn Channel="11" Note="42" Velocity="126"/>
  </Event>
  <Event>
    <Absolute>78656</Absolute>
    <NoteOff Channel="11" Note="42" Velocity="0"/>
  </Event>
  <Event>
    <Absolute>78720</Absolute>
    <NoteOn Channel="11" Note="42" Velocity="126"/>
  </Event>
  <Event>
    <Absolute>78784</Absolute>
    <NoteOff Channel="11" Note="42" Velocity="0"/>
  </Event>
  <Event>
    <Absolute>78848</Absolute>
    <NoteOn Channel="11" Note="42" Velocity="126"/>
  </Event>
  <Event>
    <Absolute>78912</Absolute>
    <NoteOff Channel="11" Note="42" Velocity="0"/>
  </Event>
  <Event>
    <Absolute>78976</Absolute>
    <NoteOn Channel="11" Note="42" Velocity="126"/>
  </Event>
  <Event>
    <Absolute>79040</Absolute>
    <NoteOff Channel="11" Note="42" Velocity="0"/>
  </Event>
  <Event>
    <Absolute>79104</Absolute>
    <NoteOn Channel="11" Note="42" Velocity="126"/>
  </Event>
  <Event>
    <Absolute>79168</Absolute>
    <NoteOff Channel="11" Note="42" Velocity="0"/>
  </Event>
  <Event>
    <Absolute>79232</Absolute>
    <NoteOn Channel="11" Note="42" Velocity="126"/>
  </Event>
  <Event>
    <Absolute>79296</Absolute>
    <NoteOff Channel="11" Note="42" Velocity="0"/>
  </Event>
  <Event>
    <Absolute>79360</Absolute>
    <NoteOn Channel="11" Note="42" Velocity="126"/>
  </Event>
  <Event>
    <Absolute>79424</Absolute>
    <NoteOff Channel="11" Note="42" Velocity="0"/>
  </Event>
  <Event>
    <Absolute>79488</Absolute>
    <NoteOn Channel="11" Note="42" Velocity="126"/>
  </Event>
  <Event>
    <Absolute>79552</Absolute>
    <NoteOff Channel="11" Note="42" Velocity="0"/>
  </Event>
  <Event>
    <Absolute>79616</Absolute>
    <NoteOn Channel="11" Note="42" Velocity="126"/>
  </Event>
  <Event>
    <Absolute>79680</Absolute>
    <NoteOff Channel="11" Note="42" Velocity="0"/>
  </Event>
  <Event>
    <Absolute>79744</Absolute>
    <NoteOn Channel="11" Note="42" Velocity="126"/>
  </Event>
  <Event>
    <Absolute>79808</Absolute>
    <NoteOff Channel="11" Note="42" Velocity="0"/>
  </Event>
  <Event>
    <Absolute>79872</Absolute>
    <NoteOn Channel="11" Note="42" Velocity="126"/>
  </Event>
  <Event>
    <Absolute>79936</Absolute>
    <NoteOff Channel="11" Note="42" Velocity="0"/>
  </Event>
  <Event>
    <Absolute>80000</Absolute>
    <NoteOn Channel="11" Note="42" Velocity="126"/>
  </Event>
  <Event>
    <Absolute>80064</Absolute>
    <NoteOff Channel="11" Note="42" Velocity="0"/>
  </Event>
  <Event>
    <Absolute>80128</Absolute>
    <NoteOn Channel="11" Note="42" Velocity="126"/>
  </Event>
  <Event>
    <Absolute>80192</Absolute>
    <NoteOff Channel="11" Note="42" Velocity="0"/>
  </Event>
  <Event>
    <Absolute>80256</Absolute>
    <NoteOn Channel="11" Note="42" Velocity="126"/>
  </Event>
  <Event>
    <Absolute>80320</Absolute>
    <NoteOff Channel="11" Note="42" Velocity="0"/>
  </Event>
  <Event>
    <Absolute>80384</Absolute>
    <NoteOn Channel="11" Note="42" Velocity="126"/>
  </Event>
  <Event>
    <Absolute>80448</Absolute>
    <NoteOff Channel="11" Note="42" Velocity="0"/>
  </Event>
  <Event>
    <Absolute>80512</Absolute>
    <NoteOn Channel="11" Note="42" Velocity="126"/>
  </Event>
  <Event>
    <Absolute>80576</Absolute>
    <NoteOff Channel="11" Note="42" Velocity="0"/>
  </Event>
  <Event>
    <Absolute>80640</Absolute>
    <NoteOn Channel="11" Note="42" Velocity="126"/>
  </Event>
  <Event>
    <Absolute>80704</Absolute>
    <NoteOff Channel="11" Note="42" Velocity="0"/>
  </Event>
  <Event>
    <Absolute>80768</Absolute>
    <NoteOn Channel="11" Note="42" Velocity="126"/>
  </Event>
  <Event>
    <Absolute>80832</Absolute>
    <NoteOff Channel="11" Note="42" Velocity="0"/>
  </Event>
  <Event>
    <Absolute>80896</Absolute>
    <NoteOn Channel="11" Note="42" Velocity="126"/>
  </Event>
  <Event>
    <Absolute>80960</Absolute>
    <NoteOff Channel="11" Note="42" Velocity="0"/>
  </Event>
  <Event>
    <Absolute>81024</Absolute>
    <NoteOn Channel="11" Note="42" Velocity="126"/>
  </Event>
  <Event>
    <Absolute>81088</Absolute>
    <NoteOff Channel="11" Note="42" Velocity="0"/>
  </Event>
  <Event>
    <Absolute>81152</Absolute>
    <NoteOn Channel="11" Note="42" Velocity="126"/>
  </Event>
  <Event>
    <Absolute>81216</Absolute>
    <NoteOff Channel="11" Note="42" Velocity="0"/>
  </Event>
  <Event>
    <Absolute>81280</Absolute>
    <NoteOn Channel="11" Note="42" Velocity="126"/>
  </Event>
  <Event>
    <Absolute>81344</Absolute>
    <NoteOff Channel="11" Note="42" Velocity="0"/>
  </Event>
  <Event>
    <Absolute>81408</Absolute>
    <NoteOn Channel="11" Note="42" Velocity="126"/>
  </Event>
  <Event>
    <Absolute>81472</Absolute>
    <NoteOff Channel="11" Note="42" Velocity="0"/>
  </Event>
  <Event>
    <Absolute>81536</Absolute>
    <NoteOn Channel="11" Note="42" Velocity="126"/>
  </Event>
  <Event>
    <Absolute>81600</Absolute>
    <NoteOff Channel="11" Note="42" Velocity="0"/>
  </Event>
  <Event>
    <Absolute>81664</Absolute>
    <NoteOn Channel="11" Note="42" Velocity="126"/>
  </Event>
  <Event>
    <Absolute>81728</Absolute>
    <NoteOff Channel="11" Note="42" Velocity="0"/>
  </Event>
  <Event>
    <Absolute>81792</Absolute>
    <NoteOn Channel="11" Note="42" Velocity="126"/>
  </Event>
  <Event>
    <Absolute>81856</Absolute>
    <NoteOff Channel="11" Note="42" Velocity="0"/>
  </Event>
  <Event>
    <Absolute>81920</Absolute>
    <NoteOn Channel="11" Note="42" Velocity="126"/>
  </Event>
  <Event>
    <Absolute>81984</Absolute>
    <NoteOff Channel="11" Note="42" Velocity="0"/>
  </Event>
  <Event>
    <Absolute>82048</Absolute>
    <NoteOn Channel="11" Note="42" Velocity="126"/>
  </Event>
  <Event>
    <Absolute>82112</Absolute>
    <NoteOff Channel="11" Note="42" Velocity="0"/>
  </Event>
  <Event>
    <Absolute>82176</Absolute>
    <NoteOn Channel="11" Note="42" Velocity="126"/>
  </Event>
  <Event>
    <Absolute>82240</Absolute>
    <NoteOff Channel="11" Note="42" Velocity="0"/>
  </Event>
  <Event>
    <Absolute>82304</Absolute>
    <NoteOn Channel="11" Note="42" Velocity="126"/>
  </Event>
  <Event>
    <Absolute>82368</Absolute>
    <NoteOff Channel="11" Note="42" Velocity="0"/>
  </Event>
  <Event>
    <Absolute>82432</Absolute>
    <NoteOn Channel="11" Note="42" Velocity="126"/>
  </Event>
  <Event>
    <Absolute>82496</Absolute>
    <NoteOff Channel="11" Note="42" Velocity="0"/>
  </Event>
  <Event>
    <Absolute>82560</Absolute>
    <NoteOn Channel="11" Note="42" Velocity="126"/>
  </Event>
  <Event>
    <Absolute>82624</Absolute>
    <NoteOff Channel="11" Note="42" Velocity="0"/>
  </Event>
  <Event>
    <Absolute>82688</Absolute>
    <NoteOn Channel="11" Note="42" Velocity="126"/>
  </Event>
  <Event>
    <Absolute>82752</Absolute>
    <NoteOff Channel="11" Note="42" Velocity="0"/>
  </Event>
  <Event>
    <Absolute>82816</Absolute>
    <NoteOn Channel="11" Note="42" Velocity="126"/>
  </Event>
  <Event>
    <Absolute>82880</Absolute>
    <NoteOff Channel="11" Note="42" Velocity="0"/>
  </Event>
  <Event>
    <Absolute>82944</Absolute>
    <NoteOn Channel="11" Note="42" Velocity="126"/>
  </Event>
  <Event>
    <Absolute>83008</Absolute>
    <NoteOff Channel="11" Note="42" Velocity="0"/>
  </Event>
  <Event>
    <Absolute>83072</Absolute>
    <NoteOn Channel="11" Note="42" Velocity="126"/>
  </Event>
  <Event>
    <Absolute>83136</Absolute>
    <NoteOff Channel="11" Note="42" Velocity="0"/>
  </Event>
  <Event>
    <Absolute>83200</Absolute>
    <NoteOn Channel="11" Note="42" Velocity="126"/>
  </Event>
  <Event>
    <Absolute>83264</Absolute>
    <NoteOff Channel="11" Note="42" Velocity="0"/>
  </Event>
  <Event>
    <Absolute>83328</Absolute>
    <NoteOn Channel="11" Note="42" Velocity="126"/>
  </Event>
  <Event>
    <Absolute>83392</Absolute>
    <NoteOff Channel="11" Note="42" Velocity="0"/>
  </Event>
  <Event>
    <Absolute>83456</Absolute>
    <NoteOn Channel="11" Note="42" Velocity="126"/>
  </Event>
  <Event>
    <Absolute>83520</Absolute>
    <NoteOff Channel="11" Note="42" Velocity="0"/>
  </Event>
  <Event>
    <Absolute>83584</Absolute>
    <NoteOn Channel="11" Note="42" Velocity="126"/>
  </Event>
  <Event>
    <Absolute>83648</Absolute>
    <NoteOff Channel="11" Note="42" Velocity="0"/>
  </Event>
  <Event>
    <Absolute>83712</Absolute>
    <NoteOn Channel="11" Note="42" Velocity="126"/>
  </Event>
  <Event>
    <Absolute>83776</Absolute>
    <NoteOff Channel="11" Note="42" Velocity="0"/>
  </Event>
  <Event>
    <Absolute>83840</Absolute>
    <NoteOn Channel="11" Note="42" Velocity="126"/>
  </Event>
  <Event>
    <Absolute>83904</Absolute>
    <NoteOff Channel="11" Note="42" Velocity="0"/>
  </Event>
  <Event>
    <Absolute>83968</Absolute>
    <NoteOn Channel="11" Note="42" Velocity="126"/>
  </Event>
  <Event>
    <Absolute>84032</Absolute>
    <NoteOff Channel="11" Note="42" Velocity="0"/>
  </Event>
  <Event>
    <Absolute>84096</Absolute>
    <NoteOn Channel="11" Note="42" Velocity="126"/>
  </Event>
  <Event>
    <Absolute>84160</Absolute>
    <NoteOff Channel="11" Note="42" Velocity="0"/>
  </Event>
  <Event>
    <Absolute>84224</Absolute>
    <NoteOn Channel="11" Note="42" Velocity="126"/>
  </Event>
  <Event>
    <Absolute>84288</Absolute>
    <NoteOff Channel="11" Note="42" Velocity="0"/>
  </Event>
  <Event>
    <Absolute>84352</Absolute>
    <NoteOn Channel="11" Note="42" Velocity="126"/>
  </Event>
  <Event>
    <Absolute>84416</Absolute>
    <NoteOff Channel="11" Note="42" Velocity="0"/>
  </Event>
  <Event>
    <Absolute>84480</Absolute>
    <NoteOn Channel="11" Note="42" Velocity="126"/>
  </Event>
  <Event>
    <Absolute>84544</Absolute>
    <NoteOff Channel="11" Note="42" Velocity="0"/>
  </Event>
  <Event>
    <Absolute>84608</Absolute>
    <NoteOn Channel="11" Note="42" Velocity="126"/>
  </Event>
  <Event>
    <Absolute>84672</Absolute>
    <NoteOff Channel="11" Note="42" Velocity="0"/>
  </Event>
  <Event>
    <Absolute>84736</Absolute>
    <NoteOn Channel="11" Note="42" Velocity="126"/>
  </Event>
  <Event>
    <Absolute>84800</Absolute>
    <NoteOff Channel="11" Note="42" Velocity="0"/>
  </Event>
  <Event>
    <Absolute>84864</Absolute>
    <NoteOn Channel="11" Note="42" Velocity="126"/>
  </Event>
  <Event>
    <Absolute>84928</Absolute>
    <NoteOff Channel="11" Note="42" Velocity="0"/>
  </Event>
  <Event>
    <Absolute>84992</Absolute>
    <NoteOn Channel="11" Note="42" Velocity="126"/>
  </Event>
  <Event>
    <Absolute>85056</Absolute>
    <NoteOff Channel="11" Note="42" Velocity="0"/>
  </Event>
  <Event>
    <Absolute>85120</Absolute>
    <NoteOn Channel="11" Note="42" Velocity="126"/>
  </Event>
  <Event>
    <Absolute>85184</Absolute>
    <NoteOff Channel="11" Note="42" Velocity="0"/>
  </Event>
  <Event>
    <Absolute>85248</Absolute>
    <NoteOn Channel="11" Note="42" Velocity="126"/>
  </Event>
  <Event>
    <Absolute>85312</Absolute>
    <NoteOff Channel="11" Note="42" Velocity="0"/>
  </Event>
  <Event>
    <Absolute>85376</Absolute>
    <NoteOn Channel="11" Note="42" Velocity="126"/>
  </Event>
  <Event>
    <Absolute>85440</Absolute>
    <NoteOff Channel="11" Note="42" Velocity="0"/>
  </Event>
  <Event>
    <Absolute>85504</Absolute>
    <NoteOn Channel="11" Note="42" Velocity="126"/>
  </Event>
  <Event>
    <Absolute>85568</Absolute>
    <NoteOff Channel="11" Note="42" Velocity="0"/>
  </Event>
  <Event>
    <Absolute>85632</Absolute>
    <NoteOn Channel="11" Note="42" Velocity="126"/>
  </Event>
  <Event>
    <Absolute>85696</Absolute>
    <NoteOff Channel="11" Note="42" Velocity="0"/>
  </Event>
  <Event>
    <Absolute>85760</Absolute>
    <NoteOn Channel="11" Note="42" Velocity="126"/>
  </Event>
  <Event>
    <Absolute>85824</Absolute>
    <NoteOff Channel="11" Note="42" Velocity="0"/>
  </Event>
  <Event>
    <Absolute>85888</Absolute>
    <NoteOn Channel="11" Note="42" Velocity="126"/>
  </Event>
  <Event>
    <Absolute>85952</Absolute>
    <NoteOff Channel="11" Note="42" Velocity="0"/>
  </Event>
  <Event>
    <Absolute>86016</Absolute>
    <NoteOn Channel="11" Note="42" Velocity="126"/>
  </Event>
  <Event>
    <Absolute>86080</Absolute>
    <NoteOff Channel="11" Note="42" Velocity="0"/>
  </Event>
  <Event>
    <Absolute>86144</Absolute>
    <NoteOn Channel="11" Note="42" Velocity="126"/>
  </Event>
  <Event>
    <Absolute>86208</Absolute>
    <NoteOff Channel="11" Note="42" Velocity="0"/>
  </Event>
  <Event>
    <Absolute>86272</Absolute>
    <NoteOn Channel="11" Note="42" Velocity="126"/>
  </Event>
  <Event>
    <Absolute>86336</Absolute>
    <NoteOff Channel="11" Note="42" Velocity="0"/>
  </Event>
  <Event>
    <Absolute>86400</Absolute>
    <NoteOn Channel="11" Note="42" Velocity="126"/>
  </Event>
  <Event>
    <Absolute>86464</Absolute>
    <NoteOff Channel="11" Note="42" Velocity="0"/>
  </Event>
  <Event>
    <Absolute>86528</Absolute>
    <NoteOn Channel="11" Note="42" Velocity="126"/>
  </Event>
  <Event>
    <Absolute>86592</Absolute>
    <NoteOff Channel="11" Note="42" Velocity="0"/>
  </Event>
  <Event>
    <Absolute>86656</Absolute>
    <NoteOn Channel="11" Note="42" Velocity="126"/>
  </Event>
  <Event>
    <Absolute>86720</Absolute>
    <NoteOff Channel="11" Note="42" Velocity="0"/>
  </Event>
  <Event>
    <Absolute>86784</Absolute>
    <NoteOn Channel="11" Note="42" Velocity="126"/>
  </Event>
  <Event>
    <Absolute>86848</Absolute>
    <NoteOff Channel="11" Note="42" Velocity="0"/>
  </Event>
  <Event>
    <Absolute>86912</Absolute>
    <NoteOn Channel="11" Note="42" Velocity="126"/>
  </Event>
  <Event>
    <Absolute>86976</Absolute>
    <NoteOff Channel="11" Note="42" Velocity="0"/>
  </Event>
  <Event>
    <Absolute>87040</Absolute>
    <NoteOn Channel="11" Note="42" Velocity="126"/>
  </Event>
  <Event>
    <Absolute>87104</Absolute>
    <NoteOff Channel="11" Note="42" Velocity="0"/>
  </Event>
  <Event>
    <Absolute>87168</Absolute>
    <NoteOn Channel="11" Note="42" Velocity="126"/>
  </Event>
  <Event>
    <Absolute>87232</Absolute>
    <NoteOff Channel="11" Note="42" Velocity="0"/>
  </Event>
  <Event>
    <Absolute>87296</Absolute>
    <NoteOn Channel="11" Note="42" Velocity="126"/>
  </Event>
  <Event>
    <Absolute>87360</Absolute>
    <NoteOff Channel="11" Note="42" Velocity="0"/>
  </Event>
  <Event>
    <Absolute>87424</Absolute>
    <NoteOn Channel="11" Note="42" Velocity="126"/>
  </Event>
  <Event>
    <Absolute>87488</Absolute>
    <NoteOff Channel="11" Note="42" Velocity="0"/>
  </Event>
  <Event>
    <Absolute>87552</Absolute>
    <NoteOn Channel="11" Note="44" Velocity="126"/>
  </Event>
  <Event>
    <Absolute>87616</Absolute>
    <NoteOff Channel="11" Note="44" Velocity="0"/>
  </Event>
  <Event>
    <Absolute>87680</Absolute>
    <NoteOn Channel="11" Note="44" Velocity="126"/>
  </Event>
  <Event>
    <Absolute>87744</Absolute>
    <NoteOff Channel="11" Note="44" Velocity="0"/>
  </Event>
  <Event>
    <Absolute>87808</Absolute>
    <NoteOn Channel="11" Note="44" Velocity="126"/>
  </Event>
  <Event>
    <Absolute>87872</Absolute>
    <NoteOff Channel="11" Note="44" Velocity="0"/>
  </Event>
  <Event>
    <Absolute>87936</Absolute>
    <NoteOn Channel="11" Note="44" Velocity="126"/>
  </Event>
  <Event>
    <Absolute>88000</Absolute>
    <NoteOff Channel="11" Note="44" Velocity="0"/>
  </Event>
  <Event>
    <Absolute>88064</Absolute>
    <NoteOn Channel="11" Note="44" Velocity="126"/>
  </Event>
  <Event>
    <Absolute>88128</Absolute>
    <NoteOff Channel="11" Note="44" Velocity="0"/>
  </Event>
  <Event>
    <Absolute>88192</Absolute>
    <NoteOn Channel="11" Note="44" Velocity="126"/>
  </Event>
  <Event>
    <Absolute>88256</Absolute>
    <NoteOff Channel="11" Note="44" Velocity="0"/>
  </Event>
  <Event>
    <Absolute>88320</Absolute>
    <NoteOn Channel="11" Note="44" Velocity="126"/>
  </Event>
  <Event>
    <Absolute>88384</Absolute>
    <NoteOff Channel="11" Note="44" Velocity="0"/>
  </Event>
  <Event>
    <Absolute>88448</Absolute>
    <NoteOn Channel="11" Note="44" Velocity="126"/>
  </Event>
  <Event>
    <Absolute>88512</Absolute>
    <NoteOff Channel="11" Note="44" Velocity="0"/>
  </Event>
  <Event>
    <Absolute>88576</Absolute>
    <NoteOn Channel="11" Note="44" Velocity="126"/>
  </Event>
  <Event>
    <Absolute>88640</Absolute>
    <NoteOff Channel="11" Note="44" Velocity="0"/>
  </Event>
  <Event>
    <Absolute>88704</Absolute>
    <NoteOn Channel="11" Note="44" Velocity="126"/>
  </Event>
  <Event>
    <Absolute>88768</Absolute>
    <NoteOff Channel="11" Note="44" Velocity="0"/>
  </Event>
  <Event>
    <Absolute>88832</Absolute>
    <NoteOn Channel="11" Note="44" Velocity="126"/>
  </Event>
  <Event>
    <Absolute>88896</Absolute>
    <NoteOff Channel="11" Note="44" Velocity="0"/>
  </Event>
  <Event>
    <Absolute>88960</Absolute>
    <NoteOn Channel="11" Note="44" Velocity="126"/>
  </Event>
  <Event>
    <Absolute>89024</Absolute>
    <NoteOff Channel="11" Note="44" Velocity="0"/>
  </Event>
  <Event>
    <Absolute>89088</Absolute>
    <NoteOn Channel="11" Note="44" Velocity="126"/>
  </Event>
  <Event>
    <Absolute>89152</Absolute>
    <NoteOff Channel="11" Note="44" Velocity="0"/>
  </Event>
  <Event>
    <Absolute>89216</Absolute>
    <NoteOn Channel="11" Note="44" Velocity="126"/>
  </Event>
  <Event>
    <Absolute>89280</Absolute>
    <NoteOff Channel="11" Note="44" Velocity="0"/>
  </Event>
  <Event>
    <Absolute>89344</Absolute>
    <NoteOn Channel="11" Note="44" Velocity="126"/>
  </Event>
  <Event>
    <Absolute>89408</Absolute>
    <NoteOff Channel="11" Note="44" Velocity="0"/>
  </Event>
  <Event>
    <Absolute>89472</Absolute>
    <NoteOn Channel="11" Note="44" Velocity="126"/>
  </Event>
  <Event>
    <Absolute>89536</Absolute>
    <NoteOff Channel="11" Note="44" Velocity="0"/>
  </Event>
  <Event>
    <Absolute>89600</Absolute>
    <NoteOn Channel="11" Note="44" Velocity="126"/>
  </Event>
  <Event>
    <Absolute>89664</Absolute>
    <NoteOff Channel="11" Note="44" Velocity="0"/>
  </Event>
  <Event>
    <Absolute>89728</Absolute>
    <NoteOn Channel="11" Note="44" Velocity="126"/>
  </Event>
  <Event>
    <Absolute>89792</Absolute>
    <NoteOff Channel="11" Note="44" Velocity="0"/>
  </Event>
  <Event>
    <Absolute>89856</Absolute>
    <NoteOn Channel="11" Note="44" Velocity="126"/>
  </Event>
  <Event>
    <Absolute>89920</Absolute>
    <NoteOff Channel="11" Note="44" Velocity="0"/>
  </Event>
  <Event>
    <Absolute>89984</Absolute>
    <NoteOn Channel="11" Note="44" Velocity="126"/>
  </Event>
  <Event>
    <Absolute>90048</Absolute>
    <NoteOff Channel="11" Note="44" Velocity="0"/>
  </Event>
  <Event>
    <Absolute>90112</Absolute>
    <NoteOn Channel="11" Note="44" Velocity="126"/>
  </Event>
  <Event>
    <Absolute>90176</Absolute>
    <NoteOff Channel="11" Note="44" Velocity="0"/>
  </Event>
  <Event>
    <Absolute>90240</Absolute>
    <NoteOn Channel="11" Note="44" Velocity="126"/>
  </Event>
  <Event>
    <Absolute>90304</Absolute>
    <NoteOff Channel="11" Note="44" Velocity="0"/>
  </Event>
  <Event>
    <Absolute>90368</Absolute>
    <NoteOn Channel="11" Note="44" Velocity="126"/>
  </Event>
  <Event>
    <Absolute>90432</Absolute>
    <NoteOff Channel="11" Note="44" Velocity="0"/>
  </Event>
  <Event>
    <Absolute>90496</Absolute>
    <NoteOn Channel="11" Note="44" Velocity="126"/>
  </Event>
  <Event>
    <Absolute>90560</Absolute>
    <NoteOff Channel="11" Note="44" Velocity="0"/>
  </Event>
  <Event>
    <Absolute>90624</Absolute>
    <NoteOn Channel="11" Note="44" Velocity="126"/>
  </Event>
  <Event>
    <Absolute>90688</Absolute>
    <NoteOff Channel="11" Note="44" Velocity="0"/>
  </Event>
  <Event>
    <Absolute>90752</Absolute>
    <NoteOn Channel="11" Note="44" Velocity="126"/>
  </Event>
  <Event>
    <Absolute>90816</Absolute>
    <NoteOff Channel="11" Note="44" Velocity="0"/>
  </Event>
  <Event>
    <Absolute>90880</Absolute>
    <NoteOn Channel="11" Note="44" Velocity="126"/>
  </Event>
  <Event>
    <Absolute>90944</Absolute>
    <NoteOff Channel="11" Note="44" Velocity="0"/>
  </Event>
  <Event>
    <Absolute>91008</Absolute>
    <NoteOn Channel="11" Note="44" Velocity="126"/>
  </Event>
  <Event>
    <Absolute>91072</Absolute>
    <NoteOff Channel="11" Note="44" Velocity="0"/>
  </Event>
  <Event>
    <Absolute>91136</Absolute>
    <NoteOn Channel="11" Note="44" Velocity="126"/>
  </Event>
  <Event>
    <Absolute>91200</Absolute>
    <NoteOff Channel="11" Note="44" Velocity="0"/>
  </Event>
  <Event>
    <Absolute>91264</Absolute>
    <NoteOn Channel="11" Note="44" Velocity="126"/>
  </Event>
  <Event>
    <Absolute>91328</Absolute>
    <NoteOff Channel="11" Note="44" Velocity="0"/>
  </Event>
  <Event>
    <Absolute>91392</Absolute>
    <NoteOn Channel="11" Note="44" Velocity="126"/>
  </Event>
  <Event>
    <Absolute>91456</Absolute>
    <NoteOff Channel="11" Note="44" Velocity="0"/>
  </Event>
  <Event>
    <Absolute>91520</Absolute>
    <NoteOn Channel="11" Note="44" Velocity="126"/>
  </Event>
  <Event>
    <Absolute>91584</Absolute>
    <NoteOff Channel="11" Note="44" Velocity="0"/>
  </Event>
  <Event>
    <Absolute>91648</Absolute>
    <NoteOn Channel="11" Note="44" Velocity="126"/>
  </Event>
  <Event>
    <Absolute>91712</Absolute>
    <NoteOff Channel="11" Note="44" Velocity="0"/>
  </Event>
  <Event>
    <Absolute>91776</Absolute>
    <NoteOn Channel="11" Note="44" Velocity="126"/>
  </Event>
  <Event>
    <Absolute>91840</Absolute>
    <NoteOff Channel="11" Note="44" Velocity="0"/>
  </Event>
  <Event>
    <Absolute>91904</Absolute>
    <NoteOn Channel="11" Note="44" Velocity="126"/>
  </Event>
  <Event>
    <Absolute>91968</Absolute>
    <NoteOff Channel="11" Note="44" Velocity="0"/>
  </Event>
  <Event>
    <Absolute>92032</Absolute>
    <NoteOn Channel="11" Note="44" Velocity="126"/>
  </Event>
  <Event>
    <Absolute>92096</Absolute>
    <NoteOff Channel="11" Note="44" Velocity="0"/>
  </Event>
  <Event>
    <Absolute>92160</Absolute>
    <NoteOn Channel="11" Note="44" Velocity="126"/>
  </Event>
  <Event>
    <Absolute>92224</Absolute>
    <NoteOff Channel="11" Note="44" Velocity="0"/>
  </Event>
  <Event>
    <Absolute>92288</Absolute>
    <NoteOn Channel="11" Note="44" Velocity="126"/>
  </Event>
  <Event>
    <Absolute>92352</Absolute>
    <NoteOff Channel="11" Note="44" Velocity="0"/>
  </Event>
  <Event>
    <Absolute>92416</Absolute>
    <NoteOn Channel="11" Note="44" Velocity="126"/>
  </Event>
  <Event>
    <Absolute>92480</Absolute>
    <NoteOff Channel="11" Note="44" Velocity="0"/>
  </Event>
  <Event>
    <Absolute>92544</Absolute>
    <NoteOn Channel="11" Note="44" Velocity="126"/>
  </Event>
  <Event>
    <Absolute>92608</Absolute>
    <NoteOff Channel="11" Note="44" Velocity="0"/>
  </Event>
  <Event>
    <Absolute>92672</Absolute>
    <NoteOn Channel="11" Note="44" Velocity="126"/>
  </Event>
  <Event>
    <Absolute>92736</Absolute>
    <NoteOff Channel="11" Note="44" Velocity="0"/>
  </Event>
  <Event>
    <Absolute>92800</Absolute>
    <NoteOn Channel="11" Note="44" Velocity="126"/>
  </Event>
  <Event>
    <Absolute>92864</Absolute>
    <NoteOff Channel="11" Note="44" Velocity="0"/>
  </Event>
  <Event>
    <Absolute>92928</Absolute>
    <NoteOn Channel="11" Note="44" Velocity="126"/>
  </Event>
  <Event>
    <Absolute>92992</Absolute>
    <NoteOff Channel="11" Note="44" Velocity="0"/>
  </Event>
  <Event>
    <Absolute>93056</Absolute>
    <NoteOn Channel="11" Note="44" Velocity="126"/>
  </Event>
  <Event>
    <Absolute>93120</Absolute>
    <NoteOff Channel="11" Note="44" Velocity="0"/>
  </Event>
  <Event>
    <Absolute>93184</Absolute>
    <NoteOn Channel="11" Note="44" Velocity="126"/>
  </Event>
  <Event>
    <Absolute>93248</Absolute>
    <NoteOff Channel="11" Note="44" Velocity="0"/>
  </Event>
  <Event>
    <Absolute>93312</Absolute>
    <NoteOn Channel="11" Note="44" Velocity="126"/>
  </Event>
  <Event>
    <Absolute>93376</Absolute>
    <NoteOff Channel="11" Note="44" Velocity="0"/>
  </Event>
  <Event>
    <Absolute>93440</Absolute>
    <NoteOn Channel="11" Note="44" Velocity="126"/>
  </Event>
  <Event>
    <Absolute>93504</Absolute>
    <NoteOff Channel="11" Note="44" Velocity="0"/>
  </Event>
  <Event>
    <Absolute>93568</Absolute>
    <NoteOn Channel="11" Note="44" Velocity="126"/>
  </Event>
  <Event>
    <Absolute>93632</Absolute>
    <NoteOff Channel="11" Note="44" Velocity="0"/>
  </Event>
  <Event>
    <Absolute>93696</Absolute>
    <NoteOn Channel="11" Note="46" Velocity="126"/>
  </Event>
  <Event>
    <Absolute>93760</Absolute>
    <NoteOff Channel="11" Note="46" Velocity="0"/>
  </Event>
  <Event>
    <Absolute>93824</Absolute>
    <NoteOn Channel="11" Note="46" Velocity="126"/>
  </Event>
  <Event>
    <Absolute>93888</Absolute>
    <NoteOff Channel="11" Note="46" Velocity="0"/>
  </Event>
  <Event>
    <Absolute>93952</Absolute>
    <NoteOn Channel="11" Note="46" Velocity="126"/>
  </Event>
  <Event>
    <Absolute>94016</Absolute>
    <NoteOff Channel="11" Note="46" Velocity="0"/>
  </Event>
  <Event>
    <Absolute>94080</Absolute>
    <NoteOn Channel="11" Note="46" Velocity="126"/>
  </Event>
  <Event>
    <Absolute>94144</Absolute>
    <NoteOff Channel="11" Note="46" Velocity="0"/>
  </Event>
  <Event>
    <Absolute>94208</Absolute>
    <NoteOn Channel="11" Note="46" Velocity="126"/>
  </Event>
  <Event>
    <Absolute>94272</Absolute>
    <NoteOff Channel="11" Note="46" Velocity="0"/>
  </Event>
  <Event>
    <Absolute>94336</Absolute>
    <NoteOn Channel="11" Note="46" Velocity="126"/>
  </Event>
  <Event>
    <Absolute>94400</Absolute>
    <NoteOff Channel="11" Note="46" Velocity="0"/>
  </Event>
  <Event>
    <Absolute>94464</Absolute>
    <NoteOn Channel="11" Note="46" Velocity="126"/>
  </Event>
  <Event>
    <Absolute>94528</Absolute>
    <NoteOff Channel="11" Note="46" Velocity="0"/>
  </Event>
  <Event>
    <Absolute>94592</Absolute>
    <NoteOn Channel="11" Note="46" Velocity="126"/>
  </Event>
  <Event>
    <Absolute>94656</Absolute>
    <NoteOff Channel="11" Note="46" Velocity="0"/>
  </Event>
  <Event>
    <Absolute>94720</Absolute>
    <NoteOn Channel="11" Note="46" Velocity="126"/>
  </Event>
  <Event>
    <Absolute>94784</Absolute>
    <NoteOff Channel="11" Note="46" Velocity="0"/>
  </Event>
  <Event>
    <Absolute>94848</Absolute>
    <NoteOn Channel="11" Note="46" Velocity="126"/>
  </Event>
  <Event>
    <Absolute>94912</Absolute>
    <NoteOff Channel="11" Note="46" Velocity="0"/>
  </Event>
  <Event>
    <Absolute>94976</Absolute>
    <NoteOn Channel="11" Note="46" Velocity="126"/>
  </Event>
  <Event>
    <Absolute>95040</Absolute>
    <NoteOff Channel="11" Note="46" Velocity="0"/>
  </Event>
  <Event>
    <Absolute>95104</Absolute>
    <NoteOn Channel="11" Note="46" Velocity="126"/>
  </Event>
  <Event>
    <Absolute>95168</Absolute>
    <NoteOff Channel="11" Note="46" Velocity="0"/>
  </Event>
  <Event>
    <Absolute>95232</Absolute>
    <NoteOn Channel="11" Note="46" Velocity="126"/>
  </Event>
  <Event>
    <Absolute>95296</Absolute>
    <NoteOff Channel="11" Note="46" Velocity="0"/>
  </Event>
  <Event>
    <Absolute>95360</Absolute>
    <NoteOn Channel="11" Note="46" Velocity="126"/>
  </Event>
  <Event>
    <Absolute>95424</Absolute>
    <NoteOff Channel="11" Note="46" Velocity="0"/>
  </Event>
  <Event>
    <Absolute>95488</Absolute>
    <NoteOn Channel="11" Note="46" Velocity="126"/>
  </Event>
  <Event>
    <Absolute>95552</Absolute>
    <NoteOff Channel="11" Note="46" Velocity="0"/>
  </Event>
  <Event>
    <Absolute>95616</Absolute>
    <NoteOn Channel="11" Note="46" Velocity="126"/>
  </Event>
  <Event>
    <Absolute>95680</Absolute>
    <NoteOff Channel="11" Note="46" Velocity="0"/>
  </Event>
  <Event>
    <Absolute>95744</Absolute>
    <NoteOn Channel="11" Note="46" Velocity="126"/>
  </Event>
  <Event>
    <Absolute>95808</Absolute>
    <NoteOff Channel="11" Note="46" Velocity="0"/>
  </Event>
  <Event>
    <Absolute>95872</Absolute>
    <NoteOn Channel="11" Note="46" Velocity="126"/>
  </Event>
  <Event>
    <Absolute>95936</Absolute>
    <NoteOff Channel="11" Note="46" Velocity="0"/>
  </Event>
  <Event>
    <Absolute>96000</Absolute>
    <NoteOn Channel="11" Note="46" Velocity="126"/>
  </Event>
  <Event>
    <Absolute>96064</Absolute>
    <NoteOff Channel="11" Note="46" Velocity="0"/>
  </Event>
  <Event>
    <Absolute>96128</Absolute>
    <NoteOn Channel="11" Note="46" Velocity="126"/>
  </Event>
  <Event>
    <Absolute>96192</Absolute>
    <NoteOff Channel="11" Note="46" Velocity="0"/>
  </Event>
  <Event>
    <Absolute>96256</Absolute>
    <NoteOn Channel="11" Note="46" Velocity="126"/>
  </Event>
  <Event>
    <Absolute>96320</Absolute>
    <NoteOff Channel="11" Note="46" Velocity="0"/>
  </Event>
  <Event>
    <Absolute>96384</Absolute>
    <NoteOn Channel="11" Note="46" Velocity="126"/>
  </Event>
  <Event>
    <Absolute>96448</Absolute>
    <NoteOff Channel="11" Note="46" Velocity="0"/>
  </Event>
  <Event>
    <Absolute>96512</Absolute>
    <NoteOn Channel="11" Note="46" Velocity="126"/>
  </Event>
  <Event>
    <Absolute>96576</Absolute>
    <NoteOff Channel="11" Note="46" Velocity="0"/>
  </Event>
  <Event>
    <Absolute>96640</Absolute>
    <NoteOn Channel="11" Note="46" Velocity="126"/>
  </Event>
  <Event>
    <Absolute>96704</Absolute>
    <NoteOff Channel="11" Note="46" Velocity="0"/>
  </Event>
  <Event>
    <Absolute>96768</Absolute>
    <NoteOn Channel="11" Note="46" Velocity="126"/>
  </Event>
  <Event>
    <Absolute>96832</Absolute>
    <NoteOff Channel="11" Note="46" Velocity="0"/>
  </Event>
  <Event>
    <Absolute>96896</Absolute>
    <NoteOn Channel="11" Note="46" Velocity="126"/>
  </Event>
  <Event>
    <Absolute>96960</Absolute>
    <NoteOff Channel="11" Note="46" Velocity="0"/>
  </Event>
  <Event>
    <Absolute>97024</Absolute>
    <NoteOn Channel="11" Note="46" Velocity="126"/>
  </Event>
  <Event>
    <Absolute>97088</Absolute>
    <NoteOff Channel="11" Note="46" Velocity="0"/>
  </Event>
  <Event>
    <Absolute>97152</Absolute>
    <NoteOn Channel="11" Note="46" Velocity="126"/>
  </Event>
  <Event>
    <Absolute>97216</Absolute>
    <NoteOff Channel="11" Note="46" Velocity="0"/>
  </Event>
  <Event>
    <Absolute>97280</Absolute>
    <NoteOn Channel="11" Note="46" Velocity="126"/>
  </Event>
  <Event>
    <Absolute>97344</Absolute>
    <NoteOff Channel="11" Note="46" Velocity="0"/>
  </Event>
  <Event>
    <Absolute>97408</Absolute>
    <NoteOn Channel="11" Note="46" Velocity="126"/>
  </Event>
  <Event>
    <Absolute>97472</Absolute>
    <NoteOff Channel="11" Note="46" Velocity="0"/>
  </Event>
  <Event>
    <Absolute>97536</Absolute>
    <NoteOn Channel="11" Note="46" Velocity="126"/>
  </Event>
  <Event>
    <Absolute>97600</Absolute>
    <NoteOff Channel="11" Note="46" Velocity="0"/>
  </Event>
  <Event>
    <Absolute>97664</Absolute>
    <NoteOn Channel="11" Note="46" Velocity="126"/>
  </Event>
  <Event>
    <Absolute>97728</Absolute>
    <NoteOff Channel="11" Note="46" Velocity="0"/>
  </Event>
  <Event>
    <Absolute>97792</Absolute>
    <NoteOn Channel="11" Note="46" Velocity="126"/>
  </Event>
  <Event>
    <Absolute>97856</Absolute>
    <NoteOff Channel="11" Note="46" Velocity="0"/>
  </Event>
  <Event>
    <Absolute>97920</Absolute>
    <NoteOn Channel="11" Note="46" Velocity="126"/>
  </Event>
  <Event>
    <Absolute>97984</Absolute>
    <NoteOff Channel="11" Note="46" Velocity="0"/>
  </Event>
  <Event>
    <Absolute>98048</Absolute>
    <NoteOn Channel="11" Note="46" Velocity="126"/>
  </Event>
  <Event>
    <Absolute>98112</Absolute>
    <NoteOff Channel="11" Note="46" Velocity="0"/>
  </Event>
  <Event>
    <Absolute>98176</Absolute>
    <NoteOn Channel="11" Note="46" Velocity="126"/>
  </Event>
  <Event>
    <Absolute>98240</Absolute>
    <NoteOff Channel="11" Note="46" Velocity="0"/>
  </Event>
  <Event>
    <Absolute>98304</Absolute>
    <NoteOn Channel="11" Note="46" Velocity="126"/>
  </Event>
  <Event>
    <Absolute>98368</Absolute>
    <NoteOff Channel="11" Note="46" Velocity="0"/>
  </Event>
  <Event>
    <Absolute>98432</Absolute>
    <NoteOn Channel="11" Note="46" Velocity="126"/>
  </Event>
  <Event>
    <Absolute>98496</Absolute>
    <NoteOff Channel="11" Note="46" Velocity="0"/>
  </Event>
  <Event>
    <Absolute>98560</Absolute>
    <NoteOn Channel="11" Note="46" Velocity="126"/>
  </Event>
  <Event>
    <Absolute>98624</Absolute>
    <NoteOff Channel="11" Note="46" Velocity="0"/>
  </Event>
  <Event>
    <Absolute>98688</Absolute>
    <NoteOn Channel="11" Note="46" Velocity="126"/>
  </Event>
  <Event>
    <Absolute>98752</Absolute>
    <NoteOff Channel="11" Note="46" Velocity="0"/>
  </Event>
  <Event>
    <Absolute>98816</Absolute>
    <NoteOn Channel="11" Note="46" Velocity="126"/>
  </Event>
  <Event>
    <Absolute>98880</Absolute>
    <NoteOff Channel="11" Note="46" Velocity="0"/>
  </Event>
  <Event>
    <Absolute>98944</Absolute>
    <NoteOn Channel="11" Note="46" Velocity="126"/>
  </Event>
  <Event>
    <Absolute>99008</Absolute>
    <NoteOff Channel="11" Note="46" Velocity="0"/>
  </Event>
  <Event>
    <Absolute>99072</Absolute>
    <NoteOn Channel="11" Note="46" Velocity="126"/>
  </Event>
  <Event>
    <Absolute>99136</Absolute>
    <NoteOff Channel="11" Note="46" Velocity="0"/>
  </Event>
  <Event>
    <Absolute>99200</Absolute>
    <NoteOn Channel="11" Note="46" Velocity="126"/>
  </Event>
  <Event>
    <Absolute>99264</Absolute>
    <NoteOff Channel="11" Note="46" Velocity="0"/>
  </Event>
  <Event>
    <Absolute>99328</Absolute>
    <NoteOn Channel="11" Note="46" Velocity="126"/>
  </Event>
  <Event>
    <Absolute>99392</Absolute>
    <NoteOff Channel="11" Note="46" Velocity="0"/>
  </Event>
  <Event>
    <Absolute>99456</Absolute>
    <NoteOn Channel="11" Note="46" Velocity="126"/>
  </Event>
  <Event>
    <Absolute>99520</Absolute>
    <NoteOff Channel="11" Note="46" Velocity="0"/>
  </Event>
  <Event>
    <Absolute>99584</Absolute>
    <NoteOn Channel="11" Note="46" Velocity="126"/>
  </Event>
  <Event>
    <Absolute>99648</Absolute>
    <NoteOff Channel="11" Note="46" Velocity="0"/>
  </Event>
  <Event>
    <Absolute>99712</Absolute>
    <NoteOn Channel="11" Note="46" Velocity="126"/>
  </Event>
  <Event>
    <Absolute>99776</Absolute>
    <NoteOff Channel="11" Note="46" Velocity="0"/>
  </Event>
  <Event>
    <Absolute>167424</Absolute>
    <NoteOn Channel="11" Note="46" Velocity="126"/>
  </Event>
  <Event>
    <Absolute>167488</Absolute>
    <NoteOff Channel="11" Note="46" Velocity="0"/>
  </Event>
  <Event>
    <Absolute>167552</Absolute>
    <NoteOn Channel="11" Note="46" Velocity="126"/>
  </Event>
  <Event>
    <Absolute>167616</Absolute>
    <NoteOff Channel="11" Note="46" Velocity="0"/>
  </Event>
  <Event>
    <Absolute>167680</Absolute>
    <NoteOn Channel="11" Note="46" Velocity="126"/>
  </Event>
  <Event>
    <Absolute>167744</Absolute>
    <NoteOff Channel="11" Note="46" Velocity="0"/>
  </Event>
  <Event>
    <Absolute>167808</Absolute>
    <NoteOn Channel="11" Note="46" Velocity="126"/>
  </Event>
  <Event>
    <Absolute>167872</Absolute>
    <NoteOff Channel="11" Note="46" Velocity="0"/>
  </Event>
  <Event>
    <Absolute>167936</Absolute>
    <NoteOn Channel="11" Note="46" Velocity="126"/>
  </Event>
  <Event>
    <Absolute>168000</Absolute>
    <NoteOff Channel="11" Note="46" Velocity="0"/>
  </Event>
  <Event>
    <Absolute>168064</Absolute>
    <NoteOn Channel="11" Note="46" Velocity="126"/>
  </Event>
  <Event>
    <Absolute>168128</Absolute>
    <NoteOff Channel="11" Note="46" Velocity="0"/>
  </Event>
  <Event>
    <Absolute>168192</Absolute>
    <NoteOn Channel="11" Note="46" Velocity="126"/>
  </Event>
  <Event>
    <Absolute>168256</Absolute>
    <NoteOff Channel="11" Note="46" Velocity="0"/>
  </Event>
  <Event>
    <Absolute>168320</Absolute>
    <NoteOn Channel="11" Note="46" Velocity="126"/>
  </Event>
  <Event>
    <Absolute>168384</Absolute>
    <NoteOff Channel="11" Note="46" Velocity="0"/>
  </Event>
  <Event>
    <Absolute>168448</Absolute>
    <NoteOn Channel="11" Note="46" Velocity="126"/>
  </Event>
  <Event>
    <Absolute>168512</Absolute>
    <NoteOff Channel="11" Note="46" Velocity="0"/>
  </Event>
  <Event>
    <Absolute>168576</Absolute>
    <NoteOn Channel="11" Note="46" Velocity="126"/>
  </Event>
  <Event>
    <Absolute>168640</Absolute>
    <NoteOff Channel="11" Note="46" Velocity="0"/>
  </Event>
  <Event>
    <Absolute>168704</Absolute>
    <NoteOn Channel="11" Note="46" Velocity="126"/>
  </Event>
  <Event>
    <Absolute>168768</Absolute>
    <NoteOff Channel="11" Note="46" Velocity="0"/>
  </Event>
  <Event>
    <Absolute>168832</Absolute>
    <NoteOn Channel="11" Note="46" Velocity="126"/>
  </Event>
  <Event>
    <Absolute>168896</Absolute>
    <NoteOff Channel="11" Note="46" Velocity="0"/>
  </Event>
  <Event>
    <Absolute>168960</Absolute>
    <NoteOn Channel="11" Note="46" Velocity="126"/>
  </Event>
  <Event>
    <Absolute>169024</Absolute>
    <NoteOff Channel="11" Note="46" Velocity="0"/>
  </Event>
  <Event>
    <Absolute>169088</Absolute>
    <NoteOn Channel="11" Note="46" Velocity="126"/>
  </Event>
  <Event>
    <Absolute>169152</Absolute>
    <NoteOff Channel="11" Note="46" Velocity="0"/>
  </Event>
  <Event>
    <Absolute>169216</Absolute>
    <NoteOn Channel="11" Note="46" Velocity="126"/>
  </Event>
  <Event>
    <Absolute>169280</Absolute>
    <NoteOff Channel="11" Note="46" Velocity="0"/>
  </Event>
  <Event>
    <Absolute>169344</Absolute>
    <NoteOn Channel="11" Note="46" Velocity="126"/>
  </Event>
  <Event>
    <Absolute>169408</Absolute>
    <NoteOff Channel="11" Note="46" Velocity="0"/>
  </Event>
  <Event>
    <Absolute>169472</Absolute>
    <NoteOn Channel="11" Note="46" Velocity="126"/>
  </Event>
  <Event>
    <Absolute>169536</Absolute>
    <NoteOff Channel="11" Note="46" Velocity="0"/>
  </Event>
  <Event>
    <Absolute>169600</Absolute>
    <NoteOn Channel="11" Note="46" Velocity="126"/>
  </Event>
  <Event>
    <Absolute>169664</Absolute>
    <NoteOff Channel="11" Note="46" Velocity="0"/>
  </Event>
  <Event>
    <Absolute>169728</Absolute>
    <NoteOn Channel="11" Note="46" Velocity="126"/>
  </Event>
  <Event>
    <Absolute>169792</Absolute>
    <NoteOff Channel="11" Note="46" Velocity="0"/>
  </Event>
  <Event>
    <Absolute>169856</Absolute>
    <NoteOn Channel="11" Note="46" Velocity="126"/>
  </Event>
  <Event>
    <Absolute>169920</Absolute>
    <NoteOff Channel="11" Note="46" Velocity="0"/>
  </Event>
  <Event>
    <Absolute>169984</Absolute>
    <NoteOn Channel="11" Note="46" Velocity="126"/>
  </Event>
  <Event>
    <Absolute>170048</Absolute>
    <NoteOff Channel="11" Note="46" Velocity="0"/>
  </Event>
  <Event>
    <Absolute>170112</Absolute>
    <NoteOn Channel="11" Note="46" Velocity="126"/>
  </Event>
  <Event>
    <Absolute>170176</Absolute>
    <NoteOff Channel="11" Note="46" Velocity="0"/>
  </Event>
  <Event>
    <Absolute>170240</Absolute>
    <NoteOn Channel="11" Note="46" Velocity="126"/>
  </Event>
  <Event>
    <Absolute>170304</Absolute>
    <NoteOff Channel="11" Note="46" Velocity="0"/>
  </Event>
  <Event>
    <Absolute>170368</Absolute>
    <NoteOn Channel="11" Note="46" Velocity="126"/>
  </Event>
  <Event>
    <Absolute>170432</Absolute>
    <NoteOff Channel="11" Note="46" Velocity="0"/>
  </Event>
  <Event>
    <Absolute>170496</Absolute>
    <NoteOn Channel="11" Note="46" Velocity="126"/>
  </Event>
  <Event>
    <Absolute>170560</Absolute>
    <NoteOff Channel="11" Note="46" Velocity="0"/>
  </Event>
  <Event>
    <Absolute>170624</Absolute>
    <NoteOn Channel="11" Note="46" Velocity="126"/>
  </Event>
  <Event>
    <Absolute>170688</Absolute>
    <NoteOff Channel="11" Note="46" Velocity="0"/>
  </Event>
  <Event>
    <Absolute>170752</Absolute>
    <NoteOn Channel="11" Note="46" Velocity="126"/>
  </Event>
  <Event>
    <Absolute>170816</Absolute>
    <NoteOff Channel="11" Note="46" Velocity="0"/>
  </Event>
  <Event>
    <Absolute>170880</Absolute>
    <NoteOn Channel="11" Note="46" Velocity="126"/>
  </Event>
  <Event>
    <Absolute>170944</Absolute>
    <NoteOff Channel="11" Note="46" Velocity="0"/>
  </Event>
  <Event>
    <Absolute>171008</Absolute>
    <NoteOn Channel="11" Note="46" Velocity="126"/>
  </Event>
  <Event>
    <Absolute>171072</Absolute>
    <NoteOff Channel="11" Note="46" Velocity="0"/>
  </Event>
  <Event>
    <Absolute>171136</Absolute>
    <NoteOn Channel="11" Note="46" Velocity="126"/>
  </Event>
  <Event>
    <Absolute>171200</Absolute>
    <NoteOff Channel="11" Note="46" Velocity="0"/>
  </Event>
  <Event>
    <Absolute>171264</Absolute>
    <NoteOn Channel="11" Note="46" Velocity="126"/>
  </Event>
  <Event>
    <Absolute>171328</Absolute>
    <NoteOff Channel="11" Note="46" Velocity="0"/>
  </Event>
  <Event>
    <Absolute>171392</Absolute>
    <NoteOn Channel="11" Note="46" Velocity="126"/>
  </Event>
  <Event>
    <Absolute>171456</Absolute>
    <NoteOff Channel="11" Note="46" Velocity="0"/>
  </Event>
  <Event>
    <Absolute>171520</Absolute>
    <NoteOn Channel="11" Note="46" Velocity="126"/>
  </Event>
  <Event>
    <Absolute>171584</Absolute>
    <NoteOff Channel="11" Note="46" Velocity="0"/>
  </Event>
  <Event>
    <Absolute>171648</Absolute>
    <NoteOn Channel="11" Note="46" Velocity="126"/>
  </Event>
  <Event>
    <Absolute>171712</Absolute>
    <NoteOff Channel="11" Note="46" Velocity="0"/>
  </Event>
  <Event>
    <Absolute>171776</Absolute>
    <NoteOn Channel="11" Note="46" Velocity="126"/>
  </Event>
  <Event>
    <Absolute>171840</Absolute>
    <NoteOff Channel="11" Note="46" Velocity="0"/>
  </Event>
  <Event>
    <Absolute>171904</Absolute>
    <NoteOn Channel="11" Note="46" Velocity="126"/>
  </Event>
  <Event>
    <Absolute>171968</Absolute>
    <NoteOff Channel="11" Note="46" Velocity="0"/>
  </Event>
  <Event>
    <Absolute>172032</Absolute>
    <NoteOn Channel="11" Note="46" Velocity="126"/>
  </Event>
  <Event>
    <Absolute>172096</Absolute>
    <NoteOff Channel="11" Note="46" Velocity="0"/>
  </Event>
  <Event>
    <Absolute>172160</Absolute>
    <NoteOn Channel="11" Note="46" Velocity="126"/>
  </Event>
  <Event>
    <Absolute>172224</Absolute>
    <NoteOff Channel="11" Note="46" Velocity="0"/>
  </Event>
  <Event>
    <Absolute>172288</Absolute>
    <NoteOn Channel="11" Note="46" Velocity="126"/>
  </Event>
  <Event>
    <Absolute>172352</Absolute>
    <NoteOff Channel="11" Note="46" Velocity="0"/>
  </Event>
  <Event>
    <Absolute>172416</Absolute>
    <NoteOn Channel="11" Note="46" Velocity="126"/>
  </Event>
  <Event>
    <Absolute>172480</Absolute>
    <NoteOff Channel="11" Note="46" Velocity="0"/>
  </Event>
  <Event>
    <Absolute>172544</Absolute>
    <NoteOn Channel="11" Note="46" Velocity="126"/>
  </Event>
  <Event>
    <Absolute>172608</Absolute>
    <NoteOff Channel="11" Note="46" Velocity="0"/>
  </Event>
  <Event>
    <Absolute>172672</Absolute>
    <NoteOn Channel="11" Note="46" Velocity="126"/>
  </Event>
  <Event>
    <Absolute>172736</Absolute>
    <NoteOff Channel="11" Note="46" Velocity="0"/>
  </Event>
  <Event>
    <Absolute>172800</Absolute>
    <NoteOn Channel="11" Note="46" Velocity="126"/>
  </Event>
  <Event>
    <Absolute>172864</Absolute>
    <NoteOff Channel="11" Note="46" Velocity="0"/>
  </Event>
  <Event>
    <Absolute>172928</Absolute>
    <NoteOn Channel="11" Note="46" Velocity="126"/>
  </Event>
  <Event>
    <Absolute>172992</Absolute>
    <NoteOff Channel="11" Note="46" Velocity="0"/>
  </Event>
  <Event>
    <Absolute>173056</Absolute>
    <NoteOn Channel="11" Note="46" Velocity="126"/>
  </Event>
  <Event>
    <Absolute>173120</Absolute>
    <NoteOff Channel="11" Note="46" Velocity="0"/>
  </Event>
  <Event>
    <Absolute>173184</Absolute>
    <NoteOn Channel="11" Note="46" Velocity="126"/>
  </Event>
  <Event>
    <Absolute>173248</Absolute>
    <NoteOff Channel="11" Note="46" Velocity="0"/>
  </Event>
  <Event>
    <Absolute>173312</Absolute>
    <NoteOn Channel="11" Note="46" Velocity="126"/>
  </Event>
  <Event>
    <Absolute>173376</Absolute>
    <NoteOff Channel="11" Note="46" Velocity="0"/>
  </Event>
  <Event>
    <Absolute>173440</Absolute>
    <NoteOn Channel="11" Note="46" Velocity="126"/>
  </Event>
  <Event>
    <Absolute>173504</Absolute>
    <NoteOff Channel="11" Note="46" Velocity="0"/>
  </Event>
  <Event>
    <Absolute>173568</Absolute>
    <NoteOn Channel="11" Note="44" Velocity="126"/>
  </Event>
  <Event>
    <Absolute>173632</Absolute>
    <NoteOff Channel="11" Note="44" Velocity="0"/>
  </Event>
  <Event>
    <Absolute>173696</Absolute>
    <NoteOn Channel="11" Note="44" Velocity="126"/>
  </Event>
  <Event>
    <Absolute>173760</Absolute>
    <NoteOff Channel="11" Note="44" Velocity="0"/>
  </Event>
  <Event>
    <Absolute>173824</Absolute>
    <NoteOn Channel="11" Note="44" Velocity="126"/>
  </Event>
  <Event>
    <Absolute>173888</Absolute>
    <NoteOff Channel="11" Note="44" Velocity="0"/>
  </Event>
  <Event>
    <Absolute>173952</Absolute>
    <NoteOn Channel="11" Note="44" Velocity="126"/>
  </Event>
  <Event>
    <Absolute>174016</Absolute>
    <NoteOff Channel="11" Note="44" Velocity="0"/>
  </Event>
  <Event>
    <Absolute>174080</Absolute>
    <NoteOn Channel="11" Note="44" Velocity="126"/>
  </Event>
  <Event>
    <Absolute>174144</Absolute>
    <NoteOff Channel="11" Note="44" Velocity="0"/>
  </Event>
  <Event>
    <Absolute>174208</Absolute>
    <NoteOn Channel="11" Note="44" Velocity="126"/>
  </Event>
  <Event>
    <Absolute>174272</Absolute>
    <NoteOff Channel="11" Note="44" Velocity="0"/>
  </Event>
  <Event>
    <Absolute>174336</Absolute>
    <NoteOn Channel="11" Note="44" Velocity="126"/>
  </Event>
  <Event>
    <Absolute>174400</Absolute>
    <NoteOff Channel="11" Note="44" Velocity="0"/>
  </Event>
  <Event>
    <Absolute>174464</Absolute>
    <NoteOn Channel="11" Note="44" Velocity="126"/>
  </Event>
  <Event>
    <Absolute>174528</Absolute>
    <NoteOff Channel="11" Note="44" Velocity="0"/>
  </Event>
  <Event>
    <Absolute>174592</Absolute>
    <NoteOn Channel="11" Note="44" Velocity="126"/>
  </Event>
  <Event>
    <Absolute>174656</Absolute>
    <NoteOff Channel="11" Note="44" Velocity="0"/>
  </Event>
  <Event>
    <Absolute>174720</Absolute>
    <NoteOn Channel="11" Note="44" Velocity="126"/>
  </Event>
  <Event>
    <Absolute>174784</Absolute>
    <NoteOff Channel="11" Note="44" Velocity="0"/>
  </Event>
  <Event>
    <Absolute>174848</Absolute>
    <NoteOn Channel="11" Note="44" Velocity="126"/>
  </Event>
  <Event>
    <Absolute>174912</Absolute>
    <NoteOff Channel="11" Note="44" Velocity="0"/>
  </Event>
  <Event>
    <Absolute>174976</Absolute>
    <NoteOn Channel="11" Note="44" Velocity="126"/>
  </Event>
  <Event>
    <Absolute>175040</Absolute>
    <NoteOff Channel="11" Note="44" Velocity="0"/>
  </Event>
  <Event>
    <Absolute>175104</Absolute>
    <NoteOn Channel="11" Note="44" Velocity="126"/>
  </Event>
  <Event>
    <Absolute>175168</Absolute>
    <NoteOff Channel="11" Note="44" Velocity="0"/>
  </Event>
  <Event>
    <Absolute>175232</Absolute>
    <NoteOn Channel="11" Note="44" Velocity="126"/>
  </Event>
  <Event>
    <Absolute>175296</Absolute>
    <NoteOff Channel="11" Note="44" Velocity="0"/>
  </Event>
  <Event>
    <Absolute>175360</Absolute>
    <NoteOn Channel="11" Note="44" Velocity="126"/>
  </Event>
  <Event>
    <Absolute>175424</Absolute>
    <NoteOff Channel="11" Note="44" Velocity="0"/>
  </Event>
  <Event>
    <Absolute>175488</Absolute>
    <NoteOn Channel="11" Note="44" Velocity="126"/>
  </Event>
  <Event>
    <Absolute>175552</Absolute>
    <NoteOff Channel="11" Note="44" Velocity="0"/>
  </Event>
  <Event>
    <Absolute>175616</Absolute>
    <NoteOn Channel="11" Note="44" Velocity="126"/>
  </Event>
  <Event>
    <Absolute>175680</Absolute>
    <NoteOff Channel="11" Note="44" Velocity="0"/>
  </Event>
  <Event>
    <Absolute>175744</Absolute>
    <NoteOn Channel="11" Note="44" Velocity="126"/>
  </Event>
  <Event>
    <Absolute>175808</Absolute>
    <NoteOff Channel="11" Note="44" Velocity="0"/>
  </Event>
  <Event>
    <Absolute>175872</Absolute>
    <NoteOn Channel="11" Note="44" Velocity="126"/>
  </Event>
  <Event>
    <Absolute>175936</Absolute>
    <NoteOff Channel="11" Note="44" Velocity="0"/>
  </Event>
  <Event>
    <Absolute>176000</Absolute>
    <NoteOn Channel="11" Note="44" Velocity="126"/>
  </Event>
  <Event>
    <Absolute>176064</Absolute>
    <NoteOff Channel="11" Note="44" Velocity="0"/>
  </Event>
  <Event>
    <Absolute>176128</Absolute>
    <NoteOn Channel="11" Note="44" Velocity="126"/>
  </Event>
  <Event>
    <Absolute>176192</Absolute>
    <NoteOff Channel="11" Note="44" Velocity="0"/>
  </Event>
  <Event>
    <Absolute>176256</Absolute>
    <NoteOn Channel="11" Note="44" Velocity="126"/>
  </Event>
  <Event>
    <Absolute>176320</Absolute>
    <NoteOff Channel="11" Note="44" Velocity="0"/>
  </Event>
  <Event>
    <Absolute>176384</Absolute>
    <NoteOn Channel="11" Note="44" Velocity="126"/>
  </Event>
  <Event>
    <Absolute>176448</Absolute>
    <NoteOff Channel="11" Note="44" Velocity="0"/>
  </Event>
  <Event>
    <Absolute>176512</Absolute>
    <NoteOn Channel="11" Note="44" Velocity="126"/>
  </Event>
  <Event>
    <Absolute>176576</Absolute>
    <NoteOff Channel="11" Note="44" Velocity="0"/>
  </Event>
  <Event>
    <Absolute>176640</Absolute>
    <NoteOn Channel="11" Note="44" Velocity="126"/>
  </Event>
  <Event>
    <Absolute>176704</Absolute>
    <NoteOff Channel="11" Note="44" Velocity="0"/>
  </Event>
  <Event>
    <Absolute>176768</Absolute>
    <NoteOn Channel="11" Note="44" Velocity="126"/>
  </Event>
  <Event>
    <Absolute>176832</Absolute>
    <NoteOff Channel="11" Note="44" Velocity="0"/>
  </Event>
  <Event>
    <Absolute>176896</Absolute>
    <NoteOn Channel="11" Note="44" Velocity="126"/>
  </Event>
  <Event>
    <Absolute>176960</Absolute>
    <NoteOff Channel="11" Note="44" Velocity="0"/>
  </Event>
  <Event>
    <Absolute>177024</Absolute>
    <NoteOn Channel="11" Note="44" Velocity="126"/>
  </Event>
  <Event>
    <Absolute>177088</Absolute>
    <NoteOff Channel="11" Note="44" Velocity="0"/>
  </Event>
  <Event>
    <Absolute>177152</Absolute>
    <NoteOn Channel="11" Note="44" Velocity="126"/>
  </Event>
  <Event>
    <Absolute>177216</Absolute>
    <NoteOff Channel="11" Note="44" Velocity="0"/>
  </Event>
  <Event>
    <Absolute>177280</Absolute>
    <NoteOn Channel="11" Note="44" Velocity="126"/>
  </Event>
  <Event>
    <Absolute>177344</Absolute>
    <NoteOff Channel="11" Note="44" Velocity="0"/>
  </Event>
  <Event>
    <Absolute>177408</Absolute>
    <NoteOn Channel="11" Note="44" Velocity="126"/>
  </Event>
  <Event>
    <Absolute>177472</Absolute>
    <NoteOff Channel="11" Note="44" Velocity="0"/>
  </Event>
  <Event>
    <Absolute>177536</Absolute>
    <NoteOn Channel="11" Note="44" Velocity="126"/>
  </Event>
  <Event>
    <Absolute>177600</Absolute>
    <NoteOff Channel="11" Note="44" Velocity="0"/>
  </Event>
  <Event>
    <Absolute>177664</Absolute>
    <NoteOn Channel="11" Note="44" Velocity="126"/>
  </Event>
  <Event>
    <Absolute>177728</Absolute>
    <NoteOff Channel="11" Note="44" Velocity="0"/>
  </Event>
  <Event>
    <Absolute>177792</Absolute>
    <NoteOn Channel="11" Note="44" Velocity="126"/>
  </Event>
  <Event>
    <Absolute>177856</Absolute>
    <NoteOff Channel="11" Note="44" Velocity="0"/>
  </Event>
  <Event>
    <Absolute>177920</Absolute>
    <NoteOn Channel="11" Note="44" Velocity="126"/>
  </Event>
  <Event>
    <Absolute>177984</Absolute>
    <NoteOff Channel="11" Note="44" Velocity="0"/>
  </Event>
  <Event>
    <Absolute>178048</Absolute>
    <NoteOn Channel="11" Note="44" Velocity="126"/>
  </Event>
  <Event>
    <Absolute>178112</Absolute>
    <NoteOff Channel="11" Note="44" Velocity="0"/>
  </Event>
  <Event>
    <Absolute>178176</Absolute>
    <NoteOn Channel="11" Note="44" Velocity="126"/>
  </Event>
  <Event>
    <Absolute>178240</Absolute>
    <NoteOff Channel="11" Note="44" Velocity="0"/>
  </Event>
  <Event>
    <Absolute>178304</Absolute>
    <NoteOn Channel="11" Note="44" Velocity="126"/>
  </Event>
  <Event>
    <Absolute>178368</Absolute>
    <NoteOff Channel="11" Note="44" Velocity="0"/>
  </Event>
  <Event>
    <Absolute>178432</Absolute>
    <NoteOn Channel="11" Note="44" Velocity="126"/>
  </Event>
  <Event>
    <Absolute>178496</Absolute>
    <NoteOff Channel="11" Note="44" Velocity="0"/>
  </Event>
  <Event>
    <Absolute>178560</Absolute>
    <NoteOn Channel="11" Note="44" Velocity="126"/>
  </Event>
  <Event>
    <Absolute>178624</Absolute>
    <NoteOff Channel="11" Note="44" Velocity="0"/>
  </Event>
  <Event>
    <Absolute>178688</Absolute>
    <NoteOn Channel="11" Note="44" Velocity="126"/>
  </Event>
  <Event>
    <Absolute>178752</Absolute>
    <NoteOff Channel="11" Note="44" Velocity="0"/>
  </Event>
  <Event>
    <Absolute>178816</Absolute>
    <NoteOn Channel="11" Note="44" Velocity="126"/>
  </Event>
  <Event>
    <Absolute>178880</Absolute>
    <NoteOff Channel="11" Note="44" Velocity="0"/>
  </Event>
  <Event>
    <Absolute>178944</Absolute>
    <NoteOn Channel="11" Note="44" Velocity="126"/>
  </Event>
  <Event>
    <Absolute>179008</Absolute>
    <NoteOff Channel="11" Note="44" Velocity="0"/>
  </Event>
  <Event>
    <Absolute>179072</Absolute>
    <NoteOn Channel="11" Note="44" Velocity="126"/>
  </Event>
  <Event>
    <Absolute>179136</Absolute>
    <NoteOff Channel="11" Note="44" Velocity="0"/>
  </Event>
  <Event>
    <Absolute>179200</Absolute>
    <NoteOn Channel="11" Note="44" Velocity="126"/>
  </Event>
  <Event>
    <Absolute>179264</Absolute>
    <NoteOff Channel="11" Note="44" Velocity="0"/>
  </Event>
  <Event>
    <Absolute>179328</Absolute>
    <NoteOn Channel="11" Note="44" Velocity="126"/>
  </Event>
  <Event>
    <Absolute>179392</Absolute>
    <NoteOff Channel="11" Note="44" Velocity="0"/>
  </Event>
  <Event>
    <Absolute>179456</Absolute>
    <NoteOn Channel="11" Note="44" Velocity="126"/>
  </Event>
  <Event>
    <Absolute>179520</Absolute>
    <NoteOff Channel="11" Note="44" Velocity="0"/>
  </Event>
  <Event>
    <Absolute>179584</Absolute>
    <NoteOn Channel="11" Note="44" Velocity="126"/>
  </Event>
  <Event>
    <Absolute>179648</Absolute>
    <NoteOff Channel="11" Note="44" Velocity="0"/>
  </Event>
  <Event>
    <Absolute>179712</Absolute>
    <NoteOn Channel="11" Note="42" Velocity="127"/>
  </Event>
  <Event>
    <Absolute>179776</Absolute>
    <NoteOff Channel="11" Note="42" Velocity="0"/>
  </Event>
  <Event>
    <Absolute>179840</Absolute>
    <NoteOn Channel="11" Note="42" Velocity="127"/>
  </Event>
  <Event>
    <Absolute>179904</Absolute>
    <NoteOff Channel="11" Note="42" Velocity="0"/>
  </Event>
  <Event>
    <Absolute>179968</Absolute>
    <NoteOn Channel="11" Note="42" Velocity="127"/>
  </Event>
  <Event>
    <Absolute>180032</Absolute>
    <NoteOff Channel="11" Note="42" Velocity="0"/>
  </Event>
  <Event>
    <Absolute>180096</Absolute>
    <NoteOn Channel="11" Note="42" Velocity="127"/>
  </Event>
  <Event>
    <Absolute>180160</Absolute>
    <NoteOff Channel="11" Note="42" Velocity="0"/>
  </Event>
  <Event>
    <Absolute>180224</Absolute>
    <NoteOn Channel="11" Note="42" Velocity="127"/>
  </Event>
  <Event>
    <Absolute>180288</Absolute>
    <NoteOff Channel="11" Note="42" Velocity="0"/>
  </Event>
  <Event>
    <Absolute>180352</Absolute>
    <NoteOn Channel="11" Note="42" Velocity="127"/>
  </Event>
  <Event>
    <Absolute>180416</Absolute>
    <NoteOff Channel="11" Note="42" Velocity="0"/>
  </Event>
  <Event>
    <Absolute>180480</Absolute>
    <NoteOn Channel="11" Note="42" Velocity="127"/>
  </Event>
  <Event>
    <Absolute>180544</Absolute>
    <NoteOff Channel="11" Note="42" Velocity="0"/>
  </Event>
  <Event>
    <Absolute>180608</Absolute>
    <NoteOn Channel="11" Note="42" Velocity="127"/>
  </Event>
  <Event>
    <Absolute>180672</Absolute>
    <NoteOff Channel="11" Note="42" Velocity="0"/>
  </Event>
  <Event>
    <Absolute>180736</Absolute>
    <NoteOn Channel="11" Note="42" Velocity="127"/>
  </Event>
  <Event>
    <Absolute>180800</Absolute>
    <NoteOff Channel="11" Note="42" Velocity="0"/>
  </Event>
  <Event>
    <Absolute>180864</Absolute>
    <NoteOn Channel="11" Note="42" Velocity="127"/>
  </Event>
  <Event>
    <Absolute>180928</Absolute>
    <NoteOff Channel="11" Note="42" Velocity="0"/>
  </Event>
  <Event>
    <Absolute>180992</Absolute>
    <NoteOn Channel="11" Note="42" Velocity="127"/>
  </Event>
  <Event>
    <Absolute>181056</Absolute>
    <NoteOff Channel="11" Note="42" Velocity="0"/>
  </Event>
  <Event>
    <Absolute>181120</Absolute>
    <NoteOn Channel="11" Note="42" Velocity="127"/>
  </Event>
  <Event>
    <Absolute>181184</Absolute>
    <NoteOff Channel="11" Note="42" Velocity="0"/>
  </Event>
  <Event>
    <Absolute>181248</Absolute>
    <NoteOn Channel="11" Note="42" Velocity="127"/>
  </Event>
  <Event>
    <Absolute>181312</Absolute>
    <NoteOff Channel="11" Note="42" Velocity="0"/>
  </Event>
  <Event>
    <Absolute>181376</Absolute>
    <NoteOn Channel="11" Note="42" Velocity="127"/>
  </Event>
  <Event>
    <Absolute>181440</Absolute>
    <NoteOff Channel="11" Note="42" Velocity="0"/>
  </Event>
  <Event>
    <Absolute>181504</Absolute>
    <NoteOn Channel="11" Note="42" Velocity="127"/>
  </Event>
  <Event>
    <Absolute>181568</Absolute>
    <NoteOff Channel="11" Note="42" Velocity="0"/>
  </Event>
  <Event>
    <Absolute>181632</Absolute>
    <NoteOn Channel="11" Note="42" Velocity="127"/>
  </Event>
  <Event>
    <Absolute>181696</Absolute>
    <NoteOff Channel="11" Note="42" Velocity="0"/>
  </Event>
  <Event>
    <Absolute>181760</Absolute>
    <NoteOn Channel="11" Note="42" Velocity="127"/>
  </Event>
  <Event>
    <Absolute>181824</Absolute>
    <NoteOff Channel="11" Note="42" Velocity="0"/>
  </Event>
  <Event>
    <Absolute>181888</Absolute>
    <NoteOn Channel="11" Note="42" Velocity="127"/>
  </Event>
  <Event>
    <Absolute>181952</Absolute>
    <NoteOff Channel="11" Note="42" Velocity="0"/>
  </Event>
  <Event>
    <Absolute>182016</Absolute>
    <NoteOn Channel="11" Note="42" Velocity="127"/>
  </Event>
  <Event>
    <Absolute>182080</Absolute>
    <NoteOff Channel="11" Note="42" Velocity="0"/>
  </Event>
  <Event>
    <Absolute>182144</Absolute>
    <NoteOn Channel="11" Note="42" Velocity="127"/>
  </Event>
  <Event>
    <Absolute>182208</Absolute>
    <NoteOff Channel="11" Note="42" Velocity="0"/>
  </Event>
  <Event>
    <Absolute>182272</Absolute>
    <NoteOn Channel="11" Note="42" Velocity="127"/>
  </Event>
  <Event>
    <Absolute>182336</Absolute>
    <NoteOff Channel="11" Note="42" Velocity="0"/>
  </Event>
  <Event>
    <Absolute>182400</Absolute>
    <NoteOn Channel="11" Note="42" Velocity="127"/>
  </Event>
  <Event>
    <Absolute>182464</Absolute>
    <NoteOff Channel="11" Note="42" Velocity="0"/>
  </Event>
  <Event>
    <Absolute>182528</Absolute>
    <NoteOn Channel="11" Note="42" Velocity="127"/>
  </Event>
  <Event>
    <Absolute>182592</Absolute>
    <NoteOff Channel="11" Note="42" Velocity="0"/>
  </Event>
  <Event>
    <Absolute>182656</Absolute>
    <NoteOn Channel="11" Note="42" Velocity="127"/>
  </Event>
  <Event>
    <Absolute>182720</Absolute>
    <NoteOff Channel="11" Note="42" Velocity="0"/>
  </Event>
  <Event>
    <Absolute>195072</Absolute>
    <NoteOn Channel="11" Note="44" Velocity="127"/>
  </Event>
  <Event>
    <Absolute>195124</Absolute>
    <NoteOff Channel="11" Note="44" Velocity="0"/>
  </Event>
  <Event>
    <Absolute>195200</Absolute>
    <NoteOn Channel="11" Note="44" Velocity="127"/>
  </Event>
  <Event>
    <Absolute>195264</Absolute>
    <NoteOff Channel="11" Note="44" Velocity="0"/>
  </Event>
  <Event>
    <Absolute>195328</Absolute>
    <NoteOn Channel="11" Note="44" Velocity="127"/>
  </Event>
  <Event>
    <Absolute>195392</Absolute>
    <NoteOff Channel="11" Note="44" Velocity="0"/>
  </Event>
  <Event>
    <Absolute>195456</Absolute>
    <NoteOn Channel="11" Note="44" Velocity="127"/>
  </Event>
  <Event>
    <Absolute>195520</Absolute>
    <NoteOff Channel="11" Note="44" Velocity="0"/>
  </Event>
  <Event>
    <Absolute>195584</Absolute>
    <NoteOn Channel="11" Note="44" Velocity="127"/>
  </Event>
  <Event>
    <Absolute>195648</Absolute>
    <NoteOff Channel="11" Note="44" Velocity="0"/>
  </Event>
  <Event>
    <Absolute>195712</Absolute>
    <NoteOn Channel="11" Note="44" Velocity="127"/>
  </Event>
  <Event>
    <Absolute>195776</Absolute>
    <NoteOff Channel="11" Note="44" Velocity="0"/>
  </Event>
  <Event>
    <Absolute>195840</Absolute>
    <NoteOn Channel="11" Note="44" Velocity="127"/>
  </Event>
  <Event>
    <Absolute>195904</Absolute>
    <NoteOff Channel="11" Note="44" Velocity="0"/>
  </Event>
  <Event>
    <Absolute>195968</Absolute>
    <NoteOn Channel="11" Note="44" Velocity="127"/>
  </Event>
  <Event>
    <Absolute>196032</Absolute>
    <NoteOff Channel="11" Note="44" Velocity="0"/>
  </Event>
  <Event>
    <Absolute>196096</Absolute>
    <NoteOn Channel="11" Note="44" Velocity="127"/>
  </Event>
  <Event>
    <Absolute>196160</Absolute>
    <NoteOff Channel="11" Note="44" Velocity="0"/>
  </Event>
  <Event>
    <Absolute>196224</Absolute>
    <NoteOn Channel="11" Note="44" Velocity="127"/>
  </Event>
  <Event>
    <Absolute>196288</Absolute>
    <NoteOff Channel="11" Note="44" Velocity="0"/>
  </Event>
  <Event>
    <Absolute>196352</Absolute>
    <NoteOn Channel="11" Note="44" Velocity="127"/>
  </Event>
  <Event>
    <Absolute>196416</Absolute>
    <NoteOff Channel="11" Note="44" Velocity="0"/>
  </Event>
  <Event>
    <Absolute>196480</Absolute>
    <NoteOn Channel="11" Note="44" Velocity="127"/>
  </Event>
  <Event>
    <Absolute>196544</Absolute>
    <NoteOff Channel="11" Note="44" Velocity="0"/>
  </Event>
  <Event>
    <Absolute>196608</Absolute>
    <NoteOn Channel="11" Note="44" Velocity="127"/>
  </Event>
  <Event>
    <Absolute>196672</Absolute>
    <NoteOff Channel="11" Note="44" Velocity="0"/>
  </Event>
  <Event>
    <Absolute>196736</Absolute>
    <NoteOn Channel="11" Note="44" Velocity="127"/>
  </Event>
  <Event>
    <Absolute>196800</Absolute>
    <NoteOff Channel="11" Note="44" Velocity="0"/>
  </Event>
  <Event>
    <Absolute>196864</Absolute>
    <NoteOn Channel="11" Note="44" Velocity="127"/>
  </Event>
  <Event>
    <Absolute>196928</Absolute>
    <NoteOff Channel="11" Note="44" Velocity="0"/>
  </Event>
  <Event>
    <Absolute>196992</Absolute>
    <NoteOn Channel="11" Note="44" Velocity="127"/>
  </Event>
  <Event>
    <Absolute>197056</Absolute>
    <NoteOff Channel="11" Note="44" Velocity="0"/>
  </Event>
  <Event>
    <Absolute>197120</Absolute>
    <NoteOn Channel="11" Note="44" Velocity="127"/>
  </Event>
  <Event>
    <Absolute>197184</Absolute>
    <NoteOff Channel="11" Note="44" Velocity="0"/>
  </Event>
  <Event>
    <Absolute>197248</Absolute>
    <NoteOn Channel="11" Note="44" Velocity="127"/>
  </Event>
  <Event>
    <Absolute>197312</Absolute>
    <NoteOff Channel="11" Note="44" Velocity="0"/>
  </Event>
  <Event>
    <Absolute>197376</Absolute>
    <NoteOn Channel="11" Note="44" Velocity="127"/>
  </Event>
  <Event>
    <Absolute>197440</Absolute>
    <NoteOff Channel="11" Note="44" Velocity="0"/>
  </Event>
  <Event>
    <Absolute>197504</Absolute>
    <NoteOn Channel="11" Note="44" Velocity="127"/>
  </Event>
  <Event>
    <Absolute>197632</Absolute>
    <NoteOff Channel="11" Note="44" Velocity="0"/>
  </Event>
  <Event>
    <Absolute>197632</Absolute>
    <NoteOn Channel="11" Note="44" Velocity="127"/>
  </Event>
  <Event>
    <Absolute>197696</Absolute>
    <NoteOff Channel="11" Note="44" Velocity="0"/>
  </Event>
  <Event>
    <Absolute>197760</Absolute>
    <NoteOn Channel="11" Note="44" Velocity="127"/>
  </Event>
  <Event>
    <Absolute>197824</Absolute>
    <NoteOff Channel="11" Note="44" Velocity="0"/>
  </Event>
  <Event>
    <Absolute>197888</Absolute>
    <NoteOn Channel="11" Note="44" Velocity="127"/>
  </Event>
  <Event>
    <Absolute>197952</Absolute>
    <NoteOff Channel="11" Note="44" Velocity="0"/>
  </Event>
  <Event>
    <Absolute>198016</Absolute>
    <NoteOn Channel="11" Note="44" Velocity="127"/>
  </Event>
  <Event>
    <Absolute>198080</Absolute>
    <NoteOff Channel="11" Note="44" Velocity="0"/>
  </Event>
  <Event>
    <Absolute>198144</Absolute>
    <NoteOn Channel="11" Note="44" Velocity="127"/>
  </Event>
  <Event>
    <Absolute>198208</Absolute>
    <NoteOff Channel="11" Note="44" Velocity="0"/>
  </Event>
  <Event>
    <Absolute>198272</Absolute>
    <NoteOn Channel="11" Note="44" Velocity="127"/>
  </Event>
  <Event>
    <Absolute>198336</Absolute>
    <NoteOff Channel="11" Note="44" Velocity="0"/>
  </Event>
  <Event>
    <Absolute>198400</Absolute>
    <NoteOn Channel="11" Note="44" Velocity="127"/>
  </Event>
  <Event>
    <Absolute>198464</Absolute>
    <NoteOff Channel="11" Note="44" Velocity="0"/>
  </Event>
  <Event>
    <Absolute>198528</Absolute>
    <NoteOn Channel="11" Note="44" Velocity="127"/>
  </Event>
  <Event>
    <Absolute>198592</Absolute>
    <NoteOff Channel="11" Note="44" Velocity="0"/>
  </Event>
  <Event>
    <Absolute>198656</Absolute>
    <NoteOn Channel="11" Note="44" Velocity="127"/>
  </Event>
  <Event>
    <Absolute>198720</Absolute>
    <NoteOff Channel="11" Note="44" Velocity="0"/>
  </Event>
  <Event>
    <Absolute>198784</Absolute>
    <NoteOn Channel="11" Note="44" Velocity="127"/>
  </Event>
  <Event>
    <Absolute>198848</Absolute>
    <NoteOff Channel="11" Note="44" Velocity="0"/>
  </Event>
  <Event>
    <Absolute>198880</Absolute>
    <ControlChange Channel="11" Control="7" Value="126"/>
  </Event>
  <Event>
    <Absolute>198912</Absolute>
    <NoteOn Channel="11" Note="44" Velocity="127"/>
  </Event>
  <Event>
    <Absolute>198976</Absolute>
    <NoteOff Channel="11" Note="44" Velocity="0"/>
  </Event>
  <Event>
    <Absolute>199040</Absolute>
    <NoteOn Channel="11" Note="44" Velocity="127"/>
  </Event>
  <Event>
    <Absolute>199104</Absolute>
    <NoteOff Channel="11" Note="44" Velocity="0"/>
  </Event>
  <Event>
    <Absolute>199168</Absolute>
    <NoteOn Channel="11" Note="44" Velocity="127"/>
  </Event>
  <Event>
    <Absolute>199232</Absolute>
    <NoteOff Channel="11" Note="44" Velocity="0"/>
  </Event>
  <Event>
    <Absolute>199296</Absolute>
    <NoteOn Channel="11" Note="44" Velocity="127"/>
  </Event>
  <Event>
    <Absolute>199360</Absolute>
    <NoteOff Channel="11" Note="44" Velocity="0"/>
  </Event>
  <Event>
    <Absolute>199424</Absolute>
    <NoteOn Channel="11" Note="44" Velocity="127"/>
  </Event>
  <Event>
    <Absolute>199488</Absolute>
    <NoteOff Channel="11" Note="44" Velocity="0"/>
  </Event>
  <Event>
    <Absolute>199552</Absolute>
    <NoteOn Channel="11" Note="44" Velocity="127"/>
  </Event>
  <Event>
    <Absolute>199616</Absolute>
    <NoteOff Channel="11" Note="44" Velocity="0"/>
  </Event>
  <Event>
    <Absolute>199680</Absolute>
    <NoteOn Channel="11" Note="44" Velocity="127"/>
  </Event>
  <Event>
    <Absolute>199744</Absolute>
    <NoteOff Channel="11" Note="44" Velocity="0"/>
  </Event>
  <Event>
    <Absolute>199808</Absolute>
    <NoteOn Channel="11" Note="44" Velocity="127"/>
  </Event>
  <Event>
    <Absolute>199872</Absolute>
    <NoteOff Channel="11" Note="44" Velocity="0"/>
  </Event>
  <Event>
    <Absolute>199936</Absolute>
    <NoteOn Channel="11" Note="44" Velocity="127"/>
  </Event>
  <Event>
    <Absolute>200000</Absolute>
    <NoteOff Channel="11" Note="44" Velocity="0"/>
  </Event>
  <Event>
    <Absolute>200048</Absolute>
    <ControlChange Channel="11" Control="7" Value="125"/>
  </Event>
  <Event>
    <Absolute>200064</Absolute>
    <NoteOn Channel="11" Note="44" Velocity="127"/>
  </Event>
  <Event>
    <Absolute>200128</Absolute>
    <NoteOff Channel="11" Note="44" Velocity="0"/>
  </Event>
  <Event>
    <Absolute>200192</Absolute>
    <NoteOn Channel="11" Note="44" Velocity="127"/>
  </Event>
  <Event>
    <Absolute>200256</Absolute>
    <NoteOff Channel="11" Note="44" Velocity="0"/>
  </Event>
  <Event>
    <Absolute>200320</Absolute>
    <NoteOn Channel="11" Note="44" Velocity="127"/>
  </Event>
  <Event>
    <Absolute>200384</Absolute>
    <NoteOff Channel="11" Note="44" Velocity="0"/>
  </Event>
  <Event>
    <Absolute>200408</Absolute>
    <ControlChange Channel="11" Control="7" Value="124"/>
  </Event>
  <Event>
    <Absolute>200448</Absolute>
    <NoteOn Channel="11" Note="44" Velocity="127"/>
  </Event>
  <Event>
    <Absolute>200512</Absolute>
    <NoteOff Channel="11" Note="44" Velocity="0"/>
  </Event>
  <Event>
    <Absolute>200576</Absolute>
    <NoteOn Channel="11" Note="44" Velocity="127"/>
  </Event>
  <Event>
    <Absolute>200640</Absolute>
    <NoteOff Channel="11" Note="44" Velocity="0"/>
  </Event>
  <Event>
    <Absolute>200704</Absolute>
    <ControlChange Channel="11" Control="7" Value="123"/>
  </Event>
  <Event>
    <Absolute>200704</Absolute>
    <NoteOn Channel="11" Note="44" Velocity="127"/>
  </Event>
  <Event>
    <Absolute>200768</Absolute>
    <NoteOff Channel="11" Note="44" Velocity="0"/>
  </Event>
  <Event>
    <Absolute>200816</Absolute>
    <ControlChange Channel="11" Control="7" Value="122"/>
  </Event>
  <Event>
    <Absolute>200832</Absolute>
    <NoteOn Channel="11" Note="44" Velocity="127"/>
  </Event>
  <Event>
    <Absolute>200896</Absolute>
    <NoteOff Channel="11" Note="44" Velocity="0"/>
  </Event>
  <Event>
    <Absolute>200960</Absolute>
    <NoteOn Channel="11" Note="44" Velocity="127"/>
  </Event>
  <Event>
    <Absolute>201024</Absolute>
    <NoteOff Channel="11" Note="44" Velocity="0"/>
  </Event>
  <Event>
    <Absolute>201088</Absolute>
    <NoteOn Channel="11" Note="44" Velocity="127"/>
  </Event>
  <Event>
    <Absolute>201104</Absolute>
    <ControlChange Channel="11" Control="7" Value="121"/>
  </Event>
  <Event>
    <Absolute>201120</Absolute>
    <ControlChange Channel="11" Control="7" Value="120"/>
  </Event>
  <Event>
    <Absolute>201152</Absolute>
    <NoteOff Channel="11" Note="44" Velocity="0"/>
  </Event>
  <Event>
    <Absolute>201216</Absolute>
    <NoteOn Channel="11" Note="44" Velocity="127"/>
  </Event>
  <Event>
    <Absolute>201280</Absolute>
    <NoteOff Channel="11" Note="44" Velocity="0"/>
  </Event>
  <Event>
    <Absolute>201312</Absolute>
    <ControlChange Channel="11" Control="7" Value="119"/>
  </Event>
  <Event>
    <Absolute>201344</Absolute>
    <NoteOn Channel="11" Note="44" Velocity="127"/>
  </Event>
  <Event>
    <Absolute>201408</Absolute>
    <NoteOff Channel="11" Note="44" Velocity="0"/>
  </Event>
  <Event>
    <Absolute>201472</Absolute>
    <ControlChange Channel="11" Control="7" Value="118"/>
  </Event>
  <Event>
    <Absolute>201472</Absolute>
    <NoteOn Channel="11" Note="44" Velocity="127"/>
  </Event>
  <Event>
    <Absolute>201536</Absolute>
    <NoteOff Channel="11" Note="44" Velocity="0"/>
  </Event>
  <Event>
    <Absolute>201536</Absolute>
    <ControlChange Channel="11" Control="7" Value="117"/>
  </Event>
  <Event>
    <Absolute>201584</Absolute>
    <ControlChange Channel="11" Control="7" Value="116"/>
  </Event>
  <Event>
    <Absolute>201600</Absolute>
    <NoteOn Channel="11" Note="44" Velocity="127"/>
  </Event>
  <Event>
    <Absolute>201664</Absolute>
    <NoteOff Channel="11" Note="44" Velocity="0"/>
  </Event>
  <Event>
    <Absolute>201728</Absolute>
    <ControlChange Channel="11" Control="7" Value="115"/>
  </Event>
  <Event>
    <Absolute>201728</Absolute>
    <NoteOn Channel="11" Note="44" Velocity="127"/>
  </Event>
  <Event>
    <Absolute>201792</Absolute>
    <NoteOff Channel="11" Note="44" Velocity="0"/>
  </Event>
  <Event>
    <Absolute>201856</Absolute>
    <NoteOn Channel="11" Note="44" Velocity="127"/>
  </Event>
  <Event>
    <Absolute>201920</Absolute>
    <NoteOff Channel="11" Note="44" Velocity="0"/>
  </Event>
  <Event>
    <Absolute>201952</Absolute>
    <ControlChange Channel="11" Control="7" Value="114"/>
  </Event>
  <Event>
    <Absolute>201984</Absolute>
    <NoteOn Channel="11" Note="44" Velocity="127"/>
  </Event>
  <Event>
    <Absolute>202032</Absolute>
    <ControlChange Channel="11" Control="7" Value="113"/>
  </Event>
  <Event>
    <Absolute>202048</Absolute>
    <NoteOff Channel="11" Note="44" Velocity="0"/>
  </Event>
  <Event>
    <Absolute>202112</Absolute>
    <ControlChange Channel="11" Control="7" Value="112"/>
  </Event>
  <Event>
    <Absolute>202112</Absolute>
    <NoteOn Channel="11" Note="44" Velocity="127"/>
  </Event>
  <Event>
    <Absolute>202176</Absolute>
    <NoteOff Channel="11" Note="44" Velocity="0"/>
  </Event>
  <Event>
    <Absolute>202240</Absolute>
    <NoteOn Channel="11" Note="44" Velocity="127"/>
  </Event>
  <Event>
    <Absolute>202256</Absolute>
    <ControlChange Channel="11" Control="7" Value="111"/>
  </Event>
  <Event>
    <Absolute>202304</Absolute>
    <NoteOff Channel="11" Note="44" Velocity="0"/>
  </Event>
  <Event>
    <Absolute>202304</Absolute>
    <ControlChange Channel="11" Control="7" Value="109"/>
  </Event>
  <Event>
    <Absolute>202368</Absolute>
    <NoteOn Channel="11" Note="44" Velocity="127"/>
  </Event>
  <Event>
    <Absolute>202400</Absolute>
    <ControlChange Channel="11" Control="7" Value="108"/>
  </Event>
  <Event>
    <Absolute>202416</Absolute>
    <ControlChange Channel="11" Control="7" Value="106"/>
  </Event>
  <Event>
    <Absolute>202432</Absolute>
    <NoteOff Channel="11" Note="44" Velocity="0"/>
  </Event>
  <Event>
    <Absolute>202480</Absolute>
    <ControlChange Channel="11" Control="7" Value="105"/>
  </Event>
  <Event>
    <Absolute>202496</Absolute>
    <NoteOn Channel="11" Note="44" Velocity="127"/>
  </Event>
  <Event>
    <Absolute>202528</Absolute>
    <ControlChange Channel="11" Control="7" Value="103"/>
  </Event>
  <Event>
    <Absolute>202560</Absolute>
    <NoteOff Channel="11" Note="44" Velocity="0"/>
  </Event>
  <Event>
    <Absolute>202576</Absolute>
    <ControlChange Channel="11" Control="7" Value="102"/>
  </Event>
  <Event>
    <Absolute>202592</Absolute>
    <ControlChange Channel="11" Control="7" Value="100"/>
  </Event>
  <Event>
    <Absolute>202624</Absolute>
    <NoteOn Channel="11" Note="44" Velocity="127"/>
  </Event>
  <Event>
    <Absolute>202672</Absolute>
    <ControlChange Channel="11" Control="7" Value="99"/>
  </Event>
  <Event>
    <Absolute>202688</Absolute>
    <NoteOff Channel="11" Note="44" Velocity="0"/>
  </Event>
  <Event>
    <Absolute>202720</Absolute>
    <ControlChange Channel="11" Control="7" Value="97"/>
  </Event>
  <Event>
    <Absolute>202752</Absolute>
    <NoteOn Channel="11" Note="44" Velocity="127"/>
  </Event>
  <Event>
    <Absolute>202772</Absolute>
    <ControlChange Channel="11" Control="7" Value="96"/>
  </Event>
  <Event>
    <Absolute>202788</Absolute>
    <ControlChange Channel="11" Control="7" Value="95"/>
  </Event>
  <Event>
    <Absolute>202816</Absolute>
    <NoteOff Channel="11" Note="44" Velocity="0"/>
  </Event>
  <Event>
    <Absolute>202864</Absolute>
    <ControlChange Channel="11" Control="7" Value="94"/>
  </Event>
  <Event>
    <Absolute>202880</Absolute>
    <NoteOn Channel="11" Note="44" Velocity="127"/>
  </Event>
  <Event>
    <Absolute>202944</Absolute>
    <NoteOff Channel="11" Note="44" Velocity="0"/>
  </Event>
  <Event>
    <Absolute>202944</Absolute>
    <ControlChange Channel="11" Control="7" Value="93"/>
  </Event>
  <Event>
    <Absolute>203008</Absolute>
    <ControlChange Channel="11" Control="7" Value="92"/>
  </Event>
  <Event>
    <Absolute>203008</Absolute>
    <NoteOn Channel="11" Note="44" Velocity="127"/>
  </Event>
  <Event>
    <Absolute>203040</Absolute>
    <ControlChange Channel="11" Control="7" Value="91"/>
  </Event>
  <Event>
    <Absolute>203072</Absolute>
    <NoteOff Channel="11" Note="44" Velocity="0"/>
  </Event>
  <Event>
    <Absolute>203120</Absolute>
    <ControlChange Channel="11" Control="7" Value="90"/>
  </Event>
  <Event>
    <Absolute>203136</Absolute>
    <NoteOn Channel="11" Note="44" Velocity="127"/>
  </Event>
  <Event>
    <Absolute>203188</Absolute>
    <ControlChange Channel="11" Control="7" Value="89"/>
  </Event>
  <Event>
    <Absolute>203200</Absolute>
    <NoteOff Channel="11" Note="44" Velocity="0"/>
  </Event>
  <Event>
    <Absolute>203232</Absolute>
    <ControlChange Channel="11" Control="7" Value="88"/>
  </Event>
  <Event>
    <Absolute>203264</Absolute>
    <NoteOn Channel="11" Note="44" Velocity="127"/>
  </Event>
  <Event>
    <Absolute>203280</Absolute>
    <ControlChange Channel="11" Control="7" Value="87"/>
  </Event>
  <Event>
    <Absolute>203328</Absolute>
    <NoteOff Channel="11" Note="44" Velocity="0"/>
  </Event>
  <Event>
    <Absolute>203360</Absolute>
    <ControlChange Channel="11" Control="7" Value="86"/>
  </Event>
  <Event>
    <Absolute>203392</Absolute>
    <NoteOn Channel="11" Note="44" Velocity="127"/>
  </Event>
  <Event>
    <Absolute>203408</Absolute>
    <ControlChange Channel="11" Control="7" Value="85"/>
  </Event>
  <Event>
    <Absolute>203456</Absolute>
    <NoteOff Channel="11" Note="44" Velocity="0"/>
  </Event>
  <Event>
    <Absolute>203504</Absolute>
    <ControlChange Channel="11" Control="7" Value="84"/>
  </Event>
  <Event>
    <Absolute>203520</Absolute>
    <NoteOn Channel="11" Note="44" Velocity="127"/>
  </Event>
  <Event>
    <Absolute>203536</Absolute>
    <ControlChange Channel="11" Control="7" Value="83"/>
  </Event>
  <Event>
    <Absolute>203584</Absolute>
    <NoteOff Channel="11" Note="44" Velocity="0"/>
  </Event>
  <Event>
    <Absolute>203624</Absolute>
    <ControlChange Channel="11" Control="7" Value="82"/>
  </Event>
  <Event>
    <Absolute>203648</Absolute>
    <NoteOn Channel="11" Note="44" Velocity="127"/>
  </Event>
  <Event>
    <Absolute>203664</Absolute>
    <ControlChange Channel="11" Control="7" Value="81"/>
  </Event>
  <Event>
    <Absolute>203712</Absolute>
    <NoteOff Channel="11" Note="44" Velocity="0"/>
  </Event>
  <Event>
    <Absolute>203720</Absolute>
    <ControlChange Channel="11" Control="7" Value="80"/>
  </Event>
  <Event>
    <Absolute>203752</Absolute>
    <ControlChange Channel="11" Control="7" Value="78"/>
  </Event>
  <Event>
    <Absolute>203776</Absolute>
    <NoteOn Channel="11" Note="44" Velocity="127"/>
  </Event>
  <Event>
    <Absolute>203808</Absolute>
    <ControlChange Channel="11" Control="7" Value="77"/>
  </Event>
  <Event>
    <Absolute>203840</Absolute>
    <NoteOff Channel="11" Note="44" Velocity="0"/>
  </Event>
  <Event>
    <Absolute>203904</Absolute>
    <NoteOn Channel="11" Note="44" Velocity="127"/>
  </Event>
  <Event>
    <Absolute>203920</Absolute>
    <ControlChange Channel="11" Control="7" Value="75"/>
  </Event>
  <Event>
    <Absolute>203968</Absolute>
    <NoteOff Channel="11" Note="44" Velocity="0"/>
  </Event>
  <Event>
    <Absolute>203984</Absolute>
    <ControlChange Channel="11" Control="7" Value="74"/>
  </Event>
  <Event>
    <Absolute>204032</Absolute>
    <ControlChange Channel="11" Control="7" Value="72"/>
  </Event>
  <Event>
    <Absolute>204032</Absolute>
    <NoteOn Channel="11" Note="44" Velocity="127"/>
  </Event>
  <Event>
    <Absolute>204096</Absolute>
    <NoteOff Channel="11" Note="44" Velocity="0"/>
  </Event>
  <Event>
    <Absolute>204112</Absolute>
    <ControlChange Channel="11" Control="7" Value="71"/>
  </Event>
  <Event>
    <Absolute>204160</Absolute>
    <NoteOn Channel="11" Note="44" Velocity="127"/>
  </Event>
  <Event>
    <Absolute>204192</Absolute>
    <ControlChange Channel="11" Control="7" Value="69"/>
  </Event>
  <Event>
    <Absolute>204224</Absolute>
    <NoteOff Channel="11" Note="44" Velocity="0"/>
  </Event>
  <Event>
    <Absolute>204288</Absolute>
    <NoteOn Channel="11" Note="44" Velocity="127"/>
  </Event>
  <Event>
    <Absolute>204324</Absolute>
    <ControlChange Channel="11" Control="7" Value="68"/>
  </Event>
  <Event>
    <Absolute>204352</Absolute>
    <NoteOff Channel="11" Note="44" Velocity="0"/>
  </Event>
  <Event>
    <Absolute>204368</Absolute>
    <ControlChange Channel="11" Control="7" Value="66"/>
  </Event>
  <Event>
    <Absolute>204416</Absolute>
    <NoteOn Channel="11" Note="44" Velocity="127"/>
  </Event>
  <Event>
    <Absolute>204432</Absolute>
    <ControlChange Channel="11" Control="7" Value="65"/>
  </Event>
  <Event>
    <Absolute>204480</Absolute>
    <NoteOff Channel="11" Note="44" Velocity="0"/>
  </Event>
  <Event>
    <Absolute>204480</Absolute>
    <ControlChange Channel="11" Control="7" Value="64"/>
  </Event>
  <Event>
    <Absolute>204544</Absolute>
    <ControlChange Channel="11" Control="7" Value="63"/>
  </Event>
  <Event>
    <Absolute>204544</Absolute>
    <NoteOn Channel="11" Note="44" Velocity="127"/>
  </Event>
  <Event>
    <Absolute>204560</Absolute>
    <ControlChange Channel="11" Control="7" Value="62"/>
  </Event>
  <Event>
    <Absolute>204608</Absolute>
    <NoteOff Channel="11" Note="44" Velocity="0"/>
  </Event>
  <Event>
    <Absolute>204624</Absolute>
    <ControlChange Channel="11" Control="7" Value="61"/>
  </Event>
  <Event>
    <Absolute>204672</Absolute>
    <ControlChange Channel="11" Control="7" Value="60"/>
  </Event>
  <Event>
    <Absolute>204672</Absolute>
    <NoteOn Channel="11" Note="44" Velocity="127"/>
  </Event>
  <Event>
    <Absolute>204712</Absolute>
    <ControlChange Channel="11" Control="7" Value="59"/>
  </Event>
  <Event>
    <Absolute>204736</Absolute>
    <ControlChange Channel="11" Control="7" Value="58"/>
  </Event>
  <Event>
    <Absolute>204768</Absolute>
    <ControlChange Channel="11" Control="7" Value="57"/>
  </Event>
  <Event>
    <Absolute>204800</Absolute>
    <NoteOff Channel="11" Note="44" Velocity="0"/>
  </Event>
  <Event>
    <Absolute>204800</Absolute>
    <NoteOn Channel="11" Note="44" Velocity="127"/>
  </Event>
  <Event>
    <Absolute>204816</Absolute>
    <ControlChange Channel="11" Control="7" Value="56"/>
  </Event>
  <Event>
    <Absolute>204864</Absolute>
    <NoteOff Channel="11" Note="44" Velocity="0"/>
  </Event>
  <Event>
    <Absolute>204896</Absolute>
    <ControlChange Channel="11" Control="7" Value="55"/>
  </Event>
  <Event>
    <Absolute>204928</Absolute>
    <ControlChange Channel="11" Control="7" Value="54"/>
  </Event>
  <Event>
    <Absolute>204928</Absolute>
    <NoteOn Channel="11" Note="44" Velocity="127"/>
  </Event>
  <Event>
    <Absolute>204992</Absolute>
    <NoteOff Channel="11" Note="44" Velocity="0"/>
  </Event>
  <Event>
    <Absolute>204992</Absolute>
    <ControlChange Channel="11" Control="7" Value="53"/>
  </Event>
  <Event>
    <Absolute>205024</Absolute>
    <ControlChange Channel="11" Control="7" Value="52"/>
  </Event>
  <Event>
    <Absolute>205056</Absolute>
    <ControlChange Channel="11" Control="7" Value="51"/>
  </Event>
  <Event>
    <Absolute>205056</Absolute>
    <NoteOn Channel="11" Note="44" Velocity="127"/>
  </Event>
  <Event>
    <Absolute>205080</Absolute>
    <ControlChange Channel="11" Control="7" Value="50"/>
  </Event>
  <Event>
    <Absolute>205120</Absolute>
    <NoteOff Channel="11" Note="44" Velocity="0"/>
  </Event>
  <Event>
    <Absolute>205184</Absolute>
    <ControlChange Channel="11" Control="7" Value="49"/>
  </Event>
  <Event>
    <Absolute>205184</Absolute>
    <NoteOn Channel="11" Note="44" Velocity="127"/>
  </Event>
  <Event>
    <Absolute>205248</Absolute>
    <NoteOff Channel="11" Note="44" Velocity="0"/>
  </Event>
  <Event>
    <Absolute>205264</Absolute>
    <ControlChange Channel="11" Control="7" Value="48"/>
  </Event>
  <Event>
    <Absolute>205312</Absolute>
    <NoteOn Channel="11" Note="44" Velocity="127"/>
  </Event>
  <Event>
    <Absolute>205328</Absolute>
    <ControlChange Channel="11" Control="7" Value="47"/>
  </Event>
  <Event>
    <Absolute>205376</Absolute>
    <NoteOff Channel="11" Note="44" Velocity="0"/>
  </Event>
  <Event>
    <Absolute>205424</Absolute>
    <ControlChange Channel="11" Control="7" Value="46"/>
  </Event>
  <Event>
    <Absolute>205440</Absolute>
    <NoteOn Channel="11" Note="44" Velocity="127"/>
  </Event>
  <Event>
    <Absolute>205456</Absolute>
    <ControlChange Channel="11" Control="7" Value="44"/>
  </Event>
  <Event>
    <Absolute>205488</Absolute>
    <ControlChange Channel="11" Control="7" Value="43"/>
  </Event>
  <Event>
    <Absolute>205504</Absolute>
    <NoteOff Channel="11" Note="44" Velocity="0"/>
  </Event>
  <Event>
    <Absolute>205536</Absolute>
    <ControlChange Channel="11" Control="7" Value="41"/>
  </Event>
  <Event>
    <Absolute>205552</Absolute>
    <ControlChange Channel="11" Control="7" Value="40"/>
  </Event>
  <Event>
    <Absolute>205568</Absolute>
    <NoteOn Channel="11" Note="44" Velocity="127"/>
  </Event>
  <Event>
    <Absolute>205632</Absolute>
    <NoteOff Channel="11" Note="44" Velocity="0"/>
  </Event>
  <Event>
    <Absolute>205648</Absolute>
    <ControlChange Channel="11" Control="7" Value="38"/>
  </Event>
  <Event>
    <Absolute>205696</Absolute>
    <NoteOn Channel="11" Note="44" Velocity="127"/>
  </Event>
  <Event>
    <Absolute>205728</Absolute>
    <ControlChange Channel="11" Control="7" Value="37"/>
  </Event>
  <Event>
    <Absolute>205760</Absolute>
    <NoteOff Channel="11" Note="44" Velocity="0"/>
  </Event>
  <Event>
    <Absolute>205824</Absolute>
    <NoteOn Channel="11" Note="44" Velocity="127"/>
  </Event>
  <Event>
    <Absolute>205888</Absolute>
    <NoteOff Channel="11" Note="44" Velocity="0"/>
  </Event>
  <Event>
    <Absolute>205904</Absolute>
    <ControlChange Channel="11" Control="7" Value="35"/>
  </Event>
  <Event>
    <Absolute>205920</Absolute>
    <ControlChange Channel="11" Control="7" Value="34"/>
  </Event>
  <Event>
    <Absolute>205952</Absolute>
    <NoteOn Channel="11" Note="44" Velocity="127"/>
  </Event>
  <Event>
    <Absolute>206016</Absolute>
    <NoteOff Channel="11" Note="44" Velocity="0"/>
  </Event>
  <Event>
    <Absolute>206032</Absolute>
    <ControlChange Channel="11" Control="7" Value="32"/>
  </Event>
  <Event>
    <Absolute>206080</Absolute>
    <NoteOn Channel="11" Note="44" Velocity="127"/>
  </Event>
  <Event>
    <Absolute>206112</Absolute>
    <ControlChange Channel="11" Control="7" Value="31"/>
  </Event>
  <Event>
    <Absolute>206144</Absolute>
    <NoteOff Channel="11" Note="44" Velocity="0"/>
  </Event>
  <Event>
    <Absolute>206208</Absolute>
    <NoteOn Channel="11" Note="44" Velocity="127"/>
  </Event>
  <Event>
    <Absolute>206228</Absolute>
    <ControlChange Channel="11" Control="7" Value="30"/>
  </Event>
  <Event>
    <Absolute>206272</Absolute>
    <NoteOff Channel="11" Note="44" Velocity="0"/>
  </Event>
  <Event>
    <Absolute>206272</Absolute>
    <NoteOn Channel="11" Note="44" Velocity="127"/>
  </Event>
  <Event>
    <Absolute>206288</Absolute>
    <ControlChange Channel="11" Control="7" Value="29"/>
  </Event>
  <Event>
    <Absolute>206400</Absolute>
    <NoteOff Channel="11" Note="44" Velocity="0"/>
  </Event>
  <Event>
    <Absolute>206432</Absolute>
    <ControlChange Channel="11" Control="7" Value="28"/>
  </Event>
  <Event>
    <Absolute>206464</Absolute>
    <NoteOn Channel="11" Note="44" Velocity="127"/>
  </Event>
  <Event>
    <Absolute>206528</Absolute>
    <NoteOff Channel="11" Note="44" Velocity="0"/>
  </Event>
  <Event>
    <Absolute>206528</Absolute>
    <ControlChange Channel="11" Control="7" Value="27"/>
  </Event>
  <Event>
    <Absolute>206592</Absolute>
    <NoteOn Channel="11" Note="44" Velocity="127"/>
  </Event>
  <Event>
    <Absolute>206624</Absolute>
    <ControlChange Channel="11" Control="7" Value="26"/>
  </Event>
  <Event>
    <Absolute>206640</Absolute>
    <ControlChange Channel="11" Control="7" Value="25"/>
  </Event>
  <Event>
    <Absolute>206656</Absolute>
    <NoteOff Channel="11" Note="44" Velocity="0"/>
  </Event>
  <Event>
    <Absolute>206720</Absolute>
    <ControlChange Channel="11" Control="7" Value="24"/>
  </Event>
  <Event>
    <Absolute>206720</Absolute>
    <NoteOn Channel="11" Note="44" Velocity="127"/>
  </Event>
  <Event>
    <Absolute>206784</Absolute>
    <NoteOff Channel="11" Note="44" Velocity="0"/>
  </Event>
  <Event>
    <Absolute>206792</Absolute>
    <ControlChange Channel="11" Control="7" Value="23"/>
  </Event>
  <Event>
    <Absolute>206848</Absolute>
    <ControlChange Channel="11" Control="7" Value="22"/>
  </Event>
  <Event>
    <Absolute>206848</Absolute>
    <NoteOn Channel="11" Note="44" Velocity="127"/>
  </Event>
  <Event>
    <Absolute>206880</Absolute>
    <ControlChange Channel="11" Control="7" Value="21"/>
  </Event>
  <Event>
    <Absolute>206912</Absolute>
    <NoteOff Channel="11" Note="44" Velocity="0"/>
  </Event>
  <Event>
    <Absolute>206976</Absolute>
    <NoteOn Channel="11" Note="44" Velocity="127"/>
  </Event>
  <Event>
    <Absolute>207008</Absolute>
    <ControlChange Channel="11" Control="7" Value="20"/>
  </Event>
  <Event>
    <Absolute>207040</Absolute>
    <NoteOff Channel="11" Note="44" Velocity="0"/>
  </Event>
  <Event>
    <Absolute>207088</Absolute>
    <ControlChange Channel="11" Control="7" Value="19"/>
  </Event>
  <Event>
    <Absolute>207104</Absolute>
    <NoteOn Channel="11" Note="44" Velocity="127"/>
  </Event>
  <Event>
    <Absolute>207168</Absolute>
    <NoteOff Channel="11" Note="44" Velocity="0"/>
  </Event>
  <Event>
    <Absolute>207232</Absolute>
    <NoteOn Channel="11" Note="44" Velocity="127"/>
  </Event>
  <Event>
    <Absolute>207296</Absolute>
    <NoteOff Channel="11" Note="44" Velocity="0"/>
  </Event>
  <Event>
    <Absolute>207360</Absolute>
    <ControlChange Channel="11" Control="7" Value="18"/>
  </Event>
  <Event>
    <Absolute>207360</Absolute>
    <NoteOn Channel="11" Note="44" Velocity="127"/>
  </Event>
  <Event>
    <Absolute>207392</Absolute>
    <ControlChange Channel="11" Control="7" Value="17"/>
  </Event>
  <Event>
    <Absolute>207424</Absolute>
    <NoteOff Channel="11" Note="44" Velocity="0"/>
  </Event>
  <Event>
    <Absolute>207584</Absolute>
    <ControlChange Channel="11" Control="7" Value="16"/>
  </Event>
  <Event>
    <Absolute>207696</Absolute>
    <ControlChange Channel="11" Control="7" Value="15"/>
  </Event>
  <Event>
    <Absolute>207808</Absolute>
    <ControlChange Channel="11" Control="7" Value="13"/>
  </Event>
  <Event>
    <Absolute>207824</Absolute>
    <ControlChange Channel="11" Control="7" Value="12"/>
  </Event>
  <Event>
    <Absolute>208128</Absolute>
    <ControlChange Channel="11" Control="7" Value="10"/>
  </Event>
  <Event>
    <Absolute>208224</Absolute>
    <ControlChange Channel="11" Control="7" Value="9"/>
  </Event>
  <Event>
    <Absolute>208720</Absolute>
    <ControlChange Channel="11" Control="7" Value="7"/>
  </Event>
  <Event>
    <Absolute>208912</Absolute>
    <ControlChange Channel="11" Control="7" Value="6"/>
  </Event>
  <Event>
    <Absolute>209120</Absolute>
    <ControlChange Channel="11" Control="7" Value="4"/>
  </Event>
  <Event>
    <Absolute>209120</Absolute>
    <EndOfTrack/>
  </Event>
</Track>
<Track Number="9">
  <Event>
    <Absolute>0</Absolute>
    <TrackName>Vocal 1</TrackName>
  </Event>
  <Event>
    <Absolute>0</Absolute>
    <ControlChange Channel="8" Control="0" Value="0"/>
  </Event>
  <Event>
    <Absolute>0</Absolute>
    <ProgramChange Channel="8" Number="53"/>
  </Event>
  <Event>
    <Absolute>0</Absolute>
    <ControlChange Channel="8" Control="7" Value="97"/>
  </Event>
  <Event>
    <Absolute>0</Absolute>
    <ControlChange Channel="8" Control="10" Value="80"/>
  </Event>
  <Event>
    <Absolute>0</Absolute>
    <ControlChange Channel="8" Control="91" Value="98"/>
  </Event>
  <Event>
    <Absolute>0</Absolute>
    <ControlChange Channel="8" Control="93" Value="81"/>
  </Event>
  <Event>
    <Absolute>0</Absolute>
    <KeySignature Fifths="0" Mode="0"/>
  </Event>
  <Event>
    <Absolute>25872</Absolute>
    <ControlChange Channel="8" Control="7" Value="127"/>
  </Event>
  <Event>
    <Absolute>26496</Absolute>
    <NoteOn Channel="8" Note="54" Velocity="126"/>
  </Event>
  <Event>
    <Absolute>26880</Absolute>
    <NoteOff Channel="8" Note="54" Velocity="0"/>
  </Event>
  <Event>
    <Absolute>26880</Absolute>
    <NoteOn Channel="8" Note="52" Velocity="126"/>
  </Event>
  <Event>
    <Absolute>27008</Absolute>
    <NoteOff Channel="8" Note="52" Velocity="0"/>
  </Event>
  <Event>
    <Absolute>27136</Absolute>
    <NoteOn Channel="8" Note="52" Velocity="126"/>
  </Event>
  <Event>
    <Absolute>27264</Absolute>
    <NoteOff Channel="8" Note="52" Velocity="0"/>
  </Event>
  <Event>
    <Absolute>27264</Absolute>
    <NoteOn Channel="8" Note="51" Velocity="126"/>
  </Event>
  <Event>
    <Absolute>27648</Absolute>
    <NoteOn Channel="8" Note="42" Velocity="126"/>
  </Event>
  <Event>
    <Absolute>27776</Absolute>
    <NoteOff Channel="8" Note="51" Velocity="0"/>
  </Event>
  <Event>
    <Absolute>28032</Absolute>
    <NoteOff Channel="8" Note="42" Velocity="0"/>
  </Event>
  <Event>
    <Absolute>28032</Absolute>
    <NoteOn Channel="8" Note="44" Velocity="126"/>
  </Event>
  <Event>
    <Absolute>28416</Absolute>
    <NoteOff Channel="8" Note="44" Velocity="0"/>
  </Event>
  <Event>
    <Absolute>28416</Absolute>
    <NoteOn Channel="8" Note="46" Velocity="126"/>
  </Event>
  <Event>
    <Absolute>28800</Absolute>
    <NoteOff Channel="8" Note="46" Velocity="0"/>
  </Event>
  <Event>
    <Absolute>28800</Absolute>
    <NoteOn Channel="8" Note="49" Velocity="126"/>
  </Event>
  <Event>
    <Absolute>29184</Absolute>
    <NoteOff Channel="8" Note="49" Velocity="0"/>
  </Event>
  <Event>
    <Absolute>29568</Absolute>
    <NoteOn Channel="8" Note="54" Velocity="126"/>
  </Event>
  <Event>
    <Absolute>29952</Absolute>
    <NoteOff Channel="8" Note="54" Velocity="0"/>
  </Event>
  <Event>
    <Absolute>29952</Absolute>
    <NoteOn Channel="8" Note="52" Velocity="126"/>
  </Event>
  <Event>
    <Absolute>30080</Absolute>
    <NoteOff Channel="8" Note="52" Velocity="0"/>
  </Event>
  <Event>
    <Absolute>30208</Absolute>
    <NoteOn Channel="8" Note="52" Velocity="126"/>
  </Event>
  <Event>
    <Absolute>30336</Absolute>
    <NoteOff Channel="8" Note="52" Velocity="0"/>
  </Event>
  <Event>
    <Absolute>30336</Absolute>
    <NoteOn Channel="8" Note="51" Velocity="126"/>
  </Event>
  <Event>
    <Absolute>30720</Absolute>
    <NoteOff Channel="8" Note="51" Velocity="0"/>
  </Event>
  <Event>
    <Absolute>30720</Absolute>
    <NoteOn Channel="8" Note="42" Velocity="126"/>
  </Event>
  <Event>
    <Absolute>31104</Absolute>
    <NoteOff Channel="8" Note="42" Velocity="0"/>
  </Event>
  <Event>
    <Absolute>31104</Absolute>
    <NoteOn Channel="8" Note="44" Velocity="126"/>
  </Event>
  <Event>
    <Absolute>31488</Absolute>
    <NoteOff Channel="8" Note="44" Velocity="0"/>
  </Event>
  <Event>
    <Absolute>31488</Absolute>
    <NoteOn Channel="8" Note="46" Velocity="126"/>
  </Event>
  <Event>
    <Absolute>31872</Absolute>
    <NoteOff Channel="8" Note="46" Velocity="0"/>
  </Event>
  <Event>
    <Absolute>31872</Absolute>
    <NoteOn Channel="8" Note="49" Velocity="126"/>
  </Event>
  <Event>
    <Absolute>32256</Absolute>
    <NoteOff Channel="8" Note="49" Velocity="0"/>
  </Event>
  <Event>
    <Absolute>32640</Absolute>
    <NoteOn Channel="8" Note="54" Velocity="126"/>
  </Event>
  <Event>
    <Absolute>33024</Absolute>
    <NoteOff Channel="8" Note="54" Velocity="0"/>
  </Event>
  <Event>
    <Absolute>33024</Absolute>
    <NoteOn Channel="8" Note="52" Velocity="126"/>
  </Event>
  <Event>
    <Absolute>33152</Absolute>
    <NoteOff Channel="8" Note="52" Velocity="0"/>
  </Event>
  <Event>
    <Absolute>33280</Absolute>
    <NoteOn Channel="8" Note="52" Velocity="126"/>
  </Event>
  <Event>
    <Absolute>33408</Absolute>
    <NoteOn Channel="8" Note="51" Velocity="126"/>
  </Event>
  <Event>
    <Absolute>33536</Absolute>
    <NoteOff Channel="8" Note="52" Velocity="0"/>
  </Event>
  <Event>
    <Absolute>33792</Absolute>
    <NoteOff Channel="8" Note="51" Velocity="0"/>
  </Event>
  <Event>
    <Absolute>33792</Absolute>
    <NoteOn Channel="8" Note="42" Velocity="126"/>
  </Event>
  <Event>
    <Absolute>34176</Absolute>
    <NoteOff Channel="8" Note="42" Velocity="0"/>
  </Event>
  <Event>
    <Absolute>34176</Absolute>
    <NoteOn Channel="8" Note="44" Velocity="126"/>
  </Event>
  <Event>
    <Absolute>34560</Absolute>
    <NoteOff Channel="8" Note="44" Velocity="0"/>
  </Event>
  <Event>
    <Absolute>34560</Absolute>
    <NoteOn Channel="8" Note="46" Velocity="126"/>
  </Event>
  <Event>
    <Absolute>34944</Absolute>
    <NoteOff Channel="8" Note="46" Velocity="0"/>
  </Event>
  <Event>
    <Absolute>34944</Absolute>
    <NoteOn Channel="8" Note="49" Velocity="126"/>
  </Event>
  <Event>
    <Absolute>35328</Absolute>
    <NoteOff Channel="8" Note="49" Velocity="0"/>
  </Event>
  <Event>
    <Absolute>35712</Absolute>
    <NoteOn Channel="8" Note="54" Velocity="126"/>
  </Event>
  <Event>
    <Absolute>36096</Absolute>
    <NoteOff Channel="8" Note="54" Velocity="0"/>
  </Event>
  <Event>
    <Absolute>36096</Absolute>
    <NoteOn Channel="8" Note="52" Velocity="126"/>
  </Event>
  <Event>
    <Absolute>36224</Absolute>
    <NoteOff Channel="8" Note="52" Velocity="0"/>
  </Event>
  <Event>
    <Absolute>36352</Absolute>
    <NoteOn Channel="8" Note="52" Velocity="126"/>
  </Event>
  <Event>
    <Absolute>36480</Absolute>
    <NoteOff Channel="8" Note="52" Velocity="0"/>
  </Event>
  <Event>
    <Absolute>36480</Absolute>
    <NoteOn Channel="8" Note="51" Velocity="126"/>
  </Event>
  <Event>
    <Absolute>36864</Absolute>
    <NoteOff Channel="8" Note="51" Velocity="0"/>
  </Event>
  <Event>
    <Absolute>36864</Absolute>
    <NoteOn Channel="8" Note="42" Velocity="126"/>
  </Event>
  <Event>
    <Absolute>37248</Absolute>
    <NoteOff Channel="8" Note="42" Velocity="0"/>
  </Event>
  <Event>
    <Absolute>37248</Absolute>
    <NoteOn Channel="8" Note="44" Velocity="126"/>
  </Event>
  <Event>
    <Absolute>37632</Absolute>
    <NoteOff Channel="8" Note="44" Velocity="0"/>
  </Event>
  <Event>
    <Absolute>37632</Absolute>
    <NoteOn Channel="8" Note="46" Velocity="126"/>
  </Event>
  <Event>
    <Absolute>38016</Absolute>
    <NoteOff Channel="8" Note="46" Velocity="0"/>
  </Event>
  <Event>
    <Absolute>38016</Absolute>
    <NoteOn Channel="8" Note="49" Velocity="126"/>
  </Event>
  <Event>
    <Absolute>38400</Absolute>
    <NoteOff Channel="8" Note="49" Velocity="0"/>
  </Event>
  <Event>
    <Absolute>38784</Absolute>
    <NoteOn Channel="8" Note="56" Velocity="126"/>
  </Event>
  <Event>
    <Absolute>39168</Absolute>
    <NoteOff Channel="8" Note="56" Velocity="0"/>
  </Event>
  <Event>
    <Absolute>39168</Absolute>
    <NoteOn Channel="8" Note="54" Velocity="126"/>
  </Event>
  <Event>
    <Absolute>39296</Absolute>
    <NoteOff Channel="8" Note="54" Velocity="0"/>
  </Event>
  <Event>
    <Absolute>39424</Absolute>
    <NoteOn Channel="8" Note="54" Velocity="126"/>
  </Event>
  <Event>
    <Absolute>39552</Absolute>
    <NoteOff Channel="8" Note="54" Velocity="0"/>
  </Event>
  <Event>
    <Absolute>39552</Absolute>
    <NoteOn Channel="8" Note="53" Velocity="126"/>
  </Event>
  <Event>
    <Absolute>39936</Absolute>
    <NoteOff Channel="8" Note="53" Velocity="0"/>
  </Event>
  <Event>
    <Absolute>39936</Absolute>
    <NoteOn Channel="8" Note="44" Velocity="126"/>
  </Event>
  <Event>
    <Absolute>40320</Absolute>
    <NoteOff Channel="8" Note="44" Velocity="0"/>
  </Event>
  <Event>
    <Absolute>40320</Absolute>
    <NoteOn Channel="8" Note="46" Velocity="126"/>
  </Event>
  <Event>
    <Absolute>40704</Absolute>
    <NoteOff Channel="8" Note="46" Velocity="0"/>
  </Event>
  <Event>
    <Absolute>40704</Absolute>
    <NoteOn Channel="8" Note="48" Velocity="126"/>
  </Event>
  <Event>
    <Absolute>41088</Absolute>
    <NoteOff Channel="8" Note="48" Velocity="0"/>
  </Event>
  <Event>
    <Absolute>41088</Absolute>
    <NoteOn Channel="8" Note="51" Velocity="126"/>
  </Event>
  <Event>
    <Absolute>41472</Absolute>
    <NoteOff Channel="8" Note="51" Velocity="0"/>
  </Event>
  <Event>
    <Absolute>41856</Absolute>
    <NoteOn Channel="8" Note="56" Velocity="126"/>
  </Event>
  <Event>
    <Absolute>42240</Absolute>
    <NoteOff Channel="8" Note="56" Velocity="0"/>
  </Event>
  <Event>
    <Absolute>42240</Absolute>
    <NoteOn Channel="8" Note="54" Velocity="126"/>
  </Event>
  <Event>
    <Absolute>42368</Absolute>
    <NoteOff Channel="8" Note="54" Velocity="0"/>
  </Event>
  <Event>
    <Absolute>42496</Absolute>
    <NoteOn Channel="8" Note="54" Velocity="126"/>
  </Event>
  <Event>
    <Absolute>42624</Absolute>
    <NoteOff Channel="8" Note="54" Velocity="0"/>
  </Event>
  <Event>
    <Absolute>42624</Absolute>
    <NoteOn Channel="8" Note="53" Velocity="126"/>
  </Event>
  <Event>
    <Absolute>43008</Absolute>
    <NoteOff Channel="8" Note="53" Velocity="0"/>
  </Event>
  <Event>
    <Absolute>43008</Absolute>
    <NoteOn Channel="8" Note="44" Velocity="126"/>
  </Event>
  <Event>
    <Absolute>43392</Absolute>
    <NoteOff Channel="8" Note="44" Velocity="0"/>
  </Event>
  <Event>
    <Absolute>43392</Absolute>
    <NoteOn Channel="8" Note="46" Velocity="126"/>
  </Event>
  <Event>
    <Absolute>43776</Absolute>
    <NoteOff Channel="8" Note="46" Velocity="0"/>
  </Event>
  <Event>
    <Absolute>43776</Absolute>
    <NoteOn Channel="8" Note="48" Velocity="126"/>
  </Event>
  <Event>
    <Absolute>44160</Absolute>
    <NoteOff Channel="8" Note="48" Velocity="0"/>
  </Event>
  <Event>
    <Absolute>44160</Absolute>
    <NoteOn Channel="8" Note="51" Velocity="126"/>
  </Event>
  <Event>
    <Absolute>44544</Absolute>
    <NoteOff Channel="8" Note="51" Velocity="0"/>
  </Event>
  <Event>
    <Absolute>44928</Absolute>
    <NoteOn Channel="8" Note="58" Velocity="126"/>
  </Event>
  <Event>
    <Absolute>45312</Absolute>
    <NoteOff Channel="8" Note="58" Velocity="0"/>
  </Event>
  <Event>
    <Absolute>45312</Absolute>
    <NoteOn Channel="8" Note="56" Velocity="126"/>
  </Event>
  <Event>
    <Absolute>45440</Absolute>
    <NoteOff Channel="8" Note="56" Velocity="0"/>
  </Event>
  <Event>
    <Absolute>45568</Absolute>
    <NoteOn Channel="8" Note="56" Velocity="126"/>
  </Event>
  <Event>
    <Absolute>45696</Absolute>
    <NoteOff Channel="8" Note="56" Velocity="0"/>
  </Event>
  <Event>
    <Absolute>45696</Absolute>
    <NoteOn Channel="8" Note="55" Velocity="126"/>
  </Event>
  <Event>
    <Absolute>46080</Absolute>
    <NoteOff Channel="8" Note="55" Velocity="0"/>
  </Event>
  <Event>
    <Absolute>46080</Absolute>
    <NoteOn Channel="8" Note="46" Velocity="126"/>
  </Event>
  <Event>
    <Absolute>46464</Absolute>
    <NoteOff Channel="8" Note="46" Velocity="0"/>
  </Event>
  <Event>
    <Absolute>46464</Absolute>
    <NoteOn Channel="8" Note="48" Velocity="126"/>
  </Event>
  <Event>
    <Absolute>46848</Absolute>
    <NoteOff Channel="8" Note="48" Velocity="0"/>
  </Event>
  <Event>
    <Absolute>46848</Absolute>
    <NoteOn Channel="8" Note="50" Velocity="126"/>
  </Event>
  <Event>
    <Absolute>47232</Absolute>
    <NoteOff Channel="8" Note="50" Velocity="0"/>
  </Event>
  <Event>
    <Absolute>47232</Absolute>
    <NoteOn Channel="8" Note="53" Velocity="126"/>
  </Event>
  <Event>
    <Absolute>47488</Absolute>
    <NoteOff Channel="8" Note="53" Velocity="0"/>
  </Event>
  <Event>
    <Absolute>48000</Absolute>
    <NoteOn Channel="8" Note="58" Velocity="126"/>
  </Event>
  <Event>
    <Absolute>48384</Absolute>
    <NoteOff Channel="8" Note="58" Velocity="0"/>
  </Event>
  <Event>
    <Absolute>48384</Absolute>
    <NoteOn Channel="8" Note="56" Velocity="126"/>
  </Event>
  <Event>
    <Absolute>48512</Absolute>
    <NoteOff Channel="8" Note="56" Velocity="0"/>
  </Event>
  <Event>
    <Absolute>48640</Absolute>
    <NoteOn Channel="8" Note="56" Velocity="126"/>
  </Event>
  <Event>
    <Absolute>48768</Absolute>
    <NoteOff Channel="8" Note="56" Velocity="0"/>
  </Event>
  <Event>
    <Absolute>48768</Absolute>
    <NoteOn Channel="8" Note="55" Velocity="126"/>
  </Event>
  <Event>
    <Absolute>49152</Absolute>
    <NoteOff Channel="8" Note="55" Velocity="0"/>
  </Event>
  <Event>
    <Absolute>49152</Absolute>
    <NoteOn Channel="8" Note="46" Velocity="126"/>
  </Event>
  <Event>
    <Absolute>49536</Absolute>
    <NoteOff Channel="8" Note="46" Velocity="0"/>
  </Event>
  <Event>
    <Absolute>49536</Absolute>
    <NoteOn Channel="8" Note="48" Velocity="126"/>
  </Event>
  <Event>
    <Absolute>49920</Absolute>
    <NoteOff Channel="8" Note="48" Velocity="0"/>
  </Event>
  <Event>
    <Absolute>49920</Absolute>
    <NoteOn Channel="8" Note="50" Velocity="126"/>
  </Event>
  <Event>
    <Absolute>50304</Absolute>
    <NoteOff Channel="8" Note="50" Velocity="0"/>
  </Event>
  <Event>
    <Absolute>50304</Absolute>
    <NoteOn Channel="8" Note="53" Velocity="126"/>
  </Event>
  <Event>
    <Absolute>50688</Absolute>
    <NoteOff Channel="8" Note="53" Velocity="0"/>
  </Event>
  <Event>
    <Absolute>75648</Absolute>
    <NoteOn Channel="8" Note="54" Velocity="126"/>
  </Event>
  <Event>
    <Absolute>76032</Absolute>
    <NoteOff Channel="8" Note="54" Velocity="0"/>
  </Event>
  <Event>
    <Absolute>76032</Absolute>
    <NoteOn Channel="8" Note="52" Velocity="126"/>
  </Event>
  <Event>
    <Absolute>76160</Absolute>
    <NoteOff Channel="8" Note="52" Velocity="0"/>
  </Event>
  <Event>
    <Absolute>76288</Absolute>
    <NoteOn Channel="8" Note="52" Velocity="126"/>
  </Event>
  <Event>
    <Absolute>76416</Absolute>
    <NoteOff Channel="8" Note="52" Velocity="0"/>
  </Event>
  <Event>
    <Absolute>76416</Absolute>
    <NoteOn Channel="8" Note="51" Velocity="126"/>
  </Event>
  <Event>
    <Absolute>76800</Absolute>
    <NoteOn Channel="8" Note="42" Velocity="126"/>
  </Event>
  <Event>
    <Absolute>76928</Absolute>
    <NoteOff Channel="8" Note="51" Velocity="0"/>
  </Event>
  <Event>
    <Absolute>77184</Absolute>
    <NoteOff Channel="8" Note="42" Velocity="0"/>
  </Event>
  <Event>
    <Absolute>77184</Absolute>
    <NoteOn Channel="8" Note="44" Velocity="126"/>
  </Event>
  <Event>
    <Absolute>77568</Absolute>
    <NoteOff Channel="8" Note="44" Velocity="0"/>
  </Event>
  <Event>
    <Absolute>77568</Absolute>
    <NoteOn Channel="8" Note="46" Velocity="126"/>
  </Event>
  <Event>
    <Absolute>77952</Absolute>
    <NoteOff Channel="8" Note="46" Velocity="0"/>
  </Event>
  <Event>
    <Absolute>77952</Absolute>
    <NoteOn Channel="8" Note="49" Velocity="126"/>
  </Event>
  <Event>
    <Absolute>78336</Absolute>
    <NoteOff Channel="8" Note="49" Velocity="0"/>
  </Event>
  <Event>
    <Absolute>78720</Absolute>
    <NoteOn Channel="8" Note="54" Velocity="126"/>
  </Event>
  <Event>
    <Absolute>79104</Absolute>
    <NoteOff Channel="8" Note="54" Velocity="0"/>
  </Event>
  <Event>
    <Absolute>79104</Absolute>
    <NoteOn Channel="8" Note="52" Velocity="126"/>
  </Event>
  <Event>
    <Absolute>79232</Absolute>
    <NoteOff Channel="8" Note="52" Velocity="0"/>
  </Event>
  <Event>
    <Absolute>79360</Absolute>
    <NoteOn Channel="8" Note="52" Velocity="126"/>
  </Event>
  <Event>
    <Absolute>79488</Absolute>
    <NoteOff Channel="8" Note="52" Velocity="0"/>
  </Event>
  <Event>
    <Absolute>79488</Absolute>
    <NoteOn Channel="8" Note="51" Velocity="126"/>
  </Event>
  <Event>
    <Absolute>79872</Absolute>
    <NoteOff Channel="8" Note="51" Velocity="0"/>
  </Event>
  <Event>
    <Absolute>79872</Absolute>
    <NoteOn Channel="8" Note="42" Velocity="126"/>
  </Event>
  <Event>
    <Absolute>80256</Absolute>
    <NoteOff Channel="8" Note="42" Velocity="0"/>
  </Event>
  <Event>
    <Absolute>80256</Absolute>
    <NoteOn Channel="8" Note="44" Velocity="126"/>
  </Event>
  <Event>
    <Absolute>80640</Absolute>
    <NoteOff Channel="8" Note="44" Velocity="0"/>
  </Event>
  <Event>
    <Absolute>80640</Absolute>
    <NoteOn Channel="8" Note="46" Velocity="126"/>
  </Event>
  <Event>
    <Absolute>81024</Absolute>
    <NoteOff Channel="8" Note="46" Velocity="0"/>
  </Event>
  <Event>
    <Absolute>81024</Absolute>
    <NoteOn Channel="8" Note="49" Velocity="126"/>
  </Event>
  <Event>
    <Absolute>81408</Absolute>
    <NoteOff Channel="8" Note="49" Velocity="0"/>
  </Event>
  <Event>
    <Absolute>81792</Absolute>
    <NoteOn Channel="8" Note="54" Velocity="126"/>
  </Event>
  <Event>
    <Absolute>82176</Absolute>
    <NoteOff Channel="8" Note="54" Velocity="0"/>
  </Event>
  <Event>
    <Absolute>82176</Absolute>
    <NoteOn Channel="8" Note="52" Velocity="126"/>
  </Event>
  <Event>
    <Absolute>82304</Absolute>
    <NoteOff Channel="8" Note="52" Velocity="0"/>
  </Event>
  <Event>
    <Absolute>82432</Absolute>
    <NoteOn Channel="8" Note="52" Velocity="126"/>
  </Event>
  <Event>
    <Absolute>82560</Absolute>
    <NoteOn Channel="8" Note="51" Velocity="126"/>
  </Event>
  <Event>
    <Absolute>82688</Absolute>
    <NoteOff Channel="8" Note="52" Velocity="0"/>
  </Event>
  <Event>
    <Absolute>82944</Absolute>
    <NoteOff Channel="8" Note="51" Velocity="0"/>
  </Event>
  <Event>
    <Absolute>82944</Absolute>
    <NoteOn Channel="8" Note="42" Velocity="126"/>
  </Event>
  <Event>
    <Absolute>83328</Absolute>
    <NoteOff Channel="8" Note="42" Velocity="0"/>
  </Event>
  <Event>
    <Absolute>83328</Absolute>
    <NoteOn Channel="8" Note="44" Velocity="126"/>
  </Event>
  <Event>
    <Absolute>83712</Absolute>
    <NoteOff Channel="8" Note="44" Velocity="0"/>
  </Event>
  <Event>
    <Absolute>83712</Absolute>
    <NoteOn Channel="8" Note="46" Velocity="126"/>
  </Event>
  <Event>
    <Absolute>84096</Absolute>
    <NoteOff Channel="8" Note="46" Velocity="0"/>
  </Event>
  <Event>
    <Absolute>84096</Absolute>
    <NoteOn Channel="8" Note="49" Velocity="126"/>
  </Event>
  <Event>
    <Absolute>84480</Absolute>
    <NoteOff Channel="8" Note="49" Velocity="0"/>
  </Event>
  <Event>
    <Absolute>84864</Absolute>
    <NoteOn Channel="8" Note="54" Velocity="126"/>
  </Event>
  <Event>
    <Absolute>85248</Absolute>
    <NoteOff Channel="8" Note="54" Velocity="0"/>
  </Event>
  <Event>
    <Absolute>85248</Absolute>
    <NoteOn Channel="8" Note="52" Velocity="126"/>
  </Event>
  <Event>
    <Absolute>85376</Absolute>
    <NoteOff Channel="8" Note="52" Velocity="0"/>
  </Event>
  <Event>
    <Absolute>85504</Absolute>
    <NoteOn Channel="8" Note="52" Velocity="126"/>
  </Event>
  <Event>
    <Absolute>85632</Absolute>
    <NoteOff Channel="8" Note="52" Velocity="0"/>
  </Event>
  <Event>
    <Absolute>85632</Absolute>
    <NoteOn Channel="8" Note="51" Velocity="126"/>
  </Event>
  <Event>
    <Absolute>86016</Absolute>
    <NoteOff Channel="8" Note="51" Velocity="0"/>
  </Event>
  <Event>
    <Absolute>86016</Absolute>
    <NoteOn Channel="8" Note="42" Velocity="126"/>
  </Event>
  <Event>
    <Absolute>86400</Absolute>
    <NoteOff Channel="8" Note="42" Velocity="0"/>
  </Event>
  <Event>
    <Absolute>86400</Absolute>
    <NoteOn Channel="8" Note="44" Velocity="126"/>
  </Event>
  <Event>
    <Absolute>86784</Absolute>
    <NoteOff Channel="8" Note="44" Velocity="0"/>
  </Event>
  <Event>
    <Absolute>86784</Absolute>
    <NoteOn Channel="8" Note="46" Velocity="126"/>
  </Event>
  <Event>
    <Absolute>87168</Absolute>
    <NoteOff Channel="8" Note="46" Velocity="0"/>
  </Event>
  <Event>
    <Absolute>87168</Absolute>
    <NoteOn Channel="8" Note="49" Velocity="126"/>
  </Event>
  <Event>
    <Absolute>87552</Absolute>
    <NoteOff Channel="8" Note="49" Velocity="0"/>
  </Event>
  <Event>
    <Absolute>87936</Absolute>
    <NoteOn Channel="8" Note="56" Velocity="126"/>
  </Event>
  <Event>
    <Absolute>88320</Absolute>
    <NoteOff Channel="8" Note="56" Velocity="0"/>
  </Event>
  <Event>
    <Absolute>88320</Absolute>
    <NoteOn Channel="8" Note="54" Velocity="126"/>
  </Event>
  <Event>
    <Absolute>88448</Absolute>
    <NoteOff Channel="8" Note="54" Velocity="0"/>
  </Event>
  <Event>
    <Absolute>88576</Absolute>
    <NoteOn Channel="8" Note="54" Velocity="126"/>
  </Event>
  <Event>
    <Absolute>88704</Absolute>
    <NoteOff Channel="8" Note="54" Velocity="0"/>
  </Event>
  <Event>
    <Absolute>88704</Absolute>
    <NoteOn Channel="8" Note="53" Velocity="126"/>
  </Event>
  <Event>
    <Absolute>89088</Absolute>
    <NoteOff Channel="8" Note="53" Velocity="0"/>
  </Event>
  <Event>
    <Absolute>89088</Absolute>
    <NoteOn Channel="8" Note="44" Velocity="126"/>
  </Event>
  <Event>
    <Absolute>89472</Absolute>
    <NoteOff Channel="8" Note="44" Velocity="0"/>
  </Event>
  <Event>
    <Absolute>89472</Absolute>
    <NoteOn Channel="8" Note="46" Velocity="126"/>
  </Event>
  <Event>
    <Absolute>89856</Absolute>
    <NoteOff Channel="8" Note="46" Velocity="0"/>
  </Event>
  <Event>
    <Absolute>89856</Absolute>
    <NoteOn Channel="8" Note="48" Velocity="126"/>
  </Event>
  <Event>
    <Absolute>90240</Absolute>
    <NoteOff Channel="8" Note="48" Velocity="0"/>
  </Event>
  <Event>
    <Absolute>90240</Absolute>
    <NoteOn Channel="8" Note="51" Velocity="126"/>
  </Event>
  <Event>
    <Absolute>90624</Absolute>
    <NoteOff Channel="8" Note="51" Velocity="0"/>
  </Event>
  <Event>
    <Absolute>91008</Absolute>
    <NoteOn Channel="8" Note="56" Velocity="126"/>
  </Event>
  <Event>
    <Absolute>91392</Absolute>
    <NoteOff Channel="8" Note="56" Velocity="0"/>
  </Event>
  <Event>
    <Absolute>91392</Absolute>
    <NoteOn Channel="8" Note="54" Velocity="126"/>
  </Event>
  <Event>
    <Absolute>91520</Absolute>
    <NoteOff Channel="8" Note="54" Velocity="0"/>
  </Event>
  <Event>
    <Absolute>91648</Absolute>
    <NoteOn Channel="8" Note="54" Velocity="126"/>
  </Event>
  <Event>
    <Absolute>91776</Absolute>
    <NoteOff Channel="8" Note="54" Velocity="0"/>
  </Event>
  <Event>
    <Absolute>91776</Absolute>
    <NoteOn Channel="8" Note="53" Velocity="126"/>
  </Event>
  <Event>
    <Absolute>92160</Absolute>
    <NoteOff Channel="8" Note="53" Velocity="0"/>
  </Event>
  <Event>
    <Absolute>92160</Absolute>
    <NoteOn Channel="8" Note="44" Velocity="126"/>
  </Event>
  <Event>
    <Absolute>92544</Absolute>
    <NoteOff Channel="8" Note="44" Velocity="0"/>
  </Event>
  <Event>
    <Absolute>92544</Absolute>
    <NoteOn Channel="8" Note="46" Velocity="126"/>
  </Event>
  <Event>
    <Absolute>92928</Absolute>
    <NoteOff Channel="8" Note="46" Velocity="0"/>
  </Event>
  <Event>
    <Absolute>92928</Absolute>
    <NoteOn Channel="8" Note="48" Velocity="126"/>
  </Event>
  <Event>
    <Absolute>93312</Absolute>
    <NoteOff Channel="8" Note="48" Velocity="0"/>
  </Event>
  <Event>
    <Absolute>93312</Absolute>
    <NoteOn Channel="8" Note="51" Velocity="126"/>
  </Event>
  <Event>
    <Absolute>93696</Absolute>
    <NoteOff Channel="8" Note="51" Velocity="0"/>
  </Event>
  <Event>
    <Absolute>94080</Absolute>
    <NoteOn Channel="8" Note="58" Velocity="126"/>
  </Event>
  <Event>
    <Absolute>94464</Absolute>
    <NoteOff Channel="8" Note="58" Velocity="0"/>
  </Event>
  <Event>
    <Absolute>94464</Absolute>
    <NoteOn Channel="8" Note="56" Velocity="126"/>
  </Event>
  <Event>
    <Absolute>94592</Absolute>
    <NoteOff Channel="8" Note="56" Velocity="0"/>
  </Event>
  <Event>
    <Absolute>94720</Absolute>
    <NoteOn Channel="8" Note="56" Velocity="126"/>
  </Event>
  <Event>
    <Absolute>94848</Absolute>
    <NoteOff Channel="8" Note="56" Velocity="0"/>
  </Event>
  <Event>
    <Absolute>94848</Absolute>
    <NoteOn Channel="8" Note="55" Velocity="126"/>
  </Event>
  <Event>
    <Absolute>95232</Absolute>
    <NoteOff Channel="8" Note="55" Velocity="0"/>
  </Event>
  <Event>
    <Absolute>95232</Absolute>
    <NoteOn Channel="8" Note="46" Velocity="126"/>
  </Event>
  <Event>
    <Absolute>95616</Absolute>
    <NoteOff Channel="8" Note="46" Velocity="0"/>
  </Event>
  <Event>
    <Absolute>95616</Absolute>
    <NoteOn Channel="8" Note="48" Velocity="126"/>
  </Event>
  <Event>
    <Absolute>96000</Absolute>
    <NoteOff Channel="8" Note="48" Velocity="0"/>
  </Event>
  <Event>
    <Absolute>96000</Absolute>
    <NoteOn Channel="8" Note="50" Velocity="126"/>
  </Event>
  <Event>
    <Absolute>96384</Absolute>
    <NoteOff Channel="8" Note="50" Velocity="0"/>
  </Event>
  <Event>
    <Absolute>96384</Absolute>
    <NoteOn Channel="8" Note="53" Velocity="126"/>
  </Event>
  <Event>
    <Absolute>96640</Absolute>
    <NoteOff Channel="8" Note="53" Velocity="0"/>
  </Event>
  <Event>
    <Absolute>97152</Absolute>
    <NoteOn Channel="8" Note="58" Velocity="126"/>
  </Event>
  <Event>
    <Absolute>97536</Absolute>
    <NoteOff Channel="8" Note="58" Velocity="0"/>
  </Event>
  <Event>
    <Absolute>97536</Absolute>
    <NoteOn Channel="8" Note="56" Velocity="126"/>
  </Event>
  <Event>
    <Absolute>97664</Absolute>
    <NoteOff Channel="8" Note="56" Velocity="0"/>
  </Event>
  <Event>
    <Absolute>97792</Absolute>
    <NoteOn Channel="8" Note="56" Velocity="126"/>
  </Event>
  <Event>
    <Absolute>97920</Absolute>
    <NoteOff Channel="8" Note="56" Velocity="0"/>
  </Event>
  <Event>
    <Absolute>97920</Absolute>
    <NoteOn Channel="8" Note="55" Velocity="126"/>
  </Event>
  <Event>
    <Absolute>98304</Absolute>
    <NoteOff Channel="8" Note="55" Velocity="0"/>
  </Event>
  <Event>
    <Absolute>98304</Absolute>
    <NoteOn Channel="8" Note="46" Velocity="126"/>
  </Event>
  <Event>
    <Absolute>98688</Absolute>
    <NoteOff Channel="8" Note="46" Velocity="0"/>
  </Event>
  <Event>
    <Absolute>98688</Absolute>
    <NoteOn Channel="8" Note="48" Velocity="126"/>
  </Event>
  <Event>
    <Absolute>99072</Absolute>
    <NoteOff Channel="8" Note="48" Velocity="0"/>
  </Event>
  <Event>
    <Absolute>99072</Absolute>
    <NoteOn Channel="8" Note="50" Velocity="126"/>
  </Event>
  <Event>
    <Absolute>99456</Absolute>
    <NoteOff Channel="8" Note="50" Velocity="0"/>
  </Event>
  <Event>
    <Absolute>99456</Absolute>
    <NoteOn Channel="8" Note="53" Velocity="126"/>
  </Event>
  <Event>
    <Absolute>99840</Absolute>
    <NoteOff Channel="8" Note="53" Velocity="0"/>
  </Event>
  <Event>
    <Absolute>100188</Absolute>
    <ControlChange Channel="8" Control="91" Value="127"/>
  </Event>
  <Event>
    <Absolute>100600</Absolute>
    <NoteOn Channel="8" Note="68" Velocity="127"/>
  </Event>
  <Event>
    <Absolute>100936</Absolute>
    <NoteOff Channel="8" Note="68" Velocity="0"/>
  </Event>
  <Event>
    <Absolute>100976</Absolute>
    <NoteOn Channel="8" Note="70" Velocity="127"/>
  </Event>
  <Event>
    <Absolute>103676</Absolute>
    <NoteOff Channel="8" Note="70" Velocity="0"/>
  </Event>
  <Event>
    <Absolute>112128</Absolute>
    <NoteOn Channel="8" Note="58" Velocity="127"/>
  </Event>
  <Event>
    <Absolute>112128</Absolute>
    <NoteOn Channel="8" Note="53" Velocity="92"/>
  </Event>
  <Event>
    <Absolute>118272</Absolute>
    <NoteOff Channel="8" Note="53" Velocity="0"/>
  </Event>
  <Event>
    <Absolute>118272</Absolute>
    <NoteOff Channel="8" Note="58" Velocity="0"/>
  </Event>
  <Event>
    <Absolute>125172</Absolute>
    <NoteOn Channel="8" Note="68" Velocity="97"/>
  </Event>
  <Event>
    <Absolute>125216</Absolute>
    <PitchBendChange Channel="8" Value="5852"/>
  </Event>
  <Event>
    <Absolute>125240</Absolute>
    <PitchBendChange Channel="8" Value="6492"/>
  </Event>
  <Event>
    <Absolute>125268</Absolute>
    <PitchBendChange Channel="8" Value="6876"/>
  </Event>
  <Event>
    <Absolute>125280</Absolute>
    <PitchBendChange Channel="8" Value="7388"/>
  </Event>
  <Event>
    <Absolute>125300</Absolute>
    <PitchBendChange Channel="8" Value="8192"/>
  </Event>
  <Event>
    <Absolute>125456</Absolute>
    <NoteOff Channel="8" Note="68" Velocity="0"/>
  </Event>
  <Event>
    <Absolute>125556</Absolute>
    <NoteOn Channel="8" Note="67" Velocity="97"/>
  </Event>
  <Event>
    <Absolute>125876</Absolute>
    <NoteOff Channel="8" Note="67" Velocity="0"/>
  </Event>
  <Event>
    <Absolute>125920</Absolute>
    <NoteOn Channel="8" Note="65" Velocity="97"/>
  </Event>
  <Event>
    <Absolute>126624</Absolute>
    <NoteOff Channel="8" Note="65" Velocity="0"/>
  </Event>
  <Event>
    <Absolute>126732</Absolute>
    <NoteOn Channel="8" Note="63" Velocity="97"/>
  </Event>
  <Event>
    <Absolute>127028</Absolute>
    <NoteOff Channel="8" Note="63" Velocity="0"/>
  </Event>
  <Event>
    <Absolute>127136</Absolute>
    <NoteOn Channel="8" Note="61" Velocity="97"/>
  </Event>
  <Event>
    <Absolute>127296</Absolute>
    <NoteOff Channel="8" Note="61" Velocity="0"/>
  </Event>
  <Event>
    <Absolute>127348</Absolute>
    <NoteOn Channel="8" Note="63" Velocity="97"/>
  </Event>
  <Event>
    <Absolute>127616</Absolute>
    <NoteOff Channel="8" Note="63" Velocity="0"/>
  </Event>
  <Event>
    <Absolute>127748</Absolute>
    <NoteOn Channel="8" Note="58" Velocity="97"/>
  </Event>
  <Event>
    <Absolute>130464</Absolute>
    <NoteOff Channel="8" Note="58" Velocity="0"/>
  </Event>
  <Event>
    <Absolute>164352</Absolute>
    <NoteOn Channel="8" Note="75" Velocity="90"/>
  </Event>
  <Event>
    <Absolute>164352</Absolute>
    <NoteOn Channel="8" Note="82" Velocity="90"/>
  </Event>
  <Event>
    <Absolute>164352</Absolute>
    <NoteOn Channel="8" Note="79" Velocity="90"/>
  </Event>
  <Event>
    <Absolute>164352</Absolute>
    <NoteOn Channel="8" Note="87" Velocity="90"/>
  </Event>
  <Event>
    <Absolute>165888</Absolute>
    <NoteOff Channel="8" Note="75" Velocity="0"/>
  </Event>
  <Event>
    <Absolute>165888</Absolute>
    <NoteOff Channel="8" Note="82" Velocity="0"/>
  </Event>
  <Event>
    <Absolute>165888</Absolute>
    <NoteOff Channel="8" Note="79" Velocity="0"/>
  </Event>
  <Event>
    <Absolute>165888</Absolute>
    <NoteOff Channel="8" Note="87" Velocity="0"/>
  </Event>
  <Event>
    <Absolute>167808</Absolute>
    <ControlChange Channel="8" Control="91" Value="10"/>
  </Event>
  <Event>
    <Absolute>167808</Absolute>
    <NoteOn Channel="8" Note="58" Velocity="126"/>
  </Event>
  <Event>
    <Absolute>168192</Absolute>
    <NoteOff Channel="8" Note="58" Velocity="0"/>
  </Event>
  <Event>
    <Absolute>168192</Absolute>
    <NoteOn Channel="8" Note="56" Velocity="126"/>
  </Event>
  <Event>
    <Absolute>168320</Absolute>
    <NoteOff Channel="8" Note="56" Velocity="0"/>
  </Event>
  <Event>
    <Absolute>168448</Absolute>
    <NoteOn Channel="8" Note="56" Velocity="126"/>
  </Event>
  <Event>
    <Absolute>168576</Absolute>
    <NoteOff Channel="8" Note="56" Velocity="0"/>
  </Event>
  <Event>
    <Absolute>168576</Absolute>
    <NoteOn Channel="8" Note="55" Velocity="126"/>
  </Event>
  <Event>
    <Absolute>168960</Absolute>
    <NoteOff Channel="8" Note="55" Velocity="0"/>
  </Event>
  <Event>
    <Absolute>168960</Absolute>
    <NoteOn Channel="8" Note="46" Velocity="126"/>
  </Event>
  <Event>
    <Absolute>169344</Absolute>
    <NoteOff Channel="8" Note="46" Velocity="0"/>
  </Event>
  <Event>
    <Absolute>169344</Absolute>
    <NoteOn Channel="8" Note="48" Velocity="126"/>
  </Event>
  <Event>
    <Absolute>169728</Absolute>
    <NoteOff Channel="8" Note="48" Velocity="0"/>
  </Event>
  <Event>
    <Absolute>169728</Absolute>
    <NoteOn Channel="8" Note="50" Velocity="126"/>
  </Event>
  <Event>
    <Absolute>170112</Absolute>
    <NoteOff Channel="8" Note="50" Velocity="0"/>
  </Event>
  <Event>
    <Absolute>170112</Absolute>
    <NoteOn Channel="8" Note="53" Velocity="126"/>
  </Event>
  <Event>
    <Absolute>170368</Absolute>
    <NoteOff Channel="8" Note="53" Velocity="0"/>
  </Event>
  <Event>
    <Absolute>170880</Absolute>
    <NoteOn Channel="8" Note="58" Velocity="126"/>
  </Event>
  <Event>
    <Absolute>171264</Absolute>
    <NoteOff Channel="8" Note="58" Velocity="0"/>
  </Event>
  <Event>
    <Absolute>171264</Absolute>
    <NoteOn Channel="8" Note="56" Velocity="126"/>
  </Event>
  <Event>
    <Absolute>171392</Absolute>
    <NoteOff Channel="8" Note="56" Velocity="0"/>
  </Event>
  <Event>
    <Absolute>171520</Absolute>
    <NoteOn Channel="8" Note="56" Velocity="126"/>
  </Event>
  <Event>
    <Absolute>171648</Absolute>
    <NoteOff Channel="8" Note="56" Velocity="0"/>
  </Event>
  <Event>
    <Absolute>171648</Absolute>
    <NoteOn Channel="8" Note="55" Velocity="126"/>
  </Event>
  <Event>
    <Absolute>172032</Absolute>
    <NoteOff Channel="8" Note="55" Velocity="0"/>
  </Event>
  <Event>
    <Absolute>172032</Absolute>
    <NoteOn Channel="8" Note="46" Velocity="126"/>
  </Event>
  <Event>
    <Absolute>172416</Absolute>
    <NoteOff Channel="8" Note="46" Velocity="0"/>
  </Event>
  <Event>
    <Absolute>172416</Absolute>
    <NoteOn Channel="8" Note="48" Velocity="126"/>
  </Event>
  <Event>
    <Absolute>172800</Absolute>
    <NoteOff Channel="8" Note="48" Velocity="0"/>
  </Event>
  <Event>
    <Absolute>172800</Absolute>
    <NoteOn Channel="8" Note="50" Velocity="126"/>
  </Event>
  <Event>
    <Absolute>173184</Absolute>
    <NoteOff Channel="8" Note="50" Velocity="0"/>
  </Event>
  <Event>
    <Absolute>173184</Absolute>
    <NoteOn Channel="8" Note="53" Velocity="126"/>
  </Event>
  <Event>
    <Absolute>173568</Absolute>
    <NoteOff Channel="8" Note="53" Velocity="0"/>
  </Event>
  <Event>
    <Absolute>173952</Absolute>
    <NoteOn Channel="8" Note="56" Velocity="126"/>
  </Event>
  <Event>
    <Absolute>174336</Absolute>
    <NoteOff Channel="8" Note="56" Velocity="0"/>
  </Event>
  <Event>
    <Absolute>174336</Absolute>
    <NoteOn Channel="8" Note="54" Velocity="126"/>
  </Event>
  <Event>
    <Absolute>174464</Absolute>
    <NoteOff Channel="8" Note="54" Velocity="0"/>
  </Event>
  <Event>
    <Absolute>174592</Absolute>
    <NoteOn Channel="8" Note="54" Velocity="126"/>
  </Event>
  <Event>
    <Absolute>174720</Absolute>
    <NoteOff Channel="8" Note="54" Velocity="0"/>
  </Event>
  <Event>
    <Absolute>174720</Absolute>
    <NoteOn Channel="8" Note="53" Velocity="126"/>
  </Event>
  <Event>
    <Absolute>175104</Absolute>
    <NoteOff Channel="8" Note="53" Velocity="0"/>
  </Event>
  <Event>
    <Absolute>175104</Absolute>
    <NoteOn Channel="8" Note="44" Velocity="126"/>
  </Event>
  <Event>
    <Absolute>175488</Absolute>
    <NoteOff Channel="8" Note="44" Velocity="0"/>
  </Event>
  <Event>
    <Absolute>175488</Absolute>
    <NoteOn Channel="8" Note="46" Velocity="126"/>
  </Event>
  <Event>
    <Absolute>175872</Absolute>
    <NoteOff Channel="8" Note="46" Velocity="0"/>
  </Event>
  <Event>
    <Absolute>175872</Absolute>
    <NoteOn Channel="8" Note="48" Velocity="126"/>
  </Event>
  <Event>
    <Absolute>176256</Absolute>
    <NoteOff Channel="8" Note="48" Velocity="0"/>
  </Event>
  <Event>
    <Absolute>176256</Absolute>
    <NoteOn Channel="8" Note="51" Velocity="126"/>
  </Event>
  <Event>
    <Absolute>176640</Absolute>
    <NoteOff Channel="8" Note="51" Velocity="0"/>
  </Event>
  <Event>
    <Absolute>177024</Absolute>
    <NoteOn Channel="8" Note="56" Velocity="126"/>
  </Event>
  <Event>
    <Absolute>177408</Absolute>
    <NoteOff Channel="8" Note="56" Velocity="0"/>
  </Event>
  <Event>
    <Absolute>177408</Absolute>
    <NoteOn Channel="8" Note="54" Velocity="126"/>
  </Event>
  <Event>
    <Absolute>177536</Absolute>
    <NoteOff Channel="8" Note="54" Velocity="0"/>
  </Event>
  <Event>
    <Absolute>177664</Absolute>
    <NoteOn Channel="8" Note="54" Velocity="126"/>
  </Event>
  <Event>
    <Absolute>177792</Absolute>
    <NoteOff Channel="8" Note="54" Velocity="0"/>
  </Event>
  <Event>
    <Absolute>177792</Absolute>
    <NoteOn Channel="8" Note="53" Velocity="126"/>
  </Event>
  <Event>
    <Absolute>178176</Absolute>
    <NoteOff Channel="8" Note="53" Velocity="0"/>
  </Event>
  <Event>
    <Absolute>178176</Absolute>
    <NoteOn Channel="8" Note="44" Velocity="126"/>
  </Event>
  <Event>
    <Absolute>178560</Absolute>
    <NoteOff Channel="8" Note="44" Velocity="0"/>
  </Event>
  <Event>
    <Absolute>178560</Absolute>
    <NoteOn Channel="8" Note="46" Velocity="126"/>
  </Event>
  <Event>
    <Absolute>178944</Absolute>
    <NoteOff Channel="8" Note="46" Velocity="0"/>
  </Event>
  <Event>
    <Absolute>178944</Absolute>
    <NoteOn Channel="8" Note="48" Velocity="126"/>
  </Event>
  <Event>
    <Absolute>179328</Absolute>
    <NoteOff Channel="8" Note="48" Velocity="0"/>
  </Event>
  <Event>
    <Absolute>179328</Absolute>
    <NoteOn Channel="8" Note="51" Velocity="126"/>
  </Event>
  <Event>
    <Absolute>179712</Absolute>
    <NoteOff Channel="8" Note="51" Velocity="0"/>
  </Event>
  <Event>
    <Absolute>180336</Absolute>
    <ControlChange Channel="8" Control="91" Value="127"/>
  </Event>
  <Event>
    <Absolute>182784</Absolute>
    <NoteOn Channel="8" Note="66" Velocity="98"/>
  </Event>
  <Event>
    <Absolute>183040</Absolute>
    <NoteOff Channel="8" Note="66" Velocity="0"/>
  </Event>
  <Event>
    <Absolute>183040</Absolute>
    <NoteOn Channel="8" Note="68" Velocity="98"/>
  </Event>
  <Event>
    <Absolute>183168</Absolute>
    <NoteOff Channel="8" Note="68" Velocity="0"/>
  </Event>
  <Event>
    <Absolute>183168</Absolute>
    <NoteOn Channel="8" Note="70" Velocity="98"/>
  </Event>
  <Event>
    <Absolute>183424</Absolute>
    <NoteOff Channel="8" Note="70" Velocity="0"/>
  </Event>
  <Event>
    <Absolute>183424</Absolute>
    <NoteOn Channel="8" Note="71" Velocity="98"/>
  </Event>
  <Event>
    <Absolute>183552</Absolute>
    <NoteOff Channel="8" Note="71" Velocity="0"/>
  </Event>
  <Event>
    <Absolute>183552</Absolute>
    <NoteOn Channel="8" Note="73" Velocity="98"/>
  </Event>
  <Event>
    <Absolute>184320</Absolute>
    <NoteOff Channel="8" Note="73" Velocity="0"/>
  </Event>
  <Event>
    <Absolute>184320</Absolute>
    <NoteOn Channel="8" Note="75" Velocity="98"/>
  </Event>
  <Event>
    <Absolute>184576</Absolute>
    <NoteOff Channel="8" Note="75" Velocity="0"/>
  </Event>
  <Event>
    <Absolute>184576</Absolute>
    <NoteOn Channel="8" Note="73" Velocity="98"/>
  </Event>
  <Event>
    <Absolute>184704</Absolute>
    <NoteOff Channel="8" Note="73" Velocity="0"/>
  </Event>
  <Event>
    <Absolute>184704</Absolute>
    <NoteOn Channel="8" Note="70" Velocity="98"/>
  </Event>
  <Event>
    <Absolute>185600</Absolute>
    <NoteOff Channel="8" Note="70" Velocity="0"/>
  </Event>
  <Event>
    <Absolute>185856</Absolute>
    <NoteOn Channel="8" Note="68" Velocity="98"/>
  </Event>
  <Event>
    <Absolute>186112</Absolute>
    <NoteOff Channel="8" Note="68" Velocity="0"/>
  </Event>
  <Event>
    <Absolute>186112</Absolute>
    <NoteOn Channel="8" Note="70" Velocity="98"/>
  </Event>
  <Event>
    <Absolute>186240</Absolute>
    <NoteOff Channel="8" Note="70" Velocity="0"/>
  </Event>
  <Event>
    <Absolute>186240</Absolute>
    <NoteOn Channel="8" Note="72" Velocity="98"/>
  </Event>
  <Event>
    <Absolute>186496</Absolute>
    <NoteOff Channel="8" Note="72" Velocity="0"/>
  </Event>
  <Event>
    <Absolute>186496</Absolute>
    <NoteOn Channel="8" Note="73" Velocity="98"/>
  </Event>
  <Event>
    <Absolute>186624</Absolute>
    <NoteOff Channel="8" Note="73" Velocity="0"/>
  </Event>
  <Event>
    <Absolute>186624</Absolute>
    <NoteOn Channel="8" Note="75" Velocity="98"/>
  </Event>
  <Event>
    <Absolute>187392</Absolute>
    <NoteOff Channel="8" Note="75" Velocity="0"/>
  </Event>
  <Event>
    <Absolute>187392</Absolute>
    <NoteOn Channel="8" Note="77" Velocity="98"/>
  </Event>
  <Event>
    <Absolute>187648</Absolute>
    <NoteOff Channel="8" Note="77" Velocity="0"/>
  </Event>
  <Event>
    <Absolute>187648</Absolute>
    <NoteOn Channel="8" Note="75" Velocity="98"/>
  </Event>
  <Event>
    <Absolute>187776</Absolute>
    <NoteOff Channel="8" Note="75" Velocity="0"/>
  </Event>
  <Event>
    <Absolute>187776</Absolute>
    <NoteOn Channel="8" Note="72" Velocity="98"/>
  </Event>
  <Event>
    <Absolute>188544</Absolute>
    <NoteOff Channel="8" Note="72" Velocity="0"/>
  </Event>
  <Event>
    <Absolute>188928</Absolute>
    <NoteOn Channel="8" Note="70" Velocity="98"/>
  </Event>
  <Event>
    <Absolute>189184</Absolute>
    <NoteOff Channel="8" Note="70" Velocity="0"/>
  </Event>
  <Event>
    <Absolute>189184</Absolute>
    <NoteOn Channel="8" Note="72" Velocity="98"/>
  </Event>
  <Event>
    <Absolute>189312</Absolute>
    <NoteOff Channel="8" Note="72" Velocity="0"/>
  </Event>
  <Event>
    <Absolute>189312</Absolute>
    <NoteOn Channel="8" Note="74" Velocity="98"/>
  </Event>
  <Event>
    <Absolute>189568</Absolute>
    <NoteOff Channel="8" Note="74" Velocity="0"/>
  </Event>
  <Event>
    <Absolute>189568</Absolute>
    <NoteOn Channel="8" Note="75" Velocity="98"/>
  </Event>
  <Event>
    <Absolute>189696</Absolute>
    <NoteOff Channel="8" Note="75" Velocity="0"/>
  </Event>
  <Event>
    <Absolute>189696</Absolute>
    <NoteOn Channel="8" Note="77" Velocity="98"/>
  </Event>
  <Event>
    <Absolute>190464</Absolute>
    <NoteOff Channel="8" Note="77" Velocity="0"/>
  </Event>
  <Event>
    <Absolute>190464</Absolute>
    <NoteOn Channel="8" Note="79" Velocity="98"/>
  </Event>
  <Event>
    <Absolute>190720</Absolute>
    <NoteOff Channel="8" Note="79" Velocity="0"/>
  </Event>
  <Event>
    <Absolute>190720</Absolute>
    <NoteOn Channel="8" Note="77" Velocity="98"/>
  </Event>
  <Event>
    <Absolute>190848</Absolute>
    <NoteOff Channel="8" Note="77" Velocity="0"/>
  </Event>
  <Event>
    <Absolute>190848</Absolute>
    <NoteOn Channel="8" Note="74" Velocity="98"/>
  </Event>
  <Event>
    <Absolute>191616</Absolute>
    <NoteOff Channel="8" Note="74" Velocity="0"/>
  </Event>
  <Event>
    <Absolute>192000</Absolute>
    <NoteOn Channel="8" Note="68" Velocity="98"/>
  </Event>
  <Event>
    <Absolute>192256</Absolute>
    <NoteOff Channel="8" Note="68" Velocity="0"/>
  </Event>
  <Event>
    <Absolute>192256</Absolute>
    <NoteOn Channel="8" Note="70" Velocity="98"/>
  </Event>
  <Event>
    <Absolute>192384</Absolute>
    <NoteOff Channel="8" Note="70" Velocity="0"/>
  </Event>
  <Event>
    <Absolute>192384</Absolute>
    <NoteOn Channel="8" Note="72" Velocity="98"/>
  </Event>
  <Event>
    <Absolute>192640</Absolute>
    <NoteOff Channel="8" Note="72" Velocity="0"/>
  </Event>
  <Event>
    <Absolute>192640</Absolute>
    <NoteOn Channel="8" Note="73" Velocity="98"/>
  </Event>
  <Event>
    <Absolute>192768</Absolute>
    <NoteOff Channel="8" Note="73" Velocity="0"/>
  </Event>
  <Event>
    <Absolute>192768</Absolute>
    <NoteOn Channel="8" Note="75" Velocity="98"/>
  </Event>
  <Event>
    <Absolute>193408</Absolute>
    <NoteOff Channel="8" Note="75" Velocity="0"/>
  </Event>
  <Event>
    <Absolute>193536</Absolute>
    <NoteOn Channel="8" Note="77" Velocity="98"/>
  </Event>
  <Event>
    <Absolute>193792</Absolute>
    <NoteOff Channel="8" Note="77" Velocity="0"/>
  </Event>
  <Event>
    <Absolute>193792</Absolute>
    <NoteOn Channel="8" Note="75" Velocity="98"/>
  </Event>
  <Event>
    <Absolute>193920</Absolute>
    <NoteOff Channel="8" Note="75" Velocity="0"/>
  </Event>
  <Event>
    <Absolute>193920</Absolute>
    <NoteOn Channel="8" Note="72" Velocity="98"/>
  </Event>
  <Event>
    <Absolute>194688</Absolute>
    <NoteOff Channel="8" Note="72" Velocity="0"/>
  </Event>
  <Event>
    <Absolute>198880</Absolute>
    <ControlChange Channel="8" Control="7" Value="95"/>
  </Event>
  <Event>
    <Absolute>200048</Absolute>
    <ControlChange Channel="8" Control="7" Value="94"/>
  </Event>
  <Event>
    <Absolute>200408</Absolute>
    <ControlChange Channel="8" Control="7" Value="93"/>
  </Event>
  <Event>
    <Absolute>200704</Absolute>
    <ControlChange Channel="8" Control="7" Value="92"/>
  </Event>
  <Event>
    <Absolute>201104</Absolute>
    <ControlChange Channel="8" Control="7" Value="91"/>
  </Event>
  <Event>
    <Absolute>201120</Absolute>
    <ControlChange Channel="8" Control="7" Value="90"/>
  </Event>
  <Event>
    <Absolute>201312</Absolute>
    <ControlChange Channel="8" Control="7" Value="89"/>
  </Event>
  <Event>
    <Absolute>201536</Absolute>
    <ControlChange Channel="8" Control="7" Value="88"/>
  </Event>
  <Event>
    <Absolute>201584</Absolute>
    <ControlChange Channel="8" Control="7" Value="87"/>
  </Event>
  <Event>
    <Absolute>201728</Absolute>
    <ControlChange Channel="8" Control="7" Value="86"/>
  </Event>
  <Event>
    <Absolute>202032</Absolute>
    <ControlChange Channel="8" Control="7" Value="85"/>
  </Event>
  <Event>
    <Absolute>202112</Absolute>
    <ControlChange Channel="8" Control="7" Value="84"/>
  </Event>
  <Event>
    <Absolute>202256</Absolute>
    <ControlChange Channel="8" Control="7" Value="83"/>
  </Event>
  <Event>
    <Absolute>202304</Absolute>
    <ControlChange Channel="8" Control="7" Value="82"/>
  </Event>
  <Event>
    <Absolute>202400</Absolute>
    <ControlChange Channel="8" Control="7" Value="81"/>
  </Event>
  <Event>
    <Absolute>202416</Absolute>
    <ControlChange Channel="8" Control="7" Value="80"/>
  </Event>
  <Event>
    <Absolute>202480</Absolute>
    <ControlChange Channel="8" Control="7" Value="79"/>
  </Event>
  <Event>
    <Absolute>202528</Absolute>
    <ControlChange Channel="8" Control="7" Value="77"/>
  </Event>
  <Event>
    <Absolute>202592</Absolute>
    <ControlChange Channel="8" Control="7" Value="75"/>
  </Event>
  <Event>
    <Absolute>202672</Absolute>
    <ControlChange Channel="8" Control="7" Value="74"/>
  </Event>
  <Event>
    <Absolute>202720</Absolute>
    <ControlChange Channel="8" Control="7" Value="73"/>
  </Event>
  <Event>
    <Absolute>202772</Absolute>
    <ControlChange Channel="8" Control="7" Value="72"/>
  </Event>
  <Event>
    <Absolute>202788</Absolute>
    <ControlChange Channel="8" Control="7" Value="71"/>
  </Event>
  <Event>
    <Absolute>202944</Absolute>
    <ControlChange Channel="8" Control="7" Value="70"/>
  </Event>
  <Event>
    <Absolute>203008</Absolute>
    <ControlChange Channel="8" Control="7" Value="69"/>
  </Event>
  <Event>
    <Absolute>203040</Absolute>
    <ControlChange Channel="8" Control="7" Value="68"/>
  </Event>
  <Event>
    <Absolute>203188</Absolute>
    <ControlChange Channel="8" Control="7" Value="67"/>
  </Event>
  <Event>
    <Absolute>203232</Absolute>
    <ControlChange Channel="8" Control="7" Value="66"/>
  </Event>
  <Event>
    <Absolute>203280</Absolute>
    <ControlChange Channel="8" Control="7" Value="65"/>
  </Event>
  <Event>
    <Absolute>203408</Absolute>
    <ControlChange Channel="8" Control="7" Value="64"/>
  </Event>
  <Event>
    <Absolute>203504</Absolute>
    <ControlChange Channel="8" Control="7" Value="63"/>
  </Event>
  <Event>
    <Absolute>203536</Absolute>
    <ControlChange Channel="8" Control="7" Value="62"/>
  </Event>
  <Event>
    <Absolute>203624</Absolute>
    <ControlChange Channel="8" Control="7" Value="61"/>
  </Event>
  <Event>
    <Absolute>203720</Absolute>
    <ControlChange Channel="8" Control="7" Value="60"/>
  </Event>
  <Event>
    <Absolute>203752</Absolute>
    <ControlChange Channel="8" Control="7" Value="58"/>
  </Event>
  <Event>
    <Absolute>203920</Absolute>
    <ControlChange Channel="8" Control="7" Value="56"/>
  </Event>
  <Event>
    <Absolute>203984</Absolute>
    <ControlChange Channel="8" Control="7" Value="55"/>
  </Event>
  <Event>
    <Absolute>204032</Absolute>
    <ControlChange Channel="8" Control="7" Value="54"/>
  </Event>
  <Event>
    <Absolute>204112</Absolute>
    <ControlChange Channel="8" Control="7" Value="53"/>
  </Event>
  <Event>
    <Absolute>204192</Absolute>
    <ControlChange Channel="8" Control="7" Value="52"/>
  </Event>
  <Event>
    <Absolute>204324</Absolute>
    <ControlChange Channel="8" Control="7" Value="51"/>
  </Event>
  <Event>
    <Absolute>204368</Absolute>
    <ControlChange Channel="8" Control="7" Value="49"/>
  </Event>
  <Event>
    <Absolute>204480</Absolute>
    <ControlChange Channel="8" Control="7" Value="48"/>
  </Event>
  <Event>
    <Absolute>204544</Absolute>
    <ControlChange Channel="8" Control="7" Value="47"/>
  </Event>
  <Event>
    <Absolute>204560</Absolute>
    <ControlChange Channel="8" Control="7" Value="46"/>
  </Event>
  <Event>
    <Absolute>204672</Absolute>
    <ControlChange Channel="8" Control="7" Value="45"/>
  </Event>
  <Event>
    <Absolute>204712</Absolute>
    <ControlChange Channel="8" Control="7" Value="44"/>
  </Event>
  <Event>
    <Absolute>204736</Absolute>
    <ControlChange Channel="8" Control="7" Value="43"/>
  </Event>
  <Event>
    <Absolute>204816</Absolute>
    <ControlChange Channel="8" Control="7" Value="42"/>
  </Event>
  <Event>
    <Absolute>204896</Absolute>
    <ControlChange Channel="8" Control="7" Value="41"/>
  </Event>
  <Event>
    <Absolute>204928</Absolute>
    <ControlChange Channel="8" Control="7" Value="40"/>
  </Event>
  <Event>
    <Absolute>205024</Absolute>
    <ControlChange Channel="8" Control="7" Value="39"/>
  </Event>
  <Event>
    <Absolute>205056</Absolute>
    <ControlChange Channel="8" Control="7" Value="38"/>
  </Event>
  <Event>
    <Absolute>205080</Absolute>
    <ControlChange Channel="8" Control="7" Value="37"/>
  </Event>
  <Event>
    <Absolute>205264</Absolute>
    <ControlChange Channel="8" Control="7" Value="36"/>
  </Event>
  <Event>
    <Absolute>205328</Absolute>
    <ControlChange Channel="8" Control="7" Value="35"/>
  </Event>
  <Event>
    <Absolute>205424</Absolute>
    <ControlChange Channel="8" Control="7" Value="34"/>
  </Event>
  <Event>
    <Absolute>205456</Absolute>
    <ControlChange Channel="8" Control="7" Value="33"/>
  </Event>
  <Event>
    <Absolute>205488</Absolute>
    <ControlChange Channel="8" Control="7" Value="32"/>
  </Event>
  <Event>
    <Absolute>205536</Absolute>
    <ControlChange Channel="8" Control="7" Value="30"/>
  </Event>
  <Event>
    <Absolute>205648</Absolute>
    <ControlChange Channel="8" Control="7" Value="28"/>
  </Event>
  <Event>
    <Absolute>205728</Absolute>
    <ControlChange Channel="8" Control="7" Value="27"/>
  </Event>
  <Event>
    <Absolute>205904</Absolute>
    <ControlChange Channel="8" Control="7" Value="26"/>
  </Event>
  <Event>
    <Absolute>205920</Absolute>
    <ControlChange Channel="8" Control="7" Value="25"/>
  </Event>
  <Event>
    <Absolute>206032</Absolute>
    <ControlChange Channel="8" Control="7" Value="24"/>
  </Event>
  <Event>
    <Absolute>206112</Absolute>
    <ControlChange Channel="8" Control="7" Value="23"/>
  </Event>
  <Event>
    <Absolute>206228</Absolute>
    <ControlChange Channel="8" Control="7" Value="22"/>
  </Event>
  <Event>
    <Absolute>206288</Absolute>
    <ControlChange Channel="8" Control="7" Value="21"/>
  </Event>
  <Event>
    <Absolute>206528</Absolute>
    <ControlChange Channel="8" Control="7" Value="20"/>
  </Event>
  <Event>
    <Absolute>206624</Absolute>
    <ControlChange Channel="8" Control="7" Value="19"/>
  </Event>
  <Event>
    <Absolute>206640</Absolute>
    <ControlChange Channel="8" Control="7" Value="18"/>
  </Event>
  <Event>
    <Absolute>206792</Absolute>
    <ControlChange Channel="8" Control="7" Value="17"/>
  </Event>
  <Event>
    <Absolute>206848</Absolute>
    <ControlChange Channel="8" Control="7" Value="16"/>
  </Event>
  <Event>
    <Absolute>206880</Absolute>
    <ControlChange Channel="8" Control="7" Value="15"/>
  </Event>
  <Event>
    <Absolute>207088</Absolute>
    <ControlChange Channel="8" Control="7" Value="14"/>
  </Event>
  <Event>
    <Absolute>207360</Absolute>
    <ControlChange Channel="8" Control="7" Value="13"/>
  </Event>
  <Event>
    <Absolute>207392</Absolute>
    <ControlChange Channel="8" Control="7" Value="12"/>
  </Event>
  <Event>
    <Absolute>207696</Absolute>
    <ControlChange Channel="8" Control="7" Value="11"/>
  </Event>
  <Event>
    <Absolute>207808</Absolute>
    <ControlChange Channel="8" Control="7" Value="9"/>
  </Event>
  <Event>
    <Absolute>208128</Absolute>
    <ControlChange Channel="8" Control="7" Value="7"/>
  </Event>
  <Event>
    <Absolute>208224</Absolute>
    <ControlChange Channel="8" Control="7" Value="6"/>
  </Event>
  <Event>
    <Absolute>208720</Absolute>
    <ControlChange Channel="8" Control="7" Value="5"/>
  </Event>
  <Event>
    <Absolute>208912</Absolute>
    <ControlChange Channel="8" Control="7" Value="4"/>
  </Event>
  <Event>
    <Absolute>209120</Absolute>
    <ControlChange Channel="8" Control="7" Value="3"/>
  </Event>
  <Event>
    <Absolute>209120</Absolute>
    <EndOfTrack/>
  </Event>
</Track>
<Track Number="10">
  <Event>
    <Absolute>0</Absolute>
    <TrackName>Vocal 2</TrackName>
  </Event>
  <Event>
    <Absolute>0</Absolute>
    <ControlChange Channel="6" Control="0" Value="0"/>
  </Event>
  <Event>
    <Absolute>0</Absolute>
    <ProgramChange Channel="6" Number="53"/>
  </Event>
  <Event>
    <Absolute>0</Absolute>
    <ControlChange Channel="6" Control="7" Value="95"/>
  </Event>
  <Event>
    <Absolute>0</Absolute>
    <ControlChange Channel="6" Control="10" Value="47"/>
  </Event>
  <Event>
    <Absolute>0</Absolute>
    <ControlChange Channel="6" Control="91" Value="84"/>
  </Event>
  <Event>
    <Absolute>0</Absolute>
    <ControlChange Channel="6" Control="93" Value="84"/>
  </Event>
  <Event>
    <Absolute>0</Absolute>
    <KeySignature Fifths="0" Mode="0"/>
  </Event>
  <Event>
    <Absolute>0</Absolute>
    <ControlChange Channel="6" Control="7" Value="127"/>
  </Event>
  <Event>
    <Absolute>0</Absolute>
    <ControlChange Channel="6" Control="10" Value="40"/>
  </Event>
  <Event>
    <Absolute>32256</Absolute>
    <NoteOn Channel="6" Note="58" Velocity="126"/>
  </Event>
  <Event>
    <Absolute>32256</Absolute>
    <NoteOn Channel="6" Note="54" Velocity="126"/>
  </Event>
  <Event>
    <Absolute>32896</Absolute>
    <NoteOff Channel="6" Note="58" Velocity="0"/>
  </Event>
  <Event>
    <Absolute>32896</Absolute>
    <NoteOff Channel="6" Note="54" Velocity="0"/>
  </Event>
  <Event>
    <Absolute>33024</Absolute>
    <NoteOn Channel="6" Note="59" Velocity="126"/>
  </Event>
  <Event>
    <Absolute>33024</Absolute>
    <NoteOn Channel="6" Note="54" Velocity="126"/>
  </Event>
  <Event>
    <Absolute>33280</Absolute>
    <NoteOff Channel="6" Note="59" Velocity="0"/>
  </Event>
  <Event>
    <Absolute>33280</Absolute>
    <NoteOff Channel="6" Note="54" Velocity="0"/>
  </Event>
  <Event>
    <Absolute>33408</Absolute>
    <NoteOn Channel="6" Note="54" Velocity="126"/>
  </Event>
  <Event>
    <Absolute>33408</Absolute>
    <NoteOn Channel="6" Note="59" Velocity="126"/>
  </Event>
  <Event>
    <Absolute>33664</Absolute>
    <NoteOff Channel="6" Note="54" Velocity="0"/>
  </Event>
  <Event>
    <Absolute>33664</Absolute>
    <NoteOff Channel="6" Note="59" Velocity="0"/>
  </Event>
  <Event>
    <Absolute>34432</Absolute>
    <NoteOn Channel="6" Note="58" Velocity="126"/>
  </Event>
  <Event>
    <Absolute>34432</Absolute>
    <NoteOn Channel="6" Note="61" Velocity="126"/>
  </Event>
  <Event>
    <Absolute>34560</Absolute>
    <NoteOff Channel="6" Note="61" Velocity="0"/>
  </Event>
  <Event>
    <Absolute>34688</Absolute>
    <NoteOff Channel="6" Note="58" Velocity="0"/>
  </Event>
  <Event>
    <Absolute>34816</Absolute>
    <NoteOn Channel="6" Note="54" Velocity="126"/>
  </Event>
  <Event>
    <Absolute>34816</Absolute>
    <NoteOn Channel="6" Note="59" Velocity="126"/>
  </Event>
  <Event>
    <Absolute>35072</Absolute>
    <NoteOff Channel="6" Note="54" Velocity="0"/>
  </Event>
  <Event>
    <Absolute>35072</Absolute>
    <NoteOff Channel="6" Note="59" Velocity="0"/>
  </Event>
  <Event>
    <Absolute>35200</Absolute>
    <NoteOn Channel="6" Note="54" Velocity="126"/>
  </Event>
  <Event>
    <Absolute>35200</Absolute>
    <NoteOn Channel="6" Note="58" Velocity="126"/>
  </Event>
  <Event>
    <Absolute>35584</Absolute>
    <NoteOff Channel="6" Note="54" Velocity="0"/>
  </Event>
  <Event>
    <Absolute>35584</Absolute>
    <NoteOff Channel="6" Note="58" Velocity="0"/>
  </Event>
  <Event>
    <Absolute>35712</Absolute>
    <NoteOn Channel="6" Note="54" Velocity="126"/>
  </Event>
  <Event>
    <Absolute>35712</Absolute>
    <NoteOn Channel="6" Note="58" Velocity="126"/>
  </Event>
  <Event>
    <Absolute>35968</Absolute>
    <NoteOff Channel="6" Note="54" Velocity="0"/>
  </Event>
  <Event>
    <Absolute>35968</Absolute>
    <NoteOff Channel="6" Note="58" Velocity="0"/>
  </Event>
  <Event>
    <Absolute>36096</Absolute>
    <NoteOn Channel="6" Note="54" Velocity="126"/>
  </Event>
  <Event>
    <Absolute>36096</Absolute>
    <NoteOn Channel="6" Note="59" Velocity="126"/>
  </Event>
  <Event>
    <Absolute>36352</Absolute>
    <NoteOff Channel="6" Note="54" Velocity="0"/>
  </Event>
  <Event>
    <Absolute>36352</Absolute>
    <NoteOff Channel="6" Note="59" Velocity="0"/>
  </Event>
  <Event>
    <Absolute>36480</Absolute>
    <NoteOn Channel="6" Note="54" Velocity="126"/>
  </Event>
  <Event>
    <Absolute>36480</Absolute>
    <NoteOn Channel="6" Note="59" Velocity="126"/>
  </Event>
  <Event>
    <Absolute>36736</Absolute>
    <NoteOff Channel="6" Note="54" Velocity="0"/>
  </Event>
  <Event>
    <Absolute>36736</Absolute>
    <NoteOff Channel="6" Note="59" Velocity="0"/>
  </Event>
  <Event>
    <Absolute>37504</Absolute>
    <NoteOn Channel="6" Note="61" Velocity="126"/>
  </Event>
  <Event>
    <Absolute>37504</Absolute>
    <NoteOn Channel="6" Note="58" Velocity="126"/>
  </Event>
  <Event>
    <Absolute>37632</Absolute>
    <NoteOff Channel="6" Note="58" Velocity="0"/>
  </Event>
  <Event>
    <Absolute>37760</Absolute>
    <NoteOff Channel="6" Note="61" Velocity="0"/>
  </Event>
  <Event>
    <Absolute>37888</Absolute>
    <NoteOn Channel="6" Note="54" Velocity="126"/>
  </Event>
  <Event>
    <Absolute>37888</Absolute>
    <NoteOn Channel="6" Note="59" Velocity="126"/>
  </Event>
  <Event>
    <Absolute>38144</Absolute>
    <NoteOff Channel="6" Note="54" Velocity="0"/>
  </Event>
  <Event>
    <Absolute>38144</Absolute>
    <NoteOff Channel="6" Note="59" Velocity="0"/>
  </Event>
  <Event>
    <Absolute>38400</Absolute>
    <NoteOn Channel="6" Note="56" Velocity="126"/>
  </Event>
  <Event>
    <Absolute>38400</Absolute>
    <NoteOn Channel="6" Note="60" Velocity="126"/>
  </Event>
  <Event>
    <Absolute>39040</Absolute>
    <NoteOff Channel="6" Note="56" Velocity="0"/>
  </Event>
  <Event>
    <Absolute>39168</Absolute>
    <NoteOff Channel="6" Note="60" Velocity="0"/>
  </Event>
  <Event>
    <Absolute>39168</Absolute>
    <NoteOn Channel="6" Note="61" Velocity="126"/>
  </Event>
  <Event>
    <Absolute>39168</Absolute>
    <NoteOn Channel="6" Note="56" Velocity="126"/>
  </Event>
  <Event>
    <Absolute>39424</Absolute>
    <NoteOff Channel="6" Note="61" Velocity="0"/>
  </Event>
  <Event>
    <Absolute>39424</Absolute>
    <NoteOff Channel="6" Note="56" Velocity="0"/>
  </Event>
  <Event>
    <Absolute>39552</Absolute>
    <NoteOn Channel="6" Note="56" Velocity="126"/>
  </Event>
  <Event>
    <Absolute>39552</Absolute>
    <NoteOn Channel="6" Note="61" Velocity="126"/>
  </Event>
  <Event>
    <Absolute>39808</Absolute>
    <NoteOff Channel="6" Note="56" Velocity="0"/>
  </Event>
  <Event>
    <Absolute>39808</Absolute>
    <NoteOff Channel="6" Note="61" Velocity="0"/>
  </Event>
  <Event>
    <Absolute>40576</Absolute>
    <NoteOn Channel="6" Note="63" Velocity="126"/>
  </Event>
  <Event>
    <Absolute>40576</Absolute>
    <NoteOn Channel="6" Note="60" Velocity="126"/>
  </Event>
  <Event>
    <Absolute>40704</Absolute>
    <NoteOff Channel="6" Note="60" Velocity="0"/>
  </Event>
  <Event>
    <Absolute>40832</Absolute>
    <NoteOff Channel="6" Note="63" Velocity="0"/>
  </Event>
  <Event>
    <Absolute>40960</Absolute>
    <NoteOn Channel="6" Note="61" Velocity="126"/>
  </Event>
  <Event>
    <Absolute>40960</Absolute>
    <NoteOn Channel="6" Note="58" Velocity="126"/>
  </Event>
  <Event>
    <Absolute>41472</Absolute>
    <NoteOff Channel="6" Note="61" Velocity="0"/>
  </Event>
  <Event>
    <Absolute>41472</Absolute>
    <NoteOff Channel="6" Note="58" Velocity="0"/>
  </Event>
  <Event>
    <Absolute>41472</Absolute>
    <NoteOn Channel="6" Note="56" Velocity="126"/>
  </Event>
  <Event>
    <Absolute>41472</Absolute>
    <NoteOn Channel="6" Note="60" Velocity="126"/>
  </Event>
  <Event>
    <Absolute>41728</Absolute>
    <NoteOff Channel="6" Note="56" Velocity="0"/>
  </Event>
  <Event>
    <Absolute>41728</Absolute>
    <NoteOff Channel="6" Note="60" Velocity="0"/>
  </Event>
  <Event>
    <Absolute>41856</Absolute>
    <NoteOn Channel="6" Note="56" Velocity="126"/>
  </Event>
  <Event>
    <Absolute>41856</Absolute>
    <NoteOn Channel="6" Note="60" Velocity="126"/>
  </Event>
  <Event>
    <Absolute>42112</Absolute>
    <NoteOff Channel="6" Note="56" Velocity="0"/>
  </Event>
  <Event>
    <Absolute>42112</Absolute>
    <NoteOff Channel="6" Note="60" Velocity="0"/>
  </Event>
  <Event>
    <Absolute>42240</Absolute>
    <NoteOn Channel="6" Note="61" Velocity="126"/>
  </Event>
  <Event>
    <Absolute>42240</Absolute>
    <NoteOn Channel="6" Note="56" Velocity="126"/>
  </Event>
  <Event>
    <Absolute>42496</Absolute>
    <NoteOff Channel="6" Note="61" Velocity="0"/>
  </Event>
  <Event>
    <Absolute>42496</Absolute>
    <NoteOff Channel="6" Note="56" Velocity="0"/>
  </Event>
  <Event>
    <Absolute>42624</Absolute>
    <NoteOn Channel="6" Note="56" Velocity="126"/>
  </Event>
  <Event>
    <Absolute>42624</Absolute>
    <NoteOn Channel="6" Note="61" Velocity="126"/>
  </Event>
  <Event>
    <Absolute>42880</Absolute>
    <NoteOff Channel="6" Note="56" Velocity="0"/>
  </Event>
  <Event>
    <Absolute>42880</Absolute>
    <NoteOff Channel="6" Note="61" Velocity="0"/>
  </Event>
  <Event>
    <Absolute>43648</Absolute>
    <NoteOn Channel="6" Note="60" Velocity="126"/>
  </Event>
  <Event>
    <Absolute>43648</Absolute>
    <NoteOn Channel="6" Note="63" Velocity="126"/>
  </Event>
  <Event>
    <Absolute>43904</Absolute>
    <NoteOff Channel="6" Note="60" Velocity="0"/>
  </Event>
  <Event>
    <Absolute>43904</Absolute>
    <NoteOff Channel="6" Note="63" Velocity="0"/>
  </Event>
  <Event>
    <Absolute>44032</Absolute>
    <NoteOn Channel="6" Note="58" Velocity="126"/>
  </Event>
  <Event>
    <Absolute>44032</Absolute>
    <NoteOn Channel="6" Note="61" Velocity="126"/>
  </Event>
  <Event>
    <Absolute>44288</Absolute>
    <NoteOff Channel="6" Note="58" Velocity="0"/>
  </Event>
  <Event>
    <Absolute>44288</Absolute>
    <NoteOff Channel="6" Note="61" Velocity="0"/>
  </Event>
  <Event>
    <Absolute>44544</Absolute>
    <NoteOn Channel="6" Note="58" Velocity="126"/>
  </Event>
  <Event>
    <Absolute>44544</Absolute>
    <NoteOn Channel="6" Note="62" Velocity="126"/>
  </Event>
  <Event>
    <Absolute>45184</Absolute>
    <NoteOff Channel="6" Note="58" Velocity="0"/>
  </Event>
  <Event>
    <Absolute>45184</Absolute>
    <NoteOff Channel="6" Note="62" Velocity="0"/>
  </Event>
  <Event>
    <Absolute>45312</Absolute>
    <NoteOn Channel="6" Note="63" Velocity="126"/>
  </Event>
  <Event>
    <Absolute>45312</Absolute>
    <NoteOn Channel="6" Note="58" Velocity="126"/>
  </Event>
  <Event>
    <Absolute>45568</Absolute>
    <NoteOff Channel="6" Note="63" Velocity="0"/>
  </Event>
  <Event>
    <Absolute>45568</Absolute>
    <NoteOff Channel="6" Note="58" Velocity="0"/>
  </Event>
  <Event>
    <Absolute>45696</Absolute>
    <NoteOn Channel="6" Note="58" Velocity="126"/>
  </Event>
  <Event>
    <Absolute>45696</Absolute>
    <NoteOn Channel="6" Note="63" Velocity="126"/>
  </Event>
  <Event>
    <Absolute>45952</Absolute>
    <NoteOff Channel="6" Note="58" Velocity="0"/>
  </Event>
  <Event>
    <Absolute>45952</Absolute>
    <NoteOff Channel="6" Note="63" Velocity="0"/>
  </Event>
  <Event>
    <Absolute>46720</Absolute>
    <NoteOn Channel="6" Note="65" Velocity="126"/>
  </Event>
  <Event>
    <Absolute>46720</Absolute>
    <NoteOn Channel="6" Note="62" Velocity="126"/>
  </Event>
  <Event>
    <Absolute>46976</Absolute>
    <NoteOff Channel="6" Note="65" Velocity="0"/>
  </Event>
  <Event>
    <Absolute>46976</Absolute>
    <NoteOff Channel="6" Note="62" Velocity="0"/>
  </Event>
  <Event>
    <Absolute>47104</Absolute>
    <NoteOn Channel="6" Note="63" Velocity="126"/>
  </Event>
  <Event>
    <Absolute>47104</Absolute>
    <NoteOn Channel="6" Note="60" Velocity="126"/>
  </Event>
  <Event>
    <Absolute>47616</Absolute>
    <NoteOff Channel="6" Note="63" Velocity="0"/>
  </Event>
  <Event>
    <Absolute>47616</Absolute>
    <NoteOff Channel="6" Note="60" Velocity="0"/>
  </Event>
  <Event>
    <Absolute>47616</Absolute>
    <NoteOn Channel="6" Note="58" Velocity="126"/>
  </Event>
  <Event>
    <Absolute>47616</Absolute>
    <NoteOn Channel="6" Note="62" Velocity="126"/>
  </Event>
  <Event>
    <Absolute>47872</Absolute>
    <NoteOff Channel="6" Note="58" Velocity="0"/>
  </Event>
  <Event>
    <Absolute>47872</Absolute>
    <NoteOff Channel="6" Note="62" Velocity="0"/>
  </Event>
  <Event>
    <Absolute>48000</Absolute>
    <NoteOn Channel="6" Note="58" Velocity="126"/>
  </Event>
  <Event>
    <Absolute>48000</Absolute>
    <NoteOn Channel="6" Note="62" Velocity="126"/>
  </Event>
  <Event>
    <Absolute>48256</Absolute>
    <NoteOff Channel="6" Note="58" Velocity="0"/>
  </Event>
  <Event>
    <Absolute>48256</Absolute>
    <NoteOff Channel="6" Note="62" Velocity="0"/>
  </Event>
  <Event>
    <Absolute>48384</Absolute>
    <NoteOn Channel="6" Note="63" Velocity="126"/>
  </Event>
  <Event>
    <Absolute>48384</Absolute>
    <NoteOn Channel="6" Note="58" Velocity="126"/>
  </Event>
  <Event>
    <Absolute>48640</Absolute>
    <NoteOff Channel="6" Note="63" Velocity="0"/>
  </Event>
  <Event>
    <Absolute>48640</Absolute>
    <NoteOff Channel="6" Note="58" Velocity="0"/>
  </Event>
  <Event>
    <Absolute>48768</Absolute>
    <NoteOn Channel="6" Note="58" Velocity="126"/>
  </Event>
  <Event>
    <Absolute>48768</Absolute>
    <NoteOn Channel="6" Note="63" Velocity="126"/>
  </Event>
  <Event>
    <Absolute>49024</Absolute>
    <NoteOff Channel="6" Note="58" Velocity="0"/>
  </Event>
  <Event>
    <Absolute>49024</Absolute>
    <NoteOff Channel="6" Note="63" Velocity="0"/>
  </Event>
  <Event>
    <Absolute>49792</Absolute>
    <NoteOn Channel="6" Note="62" Velocity="126"/>
  </Event>
  <Event>
    <Absolute>49792</Absolute>
    <NoteOn Channel="6" Note="65" Velocity="126"/>
  </Event>
  <Event>
    <Absolute>49920</Absolute>
    <NoteOff Channel="6" Note="62" Velocity="0"/>
  </Event>
  <Event>
    <Absolute>49920</Absolute>
    <NoteOff Channel="6" Note="65" Velocity="0"/>
  </Event>
  <Event>
    <Absolute>50176</Absolute>
    <NoteOn Channel="6" Note="60" Velocity="126"/>
  </Event>
  <Event>
    <Absolute>50176</Absolute>
    <NoteOn Channel="6" Note="63" Velocity="126"/>
  </Event>
  <Event>
    <Absolute>50688</Absolute>
    <NoteOff Channel="6" Note="60" Velocity="0"/>
  </Event>
  <Event>
    <Absolute>50688</Absolute>
    <NoteOff Channel="6" Note="63" Velocity="0"/>
  </Event>
  <Event>
    <Absolute>81408</Absolute>
    <NoteOn Channel="6" Note="58" Velocity="126"/>
  </Event>
  <Event>
    <Absolute>81408</Absolute>
    <NoteOn Channel="6" Note="54" Velocity="126"/>
  </Event>
  <Event>
    <Absolute>82048</Absolute>
    <NoteOff Channel="6" Note="58" Velocity="0"/>
  </Event>
  <Event>
    <Absolute>82048</Absolute>
    <NoteOff Channel="6" Note="54" Velocity="0"/>
  </Event>
  <Event>
    <Absolute>82176</Absolute>
    <NoteOn Channel="6" Note="59" Velocity="126"/>
  </Event>
  <Event>
    <Absolute>82176</Absolute>
    <NoteOn Channel="6" Note="54" Velocity="126"/>
  </Event>
  <Event>
    <Absolute>82432</Absolute>
    <NoteOff Channel="6" Note="59" Velocity="0"/>
  </Event>
  <Event>
    <Absolute>82432</Absolute>
    <NoteOff Channel="6" Note="54" Velocity="0"/>
  </Event>
  <Event>
    <Absolute>82560</Absolute>
    <NoteOn Channel="6" Note="54" Velocity="126"/>
  </Event>
  <Event>
    <Absolute>82560</Absolute>
    <NoteOn Channel="6" Note="59" Velocity="126"/>
  </Event>
  <Event>
    <Absolute>82816</Absolute>
    <NoteOff Channel="6" Note="54" Velocity="0"/>
  </Event>
  <Event>
    <Absolute>82816</Absolute>
    <NoteOff Channel="6" Note="59" Velocity="0"/>
  </Event>
  <Event>
    <Absolute>83584</Absolute>
    <NoteOn Channel="6" Note="58" Velocity="126"/>
  </Event>
  <Event>
    <Absolute>83584</Absolute>
    <NoteOn Channel="6" Note="61" Velocity="126"/>
  </Event>
  <Event>
    <Absolute>83712</Absolute>
    <NoteOff Channel="6" Note="61" Velocity="0"/>
  </Event>
  <Event>
    <Absolute>83840</Absolute>
    <NoteOff Channel="6" Note="58" Velocity="0"/>
  </Event>
  <Event>
    <Absolute>83968</Absolute>
    <NoteOn Channel="6" Note="54" Velocity="126"/>
  </Event>
  <Event>
    <Absolute>83968</Absolute>
    <NoteOn Channel="6" Note="59" Velocity="126"/>
  </Event>
  <Event>
    <Absolute>84224</Absolute>
    <NoteOff Channel="6" Note="54" Velocity="0"/>
  </Event>
  <Event>
    <Absolute>84224</Absolute>
    <NoteOff Channel="6" Note="59" Velocity="0"/>
  </Event>
  <Event>
    <Absolute>84352</Absolute>
    <NoteOn Channel="6" Note="54" Velocity="126"/>
  </Event>
  <Event>
    <Absolute>84352</Absolute>
    <NoteOn Channel="6" Note="58" Velocity="126"/>
  </Event>
  <Event>
    <Absolute>84736</Absolute>
    <NoteOff Channel="6" Note="54" Velocity="0"/>
  </Event>
  <Event>
    <Absolute>84736</Absolute>
    <NoteOff Channel="6" Note="58" Velocity="0"/>
  </Event>
  <Event>
    <Absolute>84864</Absolute>
    <NoteOn Channel="6" Note="54" Velocity="126"/>
  </Event>
  <Event>
    <Absolute>84864</Absolute>
    <NoteOn Channel="6" Note="58" Velocity="126"/>
  </Event>
  <Event>
    <Absolute>85120</Absolute>
    <NoteOff Channel="6" Note="54" Velocity="0"/>
  </Event>
  <Event>
    <Absolute>85120</Absolute>
    <NoteOff Channel="6" Note="58" Velocity="0"/>
  </Event>
  <Event>
    <Absolute>85248</Absolute>
    <NoteOn Channel="6" Note="54" Velocity="126"/>
  </Event>
  <Event>
    <Absolute>85248</Absolute>
    <NoteOn Channel="6" Note="59" Velocity="126"/>
  </Event>
  <Event>
    <Absolute>85504</Absolute>
    <NoteOff Channel="6" Note="54" Velocity="0"/>
  </Event>
  <Event>
    <Absolute>85504</Absolute>
    <NoteOff Channel="6" Note="59" Velocity="0"/>
  </Event>
  <Event>
    <Absolute>85632</Absolute>
    <NoteOn Channel="6" Note="54" Velocity="126"/>
  </Event>
  <Event>
    <Absolute>85632</Absolute>
    <NoteOn Channel="6" Note="59" Velocity="126"/>
  </Event>
  <Event>
    <Absolute>85888</Absolute>
    <NoteOff Channel="6" Note="54" Velocity="0"/>
  </Event>
  <Event>
    <Absolute>85888</Absolute>
    <NoteOff Channel="6" Note="59" Velocity="0"/>
  </Event>
  <Event>
    <Absolute>86656</Absolute>
    <NoteOn Channel="6" Note="61" Velocity="126"/>
  </Event>
  <Event>
    <Absolute>86656</Absolute>
    <NoteOn Channel="6" Note="58" Velocity="126"/>
  </Event>
  <Event>
    <Absolute>86784</Absolute>
    <NoteOff Channel="6" Note="58" Velocity="0"/>
  </Event>
  <Event>
    <Absolute>86912</Absolute>
    <NoteOff Channel="6" Note="61" Velocity="0"/>
  </Event>
  <Event>
    <Absolute>87040</Absolute>
    <NoteOn Channel="6" Note="54" Velocity="126"/>
  </Event>
  <Event>
    <Absolute>87040</Absolute>
    <NoteOn Channel="6" Note="59" Velocity="126"/>
  </Event>
  <Event>
    <Absolute>87296</Absolute>
    <NoteOff Channel="6" Note="54" Velocity="0"/>
  </Event>
  <Event>
    <Absolute>87296</Absolute>
    <NoteOff Channel="6" Note="59" Velocity="0"/>
  </Event>
  <Event>
    <Absolute>87552</Absolute>
    <NoteOn Channel="6" Note="56" Velocity="126"/>
  </Event>
  <Event>
    <Absolute>87552</Absolute>
    <NoteOn Channel="6" Note="60" Velocity="126"/>
  </Event>
  <Event>
    <Absolute>88192</Absolute>
    <NoteOff Channel="6" Note="56" Velocity="0"/>
  </Event>
  <Event>
    <Absolute>88320</Absolute>
    <NoteOff Channel="6" Note="60" Velocity="0"/>
  </Event>
  <Event>
    <Absolute>88320</Absolute>
    <NoteOn Channel="6" Note="61" Velocity="126"/>
  </Event>
  <Event>
    <Absolute>88320</Absolute>
    <NoteOn Channel="6" Note="56" Velocity="126"/>
  </Event>
  <Event>
    <Absolute>88576</Absolute>
    <NoteOff Channel="6" Note="61" Velocity="0"/>
  </Event>
  <Event>
    <Absolute>88576</Absolute>
    <NoteOff Channel="6" Note="56" Velocity="0"/>
  </Event>
  <Event>
    <Absolute>88704</Absolute>
    <NoteOn Channel="6" Note="56" Velocity="126"/>
  </Event>
  <Event>
    <Absolute>88704</Absolute>
    <NoteOn Channel="6" Note="61" Velocity="126"/>
  </Event>
  <Event>
    <Absolute>88960</Absolute>
    <NoteOff Channel="6" Note="56" Velocity="0"/>
  </Event>
  <Event>
    <Absolute>88960</Absolute>
    <NoteOff Channel="6" Note="61" Velocity="0"/>
  </Event>
  <Event>
    <Absolute>89728</Absolute>
    <NoteOn Channel="6" Note="63" Velocity="126"/>
  </Event>
  <Event>
    <Absolute>89728</Absolute>
    <NoteOn Channel="6" Note="60" Velocity="126"/>
  </Event>
  <Event>
    <Absolute>89856</Absolute>
    <NoteOff Channel="6" Note="60" Velocity="0"/>
  </Event>
  <Event>
    <Absolute>89984</Absolute>
    <NoteOff Channel="6" Note="63" Velocity="0"/>
  </Event>
  <Event>
    <Absolute>90112</Absolute>
    <NoteOn Channel="6" Note="61" Velocity="126"/>
  </Event>
  <Event>
    <Absolute>90112</Absolute>
    <NoteOn Channel="6" Note="58" Velocity="126"/>
  </Event>
  <Event>
    <Absolute>90624</Absolute>
    <NoteOff Channel="6" Note="61" Velocity="0"/>
  </Event>
  <Event>
    <Absolute>90624</Absolute>
    <NoteOff Channel="6" Note="58" Velocity="0"/>
  </Event>
  <Event>
    <Absolute>90624</Absolute>
    <NoteOn Channel="6" Note="56" Velocity="126"/>
  </Event>
  <Event>
    <Absolute>90624</Absolute>
    <NoteOn Channel="6" Note="60" Velocity="126"/>
  </Event>
  <Event>
    <Absolute>90880</Absolute>
    <NoteOff Channel="6" Note="56" Velocity="0"/>
  </Event>
  <Event>
    <Absolute>90880</Absolute>
    <NoteOff Channel="6" Note="60" Velocity="0"/>
  </Event>
  <Event>
    <Absolute>91008</Absolute>
    <NoteOn Channel="6" Note="56" Velocity="126"/>
  </Event>
  <Event>
    <Absolute>91008</Absolute>
    <NoteOn Channel="6" Note="60" Velocity="126"/>
  </Event>
  <Event>
    <Absolute>91264</Absolute>
    <NoteOff Channel="6" Note="56" Velocity="0"/>
  </Event>
  <Event>
    <Absolute>91264</Absolute>
    <NoteOff Channel="6" Note="60" Velocity="0"/>
  </Event>
  <Event>
    <Absolute>91392</Absolute>
    <NoteOn Channel="6" Note="61" Velocity="126"/>
  </Event>
  <Event>
    <Absolute>91392</Absolute>
    <NoteOn Channel="6" Note="56" Velocity="126"/>
  </Event>
  <Event>
    <Absolute>91648</Absolute>
    <NoteOff Channel="6" Note="61" Velocity="0"/>
  </Event>
  <Event>
    <Absolute>91648</Absolute>
    <NoteOff Channel="6" Note="56" Velocity="0"/>
  </Event>
  <Event>
    <Absolute>91776</Absolute>
    <NoteOn Channel="6" Note="56" Velocity="126"/>
  </Event>
  <Event>
    <Absolute>91776</Absolute>
    <NoteOn Channel="6" Note="61" Velocity="126"/>
  </Event>
  <Event>
    <Absolute>92032</Absolute>
    <NoteOff Channel="6" Note="56" Velocity="0"/>
  </Event>
  <Event>
    <Absolute>92032</Absolute>
    <NoteOff Channel="6" Note="61" Velocity="0"/>
  </Event>
  <Event>
    <Absolute>92800</Absolute>
    <NoteOn Channel="6" Note="60" Velocity="126"/>
  </Event>
  <Event>
    <Absolute>92800</Absolute>
    <NoteOn Channel="6" Note="63" Velocity="126"/>
  </Event>
  <Event>
    <Absolute>93056</Absolute>
    <NoteOff Channel="6" Note="60" Velocity="0"/>
  </Event>
  <Event>
    <Absolute>93056</Absolute>
    <NoteOff Channel="6" Note="63" Velocity="0"/>
  </Event>
  <Event>
    <Absolute>93184</Absolute>
    <NoteOn Channel="6" Note="58" Velocity="126"/>
  </Event>
  <Event>
    <Absolute>93184</Absolute>
    <NoteOn Channel="6" Note="61" Velocity="126"/>
  </Event>
  <Event>
    <Absolute>93440</Absolute>
    <NoteOff Channel="6" Note="58" Velocity="0"/>
  </Event>
  <Event>
    <Absolute>93440</Absolute>
    <NoteOff Channel="6" Note="61" Velocity="0"/>
  </Event>
  <Event>
    <Absolute>93696</Absolute>
    <NoteOn Channel="6" Note="58" Velocity="126"/>
  </Event>
  <Event>
    <Absolute>93696</Absolute>
    <NoteOn Channel="6" Note="62" Velocity="126"/>
  </Event>
  <Event>
    <Absolute>94336</Absolute>
    <NoteOff Channel="6" Note="58" Velocity="0"/>
  </Event>
  <Event>
    <Absolute>94336</Absolute>
    <NoteOff Channel="6" Note="62" Velocity="0"/>
  </Event>
  <Event>
    <Absolute>94464</Absolute>
    <NoteOn Channel="6" Note="63" Velocity="126"/>
  </Event>
  <Event>
    <Absolute>94464</Absolute>
    <NoteOn Channel="6" Note="58" Velocity="126"/>
  </Event>
  <Event>
    <Absolute>94720</Absolute>
    <NoteOff Channel="6" Note="63" Velocity="0"/>
  </Event>
  <Event>
    <Absolute>94720</Absolute>
    <NoteOff Channel="6" Note="58" Velocity="0"/>
  </Event>
  <Event>
    <Absolute>94848</Absolute>
    <NoteOn Channel="6" Note="58" Velocity="126"/>
  </Event>
  <Event>
    <Absolute>94848</Absolute>
    <NoteOn Channel="6" Note="63" Velocity="126"/>
  </Event>
  <Event>
    <Absolute>95104</Absolute>
    <NoteOff Channel="6" Note="58" Velocity="0"/>
  </Event>
  <Event>
    <Absolute>95104</Absolute>
    <NoteOff Channel="6" Note="63" Velocity="0"/>
  </Event>
  <Event>
    <Absolute>95872</Absolute>
    <NoteOn Channel="6" Note="65" Velocity="126"/>
  </Event>
  <Event>
    <Absolute>95872</Absolute>
    <NoteOn Channel="6" Note="62" Velocity="126"/>
  </Event>
  <Event>
    <Absolute>96128</Absolute>
    <NoteOff Channel="6" Note="65" Velocity="0"/>
  </Event>
  <Event>
    <Absolute>96128</Absolute>
    <NoteOff Channel="6" Note="62" Velocity="0"/>
  </Event>
  <Event>
    <Absolute>96256</Absolute>
    <NoteOn Channel="6" Note="63" Velocity="126"/>
  </Event>
  <Event>
    <Absolute>96256</Absolute>
    <NoteOn Channel="6" Note="60" Velocity="126"/>
  </Event>
  <Event>
    <Absolute>96768</Absolute>
    <NoteOff Channel="6" Note="63" Velocity="0"/>
  </Event>
  <Event>
    <Absolute>96768</Absolute>
    <NoteOff Channel="6" Note="60" Velocity="0"/>
  </Event>
  <Event>
    <Absolute>96768</Absolute>
    <NoteOn Channel="6" Note="58" Velocity="126"/>
  </Event>
  <Event>
    <Absolute>96768</Absolute>
    <NoteOn Channel="6" Note="62" Velocity="126"/>
  </Event>
  <Event>
    <Absolute>97024</Absolute>
    <NoteOff Channel="6" Note="58" Velocity="0"/>
  </Event>
  <Event>
    <Absolute>97024</Absolute>
    <NoteOff Channel="6" Note="62" Velocity="0"/>
  </Event>
  <Event>
    <Absolute>97152</Absolute>
    <NoteOn Channel="6" Note="58" Velocity="126"/>
  </Event>
  <Event>
    <Absolute>97152</Absolute>
    <NoteOn Channel="6" Note="62" Velocity="126"/>
  </Event>
  <Event>
    <Absolute>97408</Absolute>
    <NoteOff Channel="6" Note="58" Velocity="0"/>
  </Event>
  <Event>
    <Absolute>97408</Absolute>
    <NoteOff Channel="6" Note="62" Velocity="0"/>
  </Event>
  <Event>
    <Absolute>97536</Absolute>
    <NoteOn Channel="6" Note="63" Velocity="126"/>
  </Event>
  <Event>
    <Absolute>97536</Absolute>
    <NoteOn Channel="6" Note="58" Velocity="126"/>
  </Event>
  <Event>
    <Absolute>97792</Absolute>
    <NoteOff Channel="6" Note="63" Velocity="0"/>
  </Event>
  <Event>
    <Absolute>97792</Absolute>
    <NoteOff Channel="6" Note="58" Velocity="0"/>
  </Event>
  <Event>
    <Absolute>97920</Absolute>
    <NoteOn Channel="6" Note="58" Velocity="126"/>
  </Event>
  <Event>
    <Absolute>97920</Absolute>
    <NoteOn Channel="6" Note="63" Velocity="126"/>
  </Event>
  <Event>
    <Absolute>98176</Absolute>
    <NoteOff Channel="6" Note="58" Velocity="0"/>
  </Event>
  <Event>
    <Absolute>98176</Absolute>
    <NoteOff Channel="6" Note="63" Velocity="0"/>
  </Event>
  <Event>
    <Absolute>98944</Absolute>
    <NoteOn Channel="6" Note="62" Velocity="126"/>
  </Event>
  <Event>
    <Absolute>98944</Absolute>
    <NoteOn Channel="6" Note="65" Velocity="126"/>
  </Event>
  <Event>
    <Absolute>99072</Absolute>
    <NoteOff Channel="6" Note="62" Velocity="0"/>
  </Event>
  <Event>
    <Absolute>99072</Absolute>
    <NoteOff Channel="6" Note="65" Velocity="0"/>
  </Event>
  <Event>
    <Absolute>99328</Absolute>
    <NoteOn Channel="6" Note="60" Velocity="126"/>
  </Event>
  <Event>
    <Absolute>99328</Absolute>
    <NoteOn Channel="6" Note="63" Velocity="126"/>
  </Event>
  <Event>
    <Absolute>99840</Absolute>
    <NoteOff Channel="6" Note="60" Velocity="0"/>
  </Event>
  <Event>
    <Absolute>99840</Absolute>
    <NoteOff Channel="6" Note="63" Velocity="0"/>
  </Event>
  <Event>
    <Absolute>100608</Absolute>
    <NoteOn Channel="6" Note="56" Velocity="127"/>
  </Event>
  <Event>
    <Absolute>100608</Absolute>
    <NoteOn Channel="6" Note="60" Velocity="127"/>
  </Event>
  <Event>
    <Absolute>100704</Absolute>
    <ControlChange Channel="6" Control="91" Value="125"/>
  </Event>
  <Event>
    <Absolute>100900</Absolute>
    <NoteOff Channel="6" Note="60" Velocity="0"/>
  </Event>
  <Event>
    <Absolute>100936</Absolute>
    <NoteOff Channel="6" Note="56" Velocity="0"/>
  </Event>
  <Event>
    <Absolute>101024</Absolute>
    <NoteOn Channel="6" Note="62" Velocity="127"/>
  </Event>
  <Event>
    <Absolute>101028</Absolute>
    <NoteOn Channel="6" Note="58" Velocity="127"/>
  </Event>
  <Event>
    <Absolute>103672</Absolute>
    <NoteOff Channel="6" Note="62" Velocity="0"/>
  </Event>
  <Event>
    <Absolute>103692</Absolute>
    <NoteOff Channel="6" Note="58" Velocity="0"/>
  </Event>
  <Event>
    <Absolute>115200</Absolute>
    <PitchBendChange Channel="6" Value="5724"/>
  </Event>
  <Event>
    <Absolute>115200</Absolute>
    <NoteOn Channel="6" Note="68" Velocity="92"/>
  </Event>
  <Event>
    <Absolute>115200</Absolute>
    <NoteOn Channel="6" Note="56" Velocity="67"/>
  </Event>
  <Event>
    <Absolute>115264</Absolute>
    <PitchBendChange Channel="6" Value="6492"/>
  </Event>
  <Event>
    <Absolute>115280</Absolute>
    <PitchBendChange Channel="6" Value="7388"/>
  </Event>
  <Event>
    <Absolute>115296</Absolute>
    <PitchBendChange Channel="6" Value="8192"/>
  </Event>
  <Event>
    <Absolute>115968</Absolute>
    <NoteOff Channel="6" Note="68" Velocity="0"/>
  </Event>
  <Event>
    <Absolute>115968</Absolute>
    <NoteOff Channel="6" Note="56" Velocity="0"/>
  </Event>
  <Event>
    <Absolute>115968</Absolute>
    <NoteOn Channel="6" Note="55" Velocity="67"/>
  </Event>
  <Event>
    <Absolute>115968</Absolute>
    <NoteOn Channel="6" Note="67" Velocity="92"/>
  </Event>
  <Event>
    <Absolute>116736</Absolute>
    <NoteOff Channel="6" Note="55" Velocity="0"/>
  </Event>
  <Event>
    <Absolute>116736</Absolute>
    <NoteOff Channel="6" Note="67" Velocity="0"/>
  </Event>
  <Event>
    <Absolute>116736</Absolute>
    <NoteOn Channel="6" Note="53" Velocity="67"/>
  </Event>
  <Event>
    <Absolute>116736</Absolute>
    <NoteOn Channel="6" Note="65" Velocity="92"/>
  </Event>
  <Event>
    <Absolute>117504</Absolute>
    <NoteOff Channel="6" Note="53" Velocity="0"/>
  </Event>
  <Event>
    <Absolute>117504</Absolute>
    <NoteOff Channel="6" Note="65" Velocity="0"/>
  </Event>
  <Event>
    <Absolute>117504</Absolute>
    <NoteOn Channel="6" Note="51" Velocity="67"/>
  </Event>
  <Event>
    <Absolute>117504</Absolute>
    <NoteOn Channel="6" Note="63" Velocity="92"/>
  </Event>
  <Event>
    <Absolute>117888</Absolute>
    <NoteOff Channel="6" Note="51" Velocity="0"/>
  </Event>
  <Event>
    <Absolute>117888</Absolute>
    <NoteOff Channel="6" Note="63" Velocity="0"/>
  </Event>
  <Event>
    <Absolute>117888</Absolute>
    <NoteOn Channel="6" Note="49" Velocity="67"/>
  </Event>
  <Event>
    <Absolute>117888</Absolute>
    <NoteOn Channel="6" Note="61" Velocity="92"/>
  </Event>
  <Event>
    <Absolute>118464</Absolute>
    <NoteOff Channel="6" Note="49" Velocity="0"/>
  </Event>
  <Event>
    <Absolute>118464</Absolute>
    <NoteOff Channel="6" Note="61" Velocity="0"/>
  </Event>
  <Event>
    <Absolute>121296</Absolute>
    <NoteOn Channel="6" Note="61" Velocity="97"/>
  </Event>
  <Event>
    <Absolute>122056</Absolute>
    <NoteOff Channel="6" Note="61" Velocity="0"/>
  </Event>
  <Event>
    <Absolute>122096</Absolute>
    <NoteOn Channel="6" Note="60" Velocity="97"/>
  </Event>
  <Event>
    <Absolute>122768</Absolute>
    <NoteOff Channel="6" Note="60" Velocity="0"/>
  </Event>
  <Event>
    <Absolute>122888</Absolute>
    <NoteOn Channel="6" Note="58" Velocity="97"/>
  </Event>
  <Event>
    <Absolute>123516</Absolute>
    <NoteOff Channel="6" Note="58" Velocity="0"/>
  </Event>
  <Event>
    <Absolute>123636</Absolute>
    <NoteOn Channel="6" Note="56" Velocity="97"/>
  </Event>
  <Event>
    <Absolute>123944</Absolute>
    <NoteOff Channel="6" Note="56" Velocity="0"/>
  </Event>
  <Event>
    <Absolute>124036</Absolute>
    <NoteOn Channel="6" Note="55" Velocity="97"/>
  </Event>
  <Event>
    <Absolute>124252</Absolute>
    <NoteOff Channel="6" Note="55" Velocity="0"/>
  </Event>
  <Event>
    <Absolute>124276</Absolute>
    <NoteOn Channel="6" Note="53" Velocity="97"/>
  </Event>
  <Event>
    <Absolute>124624</Absolute>
    <NoteOff Channel="6" Note="53" Velocity="0"/>
  </Event>
  <Event>
    <Absolute>124680</Absolute>
    <NoteOn Channel="6" Note="46" Velocity="97"/>
  </Event>
  <Event>
    <Absolute>130284</Absolute>
    <NoteOff Channel="6" Note="46" Velocity="0"/>
  </Event>
  <Event>
    <Absolute>164352</Absolute>
    <NoteOn Channel="6" Note="63" Velocity="85"/>
  </Event>
  <Event>
    <Absolute>164352</Absolute>
    <NoteOn Channel="6" Note="67" Velocity="85"/>
  </Event>
  <Event>
    <Absolute>164352</Absolute>
    <NoteOn Channel="6" Note="70" Velocity="85"/>
  </Event>
  <Event>
    <Absolute>164352</Absolute>
    <NoteOn Channel="6" Note="75" Velocity="85"/>
  </Event>
  <Event>
    <Absolute>165888</Absolute>
    <NoteOff Channel="6" Note="63" Velocity="0"/>
  </Event>
  <Event>
    <Absolute>165888</Absolute>
    <NoteOff Channel="6" Note="67" Velocity="0"/>
  </Event>
  <Event>
    <Absolute>165888</Absolute>
    <NoteOff Channel="6" Note="70" Velocity="0"/>
  </Event>
  <Event>
    <Absolute>165984</Absolute>
    <NoteOff Channel="6" Note="75" Velocity="0"/>
  </Event>
  <Event>
    <Absolute>167424</Absolute>
    <ControlChange Channel="6" Control="91" Value="10"/>
  </Event>
  <Event>
    <Absolute>167424</Absolute>
    <NoteOn Channel="6" Note="58" Velocity="126"/>
  </Event>
  <Event>
    <Absolute>167424</Absolute>
    <NoteOn Channel="6" Note="62" Velocity="126"/>
  </Event>
  <Event>
    <Absolute>168064</Absolute>
    <NoteOff Channel="6" Note="58" Velocity="0"/>
  </Event>
  <Event>
    <Absolute>168064</Absolute>
    <NoteOff Channel="6" Note="62" Velocity="0"/>
  </Event>
  <Event>
    <Absolute>168192</Absolute>
    <NoteOn Channel="6" Note="63" Velocity="126"/>
  </Event>
  <Event>
    <Absolute>168192</Absolute>
    <NoteOn Channel="6" Note="58" Velocity="126"/>
  </Event>
  <Event>
    <Absolute>168448</Absolute>
    <NoteOff Channel="6" Note="63" Velocity="0"/>
  </Event>
  <Event>
    <Absolute>168448</Absolute>
    <NoteOff Channel="6" Note="58" Velocity="0"/>
  </Event>
  <Event>
    <Absolute>168576</Absolute>
    <NoteOn Channel="6" Note="58" Velocity="126"/>
  </Event>
  <Event>
    <Absolute>168576</Absolute>
    <NoteOn Channel="6" Note="63" Velocity="126"/>
  </Event>
  <Event>
    <Absolute>168832</Absolute>
    <NoteOff Channel="6" Note="58" Velocity="0"/>
  </Event>
  <Event>
    <Absolute>168832</Absolute>
    <NoteOff Channel="6" Note="63" Velocity="0"/>
  </Event>
  <Event>
    <Absolute>169600</Absolute>
    <NoteOn Channel="6" Note="65" Velocity="126"/>
  </Event>
  <Event>
    <Absolute>169600</Absolute>
    <NoteOn Channel="6" Note="62" Velocity="126"/>
  </Event>
  <Event>
    <Absolute>169856</Absolute>
    <NoteOff Channel="6" Note="65" Velocity="0"/>
  </Event>
  <Event>
    <Absolute>169856</Absolute>
    <NoteOff Channel="6" Note="62" Velocity="0"/>
  </Event>
  <Event>
    <Absolute>169984</Absolute>
    <NoteOn Channel="6" Note="63" Velocity="126"/>
  </Event>
  <Event>
    <Absolute>169984</Absolute>
    <NoteOn Channel="6" Note="60" Velocity="126"/>
  </Event>
  <Event>
    <Absolute>170496</Absolute>
    <NoteOff Channel="6" Note="63" Velocity="0"/>
  </Event>
  <Event>
    <Absolute>170496</Absolute>
    <NoteOff Channel="6" Note="60" Velocity="0"/>
  </Event>
  <Event>
    <Absolute>170496</Absolute>
    <NoteOn Channel="6" Note="58" Velocity="126"/>
  </Event>
  <Event>
    <Absolute>170496</Absolute>
    <NoteOn Channel="6" Note="62" Velocity="126"/>
  </Event>
  <Event>
    <Absolute>170752</Absolute>
    <NoteOff Channel="6" Note="58" Velocity="0"/>
  </Event>
  <Event>
    <Absolute>170752</Absolute>
    <NoteOff Channel="6" Note="62" Velocity="0"/>
  </Event>
  <Event>
    <Absolute>170880</Absolute>
    <NoteOn Channel="6" Note="58" Velocity="126"/>
  </Event>
  <Event>
    <Absolute>170880</Absolute>
    <NoteOn Channel="6" Note="62" Velocity="126"/>
  </Event>
  <Event>
    <Absolute>171136</Absolute>
    <NoteOff Channel="6" Note="58" Velocity="0"/>
  </Event>
  <Event>
    <Absolute>171136</Absolute>
    <NoteOff Channel="6" Note="62" Velocity="0"/>
  </Event>
  <Event>
    <Absolute>171264</Absolute>
    <NoteOn Channel="6" Note="63" Velocity="126"/>
  </Event>
  <Event>
    <Absolute>171264</Absolute>
    <NoteOn Channel="6" Note="58" Velocity="126"/>
  </Event>
  <Event>
    <Absolute>171520</Absolute>
    <NoteOff Channel="6" Note="63" Velocity="0"/>
  </Event>
  <Event>
    <Absolute>171520</Absolute>
    <NoteOff Channel="6" Note="58" Velocity="0"/>
  </Event>
  <Event>
    <Absolute>171648</Absolute>
    <NoteOn Channel="6" Note="58" Velocity="126"/>
  </Event>
  <Event>
    <Absolute>171648</Absolute>
    <NoteOn Channel="6" Note="63" Velocity="126"/>
  </Event>
  <Event>
    <Absolute>171904</Absolute>
    <NoteOff Channel="6" Note="58" Velocity="0"/>
  </Event>
  <Event>
    <Absolute>171904</Absolute>
    <NoteOff Channel="6" Note="63" Velocity="0"/>
  </Event>
  <Event>
    <Absolute>172672</Absolute>
    <NoteOn Channel="6" Note="62" Velocity="126"/>
  </Event>
  <Event>
    <Absolute>172672</Absolute>
    <NoteOn Channel="6" Note="65" Velocity="126"/>
  </Event>
  <Event>
    <Absolute>172800</Absolute>
    <NoteOff Channel="6" Note="62" Velocity="0"/>
  </Event>
  <Event>
    <Absolute>172800</Absolute>
    <NoteOff Channel="6" Note="65" Velocity="0"/>
  </Event>
  <Event>
    <Absolute>173056</Absolute>
    <NoteOn Channel="6" Note="60" Velocity="126"/>
  </Event>
  <Event>
    <Absolute>173056</Absolute>
    <NoteOn Channel="6" Note="63" Velocity="126"/>
  </Event>
  <Event>
    <Absolute>173568</Absolute>
    <NoteOff Channel="6" Note="60" Velocity="0"/>
  </Event>
  <Event>
    <Absolute>173568</Absolute>
    <NoteOff Channel="6" Note="63" Velocity="0"/>
  </Event>
  <Event>
    <Absolute>173568</Absolute>
    <NoteOn Channel="6" Note="56" Velocity="126"/>
  </Event>
  <Event>
    <Absolute>173568</Absolute>
    <NoteOn Channel="6" Note="60" Velocity="126"/>
  </Event>
  <Event>
    <Absolute>173580</Absolute>
    <NoteOn Channel="6" Note="72" Velocity="127"/>
  </Event>
  <Event>
    <Absolute>174208</Absolute>
    <NoteOff Channel="6" Note="56" Velocity="0"/>
  </Event>
  <Event>
    <Absolute>174308</Absolute>
    <NoteOff Channel="6" Note="72" Velocity="0"/>
  </Event>
  <Event>
    <Absolute>174336</Absolute>
    <NoteOff Channel="6" Note="60" Velocity="0"/>
  </Event>
  <Event>
    <Absolute>174336</Absolute>
    <NoteOn Channel="6" Note="61" Velocity="126"/>
  </Event>
  <Event>
    <Absolute>174336</Absolute>
    <NoteOn Channel="6" Note="56" Velocity="126"/>
  </Event>
  <Event>
    <Absolute>174592</Absolute>
    <NoteOff Channel="6" Note="61" Velocity="0"/>
  </Event>
  <Event>
    <Absolute>174592</Absolute>
    <NoteOff Channel="6" Note="56" Velocity="0"/>
  </Event>
  <Event>
    <Absolute>174720</Absolute>
    <NoteOn Channel="6" Note="56" Velocity="126"/>
  </Event>
  <Event>
    <Absolute>174720</Absolute>
    <NoteOn Channel="6" Note="61" Velocity="126"/>
  </Event>
  <Event>
    <Absolute>174976</Absolute>
    <NoteOff Channel="6" Note="56" Velocity="0"/>
  </Event>
  <Event>
    <Absolute>174976</Absolute>
    <NoteOff Channel="6" Note="61" Velocity="0"/>
  </Event>
  <Event>
    <Absolute>175744</Absolute>
    <NoteOn Channel="6" Note="63" Velocity="126"/>
  </Event>
  <Event>
    <Absolute>175744</Absolute>
    <NoteOn Channel="6" Note="60" Velocity="126"/>
  </Event>
  <Event>
    <Absolute>175872</Absolute>
    <NoteOff Channel="6" Note="60" Velocity="0"/>
  </Event>
  <Event>
    <Absolute>176000</Absolute>
    <NoteOff Channel="6" Note="63" Velocity="0"/>
  </Event>
  <Event>
    <Absolute>176128</Absolute>
    <NoteOn Channel="6" Note="61" Velocity="126"/>
  </Event>
  <Event>
    <Absolute>176128</Absolute>
    <NoteOn Channel="6" Note="58" Velocity="126"/>
  </Event>
  <Event>
    <Absolute>176640</Absolute>
    <NoteOff Channel="6" Note="61" Velocity="0"/>
  </Event>
  <Event>
    <Absolute>176640</Absolute>
    <NoteOff Channel="6" Note="58" Velocity="0"/>
  </Event>
  <Event>
    <Absolute>176640</Absolute>
    <NoteOn Channel="6" Note="56" Velocity="126"/>
  </Event>
  <Event>
    <Absolute>176640</Absolute>
    <NoteOn Channel="6" Note="60" Velocity="126"/>
  </Event>
  <Event>
    <Absolute>176896</Absolute>
    <NoteOff Channel="6" Note="56" Velocity="0"/>
  </Event>
  <Event>
    <Absolute>176896</Absolute>
    <NoteOff Channel="6" Note="60" Velocity="0"/>
  </Event>
  <Event>
    <Absolute>177024</Absolute>
    <NoteOn Channel="6" Note="56" Velocity="126"/>
  </Event>
  <Event>
    <Absolute>177024</Absolute>
    <NoteOn Channel="6" Note="60" Velocity="126"/>
  </Event>
  <Event>
    <Absolute>177280</Absolute>
    <NoteOff Channel="6" Note="56" Velocity="0"/>
  </Event>
  <Event>
    <Absolute>177280</Absolute>
    <NoteOff Channel="6" Note="60" Velocity="0"/>
  </Event>
  <Event>
    <Absolute>177408</Absolute>
    <NoteOn Channel="6" Note="61" Velocity="126"/>
  </Event>
  <Event>
    <Absolute>177408</Absolute>
    <NoteOn Channel="6" Note="56" Velocity="126"/>
  </Event>
  <Event>
    <Absolute>177664</Absolute>
    <NoteOff Channel="6" Note="61" Velocity="0"/>
  </Event>
  <Event>
    <Absolute>177664</Absolute>
    <NoteOff Channel="6" Note="56" Velocity="0"/>
  </Event>
  <Event>
    <Absolute>177792</Absolute>
    <NoteOn Channel="6" Note="56" Velocity="126"/>
  </Event>
  <Event>
    <Absolute>177792</Absolute>
    <NoteOn Channel="6" Note="61" Velocity="126"/>
  </Event>
  <Event>
    <Absolute>178048</Absolute>
    <NoteOff Channel="6" Note="56" Velocity="0"/>
  </Event>
  <Event>
    <Absolute>178048</Absolute>
    <NoteOff Channel="6" Note="61" Velocity="0"/>
  </Event>
  <Event>
    <Absolute>178816</Absolute>
    <NoteOn Channel="6" Note="60" Velocity="126"/>
  </Event>
  <Event>
    <Absolute>178816</Absolute>
    <NoteOn Channel="6" Note="63" Velocity="126"/>
  </Event>
  <Event>
    <Absolute>179072</Absolute>
    <NoteOff Channel="6" Note="60" Velocity="0"/>
  </Event>
  <Event>
    <Absolute>179072</Absolute>
    <NoteOff Channel="6" Note="63" Velocity="0"/>
  </Event>
  <Event>
    <Absolute>179200</Absolute>
    <NoteOn Channel="6" Note="58" Velocity="126"/>
  </Event>
  <Event>
    <Absolute>179200</Absolute>
    <NoteOn Channel="6" Note="61" Velocity="126"/>
  </Event>
  <Event>
    <Absolute>179456</Absolute>
    <NoteOff Channel="6" Note="58" Velocity="0"/>
  </Event>
  <Event>
    <Absolute>179456</Absolute>
    <NoteOff Channel="6" Note="61" Velocity="0"/>
  </Event>
  <Event>
    <Absolute>181040</Absolute>
    <ControlChange Channel="6" Control="91" Value="127"/>
  </Event>
  <Event>
    <Absolute>186240</Absolute>
    <NoteOn Channel="6" Note="63" Velocity="127"/>
  </Event>
  <Event>
    <Absolute>186496</Absolute>
    <NoteOn Channel="6" Note="61" Velocity="127"/>
  </Event>
  <Event>
    <Absolute>186504</Absolute>
    <NoteOff Channel="6" Note="63" Velocity="0"/>
  </Event>
  <Event>
    <Absolute>186604</Absolute>
    <NoteOff Channel="6" Note="61" Velocity="0"/>
  </Event>
  <Event>
    <Absolute>186624</Absolute>
    <NoteOn Channel="6" Note="60" Velocity="127"/>
  </Event>
  <Event>
    <Absolute>186848</Absolute>
    <NoteOff Channel="6" Note="60" Velocity="0"/>
  </Event>
  <Event>
    <Absolute>186880</Absolute>
    <NoteOn Channel="6" Note="58" Velocity="127"/>
  </Event>
  <Event>
    <Absolute>187008</Absolute>
    <NoteOn Channel="6" Note="56" Velocity="127"/>
  </Event>
  <Event>
    <Absolute>187068</Absolute>
    <NoteOff Channel="6" Note="58" Velocity="0"/>
  </Event>
  <Event>
    <Absolute>187764</Absolute>
    <NoteOff Channel="6" Note="56" Velocity="0"/>
  </Event>
  <Event>
    <Absolute>187776</Absolute>
    <NoteOn Channel="6" Note="63" Velocity="127"/>
  </Event>
  <Event>
    <Absolute>188572</Absolute>
    <NoteOff Channel="6" Note="63" Velocity="0"/>
  </Event>
  <Event>
    <Absolute>189312</Absolute>
    <NoteOn Channel="6" Note="65" Velocity="127"/>
  </Event>
  <Event>
    <Absolute>189568</Absolute>
    <NoteOn Channel="6" Note="63" Velocity="127"/>
  </Event>
  <Event>
    <Absolute>189600</Absolute>
    <NoteOff Channel="6" Note="65" Velocity="0"/>
  </Event>
  <Event>
    <Absolute>189696</Absolute>
    <NoteOn Channel="6" Note="62" Velocity="127"/>
  </Event>
  <Event>
    <Absolute>189712</Absolute>
    <NoteOff Channel="6" Note="63" Velocity="0"/>
  </Event>
  <Event>
    <Absolute>189936</Absolute>
    <NoteOff Channel="6" Note="62" Velocity="0"/>
  </Event>
  <Event>
    <Absolute>189952</Absolute>
    <NoteOn Channel="6" Note="60" Velocity="127"/>
  </Event>
  <Event>
    <Absolute>190080</Absolute>
    <NoteOn Channel="6" Note="58" Velocity="127"/>
  </Event>
  <Event>
    <Absolute>190124</Absolute>
    <NoteOff Channel="6" Note="60" Velocity="0"/>
  </Event>
  <Event>
    <Absolute>190848</Absolute>
    <NoteOn Channel="6" Note="65" Velocity="127"/>
  </Event>
  <Event>
    <Absolute>190876</Absolute>
    <NoteOff Channel="6" Note="58" Velocity="0"/>
  </Event>
  <Event>
    <Absolute>191616</Absolute>
    <NoteOff Channel="6" Note="65" Velocity="0"/>
  </Event>
  <Event>
    <Absolute>192384</Absolute>
    <NoteOn Channel="6" Note="63" Velocity="127"/>
  </Event>
  <Event>
    <Absolute>192640</Absolute>
    <NoteOn Channel="6" Note="61" Velocity="127"/>
  </Event>
  <Event>
    <Absolute>192660</Absolute>
    <NoteOff Channel="6" Note="63" Velocity="0"/>
  </Event>
  <Event>
    <Absolute>192744</Absolute>
    <NoteOff Channel="6" Note="61" Velocity="0"/>
  </Event>
  <Event>
    <Absolute>192768</Absolute>
    <NoteOn Channel="6" Note="60" Velocity="127"/>
  </Event>
  <Event>
    <Absolute>192980</Absolute>
    <NoteOff Channel="6" Note="60" Velocity="0"/>
  </Event>
  <Event>
    <Absolute>193024</Absolute>
    <NoteOn Channel="6" Note="58" Velocity="127"/>
  </Event>
  <Event>
    <Absolute>193152</Absolute>
    <NoteOn Channel="6" Note="56" Velocity="127"/>
  </Event>
  <Event>
    <Absolute>193184</Absolute>
    <NoteOff Channel="6" Note="58" Velocity="0"/>
  </Event>
  <Event>
    <Absolute>193892</Absolute>
    <NoteOff Channel="6" Note="56" Velocity="0"/>
  </Event>
  <Event>
    <Absolute>193920</Absolute>
    <NoteOn Channel="6" Note="63" Velocity="127"/>
  </Event>
  <Event>
    <Absolute>194688</Absolute>
    <NoteOff Channel="6" Note="63" Velocity="0"/>
  </Event>
  <Event>
    <Absolute>198880</Absolute>
    <ControlChange Channel="6" Control="7" Value="95"/>
  </Event>
  <Event>
    <Absolute>200048</Absolute>
    <ControlChange Channel="6" Control="7" Value="94"/>
  </Event>
  <Event>
    <Absolute>200408</Absolute>
    <ControlChange Channel="6" Control="7" Value="93"/>
  </Event>
  <Event>
    <Absolute>200704</Absolute>
    <ControlChange Channel="6" Control="7" Value="92"/>
  </Event>
  <Event>
    <Absolute>201104</Absolute>
    <ControlChange Channel="6" Control="7" Value="91"/>
  </Event>
  <Event>
    <Absolute>201120</Absolute>
    <ControlChange Channel="6" Control="7" Value="90"/>
  </Event>
  <Event>
    <Absolute>201312</Absolute>
    <ControlChange Channel="6" Control="7" Value="89"/>
  </Event>
  <Event>
    <Absolute>201536</Absolute>
    <ControlChange Channel="6" Control="7" Value="88"/>
  </Event>
  <Event>
    <Absolute>201584</Absolute>
    <ControlChange Channel="6" Control="7" Value="87"/>
  </Event>
  <Event>
    <Absolute>201728</Absolute>
    <ControlChange Channel="6" Control="7" Value="86"/>
  </Event>
  <Event>
    <Absolute>202032</Absolute>
    <ControlChange Channel="6" Control="7" Value="85"/>
  </Event>
  <Event>
    <Absolute>202112</Absolute>
    <ControlChange Channel="6" Control="7" Value="84"/>
  </Event>
  <Event>
    <Absolute>202256</Absolute>
    <ControlChange Channel="6" Control="7" Value="83"/>
  </Event>
  <Event>
    <Absolute>202304</Absolute>
    <ControlChange Channel="6" Control="7" Value="82"/>
  </Event>
  <Event>
    <Absolute>202400</Absolute>
    <ControlChange Channel="6" Control="7" Value="81"/>
  </Event>
  <Event>
    <Absolute>202416</Absolute>
    <ControlChange Channel="6" Control="7" Value="80"/>
  </Event>
  <Event>
    <Absolute>202480</Absolute>
    <ControlChange Channel="6" Control="7" Value="79"/>
  </Event>
  <Event>
    <Absolute>202528</Absolute>
    <ControlChange Channel="6" Control="7" Value="77"/>
  </Event>
  <Event>
    <Absolute>202592</Absolute>
    <ControlChange Channel="6" Control="7" Value="75"/>
  </Event>
  <Event>
    <Absolute>202672</Absolute>
    <ControlChange Channel="6" Control="7" Value="74"/>
  </Event>
  <Event>
    <Absolute>202720</Absolute>
    <ControlChange Channel="6" Control="7" Value="73"/>
  </Event>
  <Event>
    <Absolute>202772</Absolute>
    <ControlChange Channel="6" Control="7" Value="72"/>
  </Event>
  <Event>
    <Absolute>202788</Absolute>
    <ControlChange Channel="6" Control="7" Value="71"/>
  </Event>
  <Event>
    <Absolute>202944</Absolute>
    <ControlChange Channel="6" Control="7" Value="70"/>
  </Event>
  <Event>
    <Absolute>203008</Absolute>
    <ControlChange Channel="6" Control="7" Value="69"/>
  </Event>
  <Event>
    <Absolute>203040</Absolute>
    <ControlChange Channel="6" Control="7" Value="68"/>
  </Event>
  <Event>
    <Absolute>203188</Absolute>
    <ControlChange Channel="6" Control="7" Value="67"/>
  </Event>
  <Event>
    <Absolute>203232</Absolute>
    <ControlChange Channel="6" Control="7" Value="66"/>
  </Event>
  <Event>
    <Absolute>203280</Absolute>
    <ControlChange Channel="6" Control="7" Value="65"/>
  </Event>
  <Event>
    <Absolute>203408</Absolute>
    <ControlChange Channel="6" Control="7" Value="64"/>
  </Event>
  <Event>
    <Absolute>203504</Absolute>
    <ControlChange Channel="6" Control="7" Value="63"/>
  </Event>
  <Event>
    <Absolute>203536</Absolute>
    <ControlChange Channel="6" Control="7" Value="62"/>
  </Event>
  <Event>
    <Absolute>203624</Absolute>
    <ControlChange Channel="6" Control="7" Value="61"/>
  </Event>
  <Event>
    <Absolute>203720</Absolute>
    <ControlChange Channel="6" Control="7" Value="60"/>
  </Event>
  <Event>
    <Absolute>203752</Absolute>
    <ControlChange Channel="6" Control="7" Value="58"/>
  </Event>
  <Event>
    <Absolute>203920</Absolute>
    <ControlChange Channel="6" Control="7" Value="56"/>
  </Event>
  <Event>
    <Absolute>203984</Absolute>
    <ControlChange Channel="6" Control="7" Value="55"/>
  </Event>
  <Event>
    <Absolute>204032</Absolute>
    <ControlChange Channel="6" Control="7" Value="54"/>
  </Event>
  <Event>
    <Absolute>204112</Absolute>
    <ControlChange Channel="6" Control="7" Value="53"/>
  </Event>
  <Event>
    <Absolute>204192</Absolute>
    <ControlChange Channel="6" Control="7" Value="52"/>
  </Event>
  <Event>
    <Absolute>204324</Absolute>
    <ControlChange Channel="6" Control="7" Value="51"/>
  </Event>
  <Event>
    <Absolute>204368</Absolute>
    <ControlChange Channel="6" Control="7" Value="49"/>
  </Event>
  <Event>
    <Absolute>204480</Absolute>
    <ControlChange Channel="6" Control="7" Value="48"/>
  </Event>
  <Event>
    <Absolute>204544</Absolute>
    <ControlChange Channel="6" Control="7" Value="47"/>
  </Event>
  <Event>
    <Absolute>204560</Absolute>
    <ControlChange Channel="6" Control="7" Value="46"/>
  </Event>
  <Event>
    <Absolute>204672</Absolute>
    <ControlChange Channel="6" Control="7" Value="45"/>
  </Event>
  <Event>
    <Absolute>204712</Absolute>
    <ControlChange Channel="6" Control="7" Value="44"/>
  </Event>
  <Event>
    <Absolute>204736</Absolute>
    <ControlChange Channel="6" Control="7" Value="43"/>
  </Event>
  <Event>
    <Absolute>204816</Absolute>
    <ControlChange Channel="6" Control="7" Value="42"/>
  </Event>
  <Event>
    <Absolute>204896</Absolute>
    <ControlChange Channel="6" Control="7" Value="41"/>
  </Event>
  <Event>
    <Absolute>204928</Absolute>
    <ControlChange Channel="6" Control="7" Value="40"/>
  </Event>
  <Event>
    <Absolute>205024</Absolute>
    <ControlChange Channel="6" Control="7" Value="39"/>
  </Event>
  <Event>
    <Absolute>205056</Absolute>
    <ControlChange Channel="6" Control="7" Value="38"/>
  </Event>
  <Event>
    <Absolute>205080</Absolute>
    <ControlChange Channel="6" Control="7" Value="37"/>
  </Event>
  <Event>
    <Absolute>205264</Absolute>
    <ControlChange Channel="6" Control="7" Value="36"/>
  </Event>
  <Event>
    <Absolute>205328</Absolute>
    <ControlChange Channel="6" Control="7" Value="35"/>
  </Event>
  <Event>
    <Absolute>205424</Absolute>
    <ControlChange Channel="6" Control="7" Value="34"/>
  </Event>
  <Event>
    <Absolute>205456</Absolute>
    <ControlChange Channel="6" Control="7" Value="33"/>
  </Event>
  <Event>
    <Absolute>205488</Absolute>
    <ControlChange Channel="6" Control="7" Value="32"/>
  </Event>
  <Event>
    <Absolute>205536</Absolute>
    <ControlChange Channel="6" Control="7" Value="30"/>
  </Event>
  <Event>
    <Absolute>205648</Absolute>
    <ControlChange Channel="6" Control="7" Value="28"/>
  </Event>
  <Event>
    <Absolute>205728</Absolute>
    <ControlChange Channel="6" Control="7" Value="27"/>
  </Event>
  <Event>
    <Absolute>205904</Absolute>
    <ControlChange Channel="6" Control="7" Value="26"/>
  </Event>
  <Event>
    <Absolute>205920</Absolute>
    <ControlChange Channel="6" Control="7" Value="25"/>
  </Event>
  <Event>
    <Absolute>206032</Absolute>
    <ControlChange Channel="6" Control="7" Value="24"/>
  </Event>
  <Event>
    <Absolute>206112</Absolute>
    <ControlChange Channel="6" Control="7" Value="23"/>
  </Event>
  <Event>
    <Absolute>206228</Absolute>
    <ControlChange Channel="6" Control="7" Value="22"/>
  </Event>
  <Event>
    <Absolute>206288</Absolute>
    <ControlChange Channel="6" Control="7" Value="21"/>
  </Event>
  <Event>
    <Absolute>206528</Absolute>
    <ControlChange Channel="6" Control="7" Value="20"/>
  </Event>
  <Event>
    <Absolute>206624</Absolute>
    <ControlChange Channel="6" Control="7" Value="19"/>
  </Event>
  <Event>
    <Absolute>206640</Absolute>
    <ControlChange Channel="6" Control="7" Value="18"/>
  </Event>
  <Event>
    <Absolute>206792</Absolute>
    <ControlChange Channel="6" Control="7" Value="17"/>
  </Event>
  <Event>
    <Absolute>206848</Absolute>
    <ControlChange Channel="6" Control="7" Value="16"/>
  </Event>
  <Event>
    <Absolute>206880</Absolute>
    <ControlChange Channel="6" Control="7" Value="15"/>
  </Event>
  <Event>
    <Absolute>207088</Absolute>
    <ControlChange Channel="6" Control="7" Value="14"/>
  </Event>
  <Event>
    <Absolute>207360</Absolute>
    <ControlChange Channel="6" Control="7" Value="13"/>
  </Event>
  <Event>
    <Absolute>207392</Absolute>
    <ControlChange Channel="6" Control="7" Value="12"/>
  </Event>
  <Event>
    <Absolute>207696</Absolute>
    <ControlChange Channel="6" Control="7" Value="11"/>
  </Event>
  <Event>
    <Absolute>207808</Absolute>
    <ControlChange Channel="6" Control="7" Value="9"/>
  </Event>
  <Event>
    <Absolute>208128</Absolute>
    <ControlChange Channel="6" Control="7" Value="7"/>
  </Event>
  <Event>
    <Absolute>208224</Absolute>
    <ControlChange Channel="6" Control="7" Value="6"/>
  </Event>
  <Event>
    <Absolute>208720</Absolute>
    <ControlChange Channel="6" Control="7" Value="5"/>
  </Event>
  <Event>
    <Absolute>208912</Absolute>
    <ControlChange Channel="6" Control="7" Value="4"/>
  </Event>
  <Event>
    <Absolute>209120</Absolute>
    <ControlChange Channel="6" Control="7" Value="3"/>
  </Event>
  <Event>
    <Absolute>209120</Absolute>
    <EndOfTrack/>
  </Event>
</Track>
<Track Number="11">
  <Event>
    <Absolute>0</Absolute>
    <TrackName>Drums</TrackName>
  </Event>
  <Event>
    <Absolute>0</Absolute>
    <ControlChange Channel="10" Control="0" Value="0"/>
  </Event>
  <Event>
    <Absolute>0</Absolute>
    <ProgramChange Channel="10" Number="0"/>
  </Event>
  <Event>
    <Absolute>0</Absolute>
    <ControlChange Channel="10" Control="7" Value="101"/>
  </Event>
  <Event>
    <Absolute>0</Absolute>
    <ControlChange Channel="10" Control="10" Value="42"/>
  </Event>
  <Event>
    <Absolute>0</Absolute>
    <ControlChange Channel="10" Control="91" Value="99"/>
  </Event>
  <Event>
    <Absolute>0</Absolute>
    <ControlChange Channel="10" Control="93" Value="114"/>
  </Event>
  <Event>
    <Absolute>0</Absolute>
    <KeySignature Fifths="0" Mode="0"/>
  </Event>
  <Event>
    <Absolute>14080</Absolute>
    <NoteOn Channel="10" Note="40" Velocity="127"/>
  </Event>
  <Event>
    <Absolute>14208</Absolute>
    <NoteOff Channel="10" Note="40" Velocity="0"/>
  </Event>
  <Event>
    <Absolute>14208</Absolute>
    <NoteOn Channel="10" Note="40" Velocity="127"/>
  </Event>
  <Event>
    <Absolute>14336</Absolute>
    <NoteOff Channel="10" Note="40" Velocity="0"/>
  </Event>
  <Event>
    <Absolute>14592</Absolute>
    <NoteOn Channel="10" Note="40" Velocity="127"/>
  </Event>
  <Event>
    <Absolute>14596</Absolute>
    <NoteOn Channel="10" Note="46" Velocity="127"/>
  </Event>
  <Event>
    <Absolute>14720</Absolute>
    <NoteOff Channel="10" Note="40" Velocity="0"/>
  </Event>
  <Event>
    <Absolute>14976</Absolute>
    <NoteOn Channel="10" Note="36" Velocity="127"/>
  </Event>
  <Event>
    <Absolute>14976</Absolute>
    <NoteOn Channel="10" Note="54" Velocity="127"/>
  </Event>
  <Event>
    <Absolute>15076</Absolute>
    <NoteOff Channel="10" Note="46" Velocity="0"/>
  </Event>
  <Event>
    <Absolute>15104</Absolute>
    <NoteOff Channel="10" Note="54" Velocity="0"/>
  </Event>
  <Event>
    <Absolute>15360</Absolute>
    <NoteOff Channel="10" Note="36" Velocity="0"/>
  </Event>
  <Event>
    <Absolute>16384</Absolute>
    <NoteOn Channel="10" Note="54" Velocity="127"/>
  </Event>
  <Event>
    <Absolute>16512</Absolute>
    <NoteOff Channel="10" Note="54" Velocity="0"/>
  </Event>
  <Event>
    <Absolute>16512</Absolute>
    <NoteOn Channel="10" Note="36" Velocity="127"/>
  </Event>
  <Event>
    <Absolute>16512</Absolute>
    <NoteOn Channel="10" Note="38" Velocity="127"/>
  </Event>
  <Event>
    <Absolute>16512</Absolute>
    <NoteOn Channel="10" Note="54" Velocity="127"/>
  </Event>
  <Event>
    <Absolute>16768</Absolute>
    <NoteOff Channel="10" Note="38" Velocity="0"/>
  </Event>
  <Event>
    <Absolute>16768</Absolute>
    <NoteOff Channel="10" Note="54" Velocity="0"/>
  </Event>
  <Event>
    <Absolute>16896</Absolute>
    <NoteOff Channel="10" Note="36" Velocity="0"/>
  </Event>
  <Event>
    <Absolute>17152</Absolute>
    <NoteOn Channel="10" Note="40" Velocity="127"/>
  </Event>
  <Event>
    <Absolute>17280</Absolute>
    <NoteOff Channel="10" Note="40" Velocity="0"/>
  </Event>
  <Event>
    <Absolute>17280</Absolute>
    <NoteOn Channel="10" Note="40" Velocity="127"/>
  </Event>
  <Event>
    <Absolute>17408</Absolute>
    <NoteOff Channel="10" Note="40" Velocity="0"/>
  </Event>
  <Event>
    <Absolute>17664</Absolute>
    <NoteOn Channel="10" Note="40" Velocity="127"/>
  </Event>
  <Event>
    <Absolute>17676</Absolute>
    <NoteOn Channel="10" Note="46" Velocity="127"/>
  </Event>
  <Event>
    <Absolute>17712</Absolute>
    <NoteOff Channel="10" Note="46" Velocity="0"/>
  </Event>
  <Event>
    <Absolute>17792</Absolute>
    <NoteOff Channel="10" Note="40" Velocity="0"/>
  </Event>
  <Event>
    <Absolute>18048</Absolute>
    <NoteOn Channel="10" Note="36" Velocity="127"/>
  </Event>
  <Event>
    <Absolute>18048</Absolute>
    <NoteOn Channel="10" Note="54" Velocity="127"/>
  </Event>
  <Event>
    <Absolute>18176</Absolute>
    <NoteOff Channel="10" Note="54" Velocity="0"/>
  </Event>
  <Event>
    <Absolute>18304</Absolute>
    <NoteOff Channel="10" Note="36" Velocity="0"/>
  </Event>
  <Event>
    <Absolute>19456</Absolute>
    <NoteOn Channel="10" Note="54" Velocity="127"/>
  </Event>
  <Event>
    <Absolute>19584</Absolute>
    <NoteOff Channel="10" Note="54" Velocity="0"/>
  </Event>
  <Event>
    <Absolute>19584</Absolute>
    <NoteOn Channel="10" Note="38" Velocity="127"/>
  </Event>
  <Event>
    <Absolute>19584</Absolute>
    <NoteOn Channel="10" Note="54" Velocity="127"/>
  </Event>
  <Event>
    <Absolute>19584</Absolute>
    <NoteOn Channel="10" Note="36" Velocity="127"/>
  </Event>
  <Event>
    <Absolute>19840</Absolute>
    <NoteOff Channel="10" Note="38" Velocity="0"/>
  </Event>
  <Event>
    <Absolute>19840</Absolute>
    <NoteOff Channel="10" Note="54" Velocity="0"/>
  </Event>
  <Event>
    <Absolute>19840</Absolute>
    <NoteOff Channel="10" Note="36" Velocity="0"/>
  </Event>
  <Event>
    <Absolute>20224</Absolute>
    <NoteOn Channel="10" Note="40" Velocity="127"/>
  </Event>
  <Event>
    <Absolute>20352</Absolute>
    <NoteOff Channel="10" Note="40" Velocity="0"/>
  </Event>
  <Event>
    <Absolute>20352</Absolute>
    <NoteOn Channel="10" Note="40" Velocity="127"/>
  </Event>
  <Event>
    <Absolute>20480</Absolute>
    <NoteOff Channel="10" Note="40" Velocity="0"/>
  </Event>
  <Event>
    <Absolute>20736</Absolute>
    <NoteOn Channel="10" Note="40" Velocity="127"/>
  </Event>
  <Event>
    <Absolute>20768</Absolute>
    <NoteOn Channel="10" Note="46" Velocity="127"/>
  </Event>
  <Event>
    <Absolute>20844</Absolute>
    <NoteOff Channel="10" Note="46" Velocity="0"/>
  </Event>
  <Event>
    <Absolute>20864</Absolute>
    <NoteOff Channel="10" Note="40" Velocity="0"/>
  </Event>
  <Event>
    <Absolute>21120</Absolute>
    <NoteOn Channel="10" Note="36" Velocity="127"/>
  </Event>
  <Event>
    <Absolute>21120</Absolute>
    <NoteOn Channel="10" Note="54" Velocity="127"/>
  </Event>
  <Event>
    <Absolute>21248</Absolute>
    <NoteOff Channel="10" Note="36" Velocity="0"/>
  </Event>
  <Event>
    <Absolute>21248</Absolute>
    <NoteOff Channel="10" Note="54" Velocity="0"/>
  </Event>
  <Event>
    <Absolute>22528</Absolute>
    <NoteOn Channel="10" Note="54" Velocity="127"/>
  </Event>
  <Event>
    <Absolute>22656</Absolute>
    <NoteOff Channel="10" Note="54" Velocity="0"/>
  </Event>
  <Event>
    <Absolute>22656</Absolute>
    <NoteOn Channel="10" Note="38" Velocity="127"/>
  </Event>
  <Event>
    <Absolute>22656</Absolute>
    <NoteOn Channel="10" Note="54" Velocity="127"/>
  </Event>
  <Event>
    <Absolute>22656</Absolute>
    <NoteOn Channel="10" Note="36" Velocity="127"/>
  </Event>
  <Event>
    <Absolute>22784</Absolute>
    <NoteOff Channel="10" Note="54" Velocity="0"/>
  </Event>
  <Event>
    <Absolute>22912</Absolute>
    <NoteOff Channel="10" Note="38" Velocity="0"/>
  </Event>
  <Event>
    <Absolute>22912</Absolute>
    <NoteOff Channel="10" Note="36" Velocity="0"/>
  </Event>
  <Event>
    <Absolute>23296</Absolute>
    <NoteOn Channel="10" Note="40" Velocity="127"/>
  </Event>
  <Event>
    <Absolute>23424</Absolute>
    <NoteOff Channel="10" Note="40" Velocity="0"/>
  </Event>
  <Event>
    <Absolute>23424</Absolute>
    <NoteOn Channel="10" Note="40" Velocity="127"/>
  </Event>
  <Event>
    <Absolute>23552</Absolute>
    <NoteOff Channel="10" Note="40" Velocity="0"/>
  </Event>
  <Event>
    <Absolute>23776</Absolute>
    <NoteOn Channel="10" Note="46" Velocity="127"/>
  </Event>
  <Event>
    <Absolute>23808</Absolute>
    <NoteOn Channel="10" Note="40" Velocity="127"/>
  </Event>
  <Event>
    <Absolute>23896</Absolute>
    <NoteOff Channel="10" Note="46" Velocity="0"/>
  </Event>
  <Event>
    <Absolute>23936</Absolute>
    <NoteOff Channel="10" Note="40" Velocity="0"/>
  </Event>
  <Event>
    <Absolute>24192</Absolute>
    <NoteOn Channel="10" Note="54" Velocity="127"/>
  </Event>
  <Event>
    <Absolute>24192</Absolute>
    <NoteOn Channel="10" Note="36" Velocity="127"/>
  </Event>
  <Event>
    <Absolute>24240</Absolute>
    <ControlChange Channel="10" Control="7" Value="95"/>
  </Event>
  <Event>
    <Absolute>24320</Absolute>
    <NoteOff Channel="10" Note="54" Velocity="0"/>
  </Event>
  <Event>
    <Absolute>24320</Absolute>
    <NoteOff Channel="10" Note="36" Velocity="0"/>
  </Event>
  <Event>
    <Absolute>24448</Absolute>
    <NoteOn Channel="10" Note="54" Velocity="127"/>
  </Event>
  <Event>
    <Absolute>24576</Absolute>
    <NoteOff Channel="10" Note="54" Velocity="0"/>
  </Event>
  <Event>
    <Absolute>24576</Absolute>
    <NoteOn Channel="10" Note="36" Velocity="127"/>
  </Event>
  <Event>
    <Absolute>24576</Absolute>
    <NoteOn Channel="10" Note="38" Velocity="40"/>
  </Event>
  <Event>
    <Absolute>24704</Absolute>
    <NoteOff Channel="10" Note="36" Velocity="0"/>
  </Event>
  <Event>
    <Absolute>24704</Absolute>
    <NoteOff Channel="10" Note="38" Velocity="0"/>
  </Event>
  <Event>
    <Absolute>24704</Absolute>
    <NoteOn Channel="10" Note="38" Velocity="50"/>
  </Event>
  <Event>
    <Absolute>24832</Absolute>
    <NoteOff Channel="10" Note="38" Velocity="0"/>
  </Event>
  <Event>
    <Absolute>24832</Absolute>
    <NoteOn Channel="10" Note="38" Velocity="60"/>
  </Event>
  <Event>
    <Absolute>24832</Absolute>
    <NoteOn Channel="10" Note="54" Velocity="127"/>
  </Event>
  <Event>
    <Absolute>24960</Absolute>
    <NoteOff Channel="10" Note="38" Velocity="0"/>
  </Event>
  <Event>
    <Absolute>24960</Absolute>
    <NoteOff Channel="10" Note="54" Velocity="0"/>
  </Event>
  <Event>
    <Absolute>24960</Absolute>
    <NoteOn Channel="10" Note="36" Velocity="127"/>
  </Event>
  <Event>
    <Absolute>24960</Absolute>
    <NoteOn Channel="10" Note="40" Velocity="70"/>
  </Event>
  <Event>
    <Absolute>24960</Absolute>
    <NoteOn Channel="10" Note="38" Velocity="80"/>
  </Event>
  <Event>
    <Absolute>25088</Absolute>
    <NoteOff Channel="10" Note="36" Velocity="0"/>
  </Event>
  <Event>
    <Absolute>25088</Absolute>
    <NoteOff Channel="10" Note="40" Velocity="0"/>
  </Event>
  <Event>
    <Absolute>25088</Absolute>
    <NoteOff Channel="10" Note="38" Velocity="0"/>
  </Event>
  <Event>
    <Absolute>25088</Absolute>
    <NoteOn Channel="10" Note="38" Velocity="90"/>
  </Event>
  <Event>
    <Absolute>25216</Absolute>
    <NoteOff Channel="10" Note="38" Velocity="0"/>
  </Event>
  <Event>
    <Absolute>25216</Absolute>
    <ControlChange Channel="10" Control="7" Value="96"/>
  </Event>
  <Event>
    <Absolute>25216</Absolute>
    <NoteOn Channel="10" Note="54" Velocity="127"/>
  </Event>
  <Event>
    <Absolute>25216</Absolute>
    <NoteOn Channel="10" Note="38" Velocity="127"/>
  </Event>
  <Event>
    <Absolute>25264</Absolute>
    <ControlChange Channel="10" Control="7" Value="97"/>
  </Event>
  <Event>
    <Absolute>25328</Absolute>
    <ControlChange Channel="10" Control="7" Value="98"/>
  </Event>
  <Event>
    <Absolute>25344</Absolute>
    <NoteOff Channel="10" Note="54" Velocity="0"/>
  </Event>
  <Event>
    <Absolute>25344</Absolute>
    <NoteOff Channel="10" Note="38" Velocity="0"/>
  </Event>
  <Event>
    <Absolute>25344</Absolute>
    <NoteOn Channel="10" Note="36" Velocity="127"/>
  </Event>
  <Event>
    <Absolute>25344</Absolute>
    <NoteOn Channel="10" Note="40" Velocity="100"/>
  </Event>
  <Event>
    <Absolute>25344</Absolute>
    <NoteOn Channel="10" Note="38" Velocity="110"/>
  </Event>
  <Event>
    <Absolute>25392</Absolute>
    <ControlChange Channel="10" Control="7" Value="99"/>
  </Event>
  <Event>
    <Absolute>25408</Absolute>
    <ControlChange Channel="10" Control="7" Value="100"/>
  </Event>
  <Event>
    <Absolute>25440</Absolute>
    <ControlChange Channel="10" Control="7" Value="101"/>
  </Event>
  <Event>
    <Absolute>25472</Absolute>
    <NoteOff Channel="10" Note="40" Velocity="0"/>
  </Event>
  <Event>
    <Absolute>25472</Absolute>
    <NoteOff Channel="10" Note="38" Velocity="0"/>
  </Event>
  <Event>
    <Absolute>25472</Absolute>
    <NoteOn Channel="10" Note="38" Velocity="127"/>
  </Event>
  <Event>
    <Absolute>25504</Absolute>
    <ControlChange Channel="10" Control="7" Value="102"/>
  </Event>
  <Event>
    <Absolute>25568</Absolute>
    <ControlChange Channel="10" Control="7" Value="103"/>
  </Event>
  <Event>
    <Absolute>25600</Absolute>
    <NoteOff Channel="10" Note="36" Velocity="0"/>
  </Event>
  <Event>
    <Absolute>25600</Absolute>
    <NoteOff Channel="10" Note="38" Velocity="0"/>
  </Event>
  <Event>
    <Absolute>25600</Absolute>
    <NoteOn Channel="10" Note="54" Velocity="127"/>
  </Event>
  <Event>
    <Absolute>25600</Absolute>
    <NoteOn Channel="10" Note="38" Velocity="127"/>
  </Event>
  <Event>
    <Absolute>25616</Absolute>
    <ControlChange Channel="10" Control="7" Value="104"/>
  </Event>
  <Event>
    <Absolute>25648</Absolute>
    <ControlChange Channel="10" Control="7" Value="105"/>
  </Event>
  <Event>
    <Absolute>25696</Absolute>
    <ControlChange Channel="10" Control="7" Value="106"/>
  </Event>
  <Event>
    <Absolute>25728</Absolute>
    <NoteOff Channel="10" Note="54" Velocity="0"/>
  </Event>
  <Event>
    <Absolute>25728</Absolute>
    <NoteOff Channel="10" Note="38" Velocity="0"/>
  </Event>
  <Event>
    <Absolute>25728</Absolute>
    <NoteOn Channel="10" Note="40" Velocity="127"/>
  </Event>
  <Event>
    <Absolute>25728</Absolute>
    <NoteOn Channel="10" Note="36" Velocity="127"/>
  </Event>
  <Event>
    <Absolute>25728</Absolute>
    <NoteOn Channel="10" Note="38" Velocity="127"/>
  </Event>
  <Event>
    <Absolute>25760</Absolute>
    <ControlChange Channel="10" Control="7" Value="107"/>
  </Event>
  <Event>
    <Absolute>25776</Absolute>
    <ControlChange Channel="10" Control="7" Value="108"/>
  </Event>
  <Event>
    <Absolute>25840</Absolute>
    <ControlChange Channel="10" Control="7" Value="109"/>
  </Event>
  <Event>
    <Absolute>25856</Absolute>
    <NoteOff Channel="10" Note="40" Velocity="0"/>
  </Event>
  <Event>
    <Absolute>25856</Absolute>
    <NoteOff Channel="10" Note="36" Velocity="0"/>
  </Event>
  <Event>
    <Absolute>25856</Absolute>
    <NoteOff Channel="10" Note="38" Velocity="0"/>
  </Event>
  <Event>
    <Absolute>25856</Absolute>
    <NoteOn Channel="10" Note="38" Velocity="127"/>
  </Event>
  <Event>
    <Absolute>25936</Absolute>
    <ControlChange Channel="10" Control="7" Value="110"/>
  </Event>
  <Event>
    <Absolute>25984</Absolute>
    <NoteOff Channel="10" Note="38" Velocity="0"/>
  </Event>
  <Event>
    <Absolute>25984</Absolute>
    <NoteOn Channel="10" Note="54" Velocity="127"/>
  </Event>
  <Event>
    <Absolute>25984</Absolute>
    <NoteOn Channel="10" Note="38" Velocity="127"/>
  </Event>
  <Event>
    <Absolute>26032</Absolute>
    <ControlChange Channel="10" Control="7" Value="111"/>
  </Event>
  <Event>
    <Absolute>26048</Absolute>
    <ControlChange Channel="10" Control="91" Value="24"/>
  </Event>
  <Event>
    <Absolute>26064</Absolute>
    <ControlChange Channel="10" Control="7" Value="112"/>
  </Event>
  <Event>
    <Absolute>26112</Absolute>
    <NoteOff Channel="10" Note="54" Velocity="0"/>
  </Event>
  <Event>
    <Absolute>26112</Absolute>
    <NoteOff Channel="10" Note="38" Velocity="0"/>
  </Event>
  <Event>
    <Absolute>26112</Absolute>
    <NoteOn Channel="10" Note="36" Velocity="126"/>
  </Event>
  <Event>
    <Absolute>26112</Absolute>
    <NoteOn Channel="10" Note="36" Velocity="127"/>
  </Event>
  <Event>
    <Absolute>26112</Absolute>
    <NoteOn Channel="10" Note="42" Velocity="76"/>
  </Event>
  <Event>
    <Absolute>26112</Absolute>
    <NoteOn Channel="10" Note="83" Velocity="61"/>
  </Event>
  <Event>
    <Absolute>26128</Absolute>
    <ControlChange Channel="10" Control="7" Value="114"/>
  </Event>
  <Event>
    <Absolute>26320</Absolute>
    <ControlChange Channel="10" Control="7" Value="115"/>
  </Event>
  <Event>
    <Absolute>26368</Absolute>
    <NoteOff Channel="10" Note="36" Velocity="0"/>
  </Event>
  <Event>
    <Absolute>26368</Absolute>
    <NoteOff Channel="10" Note="36" Velocity="0"/>
  </Event>
  <Event>
    <Absolute>26368</Absolute>
    <NoteOff Channel="10" Note="42" Velocity="0"/>
  </Event>
  <Event>
    <Absolute>26368</Absolute>
    <NoteOff Channel="10" Note="83" Velocity="0"/>
  </Event>
  <Event>
    <Absolute>26368</Absolute>
    <NoteOn Channel="10" Note="36" Velocity="127"/>
  </Event>
  <Event>
    <Absolute>26384</Absolute>
    <ControlChange Channel="10" Control="7" Value="117"/>
  </Event>
  <Event>
    <Absolute>26496</Absolute>
    <NoteOff Channel="10" Note="36" Velocity="0"/>
  </Event>
  <Event>
    <Absolute>26496</Absolute>
    <NoteOn Channel="10" Note="38" Velocity="126"/>
  </Event>
  <Event>
    <Absolute>26496</Absolute>
    <NoteOn Channel="10" Note="42" Velocity="76"/>
  </Event>
  <Event>
    <Absolute>26496</Absolute>
    <NoteOn Channel="10" Note="83" Velocity="61"/>
  </Event>
  <Event>
    <Absolute>26624</Absolute>
    <NoteOff Channel="10" Note="38" Velocity="0"/>
  </Event>
  <Event>
    <Absolute>26752</Absolute>
    <NoteOff Channel="10" Note="42" Velocity="0"/>
  </Event>
  <Event>
    <Absolute>26752</Absolute>
    <NoteOff Channel="10" Note="83" Velocity="0"/>
  </Event>
  <Event>
    <Absolute>26880</Absolute>
    <NoteOn Channel="10" Note="42" Velocity="76"/>
  </Event>
  <Event>
    <Absolute>26880</Absolute>
    <NoteOn Channel="10" Note="36" Velocity="126"/>
  </Event>
  <Event>
    <Absolute>26880</Absolute>
    <NoteOn Channel="10" Note="83" Velocity="61"/>
  </Event>
  <Event>
    <Absolute>27008</Absolute>
    <NoteOff Channel="10" Note="36" Velocity="0"/>
  </Event>
  <Event>
    <Absolute>27136</Absolute>
    <NoteOff Channel="10" Note="42" Velocity="0"/>
  </Event>
  <Event>
    <Absolute>27136</Absolute>
    <NoteOff Channel="10" Note="83" Velocity="0"/>
  </Event>
  <Event>
    <Absolute>27136</Absolute>
    <NoteOn Channel="10" Note="36" Velocity="126"/>
  </Event>
  <Event>
    <Absolute>27264</Absolute>
    <NoteOff Channel="10" Note="36" Velocity="0"/>
  </Event>
  <Event>
    <Absolute>27264</Absolute>
    <NoteOn Channel="10" Note="42" Velocity="76"/>
  </Event>
  <Event>
    <Absolute>27264</Absolute>
    <NoteOn Channel="10" Note="83" Velocity="61"/>
  </Event>
  <Event>
    <Absolute>27264</Absolute>
    <NoteOn Channel="10" Note="38" Velocity="126"/>
  </Event>
  <Event>
    <Absolute>27520</Absolute>
    <NoteOff Channel="10" Note="42" Velocity="0"/>
  </Event>
  <Event>
    <Absolute>27520</Absolute>
    <NoteOff Channel="10" Note="83" Velocity="0"/>
  </Event>
  <Event>
    <Absolute>27520</Absolute>
    <NoteOff Channel="10" Note="38" Velocity="0"/>
  </Event>
  <Event>
    <Absolute>27648</Absolute>
    <NoteOn Channel="10" Note="42" Velocity="76"/>
  </Event>
  <Event>
    <Absolute>27648</Absolute>
    <NoteOn Channel="10" Note="83" Velocity="61"/>
  </Event>
  <Event>
    <Absolute>27648</Absolute>
    <NoteOn Channel="10" Note="36" Velocity="126"/>
  </Event>
  <Event>
    <Absolute>27904</Absolute>
    <NoteOff Channel="10" Note="42" Velocity="0"/>
  </Event>
  <Event>
    <Absolute>27904</Absolute>
    <NoteOff Channel="10" Note="83" Velocity="0"/>
  </Event>
  <Event>
    <Absolute>27904</Absolute>
    <NoteOff Channel="10" Note="36" Velocity="0"/>
  </Event>
  <Event>
    <Absolute>28032</Absolute>
    <NoteOn Channel="10" Note="42" Velocity="76"/>
  </Event>
  <Event>
    <Absolute>28032</Absolute>
    <NoteOn Channel="10" Note="38" Velocity="126"/>
  </Event>
  <Event>
    <Absolute>28032</Absolute>
    <NoteOn Channel="10" Note="83" Velocity="61"/>
  </Event>
  <Event>
    <Absolute>28288</Absolute>
    <NoteOff Channel="10" Note="42" Velocity="0"/>
  </Event>
  <Event>
    <Absolute>28288</Absolute>
    <NoteOff Channel="10" Note="38" Velocity="0"/>
  </Event>
  <Event>
    <Absolute>28288</Absolute>
    <NoteOff Channel="10" Note="83" Velocity="0"/>
  </Event>
  <Event>
    <Absolute>28416</Absolute>
    <NoteOn Channel="10" Note="42" Velocity="76"/>
  </Event>
  <Event>
    <Absolute>28416</Absolute>
    <NoteOn Channel="10" Note="83" Velocity="61"/>
  </Event>
  <Event>
    <Absolute>28416</Absolute>
    <NoteOn Channel="10" Note="36" Velocity="126"/>
  </Event>
  <Event>
    <Absolute>28544</Absolute>
    <NoteOff Channel="10" Note="36" Velocity="0"/>
  </Event>
  <Event>
    <Absolute>28672</Absolute>
    <NoteOff Channel="10" Note="42" Velocity="0"/>
  </Event>
  <Event>
    <Absolute>28672</Absolute>
    <NoteOff Channel="10" Note="83" Velocity="0"/>
  </Event>
  <Event>
    <Absolute>28672</Absolute>
    <NoteOn Channel="10" Note="36" Velocity="126"/>
  </Event>
  <Event>
    <Absolute>28800</Absolute>
    <NoteOff Channel="10" Note="36" Velocity="0"/>
  </Event>
  <Event>
    <Absolute>28800</Absolute>
    <NoteOn Channel="10" Note="42" Velocity="76"/>
  </Event>
  <Event>
    <Absolute>28800</Absolute>
    <NoteOn Channel="10" Note="83" Velocity="61"/>
  </Event>
  <Event>
    <Absolute>28800</Absolute>
    <NoteOn Channel="10" Note="38" Velocity="126"/>
  </Event>
  <Event>
    <Absolute>28880</Absolute>
    <ControlChange Channel="10" Control="91" Value="23"/>
  </Event>
  <Event>
    <Absolute>28928</Absolute>
    <NoteOff Channel="10" Note="38" Velocity="0"/>
  </Event>
  <Event>
    <Absolute>29056</Absolute>
    <NoteOff Channel="10" Note="42" Velocity="0"/>
  </Event>
  <Event>
    <Absolute>29056</Absolute>
    <NoteOff Channel="10" Note="83" Velocity="0"/>
  </Event>
  <Event>
    <Absolute>29184</Absolute>
    <NoteOn Channel="10" Note="36" Velocity="126"/>
  </Event>
  <Event>
    <Absolute>29184</Absolute>
    <NoteOn Channel="10" Note="42" Velocity="76"/>
  </Event>
  <Event>
    <Absolute>29184</Absolute>
    <NoteOn Channel="10" Note="83" Velocity="61"/>
  </Event>
  <Event>
    <Absolute>29296</Absolute>
    <ControlChange Channel="10" Control="91" Value="24"/>
  </Event>
  <Event>
    <Absolute>29344</Absolute>
    <ControlChange Channel="10" Control="91" Value="26"/>
  </Event>
  <Event>
    <Absolute>29440</Absolute>
    <NoteOff Channel="10" Note="36" Velocity="0"/>
  </Event>
  <Event>
    <Absolute>29440</Absolute>
    <NoteOff Channel="10" Note="42" Velocity="0"/>
  </Event>
  <Event>
    <Absolute>29440</Absolute>
    <NoteOff Channel="10" Note="83" Velocity="0"/>
  </Event>
  <Event>
    <Absolute>29488</Absolute>
    <ControlChange Channel="10" Control="91" Value="28"/>
  </Event>
  <Event>
    <Absolute>29568</Absolute>
    <NoteOn Channel="10" Note="38" Velocity="126"/>
  </Event>
  <Event>
    <Absolute>29568</Absolute>
    <NoteOn Channel="10" Note="42" Velocity="76"/>
  </Event>
  <Event>
    <Absolute>29568</Absolute>
    <NoteOn Channel="10" Note="83" Velocity="61"/>
  </Event>
  <Event>
    <Absolute>29600</Absolute>
    <ControlChange Channel="10" Control="91" Value="29"/>
  </Event>
  <Event>
    <Absolute>29696</Absolute>
    <NoteOff Channel="10" Note="38" Velocity="0"/>
  </Event>
  <Event>
    <Absolute>29696</Absolute>
    <ControlChange Channel="10" Control="91" Value="31"/>
  </Event>
  <Event>
    <Absolute>29760</Absolute>
    <ControlChange Channel="10" Control="91" Value="32"/>
  </Event>
  <Event>
    <Absolute>29824</Absolute>
    <NoteOff Channel="10" Note="42" Velocity="0"/>
  </Event>
  <Event>
    <Absolute>29824</Absolute>
    <NoteOff Channel="10" Note="83" Velocity="0"/>
  </Event>
  <Event>
    <Absolute>29952</Absolute>
    <NoteOn Channel="10" Note="36" Velocity="126"/>
  </Event>
  <Event>
    <Absolute>29952</Absolute>
    <NoteOn Channel="10" Note="42" Velocity="76"/>
  </Event>
  <Event>
    <Absolute>29952</Absolute>
    <NoteOn Channel="10" Note="83" Velocity="61"/>
  </Event>
  <Event>
    <Absolute>30016</Absolute>
    <ControlChange Channel="10" Control="91" Value="34"/>
  </Event>
  <Event>
    <Absolute>30080</Absolute>
    <NoteOff Channel="10" Note="36" Velocity="0"/>
  </Event>
  <Event>
    <Absolute>30112</Absolute>
    <ControlChange Channel="10" Control="91" Value="35"/>
  </Event>
  <Event>
    <Absolute>30208</Absolute>
    <NoteOff Channel="10" Note="42" Velocity="0"/>
  </Event>
  <Event>
    <Absolute>30208</Absolute>
    <NoteOff Channel="10" Note="83" Velocity="0"/>
  </Event>
  <Event>
    <Absolute>30208</Absolute>
    <NoteOn Channel="10" Note="36" Velocity="126"/>
  </Event>
  <Event>
    <Absolute>30336</Absolute>
    <NoteOff Channel="10" Note="36" Velocity="0"/>
  </Event>
  <Event>
    <Absolute>30336</Absolute>
    <NoteOn Channel="10" Note="38" Velocity="126"/>
  </Event>
  <Event>
    <Absolute>30336</Absolute>
    <NoteOn Channel="10" Note="83" Velocity="61"/>
  </Event>
  <Event>
    <Absolute>30336</Absolute>
    <NoteOn Channel="10" Note="42" Velocity="76"/>
  </Event>
  <Event>
    <Absolute>30416</Absolute>
    <ControlChange Channel="10" Control="91" Value="37"/>
  </Event>
  <Event>
    <Absolute>30464</Absolute>
    <NoteOff Channel="10" Note="38" Velocity="0"/>
  </Event>
  <Event>
    <Absolute>30528</Absolute>
    <ControlChange Channel="10" Control="91" Value="38"/>
  </Event>
  <Event>
    <Absolute>30592</Absolute>
    <NoteOff Channel="10" Note="83" Velocity="0"/>
  </Event>
  <Event>
    <Absolute>30592</Absolute>
    <NoteOff Channel="10" Note="42" Velocity="0"/>
  </Event>
  <Event>
    <Absolute>30640</Absolute>
    <ControlChange Channel="10" Control="7" Value="108"/>
  </Event>
  <Event>
    <Absolute>30720</Absolute>
    <NoteOn Channel="10" Note="36" Velocity="126"/>
  </Event>
  <Event>
    <Absolute>30720</Absolute>
    <NoteOn Channel="10" Note="42" Velocity="76"/>
  </Event>
  <Event>
    <Absolute>30720</Absolute>
    <NoteOn Channel="10" Note="83" Velocity="61"/>
  </Event>
  <Event>
    <Absolute>30752</Absolute>
    <ControlChange Channel="10" Control="91" Value="39"/>
  </Event>
  <Event>
    <Absolute>30800</Absolute>
    <ControlChange Channel="10" Control="91" Value="40"/>
  </Event>
  <Event>
    <Absolute>30976</Absolute>
    <NoteOff Channel="10" Note="36" Velocity="0"/>
  </Event>
  <Event>
    <Absolute>30976</Absolute>
    <NoteOff Channel="10" Note="42" Velocity="0"/>
  </Event>
  <Event>
    <Absolute>30976</Absolute>
    <NoteOff Channel="10" Note="83" Velocity="0"/>
  </Event>
  <Event>
    <Absolute>31024</Absolute>
    <ControlChange Channel="10" Control="7" Value="109"/>
  </Event>
  <Event>
    <Absolute>31104</Absolute>
    <ControlChange Channel="10" Control="7" Value="110"/>
  </Event>
  <Event>
    <Absolute>31104</Absolute>
    <NoteOn Channel="10" Note="38" Velocity="126"/>
  </Event>
  <Event>
    <Absolute>31104</Absolute>
    <NoteOn Channel="10" Note="83" Velocity="61"/>
  </Event>
  <Event>
    <Absolute>31104</Absolute>
    <NoteOn Channel="10" Note="42" Velocity="76"/>
  </Event>
  <Event>
    <Absolute>31168</Absolute>
    <ControlChange Channel="10" Control="91" Value="41"/>
  </Event>
  <Event>
    <Absolute>31216</Absolute>
    <ControlChange Channel="10" Control="91" Value="42"/>
  </Event>
  <Event>
    <Absolute>31232</Absolute>
    <NoteOff Channel="10" Note="38" Velocity="0"/>
  </Event>
  <Event>
    <Absolute>31232</Absolute>
    <ControlChange Channel="10" Control="7" Value="111"/>
  </Event>
  <Event>
    <Absolute>31248</Absolute>
    <ControlChange Channel="10" Control="91" Value="43"/>
  </Event>
  <Event>
    <Absolute>31312</Absolute>
    <ControlChange Channel="10" Control="7" Value="112"/>
  </Event>
  <Event>
    <Absolute>31360</Absolute>
    <NoteOff Channel="10" Note="83" Velocity="0"/>
  </Event>
  <Event>
    <Absolute>31360</Absolute>
    <NoteOff Channel="10" Note="42" Velocity="0"/>
  </Event>
  <Event>
    <Absolute>31424</Absolute>
    <ControlChange Channel="10" Control="7" Value="114"/>
  </Event>
  <Event>
    <Absolute>31472</Absolute>
    <ControlChange Channel="10" Control="7" Value="115"/>
  </Event>
  <Event>
    <Absolute>31488</Absolute>
    <NoteOn Channel="10" Note="36" Velocity="126"/>
  </Event>
  <Event>
    <Absolute>31488</Absolute>
    <NoteOn Channel="10" Note="42" Velocity="76"/>
  </Event>
  <Event>
    <Absolute>31488</Absolute>
    <NoteOn Channel="10" Note="83" Velocity="61"/>
  </Event>
  <Event>
    <Absolute>31572</Absolute>
    <ControlChange Channel="10" Control="7" Value="117"/>
  </Event>
  <Event>
    <Absolute>31616</Absolute>
    <NoteOff Channel="10" Note="36" Velocity="0"/>
  </Event>
  <Event>
    <Absolute>31744</Absolute>
    <NoteOff Channel="10" Note="42" Velocity="0"/>
  </Event>
  <Event>
    <Absolute>31744</Absolute>
    <NoteOff Channel="10" Note="83" Velocity="0"/>
  </Event>
  <Event>
    <Absolute>31744</Absolute>
    <NoteOn Channel="10" Note="36" Velocity="126"/>
  </Event>
  <Event>
    <Absolute>31872</Absolute>
    <NoteOff Channel="10" Note="36" Velocity="0"/>
  </Event>
  <Event>
    <Absolute>31872</Absolute>
    <NoteOn Channel="10" Note="42" Velocity="76"/>
  </Event>
  <Event>
    <Absolute>31872</Absolute>
    <NoteOn Channel="10" Note="38" Velocity="126"/>
  </Event>
  <Event>
    <Absolute>31872</Absolute>
    <NoteOn Channel="10" Note="83" Velocity="61"/>
  </Event>
  <Event>
    <Absolute>32000</Absolute>
    <NoteOff Channel="10" Note="38" Velocity="0"/>
  </Event>
  <Event>
    <Absolute>32128</Absolute>
    <NoteOff Channel="10" Note="42" Velocity="0"/>
  </Event>
  <Event>
    <Absolute>32128</Absolute>
    <NoteOff Channel="10" Note="83" Velocity="0"/>
  </Event>
  <Event>
    <Absolute>32256</Absolute>
    <NoteOn Channel="10" Note="42" Velocity="76"/>
  </Event>
  <Event>
    <Absolute>32256</Absolute>
    <NoteOn Channel="10" Note="36" Velocity="126"/>
  </Event>
  <Event>
    <Absolute>32256</Absolute>
    <NoteOn Channel="10" Note="83" Velocity="61"/>
  </Event>
  <Event>
    <Absolute>32512</Absolute>
    <NoteOff Channel="10" Note="42" Velocity="0"/>
  </Event>
  <Event>
    <Absolute>32512</Absolute>
    <NoteOff Channel="10" Note="36" Velocity="0"/>
  </Event>
  <Event>
    <Absolute>32512</Absolute>
    <NoteOff Channel="10" Note="83" Velocity="0"/>
  </Event>
  <Event>
    <Absolute>32640</Absolute>
    <NoteOn Channel="10" Note="42" Velocity="76"/>
  </Event>
  <Event>
    <Absolute>32640</Absolute>
    <NoteOn Channel="10" Note="83" Velocity="61"/>
  </Event>
  <Event>
    <Absolute>32640</Absolute>
    <NoteOn Channel="10" Note="38" Velocity="126"/>
  </Event>
  <Event>
    <Absolute>32896</Absolute>
    <NoteOff Channel="10" Note="42" Velocity="0"/>
  </Event>
  <Event>
    <Absolute>32896</Absolute>
    <NoteOff Channel="10" Note="83" Velocity="0"/>
  </Event>
  <Event>
    <Absolute>32896</Absolute>
    <NoteOff Channel="10" Note="38" Velocity="0"/>
  </Event>
  <Event>
    <Absolute>33024</Absolute>
    <NoteOn Channel="10" Note="42" Velocity="76"/>
  </Event>
  <Event>
    <Absolute>33024</Absolute>
    <NoteOn Channel="10" Note="36" Velocity="126"/>
  </Event>
  <Event>
    <Absolute>33024</Absolute>
    <NoteOn Channel="10" Note="83" Velocity="61"/>
  </Event>
  <Event>
    <Absolute>33152</Absolute>
    <NoteOff Channel="10" Note="36" Velocity="0"/>
  </Event>
  <Event>
    <Absolute>33280</Absolute>
    <NoteOff Channel="10" Note="42" Velocity="0"/>
  </Event>
  <Event>
    <Absolute>33280</Absolute>
    <NoteOff Channel="10" Note="83" Velocity="0"/>
  </Event>
  <Event>
    <Absolute>33280</Absolute>
    <NoteOn Channel="10" Note="36" Velocity="126"/>
  </Event>
  <Event>
    <Absolute>33408</Absolute>
    <NoteOff Channel="10" Note="36" Velocity="0"/>
  </Event>
  <Event>
    <Absolute>33408</Absolute>
    <NoteOn Channel="10" Note="42" Velocity="76"/>
  </Event>
  <Event>
    <Absolute>33408</Absolute>
    <NoteOn Channel="10" Note="83" Velocity="61"/>
  </Event>
  <Event>
    <Absolute>33408</Absolute>
    <NoteOn Channel="10" Note="38" Velocity="126"/>
  </Event>
  <Event>
    <Absolute>33536</Absolute>
    <NoteOff Channel="10" Note="38" Velocity="0"/>
  </Event>
  <Event>
    <Absolute>33664</Absolute>
    <NoteOff Channel="10" Note="42" Velocity="0"/>
  </Event>
  <Event>
    <Absolute>33664</Absolute>
    <NoteOff Channel="10" Note="83" Velocity="0"/>
  </Event>
  <Event>
    <Absolute>33792</Absolute>
    <NoteOn Channel="10" Note="42" Velocity="76"/>
  </Event>
  <Event>
    <Absolute>33792</Absolute>
    <NoteOn Channel="10" Note="83" Velocity="61"/>
  </Event>
  <Event>
    <Absolute>33792</Absolute>
    <NoteOn Channel="10" Note="36" Velocity="126"/>
  </Event>
  <Event>
    <Absolute>34048</Absolute>
    <NoteOff Channel="10" Note="42" Velocity="0"/>
  </Event>
  <Event>
    <Absolute>34048</Absolute>
    <NoteOff Channel="10" Note="83" Velocity="0"/>
  </Event>
  <Event>
    <Absolute>34048</Absolute>
    <NoteOff Channel="10" Note="36" Velocity="0"/>
  </Event>
  <Event>
    <Absolute>34176</Absolute>
    <NoteOn Channel="10" Note="83" Velocity="61"/>
  </Event>
  <Event>
    <Absolute>34176</Absolute>
    <NoteOn Channel="10" Note="38" Velocity="126"/>
  </Event>
  <Event>
    <Absolute>34176</Absolute>
    <NoteOn Channel="10" Note="42" Velocity="76"/>
  </Event>
  <Event>
    <Absolute>34304</Absolute>
    <NoteOff Channel="10" Note="38" Velocity="0"/>
  </Event>
  <Event>
    <Absolute>34432</Absolute>
    <NoteOff Channel="10" Note="83" Velocity="0"/>
  </Event>
  <Event>
    <Absolute>34432</Absolute>
    <NoteOff Channel="10" Note="42" Velocity="0"/>
  </Event>
  <Event>
    <Absolute>34560</Absolute>
    <NoteOn Channel="10" Note="42" Velocity="76"/>
  </Event>
  <Event>
    <Absolute>34560</Absolute>
    <NoteOn Channel="10" Note="36" Velocity="126"/>
  </Event>
  <Event>
    <Absolute>34560</Absolute>
    <NoteOn Channel="10" Note="83" Velocity="61"/>
  </Event>
  <Event>
    <Absolute>34688</Absolute>
    <NoteOff Channel="10" Note="36" Velocity="0"/>
  </Event>
  <Event>
    <Absolute>34816</Absolute>
    <NoteOff Channel="10" Note="42" Velocity="0"/>
  </Event>
  <Event>
    <Absolute>34816</Absolute>
    <NoteOff Channel="10" Note="83" Velocity="0"/>
  </Event>
  <Event>
    <Absolute>34816</Absolute>
    <NoteOn Channel="10" Note="36" Velocity="126"/>
  </Event>
  <Event>
    <Absolute>34944</Absolute>
    <NoteOff Channel="10" Note="36" Velocity="0"/>
  </Event>
  <Event>
    <Absolute>34944</Absolute>
    <NoteOn Channel="10" Note="42" Velocity="76"/>
  </Event>
  <Event>
    <Absolute>34944</Absolute>
    <NoteOn Channel="10" Note="38" Velocity="126"/>
  </Event>
  <Event>
    <Absolute>34944</Absolute>
    <NoteOn Channel="10" Note="83" Velocity="61"/>
  </Event>
  <Event>
    <Absolute>35072</Absolute>
    <NoteOff Channel="10" Note="38" Velocity="0"/>
  </Event>
  <Event>
    <Absolute>35200</Absolute>
    <NoteOff Channel="10" Note="42" Velocity="0"/>
  </Event>
  <Event>
    <Absolute>35200</Absolute>
    <NoteOff Channel="10" Note="83" Velocity="0"/>
  </Event>
  <Event>
    <Absolute>35328</Absolute>
    <NoteOn Channel="10" Note="42" Velocity="76"/>
  </Event>
  <Event>
    <Absolute>35328</Absolute>
    <NoteOn Channel="10" Note="36" Velocity="126"/>
  </Event>
  <Event>
    <Absolute>35328</Absolute>
    <NoteOn Channel="10" Note="83" Velocity="61"/>
  </Event>
  <Event>
    <Absolute>35584</Absolute>
    <NoteOff Channel="10" Note="42" Velocity="0"/>
  </Event>
  <Event>
    <Absolute>35584</Absolute>
    <NoteOff Channel="10" Note="83" Velocity="0"/>
  </Event>
  <Event>
    <Absolute>35712</Absolute>
    <NoteOff Channel="10" Note="36" Velocity="0"/>
  </Event>
  <Event>
    <Absolute>35712</Absolute>
    <NoteOn Channel="10" Note="42" Velocity="76"/>
  </Event>
  <Event>
    <Absolute>35712</Absolute>
    <NoteOn Channel="10" Note="38" Velocity="126"/>
  </Event>
  <Event>
    <Absolute>35712</Absolute>
    <NoteOn Channel="10" Note="83" Velocity="61"/>
  </Event>
  <Event>
    <Absolute>35840</Absolute>
    <NoteOff Channel="10" Note="38" Velocity="0"/>
  </Event>
  <Event>
    <Absolute>35968</Absolute>
    <NoteOff Channel="10" Note="42" Velocity="0"/>
  </Event>
  <Event>
    <Absolute>35968</Absolute>
    <NoteOff Channel="10" Note="83" Velocity="0"/>
  </Event>
  <Event>
    <Absolute>36096</Absolute>
    <NoteOn Channel="10" Note="83" Velocity="61"/>
  </Event>
  <Event>
    <Absolute>36096</Absolute>
    <NoteOn Channel="10" Note="36" Velocity="126"/>
  </Event>
  <Event>
    <Absolute>36096</Absolute>
    <NoteOn Channel="10" Note="42" Velocity="76"/>
  </Event>
  <Event>
    <Absolute>36224</Absolute>
    <NoteOff Channel="10" Note="36" Velocity="0"/>
  </Event>
  <Event>
    <Absolute>36352</Absolute>
    <NoteOff Channel="10" Note="83" Velocity="0"/>
  </Event>
  <Event>
    <Absolute>36352</Absolute>
    <NoteOff Channel="10" Note="42" Velocity="0"/>
  </Event>
  <Event>
    <Absolute>36352</Absolute>
    <NoteOn Channel="10" Note="36" Velocity="126"/>
  </Event>
  <Event>
    <Absolute>36480</Absolute>
    <NoteOff Channel="10" Note="36" Velocity="0"/>
  </Event>
  <Event>
    <Absolute>36480</Absolute>
    <NoteOn Channel="10" Note="83" Velocity="61"/>
  </Event>
  <Event>
    <Absolute>36480</Absolute>
    <NoteOn Channel="10" Note="38" Velocity="126"/>
  </Event>
  <Event>
    <Absolute>36480</Absolute>
    <NoteOn Channel="10" Note="42" Velocity="76"/>
  </Event>
  <Event>
    <Absolute>36608</Absolute>
    <NoteOff Channel="10" Note="38" Velocity="0"/>
  </Event>
  <Event>
    <Absolute>36736</Absolute>
    <NoteOff Channel="10" Note="83" Velocity="0"/>
  </Event>
  <Event>
    <Absolute>36736</Absolute>
    <NoteOff Channel="10" Note="42" Velocity="0"/>
  </Event>
  <Event>
    <Absolute>36864</Absolute>
    <NoteOn Channel="10" Note="42" Velocity="76"/>
  </Event>
  <Event>
    <Absolute>36864</Absolute>
    <NoteOn Channel="10" Note="36" Velocity="126"/>
  </Event>
  <Event>
    <Absolute>36864</Absolute>
    <NoteOn Channel="10" Note="83" Velocity="61"/>
  </Event>
  <Event>
    <Absolute>37120</Absolute>
    <NoteOff Channel="10" Note="42" Velocity="0"/>
  </Event>
  <Event>
    <Absolute>37120</Absolute>
    <NoteOff Channel="10" Note="36" Velocity="0"/>
  </Event>
  <Event>
    <Absolute>37120</Absolute>
    <NoteOff Channel="10" Note="83" Velocity="0"/>
  </Event>
  <Event>
    <Absolute>37248</Absolute>
    <NoteOn Channel="10" Note="42" Velocity="76"/>
  </Event>
  <Event>
    <Absolute>37248</Absolute>
    <NoteOn Channel="10" Note="83" Velocity="61"/>
  </Event>
  <Event>
    <Absolute>37248</Absolute>
    <NoteOn Channel="10" Note="38" Velocity="126"/>
  </Event>
  <Event>
    <Absolute>37376</Absolute>
    <NoteOff Channel="10" Note="38" Velocity="0"/>
  </Event>
  <Event>
    <Absolute>37504</Absolute>
    <NoteOff Channel="10" Note="42" Velocity="0"/>
  </Event>
  <Event>
    <Absolute>37504</Absolute>
    <NoteOff Channel="10" Note="83" Velocity="0"/>
  </Event>
  <Event>
    <Absolute>37632</Absolute>
    <NoteOn Channel="10" Note="42" Velocity="76"/>
  </Event>
  <Event>
    <Absolute>37632</Absolute>
    <NoteOn Channel="10" Note="36" Velocity="126"/>
  </Event>
  <Event>
    <Absolute>37632</Absolute>
    <NoteOn Channel="10" Note="83" Velocity="61"/>
  </Event>
  <Event>
    <Absolute>37760</Absolute>
    <NoteOff Channel="10" Note="36" Velocity="0"/>
  </Event>
  <Event>
    <Absolute>37888</Absolute>
    <NoteOff Channel="10" Note="42" Velocity="0"/>
  </Event>
  <Event>
    <Absolute>37888</Absolute>
    <NoteOff Channel="10" Note="83" Velocity="0"/>
  </Event>
  <Event>
    <Absolute>37888</Absolute>
    <NoteOn Channel="10" Note="36" Velocity="126"/>
  </Event>
  <Event>
    <Absolute>38016</Absolute>
    <NoteOff Channel="10" Note="36" Velocity="0"/>
  </Event>
  <Event>
    <Absolute>38016</Absolute>
    <NoteOn Channel="10" Note="42" Velocity="76"/>
  </Event>
  <Event>
    <Absolute>38016</Absolute>
    <NoteOn Channel="10" Note="83" Velocity="61"/>
  </Event>
  <Event>
    <Absolute>38016</Absolute>
    <NoteOn Channel="10" Note="38" Velocity="126"/>
  </Event>
  <Event>
    <Absolute>38144</Absolute>
    <NoteOff Channel="10" Note="38" Velocity="0"/>
  </Event>
  <Event>
    <Absolute>38272</Absolute>
    <NoteOff Channel="10" Note="42" Velocity="0"/>
  </Event>
  <Event>
    <Absolute>38272</Absolute>
    <NoteOff Channel="10" Note="83" Velocity="0"/>
  </Event>
  <Event>
    <Absolute>38400</Absolute>
    <NoteOn Channel="10" Note="42" Velocity="76"/>
  </Event>
  <Event>
    <Absolute>38400</Absolute>
    <NoteOn Channel="10" Note="83" Velocity="61"/>
  </Event>
  <Event>
    <Absolute>38400</Absolute>
    <NoteOn Channel="10" Note="36" Velocity="126"/>
  </Event>
  <Event>
    <Absolute>38656</Absolute>
    <NoteOff Channel="10" Note="42" Velocity="0"/>
  </Event>
  <Event>
    <Absolute>38656</Absolute>
    <NoteOff Channel="10" Note="83" Velocity="0"/>
  </Event>
  <Event>
    <Absolute>38656</Absolute>
    <NoteOff Channel="10" Note="36" Velocity="0"/>
  </Event>
  <Event>
    <Absolute>38784</Absolute>
    <NoteOn Channel="10" Note="42" Velocity="76"/>
  </Event>
  <Event>
    <Absolute>38784</Absolute>
    <NoteOn Channel="10" Note="83" Velocity="61"/>
  </Event>
  <Event>
    <Absolute>38784</Absolute>
    <NoteOn Channel="10" Note="38" Velocity="126"/>
  </Event>
  <Event>
    <Absolute>38912</Absolute>
    <NoteOff Channel="10" Note="38" Velocity="0"/>
  </Event>
  <Event>
    <Absolute>39040</Absolute>
    <NoteOff Channel="10" Note="42" Velocity="0"/>
  </Event>
  <Event>
    <Absolute>39040</Absolute>
    <NoteOff Channel="10" Note="83" Velocity="0"/>
  </Event>
  <Event>
    <Absolute>39168</Absolute>
    <NoteOn Channel="10" Note="42" Velocity="76"/>
  </Event>
  <Event>
    <Absolute>39168</Absolute>
    <NoteOn Channel="10" Note="83" Velocity="61"/>
  </Event>
  <Event>
    <Absolute>39168</Absolute>
    <NoteOn Channel="10" Note="36" Velocity="126"/>
  </Event>
  <Event>
    <Absolute>39296</Absolute>
    <NoteOff Channel="10" Note="83" Velocity="0"/>
  </Event>
  <Event>
    <Absolute>39296</Absolute>
    <NoteOff Channel="10" Note="36" Velocity="0"/>
  </Event>
  <Event>
    <Absolute>39424</Absolute>
    <NoteOff Channel="10" Note="42" Velocity="0"/>
  </Event>
  <Event>
    <Absolute>39424</Absolute>
    <NoteOn Channel="10" Note="36" Velocity="126"/>
  </Event>
  <Event>
    <Absolute>39552</Absolute>
    <NoteOff Channel="10" Note="36" Velocity="0"/>
  </Event>
  <Event>
    <Absolute>39552</Absolute>
    <NoteOn Channel="10" Note="83" Velocity="61"/>
  </Event>
  <Event>
    <Absolute>39552</Absolute>
    <NoteOn Channel="10" Note="42" Velocity="76"/>
  </Event>
  <Event>
    <Absolute>39552</Absolute>
    <NoteOn Channel="10" Note="38" Velocity="126"/>
  </Event>
  <Event>
    <Absolute>39680</Absolute>
    <NoteOff Channel="10" Note="83" Velocity="0"/>
  </Event>
  <Event>
    <Absolute>39680</Absolute>
    <NoteOff Channel="10" Note="38" Velocity="0"/>
  </Event>
  <Event>
    <Absolute>39808</Absolute>
    <NoteOff Channel="10" Note="42" Velocity="0"/>
  </Event>
  <Event>
    <Absolute>39936</Absolute>
    <NoteOn Channel="10" Note="83" Velocity="61"/>
  </Event>
  <Event>
    <Absolute>39936</Absolute>
    <NoteOn Channel="10" Note="42" Velocity="76"/>
  </Event>
  <Event>
    <Absolute>39936</Absolute>
    <NoteOn Channel="10" Note="36" Velocity="126"/>
  </Event>
  <Event>
    <Absolute>40064</Absolute>
    <NoteOff Channel="10" Note="83" Velocity="0"/>
  </Event>
  <Event>
    <Absolute>40192</Absolute>
    <NoteOff Channel="10" Note="42" Velocity="0"/>
  </Event>
  <Event>
    <Absolute>40320</Absolute>
    <NoteOff Channel="10" Note="36" Velocity="0"/>
  </Event>
  <Event>
    <Absolute>40320</Absolute>
    <NoteOn Channel="10" Note="83" Velocity="61"/>
  </Event>
  <Event>
    <Absolute>40320</Absolute>
    <NoteOn Channel="10" Note="38" Velocity="126"/>
  </Event>
  <Event>
    <Absolute>40320</Absolute>
    <NoteOn Channel="10" Note="42" Velocity="76"/>
  </Event>
  <Event>
    <Absolute>40448</Absolute>
    <NoteOff Channel="10" Note="38" Velocity="0"/>
  </Event>
  <Event>
    <Absolute>40576</Absolute>
    <NoteOff Channel="10" Note="83" Velocity="0"/>
  </Event>
  <Event>
    <Absolute>40576</Absolute>
    <NoteOff Channel="10" Note="42" Velocity="0"/>
  </Event>
  <Event>
    <Absolute>40576</Absolute>
    <NoteOn Channel="10" Note="36" Velocity="126"/>
  </Event>
  <Event>
    <Absolute>40704</Absolute>
    <NoteOff Channel="10" Note="36" Velocity="0"/>
  </Event>
  <Event>
    <Absolute>40704</Absolute>
    <NoteOn Channel="10" Note="42" Velocity="76"/>
  </Event>
  <Event>
    <Absolute>40704</Absolute>
    <NoteOn Channel="10" Note="83" Velocity="61"/>
  </Event>
  <Event>
    <Absolute>40960</Absolute>
    <NoteOff Channel="10" Note="42" Velocity="0"/>
  </Event>
  <Event>
    <Absolute>40960</Absolute>
    <NoteOff Channel="10" Note="83" Velocity="0"/>
  </Event>
  <Event>
    <Absolute>40960</Absolute>
    <NoteOn Channel="10" Note="36" Velocity="126"/>
  </Event>
  <Event>
    <Absolute>41088</Absolute>
    <NoteOff Channel="10" Note="36" Velocity="0"/>
  </Event>
  <Event>
    <Absolute>41088</Absolute>
    <NoteOn Channel="10" Note="38" Velocity="126"/>
  </Event>
  <Event>
    <Absolute>41088</Absolute>
    <NoteOn Channel="10" Note="42" Velocity="76"/>
  </Event>
  <Event>
    <Absolute>41088</Absolute>
    <NoteOn Channel="10" Note="83" Velocity="61"/>
  </Event>
  <Event>
    <Absolute>41216</Absolute>
    <NoteOff Channel="10" Note="38" Velocity="0"/>
  </Event>
  <Event>
    <Absolute>41344</Absolute>
    <NoteOff Channel="10" Note="42" Velocity="0"/>
  </Event>
  <Event>
    <Absolute>41344</Absolute>
    <NoteOff Channel="10" Note="83" Velocity="0"/>
  </Event>
  <Event>
    <Absolute>41472</Absolute>
    <NoteOn Channel="10" Note="83" Velocity="61"/>
  </Event>
  <Event>
    <Absolute>41472</Absolute>
    <NoteOn Channel="10" Note="36" Velocity="126"/>
  </Event>
  <Event>
    <Absolute>41472</Absolute>
    <NoteOn Channel="10" Note="42" Velocity="76"/>
  </Event>
  <Event>
    <Absolute>41728</Absolute>
    <NoteOff Channel="10" Note="83" Velocity="0"/>
  </Event>
  <Event>
    <Absolute>41728</Absolute>
    <NoteOff Channel="10" Note="36" Velocity="0"/>
  </Event>
  <Event>
    <Absolute>41728</Absolute>
    <NoteOff Channel="10" Note="42" Velocity="0"/>
  </Event>
  <Event>
    <Absolute>41856</Absolute>
    <NoteOn Channel="10" Note="42" Velocity="76"/>
  </Event>
  <Event>
    <Absolute>41856</Absolute>
    <NoteOn Channel="10" Note="83" Velocity="61"/>
  </Event>
  <Event>
    <Absolute>41856</Absolute>
    <NoteOn Channel="10" Note="38" Velocity="126"/>
  </Event>
  <Event>
    <Absolute>41984</Absolute>
    <NoteOff Channel="10" Note="38" Velocity="0"/>
  </Event>
  <Event>
    <Absolute>42112</Absolute>
    <NoteOff Channel="10" Note="42" Velocity="0"/>
  </Event>
  <Event>
    <Absolute>42112</Absolute>
    <NoteOff Channel="10" Note="83" Velocity="0"/>
  </Event>
  <Event>
    <Absolute>42240</Absolute>
    <NoteOn Channel="10" Note="42" Velocity="76"/>
  </Event>
  <Event>
    <Absolute>42240</Absolute>
    <NoteOn Channel="10" Note="36" Velocity="126"/>
  </Event>
  <Event>
    <Absolute>42240</Absolute>
    <NoteOn Channel="10" Note="83" Velocity="61"/>
  </Event>
  <Event>
    <Absolute>42368</Absolute>
    <NoteOff Channel="10" Note="36" Velocity="0"/>
  </Event>
  <Event>
    <Absolute>42496</Absolute>
    <NoteOff Channel="10" Note="42" Velocity="0"/>
  </Event>
  <Event>
    <Absolute>42496</Absolute>
    <NoteOff Channel="10" Note="83" Velocity="0"/>
  </Event>
  <Event>
    <Absolute>42496</Absolute>
    <NoteOn Channel="10" Note="36" Velocity="126"/>
  </Event>
  <Event>
    <Absolute>42624</Absolute>
    <NoteOff Channel="10" Note="36" Velocity="0"/>
  </Event>
  <Event>
    <Absolute>42624</Absolute>
    <NoteOn Channel="10" Note="83" Velocity="61"/>
  </Event>
  <Event>
    <Absolute>42624</Absolute>
    <NoteOn Channel="10" Note="38" Velocity="126"/>
  </Event>
  <Event>
    <Absolute>42624</Absolute>
    <NoteOn Channel="10" Note="42" Velocity="76"/>
  </Event>
  <Event>
    <Absolute>42752</Absolute>
    <NoteOff Channel="10" Note="38" Velocity="0"/>
  </Event>
  <Event>
    <Absolute>42880</Absolute>
    <NoteOff Channel="10" Note="83" Velocity="0"/>
  </Event>
  <Event>
    <Absolute>42880</Absolute>
    <NoteOff Channel="10" Note="42" Velocity="0"/>
  </Event>
  <Event>
    <Absolute>43008</Absolute>
    <NoteOn Channel="10" Note="42" Velocity="76"/>
  </Event>
  <Event>
    <Absolute>43008</Absolute>
    <NoteOn Channel="10" Note="36" Velocity="126"/>
  </Event>
  <Event>
    <Absolute>43008</Absolute>
    <NoteOn Channel="10" Note="83" Velocity="61"/>
  </Event>
  <Event>
    <Absolute>43136</Absolute>
    <NoteOff Channel="10" Note="36" Velocity="0"/>
  </Event>
  <Event>
    <Absolute>43264</Absolute>
    <NoteOff Channel="10" Note="42" Velocity="0"/>
  </Event>
  <Event>
    <Absolute>43264</Absolute>
    <NoteOff Channel="10" Note="83" Velocity="0"/>
  </Event>
  <Event>
    <Absolute>43392</Absolute>
    <NoteOn Channel="10" Note="38" Velocity="126"/>
  </Event>
  <Event>
    <Absolute>43392</Absolute>
    <NoteOn Channel="10" Note="83" Velocity="61"/>
  </Event>
  <Event>
    <Absolute>43392</Absolute>
    <NoteOn Channel="10" Note="42" Velocity="76"/>
  </Event>
  <Event>
    <Absolute>43520</Absolute>
    <NoteOff Channel="10" Note="38" Velocity="0"/>
  </Event>
  <Event>
    <Absolute>43648</Absolute>
    <NoteOff Channel="10" Note="83" Velocity="0"/>
  </Event>
  <Event>
    <Absolute>43648</Absolute>
    <NoteOff Channel="10" Note="42" Velocity="0"/>
  </Event>
  <Event>
    <Absolute>43776</Absolute>
    <NoteOn Channel="10" Note="36" Velocity="126"/>
  </Event>
  <Event>
    <Absolute>43776</Absolute>
    <NoteOn Channel="10" Note="83" Velocity="61"/>
  </Event>
  <Event>
    <Absolute>43776</Absolute>
    <NoteOn Channel="10" Note="42" Velocity="76"/>
  </Event>
  <Event>
    <Absolute>43904</Absolute>
    <NoteOff Channel="10" Note="36" Velocity="0"/>
  </Event>
  <Event>
    <Absolute>44032</Absolute>
    <NoteOff Channel="10" Note="83" Velocity="0"/>
  </Event>
  <Event>
    <Absolute>44032</Absolute>
    <NoteOff Channel="10" Note="42" Velocity="0"/>
  </Event>
  <Event>
    <Absolute>44032</Absolute>
    <NoteOn Channel="10" Note="36" Velocity="126"/>
  </Event>
  <Event>
    <Absolute>44160</Absolute>
    <NoteOff Channel="10" Note="36" Velocity="0"/>
  </Event>
  <Event>
    <Absolute>44160</Absolute>
    <NoteOn Channel="10" Note="83" Velocity="61"/>
  </Event>
  <Event>
    <Absolute>44160</Absolute>
    <NoteOn Channel="10" Note="38" Velocity="126"/>
  </Event>
  <Event>
    <Absolute>44160</Absolute>
    <NoteOn Channel="10" Note="42" Velocity="76"/>
  </Event>
  <Event>
    <Absolute>44288</Absolute>
    <NoteOff Channel="10" Note="38" Velocity="0"/>
  </Event>
  <Event>
    <Absolute>44416</Absolute>
    <NoteOff Channel="10" Note="83" Velocity="0"/>
  </Event>
  <Event>
    <Absolute>44416</Absolute>
    <NoteOff Channel="10" Note="42" Velocity="0"/>
  </Event>
  <Event>
    <Absolute>44544</Absolute>
    <NoteOn Channel="10" Note="36" Velocity="126"/>
  </Event>
  <Event>
    <Absolute>44544</Absolute>
    <NoteOn Channel="10" Note="42" Velocity="76"/>
  </Event>
  <Event>
    <Absolute>44544</Absolute>
    <NoteOn Channel="10" Note="83" Velocity="61"/>
  </Event>
  <Event>
    <Absolute>44800</Absolute>
    <NoteOff Channel="10" Note="36" Velocity="0"/>
  </Event>
  <Event>
    <Absolute>44800</Absolute>
    <NoteOff Channel="10" Note="42" Velocity="0"/>
  </Event>
  <Event>
    <Absolute>44800</Absolute>
    <NoteOff Channel="10" Note="83" Velocity="0"/>
  </Event>
  <Event>
    <Absolute>44928</Absolute>
    <NoteOn Channel="10" Note="38" Velocity="126"/>
  </Event>
  <Event>
    <Absolute>44928</Absolute>
    <NoteOn Channel="10" Note="42" Velocity="76"/>
  </Event>
  <Event>
    <Absolute>44928</Absolute>
    <NoteOn Channel="10" Note="83" Velocity="61"/>
  </Event>
  <Event>
    <Absolute>45056</Absolute>
    <NoteOff Channel="10" Note="38" Velocity="0"/>
  </Event>
  <Event>
    <Absolute>45184</Absolute>
    <NoteOff Channel="10" Note="42" Velocity="0"/>
  </Event>
  <Event>
    <Absolute>45184</Absolute>
    <NoteOff Channel="10" Note="83" Velocity="0"/>
  </Event>
  <Event>
    <Absolute>45312</Absolute>
    <NoteOn Channel="10" Note="36" Velocity="126"/>
  </Event>
  <Event>
    <Absolute>45312</Absolute>
    <NoteOn Channel="10" Note="83" Velocity="61"/>
  </Event>
  <Event>
    <Absolute>45312</Absolute>
    <NoteOn Channel="10" Note="42" Velocity="76"/>
  </Event>
  <Event>
    <Absolute>45440</Absolute>
    <NoteOff Channel="10" Note="36" Velocity="0"/>
  </Event>
  <Event>
    <Absolute>45568</Absolute>
    <NoteOff Channel="10" Note="83" Velocity="0"/>
  </Event>
  <Event>
    <Absolute>45568</Absolute>
    <NoteOff Channel="10" Note="42" Velocity="0"/>
  </Event>
  <Event>
    <Absolute>45568</Absolute>
    <NoteOn Channel="10" Note="36" Velocity="126"/>
  </Event>
  <Event>
    <Absolute>45696</Absolute>
    <NoteOff Channel="10" Note="36" Velocity="0"/>
  </Event>
  <Event>
    <Absolute>45696</Absolute>
    <NoteOn Channel="10" Note="38" Velocity="126"/>
  </Event>
  <Event>
    <Absolute>45696</Absolute>
    <NoteOn Channel="10" Note="42" Velocity="76"/>
  </Event>
  <Event>
    <Absolute>45696</Absolute>
    <NoteOn Channel="10" Note="83" Velocity="61"/>
  </Event>
  <Event>
    <Absolute>45824</Absolute>
    <NoteOff Channel="10" Note="38" Velocity="0"/>
  </Event>
  <Event>
    <Absolute>45952</Absolute>
    <NoteOff Channel="10" Note="42" Velocity="0"/>
  </Event>
  <Event>
    <Absolute>45952</Absolute>
    <NoteOff Channel="10" Note="83" Velocity="0"/>
  </Event>
  <Event>
    <Absolute>46080</Absolute>
    <NoteOn Channel="10" Note="36" Velocity="126"/>
  </Event>
  <Event>
    <Absolute>46080</Absolute>
    <NoteOn Channel="10" Note="83" Velocity="61"/>
  </Event>
  <Event>
    <Absolute>46080</Absolute>
    <NoteOn Channel="10" Note="42" Velocity="76"/>
  </Event>
  <Event>
    <Absolute>46336</Absolute>
    <NoteOff Channel="10" Note="36" Velocity="0"/>
  </Event>
  <Event>
    <Absolute>46336</Absolute>
    <NoteOff Channel="10" Note="83" Velocity="0"/>
  </Event>
  <Event>
    <Absolute>46336</Absolute>
    <NoteOff Channel="10" Note="42" Velocity="0"/>
  </Event>
  <Event>
    <Absolute>46464</Absolute>
    <NoteOn Channel="10" Note="38" Velocity="126"/>
  </Event>
  <Event>
    <Absolute>46464</Absolute>
    <NoteOn Channel="10" Note="83" Velocity="61"/>
  </Event>
  <Event>
    <Absolute>46464</Absolute>
    <NoteOn Channel="10" Note="42" Velocity="76"/>
  </Event>
  <Event>
    <Absolute>46592</Absolute>
    <NoteOff Channel="10" Note="38" Velocity="0"/>
  </Event>
  <Event>
    <Absolute>46720</Absolute>
    <NoteOff Channel="10" Note="83" Velocity="0"/>
  </Event>
  <Event>
    <Absolute>46720</Absolute>
    <NoteOff Channel="10" Note="42" Velocity="0"/>
  </Event>
  <Event>
    <Absolute>46848</Absolute>
    <NoteOn Channel="10" Note="36" Velocity="126"/>
  </Event>
  <Event>
    <Absolute>46848</Absolute>
    <NoteOn Channel="10" Note="42" Velocity="76"/>
  </Event>
  <Event>
    <Absolute>46848</Absolute>
    <NoteOn Channel="10" Note="83" Velocity="61"/>
  </Event>
  <Event>
    <Absolute>46976</Absolute>
    <NoteOff Channel="10" Note="36" Velocity="0"/>
  </Event>
  <Event>
    <Absolute>47104</Absolute>
    <NoteOff Channel="10" Note="42" Velocity="0"/>
  </Event>
  <Event>
    <Absolute>47104</Absolute>
    <NoteOff Channel="10" Note="83" Velocity="0"/>
  </Event>
  <Event>
    <Absolute>47104</Absolute>
    <NoteOn Channel="10" Note="36" Velocity="126"/>
  </Event>
  <Event>
    <Absolute>47232</Absolute>
    <NoteOff Channel="10" Note="36" Velocity="0"/>
  </Event>
  <Event>
    <Absolute>47232</Absolute>
    <NoteOn Channel="10" Note="42" Velocity="76"/>
  </Event>
  <Event>
    <Absolute>47232</Absolute>
    <NoteOn Channel="10" Note="38" Velocity="126"/>
  </Event>
  <Event>
    <Absolute>47232</Absolute>
    <NoteOn Channel="10" Note="83" Velocity="61"/>
  </Event>
  <Event>
    <Absolute>47360</Absolute>
    <NoteOff Channel="10" Note="38" Velocity="0"/>
  </Event>
  <Event>
    <Absolute>47488</Absolute>
    <NoteOff Channel="10" Note="42" Velocity="0"/>
  </Event>
  <Event>
    <Absolute>47488</Absolute>
    <NoteOff Channel="10" Note="83" Velocity="0"/>
  </Event>
  <Event>
    <Absolute>47616</Absolute>
    <NoteOn Channel="10" Note="42" Velocity="76"/>
  </Event>
  <Event>
    <Absolute>47616</Absolute>
    <NoteOn Channel="10" Note="36" Velocity="126"/>
  </Event>
  <Event>
    <Absolute>47616</Absolute>
    <NoteOn Channel="10" Note="83" Velocity="61"/>
  </Event>
  <Event>
    <Absolute>47872</Absolute>
    <NoteOff Channel="10" Note="42" Velocity="0"/>
  </Event>
  <Event>
    <Absolute>47872</Absolute>
    <NoteOff Channel="10" Note="36" Velocity="0"/>
  </Event>
  <Event>
    <Absolute>47872</Absolute>
    <NoteOff Channel="10" Note="83" Velocity="0"/>
  </Event>
  <Event>
    <Absolute>48000</Absolute>
    <NoteOn Channel="10" Note="42" Velocity="76"/>
  </Event>
  <Event>
    <Absolute>48000</Absolute>
    <NoteOn Channel="10" Note="38" Velocity="126"/>
  </Event>
  <Event>
    <Absolute>48000</Absolute>
    <NoteOn Channel="10" Note="83" Velocity="61"/>
  </Event>
  <Event>
    <Absolute>48128</Absolute>
    <NoteOff Channel="10" Note="38" Velocity="0"/>
  </Event>
  <Event>
    <Absolute>48256</Absolute>
    <NoteOff Channel="10" Note="42" Velocity="0"/>
  </Event>
  <Event>
    <Absolute>48256</Absolute>
    <NoteOff Channel="10" Note="83" Velocity="0"/>
  </Event>
  <Event>
    <Absolute>48384</Absolute>
    <NoteOn Channel="10" Note="42" Velocity="76"/>
  </Event>
  <Event>
    <Absolute>48384</Absolute>
    <NoteOn Channel="10" Note="36" Velocity="126"/>
  </Event>
  <Event>
    <Absolute>48384</Absolute>
    <NoteOn Channel="10" Note="83" Velocity="61"/>
  </Event>
  <Event>
    <Absolute>48512</Absolute>
    <NoteOff Channel="10" Note="36" Velocity="0"/>
  </Event>
  <Event>
    <Absolute>48640</Absolute>
    <NoteOff Channel="10" Note="42" Velocity="0"/>
  </Event>
  <Event>
    <Absolute>48640</Absolute>
    <NoteOff Channel="10" Note="83" Velocity="0"/>
  </Event>
  <Event>
    <Absolute>48640</Absolute>
    <NoteOn Channel="10" Note="36" Velocity="126"/>
  </Event>
  <Event>
    <Absolute>48768</Absolute>
    <NoteOn Channel="10" Note="38" Velocity="126"/>
  </Event>
  <Event>
    <Absolute>48768</Absolute>
    <NoteOn Channel="10" Note="42" Velocity="76"/>
  </Event>
  <Event>
    <Absolute>48768</Absolute>
    <NoteOn Channel="10" Note="83" Velocity="61"/>
  </Event>
  <Event>
    <Absolute>48896</Absolute>
    <NoteOff Channel="10" Note="36" Velocity="0"/>
  </Event>
  <Event>
    <Absolute>48896</Absolute>
    <NoteOff Channel="10" Note="38" Velocity="0"/>
  </Event>
  <Event>
    <Absolute>49024</Absolute>
    <NoteOff Channel="10" Note="42" Velocity="0"/>
  </Event>
  <Event>
    <Absolute>49024</Absolute>
    <NoteOff Channel="10" Note="83" Velocity="0"/>
  </Event>
  <Event>
    <Absolute>49152</Absolute>
    <NoteOn Channel="10" Note="42" Velocity="76"/>
  </Event>
  <Event>
    <Absolute>49152</Absolute>
    <NoteOn Channel="10" Note="36" Velocity="126"/>
  </Event>
  <Event>
    <Absolute>49152</Absolute>
    <NoteOn Channel="10" Note="83" Velocity="61"/>
  </Event>
  <Event>
    <Absolute>49408</Absolute>
    <NoteOff Channel="10" Note="42" Velocity="0"/>
  </Event>
  <Event>
    <Absolute>49408</Absolute>
    <NoteOff Channel="10" Note="36" Velocity="0"/>
  </Event>
  <Event>
    <Absolute>49408</Absolute>
    <NoteOff Channel="10" Note="83" Velocity="0"/>
  </Event>
  <Event>
    <Absolute>49536</Absolute>
    <NoteOn Channel="10" Note="42" Velocity="76"/>
  </Event>
  <Event>
    <Absolute>49536</Absolute>
    <NoteOn Channel="10" Note="38" Velocity="126"/>
  </Event>
  <Event>
    <Absolute>49536</Absolute>
    <NoteOn Channel="10" Note="83" Velocity="61"/>
  </Event>
  <Event>
    <Absolute>49664</Absolute>
    <NoteOff Channel="10" Note="38" Velocity="0"/>
  </Event>
  <Event>
    <Absolute>49664</Absolute>
    <NoteOff Channel="10" Note="83" Velocity="0"/>
  </Event>
  <Event>
    <Absolute>49792</Absolute>
    <NoteOff Channel="10" Note="42" Velocity="0"/>
  </Event>
  <Event>
    <Absolute>49920</Absolute>
    <NoteOn Channel="10" Note="36" Velocity="126"/>
  </Event>
  <Event>
    <Absolute>49920</Absolute>
    <NoteOn Channel="10" Note="83" Velocity="61"/>
  </Event>
  <Event>
    <Absolute>49920</Absolute>
    <NoteOn Channel="10" Note="42" Velocity="76"/>
  </Event>
  <Event>
    <Absolute>50048</Absolute>
    <NoteOff Channel="10" Note="36" Velocity="0"/>
  </Event>
  <Event>
    <Absolute>50048</Absolute>
    <NoteOff Channel="10" Note="83" Velocity="0"/>
  </Event>
  <Event>
    <Absolute>50176</Absolute>
    <NoteOff Channel="10" Note="42" Velocity="0"/>
  </Event>
  <Event>
    <Absolute>50176</Absolute>
    <NoteOn Channel="10" Note="36" Velocity="126"/>
  </Event>
  <Event>
    <Absolute>50304</Absolute>
    <NoteOff Channel="10" Note="36" Velocity="0"/>
  </Event>
  <Event>
    <Absolute>50304</Absolute>
    <NoteOn Channel="10" Note="38" Velocity="126"/>
  </Event>
  <Event>
    <Absolute>50304</Absolute>
    <NoteOn Channel="10" Note="42" Velocity="76"/>
  </Event>
  <Event>
    <Absolute>50304</Absolute>
    <NoteOn Channel="10" Note="83" Velocity="61"/>
  </Event>
  <Event>
    <Absolute>50432</Absolute>
    <NoteOff Channel="10" Note="38" Velocity="0"/>
  </Event>
  <Event>
    <Absolute>50432</Absolute>
    <NoteOff Channel="10" Note="83" Velocity="0"/>
  </Event>
  <Event>
    <Absolute>50560</Absolute>
    <NoteOff Channel="10" Note="42" Velocity="0"/>
  </Event>
  <Event>
    <Absolute>63232</Absolute>
    <NoteOn Channel="10" Note="40" Velocity="127"/>
  </Event>
  <Event>
    <Absolute>63360</Absolute>
    <NoteOff Channel="10" Note="40" Velocity="0"/>
  </Event>
  <Event>
    <Absolute>63360</Absolute>
    <NoteOn Channel="10" Note="40" Velocity="127"/>
  </Event>
  <Event>
    <Absolute>63488</Absolute>
    <NoteOff Channel="10" Note="40" Velocity="0"/>
  </Event>
  <Event>
    <Absolute>63744</Absolute>
    <NoteOn Channel="10" Note="40" Velocity="127"/>
  </Event>
  <Event>
    <Absolute>63748</Absolute>
    <NoteOn Channel="10" Note="46" Velocity="127"/>
  </Event>
  <Event>
    <Absolute>63872</Absolute>
    <NoteOff Channel="10" Note="40" Velocity="0"/>
  </Event>
  <Event>
    <Absolute>64128</Absolute>
    <NoteOn Channel="10" Note="36" Velocity="127"/>
  </Event>
  <Event>
    <Absolute>64128</Absolute>
    <NoteOn Channel="10" Note="54" Velocity="127"/>
  </Event>
  <Event>
    <Absolute>64228</Absolute>
    <NoteOff Channel="10" Note="46" Velocity="0"/>
  </Event>
  <Event>
    <Absolute>64256</Absolute>
    <NoteOff Channel="10" Note="54" Velocity="0"/>
  </Event>
  <Event>
    <Absolute>64512</Absolute>
    <NoteOff Channel="10" Note="36" Velocity="0"/>
  </Event>
  <Event>
    <Absolute>65536</Absolute>
    <NoteOn Channel="10" Note="54" Velocity="127"/>
  </Event>
  <Event>
    <Absolute>65664</Absolute>
    <NoteOff Channel="10" Note="54" Velocity="0"/>
  </Event>
  <Event>
    <Absolute>65664</Absolute>
    <NoteOn Channel="10" Note="36" Velocity="127"/>
  </Event>
  <Event>
    <Absolute>65664</Absolute>
    <NoteOn Channel="10" Note="38" Velocity="127"/>
  </Event>
  <Event>
    <Absolute>65664</Absolute>
    <NoteOn Channel="10" Note="54" Velocity="127"/>
  </Event>
  <Event>
    <Absolute>65920</Absolute>
    <NoteOff Channel="10" Note="38" Velocity="0"/>
  </Event>
  <Event>
    <Absolute>65920</Absolute>
    <NoteOff Channel="10" Note="54" Velocity="0"/>
  </Event>
  <Event>
    <Absolute>66048</Absolute>
    <NoteOff Channel="10" Note="36" Velocity="0"/>
  </Event>
  <Event>
    <Absolute>66304</Absolute>
    <NoteOn Channel="10" Note="40" Velocity="127"/>
  </Event>
  <Event>
    <Absolute>66432</Absolute>
    <NoteOff Channel="10" Note="40" Velocity="0"/>
  </Event>
  <Event>
    <Absolute>66432</Absolute>
    <NoteOn Channel="10" Note="40" Velocity="127"/>
  </Event>
  <Event>
    <Absolute>66560</Absolute>
    <NoteOff Channel="10" Note="40" Velocity="0"/>
  </Event>
  <Event>
    <Absolute>66816</Absolute>
    <NoteOn Channel="10" Note="40" Velocity="127"/>
  </Event>
  <Event>
    <Absolute>66828</Absolute>
    <NoteOn Channel="10" Note="46" Velocity="127"/>
  </Event>
  <Event>
    <Absolute>66864</Absolute>
    <NoteOff Channel="10" Note="46" Velocity="0"/>
  </Event>
  <Event>
    <Absolute>66944</Absolute>
    <NoteOff Channel="10" Note="40" Velocity="0"/>
  </Event>
  <Event>
    <Absolute>67200</Absolute>
    <NoteOn Channel="10" Note="36" Velocity="127"/>
  </Event>
  <Event>
    <Absolute>67200</Absolute>
    <NoteOn Channel="10" Note="54" Velocity="127"/>
  </Event>
  <Event>
    <Absolute>67328</Absolute>
    <NoteOff Channel="10" Note="54" Velocity="0"/>
  </Event>
  <Event>
    <Absolute>67456</Absolute>
    <NoteOff Channel="10" Note="36" Velocity="0"/>
  </Event>
  <Event>
    <Absolute>68608</Absolute>
    <NoteOn Channel="10" Note="54" Velocity="127"/>
  </Event>
  <Event>
    <Absolute>68736</Absolute>
    <NoteOff Channel="10" Note="54" Velocity="0"/>
  </Event>
  <Event>
    <Absolute>68736</Absolute>
    <NoteOn Channel="10" Note="38" Velocity="127"/>
  </Event>
  <Event>
    <Absolute>68736</Absolute>
    <NoteOn Channel="10" Note="54" Velocity="127"/>
  </Event>
  <Event>
    <Absolute>68736</Absolute>
    <NoteOn Channel="10" Note="36" Velocity="127"/>
  </Event>
  <Event>
    <Absolute>68992</Absolute>
    <NoteOff Channel="10" Note="38" Velocity="0"/>
  </Event>
  <Event>
    <Absolute>68992</Absolute>
    <NoteOff Channel="10" Note="54" Velocity="0"/>
  </Event>
  <Event>
    <Absolute>68992</Absolute>
    <NoteOff Channel="10" Note="36" Velocity="0"/>
  </Event>
  <Event>
    <Absolute>69376</Absolute>
    <NoteOn Channel="10" Note="40" Velocity="127"/>
  </Event>
  <Event>
    <Absolute>69504</Absolute>
    <NoteOff Channel="10" Note="40" Velocity="0"/>
  </Event>
  <Event>
    <Absolute>69504</Absolute>
    <NoteOn Channel="10" Note="40" Velocity="127"/>
  </Event>
  <Event>
    <Absolute>69632</Absolute>
    <NoteOff Channel="10" Note="40" Velocity="0"/>
  </Event>
  <Event>
    <Absolute>69888</Absolute>
    <NoteOn Channel="10" Note="40" Velocity="127"/>
  </Event>
  <Event>
    <Absolute>69920</Absolute>
    <NoteOn Channel="10" Note="46" Velocity="127"/>
  </Event>
  <Event>
    <Absolute>69996</Absolute>
    <NoteOff Channel="10" Note="46" Velocity="0"/>
  </Event>
  <Event>
    <Absolute>70016</Absolute>
    <NoteOff Channel="10" Note="40" Velocity="0"/>
  </Event>
  <Event>
    <Absolute>70272</Absolute>
    <NoteOn Channel="10" Note="36" Velocity="127"/>
  </Event>
  <Event>
    <Absolute>70272</Absolute>
    <NoteOn Channel="10" Note="54" Velocity="127"/>
  </Event>
  <Event>
    <Absolute>70400</Absolute>
    <NoteOff Channel="10" Note="36" Velocity="0"/>
  </Event>
  <Event>
    <Absolute>70400</Absolute>
    <NoteOff Channel="10" Note="54" Velocity="0"/>
  </Event>
  <Event>
    <Absolute>71680</Absolute>
    <NoteOn Channel="10" Note="54" Velocity="127"/>
  </Event>
  <Event>
    <Absolute>71808</Absolute>
    <NoteOff Channel="10" Note="54" Velocity="0"/>
  </Event>
  <Event>
    <Absolute>71808</Absolute>
    <NoteOn Channel="10" Note="38" Velocity="127"/>
  </Event>
  <Event>
    <Absolute>71808</Absolute>
    <NoteOn Channel="10" Note="54" Velocity="127"/>
  </Event>
  <Event>
    <Absolute>71808</Absolute>
    <NoteOn Channel="10" Note="36" Velocity="127"/>
  </Event>
  <Event>
    <Absolute>71936</Absolute>
    <NoteOff Channel="10" Note="54" Velocity="0"/>
  </Event>
  <Event>
    <Absolute>72064</Absolute>
    <NoteOff Channel="10" Note="38" Velocity="0"/>
  </Event>
  <Event>
    <Absolute>72064</Absolute>
    <NoteOff Channel="10" Note="36" Velocity="0"/>
  </Event>
  <Event>
    <Absolute>72448</Absolute>
    <NoteOn Channel="10" Note="40" Velocity="127"/>
  </Event>
  <Event>
    <Absolute>72576</Absolute>
    <NoteOff Channel="10" Note="40" Velocity="0"/>
  </Event>
  <Event>
    <Absolute>72576</Absolute>
    <NoteOn Channel="10" Note="40" Velocity="127"/>
  </Event>
  <Event>
    <Absolute>72704</Absolute>
    <NoteOff Channel="10" Note="40" Velocity="0"/>
  </Event>
  <Event>
    <Absolute>72928</Absolute>
    <NoteOn Channel="10" Note="46" Velocity="127"/>
  </Event>
  <Event>
    <Absolute>72960</Absolute>
    <NoteOn Channel="10" Note="40" Velocity="127"/>
  </Event>
  <Event>
    <Absolute>73048</Absolute>
    <NoteOff Channel="10" Note="46" Velocity="0"/>
  </Event>
  <Event>
    <Absolute>73088</Absolute>
    <NoteOff Channel="10" Note="40" Velocity="0"/>
  </Event>
  <Event>
    <Absolute>73344</Absolute>
    <NoteOn Channel="10" Note="54" Velocity="127"/>
  </Event>
  <Event>
    <Absolute>73344</Absolute>
    <NoteOn Channel="10" Note="36" Velocity="127"/>
  </Event>
  <Event>
    <Absolute>73392</Absolute>
    <ControlChange Channel="10" Control="7" Value="95"/>
  </Event>
  <Event>
    <Absolute>73472</Absolute>
    <NoteOff Channel="10" Note="54" Velocity="0"/>
  </Event>
  <Event>
    <Absolute>73472</Absolute>
    <NoteOff Channel="10" Note="36" Velocity="0"/>
  </Event>
  <Event>
    <Absolute>73600</Absolute>
    <NoteOn Channel="10" Note="54" Velocity="127"/>
  </Event>
  <Event>
    <Absolute>73728</Absolute>
    <NoteOff Channel="10" Note="54" Velocity="0"/>
  </Event>
  <Event>
    <Absolute>73728</Absolute>
    <NoteOn Channel="10" Note="36" Velocity="127"/>
  </Event>
  <Event>
    <Absolute>73728</Absolute>
    <NoteOn Channel="10" Note="38" Velocity="40"/>
  </Event>
  <Event>
    <Absolute>73856</Absolute>
    <NoteOff Channel="10" Note="36" Velocity="0"/>
  </Event>
  <Event>
    <Absolute>73856</Absolute>
    <NoteOff Channel="10" Note="38" Velocity="0"/>
  </Event>
  <Event>
    <Absolute>73856</Absolute>
    <NoteOn Channel="10" Note="38" Velocity="50"/>
  </Event>
  <Event>
    <Absolute>73984</Absolute>
    <NoteOff Channel="10" Note="38" Velocity="0"/>
  </Event>
  <Event>
    <Absolute>73984</Absolute>
    <NoteOn Channel="10" Note="38" Velocity="60"/>
  </Event>
  <Event>
    <Absolute>73984</Absolute>
    <NoteOn Channel="10" Note="54" Velocity="127"/>
  </Event>
  <Event>
    <Absolute>74112</Absolute>
    <NoteOff Channel="10" Note="38" Velocity="0"/>
  </Event>
  <Event>
    <Absolute>74112</Absolute>
    <NoteOff Channel="10" Note="54" Velocity="0"/>
  </Event>
  <Event>
    <Absolute>74112</Absolute>
    <NoteOn Channel="10" Note="36" Velocity="127"/>
  </Event>
  <Event>
    <Absolute>74112</Absolute>
    <NoteOn Channel="10" Note="40" Velocity="70"/>
  </Event>
  <Event>
    <Absolute>74112</Absolute>
    <NoteOn Channel="10" Note="38" Velocity="80"/>
  </Event>
  <Event>
    <Absolute>74240</Absolute>
    <NoteOff Channel="10" Note="36" Velocity="0"/>
  </Event>
  <Event>
    <Absolute>74240</Absolute>
    <NoteOff Channel="10" Note="40" Velocity="0"/>
  </Event>
  <Event>
    <Absolute>74240</Absolute>
    <NoteOff Channel="10" Note="38" Velocity="0"/>
  </Event>
  <Event>
    <Absolute>74240</Absolute>
    <NoteOn Channel="10" Note="38" Velocity="90"/>
  </Event>
  <Event>
    <Absolute>74368</Absolute>
    <NoteOff Channel="10" Note="38" Velocity="0"/>
  </Event>
  <Event>
    <Absolute>74368</Absolute>
    <ControlChange Channel="10" Control="7" Value="96"/>
  </Event>
  <Event>
    <Absolute>74368</Absolute>
    <NoteOn Channel="10" Note="54" Velocity="127"/>
  </Event>
  <Event>
    <Absolute>74368</Absolute>
    <NoteOn Channel="10" Note="38" Velocity="127"/>
  </Event>
  <Event>
    <Absolute>74416</Absolute>
    <ControlChange Channel="10" Control="7" Value="97"/>
  </Event>
  <Event>
    <Absolute>74480</Absolute>
    <ControlChange Channel="10" Control="7" Value="98"/>
  </Event>
  <Event>
    <Absolute>74496</Absolute>
    <NoteOff Channel="10" Note="54" Velocity="0"/>
  </Event>
  <Event>
    <Absolute>74496</Absolute>
    <NoteOff Channel="10" Note="38" Velocity="0"/>
  </Event>
  <Event>
    <Absolute>74496</Absolute>
    <NoteOn Channel="10" Note="36" Velocity="127"/>
  </Event>
  <Event>
    <Absolute>74496</Absolute>
    <NoteOn Channel="10" Note="40" Velocity="100"/>
  </Event>
  <Event>
    <Absolute>74496</Absolute>
    <NoteOn Channel="10" Note="38" Velocity="110"/>
  </Event>
  <Event>
    <Absolute>74544</Absolute>
    <ControlChange Channel="10" Control="7" Value="99"/>
  </Event>
  <Event>
    <Absolute>74560</Absolute>
    <ControlChange Channel="10" Control="7" Value="100"/>
  </Event>
  <Event>
    <Absolute>74592</Absolute>
    <ControlChange Channel="10" Control="7" Value="101"/>
  </Event>
  <Event>
    <Absolute>74624</Absolute>
    <NoteOff Channel="10" Note="40" Velocity="0"/>
  </Event>
  <Event>
    <Absolute>74624</Absolute>
    <NoteOff Channel="10" Note="38" Velocity="0"/>
  </Event>
  <Event>
    <Absolute>74624</Absolute>
    <NoteOn Channel="10" Note="38" Velocity="127"/>
  </Event>
  <Event>
    <Absolute>74656</Absolute>
    <ControlChange Channel="10" Control="7" Value="102"/>
  </Event>
  <Event>
    <Absolute>74720</Absolute>
    <ControlChange Channel="10" Control="7" Value="103"/>
  </Event>
  <Event>
    <Absolute>74752</Absolute>
    <NoteOff Channel="10" Note="36" Velocity="0"/>
  </Event>
  <Event>
    <Absolute>74752</Absolute>
    <NoteOff Channel="10" Note="38" Velocity="0"/>
  </Event>
  <Event>
    <Absolute>74752</Absolute>
    <NoteOn Channel="10" Note="54" Velocity="127"/>
  </Event>
  <Event>
    <Absolute>74752</Absolute>
    <NoteOn Channel="10" Note="38" Velocity="127"/>
  </Event>
  <Event>
    <Absolute>74768</Absolute>
    <ControlChange Channel="10" Control="7" Value="104"/>
  </Event>
  <Event>
    <Absolute>74800</Absolute>
    <ControlChange Channel="10" Control="7" Value="105"/>
  </Event>
  <Event>
    <Absolute>74848</Absolute>
    <ControlChange Channel="10" Control="7" Value="106"/>
  </Event>
  <Event>
    <Absolute>74880</Absolute>
    <NoteOff Channel="10" Note="54" Velocity="0"/>
  </Event>
  <Event>
    <Absolute>74880</Absolute>
    <NoteOff Channel="10" Note="38" Velocity="0"/>
  </Event>
  <Event>
    <Absolute>74880</Absolute>
    <NoteOn Channel="10" Note="40" Velocity="127"/>
  </Event>
  <Event>
    <Absolute>74880</Absolute>
    <NoteOn Channel="10" Note="36" Velocity="127"/>
  </Event>
  <Event>
    <Absolute>74880</Absolute>
    <NoteOn Channel="10" Note="38" Velocity="127"/>
  </Event>
  <Event>
    <Absolute>74912</Absolute>
    <ControlChange Channel="10" Control="7" Value="107"/>
  </Event>
  <Event>
    <Absolute>74928</Absolute>
    <ControlChange Channel="10" Control="7" Value="108"/>
  </Event>
  <Event>
    <Absolute>74992</Absolute>
    <ControlChange Channel="10" Control="7" Value="109"/>
  </Event>
  <Event>
    <Absolute>75008</Absolute>
    <NoteOff Channel="10" Note="40" Velocity="0"/>
  </Event>
  <Event>
    <Absolute>75008</Absolute>
    <NoteOff Channel="10" Note="36" Velocity="0"/>
  </Event>
  <Event>
    <Absolute>75008</Absolute>
    <NoteOff Channel="10" Note="38" Velocity="0"/>
  </Event>
  <Event>
    <Absolute>75008</Absolute>
    <NoteOn Channel="10" Note="38" Velocity="127"/>
  </Event>
  <Event>
    <Absolute>75088</Absolute>
    <ControlChange Channel="10" Control="7" Value="110"/>
  </Event>
  <Event>
    <Absolute>75136</Absolute>
    <NoteOff Channel="10" Note="38" Velocity="0"/>
  </Event>
  <Event>
    <Absolute>75136</Absolute>
    <NoteOn Channel="10" Note="54" Velocity="127"/>
  </Event>
  <Event>
    <Absolute>75136</Absolute>
    <NoteOn Channel="10" Note="38" Velocity="127"/>
  </Event>
  <Event>
    <Absolute>75184</Absolute>
    <ControlChange Channel="10" Control="7" Value="111"/>
  </Event>
  <Event>
    <Absolute>75200</Absolute>
    <ControlChange Channel="10" Control="91" Value="24"/>
  </Event>
  <Event>
    <Absolute>75216</Absolute>
    <ControlChange Channel="10" Control="7" Value="112"/>
  </Event>
  <Event>
    <Absolute>75264</Absolute>
    <NoteOff Channel="10" Note="54" Velocity="0"/>
  </Event>
  <Event>
    <Absolute>75264</Absolute>
    <NoteOff Channel="10" Note="38" Velocity="0"/>
  </Event>
  <Event>
    <Absolute>75264</Absolute>
    <NoteOn Channel="10" Note="36" Velocity="126"/>
  </Event>
  <Event>
    <Absolute>75264</Absolute>
    <NoteOn Channel="10" Note="36" Velocity="127"/>
  </Event>
  <Event>
    <Absolute>75264</Absolute>
    <NoteOn Channel="10" Note="42" Velocity="76"/>
  </Event>
  <Event>
    <Absolute>75264</Absolute>
    <NoteOn Channel="10" Note="83" Velocity="61"/>
  </Event>
  <Event>
    <Absolute>75280</Absolute>
    <ControlChange Channel="10" Control="7" Value="114"/>
  </Event>
  <Event>
    <Absolute>75472</Absolute>
    <ControlChange Channel="10" Control="7" Value="115"/>
  </Event>
  <Event>
    <Absolute>75520</Absolute>
    <NoteOff Channel="10" Note="36" Velocity="0"/>
  </Event>
  <Event>
    <Absolute>75520</Absolute>
    <NoteOff Channel="10" Note="36" Velocity="0"/>
  </Event>
  <Event>
    <Absolute>75520</Absolute>
    <NoteOff Channel="10" Note="42" Velocity="0"/>
  </Event>
  <Event>
    <Absolute>75520</Absolute>
    <NoteOff Channel="10" Note="83" Velocity="0"/>
  </Event>
  <Event>
    <Absolute>75520</Absolute>
    <NoteOn Channel="10" Note="36" Velocity="127"/>
  </Event>
  <Event>
    <Absolute>75536</Absolute>
    <ControlChange Channel="10" Control="7" Value="117"/>
  </Event>
  <Event>
    <Absolute>75648</Absolute>
    <NoteOff Channel="10" Note="36" Velocity="0"/>
  </Event>
  <Event>
    <Absolute>75648</Absolute>
    <NoteOn Channel="10" Note="38" Velocity="126"/>
  </Event>
  <Event>
    <Absolute>75648</Absolute>
    <NoteOn Channel="10" Note="42" Velocity="76"/>
  </Event>
  <Event>
    <Absolute>75648</Absolute>
    <NoteOn Channel="10" Note="83" Velocity="61"/>
  </Event>
  <Event>
    <Absolute>75776</Absolute>
    <NoteOff Channel="10" Note="38" Velocity="0"/>
  </Event>
  <Event>
    <Absolute>75904</Absolute>
    <NoteOff Channel="10" Note="42" Velocity="0"/>
  </Event>
  <Event>
    <Absolute>75904</Absolute>
    <NoteOff Channel="10" Note="83" Velocity="0"/>
  </Event>
  <Event>
    <Absolute>76032</Absolute>
    <NoteOn Channel="10" Note="42" Velocity="76"/>
  </Event>
  <Event>
    <Absolute>76032</Absolute>
    <NoteOn Channel="10" Note="36" Velocity="126"/>
  </Event>
  <Event>
    <Absolute>76032</Absolute>
    <NoteOn Channel="10" Note="83" Velocity="61"/>
  </Event>
  <Event>
    <Absolute>76160</Absolute>
    <NoteOff Channel="10" Note="36" Velocity="0"/>
  </Event>
  <Event>
    <Absolute>76288</Absolute>
    <NoteOff Channel="10" Note="42" Velocity="0"/>
  </Event>
  <Event>
    <Absolute>76288</Absolute>
    <NoteOff Channel="10" Note="83" Velocity="0"/>
  </Event>
  <Event>
    <Absolute>76288</Absolute>
    <NoteOn Channel="10" Note="36" Velocity="126"/>
  </Event>
  <Event>
    <Absolute>76416</Absolute>
    <NoteOff Channel="10" Note="36" Velocity="0"/>
  </Event>
  <Event>
    <Absolute>76416</Absolute>
    <NoteOn Channel="10" Note="42" Velocity="76"/>
  </Event>
  <Event>
    <Absolute>76416</Absolute>
    <NoteOn Channel="10" Note="83" Velocity="61"/>
  </Event>
  <Event>
    <Absolute>76416</Absolute>
    <NoteOn Channel="10" Note="38" Velocity="126"/>
  </Event>
  <Event>
    <Absolute>76672</Absolute>
    <NoteOff Channel="10" Note="42" Velocity="0"/>
  </Event>
  <Event>
    <Absolute>76672</Absolute>
    <NoteOff Channel="10" Note="83" Velocity="0"/>
  </Event>
  <Event>
    <Absolute>76672</Absolute>
    <NoteOff Channel="10" Note="38" Velocity="0"/>
  </Event>
  <Event>
    <Absolute>76800</Absolute>
    <NoteOn Channel="10" Note="42" Velocity="76"/>
  </Event>
  <Event>
    <Absolute>76800</Absolute>
    <NoteOn Channel="10" Note="83" Velocity="61"/>
  </Event>
  <Event>
    <Absolute>76800</Absolute>
    <NoteOn Channel="10" Note="36" Velocity="126"/>
  </Event>
  <Event>
    <Absolute>77056</Absolute>
    <NoteOff Channel="10" Note="42" Velocity="0"/>
  </Event>
  <Event>
    <Absolute>77056</Absolute>
    <NoteOff Channel="10" Note="83" Velocity="0"/>
  </Event>
  <Event>
    <Absolute>77056</Absolute>
    <NoteOff Channel="10" Note="36" Velocity="0"/>
  </Event>
  <Event>
    <Absolute>77184</Absolute>
    <NoteOn Channel="10" Note="42" Velocity="76"/>
  </Event>
  <Event>
    <Absolute>77184</Absolute>
    <NoteOn Channel="10" Note="38" Velocity="126"/>
  </Event>
  <Event>
    <Absolute>77184</Absolute>
    <NoteOn Channel="10" Note="83" Velocity="61"/>
  </Event>
  <Event>
    <Absolute>77440</Absolute>
    <NoteOff Channel="10" Note="42" Velocity="0"/>
  </Event>
  <Event>
    <Absolute>77440</Absolute>
    <NoteOff Channel="10" Note="38" Velocity="0"/>
  </Event>
  <Event>
    <Absolute>77440</Absolute>
    <NoteOff Channel="10" Note="83" Velocity="0"/>
  </Event>
  <Event>
    <Absolute>77568</Absolute>
    <NoteOn Channel="10" Note="42" Velocity="76"/>
  </Event>
  <Event>
    <Absolute>77568</Absolute>
    <NoteOn Channel="10" Note="83" Velocity="61"/>
  </Event>
  <Event>
    <Absolute>77568</Absolute>
    <NoteOn Channel="10" Note="36" Velocity="126"/>
  </Event>
  <Event>
    <Absolute>77696</Absolute>
    <NoteOff Channel="10" Note="36" Velocity="0"/>
  </Event>
  <Event>
    <Absolute>77824</Absolute>
    <NoteOff Channel="10" Note="42" Velocity="0"/>
  </Event>
  <Event>
    <Absolute>77824</Absolute>
    <NoteOff Channel="10" Note="83" Velocity="0"/>
  </Event>
  <Event>
    <Absolute>77824</Absolute>
    <NoteOn Channel="10" Note="36" Velocity="126"/>
  </Event>
  <Event>
    <Absolute>77952</Absolute>
    <NoteOff Channel="10" Note="36" Velocity="0"/>
  </Event>
  <Event>
    <Absolute>77952</Absolute>
    <NoteOn Channel="10" Note="42" Velocity="76"/>
  </Event>
  <Event>
    <Absolute>77952</Absolute>
    <NoteOn Channel="10" Note="83" Velocity="61"/>
  </Event>
  <Event>
    <Absolute>77952</Absolute>
    <NoteOn Channel="10" Note="38" Velocity="126"/>
  </Event>
  <Event>
    <Absolute>78032</Absolute>
    <ControlChange Channel="10" Control="91" Value="23"/>
  </Event>
  <Event>
    <Absolute>78080</Absolute>
    <NoteOff Channel="10" Note="38" Velocity="0"/>
  </Event>
  <Event>
    <Absolute>78208</Absolute>
    <NoteOff Channel="10" Note="42" Velocity="0"/>
  </Event>
  <Event>
    <Absolute>78208</Absolute>
    <NoteOff Channel="10" Note="83" Velocity="0"/>
  </Event>
  <Event>
    <Absolute>78336</Absolute>
    <NoteOn Channel="10" Note="36" Velocity="126"/>
  </Event>
  <Event>
    <Absolute>78336</Absolute>
    <NoteOn Channel="10" Note="42" Velocity="76"/>
  </Event>
  <Event>
    <Absolute>78336</Absolute>
    <NoteOn Channel="10" Note="83" Velocity="61"/>
  </Event>
  <Event>
    <Absolute>78448</Absolute>
    <ControlChange Channel="10" Control="91" Value="24"/>
  </Event>
  <Event>
    <Absolute>78496</Absolute>
    <ControlChange Channel="10" Control="91" Value="26"/>
  </Event>
  <Event>
    <Absolute>78592</Absolute>
    <NoteOff Channel="10" Note="36" Velocity="0"/>
  </Event>
  <Event>
    <Absolute>78592</Absolute>
    <NoteOff Channel="10" Note="42" Velocity="0"/>
  </Event>
  <Event>
    <Absolute>78592</Absolute>
    <NoteOff Channel="10" Note="83" Velocity="0"/>
  </Event>
  <Event>
    <Absolute>78640</Absolute>
    <ControlChange Channel="10" Control="91" Value="28"/>
  </Event>
  <Event>
    <Absolute>78720</Absolute>
    <NoteOn Channel="10" Note="38" Velocity="126"/>
  </Event>
  <Event>
    <Absolute>78720</Absolute>
    <NoteOn Channel="10" Note="42" Velocity="76"/>
  </Event>
  <Event>
    <Absolute>78720</Absolute>
    <NoteOn Channel="10" Note="83" Velocity="61"/>
  </Event>
  <Event>
    <Absolute>78752</Absolute>
    <ControlChange Channel="10" Control="91" Value="29"/>
  </Event>
  <Event>
    <Absolute>78848</Absolute>
    <NoteOff Channel="10" Note="38" Velocity="0"/>
  </Event>
  <Event>
    <Absolute>78848</Absolute>
    <ControlChange Channel="10" Control="91" Value="31"/>
  </Event>
  <Event>
    <Absolute>78912</Absolute>
    <ControlChange Channel="10" Control="91" Value="32"/>
  </Event>
  <Event>
    <Absolute>78976</Absolute>
    <NoteOff Channel="10" Note="42" Velocity="0"/>
  </Event>
  <Event>
    <Absolute>78976</Absolute>
    <NoteOff Channel="10" Note="83" Velocity="0"/>
  </Event>
  <Event>
    <Absolute>79104</Absolute>
    <NoteOn Channel="10" Note="36" Velocity="126"/>
  </Event>
  <Event>
    <Absolute>79104</Absolute>
    <NoteOn Channel="10" Note="42" Velocity="76"/>
  </Event>
  <Event>
    <Absolute>79104</Absolute>
    <NoteOn Channel="10" Note="83" Velocity="61"/>
  </Event>
  <Event>
    <Absolute>79168</Absolute>
    <ControlChange Channel="10" Control="91" Value="34"/>
  </Event>
  <Event>
    <Absolute>79232</Absolute>
    <NoteOff Channel="10" Note="36" Velocity="0"/>
  </Event>
  <Event>
    <Absolute>79264</Absolute>
    <ControlChange Channel="10" Control="91" Value="35"/>
  </Event>
  <Event>
    <Absolute>79360</Absolute>
    <NoteOff Channel="10" Note="42" Velocity="0"/>
  </Event>
  <Event>
    <Absolute>79360</Absolute>
    <NoteOff Channel="10" Note="83" Velocity="0"/>
  </Event>
  <Event>
    <Absolute>79360</Absolute>
    <NoteOn Channel="10" Note="36" Velocity="126"/>
  </Event>
  <Event>
    <Absolute>79488</Absolute>
    <NoteOff Channel="10" Note="36" Velocity="0"/>
  </Event>
  <Event>
    <Absolute>79488</Absolute>
    <NoteOn Channel="10" Note="38" Velocity="126"/>
  </Event>
  <Event>
    <Absolute>79488</Absolute>
    <NoteOn Channel="10" Note="83" Velocity="61"/>
  </Event>
  <Event>
    <Absolute>79488</Absolute>
    <NoteOn Channel="10" Note="42" Velocity="76"/>
  </Event>
  <Event>
    <Absolute>79568</Absolute>
    <ControlChange Channel="10" Control="91" Value="37"/>
  </Event>
  <Event>
    <Absolute>79616</Absolute>
    <NoteOff Channel="10" Note="38" Velocity="0"/>
  </Event>
  <Event>
    <Absolute>79680</Absolute>
    <ControlChange Channel="10" Control="91" Value="38"/>
  </Event>
  <Event>
    <Absolute>79744</Absolute>
    <NoteOff Channel="10" Note="83" Velocity="0"/>
  </Event>
  <Event>
    <Absolute>79744</Absolute>
    <NoteOff Channel="10" Note="42" Velocity="0"/>
  </Event>
  <Event>
    <Absolute>79872</Absolute>
    <NoteOn Channel="10" Note="36" Velocity="126"/>
  </Event>
  <Event>
    <Absolute>79872</Absolute>
    <NoteOn Channel="10" Note="42" Velocity="76"/>
  </Event>
  <Event>
    <Absolute>79872</Absolute>
    <NoteOn Channel="10" Note="83" Velocity="61"/>
  </Event>
  <Event>
    <Absolute>79904</Absolute>
    <ControlChange Channel="10" Control="91" Value="39"/>
  </Event>
  <Event>
    <Absolute>79952</Absolute>
    <ControlChange Channel="10" Control="91" Value="40"/>
  </Event>
  <Event>
    <Absolute>80128</Absolute>
    <NoteOff Channel="10" Note="36" Velocity="0"/>
  </Event>
  <Event>
    <Absolute>80128</Absolute>
    <NoteOff Channel="10" Note="42" Velocity="0"/>
  </Event>
  <Event>
    <Absolute>80128</Absolute>
    <NoteOff Channel="10" Note="83" Velocity="0"/>
  </Event>
  <Event>
    <Absolute>80256</Absolute>
    <NoteOn Channel="10" Note="38" Velocity="126"/>
  </Event>
  <Event>
    <Absolute>80256</Absolute>
    <NoteOn Channel="10" Note="83" Velocity="61"/>
  </Event>
  <Event>
    <Absolute>80256</Absolute>
    <NoteOn Channel="10" Note="42" Velocity="76"/>
  </Event>
  <Event>
    <Absolute>80320</Absolute>
    <ControlChange Channel="10" Control="91" Value="41"/>
  </Event>
  <Event>
    <Absolute>80368</Absolute>
    <ControlChange Channel="10" Control="91" Value="42"/>
  </Event>
  <Event>
    <Absolute>80384</Absolute>
    <NoteOff Channel="10" Note="38" Velocity="0"/>
  </Event>
  <Event>
    <Absolute>80400</Absolute>
    <ControlChange Channel="10" Control="91" Value="43"/>
  </Event>
  <Event>
    <Absolute>80512</Absolute>
    <NoteOff Channel="10" Note="83" Velocity="0"/>
  </Event>
  <Event>
    <Absolute>80512</Absolute>
    <NoteOff Channel="10" Note="42" Velocity="0"/>
  </Event>
  <Event>
    <Absolute>80640</Absolute>
    <NoteOn Channel="10" Note="36" Velocity="126"/>
  </Event>
  <Event>
    <Absolute>80640</Absolute>
    <NoteOn Channel="10" Note="42" Velocity="76"/>
  </Event>
  <Event>
    <Absolute>80640</Absolute>
    <NoteOn Channel="10" Note="83" Velocity="61"/>
  </Event>
  <Event>
    <Absolute>80768</Absolute>
    <NoteOff Channel="10" Note="36" Velocity="0"/>
  </Event>
  <Event>
    <Absolute>80896</Absolute>
    <NoteOff Channel="10" Note="42" Velocity="0"/>
  </Event>
  <Event>
    <Absolute>80896</Absolute>
    <NoteOff Channel="10" Note="83" Velocity="0"/>
  </Event>
  <Event>
    <Absolute>80896</Absolute>
    <NoteOn Channel="10" Note="36" Velocity="126"/>
  </Event>
  <Event>
    <Absolute>81024</Absolute>
    <NoteOff Channel="10" Note="36" Velocity="0"/>
  </Event>
  <Event>
    <Absolute>81024</Absolute>
    <NoteOn Channel="10" Note="42" Velocity="76"/>
  </Event>
  <Event>
    <Absolute>81024</Absolute>
    <NoteOn Channel="10" Note="38" Velocity="126"/>
  </Event>
  <Event>
    <Absolute>81024</Absolute>
    <NoteOn Channel="10" Note="83" Velocity="61"/>
  </Event>
  <Event>
    <Absolute>81152</Absolute>
    <NoteOff Channel="10" Note="38" Velocity="0"/>
  </Event>
  <Event>
    <Absolute>81280</Absolute>
    <NoteOff Channel="10" Note="42" Velocity="0"/>
  </Event>
  <Event>
    <Absolute>81280</Absolute>
    <NoteOff Channel="10" Note="83" Velocity="0"/>
  </Event>
  <Event>
    <Absolute>81408</Absolute>
    <NoteOn Channel="10" Note="42" Velocity="76"/>
  </Event>
  <Event>
    <Absolute>81408</Absolute>
    <NoteOn Channel="10" Note="36" Velocity="126"/>
  </Event>
  <Event>
    <Absolute>81408</Absolute>
    <NoteOn Channel="10" Note="83" Velocity="61"/>
  </Event>
  <Event>
    <Absolute>81664</Absolute>
    <NoteOff Channel="10" Note="42" Velocity="0"/>
  </Event>
  <Event>
    <Absolute>81664</Absolute>
    <NoteOff Channel="10" Note="36" Velocity="0"/>
  </Event>
  <Event>
    <Absolute>81664</Absolute>
    <NoteOff Channel="10" Note="83" Velocity="0"/>
  </Event>
  <Event>
    <Absolute>81792</Absolute>
    <NoteOn Channel="10" Note="42" Velocity="76"/>
  </Event>
  <Event>
    <Absolute>81792</Absolute>
    <NoteOn Channel="10" Note="83" Velocity="61"/>
  </Event>
  <Event>
    <Absolute>81792</Absolute>
    <NoteOn Channel="10" Note="38" Velocity="126"/>
  </Event>
  <Event>
    <Absolute>82048</Absolute>
    <NoteOff Channel="10" Note="42" Velocity="0"/>
  </Event>
  <Event>
    <Absolute>82048</Absolute>
    <NoteOff Channel="10" Note="83" Velocity="0"/>
  </Event>
  <Event>
    <Absolute>82048</Absolute>
    <NoteOff Channel="10" Note="38" Velocity="0"/>
  </Event>
  <Event>
    <Absolute>82176</Absolute>
    <NoteOn Channel="10" Note="42" Velocity="76"/>
  </Event>
  <Event>
    <Absolute>82176</Absolute>
    <NoteOn Channel="10" Note="36" Velocity="126"/>
  </Event>
  <Event>
    <Absolute>82176</Absolute>
    <NoteOn Channel="10" Note="83" Velocity="61"/>
  </Event>
  <Event>
    <Absolute>82304</Absolute>
    <NoteOff Channel="10" Note="36" Velocity="0"/>
  </Event>
  <Event>
    <Absolute>82432</Absolute>
    <NoteOff Channel="10" Note="42" Velocity="0"/>
  </Event>
  <Event>
    <Absolute>82432</Absolute>
    <NoteOff Channel="10" Note="83" Velocity="0"/>
  </Event>
  <Event>
    <Absolute>82432</Absolute>
    <NoteOn Channel="10" Note="36" Velocity="126"/>
  </Event>
  <Event>
    <Absolute>82560</Absolute>
    <NoteOff Channel="10" Note="36" Velocity="0"/>
  </Event>
  <Event>
    <Absolute>82560</Absolute>
    <NoteOn Channel="10" Note="42" Velocity="76"/>
  </Event>
  <Event>
    <Absolute>82560</Absolute>
    <NoteOn Channel="10" Note="83" Velocity="61"/>
  </Event>
  <Event>
    <Absolute>82560</Absolute>
    <NoteOn Channel="10" Note="38" Velocity="126"/>
  </Event>
  <Event>
    <Absolute>82688</Absolute>
    <NoteOff Channel="10" Note="38" Velocity="0"/>
  </Event>
  <Event>
    <Absolute>82816</Absolute>
    <NoteOff Channel="10" Note="42" Velocity="0"/>
  </Event>
  <Event>
    <Absolute>82816</Absolute>
    <NoteOff Channel="10" Note="83" Velocity="0"/>
  </Event>
  <Event>
    <Absolute>82944</Absolute>
    <NoteOn Channel="10" Note="42" Velocity="76"/>
  </Event>
  <Event>
    <Absolute>82944</Absolute>
    <NoteOn Channel="10" Note="83" Velocity="61"/>
  </Event>
  <Event>
    <Absolute>82944</Absolute>
    <NoteOn Channel="10" Note="36" Velocity="126"/>
  </Event>
  <Event>
    <Absolute>83200</Absolute>
    <NoteOff Channel="10" Note="42" Velocity="0"/>
  </Event>
  <Event>
    <Absolute>83200</Absolute>
    <NoteOff Channel="10" Note="83" Velocity="0"/>
  </Event>
  <Event>
    <Absolute>83200</Absolute>
    <NoteOff Channel="10" Note="36" Velocity="0"/>
  </Event>
  <Event>
    <Absolute>83328</Absolute>
    <NoteOn Channel="10" Note="83" Velocity="61"/>
  </Event>
  <Event>
    <Absolute>83328</Absolute>
    <NoteOn Channel="10" Note="38" Velocity="126"/>
  </Event>
  <Event>
    <Absolute>83328</Absolute>
    <NoteOn Channel="10" Note="42" Velocity="76"/>
  </Event>
  <Event>
    <Absolute>83456</Absolute>
    <NoteOff Channel="10" Note="38" Velocity="0"/>
  </Event>
  <Event>
    <Absolute>83584</Absolute>
    <NoteOff Channel="10" Note="83" Velocity="0"/>
  </Event>
  <Event>
    <Absolute>83584</Absolute>
    <NoteOff Channel="10" Note="42" Velocity="0"/>
  </Event>
  <Event>
    <Absolute>83712</Absolute>
    <NoteOn Channel="10" Note="42" Velocity="76"/>
  </Event>
  <Event>
    <Absolute>83712</Absolute>
    <NoteOn Channel="10" Note="36" Velocity="126"/>
  </Event>
  <Event>
    <Absolute>83712</Absolute>
    <NoteOn Channel="10" Note="83" Velocity="61"/>
  </Event>
  <Event>
    <Absolute>83840</Absolute>
    <NoteOff Channel="10" Note="36" Velocity="0"/>
  </Event>
  <Event>
    <Absolute>83968</Absolute>
    <NoteOff Channel="10" Note="42" Velocity="0"/>
  </Event>
  <Event>
    <Absolute>83968</Absolute>
    <NoteOff Channel="10" Note="83" Velocity="0"/>
  </Event>
  <Event>
    <Absolute>83968</Absolute>
    <NoteOn Channel="10" Note="36" Velocity="126"/>
  </Event>
  <Event>
    <Absolute>84096</Absolute>
    <NoteOff Channel="10" Note="36" Velocity="0"/>
  </Event>
  <Event>
    <Absolute>84096</Absolute>
    <NoteOn Channel="10" Note="42" Velocity="76"/>
  </Event>
  <Event>
    <Absolute>84096</Absolute>
    <NoteOn Channel="10" Note="38" Velocity="126"/>
  </Event>
  <Event>
    <Absolute>84096</Absolute>
    <NoteOn Channel="10" Note="83" Velocity="61"/>
  </Event>
  <Event>
    <Absolute>84224</Absolute>
    <NoteOff Channel="10" Note="38" Velocity="0"/>
  </Event>
  <Event>
    <Absolute>84352</Absolute>
    <NoteOff Channel="10" Note="42" Velocity="0"/>
  </Event>
  <Event>
    <Absolute>84352</Absolute>
    <NoteOff Channel="10" Note="83" Velocity="0"/>
  </Event>
  <Event>
    <Absolute>84480</Absolute>
    <NoteOn Channel="10" Note="42" Velocity="76"/>
  </Event>
  <Event>
    <Absolute>84480</Absolute>
    <NoteOn Channel="10" Note="36" Velocity="126"/>
  </Event>
  <Event>
    <Absolute>84480</Absolute>
    <NoteOn Channel="10" Note="83" Velocity="61"/>
  </Event>
  <Event>
    <Absolute>84736</Absolute>
    <NoteOff Channel="10" Note="42" Velocity="0"/>
  </Event>
  <Event>
    <Absolute>84736</Absolute>
    <NoteOff Channel="10" Note="83" Velocity="0"/>
  </Event>
  <Event>
    <Absolute>84864</Absolute>
    <NoteOff Channel="10" Note="36" Velocity="0"/>
  </Event>
  <Event>
    <Absolute>84864</Absolute>
    <NoteOn Channel="10" Note="42" Velocity="76"/>
  </Event>
  <Event>
    <Absolute>84864</Absolute>
    <NoteOn Channel="10" Note="38" Velocity="126"/>
  </Event>
  <Event>
    <Absolute>84864</Absolute>
    <NoteOn Channel="10" Note="83" Velocity="61"/>
  </Event>
  <Event>
    <Absolute>84992</Absolute>
    <NoteOff Channel="10" Note="38" Velocity="0"/>
  </Event>
  <Event>
    <Absolute>85120</Absolute>
    <NoteOff Channel="10" Note="42" Velocity="0"/>
  </Event>
  <Event>
    <Absolute>85120</Absolute>
    <NoteOff Channel="10" Note="83" Velocity="0"/>
  </Event>
  <Event>
    <Absolute>85248</Absolute>
    <NoteOn Channel="10" Note="83" Velocity="61"/>
  </Event>
  <Event>
    <Absolute>85248</Absolute>
    <NoteOn Channel="10" Note="36" Velocity="126"/>
  </Event>
  <Event>
    <Absolute>85248</Absolute>
    <NoteOn Channel="10" Note="42" Velocity="76"/>
  </Event>
  <Event>
    <Absolute>85376</Absolute>
    <NoteOff Channel="10" Note="36" Velocity="0"/>
  </Event>
  <Event>
    <Absolute>85504</Absolute>
    <NoteOff Channel="10" Note="83" Velocity="0"/>
  </Event>
  <Event>
    <Absolute>85504</Absolute>
    <NoteOff Channel="10" Note="42" Velocity="0"/>
  </Event>
  <Event>
    <Absolute>85504</Absolute>
    <NoteOn Channel="10" Note="36" Velocity="126"/>
  </Event>
  <Event>
    <Absolute>85632</Absolute>
    <NoteOff Channel="10" Note="36" Velocity="0"/>
  </Event>
  <Event>
    <Absolute>85632</Absolute>
    <NoteOn Channel="10" Note="83" Velocity="61"/>
  </Event>
  <Event>
    <Absolute>85632</Absolute>
    <NoteOn Channel="10" Note="38" Velocity="126"/>
  </Event>
  <Event>
    <Absolute>85632</Absolute>
    <NoteOn Channel="10" Note="42" Velocity="76"/>
  </Event>
  <Event>
    <Absolute>85760</Absolute>
    <NoteOff Channel="10" Note="38" Velocity="0"/>
  </Event>
  <Event>
    <Absolute>85888</Absolute>
    <NoteOff Channel="10" Note="83" Velocity="0"/>
  </Event>
  <Event>
    <Absolute>85888</Absolute>
    <NoteOff Channel="10" Note="42" Velocity="0"/>
  </Event>
  <Event>
    <Absolute>86016</Absolute>
    <NoteOn Channel="10" Note="42" Velocity="76"/>
  </Event>
  <Event>
    <Absolute>86016</Absolute>
    <NoteOn Channel="10" Note="36" Velocity="126"/>
  </Event>
  <Event>
    <Absolute>86016</Absolute>
    <NoteOn Channel="10" Note="83" Velocity="61"/>
  </Event>
  <Event>
    <Absolute>86272</Absolute>
    <NoteOff Channel="10" Note="42" Velocity="0"/>
  </Event>
  <Event>
    <Absolute>86272</Absolute>
    <NoteOff Channel="10" Note="36" Velocity="0"/>
  </Event>
  <Event>
    <Absolute>86272</Absolute>
    <NoteOff Channel="10" Note="83" Velocity="0"/>
  </Event>
  <Event>
    <Absolute>86400</Absolute>
    <NoteOn Channel="10" Note="42" Velocity="76"/>
  </Event>
  <Event>
    <Absolute>86400</Absolute>
    <NoteOn Channel="10" Note="83" Velocity="61"/>
  </Event>
  <Event>
    <Absolute>86400</Absolute>
    <NoteOn Channel="10" Note="38" Velocity="126"/>
  </Event>
  <Event>
    <Absolute>86528</Absolute>
    <NoteOff Channel="10" Note="38" Velocity="0"/>
  </Event>
  <Event>
    <Absolute>86656</Absolute>
    <NoteOff Channel="10" Note="42" Velocity="0"/>
  </Event>
  <Event>
    <Absolute>86656</Absolute>
    <NoteOff Channel="10" Note="83" Velocity="0"/>
  </Event>
  <Event>
    <Absolute>86784</Absolute>
    <NoteOn Channel="10" Note="42" Velocity="76"/>
  </Event>
  <Event>
    <Absolute>86784</Absolute>
    <NoteOn Channel="10" Note="36" Velocity="126"/>
  </Event>
  <Event>
    <Absolute>86784</Absolute>
    <NoteOn Channel="10" Note="83" Velocity="61"/>
  </Event>
  <Event>
    <Absolute>86912</Absolute>
    <NoteOff Channel="10" Note="36" Velocity="0"/>
  </Event>
  <Event>
    <Absolute>87040</Absolute>
    <NoteOff Channel="10" Note="42" Velocity="0"/>
  </Event>
  <Event>
    <Absolute>87040</Absolute>
    <NoteOff Channel="10" Note="83" Velocity="0"/>
  </Event>
  <Event>
    <Absolute>87040</Absolute>
    <NoteOn Channel="10" Note="36" Velocity="126"/>
  </Event>
  <Event>
    <Absolute>87168</Absolute>
    <NoteOff Channel="10" Note="36" Velocity="0"/>
  </Event>
  <Event>
    <Absolute>87168</Absolute>
    <NoteOn Channel="10" Note="42" Velocity="76"/>
  </Event>
  <Event>
    <Absolute>87168</Absolute>
    <NoteOn Channel="10" Note="83" Velocity="61"/>
  </Event>
  <Event>
    <Absolute>87168</Absolute>
    <NoteOn Channel="10" Note="38" Velocity="126"/>
  </Event>
  <Event>
    <Absolute>87296</Absolute>
    <NoteOff Channel="10" Note="38" Velocity="0"/>
  </Event>
  <Event>
    <Absolute>87424</Absolute>
    <NoteOff Channel="10" Note="42" Velocity="0"/>
  </Event>
  <Event>
    <Absolute>87424</Absolute>
    <NoteOff Channel="10" Note="83" Velocity="0"/>
  </Event>
  <Event>
    <Absolute>87552</Absolute>
    <NoteOn Channel="10" Note="42" Velocity="76"/>
  </Event>
  <Event>
    <Absolute>87552</Absolute>
    <NoteOn Channel="10" Note="83" Velocity="61"/>
  </Event>
  <Event>
    <Absolute>87552</Absolute>
    <NoteOn Channel="10" Note="36" Velocity="126"/>
  </Event>
  <Event>
    <Absolute>87808</Absolute>
    <NoteOff Channel="10" Note="42" Velocity="0"/>
  </Event>
  <Event>
    <Absolute>87808</Absolute>
    <NoteOff Channel="10" Note="83" Velocity="0"/>
  </Event>
  <Event>
    <Absolute>87808</Absolute>
    <NoteOff Channel="10" Note="36" Velocity="0"/>
  </Event>
  <Event>
    <Absolute>87936</Absolute>
    <NoteOn Channel="10" Note="42" Velocity="76"/>
  </Event>
  <Event>
    <Absolute>87936</Absolute>
    <NoteOn Channel="10" Note="83" Velocity="61"/>
  </Event>
  <Event>
    <Absolute>87936</Absolute>
    <NoteOn Channel="10" Note="38" Velocity="126"/>
  </Event>
  <Event>
    <Absolute>88064</Absolute>
    <NoteOff Channel="10" Note="38" Velocity="0"/>
  </Event>
  <Event>
    <Absolute>88192</Absolute>
    <NoteOff Channel="10" Note="42" Velocity="0"/>
  </Event>
  <Event>
    <Absolute>88192</Absolute>
    <NoteOff Channel="10" Note="83" Velocity="0"/>
  </Event>
  <Event>
    <Absolute>88320</Absolute>
    <NoteOn Channel="10" Note="42" Velocity="76"/>
  </Event>
  <Event>
    <Absolute>88320</Absolute>
    <NoteOn Channel="10" Note="83" Velocity="61"/>
  </Event>
  <Event>
    <Absolute>88320</Absolute>
    <NoteOn Channel="10" Note="36" Velocity="126"/>
  </Event>
  <Event>
    <Absolute>88448</Absolute>
    <NoteOff Channel="10" Note="83" Velocity="0"/>
  </Event>
  <Event>
    <Absolute>88448</Absolute>
    <NoteOff Channel="10" Note="36" Velocity="0"/>
  </Event>
  <Event>
    <Absolute>88576</Absolute>
    <NoteOff Channel="10" Note="42" Velocity="0"/>
  </Event>
  <Event>
    <Absolute>88576</Absolute>
    <NoteOn Channel="10" Note="36" Velocity="126"/>
  </Event>
  <Event>
    <Absolute>88704</Absolute>
    <NoteOff Channel="10" Note="36" Velocity="0"/>
  </Event>
  <Event>
    <Absolute>88704</Absolute>
    <NoteOn Channel="10" Note="83" Velocity="61"/>
  </Event>
  <Event>
    <Absolute>88704</Absolute>
    <NoteOn Channel="10" Note="42" Velocity="76"/>
  </Event>
  <Event>
    <Absolute>88704</Absolute>
    <NoteOn Channel="10" Note="38" Velocity="126"/>
  </Event>
  <Event>
    <Absolute>88832</Absolute>
    <NoteOff Channel="10" Note="83" Velocity="0"/>
  </Event>
  <Event>
    <Absolute>88832</Absolute>
    <NoteOff Channel="10" Note="38" Velocity="0"/>
  </Event>
  <Event>
    <Absolute>88960</Absolute>
    <NoteOff Channel="10" Note="42" Velocity="0"/>
  </Event>
  <Event>
    <Absolute>89088</Absolute>
    <NoteOn Channel="10" Note="83" Velocity="61"/>
  </Event>
  <Event>
    <Absolute>89088</Absolute>
    <NoteOn Channel="10" Note="42" Velocity="76"/>
  </Event>
  <Event>
    <Absolute>89088</Absolute>
    <NoteOn Channel="10" Note="36" Velocity="126"/>
  </Event>
  <Event>
    <Absolute>89216</Absolute>
    <NoteOff Channel="10" Note="83" Velocity="0"/>
  </Event>
  <Event>
    <Absolute>89344</Absolute>
    <NoteOff Channel="10" Note="42" Velocity="0"/>
  </Event>
  <Event>
    <Absolute>89472</Absolute>
    <NoteOff Channel="10" Note="36" Velocity="0"/>
  </Event>
  <Event>
    <Absolute>89472</Absolute>
    <NoteOn Channel="10" Note="83" Velocity="61"/>
  </Event>
  <Event>
    <Absolute>89472</Absolute>
    <NoteOn Channel="10" Note="38" Velocity="126"/>
  </Event>
  <Event>
    <Absolute>89472</Absolute>
    <NoteOn Channel="10" Note="42" Velocity="76"/>
  </Event>
  <Event>
    <Absolute>89600</Absolute>
    <NoteOff Channel="10" Note="38" Velocity="0"/>
  </Event>
  <Event>
    <Absolute>89728</Absolute>
    <NoteOff Channel="10" Note="83" Velocity="0"/>
  </Event>
  <Event>
    <Absolute>89728</Absolute>
    <NoteOff Channel="10" Note="42" Velocity="0"/>
  </Event>
  <Event>
    <Absolute>89728</Absolute>
    <NoteOn Channel="10" Note="36" Velocity="126"/>
  </Event>
  <Event>
    <Absolute>89856</Absolute>
    <NoteOff Channel="10" Note="36" Velocity="0"/>
  </Event>
  <Event>
    <Absolute>89856</Absolute>
    <NoteOn Channel="10" Note="42" Velocity="76"/>
  </Event>
  <Event>
    <Absolute>89856</Absolute>
    <NoteOn Channel="10" Note="83" Velocity="61"/>
  </Event>
  <Event>
    <Absolute>90112</Absolute>
    <NoteOff Channel="10" Note="42" Velocity="0"/>
  </Event>
  <Event>
    <Absolute>90112</Absolute>
    <NoteOff Channel="10" Note="83" Velocity="0"/>
  </Event>
  <Event>
    <Absolute>90112</Absolute>
    <NoteOn Channel="10" Note="36" Velocity="126"/>
  </Event>
  <Event>
    <Absolute>90240</Absolute>
    <NoteOff Channel="10" Note="36" Velocity="0"/>
  </Event>
  <Event>
    <Absolute>90240</Absolute>
    <NoteOn Channel="10" Note="38" Velocity="126"/>
  </Event>
  <Event>
    <Absolute>90240</Absolute>
    <NoteOn Channel="10" Note="42" Velocity="76"/>
  </Event>
  <Event>
    <Absolute>90240</Absolute>
    <NoteOn Channel="10" Note="83" Velocity="61"/>
  </Event>
  <Event>
    <Absolute>90368</Absolute>
    <NoteOff Channel="10" Note="38" Velocity="0"/>
  </Event>
  <Event>
    <Absolute>90496</Absolute>
    <NoteOff Channel="10" Note="42" Velocity="0"/>
  </Event>
  <Event>
    <Absolute>90496</Absolute>
    <NoteOff Channel="10" Note="83" Velocity="0"/>
  </Event>
  <Event>
    <Absolute>90624</Absolute>
    <NoteOn Channel="10" Note="83" Velocity="61"/>
  </Event>
  <Event>
    <Absolute>90624</Absolute>
    <NoteOn Channel="10" Note="36" Velocity="126"/>
  </Event>
  <Event>
    <Absolute>90624</Absolute>
    <NoteOn Channel="10" Note="42" Velocity="76"/>
  </Event>
  <Event>
    <Absolute>90880</Absolute>
    <NoteOff Channel="10" Note="83" Velocity="0"/>
  </Event>
  <Event>
    <Absolute>90880</Absolute>
    <NoteOff Channel="10" Note="36" Velocity="0"/>
  </Event>
  <Event>
    <Absolute>90880</Absolute>
    <NoteOff Channel="10" Note="42" Velocity="0"/>
  </Event>
  <Event>
    <Absolute>91008</Absolute>
    <NoteOn Channel="10" Note="42" Velocity="76"/>
  </Event>
  <Event>
    <Absolute>91008</Absolute>
    <NoteOn Channel="10" Note="83" Velocity="61"/>
  </Event>
  <Event>
    <Absolute>91008</Absolute>
    <NoteOn Channel="10" Note="38" Velocity="126"/>
  </Event>
  <Event>
    <Absolute>91136</Absolute>
    <NoteOff Channel="10" Note="38" Velocity="0"/>
  </Event>
  <Event>
    <Absolute>91264</Absolute>
    <NoteOff Channel="10" Note="42" Velocity="0"/>
  </Event>
  <Event>
    <Absolute>91264</Absolute>
    <NoteOff Channel="10" Note="83" Velocity="0"/>
  </Event>
  <Event>
    <Absolute>91392</Absolute>
    <NoteOn Channel="10" Note="42" Velocity="76"/>
  </Event>
  <Event>
    <Absolute>91392</Absolute>
    <NoteOn Channel="10" Note="36" Velocity="126"/>
  </Event>
  <Event>
    <Absolute>91392</Absolute>
    <NoteOn Channel="10" Note="83" Velocity="61"/>
  </Event>
  <Event>
    <Absolute>91520</Absolute>
    <NoteOff Channel="10" Note="36" Velocity="0"/>
  </Event>
  <Event>
    <Absolute>91648</Absolute>
    <NoteOff Channel="10" Note="42" Velocity="0"/>
  </Event>
  <Event>
    <Absolute>91648</Absolute>
    <NoteOff Channel="10" Note="83" Velocity="0"/>
  </Event>
  <Event>
    <Absolute>91648</Absolute>
    <NoteOn Channel="10" Note="36" Velocity="126"/>
  </Event>
  <Event>
    <Absolute>91776</Absolute>
    <NoteOff Channel="10" Note="36" Velocity="0"/>
  </Event>
  <Event>
    <Absolute>91776</Absolute>
    <NoteOn Channel="10" Note="83" Velocity="61"/>
  </Event>
  <Event>
    <Absolute>91776</Absolute>
    <NoteOn Channel="10" Note="38" Velocity="126"/>
  </Event>
  <Event>
    <Absolute>91776</Absolute>
    <NoteOn Channel="10" Note="42" Velocity="76"/>
  </Event>
  <Event>
    <Absolute>91904</Absolute>
    <NoteOff Channel="10" Note="38" Velocity="0"/>
  </Event>
  <Event>
    <Absolute>92032</Absolute>
    <NoteOff Channel="10" Note="83" Velocity="0"/>
  </Event>
  <Event>
    <Absolute>92032</Absolute>
    <NoteOff Channel="10" Note="42" Velocity="0"/>
  </Event>
  <Event>
    <Absolute>92160</Absolute>
    <NoteOn Channel="10" Note="42" Velocity="76"/>
  </Event>
  <Event>
    <Absolute>92160</Absolute>
    <NoteOn Channel="10" Note="36" Velocity="126"/>
  </Event>
  <Event>
    <Absolute>92160</Absolute>
    <NoteOn Channel="10" Note="83" Velocity="61"/>
  </Event>
  <Event>
    <Absolute>92288</Absolute>
    <NoteOff Channel="10" Note="36" Velocity="0"/>
  </Event>
  <Event>
    <Absolute>92416</Absolute>
    <NoteOff Channel="10" Note="42" Velocity="0"/>
  </Event>
  <Event>
    <Absolute>92416</Absolute>
    <NoteOff Channel="10" Note="83" Velocity="0"/>
  </Event>
  <Event>
    <Absolute>92544</Absolute>
    <NoteOn Channel="10" Note="38" Velocity="126"/>
  </Event>
  <Event>
    <Absolute>92544</Absolute>
    <NoteOn Channel="10" Note="83" Velocity="61"/>
  </Event>
  <Event>
    <Absolute>92544</Absolute>
    <NoteOn Channel="10" Note="42" Velocity="76"/>
  </Event>
  <Event>
    <Absolute>92672</Absolute>
    <NoteOff Channel="10" Note="38" Velocity="0"/>
  </Event>
  <Event>
    <Absolute>92800</Absolute>
    <NoteOff Channel="10" Note="83" Velocity="0"/>
  </Event>
  <Event>
    <Absolute>92800</Absolute>
    <NoteOff Channel="10" Note="42" Velocity="0"/>
  </Event>
  <Event>
    <Absolute>92928</Absolute>
    <NoteOn Channel="10" Note="36" Velocity="126"/>
  </Event>
  <Event>
    <Absolute>92928</Absolute>
    <NoteOn Channel="10" Note="83" Velocity="61"/>
  </Event>
  <Event>
    <Absolute>92928</Absolute>
    <NoteOn Channel="10" Note="42" Velocity="76"/>
  </Event>
  <Event>
    <Absolute>93056</Absolute>
    <NoteOff Channel="10" Note="36" Velocity="0"/>
  </Event>
  <Event>
    <Absolute>93184</Absolute>
    <NoteOff Channel="10" Note="83" Velocity="0"/>
  </Event>
  <Event>
    <Absolute>93184</Absolute>
    <NoteOff Channel="10" Note="42" Velocity="0"/>
  </Event>
  <Event>
    <Absolute>93184</Absolute>
    <NoteOn Channel="10" Note="36" Velocity="126"/>
  </Event>
  <Event>
    <Absolute>93312</Absolute>
    <NoteOff Channel="10" Note="36" Velocity="0"/>
  </Event>
  <Event>
    <Absolute>93312</Absolute>
    <NoteOn Channel="10" Note="83" Velocity="61"/>
  </Event>
  <Event>
    <Absolute>93312</Absolute>
    <NoteOn Channel="10" Note="38" Velocity="126"/>
  </Event>
  <Event>
    <Absolute>93312</Absolute>
    <NoteOn Channel="10" Note="42" Velocity="76"/>
  </Event>
  <Event>
    <Absolute>93440</Absolute>
    <NoteOff Channel="10" Note="38" Velocity="0"/>
  </Event>
  <Event>
    <Absolute>93568</Absolute>
    <NoteOff Channel="10" Note="83" Velocity="0"/>
  </Event>
  <Event>
    <Absolute>93568</Absolute>
    <NoteOff Channel="10" Note="42" Velocity="0"/>
  </Event>
  <Event>
    <Absolute>93696</Absolute>
    <NoteOn Channel="10" Note="36" Velocity="126"/>
  </Event>
  <Event>
    <Absolute>93696</Absolute>
    <NoteOn Channel="10" Note="42" Velocity="76"/>
  </Event>
  <Event>
    <Absolute>93696</Absolute>
    <NoteOn Channel="10" Note="83" Velocity="61"/>
  </Event>
  <Event>
    <Absolute>93952</Absolute>
    <NoteOff Channel="10" Note="36" Velocity="0"/>
  </Event>
  <Event>
    <Absolute>93952</Absolute>
    <NoteOff Channel="10" Note="42" Velocity="0"/>
  </Event>
  <Event>
    <Absolute>93952</Absolute>
    <NoteOff Channel="10" Note="83" Velocity="0"/>
  </Event>
  <Event>
    <Absolute>94080</Absolute>
    <NoteOn Channel="10" Note="38" Velocity="126"/>
  </Event>
  <Event>
    <Absolute>94080</Absolute>
    <NoteOn Channel="10" Note="42" Velocity="76"/>
  </Event>
  <Event>
    <Absolute>94080</Absolute>
    <NoteOn Channel="10" Note="83" Velocity="61"/>
  </Event>
  <Event>
    <Absolute>94208</Absolute>
    <NoteOff Channel="10" Note="38" Velocity="0"/>
  </Event>
  <Event>
    <Absolute>94336</Absolute>
    <NoteOff Channel="10" Note="42" Velocity="0"/>
  </Event>
  <Event>
    <Absolute>94336</Absolute>
    <NoteOff Channel="10" Note="83" Velocity="0"/>
  </Event>
  <Event>
    <Absolute>94464</Absolute>
    <NoteOn Channel="10" Note="36" Velocity="126"/>
  </Event>
  <Event>
    <Absolute>94464</Absolute>
    <NoteOn Channel="10" Note="83" Velocity="61"/>
  </Event>
  <Event>
    <Absolute>94464</Absolute>
    <NoteOn Channel="10" Note="42" Velocity="76"/>
  </Event>
  <Event>
    <Absolute>94592</Absolute>
    <NoteOff Channel="10" Note="36" Velocity="0"/>
  </Event>
  <Event>
    <Absolute>94720</Absolute>
    <NoteOff Channel="10" Note="83" Velocity="0"/>
  </Event>
  <Event>
    <Absolute>94720</Absolute>
    <NoteOff Channel="10" Note="42" Velocity="0"/>
  </Event>
  <Event>
    <Absolute>94720</Absolute>
    <NoteOn Channel="10" Note="36" Velocity="126"/>
  </Event>
  <Event>
    <Absolute>94848</Absolute>
    <NoteOff Channel="10" Note="36" Velocity="0"/>
  </Event>
  <Event>
    <Absolute>94848</Absolute>
    <NoteOn Channel="10" Note="38" Velocity="126"/>
  </Event>
  <Event>
    <Absolute>94848</Absolute>
    <NoteOn Channel="10" Note="42" Velocity="76"/>
  </Event>
  <Event>
    <Absolute>94848</Absolute>
    <NoteOn Channel="10" Note="83" Velocity="61"/>
  </Event>
  <Event>
    <Absolute>94976</Absolute>
    <NoteOff Channel="10" Note="38" Velocity="0"/>
  </Event>
  <Event>
    <Absolute>95104</Absolute>
    <NoteOff Channel="10" Note="42" Velocity="0"/>
  </Event>
  <Event>
    <Absolute>95104</Absolute>
    <NoteOff Channel="10" Note="83" Velocity="0"/>
  </Event>
  <Event>
    <Absolute>95232</Absolute>
    <NoteOn Channel="10" Note="36" Velocity="126"/>
  </Event>
  <Event>
    <Absolute>95232</Absolute>
    <NoteOn Channel="10" Note="83" Velocity="61"/>
  </Event>
  <Event>
    <Absolute>95232</Absolute>
    <NoteOn Channel="10" Note="42" Velocity="76"/>
  </Event>
  <Event>
    <Absolute>95488</Absolute>
    <NoteOff Channel="10" Note="36" Velocity="0"/>
  </Event>
  <Event>
    <Absolute>95488</Absolute>
    <NoteOff Channel="10" Note="83" Velocity="0"/>
  </Event>
  <Event>
    <Absolute>95488</Absolute>
    <NoteOff Channel="10" Note="42" Velocity="0"/>
  </Event>
  <Event>
    <Absolute>95616</Absolute>
    <NoteOn Channel="10" Note="38" Velocity="126"/>
  </Event>
  <Event>
    <Absolute>95616</Absolute>
    <NoteOn Channel="10" Note="83" Velocity="61"/>
  </Event>
  <Event>
    <Absolute>95616</Absolute>
    <NoteOn Channel="10" Note="42" Velocity="76"/>
  </Event>
  <Event>
    <Absolute>95744</Absolute>
    <NoteOff Channel="10" Note="38" Velocity="0"/>
  </Event>
  <Event>
    <Absolute>95872</Absolute>
    <NoteOff Channel="10" Note="83" Velocity="0"/>
  </Event>
  <Event>
    <Absolute>95872</Absolute>
    <NoteOff Channel="10" Note="42" Velocity="0"/>
  </Event>
  <Event>
    <Absolute>96000</Absolute>
    <NoteOn Channel="10" Note="36" Velocity="126"/>
  </Event>
  <Event>
    <Absolute>96000</Absolute>
    <NoteOn Channel="10" Note="42" Velocity="76"/>
  </Event>
  <Event>
    <Absolute>96000</Absolute>
    <NoteOn Channel="10" Note="83" Velocity="61"/>
  </Event>
  <Event>
    <Absolute>96128</Absolute>
    <NoteOff Channel="10" Note="36" Velocity="0"/>
  </Event>
  <Event>
    <Absolute>96256</Absolute>
    <NoteOff Channel="10" Note="42" Velocity="0"/>
  </Event>
  <Event>
    <Absolute>96256</Absolute>
    <NoteOff Channel="10" Note="83" Velocity="0"/>
  </Event>
  <Event>
    <Absolute>96256</Absolute>
    <NoteOn Channel="10" Note="36" Velocity="126"/>
  </Event>
  <Event>
    <Absolute>96384</Absolute>
    <NoteOff Channel="10" Note="36" Velocity="0"/>
  </Event>
  <Event>
    <Absolute>96384</Absolute>
    <NoteOn Channel="10" Note="42" Velocity="76"/>
  </Event>
  <Event>
    <Absolute>96384</Absolute>
    <NoteOn Channel="10" Note="38" Velocity="126"/>
  </Event>
  <Event>
    <Absolute>96384</Absolute>
    <NoteOn Channel="10" Note="83" Velocity="61"/>
  </Event>
  <Event>
    <Absolute>96512</Absolute>
    <NoteOff Channel="10" Note="38" Velocity="0"/>
  </Event>
  <Event>
    <Absolute>96640</Absolute>
    <NoteOff Channel="10" Note="42" Velocity="0"/>
  </Event>
  <Event>
    <Absolute>96640</Absolute>
    <NoteOff Channel="10" Note="83" Velocity="0"/>
  </Event>
  <Event>
    <Absolute>96768</Absolute>
    <NoteOn Channel="10" Note="42" Velocity="76"/>
  </Event>
  <Event>
    <Absolute>96768</Absolute>
    <NoteOn Channel="10" Note="36" Velocity="126"/>
  </Event>
  <Event>
    <Absolute>96768</Absolute>
    <NoteOn Channel="10" Note="83" Velocity="61"/>
  </Event>
  <Event>
    <Absolute>97024</Absolute>
    <NoteOff Channel="10" Note="42" Velocity="0"/>
  </Event>
  <Event>
    <Absolute>97024</Absolute>
    <NoteOff Channel="10" Note="36" Velocity="0"/>
  </Event>
  <Event>
    <Absolute>97024</Absolute>
    <NoteOff Channel="10" Note="83" Velocity="0"/>
  </Event>
  <Event>
    <Absolute>97152</Absolute>
    <NoteOn Channel="10" Note="42" Velocity="76"/>
  </Event>
  <Event>
    <Absolute>97152</Absolute>
    <NoteOn Channel="10" Note="38" Velocity="126"/>
  </Event>
  <Event>
    <Absolute>97152</Absolute>
    <NoteOn Channel="10" Note="83" Velocity="61"/>
  </Event>
  <Event>
    <Absolute>97280</Absolute>
    <NoteOff Channel="10" Note="38" Velocity="0"/>
  </Event>
  <Event>
    <Absolute>97408</Absolute>
    <NoteOff Channel="10" Note="42" Velocity="0"/>
  </Event>
  <Event>
    <Absolute>97408</Absolute>
    <NoteOff Channel="10" Note="83" Velocity="0"/>
  </Event>
  <Event>
    <Absolute>97536</Absolute>
    <NoteOn Channel="10" Note="42" Velocity="76"/>
  </Event>
  <Event>
    <Absolute>97536</Absolute>
    <NoteOn Channel="10" Note="36" Velocity="126"/>
  </Event>
  <Event>
    <Absolute>97536</Absolute>
    <NoteOn Channel="10" Note="83" Velocity="61"/>
  </Event>
  <Event>
    <Absolute>97664</Absolute>
    <NoteOff Channel="10" Note="36" Velocity="0"/>
  </Event>
  <Event>
    <Absolute>97792</Absolute>
    <NoteOff Channel="10" Note="42" Velocity="0"/>
  </Event>
  <Event>
    <Absolute>97792</Absolute>
    <NoteOff Channel="10" Note="83" Velocity="0"/>
  </Event>
  <Event>
    <Absolute>97792</Absolute>
    <NoteOn Channel="10" Note="36" Velocity="126"/>
  </Event>
  <Event>
    <Absolute>97920</Absolute>
    <NoteOn Channel="10" Note="38" Velocity="126"/>
  </Event>
  <Event>
    <Absolute>97920</Absolute>
    <NoteOn Channel="10" Note="42" Velocity="76"/>
  </Event>
  <Event>
    <Absolute>97920</Absolute>
    <NoteOn Channel="10" Note="83" Velocity="61"/>
  </Event>
  <Event>
    <Absolute>98048</Absolute>
    <NoteOff Channel="10" Note="36" Velocity="0"/>
  </Event>
  <Event>
    <Absolute>98048</Absolute>
    <NoteOff Channel="10" Note="38" Velocity="0"/>
  </Event>
  <Event>
    <Absolute>98176</Absolute>
    <NoteOff Channel="10" Note="42" Velocity="0"/>
  </Event>
  <Event>
    <Absolute>98176</Absolute>
    <NoteOff Channel="10" Note="83" Velocity="0"/>
  </Event>
  <Event>
    <Absolute>98304</Absolute>
    <NoteOn Channel="10" Note="42" Velocity="76"/>
  </Event>
  <Event>
    <Absolute>98304</Absolute>
    <NoteOn Channel="10" Note="36" Velocity="126"/>
  </Event>
  <Event>
    <Absolute>98304</Absolute>
    <NoteOn Channel="10" Note="83" Velocity="61"/>
  </Event>
  <Event>
    <Absolute>98560</Absolute>
    <NoteOff Channel="10" Note="42" Velocity="0"/>
  </Event>
  <Event>
    <Absolute>98560</Absolute>
    <NoteOff Channel="10" Note="36" Velocity="0"/>
  </Event>
  <Event>
    <Absolute>98560</Absolute>
    <NoteOff Channel="10" Note="83" Velocity="0"/>
  </Event>
  <Event>
    <Absolute>98688</Absolute>
    <NoteOn Channel="10" Note="42" Velocity="76"/>
  </Event>
  <Event>
    <Absolute>98688</Absolute>
    <NoteOn Channel="10" Note="38" Velocity="126"/>
  </Event>
  <Event>
    <Absolute>98688</Absolute>
    <NoteOn Channel="10" Note="83" Velocity="61"/>
  </Event>
  <Event>
    <Absolute>98816</Absolute>
    <NoteOff Channel="10" Note="38" Velocity="0"/>
  </Event>
  <Event>
    <Absolute>98816</Absolute>
    <NoteOff Channel="10" Note="83" Velocity="0"/>
  </Event>
  <Event>
    <Absolute>98944</Absolute>
    <NoteOff Channel="10" Note="42" Velocity="0"/>
  </Event>
  <Event>
    <Absolute>99072</Absolute>
    <NoteOn Channel="10" Note="36" Velocity="126"/>
  </Event>
  <Event>
    <Absolute>99072</Absolute>
    <NoteOn Channel="10" Note="83" Velocity="61"/>
  </Event>
  <Event>
    <Absolute>99072</Absolute>
    <NoteOn Channel="10" Note="42" Velocity="76"/>
  </Event>
  <Event>
    <Absolute>99200</Absolute>
    <NoteOff Channel="10" Note="36" Velocity="0"/>
  </Event>
  <Event>
    <Absolute>99200</Absolute>
    <NoteOff Channel="10" Note="83" Velocity="0"/>
  </Event>
  <Event>
    <Absolute>99328</Absolute>
    <NoteOff Channel="10" Note="42" Velocity="0"/>
  </Event>
  <Event>
    <Absolute>99328</Absolute>
    <NoteOn Channel="10" Note="36" Velocity="126"/>
  </Event>
  <Event>
    <Absolute>99456</Absolute>
    <NoteOff Channel="10" Note="36" Velocity="0"/>
  </Event>
  <Event>
    <Absolute>99456</Absolute>
    <NoteOn Channel="10" Note="38" Velocity="126"/>
  </Event>
  <Event>
    <Absolute>99456</Absolute>
    <NoteOn Channel="10" Note="42" Velocity="76"/>
  </Event>
  <Event>
    <Absolute>99456</Absolute>
    <NoteOn Channel="10" Note="83" Velocity="61"/>
  </Event>
  <Event>
    <Absolute>99584</Absolute>
    <NoteOff Channel="10" Note="38" Velocity="0"/>
  </Event>
  <Event>
    <Absolute>99584</Absolute>
    <NoteOff Channel="10" Note="83" Velocity="0"/>
  </Event>
  <Event>
    <Absolute>99712</Absolute>
    <NoteOff Channel="10" Note="42" Velocity="0"/>
  </Event>
  <Event>
    <Absolute>105808</Absolute>
    <NoteOn Channel="10" Note="54" Velocity="127"/>
  </Event>
  <Event>
    <Absolute>105836</Absolute>
    <NoteOff Channel="10" Note="54" Velocity="0"/>
  </Event>
  <Event>
    <Absolute>105860</Absolute>
    <NoteOn Channel="10" Note="54" Velocity="127"/>
  </Event>
  <Event>
    <Absolute>105888</Absolute>
    <NoteOff Channel="10" Note="54" Velocity="0"/>
  </Event>
  <Event>
    <Absolute>105928</Absolute>
    <NoteOn Channel="10" Note="54" Velocity="127"/>
  </Event>
  <Event>
    <Absolute>105968</Absolute>
    <NoteOff Channel="10" Note="54" Velocity="0"/>
  </Event>
  <Event>
    <Absolute>105984</Absolute>
    <NoteOn Channel="10" Note="54" Velocity="127"/>
  </Event>
  <Event>
    <Absolute>106008</Absolute>
    <NoteOn Channel="10" Note="54" Velocity="127"/>
  </Event>
  <Event>
    <Absolute>106032</Absolute>
    <NoteOff Channel="10" Note="54" Velocity="0"/>
  </Event>
  <Event>
    <Absolute>106048</Absolute>
    <NoteOff Channel="10" Note="54" Velocity="0"/>
  </Event>
  <Event>
    <Absolute>108872</Absolute>
    <NoteOn Channel="10" Note="54" Velocity="127"/>
  </Event>
  <Event>
    <Absolute>108912</Absolute>
    <NoteOff Channel="10" Note="54" Velocity="0"/>
  </Event>
  <Event>
    <Absolute>108940</Absolute>
    <NoteOn Channel="10" Note="54" Velocity="127"/>
  </Event>
  <Event>
    <Absolute>108992</Absolute>
    <NoteOff Channel="10" Note="54" Velocity="0"/>
  </Event>
  <Event>
    <Absolute>109008</Absolute>
    <NoteOn Channel="10" Note="54" Velocity="127"/>
  </Event>
  <Event>
    <Absolute>109044</Absolute>
    <NoteOff Channel="10" Note="54" Velocity="0"/>
  </Event>
  <Event>
    <Absolute>109084</Absolute>
    <NoteOn Channel="10" Note="54" Velocity="127"/>
  </Event>
  <Event>
    <Absolute>109124</Absolute>
    <NoteOff Channel="10" Note="54" Velocity="0"/>
  </Event>
  <Event>
    <Absolute>111948</Absolute>
    <NoteOn Channel="10" Note="54" Velocity="127"/>
  </Event>
  <Event>
    <Absolute>111988</Absolute>
    <NoteOff Channel="10" Note="54" Velocity="0"/>
  </Event>
  <Event>
    <Absolute>112016</Absolute>
    <NoteOn Channel="10" Note="54" Velocity="127"/>
  </Event>
  <Event>
    <Absolute>112052</Absolute>
    <NoteOff Channel="10" Note="54" Velocity="0"/>
  </Event>
  <Event>
    <Absolute>112080</Absolute>
    <NoteOn Channel="10" Note="54" Velocity="127"/>
  </Event>
  <Event>
    <Absolute>112120</Absolute>
    <NoteOff Channel="10" Note="54" Velocity="0"/>
  </Event>
  <Event>
    <Absolute>112136</Absolute>
    <NoteOn Channel="10" Note="54" Velocity="127"/>
  </Event>
  <Event>
    <Absolute>112188</Absolute>
    <NoteOff Channel="10" Note="54" Velocity="0"/>
  </Event>
  <Event>
    <Absolute>114996</Absolute>
    <NoteOn Channel="10" Note="54" Velocity="127"/>
  </Event>
  <Event>
    <Absolute>115040</Absolute>
    <NoteOff Channel="10" Note="54" Velocity="0"/>
  </Event>
  <Event>
    <Absolute>115064</Absolute>
    <NoteOn Channel="10" Note="54" Velocity="127"/>
  </Event>
  <Event>
    <Absolute>115104</Absolute>
    <NoteOff Channel="10" Note="54" Velocity="0"/>
  </Event>
  <Event>
    <Absolute>115132</Absolute>
    <NoteOn Channel="10" Note="54" Velocity="127"/>
  </Event>
  <Event>
    <Absolute>115168</Absolute>
    <NoteOff Channel="10" Note="54" Velocity="0"/>
  </Event>
  <Event>
    <Absolute>115184</Absolute>
    <NoteOn Channel="10" Note="54" Velocity="127"/>
  </Event>
  <Event>
    <Absolute>115236</Absolute>
    <NoteOff Channel="10" Note="54" Velocity="0"/>
  </Event>
  <Event>
    <Absolute>118060</Absolute>
    <NoteOn Channel="10" Note="54" Velocity="127"/>
  </Event>
  <Event>
    <Absolute>118096</Absolute>
    <NoteOff Channel="10" Note="54" Velocity="0"/>
  </Event>
  <Event>
    <Absolute>118140</Absolute>
    <NoteOn Channel="10" Note="54" Velocity="127"/>
  </Event>
  <Event>
    <Absolute>118192</Absolute>
    <NoteOff Channel="10" Note="54" Velocity="0"/>
  </Event>
  <Event>
    <Absolute>118208</Absolute>
    <NoteOn Channel="10" Note="54" Velocity="127"/>
  </Event>
  <Event>
    <Absolute>118232</Absolute>
    <NoteOff Channel="10" Note="54" Velocity="0"/>
  </Event>
  <Event>
    <Absolute>118272</Absolute>
    <NoteOn Channel="10" Note="83" Velocity="56"/>
  </Event>
  <Event>
    <Absolute>118272</Absolute>
    <NoteOn Channel="10" Note="54" Velocity="127"/>
  </Event>
  <Event>
    <Absolute>118312</Absolute>
    <NoteOff Channel="10" Note="54" Velocity="0"/>
  </Event>
  <Event>
    <Absolute>118504</Absolute>
    <NoteOff Channel="10" Note="83" Velocity="0"/>
  </Event>
  <Event>
    <Absolute>118652</Absolute>
    <NoteOn Channel="10" Note="83" Velocity="56"/>
  </Event>
  <Event>
    <Absolute>118880</Absolute>
    <NoteOff Channel="10" Note="83" Velocity="0"/>
  </Event>
  <Event>
    <Absolute>119012</Absolute>
    <NoteOn Channel="10" Note="83" Velocity="56"/>
  </Event>
  <Event>
    <Absolute>119280</Absolute>
    <NoteOff Channel="10" Note="83" Velocity="0"/>
  </Event>
  <Event>
    <Absolute>119424</Absolute>
    <NoteOn Channel="10" Note="83" Velocity="56"/>
  </Event>
  <Event>
    <Absolute>119680</Absolute>
    <NoteOff Channel="10" Note="83" Velocity="0"/>
  </Event>
  <Event>
    <Absolute>119816</Absolute>
    <NoteOn Channel="10" Note="83" Velocity="56"/>
  </Event>
  <Event>
    <Absolute>120056</Absolute>
    <NoteOff Channel="10" Note="83" Velocity="0"/>
  </Event>
  <Event>
    <Absolute>120192</Absolute>
    <NoteOn Channel="10" Note="83" Velocity="56"/>
  </Event>
  <Event>
    <Absolute>120416</Absolute>
    <NoteOff Channel="10" Note="83" Velocity="0"/>
  </Event>
  <Event>
    <Absolute>120564</Absolute>
    <NoteOn Channel="10" Note="83" Velocity="56"/>
  </Event>
  <Event>
    <Absolute>120816</Absolute>
    <NoteOff Channel="10" Note="83" Velocity="0"/>
  </Event>
  <Event>
    <Absolute>120952</Absolute>
    <NoteOn Channel="10" Note="83" Velocity="56"/>
  </Event>
  <Event>
    <Absolute>121192</Absolute>
    <NoteOff Channel="10" Note="83" Velocity="0"/>
  </Event>
  <Event>
    <Absolute>121312</Absolute>
    <NoteOn Channel="10" Note="83" Velocity="56"/>
  </Event>
  <Event>
    <Absolute>121584</Absolute>
    <NoteOff Channel="10" Note="83" Velocity="0"/>
  </Event>
  <Event>
    <Absolute>121712</Absolute>
    <NoteOn Channel="10" Note="83" Velocity="56"/>
  </Event>
  <Event>
    <Absolute>121952</Absolute>
    <NoteOff Channel="10" Note="83" Velocity="0"/>
  </Event>
  <Event>
    <Absolute>122088</Absolute>
    <NoteOn Channel="10" Note="83" Velocity="56"/>
  </Event>
  <Event>
    <Absolute>122356</Absolute>
    <NoteOff Channel="10" Note="83" Velocity="0"/>
  </Event>
  <Event>
    <Absolute>122488</Absolute>
    <NoteOn Channel="10" Note="83" Velocity="56"/>
  </Event>
  <Event>
    <Absolute>122744</Absolute>
    <NoteOff Channel="10" Note="83" Velocity="0"/>
  </Event>
  <Event>
    <Absolute>122892</Absolute>
    <NoteOn Channel="10" Note="83" Velocity="56"/>
  </Event>
  <Event>
    <Absolute>123132</Absolute>
    <NoteOff Channel="10" Note="83" Velocity="0"/>
  </Event>
  <Event>
    <Absolute>123264</Absolute>
    <NoteOn Channel="10" Note="83" Velocity="56"/>
  </Event>
  <Event>
    <Absolute>123520</Absolute>
    <NoteOff Channel="10" Note="83" Velocity="0"/>
  </Event>
  <Event>
    <Absolute>123640</Absolute>
    <NoteOn Channel="10" Note="83" Velocity="56"/>
  </Event>
  <Event>
    <Absolute>123904</Absolute>
    <NoteOff Channel="10" Note="83" Velocity="0"/>
  </Event>
  <Event>
    <Absolute>124040</Absolute>
    <NoteOn Channel="10" Note="83" Velocity="56"/>
  </Event>
  <Event>
    <Absolute>124308</Absolute>
    <NoteOff Channel="10" Note="83" Velocity="0"/>
  </Event>
  <Event>
    <Absolute>124428</Absolute>
    <NoteOn Channel="10" Note="83" Velocity="56"/>
  </Event>
  <Event>
    <Absolute>124656</Absolute>
    <NoteOff Channel="10" Note="83" Velocity="0"/>
  </Event>
  <Event>
    <Absolute>124776</Absolute>
    <NoteOn Channel="10" Note="83" Velocity="56"/>
  </Event>
  <Event>
    <Absolute>125044</Absolute>
    <NoteOff Channel="10" Note="83" Velocity="0"/>
  </Event>
  <Event>
    <Absolute>125176</Absolute>
    <NoteOn Channel="10" Note="83" Velocity="56"/>
  </Event>
  <Event>
    <Absolute>125392</Absolute>
    <NoteOff Channel="10" Note="83" Velocity="0"/>
  </Event>
  <Event>
    <Absolute>125568</Absolute>
    <NoteOn Channel="10" Note="83" Velocity="56"/>
  </Event>
  <Event>
    <Absolute>125820</Absolute>
    <NoteOff Channel="10" Note="83" Velocity="0"/>
  </Event>
  <Event>
    <Absolute>125940</Absolute>
    <NoteOn Channel="10" Note="83" Velocity="56"/>
  </Event>
  <Event>
    <Absolute>126140</Absolute>
    <NoteOff Channel="10" Note="83" Velocity="0"/>
  </Event>
  <Event>
    <Absolute>126328</Absolute>
    <NoteOn Channel="10" Note="83" Velocity="56"/>
  </Event>
  <Event>
    <Absolute>126568</Absolute>
    <NoteOff Channel="10" Note="83" Velocity="0"/>
  </Event>
  <Event>
    <Absolute>126716</Absolute>
    <NoteOn Channel="10" Note="83" Velocity="56"/>
  </Event>
  <Event>
    <Absolute>126944</Absolute>
    <NoteOff Channel="10" Note="83" Velocity="0"/>
  </Event>
  <Event>
    <Absolute>127088</Absolute>
    <NoteOn Channel="10" Note="83" Velocity="56"/>
  </Event>
  <Event>
    <Absolute>127316</Absolute>
    <NoteOff Channel="10" Note="83" Velocity="0"/>
  </Event>
  <Event>
    <Absolute>127464</Absolute>
    <NoteOn Channel="10" Note="83" Velocity="56"/>
  </Event>
  <Event>
    <Absolute>127680</Absolute>
    <NoteOff Channel="10" Note="83" Velocity="0"/>
  </Event>
  <Event>
    <Absolute>127852</Absolute>
    <NoteOn Channel="10" Note="83" Velocity="56"/>
  </Event>
  <Event>
    <Absolute>128096</Absolute>
    <NoteOff Channel="10" Note="83" Velocity="0"/>
  </Event>
  <Event>
    <Absolute>128256</Absolute>
    <NoteOn Channel="10" Note="83" Velocity="56"/>
  </Event>
  <Event>
    <Absolute>128480</Absolute>
    <NoteOff Channel="10" Note="83" Velocity="0"/>
  </Event>
  <Event>
    <Absolute>128628</Absolute>
    <NoteOn Channel="10" Note="83" Velocity="56"/>
  </Event>
  <Event>
    <Absolute>128868</Absolute>
    <NoteOff Channel="10" Note="83" Velocity="0"/>
  </Event>
  <Event>
    <Absolute>129016</Absolute>
    <NoteOn Channel="10" Note="83" Velocity="56"/>
  </Event>
  <Event>
    <Absolute>129284</Absolute>
    <NoteOff Channel="10" Note="83" Velocity="0"/>
  </Event>
  <Event>
    <Absolute>129416</Absolute>
    <NoteOn Channel="10" Note="83" Velocity="56"/>
  </Event>
  <Event>
    <Absolute>129644</Absolute>
    <NoteOff Channel="10" Note="83" Velocity="0"/>
  </Event>
  <Event>
    <Absolute>129804</Absolute>
    <NoteOn Channel="10" Note="83" Velocity="56"/>
  </Event>
  <Event>
    <Absolute>130004</Absolute>
    <NoteOff Channel="10" Note="83" Velocity="0"/>
  </Event>
  <Event>
    <Absolute>130152</Absolute>
    <NoteOn Channel="10" Note="83" Velocity="56"/>
  </Event>
  <Event>
    <Absolute>130380</Absolute>
    <NoteOff Channel="10" Note="83" Velocity="0"/>
  </Event>
  <Event>
    <Absolute>130560</Absolute>
    <NoteOn Channel="10" Note="83" Velocity="56"/>
  </Event>
  <Event>
    <Absolute>130752</Absolute>
    <NoteOn Channel="10" Note="83" Velocity="34"/>
  </Event>
  <Event>
    <Absolute>130848</Absolute>
    <NoteOff Channel="10" Note="83" Velocity="0"/>
  </Event>
  <Event>
    <Absolute>130944</Absolute>
    <NoteOff Channel="10" Note="83" Velocity="0"/>
  </Event>
  <Event>
    <Absolute>130944</Absolute>
    <NoteOn Channel="10" Note="83" Velocity="56"/>
  </Event>
  <Event>
    <Absolute>131136</Absolute>
    <NoteOn Channel="10" Note="83" Velocity="34"/>
  </Event>
  <Event>
    <Absolute>131232</Absolute>
    <NoteOff Channel="10" Note="83" Velocity="0"/>
  </Event>
  <Event>
    <Absolute>131328</Absolute>
    <NoteOff Channel="10" Note="83" Velocity="0"/>
  </Event>
  <Event>
    <Absolute>131328</Absolute>
    <NoteOn Channel="10" Note="83" Velocity="56"/>
  </Event>
  <Event>
    <Absolute>131520</Absolute>
    <NoteOn Channel="10" Note="83" Velocity="34"/>
  </Event>
  <Event>
    <Absolute>131616</Absolute>
    <NoteOff Channel="10" Note="83" Velocity="0"/>
  </Event>
  <Event>
    <Absolute>131616</Absolute>
    <NoteOff Channel="10" Note="83" Velocity="0"/>
  </Event>
  <Event>
    <Absolute>131712</Absolute>
    <NoteOn Channel="10" Note="83" Velocity="56"/>
  </Event>
  <Event>
    <Absolute>131904</Absolute>
    <NoteOff Channel="10" Note="83" Velocity="0"/>
  </Event>
  <Event>
    <Absolute>131904</Absolute>
    <NoteOn Channel="10" Note="83" Velocity="34"/>
  </Event>
  <Event>
    <Absolute>132000</Absolute>
    <NoteOff Channel="10" Note="83" Velocity="0"/>
  </Event>
  <Event>
    <Absolute>132096</Absolute>
    <NoteOn Channel="10" Note="83" Velocity="56"/>
  </Event>
  <Event>
    <Absolute>132288</Absolute>
    <NoteOn Channel="10" Note="83" Velocity="34"/>
  </Event>
  <Event>
    <Absolute>132384</Absolute>
    <NoteOff Channel="10" Note="83" Velocity="0"/>
  </Event>
  <Event>
    <Absolute>132384</Absolute>
    <NoteOff Channel="10" Note="83" Velocity="0"/>
  </Event>
  <Event>
    <Absolute>132480</Absolute>
    <NoteOn Channel="10" Note="83" Velocity="56"/>
  </Event>
  <Event>
    <Absolute>132672</Absolute>
    <NoteOff Channel="10" Note="83" Velocity="0"/>
  </Event>
  <Event>
    <Absolute>132672</Absolute>
    <NoteOn Channel="10" Note="83" Velocity="34"/>
  </Event>
  <Event>
    <Absolute>132768</Absolute>
    <NoteOff Channel="10" Note="83" Velocity="0"/>
  </Event>
  <Event>
    <Absolute>132864</Absolute>
    <NoteOn Channel="10" Note="83" Velocity="56"/>
  </Event>
  <Event>
    <Absolute>133056</Absolute>
    <NoteOff Channel="10" Note="83" Velocity="0"/>
  </Event>
  <Event>
    <Absolute>133056</Absolute>
    <NoteOn Channel="10" Note="83" Velocity="34"/>
  </Event>
  <Event>
    <Absolute>133152</Absolute>
    <NoteOff Channel="10" Note="83" Velocity="0"/>
  </Event>
  <Event>
    <Absolute>133248</Absolute>
    <NoteOn Channel="10" Note="83" Velocity="56"/>
  </Event>
  <Event>
    <Absolute>133440</Absolute>
    <NoteOn Channel="10" Note="83" Velocity="34"/>
  </Event>
  <Event>
    <Absolute>133536</Absolute>
    <NoteOff Channel="10" Note="83" Velocity="0"/>
  </Event>
  <Event>
    <Absolute>133536</Absolute>
    <NoteOff Channel="10" Note="83" Velocity="0"/>
  </Event>
  <Event>
    <Absolute>133632</Absolute>
    <NoteOn Channel="10" Note="83" Velocity="56"/>
  </Event>
  <Event>
    <Absolute>133824</Absolute>
    <NoteOn Channel="10" Note="83" Velocity="34"/>
  </Event>
  <Event>
    <Absolute>133920</Absolute>
    <NoteOff Channel="10" Note="83" Velocity="0"/>
  </Event>
  <Event>
    <Absolute>133920</Absolute>
    <NoteOff Channel="10" Note="83" Velocity="0"/>
  </Event>
  <Event>
    <Absolute>134016</Absolute>
    <NoteOn Channel="10" Note="83" Velocity="56"/>
  </Event>
  <Event>
    <Absolute>134208</Absolute>
    <NoteOn Channel="10" Note="83" Velocity="34"/>
  </Event>
  <Event>
    <Absolute>134304</Absolute>
    <NoteOff Channel="10" Note="83" Velocity="0"/>
  </Event>
  <Event>
    <Absolute>134304</Absolute>
    <NoteOff Channel="10" Note="83" Velocity="0"/>
  </Event>
  <Event>
    <Absolute>134400</Absolute>
    <NoteOn Channel="10" Note="83" Velocity="56"/>
  </Event>
  <Event>
    <Absolute>134592</Absolute>
    <NoteOn Channel="10" Note="83" Velocity="34"/>
  </Event>
  <Event>
    <Absolute>134688</Absolute>
    <NoteOff Channel="10" Note="83" Velocity="0"/>
  </Event>
  <Event>
    <Absolute>134688</Absolute>
    <NoteOff Channel="10" Note="83" Velocity="0"/>
  </Event>
  <Event>
    <Absolute>134784</Absolute>
    <NoteOn Channel="10" Note="83" Velocity="56"/>
  </Event>
  <Event>
    <Absolute>134976</Absolute>
    <NoteOn Channel="10" Note="83" Velocity="34"/>
  </Event>
  <Event>
    <Absolute>135072</Absolute>
    <NoteOff Channel="10" Note="83" Velocity="0"/>
  </Event>
  <Event>
    <Absolute>135072</Absolute>
    <NoteOff Channel="10" Note="83" Velocity="0"/>
  </Event>
  <Event>
    <Absolute>135168</Absolute>
    <NoteOn Channel="10" Note="83" Velocity="56"/>
  </Event>
  <Event>
    <Absolute>135360</Absolute>
    <NoteOn Channel="10" Note="83" Velocity="34"/>
  </Event>
  <Event>
    <Absolute>135456</Absolute>
    <NoteOff Channel="10" Note="83" Velocity="0"/>
  </Event>
  <Event>
    <Absolute>135456</Absolute>
    <NoteOff Channel="10" Note="83" Velocity="0"/>
  </Event>
  <Event>
    <Absolute>135552</Absolute>
    <NoteOn Channel="10" Note="83" Velocity="56"/>
  </Event>
  <Event>
    <Absolute>135744</Absolute>
    <NoteOn Channel="10" Note="83" Velocity="34"/>
  </Event>
  <Event>
    <Absolute>135840</Absolute>
    <NoteOff Channel="10" Note="83" Velocity="0"/>
  </Event>
  <Event>
    <Absolute>135840</Absolute>
    <NoteOff Channel="10" Note="83" Velocity="0"/>
  </Event>
  <Event>
    <Absolute>135936</Absolute>
    <NoteOn Channel="10" Note="83" Velocity="56"/>
  </Event>
  <Event>
    <Absolute>136128</Absolute>
    <NoteOn Channel="10" Note="83" Velocity="34"/>
  </Event>
  <Event>
    <Absolute>136224</Absolute>
    <NoteOff Channel="10" Note="83" Velocity="0"/>
  </Event>
  <Event>
    <Absolute>136224</Absolute>
    <NoteOff Channel="10" Note="83" Velocity="0"/>
  </Event>
  <Event>
    <Absolute>136320</Absolute>
    <NoteOn Channel="10" Note="83" Velocity="56"/>
  </Event>
  <Event>
    <Absolute>136512</Absolute>
    <NoteOff Channel="10" Note="83" Velocity="0"/>
  </Event>
  <Event>
    <Absolute>136512</Absolute>
    <NoteOn Channel="10" Note="83" Velocity="34"/>
  </Event>
  <Event>
    <Absolute>136608</Absolute>
    <NoteOff Channel="10" Note="83" Velocity="0"/>
  </Event>
  <Event>
    <Absolute>136704</Absolute>
    <NoteOn Channel="10" Note="83" Velocity="56"/>
  </Event>
  <Event>
    <Absolute>136896</Absolute>
    <NoteOn Channel="10" Note="83" Velocity="34"/>
  </Event>
  <Event>
    <Absolute>136992</Absolute>
    <NoteOff Channel="10" Note="83" Velocity="0"/>
  </Event>
  <Event>
    <Absolute>137088</Absolute>
    <NoteOff Channel="10" Note="83" Velocity="0"/>
  </Event>
  <Event>
    <Absolute>137088</Absolute>
    <NoteOn Channel="10" Note="83" Velocity="56"/>
  </Event>
  <Event>
    <Absolute>137280</Absolute>
    <NoteOn Channel="10" Note="83" Velocity="34"/>
  </Event>
  <Event>
    <Absolute>137376</Absolute>
    <NoteOff Channel="10" Note="83" Velocity="0"/>
  </Event>
  <Event>
    <Absolute>137472</Absolute>
    <NoteOff Channel="10" Note="83" Velocity="0"/>
  </Event>
  <Event>
    <Absolute>137472</Absolute>
    <NoteOn Channel="10" Note="83" Velocity="56"/>
  </Event>
  <Event>
    <Absolute>137664</Absolute>
    <NoteOn Channel="10" Note="83" Velocity="34"/>
  </Event>
  <Event>
    <Absolute>137760</Absolute>
    <NoteOff Channel="10" Note="83" Velocity="0"/>
  </Event>
  <Event>
    <Absolute>137760</Absolute>
    <NoteOff Channel="10" Note="83" Velocity="0"/>
  </Event>
  <Event>
    <Absolute>137856</Absolute>
    <NoteOn Channel="10" Note="83" Velocity="56"/>
  </Event>
  <Event>
    <Absolute>138048</Absolute>
    <NoteOff Channel="10" Note="83" Velocity="0"/>
  </Event>
  <Event>
    <Absolute>138048</Absolute>
    <NoteOn Channel="10" Note="83" Velocity="34"/>
  </Event>
  <Event>
    <Absolute>138144</Absolute>
    <NoteOff Channel="10" Note="83" Velocity="0"/>
  </Event>
  <Event>
    <Absolute>138240</Absolute>
    <NoteOn Channel="10" Note="83" Velocity="56"/>
  </Event>
  <Event>
    <Absolute>138432</Absolute>
    <NoteOn Channel="10" Note="83" Velocity="34"/>
  </Event>
  <Event>
    <Absolute>138528</Absolute>
    <NoteOff Channel="10" Note="83" Velocity="0"/>
  </Event>
  <Event>
    <Absolute>138528</Absolute>
    <NoteOff Channel="10" Note="83" Velocity="0"/>
  </Event>
  <Event>
    <Absolute>138624</Absolute>
    <NoteOn Channel="10" Note="83" Velocity="56"/>
  </Event>
  <Event>
    <Absolute>138816</Absolute>
    <NoteOff Channel="10" Note="83" Velocity="0"/>
  </Event>
  <Event>
    <Absolute>138816</Absolute>
    <NoteOn Channel="10" Note="83" Velocity="34"/>
  </Event>
  <Event>
    <Absolute>138912</Absolute>
    <NoteOff Channel="10" Note="83" Velocity="0"/>
  </Event>
  <Event>
    <Absolute>139008</Absolute>
    <NoteOn Channel="10" Note="83" Velocity="56"/>
  </Event>
  <Event>
    <Absolute>139200</Absolute>
    <NoteOff Channel="10" Note="83" Velocity="0"/>
  </Event>
  <Event>
    <Absolute>139200</Absolute>
    <NoteOn Channel="10" Note="83" Velocity="34"/>
  </Event>
  <Event>
    <Absolute>139296</Absolute>
    <NoteOff Channel="10" Note="83" Velocity="0"/>
  </Event>
  <Event>
    <Absolute>139392</Absolute>
    <NoteOn Channel="10" Note="83" Velocity="56"/>
  </Event>
  <Event>
    <Absolute>139584</Absolute>
    <NoteOn Channel="10" Note="83" Velocity="34"/>
  </Event>
  <Event>
    <Absolute>139680</Absolute>
    <NoteOff Channel="10" Note="83" Velocity="0"/>
  </Event>
  <Event>
    <Absolute>139680</Absolute>
    <NoteOff Channel="10" Note="83" Velocity="0"/>
  </Event>
  <Event>
    <Absolute>139776</Absolute>
    <NoteOn Channel="10" Note="83" Velocity="56"/>
  </Event>
  <Event>
    <Absolute>139968</Absolute>
    <NoteOn Channel="10" Note="83" Velocity="34"/>
  </Event>
  <Event>
    <Absolute>140064</Absolute>
    <NoteOff Channel="10" Note="83" Velocity="0"/>
  </Event>
  <Event>
    <Absolute>140064</Absolute>
    <NoteOff Channel="10" Note="83" Velocity="0"/>
  </Event>
  <Event>
    <Absolute>140160</Absolute>
    <NoteOn Channel="10" Note="83" Velocity="56"/>
  </Event>
  <Event>
    <Absolute>140352</Absolute>
    <NoteOn Channel="10" Note="83" Velocity="34"/>
  </Event>
  <Event>
    <Absolute>140448</Absolute>
    <NoteOff Channel="10" Note="83" Velocity="0"/>
  </Event>
  <Event>
    <Absolute>140448</Absolute>
    <NoteOff Channel="10" Note="83" Velocity="0"/>
  </Event>
  <Event>
    <Absolute>140544</Absolute>
    <NoteOn Channel="10" Note="83" Velocity="56"/>
  </Event>
  <Event>
    <Absolute>140736</Absolute>
    <NoteOn Channel="10" Note="83" Velocity="34"/>
  </Event>
  <Event>
    <Absolute>140832</Absolute>
    <NoteOff Channel="10" Note="83" Velocity="0"/>
  </Event>
  <Event>
    <Absolute>140832</Absolute>
    <NoteOff Channel="10" Note="83" Velocity="0"/>
  </Event>
  <Event>
    <Absolute>140928</Absolute>
    <NoteOn Channel="10" Note="83" Velocity="56"/>
  </Event>
  <Event>
    <Absolute>141120</Absolute>
    <NoteOn Channel="10" Note="83" Velocity="34"/>
  </Event>
  <Event>
    <Absolute>141216</Absolute>
    <NoteOff Channel="10" Note="83" Velocity="0"/>
  </Event>
  <Event>
    <Absolute>141216</Absolute>
    <NoteOff Channel="10" Note="83" Velocity="0"/>
  </Event>
  <Event>
    <Absolute>141312</Absolute>
    <NoteOn Channel="10" Note="83" Velocity="56"/>
  </Event>
  <Event>
    <Absolute>141504</Absolute>
    <NoteOn Channel="10" Note="83" Velocity="34"/>
  </Event>
  <Event>
    <Absolute>141600</Absolute>
    <NoteOff Channel="10" Note="83" Velocity="0"/>
  </Event>
  <Event>
    <Absolute>141600</Absolute>
    <NoteOff Channel="10" Note="83" Velocity="0"/>
  </Event>
  <Event>
    <Absolute>141696</Absolute>
    <NoteOn Channel="10" Note="83" Velocity="56"/>
  </Event>
  <Event>
    <Absolute>141888</Absolute>
    <NoteOn Channel="10" Note="83" Velocity="34"/>
  </Event>
  <Event>
    <Absolute>141984</Absolute>
    <NoteOff Channel="10" Note="83" Velocity="0"/>
  </Event>
  <Event>
    <Absolute>141984</Absolute>
    <NoteOff Channel="10" Note="83" Velocity="0"/>
  </Event>
  <Event>
    <Absolute>142080</Absolute>
    <NoteOn Channel="10" Note="83" Velocity="56"/>
  </Event>
  <Event>
    <Absolute>142272</Absolute>
    <NoteOn Channel="10" Note="83" Velocity="34"/>
  </Event>
  <Event>
    <Absolute>142368</Absolute>
    <NoteOff Channel="10" Note="83" Velocity="0"/>
  </Event>
  <Event>
    <Absolute>142368</Absolute>
    <NoteOff Channel="10" Note="83" Velocity="0"/>
  </Event>
  <Event>
    <Absolute>142464</Absolute>
    <NoteOn Channel="10" Note="83" Velocity="56"/>
  </Event>
  <Event>
    <Absolute>142656</Absolute>
    <NoteOff Channel="10" Note="83" Velocity="0"/>
  </Event>
  <Event>
    <Absolute>142656</Absolute>
    <NoteOn Channel="10" Note="83" Velocity="34"/>
  </Event>
  <Event>
    <Absolute>142752</Absolute>
    <NoteOff Channel="10" Note="83" Velocity="0"/>
  </Event>
  <Event>
    <Absolute>142848</Absolute>
    <NoteOn Channel="10" Note="83" Velocity="56"/>
  </Event>
  <Event>
    <Absolute>143040</Absolute>
    <NoteOn Channel="10" Note="83" Velocity="34"/>
  </Event>
  <Event>
    <Absolute>143136</Absolute>
    <NoteOff Channel="10" Note="83" Velocity="0"/>
  </Event>
  <Event>
    <Absolute>143232</Absolute>
    <NoteOff Channel="10" Note="83" Velocity="0"/>
  </Event>
  <Event>
    <Absolute>143232</Absolute>
    <NoteOn Channel="10" Note="83" Velocity="56"/>
  </Event>
  <Event>
    <Absolute>143424</Absolute>
    <NoteOn Channel="10" Note="83" Velocity="34"/>
  </Event>
  <Event>
    <Absolute>143520</Absolute>
    <NoteOff Channel="10" Note="83" Velocity="0"/>
  </Event>
  <Event>
    <Absolute>143616</Absolute>
    <NoteOff Channel="10" Note="83" Velocity="0"/>
  </Event>
  <Event>
    <Absolute>143616</Absolute>
    <NoteOn Channel="10" Note="83" Velocity="56"/>
  </Event>
  <Event>
    <Absolute>143808</Absolute>
    <NoteOn Channel="10" Note="83" Velocity="34"/>
  </Event>
  <Event>
    <Absolute>143904</Absolute>
    <NoteOff Channel="10" Note="83" Velocity="0"/>
  </Event>
  <Event>
    <Absolute>143904</Absolute>
    <NoteOff Channel="10" Note="83" Velocity="0"/>
  </Event>
  <Event>
    <Absolute>144000</Absolute>
    <NoteOn Channel="10" Note="83" Velocity="56"/>
  </Event>
  <Event>
    <Absolute>144192</Absolute>
    <NoteOff Channel="10" Note="83" Velocity="0"/>
  </Event>
  <Event>
    <Absolute>144192</Absolute>
    <NoteOn Channel="10" Note="83" Velocity="34"/>
  </Event>
  <Event>
    <Absolute>144288</Absolute>
    <NoteOff Channel="10" Note="83" Velocity="0"/>
  </Event>
  <Event>
    <Absolute>144384</Absolute>
    <NoteOn Channel="10" Note="83" Velocity="56"/>
  </Event>
  <Event>
    <Absolute>144576</Absolute>
    <NoteOn Channel="10" Note="83" Velocity="34"/>
  </Event>
  <Event>
    <Absolute>144672</Absolute>
    <NoteOff Channel="10" Note="83" Velocity="0"/>
  </Event>
  <Event>
    <Absolute>144672</Absolute>
    <NoteOff Channel="10" Note="83" Velocity="0"/>
  </Event>
  <Event>
    <Absolute>144768</Absolute>
    <NoteOn Channel="10" Note="83" Velocity="56"/>
  </Event>
  <Event>
    <Absolute>144960</Absolute>
    <NoteOff Channel="10" Note="83" Velocity="0"/>
  </Event>
  <Event>
    <Absolute>144960</Absolute>
    <NoteOn Channel="10" Note="83" Velocity="34"/>
  </Event>
  <Event>
    <Absolute>145056</Absolute>
    <NoteOff Channel="10" Note="83" Velocity="0"/>
  </Event>
  <Event>
    <Absolute>145152</Absolute>
    <NoteOn Channel="10" Note="83" Velocity="56"/>
  </Event>
  <Event>
    <Absolute>145344</Absolute>
    <NoteOff Channel="10" Note="83" Velocity="0"/>
  </Event>
  <Event>
    <Absolute>145344</Absolute>
    <NoteOn Channel="10" Note="83" Velocity="34"/>
  </Event>
  <Event>
    <Absolute>145440</Absolute>
    <NoteOff Channel="10" Note="83" Velocity="0"/>
  </Event>
  <Event>
    <Absolute>145536</Absolute>
    <NoteOn Channel="10" Note="83" Velocity="56"/>
  </Event>
  <Event>
    <Absolute>145728</Absolute>
    <NoteOn Channel="10" Note="83" Velocity="34"/>
  </Event>
  <Event>
    <Absolute>145824</Absolute>
    <NoteOff Channel="10" Note="83" Velocity="0"/>
  </Event>
  <Event>
    <Absolute>145824</Absolute>
    <NoteOff Channel="10" Note="83" Velocity="0"/>
  </Event>
  <Event>
    <Absolute>145920</Absolute>
    <NoteOn Channel="10" Note="83" Velocity="56"/>
  </Event>
  <Event>
    <Absolute>146112</Absolute>
    <NoteOn Channel="10" Note="83" Velocity="34"/>
  </Event>
  <Event>
    <Absolute>146208</Absolute>
    <NoteOff Channel="10" Note="83" Velocity="0"/>
  </Event>
  <Event>
    <Absolute>146208</Absolute>
    <NoteOff Channel="10" Note="83" Velocity="0"/>
  </Event>
  <Event>
    <Absolute>146304</Absolute>
    <NoteOn Channel="10" Note="83" Velocity="56"/>
  </Event>
  <Event>
    <Absolute>146496</Absolute>
    <NoteOn Channel="10" Note="83" Velocity="34"/>
  </Event>
  <Event>
    <Absolute>146592</Absolute>
    <NoteOff Channel="10" Note="83" Velocity="0"/>
  </Event>
  <Event>
    <Absolute>146592</Absolute>
    <NoteOff Channel="10" Note="83" Velocity="0"/>
  </Event>
  <Event>
    <Absolute>146688</Absolute>
    <NoteOn Channel="10" Note="83" Velocity="56"/>
  </Event>
  <Event>
    <Absolute>146880</Absolute>
    <NoteOn Channel="10" Note="83" Velocity="34"/>
  </Event>
  <Event>
    <Absolute>146976</Absolute>
    <NoteOff Channel="10" Note="83" Velocity="0"/>
  </Event>
  <Event>
    <Absolute>146976</Absolute>
    <NoteOff Channel="10" Note="83" Velocity="0"/>
  </Event>
  <Event>
    <Absolute>147072</Absolute>
    <NoteOn Channel="10" Note="83" Velocity="56"/>
  </Event>
  <Event>
    <Absolute>147264</Absolute>
    <NoteOn Channel="10" Note="83" Velocity="34"/>
  </Event>
  <Event>
    <Absolute>147360</Absolute>
    <NoteOff Channel="10" Note="83" Velocity="0"/>
  </Event>
  <Event>
    <Absolute>147360</Absolute>
    <NoteOff Channel="10" Note="83" Velocity="0"/>
  </Event>
  <Event>
    <Absolute>147456</Absolute>
    <NoteOn Channel="10" Note="83" Velocity="56"/>
  </Event>
  <Event>
    <Absolute>147648</Absolute>
    <NoteOn Channel="10" Note="83" Velocity="34"/>
  </Event>
  <Event>
    <Absolute>147744</Absolute>
    <NoteOff Channel="10" Note="83" Velocity="0"/>
  </Event>
  <Event>
    <Absolute>147744</Absolute>
    <NoteOff Channel="10" Note="83" Velocity="0"/>
  </Event>
  <Event>
    <Absolute>147840</Absolute>
    <NoteOn Channel="10" Note="83" Velocity="56"/>
  </Event>
  <Event>
    <Absolute>148032</Absolute>
    <NoteOn Channel="10" Note="83" Velocity="34"/>
  </Event>
  <Event>
    <Absolute>148128</Absolute>
    <NoteOff Channel="10" Note="83" Velocity="0"/>
  </Event>
  <Event>
    <Absolute>148128</Absolute>
    <NoteOff Channel="10" Note="83" Velocity="0"/>
  </Event>
  <Event>
    <Absolute>148224</Absolute>
    <NoteOn Channel="10" Note="83" Velocity="56"/>
  </Event>
  <Event>
    <Absolute>148416</Absolute>
    <NoteOn Channel="10" Note="83" Velocity="34"/>
  </Event>
  <Event>
    <Absolute>148512</Absolute>
    <NoteOff Channel="10" Note="83" Velocity="0"/>
  </Event>
  <Event>
    <Absolute>148512</Absolute>
    <NoteOff Channel="10" Note="83" Velocity="0"/>
  </Event>
  <Event>
    <Absolute>148608</Absolute>
    <NoteOn Channel="10" Note="83" Velocity="56"/>
  </Event>
  <Event>
    <Absolute>148800</Absolute>
    <NoteOff Channel="10" Note="83" Velocity="0"/>
  </Event>
  <Event>
    <Absolute>148800</Absolute>
    <NoteOn Channel="10" Note="83" Velocity="34"/>
  </Event>
  <Event>
    <Absolute>148896</Absolute>
    <NoteOff Channel="10" Note="83" Velocity="0"/>
  </Event>
  <Event>
    <Absolute>148992</Absolute>
    <NoteOn Channel="10" Note="83" Velocity="56"/>
  </Event>
  <Event>
    <Absolute>149184</Absolute>
    <NoteOn Channel="10" Note="83" Velocity="34"/>
  </Event>
  <Event>
    <Absolute>149280</Absolute>
    <NoteOff Channel="10" Note="83" Velocity="0"/>
  </Event>
  <Event>
    <Absolute>149376</Absolute>
    <NoteOff Channel="10" Note="83" Velocity="0"/>
  </Event>
  <Event>
    <Absolute>149376</Absolute>
    <NoteOn Channel="10" Note="83" Velocity="56"/>
  </Event>
  <Event>
    <Absolute>149568</Absolute>
    <NoteOn Channel="10" Note="83" Velocity="34"/>
  </Event>
  <Event>
    <Absolute>149664</Absolute>
    <NoteOff Channel="10" Note="83" Velocity="0"/>
  </Event>
  <Event>
    <Absolute>149760</Absolute>
    <NoteOff Channel="10" Note="83" Velocity="0"/>
  </Event>
  <Event>
    <Absolute>149760</Absolute>
    <NoteOn Channel="10" Note="83" Velocity="56"/>
  </Event>
  <Event>
    <Absolute>149952</Absolute>
    <NoteOn Channel="10" Note="83" Velocity="34"/>
  </Event>
  <Event>
    <Absolute>150048</Absolute>
    <NoteOff Channel="10" Note="83" Velocity="0"/>
  </Event>
  <Event>
    <Absolute>150048</Absolute>
    <NoteOff Channel="10" Note="83" Velocity="0"/>
  </Event>
  <Event>
    <Absolute>150144</Absolute>
    <NoteOn Channel="10" Note="83" Velocity="56"/>
  </Event>
  <Event>
    <Absolute>150336</Absolute>
    <NoteOff Channel="10" Note="83" Velocity="0"/>
  </Event>
  <Event>
    <Absolute>150336</Absolute>
    <NoteOn Channel="10" Note="83" Velocity="34"/>
  </Event>
  <Event>
    <Absolute>150432</Absolute>
    <NoteOff Channel="10" Note="83" Velocity="0"/>
  </Event>
  <Event>
    <Absolute>150528</Absolute>
    <NoteOn Channel="10" Note="83" Velocity="56"/>
  </Event>
  <Event>
    <Absolute>150720</Absolute>
    <NoteOn Channel="10" Note="83" Velocity="34"/>
  </Event>
  <Event>
    <Absolute>150816</Absolute>
    <NoteOff Channel="10" Note="83" Velocity="0"/>
  </Event>
  <Event>
    <Absolute>150816</Absolute>
    <NoteOff Channel="10" Note="83" Velocity="0"/>
  </Event>
  <Event>
    <Absolute>150912</Absolute>
    <NoteOn Channel="10" Note="83" Velocity="56"/>
  </Event>
  <Event>
    <Absolute>151104</Absolute>
    <NoteOff Channel="10" Note="83" Velocity="0"/>
  </Event>
  <Event>
    <Absolute>151104</Absolute>
    <NoteOn Channel="10" Note="83" Velocity="34"/>
  </Event>
  <Event>
    <Absolute>151200</Absolute>
    <NoteOff Channel="10" Note="83" Velocity="0"/>
  </Event>
  <Event>
    <Absolute>151296</Absolute>
    <NoteOn Channel="10" Note="83" Velocity="56"/>
  </Event>
  <Event>
    <Absolute>151488</Absolute>
    <NoteOff Channel="10" Note="83" Velocity="0"/>
  </Event>
  <Event>
    <Absolute>151488</Absolute>
    <NoteOn Channel="10" Note="83" Velocity="34"/>
  </Event>
  <Event>
    <Absolute>151584</Absolute>
    <NoteOff Channel="10" Note="83" Velocity="0"/>
  </Event>
  <Event>
    <Absolute>151680</Absolute>
    <NoteOn Channel="10" Note="83" Velocity="56"/>
  </Event>
  <Event>
    <Absolute>151872</Absolute>
    <NoteOn Channel="10" Note="83" Velocity="34"/>
  </Event>
  <Event>
    <Absolute>151968</Absolute>
    <NoteOff Channel="10" Note="83" Velocity="0"/>
  </Event>
  <Event>
    <Absolute>151968</Absolute>
    <NoteOff Channel="10" Note="83" Velocity="0"/>
  </Event>
  <Event>
    <Absolute>152064</Absolute>
    <NoteOn Channel="10" Note="83" Velocity="56"/>
  </Event>
  <Event>
    <Absolute>152256</Absolute>
    <NoteOn Channel="10" Note="83" Velocity="34"/>
  </Event>
  <Event>
    <Absolute>152352</Absolute>
    <NoteOff Channel="10" Note="83" Velocity="0"/>
  </Event>
  <Event>
    <Absolute>152352</Absolute>
    <NoteOff Channel="10" Note="83" Velocity="0"/>
  </Event>
  <Event>
    <Absolute>152448</Absolute>
    <NoteOn Channel="10" Note="83" Velocity="56"/>
  </Event>
  <Event>
    <Absolute>152640</Absolute>
    <NoteOn Channel="10" Note="83" Velocity="34"/>
  </Event>
  <Event>
    <Absolute>152736</Absolute>
    <NoteOff Channel="10" Note="83" Velocity="0"/>
  </Event>
  <Event>
    <Absolute>152736</Absolute>
    <NoteOff Channel="10" Note="83" Velocity="0"/>
  </Event>
  <Event>
    <Absolute>152832</Absolute>
    <NoteOn Channel="10" Note="83" Velocity="56"/>
  </Event>
  <Event>
    <Absolute>153024</Absolute>
    <NoteOn Channel="10" Note="83" Velocity="34"/>
  </Event>
  <Event>
    <Absolute>153120</Absolute>
    <NoteOff Channel="10" Note="83" Velocity="0"/>
  </Event>
  <Event>
    <Absolute>153120</Absolute>
    <NoteOff Channel="10" Note="83" Velocity="0"/>
  </Event>
  <Event>
    <Absolute>153216</Absolute>
    <NoteOn Channel="10" Note="83" Velocity="56"/>
  </Event>
  <Event>
    <Absolute>153408</Absolute>
    <NoteOn Channel="10" Note="83" Velocity="34"/>
  </Event>
  <Event>
    <Absolute>153504</Absolute>
    <NoteOff Channel="10" Note="83" Velocity="0"/>
  </Event>
  <Event>
    <Absolute>153504</Absolute>
    <NoteOff Channel="10" Note="83" Velocity="0"/>
  </Event>
  <Event>
    <Absolute>153600</Absolute>
    <NoteOn Channel="10" Note="83" Velocity="56"/>
  </Event>
  <Event>
    <Absolute>153792</Absolute>
    <NoteOn Channel="10" Note="83" Velocity="34"/>
  </Event>
  <Event>
    <Absolute>153888</Absolute>
    <NoteOff Channel="10" Note="83" Velocity="0"/>
  </Event>
  <Event>
    <Absolute>153888</Absolute>
    <NoteOff Channel="10" Note="83" Velocity="0"/>
  </Event>
  <Event>
    <Absolute>153984</Absolute>
    <NoteOn Channel="10" Note="83" Velocity="56"/>
  </Event>
  <Event>
    <Absolute>154176</Absolute>
    <NoteOn Channel="10" Note="83" Velocity="34"/>
  </Event>
  <Event>
    <Absolute>154272</Absolute>
    <NoteOff Channel="10" Note="83" Velocity="0"/>
  </Event>
  <Event>
    <Absolute>154272</Absolute>
    <NoteOff Channel="10" Note="83" Velocity="0"/>
  </Event>
  <Event>
    <Absolute>154368</Absolute>
    <NoteOn Channel="10" Note="83" Velocity="56"/>
  </Event>
  <Event>
    <Absolute>154560</Absolute>
    <NoteOn Channel="10" Note="83" Velocity="34"/>
  </Event>
  <Event>
    <Absolute>154656</Absolute>
    <NoteOff Channel="10" Note="83" Velocity="0"/>
  </Event>
  <Event>
    <Absolute>154656</Absolute>
    <NoteOff Channel="10" Note="83" Velocity="0"/>
  </Event>
  <Event>
    <Absolute>154752</Absolute>
    <NoteOn Channel="10" Note="83" Velocity="56"/>
  </Event>
  <Event>
    <Absolute>154944</Absolute>
    <NoteOff Channel="10" Note="83" Velocity="0"/>
  </Event>
  <Event>
    <Absolute>154944</Absolute>
    <NoteOn Channel="10" Note="83" Velocity="34"/>
  </Event>
  <Event>
    <Absolute>155040</Absolute>
    <NoteOff Channel="10" Note="83" Velocity="0"/>
  </Event>
  <Event>
    <Absolute>155136</Absolute>
    <NoteOn Channel="10" Note="83" Velocity="56"/>
  </Event>
  <Event>
    <Absolute>155328</Absolute>
    <NoteOn Channel="10" Note="83" Velocity="34"/>
  </Event>
  <Event>
    <Absolute>155424</Absolute>
    <NoteOff Channel="10" Note="83" Velocity="0"/>
  </Event>
  <Event>
    <Absolute>155520</Absolute>
    <NoteOff Channel="10" Note="83" Velocity="0"/>
  </Event>
  <Event>
    <Absolute>155520</Absolute>
    <NoteOn Channel="10" Note="83" Velocity="56"/>
  </Event>
  <Event>
    <Absolute>155712</Absolute>
    <NoteOn Channel="10" Note="83" Velocity="34"/>
  </Event>
  <Event>
    <Absolute>155808</Absolute>
    <NoteOff Channel="10" Note="83" Velocity="0"/>
  </Event>
  <Event>
    <Absolute>155904</Absolute>
    <NoteOff Channel="10" Note="83" Velocity="0"/>
  </Event>
  <Event>
    <Absolute>155904</Absolute>
    <NoteOn Channel="10" Note="83" Velocity="56"/>
  </Event>
  <Event>
    <Absolute>156096</Absolute>
    <NoteOn Channel="10" Note="83" Velocity="34"/>
  </Event>
  <Event>
    <Absolute>156192</Absolute>
    <NoteOff Channel="10" Note="83" Velocity="0"/>
  </Event>
  <Event>
    <Absolute>156192</Absolute>
    <NoteOff Channel="10" Note="83" Velocity="0"/>
  </Event>
  <Event>
    <Absolute>156288</Absolute>
    <NoteOn Channel="10" Note="83" Velocity="56"/>
  </Event>
  <Event>
    <Absolute>156480</Absolute>
    <NoteOff Channel="10" Note="83" Velocity="0"/>
  </Event>
  <Event>
    <Absolute>156480</Absolute>
    <NoteOn Channel="10" Note="83" Velocity="34"/>
  </Event>
  <Event>
    <Absolute>156576</Absolute>
    <NoteOff Channel="10" Note="83" Velocity="0"/>
  </Event>
  <Event>
    <Absolute>156672</Absolute>
    <NoteOn Channel="10" Note="83" Velocity="56"/>
  </Event>
  <Event>
    <Absolute>156864</Absolute>
    <NoteOn Channel="10" Note="83" Velocity="34"/>
  </Event>
  <Event>
    <Absolute>156960</Absolute>
    <NoteOff Channel="10" Note="83" Velocity="0"/>
  </Event>
  <Event>
    <Absolute>156960</Absolute>
    <NoteOff Channel="10" Note="83" Velocity="0"/>
  </Event>
  <Event>
    <Absolute>157056</Absolute>
    <NoteOn Channel="10" Note="83" Velocity="56"/>
  </Event>
  <Event>
    <Absolute>157248</Absolute>
    <NoteOff Channel="10" Note="83" Velocity="0"/>
  </Event>
  <Event>
    <Absolute>157248</Absolute>
    <NoteOn Channel="10" Note="83" Velocity="34"/>
  </Event>
  <Event>
    <Absolute>157344</Absolute>
    <NoteOff Channel="10" Note="83" Velocity="0"/>
  </Event>
  <Event>
    <Absolute>157440</Absolute>
    <NoteOn Channel="10" Note="83" Velocity="56"/>
  </Event>
  <Event>
    <Absolute>157632</Absolute>
    <NoteOff Channel="10" Note="83" Velocity="0"/>
  </Event>
  <Event>
    <Absolute>157632</Absolute>
    <NoteOn Channel="10" Note="83" Velocity="34"/>
  </Event>
  <Event>
    <Absolute>157728</Absolute>
    <NoteOff Channel="10" Note="83" Velocity="0"/>
  </Event>
  <Event>
    <Absolute>157824</Absolute>
    <NoteOn Channel="10" Note="83" Velocity="56"/>
  </Event>
  <Event>
    <Absolute>158016</Absolute>
    <NoteOn Channel="10" Note="83" Velocity="34"/>
  </Event>
  <Event>
    <Absolute>158112</Absolute>
    <NoteOff Channel="10" Note="83" Velocity="0"/>
  </Event>
  <Event>
    <Absolute>158112</Absolute>
    <NoteOff Channel="10" Note="83" Velocity="0"/>
  </Event>
  <Event>
    <Absolute>158208</Absolute>
    <NoteOn Channel="10" Note="83" Velocity="56"/>
  </Event>
  <Event>
    <Absolute>158400</Absolute>
    <NoteOn Channel="10" Note="83" Velocity="34"/>
  </Event>
  <Event>
    <Absolute>158496</Absolute>
    <NoteOff Channel="10" Note="83" Velocity="0"/>
  </Event>
  <Event>
    <Absolute>158496</Absolute>
    <NoteOff Channel="10" Note="83" Velocity="0"/>
  </Event>
  <Event>
    <Absolute>158592</Absolute>
    <NoteOn Channel="10" Note="83" Velocity="56"/>
  </Event>
  <Event>
    <Absolute>158784</Absolute>
    <NoteOn Channel="10" Note="83" Velocity="34"/>
  </Event>
  <Event>
    <Absolute>158880</Absolute>
    <NoteOff Channel="10" Note="83" Velocity="0"/>
  </Event>
  <Event>
    <Absolute>158880</Absolute>
    <NoteOff Channel="10" Note="83" Velocity="0"/>
  </Event>
  <Event>
    <Absolute>158976</Absolute>
    <NoteOn Channel="10" Note="83" Velocity="56"/>
  </Event>
  <Event>
    <Absolute>159168</Absolute>
    <NoteOn Channel="10" Note="83" Velocity="34"/>
  </Event>
  <Event>
    <Absolute>159264</Absolute>
    <NoteOff Channel="10" Note="83" Velocity="0"/>
  </Event>
  <Event>
    <Absolute>159264</Absolute>
    <NoteOff Channel="10" Note="83" Velocity="0"/>
  </Event>
  <Event>
    <Absolute>159360</Absolute>
    <NoteOn Channel="10" Note="83" Velocity="56"/>
  </Event>
  <Event>
    <Absolute>159552</Absolute>
    <NoteOn Channel="10" Note="83" Velocity="34"/>
  </Event>
  <Event>
    <Absolute>159648</Absolute>
    <NoteOff Channel="10" Note="83" Velocity="0"/>
  </Event>
  <Event>
    <Absolute>159648</Absolute>
    <NoteOff Channel="10" Note="83" Velocity="0"/>
  </Event>
  <Event>
    <Absolute>159744</Absolute>
    <NoteOn Channel="10" Note="83" Velocity="56"/>
  </Event>
  <Event>
    <Absolute>159936</Absolute>
    <NoteOn Channel="10" Note="83" Velocity="34"/>
  </Event>
  <Event>
    <Absolute>160032</Absolute>
    <NoteOff Channel="10" Note="83" Velocity="0"/>
  </Event>
  <Event>
    <Absolute>160032</Absolute>
    <NoteOff Channel="10" Note="83" Velocity="0"/>
  </Event>
  <Event>
    <Absolute>160128</Absolute>
    <NoteOn Channel="10" Note="83" Velocity="56"/>
  </Event>
  <Event>
    <Absolute>160320</Absolute>
    <NoteOn Channel="10" Note="83" Velocity="34"/>
  </Event>
  <Event>
    <Absolute>160416</Absolute>
    <NoteOff Channel="10" Note="83" Velocity="0"/>
  </Event>
  <Event>
    <Absolute>160416</Absolute>
    <NoteOff Channel="10" Note="83" Velocity="0"/>
  </Event>
  <Event>
    <Absolute>160512</Absolute>
    <NoteOn Channel="10" Note="83" Velocity="56"/>
  </Event>
  <Event>
    <Absolute>160704</Absolute>
    <NoteOn Channel="10" Note="83" Velocity="34"/>
  </Event>
  <Event>
    <Absolute>160800</Absolute>
    <NoteOff Channel="10" Note="83" Velocity="0"/>
  </Event>
  <Event>
    <Absolute>160800</Absolute>
    <NoteOff Channel="10" Note="83" Velocity="0"/>
  </Event>
  <Event>
    <Absolute>160896</Absolute>
    <NoteOn Channel="10" Note="83" Velocity="56"/>
  </Event>
  <Event>
    <Absolute>161088</Absolute>
    <NoteOff Channel="10" Note="83" Velocity="0"/>
  </Event>
  <Event>
    <Absolute>161088</Absolute>
    <NoteOn Channel="10" Note="83" Velocity="34"/>
  </Event>
  <Event>
    <Absolute>161184</Absolute>
    <NoteOff Channel="10" Note="83" Velocity="0"/>
  </Event>
  <Event>
    <Absolute>161280</Absolute>
    <NoteOn Channel="10" Note="83" Velocity="56"/>
  </Event>
  <Event>
    <Absolute>161472</Absolute>
    <NoteOn Channel="10" Note="83" Velocity="34"/>
  </Event>
  <Event>
    <Absolute>161568</Absolute>
    <NoteOff Channel="10" Note="83" Velocity="0"/>
  </Event>
  <Event>
    <Absolute>161664</Absolute>
    <NoteOff Channel="10" Note="83" Velocity="0"/>
  </Event>
  <Event>
    <Absolute>161664</Absolute>
    <NoteOn Channel="10" Note="83" Velocity="56"/>
  </Event>
  <Event>
    <Absolute>161856</Absolute>
    <NoteOn Channel="10" Note="83" Velocity="34"/>
  </Event>
  <Event>
    <Absolute>161952</Absolute>
    <NoteOff Channel="10" Note="83" Velocity="0"/>
  </Event>
  <Event>
    <Absolute>162048</Absolute>
    <NoteOff Channel="10" Note="83" Velocity="0"/>
  </Event>
  <Event>
    <Absolute>162048</Absolute>
    <NoteOn Channel="10" Note="83" Velocity="56"/>
  </Event>
  <Event>
    <Absolute>162240</Absolute>
    <NoteOn Channel="10" Note="83" Velocity="34"/>
  </Event>
  <Event>
    <Absolute>162336</Absolute>
    <NoteOff Channel="10" Note="83" Velocity="0"/>
  </Event>
  <Event>
    <Absolute>162336</Absolute>
    <NoteOff Channel="10" Note="83" Velocity="0"/>
  </Event>
  <Event>
    <Absolute>162432</Absolute>
    <NoteOn Channel="10" Note="83" Velocity="56"/>
  </Event>
  <Event>
    <Absolute>162624</Absolute>
    <NoteOff Channel="10" Note="83" Velocity="0"/>
  </Event>
  <Event>
    <Absolute>162624</Absolute>
    <NoteOn Channel="10" Note="83" Velocity="34"/>
  </Event>
  <Event>
    <Absolute>162720</Absolute>
    <NoteOff Channel="10" Note="83" Velocity="0"/>
  </Event>
  <Event>
    <Absolute>162816</Absolute>
    <NoteOn Channel="10" Note="83" Velocity="56"/>
  </Event>
  <Event>
    <Absolute>163008</Absolute>
    <NoteOn Channel="10" Note="83" Velocity="34"/>
  </Event>
  <Event>
    <Absolute>163104</Absolute>
    <NoteOff Channel="10" Note="83" Velocity="0"/>
  </Event>
  <Event>
    <Absolute>163104</Absolute>
    <NoteOff Channel="10" Note="83" Velocity="0"/>
  </Event>
  <Event>
    <Absolute>163200</Absolute>
    <NoteOn Channel="10" Note="83" Velocity="56"/>
  </Event>
  <Event>
    <Absolute>163392</Absolute>
    <NoteOff Channel="10" Note="83" Velocity="0"/>
  </Event>
  <Event>
    <Absolute>163392</Absolute>
    <NoteOn Channel="10" Note="83" Velocity="34"/>
  </Event>
  <Event>
    <Absolute>163488</Absolute>
    <NoteOff Channel="10" Note="83" Velocity="0"/>
  </Event>
  <Event>
    <Absolute>163584</Absolute>
    <NoteOn Channel="10" Note="83" Velocity="56"/>
  </Event>
  <Event>
    <Absolute>163776</Absolute>
    <NoteOff Channel="10" Note="83" Velocity="0"/>
  </Event>
  <Event>
    <Absolute>163776</Absolute>
    <NoteOn Channel="10" Note="83" Velocity="34"/>
  </Event>
  <Event>
    <Absolute>163872</Absolute>
    <NoteOff Channel="10" Note="83" Velocity="0"/>
  </Event>
  <Event>
    <Absolute>163968</Absolute>
    <NoteOn Channel="10" Note="83" Velocity="56"/>
  </Event>
  <Event>
    <Absolute>164160</Absolute>
    <NoteOn Channel="10" Note="83" Velocity="34"/>
  </Event>
  <Event>
    <Absolute>164256</Absolute>
    <NoteOff Channel="10" Note="83" Velocity="0"/>
  </Event>
  <Event>
    <Absolute>164256</Absolute>
    <NoteOff Channel="10" Note="83" Velocity="0"/>
  </Event>
  <Event>
    <Absolute>164352</Absolute>
    <NoteOn Channel="10" Note="83" Velocity="56"/>
  </Event>
  <Event>
    <Absolute>164544</Absolute>
    <NoteOn Channel="10" Note="83" Velocity="34"/>
  </Event>
  <Event>
    <Absolute>164640</Absolute>
    <NoteOff Channel="10" Note="83" Velocity="0"/>
  </Event>
  <Event>
    <Absolute>164640</Absolute>
    <NoteOff Channel="10" Note="83" Velocity="0"/>
  </Event>
  <Event>
    <Absolute>164736</Absolute>
    <NoteOn Channel="10" Note="83" Velocity="56"/>
  </Event>
  <Event>
    <Absolute>164928</Absolute>
    <NoteOn Channel="10" Note="83" Velocity="34"/>
  </Event>
  <Event>
    <Absolute>165024</Absolute>
    <NoteOff Channel="10" Note="83" Velocity="0"/>
  </Event>
  <Event>
    <Absolute>165024</Absolute>
    <NoteOff Channel="10" Note="83" Velocity="0"/>
  </Event>
  <Event>
    <Absolute>165120</Absolute>
    <NoteOn Channel="10" Note="83" Velocity="56"/>
  </Event>
  <Event>
    <Absolute>165312</Absolute>
    <NoteOn Channel="10" Note="83" Velocity="34"/>
  </Event>
  <Event>
    <Absolute>165408</Absolute>
    <NoteOff Channel="10" Note="83" Velocity="0"/>
  </Event>
  <Event>
    <Absolute>165408</Absolute>
    <NoteOff Channel="10" Note="83" Velocity="0"/>
  </Event>
  <Event>
    <Absolute>165504</Absolute>
    <NoteOn Channel="10" Note="83" Velocity="56"/>
  </Event>
  <Event>
    <Absolute>165696</Absolute>
    <NoteOn Channel="10" Note="83" Velocity="34"/>
  </Event>
  <Event>
    <Absolute>165792</Absolute>
    <NoteOff Channel="10" Note="83" Velocity="0"/>
  </Event>
  <Event>
    <Absolute>165792</Absolute>
    <NoteOff Channel="10" Note="83" Velocity="0"/>
  </Event>
  <Event>
    <Absolute>165888</Absolute>
    <NoteOn Channel="10" Note="83" Velocity="56"/>
  </Event>
  <Event>
    <Absolute>166176</Absolute>
    <NoteOff Channel="10" Note="83" Velocity="0"/>
  </Event>
  <Event>
    <Absolute>167424</Absolute>
    <NoteOn Channel="10" Note="36" Velocity="126"/>
  </Event>
  <Event>
    <Absolute>167424</Absolute>
    <NoteOn Channel="10" Note="42" Velocity="76"/>
  </Event>
  <Event>
    <Absolute>167424</Absolute>
    <NoteOn Channel="10" Note="83" Velocity="61"/>
  </Event>
  <Event>
    <Absolute>167680</Absolute>
    <NoteOff Channel="10" Note="36" Velocity="0"/>
  </Event>
  <Event>
    <Absolute>167680</Absolute>
    <NoteOff Channel="10" Note="42" Velocity="0"/>
  </Event>
  <Event>
    <Absolute>167680</Absolute>
    <NoteOff Channel="10" Note="83" Velocity="0"/>
  </Event>
  <Event>
    <Absolute>167808</Absolute>
    <NoteOn Channel="10" Note="38" Velocity="126"/>
  </Event>
  <Event>
    <Absolute>167808</Absolute>
    <NoteOn Channel="10" Note="42" Velocity="76"/>
  </Event>
  <Event>
    <Absolute>167808</Absolute>
    <NoteOn Channel="10" Note="83" Velocity="61"/>
  </Event>
  <Event>
    <Absolute>167936</Absolute>
    <NoteOff Channel="10" Note="38" Velocity="0"/>
  </Event>
  <Event>
    <Absolute>168064</Absolute>
    <NoteOff Channel="10" Note="42" Velocity="0"/>
  </Event>
  <Event>
    <Absolute>168064</Absolute>
    <NoteOff Channel="10" Note="83" Velocity="0"/>
  </Event>
  <Event>
    <Absolute>168192</Absolute>
    <NoteOn Channel="10" Note="36" Velocity="126"/>
  </Event>
  <Event>
    <Absolute>168192</Absolute>
    <NoteOn Channel="10" Note="83" Velocity="61"/>
  </Event>
  <Event>
    <Absolute>168192</Absolute>
    <NoteOn Channel="10" Note="42" Velocity="76"/>
  </Event>
  <Event>
    <Absolute>168320</Absolute>
    <NoteOff Channel="10" Note="36" Velocity="0"/>
  </Event>
  <Event>
    <Absolute>168448</Absolute>
    <NoteOff Channel="10" Note="83" Velocity="0"/>
  </Event>
  <Event>
    <Absolute>168448</Absolute>
    <NoteOff Channel="10" Note="42" Velocity="0"/>
  </Event>
  <Event>
    <Absolute>168448</Absolute>
    <NoteOn Channel="10" Note="36" Velocity="126"/>
  </Event>
  <Event>
    <Absolute>168576</Absolute>
    <NoteOff Channel="10" Note="36" Velocity="0"/>
  </Event>
  <Event>
    <Absolute>168576</Absolute>
    <NoteOn Channel="10" Note="38" Velocity="126"/>
  </Event>
  <Event>
    <Absolute>168576</Absolute>
    <NoteOn Channel="10" Note="42" Velocity="76"/>
  </Event>
  <Event>
    <Absolute>168576</Absolute>
    <NoteOn Channel="10" Note="83" Velocity="61"/>
  </Event>
  <Event>
    <Absolute>168704</Absolute>
    <NoteOff Channel="10" Note="38" Velocity="0"/>
  </Event>
  <Event>
    <Absolute>168832</Absolute>
    <NoteOff Channel="10" Note="42" Velocity="0"/>
  </Event>
  <Event>
    <Absolute>168832</Absolute>
    <NoteOff Channel="10" Note="83" Velocity="0"/>
  </Event>
  <Event>
    <Absolute>168960</Absolute>
    <NoteOn Channel="10" Note="36" Velocity="126"/>
  </Event>
  <Event>
    <Absolute>168960</Absolute>
    <NoteOn Channel="10" Note="83" Velocity="61"/>
  </Event>
  <Event>
    <Absolute>168960</Absolute>
    <NoteOn Channel="10" Note="42" Velocity="76"/>
  </Event>
  <Event>
    <Absolute>169216</Absolute>
    <NoteOff Channel="10" Note="36" Velocity="0"/>
  </Event>
  <Event>
    <Absolute>169216</Absolute>
    <NoteOff Channel="10" Note="83" Velocity="0"/>
  </Event>
  <Event>
    <Absolute>169216</Absolute>
    <NoteOff Channel="10" Note="42" Velocity="0"/>
  </Event>
  <Event>
    <Absolute>169344</Absolute>
    <NoteOn Channel="10" Note="38" Velocity="126"/>
  </Event>
  <Event>
    <Absolute>169344</Absolute>
    <NoteOn Channel="10" Note="83" Velocity="61"/>
  </Event>
  <Event>
    <Absolute>169344</Absolute>
    <NoteOn Channel="10" Note="42" Velocity="76"/>
  </Event>
  <Event>
    <Absolute>169472</Absolute>
    <NoteOff Channel="10" Note="38" Velocity="0"/>
  </Event>
  <Event>
    <Absolute>169600</Absolute>
    <NoteOff Channel="10" Note="83" Velocity="0"/>
  </Event>
  <Event>
    <Absolute>169600</Absolute>
    <NoteOff Channel="10" Note="42" Velocity="0"/>
  </Event>
  <Event>
    <Absolute>169728</Absolute>
    <NoteOn Channel="10" Note="36" Velocity="126"/>
  </Event>
  <Event>
    <Absolute>169728</Absolute>
    <NoteOn Channel="10" Note="42" Velocity="76"/>
  </Event>
  <Event>
    <Absolute>169728</Absolute>
    <NoteOn Channel="10" Note="83" Velocity="61"/>
  </Event>
  <Event>
    <Absolute>169856</Absolute>
    <NoteOff Channel="10" Note="36" Velocity="0"/>
  </Event>
  <Event>
    <Absolute>169984</Absolute>
    <NoteOff Channel="10" Note="42" Velocity="0"/>
  </Event>
  <Event>
    <Absolute>169984</Absolute>
    <NoteOff Channel="10" Note="83" Velocity="0"/>
  </Event>
  <Event>
    <Absolute>169984</Absolute>
    <NoteOn Channel="10" Note="36" Velocity="126"/>
  </Event>
  <Event>
    <Absolute>170112</Absolute>
    <NoteOff Channel="10" Note="36" Velocity="0"/>
  </Event>
  <Event>
    <Absolute>170112</Absolute>
    <NoteOn Channel="10" Note="42" Velocity="76"/>
  </Event>
  <Event>
    <Absolute>170112</Absolute>
    <NoteOn Channel="10" Note="38" Velocity="126"/>
  </Event>
  <Event>
    <Absolute>170112</Absolute>
    <NoteOn Channel="10" Note="83" Velocity="61"/>
  </Event>
  <Event>
    <Absolute>170240</Absolute>
    <NoteOff Channel="10" Note="38" Velocity="0"/>
  </Event>
  <Event>
    <Absolute>170368</Absolute>
    <NoteOff Channel="10" Note="42" Velocity="0"/>
  </Event>
  <Event>
    <Absolute>170368</Absolute>
    <NoteOff Channel="10" Note="83" Velocity="0"/>
  </Event>
  <Event>
    <Absolute>170496</Absolute>
    <NoteOn Channel="10" Note="42" Velocity="76"/>
  </Event>
  <Event>
    <Absolute>170496</Absolute>
    <NoteOn Channel="10" Note="36" Velocity="126"/>
  </Event>
  <Event>
    <Absolute>170496</Absolute>
    <NoteOn Channel="10" Note="83" Velocity="61"/>
  </Event>
  <Event>
    <Absolute>170752</Absolute>
    <NoteOff Channel="10" Note="42" Velocity="0"/>
  </Event>
  <Event>
    <Absolute>170752</Absolute>
    <NoteOff Channel="10" Note="36" Velocity="0"/>
  </Event>
  <Event>
    <Absolute>170752</Absolute>
    <NoteOff Channel="10" Note="83" Velocity="0"/>
  </Event>
  <Event>
    <Absolute>170880</Absolute>
    <NoteOn Channel="10" Note="42" Velocity="76"/>
  </Event>
  <Event>
    <Absolute>170880</Absolute>
    <NoteOn Channel="10" Note="38" Velocity="126"/>
  </Event>
  <Event>
    <Absolute>170880</Absolute>
    <NoteOn Channel="10" Note="83" Velocity="61"/>
  </Event>
  <Event>
    <Absolute>171008</Absolute>
    <NoteOff Channel="10" Note="38" Velocity="0"/>
  </Event>
  <Event>
    <Absolute>171136</Absolute>
    <NoteOff Channel="10" Note="42" Velocity="0"/>
  </Event>
  <Event>
    <Absolute>171136</Absolute>
    <NoteOff Channel="10" Note="83" Velocity="0"/>
  </Event>
  <Event>
    <Absolute>171264</Absolute>
    <NoteOn Channel="10" Note="42" Velocity="76"/>
  </Event>
  <Event>
    <Absolute>171264</Absolute>
    <NoteOn Channel="10" Note="36" Velocity="126"/>
  </Event>
  <Event>
    <Absolute>171264</Absolute>
    <NoteOn Channel="10" Note="83" Velocity="61"/>
  </Event>
  <Event>
    <Absolute>171392</Absolute>
    <NoteOff Channel="10" Note="36" Velocity="0"/>
  </Event>
  <Event>
    <Absolute>171520</Absolute>
    <NoteOff Channel="10" Note="42" Velocity="0"/>
  </Event>
  <Event>
    <Absolute>171520</Absolute>
    <NoteOff Channel="10" Note="83" Velocity="0"/>
  </Event>
  <Event>
    <Absolute>171520</Absolute>
    <NoteOn Channel="10" Note="36" Velocity="126"/>
  </Event>
  <Event>
    <Absolute>171648</Absolute>
    <NoteOn Channel="10" Note="38" Velocity="126"/>
  </Event>
  <Event>
    <Absolute>171648</Absolute>
    <NoteOn Channel="10" Note="42" Velocity="76"/>
  </Event>
  <Event>
    <Absolute>171648</Absolute>
    <NoteOn Channel="10" Note="83" Velocity="61"/>
  </Event>
  <Event>
    <Absolute>171776</Absolute>
    <NoteOff Channel="10" Note="36" Velocity="0"/>
  </Event>
  <Event>
    <Absolute>171776</Absolute>
    <NoteOff Channel="10" Note="38" Velocity="0"/>
  </Event>
  <Event>
    <Absolute>171904</Absolute>
    <NoteOff Channel="10" Note="42" Velocity="0"/>
  </Event>
  <Event>
    <Absolute>171904</Absolute>
    <NoteOff Channel="10" Note="83" Velocity="0"/>
  </Event>
  <Event>
    <Absolute>172032</Absolute>
    <NoteOn Channel="10" Note="42" Velocity="76"/>
  </Event>
  <Event>
    <Absolute>172032</Absolute>
    <NoteOn Channel="10" Note="36" Velocity="126"/>
  </Event>
  <Event>
    <Absolute>172032</Absolute>
    <NoteOn Channel="10" Note="83" Velocity="61"/>
  </Event>
  <Event>
    <Absolute>172288</Absolute>
    <NoteOff Channel="10" Note="42" Velocity="0"/>
  </Event>
  <Event>
    <Absolute>172288</Absolute>
    <NoteOff Channel="10" Note="36" Velocity="0"/>
  </Event>
  <Event>
    <Absolute>172288</Absolute>
    <NoteOff Channel="10" Note="83" Velocity="0"/>
  </Event>
  <Event>
    <Absolute>172416</Absolute>
    <NoteOn Channel="10" Note="42" Velocity="76"/>
  </Event>
  <Event>
    <Absolute>172416</Absolute>
    <NoteOn Channel="10" Note="38" Velocity="126"/>
  </Event>
  <Event>
    <Absolute>172416</Absolute>
    <NoteOn Channel="10" Note="83" Velocity="61"/>
  </Event>
  <Event>
    <Absolute>172544</Absolute>
    <NoteOff Channel="10" Note="38" Velocity="0"/>
  </Event>
  <Event>
    <Absolute>172544</Absolute>
    <NoteOff Channel="10" Note="83" Velocity="0"/>
  </Event>
  <Event>
    <Absolute>172672</Absolute>
    <NoteOff Channel="10" Note="42" Velocity="0"/>
  </Event>
  <Event>
    <Absolute>172800</Absolute>
    <NoteOn Channel="10" Note="36" Velocity="126"/>
  </Event>
  <Event>
    <Absolute>172800</Absolute>
    <NoteOn Channel="10" Note="83" Velocity="61"/>
  </Event>
  <Event>
    <Absolute>172800</Absolute>
    <NoteOn Channel="10" Note="42" Velocity="76"/>
  </Event>
  <Event>
    <Absolute>172928</Absolute>
    <NoteOff Channel="10" Note="36" Velocity="0"/>
  </Event>
  <Event>
    <Absolute>172928</Absolute>
    <NoteOff Channel="10" Note="83" Velocity="0"/>
  </Event>
  <Event>
    <Absolute>173056</Absolute>
    <NoteOff Channel="10" Note="42" Velocity="0"/>
  </Event>
  <Event>
    <Absolute>173056</Absolute>
    <NoteOn Channel="10" Note="36" Velocity="126"/>
  </Event>
  <Event>
    <Absolute>173184</Absolute>
    <NoteOff Channel="10" Note="36" Velocity="0"/>
  </Event>
  <Event>
    <Absolute>173184</Absolute>
    <NoteOn Channel="10" Note="38" Velocity="126"/>
  </Event>
  <Event>
    <Absolute>173184</Absolute>
    <NoteOn Channel="10" Note="42" Velocity="76"/>
  </Event>
  <Event>
    <Absolute>173184</Absolute>
    <NoteOn Channel="10" Note="83" Velocity="61"/>
  </Event>
  <Event>
    <Absolute>173312</Absolute>
    <NoteOff Channel="10" Note="38" Velocity="0"/>
  </Event>
  <Event>
    <Absolute>173312</Absolute>
    <NoteOff Channel="10" Note="83" Velocity="0"/>
  </Event>
  <Event>
    <Absolute>173440</Absolute>
    <NoteOff Channel="10" Note="42" Velocity="0"/>
  </Event>
  <Event>
    <Absolute>173568</Absolute>
    <NoteOn Channel="10" Note="42" Velocity="76"/>
  </Event>
  <Event>
    <Absolute>173568</Absolute>
    <NoteOn Channel="10" Note="83" Velocity="61"/>
  </Event>
  <Event>
    <Absolute>173568</Absolute>
    <NoteOn Channel="10" Note="36" Velocity="126"/>
  </Event>
  <Event>
    <Absolute>173824</Absolute>
    <NoteOff Channel="10" Note="42" Velocity="0"/>
  </Event>
  <Event>
    <Absolute>173824</Absolute>
    <NoteOff Channel="10" Note="83" Velocity="0"/>
  </Event>
  <Event>
    <Absolute>173824</Absolute>
    <NoteOff Channel="10" Note="36" Velocity="0"/>
  </Event>
  <Event>
    <Absolute>173952</Absolute>
    <NoteOn Channel="10" Note="42" Velocity="76"/>
  </Event>
  <Event>
    <Absolute>173952</Absolute>
    <NoteOn Channel="10" Note="83" Velocity="61"/>
  </Event>
  <Event>
    <Absolute>173952</Absolute>
    <NoteOn Channel="10" Note="38" Velocity="126"/>
  </Event>
  <Event>
    <Absolute>174080</Absolute>
    <NoteOff Channel="10" Note="38" Velocity="0"/>
  </Event>
  <Event>
    <Absolute>174208</Absolute>
    <NoteOff Channel="10" Note="42" Velocity="0"/>
  </Event>
  <Event>
    <Absolute>174208</Absolute>
    <NoteOff Channel="10" Note="83" Velocity="0"/>
  </Event>
  <Event>
    <Absolute>174336</Absolute>
    <NoteOn Channel="10" Note="42" Velocity="76"/>
  </Event>
  <Event>
    <Absolute>174336</Absolute>
    <NoteOn Channel="10" Note="83" Velocity="61"/>
  </Event>
  <Event>
    <Absolute>174336</Absolute>
    <NoteOn Channel="10" Note="36" Velocity="126"/>
  </Event>
  <Event>
    <Absolute>174464</Absolute>
    <NoteOff Channel="10" Note="83" Velocity="0"/>
  </Event>
  <Event>
    <Absolute>174464</Absolute>
    <NoteOff Channel="10" Note="36" Velocity="0"/>
  </Event>
  <Event>
    <Absolute>174592</Absolute>
    <NoteOff Channel="10" Note="42" Velocity="0"/>
  </Event>
  <Event>
    <Absolute>174592</Absolute>
    <NoteOn Channel="10" Note="36" Velocity="126"/>
  </Event>
  <Event>
    <Absolute>174720</Absolute>
    <NoteOff Channel="10" Note="36" Velocity="0"/>
  </Event>
  <Event>
    <Absolute>174720</Absolute>
    <NoteOn Channel="10" Note="83" Velocity="61"/>
  </Event>
  <Event>
    <Absolute>174720</Absolute>
    <NoteOn Channel="10" Note="42" Velocity="76"/>
  </Event>
  <Event>
    <Absolute>174720</Absolute>
    <NoteOn Channel="10" Note="38" Velocity="126"/>
  </Event>
  <Event>
    <Absolute>174848</Absolute>
    <NoteOff Channel="10" Note="83" Velocity="0"/>
  </Event>
  <Event>
    <Absolute>174848</Absolute>
    <NoteOff Channel="10" Note="38" Velocity="0"/>
  </Event>
  <Event>
    <Absolute>174976</Absolute>
    <NoteOff Channel="10" Note="42" Velocity="0"/>
  </Event>
  <Event>
    <Absolute>175104</Absolute>
    <NoteOn Channel="10" Note="83" Velocity="61"/>
  </Event>
  <Event>
    <Absolute>175104</Absolute>
    <NoteOn Channel="10" Note="42" Velocity="76"/>
  </Event>
  <Event>
    <Absolute>175104</Absolute>
    <NoteOn Channel="10" Note="36" Velocity="126"/>
  </Event>
  <Event>
    <Absolute>175232</Absolute>
    <NoteOff Channel="10" Note="83" Velocity="0"/>
  </Event>
  <Event>
    <Absolute>175360</Absolute>
    <NoteOff Channel="10" Note="42" Velocity="0"/>
  </Event>
  <Event>
    <Absolute>175488</Absolute>
    <NoteOff Channel="10" Note="36" Velocity="0"/>
  </Event>
  <Event>
    <Absolute>175488</Absolute>
    <NoteOn Channel="10" Note="83" Velocity="61"/>
  </Event>
  <Event>
    <Absolute>175488</Absolute>
    <NoteOn Channel="10" Note="38" Velocity="126"/>
  </Event>
  <Event>
    <Absolute>175488</Absolute>
    <NoteOn Channel="10" Note="42" Velocity="76"/>
  </Event>
  <Event>
    <Absolute>175616</Absolute>
    <NoteOff Channel="10" Note="38" Velocity="0"/>
  </Event>
  <Event>
    <Absolute>175744</Absolute>
    <NoteOff Channel="10" Note="83" Velocity="0"/>
  </Event>
  <Event>
    <Absolute>175744</Absolute>
    <NoteOff Channel="10" Note="42" Velocity="0"/>
  </Event>
  <Event>
    <Absolute>175744</Absolute>
    <NoteOn Channel="10" Note="36" Velocity="126"/>
  </Event>
  <Event>
    <Absolute>175872</Absolute>
    <NoteOff Channel="10" Note="36" Velocity="0"/>
  </Event>
  <Event>
    <Absolute>175872</Absolute>
    <NoteOn Channel="10" Note="42" Velocity="76"/>
  </Event>
  <Event>
    <Absolute>175872</Absolute>
    <NoteOn Channel="10" Note="83" Velocity="61"/>
  </Event>
  <Event>
    <Absolute>176128</Absolute>
    <NoteOff Channel="10" Note="42" Velocity="0"/>
  </Event>
  <Event>
    <Absolute>176128</Absolute>
    <NoteOff Channel="10" Note="83" Velocity="0"/>
  </Event>
  <Event>
    <Absolute>176128</Absolute>
    <NoteOn Channel="10" Note="36" Velocity="126"/>
  </Event>
  <Event>
    <Absolute>176256</Absolute>
    <NoteOff Channel="10" Note="36" Velocity="0"/>
  </Event>
  <Event>
    <Absolute>176256</Absolute>
    <NoteOn Channel="10" Note="38" Velocity="126"/>
  </Event>
  <Event>
    <Absolute>176256</Absolute>
    <NoteOn Channel="10" Note="42" Velocity="76"/>
  </Event>
  <Event>
    <Absolute>176256</Absolute>
    <NoteOn Channel="10" Note="83" Velocity="61"/>
  </Event>
  <Event>
    <Absolute>176384</Absolute>
    <NoteOff Channel="10" Note="38" Velocity="0"/>
  </Event>
  <Event>
    <Absolute>176512</Absolute>
    <NoteOff Channel="10" Note="42" Velocity="0"/>
  </Event>
  <Event>
    <Absolute>176512</Absolute>
    <NoteOff Channel="10" Note="83" Velocity="0"/>
  </Event>
  <Event>
    <Absolute>176640</Absolute>
    <NoteOn Channel="10" Note="83" Velocity="61"/>
  </Event>
  <Event>
    <Absolute>176640</Absolute>
    <NoteOn Channel="10" Note="36" Velocity="126"/>
  </Event>
  <Event>
    <Absolute>176640</Absolute>
    <NoteOn Channel="10" Note="42" Velocity="76"/>
  </Event>
  <Event>
    <Absolute>176896</Absolute>
    <NoteOff Channel="10" Note="83" Velocity="0"/>
  </Event>
  <Event>
    <Absolute>176896</Absolute>
    <NoteOff Channel="10" Note="36" Velocity="0"/>
  </Event>
  <Event>
    <Absolute>176896</Absolute>
    <NoteOff Channel="10" Note="42" Velocity="0"/>
  </Event>
  <Event>
    <Absolute>177024</Absolute>
    <NoteOn Channel="10" Note="42" Velocity="76"/>
  </Event>
  <Event>
    <Absolute>177024</Absolute>
    <NoteOn Channel="10" Note="83" Velocity="61"/>
  </Event>
  <Event>
    <Absolute>177024</Absolute>
    <NoteOn Channel="10" Note="38" Velocity="126"/>
  </Event>
  <Event>
    <Absolute>177152</Absolute>
    <NoteOff Channel="10" Note="38" Velocity="0"/>
  </Event>
  <Event>
    <Absolute>177280</Absolute>
    <NoteOff Channel="10" Note="42" Velocity="0"/>
  </Event>
  <Event>
    <Absolute>177280</Absolute>
    <NoteOff Channel="10" Note="83" Velocity="0"/>
  </Event>
  <Event>
    <Absolute>177408</Absolute>
    <NoteOn Channel="10" Note="42" Velocity="76"/>
  </Event>
  <Event>
    <Absolute>177408</Absolute>
    <NoteOn Channel="10" Note="36" Velocity="126"/>
  </Event>
  <Event>
    <Absolute>177408</Absolute>
    <NoteOn Channel="10" Note="83" Velocity="61"/>
  </Event>
  <Event>
    <Absolute>177536</Absolute>
    <NoteOff Channel="10" Note="36" Velocity="0"/>
  </Event>
  <Event>
    <Absolute>177664</Absolute>
    <NoteOff Channel="10" Note="42" Velocity="0"/>
  </Event>
  <Event>
    <Absolute>177664</Absolute>
    <NoteOff Channel="10" Note="83" Velocity="0"/>
  </Event>
  <Event>
    <Absolute>177664</Absolute>
    <NoteOn Channel="10" Note="36" Velocity="126"/>
  </Event>
  <Event>
    <Absolute>177792</Absolute>
    <NoteOff Channel="10" Note="36" Velocity="0"/>
  </Event>
  <Event>
    <Absolute>177792</Absolute>
    <NoteOn Channel="10" Note="83" Velocity="61"/>
  </Event>
  <Event>
    <Absolute>177792</Absolute>
    <NoteOn Channel="10" Note="38" Velocity="126"/>
  </Event>
  <Event>
    <Absolute>177792</Absolute>
    <NoteOn Channel="10" Note="42" Velocity="76"/>
  </Event>
  <Event>
    <Absolute>177920</Absolute>
    <NoteOff Channel="10" Note="38" Velocity="0"/>
  </Event>
  <Event>
    <Absolute>178048</Absolute>
    <NoteOff Channel="10" Note="83" Velocity="0"/>
  </Event>
  <Event>
    <Absolute>178048</Absolute>
    <NoteOff Channel="10" Note="42" Velocity="0"/>
  </Event>
  <Event>
    <Absolute>178176</Absolute>
    <NoteOn Channel="10" Note="42" Velocity="76"/>
  </Event>
  <Event>
    <Absolute>178176</Absolute>
    <NoteOn Channel="10" Note="36" Velocity="126"/>
  </Event>
  <Event>
    <Absolute>178176</Absolute>
    <NoteOn Channel="10" Note="83" Velocity="61"/>
  </Event>
  <Event>
    <Absolute>178304</Absolute>
    <NoteOff Channel="10" Note="36" Velocity="0"/>
  </Event>
  <Event>
    <Absolute>178432</Absolute>
    <NoteOff Channel="10" Note="42" Velocity="0"/>
  </Event>
  <Event>
    <Absolute>178432</Absolute>
    <NoteOff Channel="10" Note="83" Velocity="0"/>
  </Event>
  <Event>
    <Absolute>178560</Absolute>
    <NoteOn Channel="10" Note="38" Velocity="126"/>
  </Event>
  <Event>
    <Absolute>178560</Absolute>
    <NoteOn Channel="10" Note="83" Velocity="61"/>
  </Event>
  <Event>
    <Absolute>178560</Absolute>
    <NoteOn Channel="10" Note="42" Velocity="76"/>
  </Event>
  <Event>
    <Absolute>178688</Absolute>
    <NoteOff Channel="10" Note="38" Velocity="0"/>
  </Event>
  <Event>
    <Absolute>178816</Absolute>
    <NoteOff Channel="10" Note="83" Velocity="0"/>
  </Event>
  <Event>
    <Absolute>178816</Absolute>
    <NoteOff Channel="10" Note="42" Velocity="0"/>
  </Event>
  <Event>
    <Absolute>178944</Absolute>
    <NoteOn Channel="10" Note="36" Velocity="126"/>
  </Event>
  <Event>
    <Absolute>178944</Absolute>
    <NoteOn Channel="10" Note="83" Velocity="61"/>
  </Event>
  <Event>
    <Absolute>178944</Absolute>
    <NoteOn Channel="10" Note="42" Velocity="76"/>
  </Event>
  <Event>
    <Absolute>179072</Absolute>
    <NoteOff Channel="10" Note="36" Velocity="0"/>
  </Event>
  <Event>
    <Absolute>179200</Absolute>
    <NoteOff Channel="10" Note="83" Velocity="0"/>
  </Event>
  <Event>
    <Absolute>179200</Absolute>
    <NoteOff Channel="10" Note="42" Velocity="0"/>
  </Event>
  <Event>
    <Absolute>179200</Absolute>
    <NoteOn Channel="10" Note="36" Velocity="126"/>
  </Event>
  <Event>
    <Absolute>179328</Absolute>
    <NoteOff Channel="10" Note="36" Velocity="0"/>
  </Event>
  <Event>
    <Absolute>179328</Absolute>
    <NoteOn Channel="10" Note="83" Velocity="61"/>
  </Event>
  <Event>
    <Absolute>179328</Absolute>
    <NoteOn Channel="10" Note="38" Velocity="126"/>
  </Event>
  <Event>
    <Absolute>179328</Absolute>
    <NoteOn Channel="10" Note="42" Velocity="76"/>
  </Event>
  <Event>
    <Absolute>179456</Absolute>
    <NoteOff Channel="10" Note="38" Velocity="0"/>
  </Event>
  <Event>
    <Absolute>179584</Absolute>
    <NoteOff Channel="10" Note="83" Velocity="0"/>
  </Event>
  <Event>
    <Absolute>179584</Absolute>
    <NoteOff Channel="10" Note="42" Velocity="0"/>
  </Event>
  <Event>
    <Absolute>179712</Absolute>
    <NoteOn Channel="10" Note="83" Velocity="61"/>
  </Event>
  <Event>
    <Absolute>179712</Absolute>
    <NoteOn Channel="10" Note="36" Velocity="126"/>
  </Event>
  <Event>
    <Absolute>179712</Absolute>
    <NoteOn Channel="10" Note="42" Velocity="76"/>
  </Event>
  <Event>
    <Absolute>179968</Absolute>
    <NoteOff Channel="10" Note="83" Velocity="0"/>
  </Event>
  <Event>
    <Absolute>179968</Absolute>
    <NoteOff Channel="10" Note="36" Velocity="0"/>
  </Event>
  <Event>
    <Absolute>179968</Absolute>
    <NoteOff Channel="10" Note="42" Velocity="0"/>
  </Event>
  <Event>
    <Absolute>180096</Absolute>
    <NoteOn Channel="10" Note="42" Velocity="76"/>
  </Event>
  <Event>
    <Absolute>180096</Absolute>
    <NoteOn Channel="10" Note="83" Velocity="61"/>
  </Event>
  <Event>
    <Absolute>180096</Absolute>
    <NoteOn Channel="10" Note="38" Velocity="126"/>
  </Event>
  <Event>
    <Absolute>180224</Absolute>
    <NoteOff Channel="10" Note="38" Velocity="0"/>
  </Event>
  <Event>
    <Absolute>180352</Absolute>
    <NoteOff Channel="10" Note="42" Velocity="0"/>
  </Event>
  <Event>
    <Absolute>180352</Absolute>
    <NoteOff Channel="10" Note="83" Velocity="0"/>
  </Event>
  <Event>
    <Absolute>180480</Absolute>
    <NoteOn Channel="10" Note="42" Velocity="76"/>
  </Event>
  <Event>
    <Absolute>180480</Absolute>
    <NoteOn Channel="10" Note="36" Velocity="126"/>
  </Event>
  <Event>
    <Absolute>180480</Absolute>
    <NoteOn Channel="10" Note="83" Velocity="61"/>
  </Event>
  <Event>
    <Absolute>180608</Absolute>
    <NoteOff Channel="10" Note="36" Velocity="0"/>
  </Event>
  <Event>
    <Absolute>180736</Absolute>
    <NoteOff Channel="10" Note="42" Velocity="0"/>
  </Event>
  <Event>
    <Absolute>180736</Absolute>
    <NoteOff Channel="10" Note="83" Velocity="0"/>
  </Event>
  <Event>
    <Absolute>180736</Absolute>
    <NoteOn Channel="10" Note="36" Velocity="126"/>
  </Event>
  <Event>
    <Absolute>180864</Absolute>
    <NoteOff Channel="10" Note="36" Velocity="0"/>
  </Event>
  <Event>
    <Absolute>180864</Absolute>
    <NoteOn Channel="10" Note="83" Velocity="61"/>
  </Event>
  <Event>
    <Absolute>180864</Absolute>
    <NoteOn Channel="10" Note="38" Velocity="126"/>
  </Event>
  <Event>
    <Absolute>180864</Absolute>
    <NoteOn Channel="10" Note="42" Velocity="76"/>
  </Event>
  <Event>
    <Absolute>180992</Absolute>
    <NoteOff Channel="10" Note="38" Velocity="0"/>
  </Event>
  <Event>
    <Absolute>181120</Absolute>
    <NoteOff Channel="10" Note="83" Velocity="0"/>
  </Event>
  <Event>
    <Absolute>181120</Absolute>
    <NoteOff Channel="10" Note="42" Velocity="0"/>
  </Event>
  <Event>
    <Absolute>181248</Absolute>
    <NoteOn Channel="10" Note="42" Velocity="76"/>
  </Event>
  <Event>
    <Absolute>181248</Absolute>
    <NoteOn Channel="10" Note="36" Velocity="126"/>
  </Event>
  <Event>
    <Absolute>181248</Absolute>
    <NoteOn Channel="10" Note="83" Velocity="61"/>
  </Event>
  <Event>
    <Absolute>181376</Absolute>
    <NoteOff Channel="10" Note="36" Velocity="0"/>
  </Event>
  <Event>
    <Absolute>181504</Absolute>
    <NoteOff Channel="10" Note="42" Velocity="0"/>
  </Event>
  <Event>
    <Absolute>181504</Absolute>
    <NoteOff Channel="10" Note="83" Velocity="0"/>
  </Event>
  <Event>
    <Absolute>181632</Absolute>
    <NoteOn Channel="10" Note="38" Velocity="126"/>
  </Event>
  <Event>
    <Absolute>181632</Absolute>
    <NoteOn Channel="10" Note="83" Velocity="61"/>
  </Event>
  <Event>
    <Absolute>181632</Absolute>
    <NoteOn Channel="10" Note="42" Velocity="76"/>
  </Event>
  <Event>
    <Absolute>181760</Absolute>
    <NoteOff Channel="10" Note="38" Velocity="0"/>
  </Event>
  <Event>
    <Absolute>181888</Absolute>
    <NoteOff Channel="10" Note="83" Velocity="0"/>
  </Event>
  <Event>
    <Absolute>181888</Absolute>
    <NoteOff Channel="10" Note="42" Velocity="0"/>
  </Event>
  <Event>
    <Absolute>182016</Absolute>
    <NoteOn Channel="10" Note="36" Velocity="126"/>
  </Event>
  <Event>
    <Absolute>182016</Absolute>
    <NoteOn Channel="10" Note="83" Velocity="61"/>
  </Event>
  <Event>
    <Absolute>182016</Absolute>
    <NoteOn Channel="10" Note="42" Velocity="76"/>
  </Event>
  <Event>
    <Absolute>182144</Absolute>
    <NoteOff Channel="10" Note="36" Velocity="0"/>
  </Event>
  <Event>
    <Absolute>182272</Absolute>
    <NoteOff Channel="10" Note="83" Velocity="0"/>
  </Event>
  <Event>
    <Absolute>182272</Absolute>
    <NoteOff Channel="10" Note="42" Velocity="0"/>
  </Event>
  <Event>
    <Absolute>182272</Absolute>
    <NoteOn Channel="10" Note="36" Velocity="126"/>
  </Event>
  <Event>
    <Absolute>182400</Absolute>
    <NoteOff Channel="10" Note="36" Velocity="0"/>
  </Event>
  <Event>
    <Absolute>182400</Absolute>
    <NoteOn Channel="10" Note="83" Velocity="61"/>
  </Event>
  <Event>
    <Absolute>182400</Absolute>
    <NoteOn Channel="10" Note="38" Velocity="126"/>
  </Event>
  <Event>
    <Absolute>182400</Absolute>
    <NoteOn Channel="10" Note="42" Velocity="76"/>
  </Event>
  <Event>
    <Absolute>182528</Absolute>
    <NoteOff Channel="10" Note="38" Velocity="0"/>
  </Event>
  <Event>
    <Absolute>182656</Absolute>
    <NoteOff Channel="10" Note="83" Velocity="0"/>
  </Event>
  <Event>
    <Absolute>182656</Absolute>
    <NoteOff Channel="10" Note="42" Velocity="0"/>
  </Event>
  <Event>
    <Absolute>182784</Absolute>
    <NoteOn Channel="10" Note="83" Velocity="70"/>
  </Event>
  <Event>
    <Absolute>182784</Absolute>
    <NoteOn Channel="10" Note="54" Velocity="127"/>
  </Event>
  <Event>
    <Absolute>182816</Absolute>
    <NoteOn Channel="10" Note="54" Velocity="127"/>
  </Event>
  <Event>
    <Absolute>182868</Absolute>
    <NoteOff Channel="10" Note="54" Velocity="0"/>
  </Event>
  <Event>
    <Absolute>183088</Absolute>
    <NoteOff Channel="10" Note="54" Velocity="0"/>
  </Event>
  <Event>
    <Absolute>183648</Absolute>
    <NoteOff Channel="10" Note="83" Velocity="0"/>
  </Event>
  <Event>
    <Absolute>185604</Absolute>
    <NoteOn Channel="10" Note="54" Velocity="127"/>
  </Event>
  <Event>
    <Absolute>185644</Absolute>
    <NoteOff Channel="10" Note="54" Velocity="0"/>
  </Event>
  <Event>
    <Absolute>185664</Absolute>
    <NoteOn Channel="10" Note="54" Velocity="127"/>
  </Event>
  <Event>
    <Absolute>185684</Absolute>
    <NoteOn Channel="10" Note="54" Velocity="127"/>
  </Event>
  <Event>
    <Absolute>185728</Absolute>
    <NoteOff Channel="10" Note="54" Velocity="0"/>
  </Event>
  <Event>
    <Absolute>185740</Absolute>
    <NoteOn Channel="10" Note="54" Velocity="127"/>
  </Event>
  <Event>
    <Absolute>185760</Absolute>
    <NoteOff Channel="10" Note="54" Velocity="0"/>
  </Event>
  <Event>
    <Absolute>185776</Absolute>
    <NoteOff Channel="10" Note="54" Velocity="0"/>
  </Event>
  <Event>
    <Absolute>185788</Absolute>
    <NoteOn Channel="10" Note="54" Velocity="127"/>
  </Event>
  <Event>
    <Absolute>185816</Absolute>
    <NoteOn Channel="10" Note="54" Velocity="127"/>
  </Event>
  <Event>
    <Absolute>185856</Absolute>
    <NoteOn Channel="10" Note="83" Velocity="70"/>
  </Event>
  <Event>
    <Absolute>185860</Absolute>
    <NoteOff Channel="10" Note="54" Velocity="0"/>
  </Event>
  <Event>
    <Absolute>185904</Absolute>
    <NoteOff Channel="10" Note="54" Velocity="0"/>
  </Event>
  <Event>
    <Absolute>186144</Absolute>
    <NoteOff Channel="10" Note="83" Velocity="0"/>
  </Event>
  <Event>
    <Absolute>188776</Absolute>
    <NoteOn Channel="10" Note="54" Velocity="127"/>
  </Event>
  <Event>
    <Absolute>188800</Absolute>
    <NoteOff Channel="10" Note="54" Velocity="0"/>
  </Event>
  <Event>
    <Absolute>188812</Absolute>
    <NoteOn Channel="10" Note="54" Velocity="127"/>
  </Event>
  <Event>
    <Absolute>188856</Absolute>
    <NoteOff Channel="10" Note="54" Velocity="0"/>
  </Event>
  <Event>
    <Absolute>188896</Absolute>
    <NoteOn Channel="10" Note="54" Velocity="127"/>
  </Event>
  <Event>
    <Absolute>188928</Absolute>
    <NoteOn Channel="10" Note="83" Velocity="70"/>
  </Event>
  <Event>
    <Absolute>188932</Absolute>
    <NoteOff Channel="10" Note="54" Velocity="0"/>
  </Event>
  <Event>
    <Absolute>188960</Absolute>
    <NoteOn Channel="10" Note="54" Velocity="127"/>
  </Event>
  <Event>
    <Absolute>189000</Absolute>
    <NoteOff Channel="10" Note="54" Velocity="0"/>
  </Event>
  <Event>
    <Absolute>189120</Absolute>
    <NoteOff Channel="10" Note="83" Velocity="0"/>
  </Event>
  <Event>
    <Absolute>191804</Absolute>
    <NoteOn Channel="10" Note="54" Velocity="127"/>
  </Event>
  <Event>
    <Absolute>191844</Absolute>
    <NoteOff Channel="10" Note="54" Velocity="0"/>
  </Event>
  <Event>
    <Absolute>191872</Absolute>
    <NoteOn Channel="10" Note="54" Velocity="127"/>
  </Event>
  <Event>
    <Absolute>191908</Absolute>
    <NoteOff Channel="10" Note="54" Velocity="0"/>
  </Event>
  <Event>
    <Absolute>191936</Absolute>
    <NoteOn Channel="10" Note="54" Velocity="127"/>
  </Event>
  <Event>
    <Absolute>191976</Absolute>
    <NoteOff Channel="10" Note="54" Velocity="0"/>
  </Event>
  <Event>
    <Absolute>192000</Absolute>
    <NoteOn Channel="10" Note="83" Velocity="70"/>
  </Event>
  <Event>
    <Absolute>192004</Absolute>
    <NoteOn Channel="10" Note="54" Velocity="127"/>
  </Event>
  <Event>
    <Absolute>192068</Absolute>
    <NoteOff Channel="10" Note="54" Velocity="0"/>
  </Event>
  <Event>
    <Absolute>192192</Absolute>
    <NoteOff Channel="10" Note="83" Velocity="0"/>
  </Event>
  <Event>
    <Absolute>194864</Absolute>
    <NoteOn Channel="10" Note="54" Velocity="127"/>
  </Event>
  <Event>
    <Absolute>194892</Absolute>
    <NoteOff Channel="10" Note="54" Velocity="0"/>
  </Event>
  <Event>
    <Absolute>194916</Absolute>
    <NoteOn Channel="10" Note="54" Velocity="127"/>
  </Event>
  <Event>
    <Absolute>194960</Absolute>
    <NoteOff Channel="10" Note="54" Velocity="0"/>
  </Event>
  <Event>
    <Absolute>194984</Absolute>
    <NoteOn Channel="10" Note="54" Velocity="127"/>
  </Event>
  <Event>
    <Absolute>195024</Absolute>
    <NoteOff Channel="10" Note="54" Velocity="0"/>
  </Event>
  <Event>
    <Absolute>195048</Absolute>
    <NoteOn Channel="10" Note="54" Velocity="127"/>
  </Event>
  <Event>
    <Absolute>195104</Absolute>
    <NoteOff Channel="10" Note="54" Velocity="0"/>
  </Event>
  <Event>
    <Absolute>198144</Absolute>
    <NoteOn Channel="10" Note="54" Velocity="127"/>
  </Event>
  <Event>
    <Absolute>198144</Absolute>
    <NoteOn Channel="10" Note="83" Velocity="61"/>
  </Event>
  <Event>
    <Absolute>198144</Absolute>
    <NoteOn Channel="10" Note="36" Velocity="127"/>
  </Event>
  <Event>
    <Absolute>198336</Absolute>
    <NoteOff Channel="10" Note="54" Velocity="0"/>
  </Event>
  <Event>
    <Absolute>198336</Absolute>
    <NoteOff Channel="10" Note="83" Velocity="0"/>
  </Event>
  <Event>
    <Absolute>198400</Absolute>
    <NoteOn Channel="10" Note="38" Velocity="127"/>
  </Event>
  <Event>
    <Absolute>198464</Absolute>
    <NoteOff Channel="10" Note="38" Velocity="0"/>
  </Event>
  <Event>
    <Absolute>198528</Absolute>
    <NoteOn Channel="10" Note="83" Velocity="61"/>
  </Event>
  <Event>
    <Absolute>198528</Absolute>
    <NoteOn Channel="10" Note="54" Velocity="127"/>
  </Event>
  <Event>
    <Absolute>198528</Absolute>
    <NoteOn Channel="10" Note="38" Velocity="127"/>
  </Event>
  <Event>
    <Absolute>198592</Absolute>
    <NoteOff Channel="10" Note="38" Velocity="0"/>
  </Event>
  <Event>
    <Absolute>198720</Absolute>
    <NoteOff Channel="10" Note="36" Velocity="0"/>
  </Event>
  <Event>
    <Absolute>198720</Absolute>
    <NoteOff Channel="10" Note="54" Velocity="0"/>
  </Event>
  <Event>
    <Absolute>198784</Absolute>
    <NoteOff Channel="10" Note="83" Velocity="0"/>
  </Event>
  <Event>
    <Absolute>198880</Absolute>
    <ControlChange Channel="10" Control="7" Value="116"/>
  </Event>
  <Event>
    <Absolute>198912</Absolute>
    <NoteOn Channel="10" Note="54" Velocity="127"/>
  </Event>
  <Event>
    <Absolute>198912</Absolute>
    <NoteOn Channel="10" Note="83" Velocity="61"/>
  </Event>
  <Event>
    <Absolute>198912</Absolute>
    <NoteOn Channel="10" Note="36" Velocity="127"/>
  </Event>
  <Event>
    <Absolute>199104</Absolute>
    <NoteOff Channel="10" Note="54" Velocity="0"/>
  </Event>
  <Event>
    <Absolute>199168</Absolute>
    <NoteOff Channel="10" Note="83" Velocity="0"/>
  </Event>
  <Event>
    <Absolute>199296</Absolute>
    <NoteOn Channel="10" Note="54" Velocity="127"/>
  </Event>
  <Event>
    <Absolute>199296</Absolute>
    <NoteOn Channel="10" Note="83" Velocity="61"/>
  </Event>
  <Event>
    <Absolute>199316</Absolute>
    <NoteOn Channel="10" Note="38" Velocity="127"/>
  </Event>
  <Event>
    <Absolute>199488</Absolute>
    <NoteOff Channel="10" Note="36" Velocity="0"/>
  </Event>
  <Event>
    <Absolute>199552</Absolute>
    <NoteOff Channel="10" Note="54" Velocity="0"/>
  </Event>
  <Event>
    <Absolute>199552</Absolute>
    <NoteOff Channel="10" Note="83" Velocity="0"/>
  </Event>
  <Event>
    <Absolute>199680</Absolute>
    <NoteOn Channel="10" Note="83" Velocity="61"/>
  </Event>
  <Event>
    <Absolute>199680</Absolute>
    <NoteOn Channel="10" Note="54" Velocity="127"/>
  </Event>
  <Event>
    <Absolute>199680</Absolute>
    <NoteOn Channel="10" Note="36" Velocity="127"/>
  </Event>
  <Event>
    <Absolute>199688</Absolute>
    <NoteOff Channel="10" Note="38" Velocity="0"/>
  </Event>
  <Event>
    <Absolute>199936</Absolute>
    <NoteOff Channel="10" Note="83" Velocity="0"/>
  </Event>
  <Event>
    <Absolute>199936</Absolute>
    <NoteOff Channel="10" Note="54" Velocity="0"/>
  </Event>
  <Event>
    <Absolute>199936</Absolute>
    <NoteOn Channel="10" Note="43" Velocity="127"/>
  </Event>
  <Event>
    <Absolute>200000</Absolute>
    <NoteOff Channel="10" Note="43" Velocity="0"/>
  </Event>
  <Event>
    <Absolute>200048</Absolute>
    <ControlChange Channel="10" Control="7" Value="115"/>
  </Event>
  <Event>
    <Absolute>200064</Absolute>
    <NoteOn Channel="10" Note="83" Velocity="61"/>
  </Event>
  <Event>
    <Absolute>200064</Absolute>
    <NoteOn Channel="10" Note="54" Velocity="127"/>
  </Event>
  <Event>
    <Absolute>200064</Absolute>
    <NoteOn Channel="10" Note="43" Velocity="127"/>
  </Event>
  <Event>
    <Absolute>200072</Absolute>
    <NoteOn Channel="10" Note="38" Velocity="127"/>
  </Event>
  <Event>
    <Absolute>200192</Absolute>
    <NoteOff Channel="10" Note="43" Velocity="0"/>
  </Event>
  <Event>
    <Absolute>200256</Absolute>
    <NoteOff Channel="10" Note="36" Velocity="0"/>
  </Event>
  <Event>
    <Absolute>200320</Absolute>
    <NoteOff Channel="10" Note="83" Velocity="0"/>
  </Event>
  <Event>
    <Absolute>200320</Absolute>
    <NoteOff Channel="10" Note="54" Velocity="0"/>
  </Event>
  <Event>
    <Absolute>200408</Absolute>
    <ControlChange Channel="10" Control="7" Value="114"/>
  </Event>
  <Event>
    <Absolute>200448</Absolute>
    <NoteOn Channel="10" Note="83" Velocity="61"/>
  </Event>
  <Event>
    <Absolute>200448</Absolute>
    <NoteOn Channel="10" Note="36" Velocity="127"/>
  </Event>
  <Event>
    <Absolute>200448</Absolute>
    <NoteOn Channel="10" Note="54" Velocity="127"/>
  </Event>
  <Event>
    <Absolute>200460</Absolute>
    <NoteOff Channel="10" Note="38" Velocity="0"/>
  </Event>
  <Event>
    <Absolute>200704</Absolute>
    <NoteOff Channel="10" Note="83" Velocity="0"/>
  </Event>
  <Event>
    <Absolute>200704</Absolute>
    <NoteOff Channel="10" Note="54" Velocity="0"/>
  </Event>
  <Event>
    <Absolute>200704</Absolute>
    <ControlChange Channel="10" Control="7" Value="113"/>
  </Event>
  <Event>
    <Absolute>200816</Absolute>
    <ControlChange Channel="10" Control="7" Value="112"/>
  </Event>
  <Event>
    <Absolute>200832</Absolute>
    <NoteOn Channel="10" Note="54" Velocity="127"/>
  </Event>
  <Event>
    <Absolute>200832</Absolute>
    <NoteOn Channel="10" Note="83" Velocity="61"/>
  </Event>
  <Event>
    <Absolute>200832</Absolute>
    <NoteOn Channel="10" Note="38" Velocity="127"/>
  </Event>
  <Event>
    <Absolute>201024</Absolute>
    <NoteOff Channel="10" Note="36" Velocity="0"/>
  </Event>
  <Event>
    <Absolute>201088</Absolute>
    <NoteOff Channel="10" Note="54" Velocity="0"/>
  </Event>
  <Event>
    <Absolute>201088</Absolute>
    <NoteOff Channel="10" Note="83" Velocity="0"/>
  </Event>
  <Event>
    <Absolute>201104</Absolute>
    <ControlChange Channel="10" Control="7" Value="111"/>
  </Event>
  <Event>
    <Absolute>201120</Absolute>
    <ControlChange Channel="10" Control="7" Value="110"/>
  </Event>
  <Event>
    <Absolute>201216</Absolute>
    <NoteOn Channel="10" Note="36" Velocity="127"/>
  </Event>
  <Event>
    <Absolute>201216</Absolute>
    <NoteOn Channel="10" Note="83" Velocity="61"/>
  </Event>
  <Event>
    <Absolute>201216</Absolute>
    <NoteOn Channel="10" Note="54" Velocity="127"/>
  </Event>
  <Event>
    <Absolute>201256</Absolute>
    <NoteOff Channel="10" Note="38" Velocity="0"/>
  </Event>
  <Event>
    <Absolute>201312</Absolute>
    <ControlChange Channel="10" Control="7" Value="109"/>
  </Event>
  <Event>
    <Absolute>201472</Absolute>
    <NoteOff Channel="10" Note="83" Velocity="0"/>
  </Event>
  <Event>
    <Absolute>201472</Absolute>
    <NoteOff Channel="10" Note="54" Velocity="0"/>
  </Event>
  <Event>
    <Absolute>201472</Absolute>
    <ControlChange Channel="10" Control="7" Value="108"/>
  </Event>
  <Event>
    <Absolute>201472</Absolute>
    <NoteOn Channel="10" Note="38" Velocity="127"/>
  </Event>
  <Event>
    <Absolute>201536</Absolute>
    <NoteOff Channel="10" Note="38" Velocity="0"/>
  </Event>
  <Event>
    <Absolute>201536</Absolute>
    <ControlChange Channel="10" Control="7" Value="107"/>
  </Event>
  <Event>
    <Absolute>201584</Absolute>
    <ControlChange Channel="10" Control="7" Value="106"/>
  </Event>
  <Event>
    <Absolute>201600</Absolute>
    <NoteOn Channel="10" Note="83" Velocity="61"/>
  </Event>
  <Event>
    <Absolute>201600</Absolute>
    <NoteOn Channel="10" Note="54" Velocity="127"/>
  </Event>
  <Event>
    <Absolute>201600</Absolute>
    <NoteOn Channel="10" Note="38" Velocity="127"/>
  </Event>
  <Event>
    <Absolute>201600</Absolute>
    <NoteOn Channel="10" Note="38" Velocity="127"/>
  </Event>
  <Event>
    <Absolute>201728</Absolute>
    <NoteOff Channel="10" Note="38" Velocity="0"/>
  </Event>
  <Event>
    <Absolute>201728</Absolute>
    <ControlChange Channel="10" Control="7" Value="105"/>
  </Event>
  <Event>
    <Absolute>201792</Absolute>
    <NoteOff Channel="10" Note="36" Velocity="0"/>
  </Event>
  <Event>
    <Absolute>201856</Absolute>
    <NoteOff Channel="10" Note="83" Velocity="0"/>
  </Event>
  <Event>
    <Absolute>201856</Absolute>
    <NoteOff Channel="10" Note="54" Velocity="0"/>
  </Event>
  <Event>
    <Absolute>201984</Absolute>
    <NoteOn Channel="10" Note="36" Velocity="127"/>
  </Event>
  <Event>
    <Absolute>201984</Absolute>
    <NoteOn Channel="10" Note="83" Velocity="61"/>
  </Event>
  <Event>
    <Absolute>201984</Absolute>
    <NoteOn Channel="10" Note="54" Velocity="127"/>
  </Event>
  <Event>
    <Absolute>202000</Absolute>
    <NoteOff Channel="10" Note="38" Velocity="0"/>
  </Event>
  <Event>
    <Absolute>202032</Absolute>
    <ControlChange Channel="10" Control="7" Value="104"/>
  </Event>
  <Event>
    <Absolute>202112</Absolute>
    <ControlChange Channel="10" Control="7" Value="103"/>
  </Event>
  <Event>
    <Absolute>202176</Absolute>
    <NoteOff Channel="10" Note="54" Velocity="0"/>
  </Event>
  <Event>
    <Absolute>202240</Absolute>
    <NoteOff Channel="10" Note="83" Velocity="0"/>
  </Event>
  <Event>
    <Absolute>202256</Absolute>
    <ControlChange Channel="10" Control="7" Value="102"/>
  </Event>
  <Event>
    <Absolute>202304</Absolute>
    <ControlChange Channel="10" Control="7" Value="100"/>
  </Event>
  <Event>
    <Absolute>202356</Absolute>
    <NoteOn Channel="10" Note="38" Velocity="127"/>
  </Event>
  <Event>
    <Absolute>202368</Absolute>
    <NoteOn Channel="10" Note="83" Velocity="61"/>
  </Event>
  <Event>
    <Absolute>202368</Absolute>
    <NoteOn Channel="10" Note="54" Velocity="127"/>
  </Event>
  <Event>
    <Absolute>202400</Absolute>
    <ControlChange Channel="10" Control="7" Value="99"/>
  </Event>
  <Event>
    <Absolute>202416</Absolute>
    <ControlChange Channel="10" Control="7" Value="97"/>
  </Event>
  <Event>
    <Absolute>202480</Absolute>
    <ControlChange Channel="10" Control="7" Value="96"/>
  </Event>
  <Event>
    <Absolute>202528</Absolute>
    <ControlChange Channel="10" Control="7" Value="94"/>
  </Event>
  <Event>
    <Absolute>202560</Absolute>
    <NoteOff Channel="10" Note="36" Velocity="0"/>
  </Event>
  <Event>
    <Absolute>202576</Absolute>
    <ControlChange Channel="10" Control="7" Value="93"/>
  </Event>
  <Event>
    <Absolute>202592</Absolute>
    <ControlChange Channel="10" Control="7" Value="92"/>
  </Event>
  <Event>
    <Absolute>202624</Absolute>
    <NoteOff Channel="10" Note="83" Velocity="0"/>
  </Event>
  <Event>
    <Absolute>202624</Absolute>
    <NoteOff Channel="10" Note="54" Velocity="0"/>
  </Event>
  <Event>
    <Absolute>202672</Absolute>
    <ControlChange Channel="10" Control="7" Value="91"/>
  </Event>
  <Event>
    <Absolute>202720</Absolute>
    <ControlChange Channel="10" Control="7" Value="89"/>
  </Event>
  <Event>
    <Absolute>202752</Absolute>
    <NoteOn Channel="10" Note="83" Velocity="61"/>
  </Event>
  <Event>
    <Absolute>202752</Absolute>
    <NoteOn Channel="10" Note="54" Velocity="127"/>
  </Event>
  <Event>
    <Absolute>202752</Absolute>
    <NoteOn Channel="10" Note="36" Velocity="127"/>
  </Event>
  <Event>
    <Absolute>202756</Absolute>
    <NoteOff Channel="10" Note="38" Velocity="0"/>
  </Event>
  <Event>
    <Absolute>202772</Absolute>
    <ControlChange Channel="10" Control="7" Value="88"/>
  </Event>
  <Event>
    <Absolute>202788</Absolute>
    <ControlChange Channel="10" Control="7" Value="87"/>
  </Event>
  <Event>
    <Absolute>202864</Absolute>
    <ControlChange Channel="10" Control="7" Value="86"/>
  </Event>
  <Event>
    <Absolute>202944</Absolute>
    <ControlChange Channel="10" Control="7" Value="85"/>
  </Event>
  <Event>
    <Absolute>203008</Absolute>
    <NoteOff Channel="10" Note="83" Velocity="0"/>
  </Event>
  <Event>
    <Absolute>203008</Absolute>
    <NoteOff Channel="10" Note="54" Velocity="0"/>
  </Event>
  <Event>
    <Absolute>203008</Absolute>
    <ControlChange Channel="10" Control="7" Value="84"/>
  </Event>
  <Event>
    <Absolute>203008</Absolute>
    <NoteOn Channel="10" Note="43" Velocity="127"/>
  </Event>
  <Event>
    <Absolute>203040</Absolute>
    <ControlChange Channel="10" Control="7" Value="83"/>
  </Event>
  <Event>
    <Absolute>203072</Absolute>
    <NoteOff Channel="10" Note="43" Velocity="0"/>
  </Event>
  <Event>
    <Absolute>203120</Absolute>
    <ControlChange Channel="10" Control="7" Value="82"/>
  </Event>
  <Event>
    <Absolute>203136</Absolute>
    <NoteOn Channel="10" Note="83" Velocity="61"/>
  </Event>
  <Event>
    <Absolute>203136</Absolute>
    <NoteOn Channel="10" Note="43" Velocity="127"/>
  </Event>
  <Event>
    <Absolute>203136</Absolute>
    <NoteOn Channel="10" Note="54" Velocity="127"/>
  </Event>
  <Event>
    <Absolute>203140</Absolute>
    <NoteOn Channel="10" Note="38" Velocity="127"/>
  </Event>
  <Event>
    <Absolute>203188</Absolute>
    <ControlChange Channel="10" Control="7" Value="81"/>
  </Event>
  <Event>
    <Absolute>203200</Absolute>
    <NoteOff Channel="10" Note="43" Velocity="0"/>
  </Event>
  <Event>
    <Absolute>203280</Absolute>
    <ControlChange Channel="10" Control="7" Value="80"/>
  </Event>
  <Event>
    <Absolute>203328</Absolute>
    <NoteOff Channel="10" Note="36" Velocity="0"/>
  </Event>
  <Event>
    <Absolute>203360</Absolute>
    <ControlChange Channel="10" Control="7" Value="79"/>
  </Event>
  <Event>
    <Absolute>203392</Absolute>
    <NoteOff Channel="10" Note="83" Velocity="0"/>
  </Event>
  <Event>
    <Absolute>203392</Absolute>
    <NoteOff Channel="10" Note="54" Velocity="0"/>
  </Event>
  <Event>
    <Absolute>203408</Absolute>
    <ControlChange Channel="10" Control="7" Value="78"/>
  </Event>
  <Event>
    <Absolute>203504</Absolute>
    <ControlChange Channel="10" Control="7" Value="77"/>
  </Event>
  <Event>
    <Absolute>203520</Absolute>
    <NoteOn Channel="10" Note="83" Velocity="61"/>
  </Event>
  <Event>
    <Absolute>203520</Absolute>
    <NoteOn Channel="10" Note="36" Velocity="127"/>
  </Event>
  <Event>
    <Absolute>203520</Absolute>
    <NoteOn Channel="10" Note="54" Velocity="127"/>
  </Event>
  <Event>
    <Absolute>203528</Absolute>
    <NoteOff Channel="10" Note="38" Velocity="0"/>
  </Event>
  <Event>
    <Absolute>203536</Absolute>
    <ControlChange Channel="10" Control="7" Value="76"/>
  </Event>
  <Event>
    <Absolute>203624</Absolute>
    <ControlChange Channel="10" Control="7" Value="75"/>
  </Event>
  <Event>
    <Absolute>203664</Absolute>
    <ControlChange Channel="10" Control="7" Value="74"/>
  </Event>
  <Event>
    <Absolute>203720</Absolute>
    <ControlChange Channel="10" Control="7" Value="73"/>
  </Event>
  <Event>
    <Absolute>203752</Absolute>
    <ControlChange Channel="10" Control="7" Value="71"/>
  </Event>
  <Event>
    <Absolute>203776</Absolute>
    <NoteOff Channel="10" Note="83" Velocity="0"/>
  </Event>
  <Event>
    <Absolute>203776</Absolute>
    <NoteOff Channel="10" Note="54" Velocity="0"/>
  </Event>
  <Event>
    <Absolute>203808</Absolute>
    <ControlChange Channel="10" Control="7" Value="70"/>
  </Event>
  <Event>
    <Absolute>203900</Absolute>
    <NoteOn Channel="10" Note="38" Velocity="127"/>
  </Event>
  <Event>
    <Absolute>203904</Absolute>
    <NoteOn Channel="10" Note="54" Velocity="127"/>
  </Event>
  <Event>
    <Absolute>203904</Absolute>
    <NoteOn Channel="10" Note="83" Velocity="61"/>
  </Event>
  <Event>
    <Absolute>203920</Absolute>
    <ControlChange Channel="10" Control="7" Value="69"/>
  </Event>
  <Event>
    <Absolute>203984</Absolute>
    <ControlChange Channel="10" Control="7" Value="68"/>
  </Event>
  <Event>
    <Absolute>204032</Absolute>
    <ControlChange Channel="10" Control="7" Value="66"/>
  </Event>
  <Event>
    <Absolute>204096</Absolute>
    <NoteOff Channel="10" Note="36" Velocity="0"/>
  </Event>
  <Event>
    <Absolute>204112</Absolute>
    <ControlChange Channel="10" Control="7" Value="65"/>
  </Event>
  <Event>
    <Absolute>204160</Absolute>
    <NoteOff Channel="10" Note="54" Velocity="0"/>
  </Event>
  <Event>
    <Absolute>204160</Absolute>
    <NoteOff Channel="10" Note="83" Velocity="0"/>
  </Event>
  <Event>
    <Absolute>204192</Absolute>
    <ControlChange Channel="10" Control="7" Value="63"/>
  </Event>
  <Event>
    <Absolute>204288</Absolute>
    <NoteOn Channel="10" Note="83" Velocity="61"/>
  </Event>
  <Event>
    <Absolute>204288</Absolute>
    <NoteOn Channel="10" Note="36" Velocity="127"/>
  </Event>
  <Event>
    <Absolute>204288</Absolute>
    <NoteOn Channel="10" Note="54" Velocity="127"/>
  </Event>
  <Event>
    <Absolute>204324</Absolute>
    <NoteOff Channel="10" Note="38" Velocity="0"/>
  </Event>
  <Event>
    <Absolute>204324</Absolute>
    <ControlChange Channel="10" Control="7" Value="62"/>
  </Event>
  <Event>
    <Absolute>204368</Absolute>
    <ControlChange Channel="10" Control="7" Value="60"/>
  </Event>
  <Event>
    <Absolute>204432</Absolute>
    <ControlChange Channel="10" Control="7" Value="59"/>
  </Event>
  <Event>
    <Absolute>204480</Absolute>
    <ControlChange Channel="10" Control="7" Value="58"/>
  </Event>
  <Event>
    <Absolute>204544</Absolute>
    <NoteOff Channel="10" Note="83" Velocity="0"/>
  </Event>
  <Event>
    <Absolute>204544</Absolute>
    <NoteOff Channel="10" Note="54" Velocity="0"/>
  </Event>
  <Event>
    <Absolute>204544</Absolute>
    <NoteOn Channel="10" Note="38" Velocity="127"/>
  </Event>
  <Event>
    <Absolute>204560</Absolute>
    <ControlChange Channel="10" Control="7" Value="57"/>
  </Event>
  <Event>
    <Absolute>204608</Absolute>
    <NoteOff Channel="10" Note="38" Velocity="0"/>
  </Event>
  <Event>
    <Absolute>204624</Absolute>
    <ControlChange Channel="10" Control="7" Value="56"/>
  </Event>
  <Event>
    <Absolute>204672</Absolute>
    <ControlChange Channel="10" Control="7" Value="55"/>
  </Event>
  <Event>
    <Absolute>204672</Absolute>
    <NoteOn Channel="10" Note="54" Velocity="127"/>
  </Event>
  <Event>
    <Absolute>204672</Absolute>
    <NoteOn Channel="10" Note="38" Velocity="127"/>
  </Event>
  <Event>
    <Absolute>204672</Absolute>
    <NoteOn Channel="10" Note="83" Velocity="61"/>
  </Event>
  <Event>
    <Absolute>204696</Absolute>
    <NoteOn Channel="10" Note="38" Velocity="127"/>
  </Event>
  <Event>
    <Absolute>204712</Absolute>
    <ControlChange Channel="10" Control="7" Value="54"/>
  </Event>
  <Event>
    <Absolute>204736</Absolute>
    <NoteOff Channel="10" Note="38" Velocity="0"/>
  </Event>
  <Event>
    <Absolute>204736</Absolute>
    <ControlChange Channel="10" Control="7" Value="53"/>
  </Event>
  <Event>
    <Absolute>204768</Absolute>
    <ControlChange Channel="10" Control="7" Value="52"/>
  </Event>
  <Event>
    <Absolute>204800</Absolute>
    <NoteOff Channel="10" Note="36" Velocity="0"/>
  </Event>
  <Event>
    <Absolute>204816</Absolute>
    <ControlChange Channel="10" Control="7" Value="51"/>
  </Event>
  <Event>
    <Absolute>204896</Absolute>
    <ControlChange Channel="10" Control="7" Value="50"/>
  </Event>
  <Event>
    <Absolute>204928</Absolute>
    <NoteOff Channel="10" Note="54" Velocity="0"/>
  </Event>
  <Event>
    <Absolute>204928</Absolute>
    <NoteOff Channel="10" Note="83" Velocity="0"/>
  </Event>
  <Event>
    <Absolute>204928</Absolute>
    <ControlChange Channel="10" Control="7" Value="49"/>
  </Event>
  <Event>
    <Absolute>204992</Absolute>
    <ControlChange Channel="10" Control="7" Value="48"/>
  </Event>
  <Event>
    <Absolute>205024</Absolute>
    <ControlChange Channel="10" Control="7" Value="47"/>
  </Event>
  <Event>
    <Absolute>205056</Absolute>
    <ControlChange Channel="10" Control="7" Value="46"/>
  </Event>
  <Event>
    <Absolute>205056</Absolute>
    <NoteOn Channel="10" Note="83" Velocity="61"/>
  </Event>
  <Event>
    <Absolute>205056</Absolute>
    <NoteOn Channel="10" Note="54" Velocity="127"/>
  </Event>
  <Event>
    <Absolute>205056</Absolute>
    <NoteOn Channel="10" Note="36" Velocity="127"/>
  </Event>
  <Event>
    <Absolute>205080</Absolute>
    <NoteOff Channel="10" Note="38" Velocity="0"/>
  </Event>
  <Event>
    <Absolute>205184</Absolute>
    <ControlChange Channel="10" Control="7" Value="45"/>
  </Event>
  <Event>
    <Absolute>205248</Absolute>
    <NoteOff Channel="10" Note="54" Velocity="0"/>
  </Event>
  <Event>
    <Absolute>205264</Absolute>
    <ControlChange Channel="10" Control="7" Value="44"/>
  </Event>
  <Event>
    <Absolute>205312</Absolute>
    <NoteOff Channel="10" Note="83" Velocity="0"/>
  </Event>
  <Event>
    <Absolute>205328</Absolute>
    <ControlChange Channel="10" Control="7" Value="43"/>
  </Event>
  <Event>
    <Absolute>205424</Absolute>
    <ControlChange Channel="10" Control="7" Value="42"/>
  </Event>
  <Event>
    <Absolute>205428</Absolute>
    <NoteOn Channel="10" Note="38" Velocity="127"/>
  </Event>
  <Event>
    <Absolute>205440</Absolute>
    <NoteOn Channel="10" Note="83" Velocity="61"/>
  </Event>
  <Event>
    <Absolute>205440</Absolute>
    <NoteOn Channel="10" Note="54" Velocity="127"/>
  </Event>
  <Event>
    <Absolute>205456</Absolute>
    <ControlChange Channel="10" Control="7" Value="40"/>
  </Event>
  <Event>
    <Absolute>205488</Absolute>
    <ControlChange Channel="10" Control="7" Value="39"/>
  </Event>
  <Event>
    <Absolute>205536</Absolute>
    <ControlChange Channel="10" Control="7" Value="37"/>
  </Event>
  <Event>
    <Absolute>205552</Absolute>
    <ControlChange Channel="10" Control="7" Value="36"/>
  </Event>
  <Event>
    <Absolute>205632</Absolute>
    <NoteOff Channel="10" Note="36" Velocity="0"/>
  </Event>
  <Event>
    <Absolute>205648</Absolute>
    <ControlChange Channel="10" Control="7" Value="35"/>
  </Event>
  <Event>
    <Absolute>205696</Absolute>
    <NoteOff Channel="10" Note="83" Velocity="0"/>
  </Event>
  <Event>
    <Absolute>205696</Absolute>
    <NoteOff Channel="10" Note="54" Velocity="0"/>
  </Event>
  <Event>
    <Absolute>205728</Absolute>
    <ControlChange Channel="10" Control="7" Value="34"/>
  </Event>
  <Event>
    <Absolute>205824</Absolute>
    <NoteOn Channel="10" Note="83" Velocity="61"/>
  </Event>
  <Event>
    <Absolute>205824</Absolute>
    <NoteOn Channel="10" Note="54" Velocity="127"/>
  </Event>
  <Event>
    <Absolute>205824</Absolute>
    <NoteOn Channel="10" Note="36" Velocity="127"/>
  </Event>
  <Event>
    <Absolute>205840</Absolute>
    <NoteOff Channel="10" Note="38" Velocity="0"/>
  </Event>
  <Event>
    <Absolute>205904</Absolute>
    <ControlChange Channel="10" Control="7" Value="32"/>
  </Event>
  <Event>
    <Absolute>205920</Absolute>
    <ControlChange Channel="10" Control="7" Value="31"/>
  </Event>
  <Event>
    <Absolute>206016</Absolute>
    <NoteOff Channel="10" Note="54" Velocity="0"/>
  </Event>
  <Event>
    <Absolute>206032</Absolute>
    <ControlChange Channel="10" Control="7" Value="29"/>
  </Event>
  <Event>
    <Absolute>206080</Absolute>
    <NoteOff Channel="10" Note="83" Velocity="0"/>
  </Event>
  <Event>
    <Absolute>206080</Absolute>
    <NoteOn Channel="10" Note="43" Velocity="127"/>
  </Event>
  <Event>
    <Absolute>206112</Absolute>
    <ControlChange Channel="10" Control="7" Value="28"/>
  </Event>
  <Event>
    <Absolute>206144</Absolute>
    <NoteOff Channel="10" Note="43" Velocity="0"/>
  </Event>
  <Event>
    <Absolute>206208</Absolute>
    <NoteOn Channel="10" Note="83" Velocity="61"/>
  </Event>
  <Event>
    <Absolute>206208</Absolute>
    <NoteOn Channel="10" Note="43" Velocity="127"/>
  </Event>
  <Event>
    <Absolute>206208</Absolute>
    <NoteOn Channel="10" Note="54" Velocity="127"/>
  </Event>
  <Event>
    <Absolute>206212</Absolute>
    <NoteOn Channel="10" Note="38" Velocity="127"/>
  </Event>
  <Event>
    <Absolute>206228</Absolute>
    <ControlChange Channel="10" Control="7" Value="27"/>
  </Event>
  <Event>
    <Absolute>206272</Absolute>
    <NoteOff Channel="10" Note="43" Velocity="0"/>
  </Event>
  <Event>
    <Absolute>206288</Absolute>
    <ControlChange Channel="10" Control="7" Value="26"/>
  </Event>
  <Event>
    <Absolute>206400</Absolute>
    <NoteOff Channel="10" Note="36" Velocity="0"/>
  </Event>
  <Event>
    <Absolute>206400</Absolute>
    <NoteOff Channel="10" Note="83" Velocity="0"/>
  </Event>
  <Event>
    <Absolute>206400</Absolute>
    <NoteOff Channel="10" Note="54" Velocity="0"/>
  </Event>
  <Event>
    <Absolute>206432</Absolute>
    <ControlChange Channel="10" Control="7" Value="25"/>
  </Event>
  <Event>
    <Absolute>206528</Absolute>
    <ControlChange Channel="10" Control="7" Value="24"/>
  </Event>
  <Event>
    <Absolute>206592</Absolute>
    <NoteOn Channel="10" Note="83" Velocity="61"/>
  </Event>
  <Event>
    <Absolute>206592</Absolute>
    <NoteOn Channel="10" Note="54" Velocity="127"/>
  </Event>
  <Event>
    <Absolute>206592</Absolute>
    <NoteOn Channel="10" Note="36" Velocity="127"/>
  </Event>
  <Event>
    <Absolute>206596</Absolute>
    <NoteOff Channel="10" Note="38" Velocity="0"/>
  </Event>
  <Event>
    <Absolute>206624</Absolute>
    <ControlChange Channel="10" Control="7" Value="23"/>
  </Event>
  <Event>
    <Absolute>206720</Absolute>
    <ControlChange Channel="10" Control="7" Value="22"/>
  </Event>
  <Event>
    <Absolute>206784</Absolute>
    <NoteOff Channel="10" Note="83" Velocity="0"/>
  </Event>
  <Event>
    <Absolute>206792</Absolute>
    <ControlChange Channel="10" Control="7" Value="21"/>
  </Event>
  <Event>
    <Absolute>206848</Absolute>
    <NoteOff Channel="10" Note="54" Velocity="0"/>
  </Event>
  <Event>
    <Absolute>206848</Absolute>
    <ControlChange Channel="10" Control="7" Value="20"/>
  </Event>
  <Event>
    <Absolute>206880</Absolute>
    <ControlChange Channel="10" Control="7" Value="19"/>
  </Event>
  <Event>
    <Absolute>206968</Absolute>
    <NoteOn Channel="10" Note="38" Velocity="127"/>
  </Event>
  <Event>
    <Absolute>206976</Absolute>
    <NoteOn Channel="10" Note="83" Velocity="61"/>
  </Event>
  <Event>
    <Absolute>206976</Absolute>
    <NoteOn Channel="10" Note="54" Velocity="127"/>
  </Event>
  <Event>
    <Absolute>207008</Absolute>
    <ControlChange Channel="10" Control="7" Value="18"/>
  </Event>
  <Event>
    <Absolute>207088</Absolute>
    <ControlChange Channel="10" Control="7" Value="17"/>
  </Event>
  <Event>
    <Absolute>207104</Absolute>
    <NoteOff Channel="10" Note="36" Velocity="0"/>
  </Event>
  <Event>
    <Absolute>207168</Absolute>
    <NoteOff Channel="10" Note="83" Velocity="0"/>
  </Event>
  <Event>
    <Absolute>207232</Absolute>
    <NoteOff Channel="10" Note="54" Velocity="0"/>
  </Event>
  <Event>
    <Absolute>207360</Absolute>
    <ControlChange Channel="10" Control="7" Value="16"/>
  </Event>
  <Event>
    <Absolute>207360</Absolute>
    <NoteOn Channel="10" Note="83" Velocity="61"/>
  </Event>
  <Event>
    <Absolute>207360</Absolute>
    <NoteOn Channel="10" Note="36" Velocity="127"/>
  </Event>
  <Event>
    <Absolute>207360</Absolute>
    <NoteOn Channel="10" Note="54" Velocity="127"/>
  </Event>
  <Event>
    <Absolute>207392</Absolute>
    <NoteOff Channel="10" Note="38" Velocity="0"/>
  </Event>
  <Event>
    <Absolute>207392</Absolute>
    <ControlChange Channel="10" Control="7" Value="15"/>
  </Event>
  <Event>
    <Absolute>207552</Absolute>
    <NoteOff Channel="10" Note="83" Velocity="0"/>
  </Event>
  <Event>
    <Absolute>207584</Absolute>
    <ControlChange Channel="10" Control="7" Value="14"/>
  </Event>
  <Event>
    <Absolute>207616</Absolute>
    <NoteOff Channel="10" Note="54" Velocity="0"/>
  </Event>
  <Event>
    <Absolute>207616</Absolute>
    <NoteOn Channel="10" Note="38" Velocity="127"/>
  </Event>
  <Event>
    <Absolute>207680</Absolute>
    <NoteOff Channel="10" Note="38" Velocity="0"/>
  </Event>
  <Event>
    <Absolute>207696</Absolute>
    <ControlChange Channel="10" Control="7" Value="13"/>
  </Event>
  <Event>
    <Absolute>207744</Absolute>
    <NoteOn Channel="10" Note="83" Velocity="61"/>
  </Event>
  <Event>
    <Absolute>207744</Absolute>
    <NoteOn Channel="10" Note="54" Velocity="127"/>
  </Event>
  <Event>
    <Absolute>207744</Absolute>
    <NoteOn Channel="10" Note="38" Velocity="127"/>
  </Event>
  <Event>
    <Absolute>207752</Absolute>
    <NoteOn Channel="10" Note="38" Velocity="127"/>
  </Event>
  <Event>
    <Absolute>207808</Absolute>
    <NoteOff Channel="10" Note="38" Velocity="0"/>
  </Event>
  <Event>
    <Absolute>207808</Absolute>
    <ControlChange Channel="10" Control="7" Value="11"/>
  </Event>
  <Event>
    <Absolute>207872</Absolute>
    <NoteOff Channel="10" Note="36" Velocity="0"/>
  </Event>
  <Event>
    <Absolute>208000</Absolute>
    <NoteOff Channel="10" Note="83" Velocity="0"/>
  </Event>
  <Event>
    <Absolute>208000</Absolute>
    <NoteOff Channel="10" Note="54" Velocity="0"/>
  </Event>
  <Event>
    <Absolute>208124</Absolute>
    <NoteOff Channel="10" Note="38" Velocity="0"/>
  </Event>
  <Event>
    <Absolute>208128</Absolute>
    <ControlChange Channel="10" Control="7" Value="9"/>
  </Event>
  <Event>
    <Absolute>208128</Absolute>
    <NoteOn Channel="10" Note="54" Velocity="127"/>
  </Event>
  <Event>
    <Absolute>208128</Absolute>
    <NoteOn Channel="10" Note="83" Velocity="61"/>
  </Event>
  <Event>
    <Absolute>208224</Absolute>
    <ControlChange Channel="10" Control="7" Value="8"/>
  </Event>
  <Event>
    <Absolute>208384</Absolute>
    <NoteOff Channel="10" Note="54" Velocity="0"/>
  </Event>
  <Event>
    <Absolute>208384</Absolute>
    <NoteOff Channel="10" Note="83" Velocity="0"/>
  </Event>
  <Event>
    <Absolute>208512</Absolute>
    <NoteOn Channel="10" Note="54" Velocity="127"/>
  </Event>
  <Event>
    <Absolute>208524</Absolute>
    <NoteOn Channel="10" Note="38" Velocity="127"/>
  </Event>
  <Event>
    <Absolute>208704</Absolute>
    <NoteOff Channel="10" Note="54" Velocity="0"/>
  </Event>
  <Event>
    <Absolute>208720</Absolute>
    <ControlChange Channel="10" Control="7" Value="6"/>
  </Event>
  <Event>
    <Absolute>208832</Absolute>
    <NoteOn Channel="10" Note="54" Velocity="127"/>
  </Event>
  <Event>
    <Absolute>208912</Absolute>
    <NoteOff Channel="10" Note="38" Velocity="0"/>
  </Event>
  <Event>
    <Absolute>208912</Absolute>
    <ControlChange Channel="10" Control="7" Value="5"/>
  </Event>
  <Event>
    <Absolute>209120</Absolute>
    <ControlChange Channel="10" Control="7" Value="3"/>
  </Event>
  <Event>
    <Absolute>209152</Absolute>
    <NoteOff Channel="10" Note="54" Velocity="0"/>
  </Event>
  <Event>
    <Absolute>209152</Absolute>
    <EndOfTrack/>
  </Event>
</Track>
<Track Number="12">
  <Event>
    <Absolute>0</Absolute>
    <TrackName>Vocal 3</TrackName>
  </Event>
  <Event>
    <Absolute>0</Absolute>
    <ControlChange Channel="9" Control="0" Value="0"/>
  </Event>
  <Event>
    <Absolute>0</Absolute>
    <ProgramChange Channel="9" Number="53"/>
  </Event>
  <Event>
    <Absolute>0</Absolute>
    <ControlChange Channel="9" Control="7" Value="101"/>
  </Event>
  <Event>
    <Absolute>0</Absolute>
    <ControlChange Channel="9" Control="10" Value="47"/>
  </Event>
  <Event>
    <Absolute>0</Absolute>
    <ControlChange Channel="9" Control="91" Value="0"/>
  </Event>
  <Event>
    <Absolute>0</Absolute>
    <KeySignature Fifths="0" Mode="0"/>
  </Event>
  <Event>
    <Absolute>0</Absolute>
    <ControlChange Channel="9" Control="7" Value="120"/>
  </Event>
  <Event>
    <Absolute>0</Absolute>
    <ControlChange Channel="9" Control="10" Value="92"/>
  </Event>
  <Event>
    <Absolute>24580</Absolute>
    <NoteOn Channel="9" Note="38" Velocity="127"/>
  </Event>
  <Event>
    <Absolute>24768</Absolute>
    <NoteOff Channel="9" Note="38" Velocity="0"/>
  </Event>
  <Event>
    <Absolute>24980</Absolute>
    <NoteOn Channel="9" Note="38" Velocity="127"/>
  </Event>
  <Event>
    <Absolute>25156</Absolute>
    <NoteOff Channel="9" Note="38" Velocity="0"/>
  </Event>
  <Event>
    <Absolute>25356</Absolute>
    <NoteOn Channel="9" Note="38" Velocity="127"/>
  </Event>
  <Event>
    <Absolute>25528</Absolute>
    <NoteOff Channel="9" Note="38" Velocity="0"/>
  </Event>
  <Event>
    <Absolute>25704</Absolute>
    <NoteOn Channel="9" Note="38" Velocity="127"/>
  </Event>
  <Event>
    <Absolute>25876</Absolute>
    <NoteOff Channel="9" Note="38" Velocity="0"/>
  </Event>
  <Event>
    <Absolute>34404</Absolute>
    <NoteOn Channel="9" Note="61" Velocity="127"/>
  </Event>
  <Event>
    <Absolute>34628</Absolute>
    <NoteOff Channel="9" Note="61" Velocity="0"/>
  </Event>
  <Event>
    <Absolute>34776</Absolute>
    <NoteOn Channel="9" Note="59" Velocity="127"/>
  </Event>
  <Event>
    <Absolute>35032</Absolute>
    <NoteOff Channel="9" Note="59" Velocity="0"/>
  </Event>
  <Event>
    <Absolute>35216</Absolute>
    <NoteOn Channel="9" Note="59" Velocity="127"/>
  </Event>
  <Event>
    <Absolute>35688</Absolute>
    <NoteOff Channel="9" Note="59" Velocity="0"/>
  </Event>
  <Event>
    <Absolute>35700</Absolute>
    <NoteOn Channel="9" Note="58" Velocity="127"/>
  </Event>
  <Event>
    <Absolute>37332</Absolute>
    <NoteOff Channel="9" Note="58" Velocity="0"/>
  </Event>
  <Event>
    <Absolute>37488</Absolute>
    <NoteOn Channel="9" Note="61" Velocity="127"/>
  </Event>
  <Event>
    <Absolute>37720</Absolute>
    <NoteOff Channel="9" Note="61" Velocity="0"/>
  </Event>
  <Event>
    <Absolute>37868</Absolute>
    <NoteOn Channel="9" Note="59" Velocity="127"/>
  </Event>
  <Event>
    <Absolute>38268</Absolute>
    <NoteOff Channel="9" Note="59" Velocity="0"/>
  </Event>
  <Event>
    <Absolute>38372</Absolute>
    <NoteOn Channel="9" Note="60" Velocity="127"/>
  </Event>
  <Event>
    <Absolute>38392</Absolute>
    <NoteOn Channel="9" Note="72" Velocity="126"/>
  </Event>
  <Event>
    <Absolute>39156</Absolute>
    <NoteOff Channel="9" Note="72" Velocity="0"/>
  </Event>
  <Event>
    <Absolute>39168</Absolute>
    <NoteOn Channel="9" Note="73" Velocity="126"/>
  </Event>
  <Event>
    <Absolute>39180</Absolute>
    <NoteOff Channel="9" Note="60" Velocity="0"/>
  </Event>
  <Event>
    <Absolute>39920</Absolute>
    <NoteOff Channel="9" Note="73" Velocity="0"/>
  </Event>
  <Event>
    <Absolute>39936</Absolute>
    <NoteOn Channel="9" Note="75" Velocity="126"/>
  </Event>
  <Event>
    <Absolute>40424</Absolute>
    <NoteOff Channel="9" Note="75" Velocity="0"/>
  </Event>
  <Event>
    <Absolute>40540</Absolute>
    <NoteOn Channel="9" Note="68" Velocity="126"/>
  </Event>
  <Event>
    <Absolute>40544</Absolute>
    <NoteOn Channel="9" Note="63" Velocity="127"/>
  </Event>
  <Event>
    <Absolute>40760</Absolute>
    <NoteOff Channel="9" Note="68" Velocity="0"/>
  </Event>
  <Event>
    <Absolute>40784</Absolute>
    <NoteOff Channel="9" Note="63" Velocity="0"/>
  </Event>
  <Event>
    <Absolute>40912</Absolute>
    <NoteOn Channel="9" Note="61" Velocity="127"/>
  </Event>
  <Event>
    <Absolute>40940</Absolute>
    <NoteOn Channel="9" Note="68" Velocity="126"/>
  </Event>
  <Event>
    <Absolute>41184</Absolute>
    <NoteOff Channel="9" Note="61" Velocity="0"/>
  </Event>
  <Event>
    <Absolute>41184</Absolute>
    <NoteOff Channel="9" Note="68" Velocity="0"/>
  </Event>
  <Event>
    <Absolute>41328</Absolute>
    <NoteOn Channel="9" Note="70" Velocity="126"/>
  </Event>
  <Event>
    <Absolute>41344</Absolute>
    <NoteOn Channel="9" Note="61" Velocity="127"/>
  </Event>
  <Event>
    <Absolute>41820</Absolute>
    <NoteOn Channel="9" Note="72" Velocity="126"/>
  </Event>
  <Event>
    <Absolute>41824</Absolute>
    <NoteOff Channel="9" Note="61" Velocity="0"/>
  </Event>
  <Event>
    <Absolute>41840</Absolute>
    <NoteOn Channel="9" Note="60" Velocity="127"/>
  </Event>
  <Event>
    <Absolute>41848</Absolute>
    <NoteOff Channel="9" Note="70" Velocity="0"/>
  </Event>
  <Event>
    <Absolute>42936</Absolute>
    <NoteOff Channel="9" Note="60" Velocity="0"/>
  </Event>
  <Event>
    <Absolute>43020</Absolute>
    <NoteOn Channel="9" Note="68" Velocity="126"/>
  </Event>
  <Event>
    <Absolute>43632</Absolute>
    <NoteOn Channel="9" Note="63" Velocity="127"/>
  </Event>
  <Event>
    <Absolute>43884</Absolute>
    <NoteOff Channel="9" Note="63" Velocity="0"/>
  </Event>
  <Event>
    <Absolute>43992</Absolute>
    <NoteOn Channel="9" Note="61" Velocity="127"/>
  </Event>
  <Event>
    <Absolute>44176</Absolute>
    <NoteOff Channel="9" Note="72" Velocity="0"/>
  </Event>
  <Event>
    <Absolute>44380</Absolute>
    <NoteOff Channel="9" Note="61" Velocity="0"/>
  </Event>
  <Event>
    <Absolute>44508</Absolute>
    <NoteOff Channel="9" Note="68" Velocity="0"/>
  </Event>
  <Event>
    <Absolute>44512</Absolute>
    <NoteOn Channel="9" Note="62" Velocity="127"/>
  </Event>
  <Event>
    <Absolute>44516</Absolute>
    <NoteOn Channel="9" Note="74" Velocity="126"/>
  </Event>
  <Event>
    <Absolute>45296</Absolute>
    <NoteOff Channel="9" Note="74" Velocity="0"/>
  </Event>
  <Event>
    <Absolute>45308</Absolute>
    <NoteOn Channel="9" Note="75" Velocity="126"/>
  </Event>
  <Event>
    <Absolute>45680</Absolute>
    <NoteOff Channel="9" Note="62" Velocity="0"/>
  </Event>
  <Event>
    <Absolute>46032</Absolute>
    <NoteOff Channel="9" Note="75" Velocity="0"/>
  </Event>
  <Event>
    <Absolute>46068</Absolute>
    <NoteOn Channel="9" Note="77" Velocity="126"/>
  </Event>
  <Event>
    <Absolute>46524</Absolute>
    <NoteOff Channel="9" Note="77" Velocity="0"/>
  </Event>
  <Event>
    <Absolute>46684</Absolute>
    <NoteOn Channel="9" Note="65" Velocity="127"/>
  </Event>
  <Event>
    <Absolute>46692</Absolute>
    <NoteOn Channel="9" Note="70" Velocity="126"/>
  </Event>
  <Event>
    <Absolute>46924</Absolute>
    <NoteOff Channel="9" Note="65" Velocity="0"/>
  </Event>
  <Event>
    <Absolute>46936</Absolute>
    <NoteOff Channel="9" Note="70" Velocity="0"/>
  </Event>
  <Event>
    <Absolute>47068</Absolute>
    <NoteOn Channel="9" Note="63" Velocity="127"/>
  </Event>
  <Event>
    <Absolute>47104</Absolute>
    <NoteOn Channel="9" Note="70" Velocity="126"/>
  </Event>
  <Event>
    <Absolute>47348</Absolute>
    <NoteOff Channel="9" Note="63" Velocity="0"/>
  </Event>
  <Event>
    <Absolute>47352</Absolute>
    <NoteOff Channel="9" Note="70" Velocity="0"/>
  </Event>
  <Event>
    <Absolute>47460</Absolute>
    <NoteOn Channel="9" Note="63" Velocity="127"/>
  </Event>
  <Event>
    <Absolute>47492</Absolute>
    <NoteOn Channel="9" Note="72" Velocity="126"/>
  </Event>
  <Event>
    <Absolute>47992</Absolute>
    <NoteOff Channel="9" Note="63" Velocity="0"/>
  </Event>
  <Event>
    <Absolute>47992</Absolute>
    <NoteOn Channel="9" Note="62" Velocity="127"/>
  </Event>
  <Event>
    <Absolute>48000</Absolute>
    <NoteOff Channel="9" Note="72" Velocity="0"/>
  </Event>
  <Event>
    <Absolute>48008</Absolute>
    <NoteOn Channel="9" Note="74" Velocity="126"/>
  </Event>
  <Event>
    <Absolute>49136</Absolute>
    <NoteOn Channel="9" Note="70" Velocity="126"/>
  </Event>
  <Event>
    <Absolute>49528</Absolute>
    <NoteOff Channel="9" Note="62" Velocity="0"/>
  </Event>
  <Event>
    <Absolute>49788</Absolute>
    <NoteOn Channel="9" Note="65" Velocity="127"/>
  </Event>
  <Event>
    <Absolute>49796</Absolute>
    <NoteOn Channel="9" Note="63" Velocity="127"/>
  </Event>
  <Event>
    <Absolute>50052</Absolute>
    <NoteOff Channel="9" Note="63" Velocity="0"/>
  </Event>
  <Event>
    <Absolute>50072</Absolute>
    <NoteOff Channel="9" Note="65" Velocity="0"/>
  </Event>
  <Event>
    <Absolute>50136</Absolute>
    <NoteOn Channel="9" Note="63" Velocity="127"/>
  </Event>
  <Event>
    <Absolute>50572</Absolute>
    <NoteOff Channel="9" Note="74" Velocity="0"/>
  </Event>
  <Event>
    <Absolute>50576</Absolute>
    <NoteOff Channel="9" Note="63" Velocity="0"/>
  </Event>
  <Event>
    <Absolute>50672</Absolute>
    <NoteOn Channel="9" Note="63" Velocity="127"/>
  </Event>
  <Event>
    <Absolute>50692</Absolute>
    <NoteOff Channel="9" Note="70" Velocity="0"/>
  </Event>
  <Event>
    <Absolute>51044</Absolute>
    <NoteOff Channel="9" Note="63" Velocity="0"/>
  </Event>
  <Event>
    <Absolute>83556</Absolute>
    <NoteOn Channel="9" Note="61" Velocity="127"/>
  </Event>
  <Event>
    <Absolute>83780</Absolute>
    <NoteOff Channel="9" Note="61" Velocity="0"/>
  </Event>
  <Event>
    <Absolute>83928</Absolute>
    <NoteOn Channel="9" Note="59" Velocity="127"/>
  </Event>
  <Event>
    <Absolute>84184</Absolute>
    <NoteOff Channel="9" Note="59" Velocity="0"/>
  </Event>
  <Event>
    <Absolute>84368</Absolute>
    <NoteOn Channel="9" Note="59" Velocity="127"/>
  </Event>
  <Event>
    <Absolute>84840</Absolute>
    <NoteOff Channel="9" Note="59" Velocity="0"/>
  </Event>
  <Event>
    <Absolute>84852</Absolute>
    <NoteOn Channel="9" Note="58" Velocity="127"/>
  </Event>
  <Event>
    <Absolute>86484</Absolute>
    <NoteOff Channel="9" Note="58" Velocity="0"/>
  </Event>
  <Event>
    <Absolute>86640</Absolute>
    <NoteOn Channel="9" Note="61" Velocity="127"/>
  </Event>
  <Event>
    <Absolute>86872</Absolute>
    <NoteOff Channel="9" Note="61" Velocity="0"/>
  </Event>
  <Event>
    <Absolute>87020</Absolute>
    <NoteOn Channel="9" Note="59" Velocity="127"/>
  </Event>
  <Event>
    <Absolute>87420</Absolute>
    <NoteOff Channel="9" Note="59" Velocity="0"/>
  </Event>
  <Event>
    <Absolute>87524</Absolute>
    <NoteOn Channel="9" Note="60" Velocity="127"/>
  </Event>
  <Event>
    <Absolute>87544</Absolute>
    <NoteOn Channel="9" Note="72" Velocity="126"/>
  </Event>
  <Event>
    <Absolute>88308</Absolute>
    <NoteOff Channel="9" Note="72" Velocity="0"/>
  </Event>
  <Event>
    <Absolute>88320</Absolute>
    <NoteOn Channel="9" Note="73" Velocity="126"/>
  </Event>
  <Event>
    <Absolute>88332</Absolute>
    <NoteOff Channel="9" Note="60" Velocity="0"/>
  </Event>
  <Event>
    <Absolute>89072</Absolute>
    <NoteOff Channel="9" Note="73" Velocity="0"/>
  </Event>
  <Event>
    <Absolute>89088</Absolute>
    <NoteOn Channel="9" Note="75" Velocity="126"/>
  </Event>
  <Event>
    <Absolute>89576</Absolute>
    <NoteOff Channel="9" Note="75" Velocity="0"/>
  </Event>
  <Event>
    <Absolute>89692</Absolute>
    <NoteOn Channel="9" Note="68" Velocity="126"/>
  </Event>
  <Event>
    <Absolute>89696</Absolute>
    <NoteOn Channel="9" Note="63" Velocity="127"/>
  </Event>
  <Event>
    <Absolute>89912</Absolute>
    <NoteOff Channel="9" Note="68" Velocity="0"/>
  </Event>
  <Event>
    <Absolute>89936</Absolute>
    <NoteOff Channel="9" Note="63" Velocity="0"/>
  </Event>
  <Event>
    <Absolute>90064</Absolute>
    <NoteOn Channel="9" Note="61" Velocity="127"/>
  </Event>
  <Event>
    <Absolute>90092</Absolute>
    <NoteOn Channel="9" Note="68" Velocity="126"/>
  </Event>
  <Event>
    <Absolute>90336</Absolute>
    <NoteOff Channel="9" Note="61" Velocity="0"/>
  </Event>
  <Event>
    <Absolute>90336</Absolute>
    <NoteOff Channel="9" Note="68" Velocity="0"/>
  </Event>
  <Event>
    <Absolute>90480</Absolute>
    <NoteOn Channel="9" Note="70" Velocity="126"/>
  </Event>
  <Event>
    <Absolute>90496</Absolute>
    <NoteOn Channel="9" Note="61" Velocity="127"/>
  </Event>
  <Event>
    <Absolute>90972</Absolute>
    <NoteOn Channel="9" Note="72" Velocity="126"/>
  </Event>
  <Event>
    <Absolute>90976</Absolute>
    <NoteOff Channel="9" Note="61" Velocity="0"/>
  </Event>
  <Event>
    <Absolute>90992</Absolute>
    <NoteOn Channel="9" Note="60" Velocity="127"/>
  </Event>
  <Event>
    <Absolute>91000</Absolute>
    <NoteOff Channel="9" Note="70" Velocity="0"/>
  </Event>
  <Event>
    <Absolute>92088</Absolute>
    <NoteOff Channel="9" Note="60" Velocity="0"/>
  </Event>
  <Event>
    <Absolute>92172</Absolute>
    <NoteOn Channel="9" Note="68" Velocity="126"/>
  </Event>
  <Event>
    <Absolute>92784</Absolute>
    <NoteOn Channel="9" Note="63" Velocity="127"/>
  </Event>
  <Event>
    <Absolute>93036</Absolute>
    <NoteOff Channel="9" Note="63" Velocity="0"/>
  </Event>
  <Event>
    <Absolute>93144</Absolute>
    <NoteOn Channel="9" Note="61" Velocity="127"/>
  </Event>
  <Event>
    <Absolute>93328</Absolute>
    <NoteOff Channel="9" Note="72" Velocity="0"/>
  </Event>
  <Event>
    <Absolute>93532</Absolute>
    <NoteOff Channel="9" Note="61" Velocity="0"/>
  </Event>
  <Event>
    <Absolute>93660</Absolute>
    <NoteOff Channel="9" Note="68" Velocity="0"/>
  </Event>
  <Event>
    <Absolute>93664</Absolute>
    <NoteOn Channel="9" Note="62" Velocity="127"/>
  </Event>
  <Event>
    <Absolute>93668</Absolute>
    <NoteOn Channel="9" Note="74" Velocity="126"/>
  </Event>
  <Event>
    <Absolute>94448</Absolute>
    <NoteOff Channel="9" Note="74" Velocity="0"/>
  </Event>
  <Event>
    <Absolute>94460</Absolute>
    <NoteOn Channel="9" Note="75" Velocity="126"/>
  </Event>
  <Event>
    <Absolute>94832</Absolute>
    <NoteOff Channel="9" Note="62" Velocity="0"/>
  </Event>
  <Event>
    <Absolute>95184</Absolute>
    <NoteOff Channel="9" Note="75" Velocity="0"/>
  </Event>
  <Event>
    <Absolute>95220</Absolute>
    <NoteOn Channel="9" Note="77" Velocity="126"/>
  </Event>
  <Event>
    <Absolute>95676</Absolute>
    <NoteOff Channel="9" Note="77" Velocity="0"/>
  </Event>
  <Event>
    <Absolute>95836</Absolute>
    <NoteOn Channel="9" Note="65" Velocity="127"/>
  </Event>
  <Event>
    <Absolute>95844</Absolute>
    <NoteOn Channel="9" Note="70" Velocity="126"/>
  </Event>
  <Event>
    <Absolute>96076</Absolute>
    <NoteOff Channel="9" Note="65" Velocity="0"/>
  </Event>
  <Event>
    <Absolute>96088</Absolute>
    <NoteOff Channel="9" Note="70" Velocity="0"/>
  </Event>
  <Event>
    <Absolute>96220</Absolute>
    <NoteOn Channel="9" Note="63" Velocity="127"/>
  </Event>
  <Event>
    <Absolute>96256</Absolute>
    <NoteOn Channel="9" Note="70" Velocity="126"/>
  </Event>
  <Event>
    <Absolute>96500</Absolute>
    <NoteOff Channel="9" Note="63" Velocity="0"/>
  </Event>
  <Event>
    <Absolute>96504</Absolute>
    <NoteOff Channel="9" Note="70" Velocity="0"/>
  </Event>
  <Event>
    <Absolute>96612</Absolute>
    <NoteOn Channel="9" Note="63" Velocity="127"/>
  </Event>
  <Event>
    <Absolute>96644</Absolute>
    <NoteOn Channel="9" Note="72" Velocity="126"/>
  </Event>
  <Event>
    <Absolute>97144</Absolute>
    <NoteOff Channel="9" Note="63" Velocity="0"/>
  </Event>
  <Event>
    <Absolute>97144</Absolute>
    <NoteOn Channel="9" Note="62" Velocity="127"/>
  </Event>
  <Event>
    <Absolute>97152</Absolute>
    <NoteOff Channel="9" Note="72" Velocity="0"/>
  </Event>
  <Event>
    <Absolute>97160</Absolute>
    <NoteOn Channel="9" Note="74" Velocity="126"/>
  </Event>
  <Event>
    <Absolute>98288</Absolute>
    <NoteOn Channel="9" Note="70" Velocity="126"/>
  </Event>
  <Event>
    <Absolute>98680</Absolute>
    <NoteOff Channel="9" Note="62" Velocity="0"/>
  </Event>
  <Event>
    <Absolute>98940</Absolute>
    <NoteOn Channel="9" Note="65" Velocity="127"/>
  </Event>
  <Event>
    <Absolute>98948</Absolute>
    <NoteOn Channel="9" Note="63" Velocity="127"/>
  </Event>
  <Event>
    <Absolute>99204</Absolute>
    <NoteOff Channel="9" Note="63" Velocity="0"/>
  </Event>
  <Event>
    <Absolute>99224</Absolute>
    <NoteOff Channel="9" Note="65" Velocity="0"/>
  </Event>
  <Event>
    <Absolute>99288</Absolute>
    <NoteOn Channel="9" Note="63" Velocity="127"/>
  </Event>
  <Event>
    <Absolute>99724</Absolute>
    <NoteOff Channel="9" Note="74" Velocity="0"/>
  </Event>
  <Event>
    <Absolute>99728</Absolute>
    <NoteOff Channel="9" Note="63" Velocity="0"/>
  </Event>
  <Event>
    <Absolute>99844</Absolute>
    <NoteOff Channel="9" Note="70" Velocity="0"/>
  </Event>
  <Event>
    <Absolute>117888</Absolute>
    <ControlChange Channel="9" Control="7" Value="118"/>
  </Event>
  <Event>
    <Absolute>118140</Absolute>
    <NoteOn Channel="9" Note="56" Velocity="97"/>
  </Event>
  <Event>
    <Absolute>118272</Absolute>
    <NoteOn Channel="9" Note="63" Velocity="97"/>
  </Event>
  <Event>
    <Absolute>118284</Absolute>
    <NoteOn Channel="9" Note="58" Velocity="97"/>
  </Event>
  <Event>
    <Absolute>118312</Absolute>
    <NoteOff Channel="9" Note="56" Velocity="0"/>
  </Event>
  <Event>
    <Absolute>118404</Absolute>
    <NoteOff Channel="9" Note="58" Velocity="0"/>
  </Event>
  <Event>
    <Absolute>118500</Absolute>
    <NoteOn Channel="9" Note="58" Velocity="97"/>
  </Event>
  <Event>
    <Absolute>118688</Absolute>
    <NoteOff Channel="9" Note="58" Velocity="0"/>
  </Event>
  <Event>
    <Absolute>118808</Absolute>
    <NoteOn Channel="9" Note="58" Velocity="97"/>
  </Event>
  <Event>
    <Absolute>118864</Absolute>
    <ControlChange Channel="9" Control="7" Value="116"/>
  </Event>
  <Event>
    <Absolute>119008</Absolute>
    <ControlChange Channel="9" Control="7" Value="120"/>
  </Event>
  <Event>
    <Absolute>119028</Absolute>
    <ControlChange Channel="9" Control="7" Value="121"/>
  </Event>
  <Event>
    <Absolute>119056</Absolute>
    <ControlChange Channel="9" Control="7" Value="124"/>
  </Event>
  <Event>
    <Absolute>119072</Absolute>
    <ControlChange Channel="9" Control="7" Value="126"/>
  </Event>
  <Event>
    <Absolute>119116</Absolute>
    <NoteOff Channel="9" Note="58" Velocity="0"/>
  </Event>
  <Event>
    <Absolute>119232</Absolute>
    <NoteOn Channel="9" Note="56" Velocity="97"/>
  </Event>
  <Event>
    <Absolute>119396</Absolute>
    <NoteOff Channel="9" Note="56" Velocity="0"/>
  </Event>
  <Event>
    <Absolute>119396</Absolute>
    <NoteOn Channel="9" Note="55" Velocity="97"/>
  </Event>
  <Event>
    <Absolute>119568</Absolute>
    <NoteOff Channel="9" Note="55" Velocity="0"/>
  </Event>
  <Event>
    <Absolute>119636</Absolute>
    <NoteOn Channel="9" Note="56" Velocity="97"/>
  </Event>
  <Event>
    <Absolute>119836</Absolute>
    <NoteOff Channel="9" Note="56" Velocity="0"/>
  </Event>
  <Event>
    <Absolute>119984</Absolute>
    <NoteOn Channel="9" Note="58" Velocity="97"/>
  </Event>
  <Event>
    <Absolute>120252</Absolute>
    <NoteOff Channel="9" Note="58" Velocity="0"/>
  </Event>
  <Event>
    <Absolute>120384</Absolute>
    <NoteOn Channel="9" Note="58" Velocity="97"/>
  </Event>
  <Event>
    <Absolute>120772</Absolute>
    <NoteOn Channel="9" Note="56" Velocity="97"/>
  </Event>
  <Event>
    <Absolute>120784</Absolute>
    <NoteOff Channel="9" Note="58" Velocity="0"/>
  </Event>
  <Event>
    <Absolute>120892</Absolute>
    <NoteOn Channel="9" Note="55" Velocity="97"/>
  </Event>
  <Event>
    <Absolute>120896</Absolute>
    <NoteOff Channel="9" Note="56" Velocity="0"/>
  </Event>
  <Event>
    <Absolute>121284</Absolute>
    <NoteOff Channel="9" Note="63" Velocity="0"/>
  </Event>
  <Event>
    <Absolute>121312</Absolute>
    <NoteOn Channel="9" Note="73" Velocity="97"/>
  </Event>
  <Event>
    <Absolute>121316</Absolute>
    <NoteOn Channel="9" Note="63" Velocity="97"/>
  </Event>
  <Event>
    <Absolute>122068</Absolute>
    <NoteOff Channel="9" Note="55" Velocity="0"/>
  </Event>
  <Event>
    <Absolute>122088</Absolute>
    <NoteOff Channel="9" Note="73" Velocity="0"/>
  </Event>
  <Event>
    <Absolute>122100</Absolute>
    <NoteOn Channel="9" Note="72" Velocity="97"/>
  </Event>
  <Event>
    <Absolute>122848</Absolute>
    <NoteOn Channel="9" Note="70" Velocity="97"/>
  </Event>
  <Event>
    <Absolute>122852</Absolute>
    <NoteOff Channel="9" Note="72" Velocity="0"/>
  </Event>
  <Event>
    <Absolute>123600</Absolute>
    <NoteOff Channel="9" Note="70" Velocity="0"/>
  </Event>
  <Event>
    <Absolute>123640</Absolute>
    <NoteOn Channel="9" Note="68" Velocity="97"/>
  </Event>
  <Event>
    <Absolute>123868</Absolute>
    <NoteOff Channel="9" Note="68" Velocity="0"/>
  </Event>
  <Event>
    <Absolute>124028</Absolute>
    <NoteOn Channel="9" Note="67" Velocity="97"/>
  </Event>
  <Event>
    <Absolute>124120</Absolute>
    <ControlChange Channel="9" Control="7" Value="127"/>
  </Event>
  <Event>
    <Absolute>124224</Absolute>
    <NoteOff Channel="9" Note="67" Velocity="0"/>
  </Event>
  <Event>
    <Absolute>124280</Absolute>
    <NoteOn Channel="9" Note="65" Velocity="97"/>
  </Event>
  <Event>
    <Absolute>124432</Absolute>
    <NoteOff Channel="9" Note="63" Velocity="0"/>
  </Event>
  <Event>
    <Absolute>124432</Absolute>
    <ControlChange Channel="9" Control="7" Value="126"/>
  </Event>
  <Event>
    <Absolute>124464</Absolute>
    <ControlChange Channel="9" Control="7" Value="123"/>
  </Event>
  <Event>
    <Absolute>124512</Absolute>
    <ControlChange Channel="9" Control="7" Value="122"/>
  </Event>
  <Event>
    <Absolute>124592</Absolute>
    <ControlChange Channel="9" Control="7" Value="121"/>
  </Event>
  <Event>
    <Absolute>124616</Absolute>
    <NoteOff Channel="9" Note="65" Velocity="0"/>
  </Event>
  <Event>
    <Absolute>124616</Absolute>
    <ControlChange Channel="9" Control="7" Value="120"/>
  </Event>
  <Event>
    <Absolute>124640</Absolute>
    <ControlChange Channel="9" Control="7" Value="119"/>
  </Event>
  <Event>
    <Absolute>124668</Absolute>
    <NoteOn Channel="9" Note="70" Velocity="97"/>
  </Event>
  <Event>
    <Absolute>124712</Absolute>
    <ControlChange Channel="9" Control="7" Value="118"/>
  </Event>
  <Event>
    <Absolute>124744</Absolute>
    <ControlChange Channel="9" Control="7" Value="117"/>
  </Event>
  <Event>
    <Absolute>124800</Absolute>
    <ControlChange Channel="9" Control="7" Value="114"/>
  </Event>
  <Event>
    <Absolute>124848</Absolute>
    <ControlChange Channel="9" Control="7" Value="113"/>
  </Event>
  <Event>
    <Absolute>124896</Absolute>
    <ControlChange Channel="9" Control="7" Value="112"/>
  </Event>
  <Event>
    <Absolute>124944</Absolute>
    <ControlChange Channel="9" Control="7" Value="111"/>
  </Event>
  <Event>
    <Absolute>124976</Absolute>
    <ControlChange Channel="9" Control="7" Value="109"/>
  </Event>
  <Event>
    <Absolute>125008</Absolute>
    <ControlChange Channel="9" Control="7" Value="108"/>
  </Event>
  <Event>
    <Absolute>125044</Absolute>
    <ControlChange Channel="9" Control="7" Value="106"/>
  </Event>
  <Event>
    <Absolute>125136</Absolute>
    <ControlChange Channel="9" Control="7" Value="105"/>
  </Event>
  <Event>
    <Absolute>125152</Absolute>
    <ControlChange Channel="9" Control="7" Value="103"/>
  </Event>
  <Event>
    <Absolute>125200</Absolute>
    <ControlChange Channel="9" Control="7" Value="102"/>
  </Event>
  <Event>
    <Absolute>125240</Absolute>
    <ControlChange Channel="9" Control="7" Value="100"/>
  </Event>
  <Event>
    <Absolute>125348</Absolute>
    <ControlChange Channel="9" Control="7" Value="99"/>
  </Event>
  <Event>
    <Absolute>125380</Absolute>
    <ControlChange Channel="9" Control="7" Value="97"/>
  </Event>
  <Event>
    <Absolute>125392</Absolute>
    <ControlChange Channel="9" Control="7" Value="96"/>
  </Event>
  <Event>
    <Absolute>130044</Absolute>
    <NoteOff Channel="9" Note="70" Velocity="0"/>
  </Event>
  <Event>
    <Absolute>168188</Absolute>
    <NoteOn Channel="9" Note="75" Velocity="126"/>
  </Event>
  <Event>
    <Absolute>168912</Absolute>
    <NoteOff Channel="9" Note="75" Velocity="0"/>
  </Event>
  <Event>
    <Absolute>168948</Absolute>
    <NoteOn Channel="9" Note="77" Velocity="126"/>
  </Event>
  <Event>
    <Absolute>169404</Absolute>
    <NoteOff Channel="9" Note="77" Velocity="0"/>
  </Event>
  <Event>
    <Absolute>169572</Absolute>
    <NoteOn Channel="9" Note="70" Velocity="126"/>
  </Event>
  <Event>
    <Absolute>169588</Absolute>
    <NoteOn Channel="9" Note="65" Velocity="127"/>
  </Event>
  <Event>
    <Absolute>169816</Absolute>
    <NoteOff Channel="9" Note="70" Velocity="0"/>
  </Event>
  <Event>
    <Absolute>169840</Absolute>
    <NoteOff Channel="9" Note="65" Velocity="0"/>
  </Event>
  <Event>
    <Absolute>169984</Absolute>
    <NoteOn Channel="9" Note="70" Velocity="126"/>
  </Event>
  <Event>
    <Absolute>169988</Absolute>
    <NoteOn Channel="9" Note="63" Velocity="127"/>
  </Event>
  <Event>
    <Absolute>170232</Absolute>
    <NoteOff Channel="9" Note="70" Velocity="0"/>
  </Event>
  <Event>
    <Absolute>170280</Absolute>
    <NoteOff Channel="9" Note="63" Velocity="0"/>
  </Event>
  <Event>
    <Absolute>170372</Absolute>
    <NoteOn Channel="9" Note="72" Velocity="126"/>
  </Event>
  <Event>
    <Absolute>170400</Absolute>
    <NoteOn Channel="9" Note="63" Velocity="127"/>
  </Event>
  <Event>
    <Absolute>170864</Absolute>
    <NoteOff Channel="9" Note="63" Velocity="0"/>
  </Event>
  <Event>
    <Absolute>170880</Absolute>
    <NoteOff Channel="9" Note="72" Velocity="0"/>
  </Event>
  <Event>
    <Absolute>170888</Absolute>
    <NoteOn Channel="9" Note="74" Velocity="126"/>
  </Event>
  <Event>
    <Absolute>170904</Absolute>
    <NoteOn Channel="9" Note="62" Velocity="127"/>
  </Event>
  <Event>
    <Absolute>171820</Absolute>
    <NoteOff Channel="9" Note="62" Velocity="0"/>
  </Event>
  <Event>
    <Absolute>172016</Absolute>
    <NoteOn Channel="9" Note="70" Velocity="126"/>
  </Event>
  <Event>
    <Absolute>172668</Absolute>
    <NoteOn Channel="9" Note="65" Velocity="127"/>
  </Event>
  <Event>
    <Absolute>172912</Absolute>
    <NoteOff Channel="9" Note="65" Velocity="0"/>
  </Event>
  <Event>
    <Absolute>173056</Absolute>
    <NoteOn Channel="9" Note="63" Velocity="127"/>
  </Event>
  <Event>
    <Absolute>173388</Absolute>
    <NoteOff Channel="9" Note="63" Velocity="0"/>
  </Event>
  <Event>
    <Absolute>173452</Absolute>
    <NoteOff Channel="9" Note="74" Velocity="0"/>
  </Event>
  <Event>
    <Absolute>173572</Absolute>
    <NoteOff Channel="9" Note="70" Velocity="0"/>
  </Event>
  <Event>
    <Absolute>173576</Absolute>
    <NoteOn Channel="9" Note="60" Velocity="127"/>
  </Event>
  <Event>
    <Absolute>174336</Absolute>
    <NoteOn Channel="9" Note="73" Velocity="126"/>
  </Event>
  <Event>
    <Absolute>174384</Absolute>
    <NoteOff Channel="9" Note="60" Velocity="0"/>
  </Event>
  <Event>
    <Absolute>175088</Absolute>
    <NoteOff Channel="9" Note="73" Velocity="0"/>
  </Event>
  <Event>
    <Absolute>175104</Absolute>
    <NoteOn Channel="9" Note="75" Velocity="126"/>
  </Event>
  <Event>
    <Absolute>175592</Absolute>
    <NoteOff Channel="9" Note="75" Velocity="0"/>
  </Event>
  <Event>
    <Absolute>175708</Absolute>
    <NoteOn Channel="9" Note="68" Velocity="126"/>
  </Event>
  <Event>
    <Absolute>175740</Absolute>
    <NoteOn Channel="9" Note="63" Velocity="127"/>
  </Event>
  <Event>
    <Absolute>175928</Absolute>
    <NoteOff Channel="9" Note="68" Velocity="0"/>
  </Event>
  <Event>
    <Absolute>176004</Absolute>
    <NoteOff Channel="9" Note="63" Velocity="0"/>
  </Event>
  <Event>
    <Absolute>176108</Absolute>
    <NoteOn Channel="9" Note="68" Velocity="126"/>
  </Event>
  <Event>
    <Absolute>176128</Absolute>
    <NoteOn Channel="9" Note="61" Velocity="127"/>
  </Event>
  <Event>
    <Absolute>176352</Absolute>
    <NoteOff Channel="9" Note="68" Velocity="0"/>
  </Event>
  <Event>
    <Absolute>176364</Absolute>
    <NoteOff Channel="9" Note="61" Velocity="0"/>
  </Event>
  <Event>
    <Absolute>176496</Absolute>
    <NoteOn Channel="9" Note="70" Velocity="126"/>
  </Event>
  <Event>
    <Absolute>176496</Absolute>
    <NoteOn Channel="9" Note="61" Velocity="127"/>
  </Event>
  <Event>
    <Absolute>176988</Absolute>
    <NoteOn Channel="9" Note="72" Velocity="126"/>
  </Event>
  <Event>
    <Absolute>177012</Absolute>
    <NoteOn Channel="9" Note="60" Velocity="127"/>
  </Event>
  <Event>
    <Absolute>177016</Absolute>
    <NoteOff Channel="9" Note="61" Velocity="0"/>
  </Event>
  <Event>
    <Absolute>177016</Absolute>
    <NoteOff Channel="9" Note="70" Velocity="0"/>
  </Event>
  <Event>
    <Absolute>177732</Absolute>
    <NoteOff Channel="9" Note="60" Velocity="0"/>
  </Event>
  <Event>
    <Absolute>178188</Absolute>
    <NoteOn Channel="9" Note="68" Velocity="126"/>
  </Event>
  <Event>
    <Absolute>179344</Absolute>
    <NoteOff Channel="9" Note="72" Velocity="0"/>
  </Event>
  <Event>
    <Absolute>179676</Absolute>
    <NoteOff Channel="9" Note="68" Velocity="0"/>
  </Event>
  <Event>
    <Absolute>182480</Absolute>
    <ControlChange Channel="9" Control="91" Value="127"/>
  </Event>
  <Event>
    <Absolute>188928</Absolute>
    <NoteOn Channel="9" Note="77" Velocity="127"/>
  </Event>
  <Event>
    <Absolute>189152</Absolute>
    <NoteOff Channel="9" Note="77" Velocity="0"/>
  </Event>
  <Event>
    <Absolute>189184</Absolute>
    <NoteOn Channel="9" Note="75" Velocity="127"/>
  </Event>
  <Event>
    <Absolute>189312</Absolute>
    <NoteOn Channel="9" Note="74" Velocity="127"/>
  </Event>
  <Event>
    <Absolute>189328</Absolute>
    <NoteOff Channel="9" Note="75" Velocity="0"/>
  </Event>
  <Event>
    <Absolute>189568</Absolute>
    <NoteOn Channel="9" Note="72" Velocity="127"/>
  </Event>
  <Event>
    <Absolute>189576</Absolute>
    <NoteOff Channel="9" Note="74" Velocity="0"/>
  </Event>
  <Event>
    <Absolute>189696</Absolute>
    <NoteOn Channel="9" Note="70" Velocity="127"/>
  </Event>
  <Event>
    <Absolute>189712</Absolute>
    <NoteOff Channel="9" Note="72" Velocity="0"/>
  </Event>
  <Event>
    <Absolute>190332</Absolute>
    <NoteOff Channel="9" Note="70" Velocity="0"/>
  </Event>
  <Event>
    <Absolute>190336</Absolute>
    <NoteOn Channel="9" Note="72" Velocity="127"/>
  </Event>
  <Event>
    <Absolute>190436</Absolute>
    <NoteOff Channel="9" Note="72" Velocity="0"/>
  </Event>
  <Event>
    <Absolute>190464</Absolute>
    <NoteOn Channel="9" Note="74" Velocity="127"/>
  </Event>
  <Event>
    <Absolute>191104</Absolute>
    <NoteOn Channel="9" Note="75" Velocity="127"/>
  </Event>
  <Event>
    <Absolute>191136</Absolute>
    <NoteOff Channel="9" Note="74" Velocity="0"/>
  </Event>
  <Event>
    <Absolute>191232</Absolute>
    <NoteOn Channel="9" Note="77" Velocity="127"/>
  </Event>
  <Event>
    <Absolute>191248</Absolute>
    <NoteOff Channel="9" Note="75" Velocity="0"/>
  </Event>
  <Event>
    <Absolute>191260</Absolute>
    <NoteOn Channel="9" Note="65" Velocity="127"/>
  </Event>
  <Event>
    <Absolute>191604</Absolute>
    <NoteOff Channel="9" Note="65" Velocity="0"/>
  </Event>
  <Event>
    <Absolute>191632</Absolute>
    <NoteOn Channel="9" Note="70" Velocity="127"/>
  </Event>
  <Event>
    <Absolute>191800</Absolute>
    <NoteOff Channel="9" Note="77" Velocity="0"/>
  </Event>
  <Event>
    <Absolute>192000</Absolute>
    <NoteOn Channel="9" Note="75" Velocity="127"/>
  </Event>
  <Event>
    <Absolute>192016</Absolute>
    <NoteOff Channel="9" Note="70" Velocity="0"/>
  </Event>
  <Event>
    <Absolute>192248</Absolute>
    <NoteOff Channel="9" Note="75" Velocity="0"/>
  </Event>
  <Event>
    <Absolute>192256</Absolute>
    <NoteOn Channel="9" Note="73" Velocity="127"/>
  </Event>
  <Event>
    <Absolute>192348</Absolute>
    <NoteOff Channel="9" Note="73" Velocity="0"/>
  </Event>
  <Event>
    <Absolute>192384</Absolute>
    <NoteOn Channel="9" Note="72" Velocity="127"/>
  </Event>
  <Event>
    <Absolute>192640</Absolute>
    <NoteOn Channel="9" Note="70" Velocity="127"/>
  </Event>
  <Event>
    <Absolute>192648</Absolute>
    <NoteOff Channel="9" Note="72" Velocity="0"/>
  </Event>
  <Event>
    <Absolute>192768</Absolute>
    <NoteOff Channel="9" Note="70" Velocity="0"/>
  </Event>
  <Event>
    <Absolute>192768</Absolute>
    <NoteOn Channel="9" Note="68" Velocity="127"/>
  </Event>
  <Event>
    <Absolute>193408</Absolute>
    <NoteOn Channel="9" Note="70" Velocity="127"/>
  </Event>
  <Event>
    <Absolute>193420</Absolute>
    <NoteOff Channel="9" Note="68" Velocity="0"/>
  </Event>
  <Event>
    <Absolute>193496</Absolute>
    <NoteOff Channel="9" Note="70" Velocity="0"/>
  </Event>
  <Event>
    <Absolute>193536</Absolute>
    <NoteOn Channel="9" Note="72" Velocity="127"/>
  </Event>
  <Event>
    <Absolute>194172</Absolute>
    <NoteOff Channel="9" Note="72" Velocity="0"/>
  </Event>
  <Event>
    <Absolute>194176</Absolute>
    <NoteOn Channel="9" Note="73" Velocity="127"/>
  </Event>
  <Event>
    <Absolute>194280</Absolute>
    <NoteOff Channel="9" Note="73" Velocity="0"/>
  </Event>
  <Event>
    <Absolute>194304</Absolute>
    <NoteOn Channel="9" Note="75" Velocity="127"/>
  </Event>
  <Event>
    <Absolute>194780</Absolute>
    <NoteOff Channel="9" Note="75" Velocity="0"/>
  </Event>
  <Event>
    <Absolute>198880</Absolute>
    <ControlChange Channel="9" Control="7" Value="89"/>
  </Event>
  <Event>
    <Absolute>200048</Absolute>
    <ControlChange Channel="9" Control="7" Value="88"/>
  </Event>
  <Event>
    <Absolute>200408</Absolute>
    <ControlChange Channel="9" Control="7" Value="87"/>
  </Event>
  <Event>
    <Absolute>200816</Absolute>
    <ControlChange Channel="9" Control="7" Value="86"/>
  </Event>
  <Event>
    <Absolute>201104</Absolute>
    <ControlChange Channel="9" Control="7" Value="85"/>
  </Event>
  <Event>
    <Absolute>201312</Absolute>
    <ControlChange Channel="9" Control="7" Value="84"/>
  </Event>
  <Event>
    <Absolute>201472</Absolute>
    <ControlChange Channel="9" Control="7" Value="83"/>
  </Event>
  <Event>
    <Absolute>201536</Absolute>
    <ControlChange Channel="9" Control="7" Value="82"/>
  </Event>
  <Event>
    <Absolute>201728</Absolute>
    <ControlChange Channel="9" Control="7" Value="81"/>
  </Event>
  <Event>
    <Absolute>201952</Absolute>
    <ControlChange Channel="9" Control="7" Value="80"/>
  </Event>
  <Event>
    <Absolute>202112</Absolute>
    <ControlChange Channel="9" Control="7" Value="79"/>
  </Event>
  <Event>
    <Absolute>202256</Absolute>
    <ControlChange Channel="9" Control="7" Value="78"/>
  </Event>
  <Event>
    <Absolute>202304</Absolute>
    <ControlChange Channel="9" Control="7" Value="77"/>
  </Event>
  <Event>
    <Absolute>202400</Absolute>
    <ControlChange Channel="9" Control="7" Value="76"/>
  </Event>
  <Event>
    <Absolute>202416</Absolute>
    <ControlChange Channel="9" Control="7" Value="75"/>
  </Event>
  <Event>
    <Absolute>202480</Absolute>
    <ControlChange Channel="9" Control="7" Value="74"/>
  </Event>
  <Event>
    <Absolute>202528</Absolute>
    <ControlChange Channel="9" Control="7" Value="72"/>
  </Event>
  <Event>
    <Absolute>202592</Absolute>
    <ControlChange Channel="9" Control="7" Value="70"/>
  </Event>
  <Event>
    <Absolute>202720</Absolute>
    <ControlChange Channel="9" Control="7" Value="68"/>
  </Event>
  <Event>
    <Absolute>202788</Absolute>
    <ControlChange Channel="9" Control="7" Value="67"/>
  </Event>
  <Event>
    <Absolute>202864</Absolute>
    <ControlChange Channel="9" Control="7" Value="66"/>
  </Event>
  <Event>
    <Absolute>202944</Absolute>
    <ControlChange Channel="9" Control="7" Value="65"/>
  </Event>
  <Event>
    <Absolute>203040</Absolute>
    <ControlChange Channel="9" Control="7" Value="64"/>
  </Event>
  <Event>
    <Absolute>203120</Absolute>
    <ControlChange Channel="9" Control="7" Value="63"/>
  </Event>
  <Event>
    <Absolute>203232</Absolute>
    <ControlChange Channel="9" Control="7" Value="62"/>
  </Event>
  <Event>
    <Absolute>203280</Absolute>
    <ControlChange Channel="9" Control="7" Value="61"/>
  </Event>
  <Event>
    <Absolute>203360</Absolute>
    <ControlChange Channel="9" Control="7" Value="60"/>
  </Event>
  <Event>
    <Absolute>203504</Absolute>
    <ControlChange Channel="9" Control="7" Value="59"/>
  </Event>
  <Event>
    <Absolute>203536</Absolute>
    <ControlChange Channel="9" Control="7" Value="58"/>
  </Event>
  <Event>
    <Absolute>203664</Absolute>
    <ControlChange Channel="9" Control="7" Value="57"/>
  </Event>
  <Event>
    <Absolute>203720</Absolute>
    <ControlChange Channel="9" Control="7" Value="56"/>
  </Event>
  <Event>
    <Absolute>203752</Absolute>
    <ControlChange Channel="9" Control="7" Value="55"/>
  </Event>
  <Event>
    <Absolute>203808</Absolute>
    <ControlChange Channel="9" Control="7" Value="54"/>
  </Event>
  <Event>
    <Absolute>203920</Absolute>
    <ControlChange Channel="9" Control="7" Value="53"/>
  </Event>
  <Event>
    <Absolute>203984</Absolute>
    <ControlChange Channel="9" Control="7" Value="52"/>
  </Event>
  <Event>
    <Absolute>204032</Absolute>
    <ControlChange Channel="9" Control="7" Value="51"/>
  </Event>
  <Event>
    <Absolute>204112</Absolute>
    <ControlChange Channel="9" Control="7" Value="50"/>
  </Event>
  <Event>
    <Absolute>204192</Absolute>
    <ControlChange Channel="9" Control="7" Value="48"/>
  </Event>
  <Event>
    <Absolute>204368</Absolute>
    <ControlChange Channel="9" Control="7" Value="46"/>
  </Event>
  <Event>
    <Absolute>204480</Absolute>
    <ControlChange Channel="9" Control="7" Value="45"/>
  </Event>
  <Event>
    <Absolute>204544</Absolute>
    <ControlChange Channel="9" Control="7" Value="44"/>
  </Event>
  <Event>
    <Absolute>204560</Absolute>
    <ControlChange Channel="9" Control="7" Value="43"/>
  </Event>
  <Event>
    <Absolute>204672</Absolute>
    <ControlChange Channel="9" Control="7" Value="42"/>
  </Event>
  <Event>
    <Absolute>204712</Absolute>
    <ControlChange Channel="9" Control="7" Value="41"/>
  </Event>
  <Event>
    <Absolute>204768</Absolute>
    <ControlChange Channel="9" Control="7" Value="40"/>
  </Event>
  <Event>
    <Absolute>204816</Absolute>
    <ControlChange Channel="9" Control="7" Value="39"/>
  </Event>
  <Event>
    <Absolute>204896</Absolute>
    <ControlChange Channel="9" Control="7" Value="38"/>
  </Event>
  <Event>
    <Absolute>204992</Absolute>
    <ControlChange Channel="9" Control="7" Value="37"/>
  </Event>
  <Event>
    <Absolute>205024</Absolute>
    <ControlChange Channel="9" Control="7" Value="36"/>
  </Event>
  <Event>
    <Absolute>205080</Absolute>
    <ControlChange Channel="9" Control="7" Value="35"/>
  </Event>
  <Event>
    <Absolute>205184</Absolute>
    <ControlChange Channel="9" Control="7" Value="34"/>
  </Event>
  <Event>
    <Absolute>205328</Absolute>
    <ControlChange Channel="9" Control="7" Value="33"/>
  </Event>
  <Event>
    <Absolute>205424</Absolute>
    <ControlChange Channel="9" Control="7" Value="32"/>
  </Event>
  <Event>
    <Absolute>205456</Absolute>
    <ControlChange Channel="9" Control="7" Value="31"/>
  </Event>
  <Event>
    <Absolute>205488</Absolute>
    <ControlChange Channel="9" Control="7" Value="30"/>
  </Event>
  <Event>
    <Absolute>205536</Absolute>
    <ControlChange Channel="9" Control="7" Value="29"/>
  </Event>
  <Event>
    <Absolute>205552</Absolute>
    <ControlChange Channel="9" Control="7" Value="28"/>
  </Event>
  <Event>
    <Absolute>205648</Absolute>
    <ControlChange Channel="9" Control="7" Value="26"/>
  </Event>
  <Event>
    <Absolute>205904</Absolute>
    <ControlChange Channel="9" Control="7" Value="24"/>
  </Event>
  <Event>
    <Absolute>206032</Absolute>
    <ControlChange Channel="9" Control="7" Value="22"/>
  </Event>
  <Event>
    <Absolute>206112</Absolute>
    <ControlChange Channel="9" Control="7" Value="21"/>
  </Event>
  <Event>
    <Absolute>206288</Absolute>
    <ControlChange Channel="9" Control="7" Value="20"/>
  </Event>
  <Event>
    <Absolute>206432</Absolute>
    <ControlChange Channel="9" Control="7" Value="19"/>
  </Event>
  <Event>
    <Absolute>206624</Absolute>
    <ControlChange Channel="9" Control="7" Value="18"/>
  </Event>
  <Event>
    <Absolute>206640</Absolute>
    <ControlChange Channel="9" Control="7" Value="17"/>
  </Event>
  <Event>
    <Absolute>206792</Absolute>
    <ControlChange Channel="9" Control="7" Value="16"/>
  </Event>
  <Event>
    <Absolute>206848</Absolute>
    <ControlChange Channel="9" Control="7" Value="15"/>
  </Event>
  <Event>
    <Absolute>206880</Absolute>
    <ControlChange Channel="9" Control="7" Value="14"/>
  </Event>
  <Event>
    <Absolute>207088</Absolute>
    <ControlChange Channel="9" Control="7" Value="13"/>
  </Event>
  <Event>
    <Absolute>207360</Absolute>
    <ControlChange Channel="9" Control="7" Value="12"/>
  </Event>
  <Event>
    <Absolute>207584</Absolute>
    <ControlChange Channel="9" Control="7" Value="11"/>
  </Event>
  <Event>
    <Absolute>207696</Absolute>
    <ControlChange Channel="9" Control="7" Value="10"/>
  </Event>
  <Event>
    <Absolute>207808</Absolute>
    <ControlChange Channel="9" Control="7" Value="9"/>
  </Event>
  <Event>
    <Absolute>207824</Absolute>
    <ControlChange Channel="9" Control="7" Value="8"/>
  </Event>
  <Event>
    <Absolute>208128</Absolute>
    <ControlChange Channel="9" Control="7" Value="7"/>
  </Event>
  <Event>
    <Absolute>208224</Absolute>
    <ControlChange Channel="9" Control="7" Value="6"/>
  </Event>
  <Event>
    <Absolute>208720</Absolute>
    <ControlChange Channel="9" Control="7" Value="4"/>
  </Event>
  <Event>
    <Absolute>209120</Absolute>
    <ControlChange Channel="9" Control="7" Value="2"/>
  </Event>
  <Event>
    <Absolute>209120</Absolute>
    <EndOfTrack/>
  </Event>
</Track>
<Track Number="13">
  <Event>
    <Absolute>0</Absolute>
    <TrackName>Honky Piano</TrackName>
  </Event>
  <Event>
    <Absolute>0</Absolute>
    <ControlChange Channel="12" Control="0" Value="0"/>
  </Event>
  <Event>
    <Absolute>0</Absolute>
    <ProgramChange Channel="12" Number="3"/>
  </Event>
  <Event>
    <Absolute>0</Absolute>
    <ControlChange Channel="12" Control="7" Value="112"/>
  </Event>
  <Event>
    <Absolute>0</Absolute>
    <ControlChange Channel="12" Control="10" Value="93"/>
  </Event>
  <Event>
    <Absolute>0</Absolute>
    <ControlChange Channel="12" Control="91" Value="127"/>
  </Event>
  <Event>
    <Absolute>0</Absolute>
    <ControlChange Channel="12" Control="93" Value="127"/>
  </Event>
  <Event>
    <Absolute>0</Absolute>
    <KeySignature Fifths="0" Mode="0"/>
  </Event>
  <Event>
    <Absolute>99840</Absolute>
    <NoteOn Channel="12" Note="46" Velocity="73"/>
  </Event>
  <Event>
    <Absolute>99844</Absolute>
    <NoteOn Channel="12" Note="53" Velocity="73"/>
  </Event>
  <Event>
    <Absolute>99852</Absolute>
    <NoteOn Channel="12" Note="46" Velocity="73"/>
  </Event>
  <Event>
    <Absolute>99852</Absolute>
    <NoteOn Channel="12" Note="50" Velocity="73"/>
  </Event>
  <Event>
    <Absolute>99880</Absolute>
    <NoteOn Channel="12" Note="46" Velocity="59"/>
  </Event>
  <Event>
    <Absolute>99880</Absolute>
    <NoteOn Channel="12" Note="50" Velocity="59"/>
  </Event>
  <Event>
    <Absolute>99880</Absolute>
    <NoteOn Channel="12" Note="53" Velocity="59"/>
  </Event>
  <Event>
    <Absolute>100224</Absolute>
    <NoteOn Channel="12" Note="65" Velocity="73"/>
  </Event>
  <Event>
    <Absolute>100224</Absolute>
    <NoteOn Channel="12" Note="70" Velocity="73"/>
  </Event>
  <Event>
    <Absolute>100352</Absolute>
    <NoteOff Channel="12" Note="65" Velocity="0"/>
  </Event>
  <Event>
    <Absolute>100352</Absolute>
    <NoteOff Channel="12" Note="70" Velocity="0"/>
  </Event>
  <Event>
    <Absolute>100480</Absolute>
    <NoteOff Channel="12" Note="46" Velocity="0"/>
  </Event>
  <Event>
    <Absolute>100480</Absolute>
    <NoteOn Channel="12" Note="65" Velocity="73"/>
  </Event>
  <Event>
    <Absolute>100480</Absolute>
    <NoteOn Channel="12" Note="70" Velocity="73"/>
  </Event>
  <Event>
    <Absolute>100492</Absolute>
    <NoteOff Channel="12" Note="46" Velocity="0"/>
  </Event>
  <Event>
    <Absolute>100492</Absolute>
    <NoteOff Channel="12" Note="50" Velocity="0"/>
  </Event>
  <Event>
    <Absolute>100496</Absolute>
    <NoteOff Channel="12" Note="53" Velocity="0"/>
  </Event>
  <Event>
    <Absolute>100608</Absolute>
    <NoteOff Channel="12" Note="65" Velocity="0"/>
  </Event>
  <Event>
    <Absolute>100608</Absolute>
    <NoteOff Channel="12" Note="70" Velocity="0"/>
  </Event>
  <Event>
    <Absolute>100608</Absolute>
    <NoteOn Channel="12" Note="46" Velocity="73"/>
  </Event>
  <Event>
    <Absolute>100608</Absolute>
    <NoteOn Channel="12" Note="46" Velocity="59"/>
  </Event>
  <Event>
    <Absolute>100624</Absolute>
    <NoteOn Channel="12" Note="53" Velocity="59"/>
  </Event>
  <Event>
    <Absolute>100636</Absolute>
    <NoteOn Channel="12" Note="50" Velocity="59"/>
  </Event>
  <Event>
    <Absolute>100992</Absolute>
    <NoteOn Channel="12" Note="65" Velocity="73"/>
  </Event>
  <Event>
    <Absolute>100992</Absolute>
    <NoteOn Channel="12" Note="68" Velocity="73"/>
  </Event>
  <Event>
    <Absolute>101216</Absolute>
    <NoteOff Channel="12" Note="46" Velocity="0"/>
  </Event>
  <Event>
    <Absolute>101216</Absolute>
    <NoteOff Channel="12" Note="50" Velocity="0"/>
  </Event>
  <Event>
    <Absolute>101216</Absolute>
    <NoteOff Channel="12" Note="53" Velocity="0"/>
  </Event>
  <Event>
    <Absolute>101248</Absolute>
    <NoteOff Channel="12" Note="46" Velocity="0"/>
  </Event>
  <Event>
    <Absolute>101360</Absolute>
    <NoteOn Channel="12" Note="50" Velocity="59"/>
  </Event>
  <Event>
    <Absolute>101360</Absolute>
    <NoteOn Channel="12" Note="53" Velocity="59"/>
  </Event>
  <Event>
    <Absolute>101376</Absolute>
    <NoteOff Channel="12" Note="65" Velocity="0"/>
  </Event>
  <Event>
    <Absolute>101376</Absolute>
    <NoteOff Channel="12" Note="68" Velocity="0"/>
  </Event>
  <Event>
    <Absolute>101376</Absolute>
    <NoteOn Channel="12" Note="46" Velocity="73"/>
  </Event>
  <Event>
    <Absolute>101376</Absolute>
    <NoteOn Channel="12" Note="46" Velocity="59"/>
  </Event>
  <Event>
    <Absolute>101760</Absolute>
    <NoteOn Channel="12" Note="67" Velocity="73"/>
  </Event>
  <Event>
    <Absolute>101760</Absolute>
    <NoteOn Channel="12" Note="63" Velocity="73"/>
  </Event>
  <Event>
    <Absolute>101888</Absolute>
    <NoteOff Channel="12" Note="67" Velocity="0"/>
  </Event>
  <Event>
    <Absolute>101888</Absolute>
    <NoteOff Channel="12" Note="63" Velocity="0"/>
  </Event>
  <Event>
    <Absolute>101988</Absolute>
    <NoteOff Channel="12" Note="46" Velocity="0"/>
  </Event>
  <Event>
    <Absolute>102000</Absolute>
    <NoteOff Channel="12" Note="50" Velocity="0"/>
  </Event>
  <Event>
    <Absolute>102000</Absolute>
    <NoteOff Channel="12" Note="53" Velocity="0"/>
  </Event>
  <Event>
    <Absolute>102016</Absolute>
    <NoteOff Channel="12" Note="46" Velocity="0"/>
  </Event>
  <Event>
    <Absolute>102016</Absolute>
    <NoteOn Channel="12" Note="63" Velocity="73"/>
  </Event>
  <Event>
    <Absolute>102016</Absolute>
    <NoteOn Channel="12" Note="67" Velocity="73"/>
  </Event>
  <Event>
    <Absolute>102144</Absolute>
    <NoteOff Channel="12" Note="63" Velocity="0"/>
  </Event>
  <Event>
    <Absolute>102144</Absolute>
    <NoteOn Channel="12" Note="46" Velocity="73"/>
  </Event>
  <Event>
    <Absolute>102148</Absolute>
    <NoteOn Channel="12" Note="46" Velocity="59"/>
  </Event>
  <Event>
    <Absolute>102164</Absolute>
    <NoteOn Channel="12" Note="50" Velocity="59"/>
  </Event>
  <Event>
    <Absolute>102164</Absolute>
    <NoteOn Channel="12" Note="53" Velocity="59"/>
  </Event>
  <Event>
    <Absolute>102272</Absolute>
    <NoteOff Channel="12" Note="67" Velocity="0"/>
  </Event>
  <Event>
    <Absolute>102400</Absolute>
    <NoteOn Channel="12" Note="62" Velocity="73"/>
  </Event>
  <Event>
    <Absolute>102400</Absolute>
    <NoteOn Channel="12" Note="65" Velocity="73"/>
  </Event>
  <Event>
    <Absolute>102768</Absolute>
    <NoteOff Channel="12" Note="50" Velocity="0"/>
  </Event>
  <Event>
    <Absolute>102768</Absolute>
    <NoteOff Channel="12" Note="53" Velocity="0"/>
  </Event>
  <Event>
    <Absolute>102776</Absolute>
    <NoteOff Channel="12" Note="46" Velocity="0"/>
  </Event>
  <Event>
    <Absolute>102784</Absolute>
    <NoteOff Channel="12" Note="46" Velocity="0"/>
  </Event>
  <Event>
    <Absolute>102836</Absolute>
    <NoteOff Channel="12" Note="46" Velocity="0"/>
  </Event>
  <Event>
    <Absolute>102900</Absolute>
    <NoteOff Channel="12" Note="50" Velocity="0"/>
  </Event>
  <Event>
    <Absolute>102912</Absolute>
    <NoteOff Channel="12" Note="62" Velocity="0"/>
  </Event>
  <Event>
    <Absolute>102912</Absolute>
    <NoteOff Channel="12" Note="65" Velocity="0"/>
  </Event>
  <Event>
    <Absolute>102912</Absolute>
    <NoteOn Channel="12" Note="46" Velocity="73"/>
  </Event>
  <Event>
    <Absolute>102916</Absolute>
    <NoteOff Channel="12" Note="53" Velocity="0"/>
  </Event>
  <Event>
    <Absolute>102916</Absolute>
    <NoteOn Channel="12" Note="46" Velocity="59"/>
  </Event>
  <Event>
    <Absolute>102916</Absolute>
    <NoteOn Channel="12" Note="50" Velocity="59"/>
  </Event>
  <Event>
    <Absolute>102916</Absolute>
    <NoteOn Channel="12" Note="53" Velocity="59"/>
  </Event>
  <Event>
    <Absolute>103296</Absolute>
    <NoteOn Channel="12" Note="65" Velocity="73"/>
  </Event>
  <Event>
    <Absolute>103296</Absolute>
    <NoteOn Channel="12" Note="70" Velocity="73"/>
  </Event>
  <Event>
    <Absolute>103424</Absolute>
    <NoteOff Channel="12" Note="65" Velocity="0"/>
  </Event>
  <Event>
    <Absolute>103424</Absolute>
    <NoteOff Channel="12" Note="70" Velocity="0"/>
  </Event>
  <Event>
    <Absolute>103524</Absolute>
    <NoteOff Channel="12" Note="46" Velocity="0"/>
  </Event>
  <Event>
    <Absolute>103540</Absolute>
    <NoteOff Channel="12" Note="50" Velocity="0"/>
  </Event>
  <Event>
    <Absolute>103544</Absolute>
    <NoteOff Channel="12" Note="53" Velocity="0"/>
  </Event>
  <Event>
    <Absolute>103552</Absolute>
    <NoteOff Channel="12" Note="46" Velocity="0"/>
  </Event>
  <Event>
    <Absolute>103552</Absolute>
    <NoteOn Channel="12" Note="70" Velocity="73"/>
  </Event>
  <Event>
    <Absolute>103552</Absolute>
    <NoteOn Channel="12" Note="65" Velocity="73"/>
  </Event>
  <Event>
    <Absolute>103680</Absolute>
    <NoteOff Channel="12" Note="70" Velocity="0"/>
  </Event>
  <Event>
    <Absolute>103680</Absolute>
    <NoteOff Channel="12" Note="65" Velocity="0"/>
  </Event>
  <Event>
    <Absolute>103680</Absolute>
    <NoteOn Channel="12" Note="46" Velocity="73"/>
  </Event>
  <Event>
    <Absolute>103688</Absolute>
    <NoteOn Channel="12" Note="46" Velocity="59"/>
  </Event>
  <Event>
    <Absolute>103688</Absolute>
    <NoteOn Channel="12" Note="53" Velocity="59"/>
  </Event>
  <Event>
    <Absolute>103700</Absolute>
    <NoteOn Channel="12" Note="50" Velocity="59"/>
  </Event>
  <Event>
    <Absolute>103936</Absolute>
    <NoteOn Channel="12" Note="65" Velocity="73"/>
  </Event>
  <Event>
    <Absolute>103936</Absolute>
    <NoteOn Channel="12" Note="68" Velocity="73"/>
  </Event>
  <Event>
    <Absolute>104316</Absolute>
    <NoteOff Channel="12" Note="53" Velocity="0"/>
  </Event>
  <Event>
    <Absolute>104316</Absolute>
    <NoteOff Channel="12" Note="50" Velocity="0"/>
  </Event>
  <Event>
    <Absolute>104320</Absolute>
    <NoteOff Channel="12" Note="46" Velocity="0"/>
  </Event>
  <Event>
    <Absolute>104328</Absolute>
    <NoteOff Channel="12" Note="46" Velocity="0"/>
  </Event>
  <Event>
    <Absolute>104448</Absolute>
    <NoteOn Channel="12" Note="46" Velocity="73"/>
  </Event>
  <Event>
    <Absolute>104452</Absolute>
    <NoteOn Channel="12" Note="46" Velocity="59"/>
  </Event>
  <Event>
    <Absolute>104452</Absolute>
    <NoteOn Channel="12" Note="50" Velocity="59"/>
  </Event>
  <Event>
    <Absolute>104452</Absolute>
    <NoteOn Channel="12" Note="53" Velocity="59"/>
  </Event>
  <Event>
    <Absolute>104576</Absolute>
    <NoteOff Channel="12" Note="65" Velocity="0"/>
  </Event>
  <Event>
    <Absolute>104576</Absolute>
    <NoteOff Channel="12" Note="68" Velocity="0"/>
  </Event>
  <Event>
    <Absolute>104832</Absolute>
    <NoteOn Channel="12" Note="67" Velocity="73"/>
  </Event>
  <Event>
    <Absolute>104832</Absolute>
    <NoteOn Channel="12" Note="63" Velocity="73"/>
  </Event>
  <Event>
    <Absolute>104960</Absolute>
    <NoteOff Channel="12" Note="67" Velocity="0"/>
  </Event>
  <Event>
    <Absolute>104960</Absolute>
    <NoteOff Channel="12" Note="63" Velocity="0"/>
  </Event>
  <Event>
    <Absolute>105076</Absolute>
    <NoteOff Channel="12" Note="46" Velocity="0"/>
  </Event>
  <Event>
    <Absolute>105088</Absolute>
    <NoteOff Channel="12" Note="46" Velocity="0"/>
  </Event>
  <Event>
    <Absolute>105088</Absolute>
    <NoteOn Channel="12" Note="63" Velocity="73"/>
  </Event>
  <Event>
    <Absolute>105088</Absolute>
    <NoteOn Channel="12" Note="67" Velocity="73"/>
  </Event>
  <Event>
    <Absolute>105092</Absolute>
    <NoteOff Channel="12" Note="50" Velocity="0"/>
  </Event>
  <Event>
    <Absolute>105092</Absolute>
    <NoteOff Channel="12" Note="53" Velocity="0"/>
  </Event>
  <Event>
    <Absolute>105216</Absolute>
    <NoteOff Channel="12" Note="63" Velocity="0"/>
  </Event>
  <Event>
    <Absolute>105216</Absolute>
    <NoteOff Channel="12" Note="67" Velocity="0"/>
  </Event>
  <Event>
    <Absolute>105216</Absolute>
    <NoteOn Channel="12" Note="46" Velocity="73"/>
  </Event>
  <Event>
    <Absolute>105224</Absolute>
    <NoteOn Channel="12" Note="46" Velocity="59"/>
  </Event>
  <Event>
    <Absolute>105236</Absolute>
    <NoteOn Channel="12" Note="50" Velocity="59"/>
  </Event>
  <Event>
    <Absolute>105240</Absolute>
    <NoteOn Channel="12" Note="53" Velocity="59"/>
  </Event>
  <Event>
    <Absolute>105472</Absolute>
    <NoteOn Channel="12" Note="62" Velocity="73"/>
  </Event>
  <Event>
    <Absolute>105472</Absolute>
    <NoteOn Channel="12" Note="65" Velocity="73"/>
  </Event>
  <Event>
    <Absolute>105856</Absolute>
    <NoteOff Channel="12" Note="46" Velocity="0"/>
  </Event>
  <Event>
    <Absolute>105868</Absolute>
    <NoteOff Channel="12" Note="46" Velocity="0"/>
  </Event>
  <Event>
    <Absolute>105868</Absolute>
    <NoteOff Channel="12" Note="53" Velocity="0"/>
  </Event>
  <Event>
    <Absolute>105880</Absolute>
    <NoteOff Channel="12" Note="50" Velocity="0"/>
  </Event>
  <Event>
    <Absolute>105984</Absolute>
    <NoteOff Channel="12" Note="62" Velocity="0"/>
  </Event>
  <Event>
    <Absolute>105984</Absolute>
    <NoteOff Channel="12" Note="65" Velocity="0"/>
  </Event>
  <Event>
    <Absolute>105984</Absolute>
    <NoteOn Channel="12" Note="46" Velocity="73"/>
  </Event>
  <Event>
    <Absolute>105988</Absolute>
    <NoteOn Channel="12" Note="50" Velocity="59"/>
  </Event>
  <Event>
    <Absolute>105988</Absolute>
    <NoteOn Channel="12" Note="53" Velocity="59"/>
  </Event>
  <Event>
    <Absolute>106000</Absolute>
    <NoteOn Channel="12" Note="46" Velocity="59"/>
  </Event>
  <Event>
    <Absolute>106368</Absolute>
    <NoteOn Channel="12" Note="65" Velocity="73"/>
  </Event>
  <Event>
    <Absolute>106368</Absolute>
    <NoteOn Channel="12" Note="70" Velocity="73"/>
  </Event>
  <Event>
    <Absolute>106496</Absolute>
    <NoteOff Channel="12" Note="65" Velocity="0"/>
  </Event>
  <Event>
    <Absolute>106496</Absolute>
    <NoteOff Channel="12" Note="70" Velocity="0"/>
  </Event>
  <Event>
    <Absolute>106604</Absolute>
    <NoteOff Channel="12" Note="46" Velocity="0"/>
  </Event>
  <Event>
    <Absolute>106616</Absolute>
    <NoteOff Channel="12" Note="50" Velocity="0"/>
  </Event>
  <Event>
    <Absolute>106616</Absolute>
    <NoteOff Channel="12" Note="53" Velocity="0"/>
  </Event>
  <Event>
    <Absolute>106624</Absolute>
    <NoteOff Channel="12" Note="46" Velocity="0"/>
  </Event>
  <Event>
    <Absolute>106624</Absolute>
    <NoteOn Channel="12" Note="65" Velocity="73"/>
  </Event>
  <Event>
    <Absolute>106624</Absolute>
    <NoteOn Channel="12" Note="70" Velocity="73"/>
  </Event>
  <Event>
    <Absolute>106752</Absolute>
    <NoteOff Channel="12" Note="65" Velocity="0"/>
  </Event>
  <Event>
    <Absolute>106752</Absolute>
    <NoteOff Channel="12" Note="70" Velocity="0"/>
  </Event>
  <Event>
    <Absolute>106752</Absolute>
    <NoteOn Channel="12" Note="46" Velocity="73"/>
  </Event>
  <Event>
    <Absolute>106764</Absolute>
    <NoteOn Channel="12" Note="46" Velocity="59"/>
  </Event>
  <Event>
    <Absolute>106764</Absolute>
    <NoteOn Channel="12" Note="50" Velocity="59"/>
  </Event>
  <Event>
    <Absolute>106764</Absolute>
    <NoteOn Channel="12" Note="53" Velocity="59"/>
  </Event>
  <Event>
    <Absolute>107136</Absolute>
    <NoteOn Channel="12" Note="65" Velocity="73"/>
  </Event>
  <Event>
    <Absolute>107136</Absolute>
    <NoteOn Channel="12" Note="68" Velocity="73"/>
  </Event>
  <Event>
    <Absolute>107376</Absolute>
    <NoteOff Channel="12" Note="46" Velocity="0"/>
  </Event>
  <Event>
    <Absolute>107392</Absolute>
    <NoteOff Channel="12" Note="46" Velocity="0"/>
  </Event>
  <Event>
    <Absolute>107392</Absolute>
    <NoteOff Channel="12" Note="50" Velocity="0"/>
  </Event>
  <Event>
    <Absolute>107408</Absolute>
    <NoteOff Channel="12" Note="53" Velocity="0"/>
  </Event>
  <Event>
    <Absolute>107520</Absolute>
    <NoteOff Channel="12" Note="65" Velocity="0"/>
  </Event>
  <Event>
    <Absolute>107520</Absolute>
    <NoteOff Channel="12" Note="68" Velocity="0"/>
  </Event>
  <Event>
    <Absolute>107520</Absolute>
    <NoteOn Channel="12" Note="46" Velocity="73"/>
  </Event>
  <Event>
    <Absolute>107528</Absolute>
    <NoteOn Channel="12" Note="46" Velocity="59"/>
  </Event>
  <Event>
    <Absolute>107528</Absolute>
    <NoteOn Channel="12" Note="50" Velocity="59"/>
  </Event>
  <Event>
    <Absolute>107528</Absolute>
    <NoteOn Channel="12" Note="53" Velocity="59"/>
  </Event>
  <Event>
    <Absolute>107904</Absolute>
    <NoteOn Channel="12" Note="67" Velocity="73"/>
  </Event>
  <Event>
    <Absolute>107904</Absolute>
    <NoteOn Channel="12" Note="63" Velocity="73"/>
  </Event>
  <Event>
    <Absolute>108032</Absolute>
    <NoteOff Channel="12" Note="67" Velocity="0"/>
  </Event>
  <Event>
    <Absolute>108032</Absolute>
    <NoteOff Channel="12" Note="63" Velocity="0"/>
  </Event>
  <Event>
    <Absolute>108156</Absolute>
    <NoteOff Channel="12" Note="46" Velocity="0"/>
  </Event>
  <Event>
    <Absolute>108160</Absolute>
    <NoteOff Channel="12" Note="46" Velocity="0"/>
  </Event>
  <Event>
    <Absolute>108160</Absolute>
    <NoteOn Channel="12" Note="63" Velocity="73"/>
  </Event>
  <Event>
    <Absolute>108160</Absolute>
    <NoteOn Channel="12" Note="67" Velocity="73"/>
  </Event>
  <Event>
    <Absolute>108168</Absolute>
    <NoteOff Channel="12" Note="50" Velocity="0"/>
  </Event>
  <Event>
    <Absolute>108168</Absolute>
    <NoteOff Channel="12" Note="53" Velocity="0"/>
  </Event>
  <Event>
    <Absolute>108288</Absolute>
    <NoteOff Channel="12" Note="63" Velocity="0"/>
  </Event>
  <Event>
    <Absolute>108288</Absolute>
    <NoteOn Channel="12" Note="46" Velocity="73"/>
  </Event>
  <Event>
    <Absolute>108300</Absolute>
    <NoteOn Channel="12" Note="46" Velocity="59"/>
  </Event>
  <Event>
    <Absolute>108316</Absolute>
    <NoteOn Channel="12" Note="50" Velocity="59"/>
  </Event>
  <Event>
    <Absolute>108316</Absolute>
    <NoteOn Channel="12" Note="53" Velocity="59"/>
  </Event>
  <Event>
    <Absolute>108416</Absolute>
    <NoteOff Channel="12" Note="67" Velocity="0"/>
  </Event>
  <Event>
    <Absolute>108544</Absolute>
    <NoteOn Channel="12" Note="62" Velocity="73"/>
  </Event>
  <Event>
    <Absolute>108544</Absolute>
    <NoteOn Channel="12" Note="65" Velocity="73"/>
  </Event>
  <Event>
    <Absolute>108928</Absolute>
    <NoteOff Channel="12" Note="46" Velocity="0"/>
  </Event>
  <Event>
    <Absolute>108932</Absolute>
    <NoteOff Channel="12" Note="46" Velocity="0"/>
  </Event>
  <Event>
    <Absolute>108932</Absolute>
    <NoteOff Channel="12" Note="50" Velocity="0"/>
  </Event>
  <Event>
    <Absolute>108932</Absolute>
    <NoteOff Channel="12" Note="53" Velocity="0"/>
  </Event>
  <Event>
    <Absolute>109052</Absolute>
    <NoteOn Channel="12" Note="46" Velocity="59"/>
  </Event>
  <Event>
    <Absolute>109052</Absolute>
    <NoteOn Channel="12" Note="50" Velocity="59"/>
  </Event>
  <Event>
    <Absolute>109052</Absolute>
    <NoteOn Channel="12" Note="53" Velocity="59"/>
  </Event>
  <Event>
    <Absolute>109056</Absolute>
    <NoteOff Channel="12" Note="62" Velocity="0"/>
  </Event>
  <Event>
    <Absolute>109056</Absolute>
    <NoteOff Channel="12" Note="65" Velocity="0"/>
  </Event>
  <Event>
    <Absolute>109056</Absolute>
    <NoteOn Channel="12" Note="46" Velocity="73"/>
  </Event>
  <Event>
    <Absolute>109440</Absolute>
    <NoteOn Channel="12" Note="65" Velocity="73"/>
  </Event>
  <Event>
    <Absolute>109440</Absolute>
    <NoteOn Channel="12" Note="70" Velocity="73"/>
  </Event>
  <Event>
    <Absolute>109568</Absolute>
    <NoteOff Channel="12" Note="65" Velocity="0"/>
  </Event>
  <Event>
    <Absolute>109568</Absolute>
    <NoteOff Channel="12" Note="70" Velocity="0"/>
  </Event>
  <Event>
    <Absolute>109680</Absolute>
    <NoteOff Channel="12" Note="46" Velocity="0"/>
  </Event>
  <Event>
    <Absolute>109696</Absolute>
    <NoteOff Channel="12" Note="46" Velocity="0"/>
  </Event>
  <Event>
    <Absolute>109696</Absolute>
    <NoteOn Channel="12" Note="70" Velocity="73"/>
  </Event>
  <Event>
    <Absolute>109696</Absolute>
    <NoteOn Channel="12" Note="65" Velocity="73"/>
  </Event>
  <Event>
    <Absolute>109708</Absolute>
    <NoteOff Channel="12" Note="50" Velocity="0"/>
  </Event>
  <Event>
    <Absolute>109708</Absolute>
    <NoteOff Channel="12" Note="53" Velocity="0"/>
  </Event>
  <Event>
    <Absolute>109824</Absolute>
    <NoteOff Channel="12" Note="70" Velocity="0"/>
  </Event>
  <Event>
    <Absolute>109824</Absolute>
    <NoteOff Channel="12" Note="65" Velocity="0"/>
  </Event>
  <Event>
    <Absolute>109824</Absolute>
    <NoteOn Channel="12" Note="46" Velocity="73"/>
  </Event>
  <Event>
    <Absolute>109824</Absolute>
    <NoteOn Channel="12" Note="46" Velocity="59"/>
  </Event>
  <Event>
    <Absolute>109840</Absolute>
    <NoteOn Channel="12" Note="50" Velocity="59"/>
  </Event>
  <Event>
    <Absolute>109840</Absolute>
    <NoteOn Channel="12" Note="53" Velocity="59"/>
  </Event>
  <Event>
    <Absolute>110080</Absolute>
    <NoteOn Channel="12" Note="65" Velocity="73"/>
  </Event>
  <Event>
    <Absolute>110080</Absolute>
    <NoteOn Channel="12" Note="68" Velocity="73"/>
  </Event>
  <Event>
    <Absolute>110464</Absolute>
    <NoteOff Channel="12" Note="46" Velocity="0"/>
  </Event>
  <Event>
    <Absolute>110496</Absolute>
    <NoteOff Channel="12" Note="46" Velocity="0"/>
  </Event>
  <Event>
    <Absolute>110496</Absolute>
    <NoteOff Channel="12" Note="50" Velocity="0"/>
  </Event>
  <Event>
    <Absolute>110508</Absolute>
    <NoteOff Channel="12" Note="53" Velocity="0"/>
  </Event>
  <Event>
    <Absolute>110592</Absolute>
    <NoteOn Channel="12" Note="46" Velocity="73"/>
  </Event>
  <Event>
    <Absolute>110600</Absolute>
    <NoteOn Channel="12" Note="46" Velocity="59"/>
  </Event>
  <Event>
    <Absolute>110604</Absolute>
    <NoteOn Channel="12" Note="50" Velocity="59"/>
  </Event>
  <Event>
    <Absolute>110604</Absolute>
    <NoteOn Channel="12" Note="53" Velocity="59"/>
  </Event>
  <Event>
    <Absolute>110720</Absolute>
    <NoteOff Channel="12" Note="65" Velocity="0"/>
  </Event>
  <Event>
    <Absolute>110720</Absolute>
    <NoteOff Channel="12" Note="68" Velocity="0"/>
  </Event>
  <Event>
    <Absolute>110976</Absolute>
    <NoteOn Channel="12" Note="67" Velocity="73"/>
  </Event>
  <Event>
    <Absolute>110976</Absolute>
    <NoteOn Channel="12" Note="63" Velocity="73"/>
  </Event>
  <Event>
    <Absolute>111104</Absolute>
    <NoteOff Channel="12" Note="67" Velocity="0"/>
  </Event>
  <Event>
    <Absolute>111104</Absolute>
    <NoteOff Channel="12" Note="63" Velocity="0"/>
  </Event>
  <Event>
    <Absolute>111232</Absolute>
    <NoteOff Channel="12" Note="46" Velocity="0"/>
  </Event>
  <Event>
    <Absolute>111232</Absolute>
    <NoteOn Channel="12" Note="63" Velocity="73"/>
  </Event>
  <Event>
    <Absolute>111232</Absolute>
    <NoteOn Channel="12" Note="67" Velocity="73"/>
  </Event>
  <Event>
    <Absolute>111244</Absolute>
    <NoteOff Channel="12" Note="46" Velocity="0"/>
  </Event>
  <Event>
    <Absolute>111272</Absolute>
    <NoteOff Channel="12" Note="50" Velocity="0"/>
  </Event>
  <Event>
    <Absolute>111272</Absolute>
    <NoteOff Channel="12" Note="53" Velocity="0"/>
  </Event>
  <Event>
    <Absolute>111360</Absolute>
    <NoteOff Channel="12" Note="63" Velocity="0"/>
  </Event>
  <Event>
    <Absolute>111360</Absolute>
    <NoteOff Channel="12" Note="67" Velocity="0"/>
  </Event>
  <Event>
    <Absolute>111360</Absolute>
    <NoteOn Channel="12" Note="46" Velocity="73"/>
  </Event>
  <Event>
    <Absolute>111364</Absolute>
    <NoteOn Channel="12" Note="46" Velocity="59"/>
  </Event>
  <Event>
    <Absolute>111368</Absolute>
    <NoteOn Channel="12" Note="50" Velocity="59"/>
  </Event>
  <Event>
    <Absolute>111368</Absolute>
    <NoteOn Channel="12" Note="53" Velocity="59"/>
  </Event>
  <Event>
    <Absolute>111616</Absolute>
    <NoteOn Channel="12" Note="62" Velocity="73"/>
  </Event>
  <Event>
    <Absolute>111616</Absolute>
    <NoteOn Channel="12" Note="65" Velocity="73"/>
  </Event>
  <Event>
    <Absolute>112000</Absolute>
    <NoteOff Channel="12" Note="46" Velocity="0"/>
  </Event>
  <Event>
    <Absolute>112020</Absolute>
    <NoteOff Channel="12" Note="53" Velocity="0"/>
  </Event>
  <Event>
    <Absolute>112032</Absolute>
    <NoteOff Channel="12" Note="46" Velocity="0"/>
  </Event>
  <Event>
    <Absolute>112032</Absolute>
    <NoteOff Channel="12" Note="50" Velocity="0"/>
  </Event>
  <Event>
    <Absolute>112112</Absolute>
    <NoteOn Channel="12" Note="46" Velocity="59"/>
  </Event>
  <Event>
    <Absolute>112128</Absolute>
    <NoteOff Channel="12" Note="62" Velocity="0"/>
  </Event>
  <Event>
    <Absolute>112128</Absolute>
    <NoteOff Channel="12" Note="65" Velocity="0"/>
  </Event>
  <Event>
    <Absolute>112128</Absolute>
    <NoteOn Channel="12" Note="46" Velocity="73"/>
  </Event>
  <Event>
    <Absolute>112140</Absolute>
    <NoteOn Channel="12" Note="50" Velocity="59"/>
  </Event>
  <Event>
    <Absolute>112140</Absolute>
    <NoteOn Channel="12" Note="53" Velocity="59"/>
  </Event>
  <Event>
    <Absolute>112512</Absolute>
    <NoteOn Channel="12" Note="65" Velocity="73"/>
  </Event>
  <Event>
    <Absolute>112512</Absolute>
    <NoteOn Channel="12" Note="70" Velocity="73"/>
  </Event>
  <Event>
    <Absolute>112640</Absolute>
    <NoteOff Channel="12" Note="65" Velocity="0"/>
  </Event>
  <Event>
    <Absolute>112640</Absolute>
    <NoteOff Channel="12" Note="70" Velocity="0"/>
  </Event>
  <Event>
    <Absolute>112768</Absolute>
    <NoteOff Channel="12" Note="46" Velocity="0"/>
  </Event>
  <Event>
    <Absolute>112768</Absolute>
    <NoteOff Channel="12" Note="46" Velocity="0"/>
  </Event>
  <Event>
    <Absolute>112768</Absolute>
    <NoteOn Channel="12" Note="65" Velocity="73"/>
  </Event>
  <Event>
    <Absolute>112768</Absolute>
    <NoteOn Channel="12" Note="70" Velocity="73"/>
  </Event>
  <Event>
    <Absolute>112784</Absolute>
    <NoteOff Channel="12" Note="50" Velocity="0"/>
  </Event>
  <Event>
    <Absolute>112784</Absolute>
    <NoteOff Channel="12" Note="53" Velocity="0"/>
  </Event>
  <Event>
    <Absolute>112896</Absolute>
    <NoteOff Channel="12" Note="65" Velocity="0"/>
  </Event>
  <Event>
    <Absolute>112896</Absolute>
    <NoteOff Channel="12" Note="70" Velocity="0"/>
  </Event>
  <Event>
    <Absolute>112896</Absolute>
    <NoteOn Channel="12" Note="46" Velocity="73"/>
  </Event>
  <Event>
    <Absolute>112900</Absolute>
    <NoteOn Channel="12" Note="46" Velocity="59"/>
  </Event>
  <Event>
    <Absolute>112916</Absolute>
    <NoteOn Channel="12" Note="50" Velocity="59"/>
  </Event>
  <Event>
    <Absolute>112916</Absolute>
    <NoteOn Channel="12" Note="53" Velocity="59"/>
  </Event>
  <Event>
    <Absolute>113280</Absolute>
    <NoteOn Channel="12" Note="65" Velocity="73"/>
  </Event>
  <Event>
    <Absolute>113280</Absolute>
    <NoteOn Channel="12" Note="68" Velocity="73"/>
  </Event>
  <Event>
    <Absolute>113536</Absolute>
    <NoteOff Channel="12" Note="46" Velocity="0"/>
  </Event>
  <Event>
    <Absolute>113548</Absolute>
    <NoteOff Channel="12" Note="46" Velocity="0"/>
  </Event>
  <Event>
    <Absolute>113548</Absolute>
    <NoteOff Channel="12" Note="50" Velocity="0"/>
  </Event>
  <Event>
    <Absolute>113548</Absolute>
    <NoteOff Channel="12" Note="53" Velocity="0"/>
  </Event>
  <Event>
    <Absolute>113664</Absolute>
    <NoteOff Channel="12" Note="65" Velocity="0"/>
  </Event>
  <Event>
    <Absolute>113664</Absolute>
    <NoteOff Channel="12" Note="68" Velocity="0"/>
  </Event>
  <Event>
    <Absolute>113664</Absolute>
    <NoteOn Channel="12" Note="46" Velocity="73"/>
  </Event>
  <Event>
    <Absolute>113664</Absolute>
    <NoteOn Channel="12" Note="46" Velocity="59"/>
  </Event>
  <Event>
    <Absolute>113680</Absolute>
    <NoteOn Channel="12" Note="50" Velocity="59"/>
  </Event>
  <Event>
    <Absolute>113680</Absolute>
    <NoteOn Channel="12" Note="53" Velocity="59"/>
  </Event>
  <Event>
    <Absolute>114048</Absolute>
    <NoteOn Channel="12" Note="67" Velocity="73"/>
  </Event>
  <Event>
    <Absolute>114048</Absolute>
    <NoteOn Channel="12" Note="63" Velocity="73"/>
  </Event>
  <Event>
    <Absolute>114176</Absolute>
    <NoteOff Channel="12" Note="67" Velocity="0"/>
  </Event>
  <Event>
    <Absolute>114176</Absolute>
    <NoteOff Channel="12" Note="63" Velocity="0"/>
  </Event>
  <Event>
    <Absolute>114292</Absolute>
    <NoteOff Channel="12" Note="46" Velocity="0"/>
  </Event>
  <Event>
    <Absolute>114304</Absolute>
    <NoteOff Channel="12" Note="46" Velocity="0"/>
  </Event>
  <Event>
    <Absolute>114304</Absolute>
    <NoteOn Channel="12" Note="63" Velocity="73"/>
  </Event>
  <Event>
    <Absolute>114304</Absolute>
    <NoteOn Channel="12" Note="67" Velocity="73"/>
  </Event>
  <Event>
    <Absolute>114308</Absolute>
    <NoteOff Channel="12" Note="50" Velocity="0"/>
  </Event>
  <Event>
    <Absolute>114308</Absolute>
    <NoteOff Channel="12" Note="53" Velocity="0"/>
  </Event>
  <Event>
    <Absolute>114424</Absolute>
    <NoteOn Channel="12" Note="46" Velocity="59"/>
  </Event>
  <Event>
    <Absolute>114432</Absolute>
    <NoteOff Channel="12" Note="63" Velocity="0"/>
  </Event>
  <Event>
    <Absolute>114432</Absolute>
    <NoteOn Channel="12" Note="46" Velocity="73"/>
  </Event>
  <Event>
    <Absolute>114452</Absolute>
    <NoteOn Channel="12" Note="50" Velocity="59"/>
  </Event>
  <Event>
    <Absolute>114452</Absolute>
    <NoteOn Channel="12" Note="53" Velocity="59"/>
  </Event>
  <Event>
    <Absolute>114560</Absolute>
    <NoteOff Channel="12" Note="67" Velocity="0"/>
  </Event>
  <Event>
    <Absolute>114688</Absolute>
    <NoteOn Channel="12" Note="62" Velocity="73"/>
  </Event>
  <Event>
    <Absolute>114688</Absolute>
    <NoteOn Channel="12" Note="65" Velocity="73"/>
  </Event>
  <Event>
    <Absolute>115040</Absolute>
    <NoteOff Channel="12" Note="46" Velocity="0"/>
  </Event>
  <Event>
    <Absolute>115056</Absolute>
    <NoteOff Channel="12" Note="50" Velocity="0"/>
  </Event>
  <Event>
    <Absolute>115056</Absolute>
    <NoteOff Channel="12" Note="53" Velocity="0"/>
  </Event>
  <Event>
    <Absolute>115072</Absolute>
    <NoteOff Channel="12" Note="46" Velocity="0"/>
  </Event>
  <Event>
    <Absolute>115172</Absolute>
    <NoteOn Channel="12" Note="46" Velocity="59"/>
  </Event>
  <Event>
    <Absolute>115188</Absolute>
    <NoteOn Channel="12" Note="50" Velocity="59"/>
  </Event>
  <Event>
    <Absolute>115188</Absolute>
    <NoteOn Channel="12" Note="53" Velocity="59"/>
  </Event>
  <Event>
    <Absolute>115200</Absolute>
    <NoteOff Channel="12" Note="62" Velocity="0"/>
  </Event>
  <Event>
    <Absolute>115200</Absolute>
    <NoteOff Channel="12" Note="65" Velocity="0"/>
  </Event>
  <Event>
    <Absolute>115200</Absolute>
    <NoteOn Channel="12" Note="46" Velocity="73"/>
  </Event>
  <Event>
    <Absolute>115584</Absolute>
    <NoteOn Channel="12" Note="65" Velocity="73"/>
  </Event>
  <Event>
    <Absolute>115584</Absolute>
    <NoteOn Channel="12" Note="70" Velocity="73"/>
  </Event>
  <Event>
    <Absolute>115712</Absolute>
    <NoteOff Channel="12" Note="65" Velocity="0"/>
  </Event>
  <Event>
    <Absolute>115712</Absolute>
    <NoteOff Channel="12" Note="70" Velocity="0"/>
  </Event>
  <Event>
    <Absolute>115832</Absolute>
    <NoteOff Channel="12" Note="46" Velocity="0"/>
  </Event>
  <Event>
    <Absolute>115840</Absolute>
    <NoteOff Channel="12" Note="46" Velocity="0"/>
  </Event>
  <Event>
    <Absolute>115840</Absolute>
    <NoteOn Channel="12" Note="70" Velocity="73"/>
  </Event>
  <Event>
    <Absolute>115840</Absolute>
    <NoteOn Channel="12" Note="65" Velocity="73"/>
  </Event>
  <Event>
    <Absolute>115844</Absolute>
    <NoteOff Channel="12" Note="50" Velocity="0"/>
  </Event>
  <Event>
    <Absolute>115844</Absolute>
    <NoteOff Channel="12" Note="53" Velocity="0"/>
  </Event>
  <Event>
    <Absolute>115968</Absolute>
    <NoteOff Channel="12" Note="70" Velocity="0"/>
  </Event>
  <Event>
    <Absolute>115968</Absolute>
    <NoteOff Channel="12" Note="65" Velocity="0"/>
  </Event>
  <Event>
    <Absolute>115968</Absolute>
    <NoteOn Channel="12" Note="46" Velocity="73"/>
  </Event>
  <Event>
    <Absolute>115980</Absolute>
    <NoteOn Channel="12" Note="46" Velocity="59"/>
  </Event>
  <Event>
    <Absolute>115988</Absolute>
    <NoteOn Channel="12" Note="50" Velocity="59"/>
  </Event>
  <Event>
    <Absolute>115992</Absolute>
    <NoteOn Channel="12" Note="53" Velocity="59"/>
  </Event>
  <Event>
    <Absolute>116224</Absolute>
    <NoteOn Channel="12" Note="65" Velocity="73"/>
  </Event>
  <Event>
    <Absolute>116224</Absolute>
    <NoteOn Channel="12" Note="68" Velocity="73"/>
  </Event>
  <Event>
    <Absolute>116608</Absolute>
    <NoteOff Channel="12" Note="46" Velocity="0"/>
  </Event>
  <Event>
    <Absolute>116636</Absolute>
    <NoteOff Channel="12" Note="46" Velocity="0"/>
  </Event>
  <Event>
    <Absolute>116636</Absolute>
    <NoteOff Channel="12" Note="50" Velocity="0"/>
  </Event>
  <Event>
    <Absolute>116636</Absolute>
    <NoteOff Channel="12" Note="53" Velocity="0"/>
  </Event>
  <Event>
    <Absolute>116736</Absolute>
    <NoteOn Channel="12" Note="46" Velocity="73"/>
  </Event>
  <Event>
    <Absolute>116768</Absolute>
    <NoteOn Channel="12" Note="46" Velocity="59"/>
  </Event>
  <Event>
    <Absolute>116768</Absolute>
    <NoteOn Channel="12" Note="50" Velocity="59"/>
  </Event>
  <Event>
    <Absolute>116768</Absolute>
    <NoteOn Channel="12" Note="53" Velocity="59"/>
  </Event>
  <Event>
    <Absolute>116864</Absolute>
    <NoteOff Channel="12" Note="65" Velocity="0"/>
  </Event>
  <Event>
    <Absolute>116864</Absolute>
    <NoteOff Channel="12" Note="68" Velocity="0"/>
  </Event>
  <Event>
    <Absolute>117120</Absolute>
    <NoteOn Channel="12" Note="67" Velocity="73"/>
  </Event>
  <Event>
    <Absolute>117120</Absolute>
    <NoteOn Channel="12" Note="63" Velocity="73"/>
  </Event>
  <Event>
    <Absolute>117248</Absolute>
    <NoteOff Channel="12" Note="67" Velocity="0"/>
  </Event>
  <Event>
    <Absolute>117248</Absolute>
    <NoteOff Channel="12" Note="63" Velocity="0"/>
  </Event>
  <Event>
    <Absolute>117376</Absolute>
    <NoteOff Channel="12" Note="46" Velocity="0"/>
  </Event>
  <Event>
    <Absolute>117376</Absolute>
    <NoteOn Channel="12" Note="63" Velocity="73"/>
  </Event>
  <Event>
    <Absolute>117376</Absolute>
    <NoteOn Channel="12" Note="67" Velocity="73"/>
  </Event>
  <Event>
    <Absolute>117396</Absolute>
    <NoteOff Channel="12" Note="46" Velocity="0"/>
  </Event>
  <Event>
    <Absolute>117396</Absolute>
    <NoteOff Channel="12" Note="50" Velocity="0"/>
  </Event>
  <Event>
    <Absolute>117408</Absolute>
    <NoteOff Channel="12" Note="53" Velocity="0"/>
  </Event>
  <Event>
    <Absolute>117504</Absolute>
    <NoteOff Channel="12" Note="63" Velocity="0"/>
  </Event>
  <Event>
    <Absolute>117504</Absolute>
    <NoteOff Channel="12" Note="67" Velocity="0"/>
  </Event>
  <Event>
    <Absolute>117504</Absolute>
    <NoteOn Channel="12" Note="46" Velocity="73"/>
  </Event>
  <Event>
    <Absolute>117516</Absolute>
    <NoteOn Channel="12" Note="46" Velocity="59"/>
  </Event>
  <Event>
    <Absolute>117528</Absolute>
    <NoteOn Channel="12" Note="50" Velocity="59"/>
  </Event>
  <Event>
    <Absolute>117532</Absolute>
    <NoteOn Channel="12" Note="53" Velocity="59"/>
  </Event>
  <Event>
    <Absolute>117760</Absolute>
    <NoteOn Channel="12" Note="62" Velocity="73"/>
  </Event>
  <Event>
    <Absolute>117760</Absolute>
    <NoteOn Channel="12" Note="65" Velocity="73"/>
  </Event>
  <Event>
    <Absolute>118012</Absolute>
    <NoteOff Channel="12" Note="50" Velocity="0"/>
  </Event>
  <Event>
    <Absolute>118024</Absolute>
    <NoteOff Channel="12" Note="46" Velocity="0"/>
  </Event>
  <Event>
    <Absolute>118024</Absolute>
    <NoteOff Channel="12" Note="53" Velocity="0"/>
  </Event>
  <Event>
    <Absolute>118144</Absolute>
    <NoteOff Channel="12" Note="46" Velocity="0"/>
  </Event>
  <Event>
    <Absolute>118272</Absolute>
    <NoteOff Channel="12" Note="62" Velocity="0"/>
  </Event>
  <Event>
    <Absolute>118272</Absolute>
    <NoteOff Channel="12" Note="65" Velocity="0"/>
  </Event>
  <Event>
    <Absolute>118272</Absolute>
    <NoteOn Channel="12" Note="51" Velocity="78"/>
  </Event>
  <Event>
    <Absolute>118308</Absolute>
    <NoteOn Channel="12" Note="46" Velocity="68"/>
  </Event>
  <Event>
    <Absolute>118308</Absolute>
    <NoteOn Channel="12" Note="51" Velocity="68"/>
  </Event>
  <Event>
    <Absolute>118784</Absolute>
    <NoteOff Channel="12" Note="51" Velocity="0"/>
  </Event>
  <Event>
    <Absolute>118896</Absolute>
    <NoteOff Channel="12" Note="46" Velocity="0"/>
  </Event>
  <Event>
    <Absolute>118912</Absolute>
    <NoteOn Channel="12" Note="51" Velocity="78"/>
  </Event>
  <Event>
    <Absolute>118916</Absolute>
    <NoteOff Channel="12" Note="51" Velocity="0"/>
  </Event>
  <Event>
    <Absolute>119028</Absolute>
    <NoteOn Channel="12" Note="46" Velocity="68"/>
  </Event>
  <Event>
    <Absolute>119028</Absolute>
    <NoteOn Channel="12" Note="51" Velocity="68"/>
  </Event>
  <Event>
    <Absolute>119040</Absolute>
    <NoteOff Channel="12" Note="51" Velocity="0"/>
  </Event>
  <Event>
    <Absolute>119040</Absolute>
    <NoteOn Channel="12" Note="56" Velocity="78"/>
  </Event>
  <Event>
    <Absolute>119040</Absolute>
    <NoteOn Channel="12" Note="60" Velocity="78"/>
  </Event>
  <Event>
    <Absolute>119296</Absolute>
    <NoteOff Channel="12" Note="56" Velocity="0"/>
  </Event>
  <Event>
    <Absolute>119424</Absolute>
    <NoteOff Channel="12" Note="60" Velocity="0"/>
  </Event>
  <Event>
    <Absolute>119424</Absolute>
    <NoteOn Channel="12" Note="55" Velocity="78"/>
  </Event>
  <Event>
    <Absolute>119424</Absolute>
    <NoteOn Channel="12" Note="58" Velocity="78"/>
  </Event>
  <Event>
    <Absolute>119680</Absolute>
    <NoteOff Channel="12" Note="55" Velocity="0"/>
  </Event>
  <Event>
    <Absolute>119680</Absolute>
    <NoteOff Channel="12" Note="58" Velocity="0"/>
  </Event>
  <Event>
    <Absolute>119696</Absolute>
    <NoteOff Channel="12" Note="46" Velocity="0"/>
  </Event>
  <Event>
    <Absolute>119724</Absolute>
    <NoteOff Channel="12" Note="51" Velocity="0"/>
  </Event>
  <Event>
    <Absolute>119808</Absolute>
    <NoteOn Channel="12" Note="51" Velocity="78"/>
  </Event>
  <Event>
    <Absolute>119816</Absolute>
    <NoteOn Channel="12" Note="51" Velocity="68"/>
  </Event>
  <Event>
    <Absolute>119828</Absolute>
    <NoteOn Channel="12" Note="46" Velocity="68"/>
  </Event>
  <Event>
    <Absolute>120320</Absolute>
    <NoteOff Channel="12" Note="51" Velocity="0"/>
  </Event>
  <Event>
    <Absolute>120404</Absolute>
    <NoteOff Channel="12" Note="46" Velocity="0"/>
  </Event>
  <Event>
    <Absolute>120432</Absolute>
    <NoteOff Channel="12" Note="51" Velocity="0"/>
  </Event>
  <Event>
    <Absolute>120448</Absolute>
    <NoteOn Channel="12" Note="51" Velocity="78"/>
  </Event>
  <Event>
    <Absolute>120564</Absolute>
    <NoteOn Channel="12" Note="46" Velocity="68"/>
  </Event>
  <Event>
    <Absolute>120564</Absolute>
    <NoteOn Channel="12" Note="51" Velocity="68"/>
  </Event>
  <Event>
    <Absolute>120576</Absolute>
    <NoteOff Channel="12" Note="51" Velocity="0"/>
  </Event>
  <Event>
    <Absolute>120576</Absolute>
    <NoteOn Channel="12" Note="56" Velocity="78"/>
  </Event>
  <Event>
    <Absolute>120576</Absolute>
    <NoteOn Channel="12" Note="60" Velocity="78"/>
  </Event>
  <Event>
    <Absolute>120960</Absolute>
    <NoteOff Channel="12" Note="56" Velocity="0"/>
  </Event>
  <Event>
    <Absolute>120960</Absolute>
    <NoteOff Channel="12" Note="60" Velocity="0"/>
  </Event>
  <Event>
    <Absolute>120960</Absolute>
    <NoteOn Channel="12" Note="58" Velocity="78"/>
  </Event>
  <Event>
    <Absolute>120960</Absolute>
    <NoteOn Channel="12" Note="55" Velocity="78"/>
  </Event>
  <Event>
    <Absolute>121220</Absolute>
    <NoteOff Channel="12" Note="46" Velocity="0"/>
  </Event>
  <Event>
    <Absolute>121248</Absolute>
    <NoteOff Channel="12" Note="51" Velocity="0"/>
  </Event>
  <Event>
    <Absolute>121344</Absolute>
    <NoteOff Channel="12" Note="58" Velocity="0"/>
  </Event>
  <Event>
    <Absolute>121344</Absolute>
    <NoteOff Channel="12" Note="55" Velocity="0"/>
  </Event>
  <Event>
    <Absolute>121344</Absolute>
    <NoteOn Channel="12" Note="51" Velocity="78"/>
  </Event>
  <Event>
    <Absolute>121368</Absolute>
    <NoteOn Channel="12" Note="46" Velocity="68"/>
  </Event>
  <Event>
    <Absolute>121372</Absolute>
    <NoteOn Channel="12" Note="51" Velocity="68"/>
  </Event>
  <Event>
    <Absolute>121856</Absolute>
    <NoteOff Channel="12" Note="51" Velocity="0"/>
  </Event>
  <Event>
    <Absolute>121928</Absolute>
    <NoteOff Channel="12" Note="46" Velocity="0"/>
  </Event>
  <Event>
    <Absolute>121956</Absolute>
    <NoteOff Channel="12" Note="51" Velocity="0"/>
  </Event>
  <Event>
    <Absolute>121984</Absolute>
    <NoteOn Channel="12" Note="51" Velocity="78"/>
  </Event>
  <Event>
    <Absolute>122088</Absolute>
    <NoteOn Channel="12" Note="46" Velocity="68"/>
  </Event>
  <Event>
    <Absolute>122092</Absolute>
    <NoteOn Channel="12" Note="51" Velocity="68"/>
  </Event>
  <Event>
    <Absolute>122112</Absolute>
    <NoteOff Channel="12" Note="51" Velocity="0"/>
  </Event>
  <Event>
    <Absolute>122112</Absolute>
    <NoteOn Channel="12" Note="60" Velocity="78"/>
  </Event>
  <Event>
    <Absolute>122112</Absolute>
    <NoteOn Channel="12" Note="56" Velocity="78"/>
  </Event>
  <Event>
    <Absolute>122368</Absolute>
    <NoteOff Channel="12" Note="56" Velocity="0"/>
  </Event>
  <Event>
    <Absolute>122496</Absolute>
    <NoteOff Channel="12" Note="60" Velocity="0"/>
  </Event>
  <Event>
    <Absolute>122496</Absolute>
    <NoteOn Channel="12" Note="55" Velocity="78"/>
  </Event>
  <Event>
    <Absolute>122496</Absolute>
    <NoteOn Channel="12" Note="58" Velocity="78"/>
  </Event>
  <Event>
    <Absolute>122748</Absolute>
    <NoteOff Channel="12" Note="46" Velocity="0"/>
  </Event>
  <Event>
    <Absolute>122772</Absolute>
    <NoteOff Channel="12" Note="51" Velocity="0"/>
  </Event>
  <Event>
    <Absolute>122864</Absolute>
    <NoteOn Channel="12" Note="51" Velocity="68"/>
  </Event>
  <Event>
    <Absolute>122880</Absolute>
    <NoteOff Channel="12" Note="55" Velocity="0"/>
  </Event>
  <Event>
    <Absolute>122880</Absolute>
    <NoteOff Channel="12" Note="58" Velocity="0"/>
  </Event>
  <Event>
    <Absolute>122880</Absolute>
    <NoteOn Channel="12" Note="51" Velocity="78"/>
  </Event>
  <Event>
    <Absolute>122880</Absolute>
    <NoteOn Channel="12" Note="46" Velocity="68"/>
  </Event>
  <Event>
    <Absolute>123392</Absolute>
    <NoteOff Channel="12" Note="51" Velocity="0"/>
  </Event>
  <Event>
    <Absolute>123484</Absolute>
    <NoteOff Channel="12" Note="46" Velocity="0"/>
  </Event>
  <Event>
    <Absolute>123492</Absolute>
    <NoteOff Channel="12" Note="51" Velocity="0"/>
  </Event>
  <Event>
    <Absolute>123520</Absolute>
    <NoteOn Channel="12" Note="51" Velocity="78"/>
  </Event>
  <Event>
    <Absolute>123616</Absolute>
    <NoteOn Channel="12" Note="46" Velocity="68"/>
  </Event>
  <Event>
    <Absolute>123616</Absolute>
    <NoteOn Channel="12" Note="51" Velocity="68"/>
  </Event>
  <Event>
    <Absolute>123648</Absolute>
    <NoteOff Channel="12" Note="51" Velocity="0"/>
  </Event>
  <Event>
    <Absolute>123648</Absolute>
    <NoteOn Channel="12" Note="56" Velocity="78"/>
  </Event>
  <Event>
    <Absolute>123648</Absolute>
    <NoteOn Channel="12" Note="60" Velocity="78"/>
  </Event>
  <Event>
    <Absolute>124032</Absolute>
    <NoteOff Channel="12" Note="56" Velocity="0"/>
  </Event>
  <Event>
    <Absolute>124032</Absolute>
    <NoteOff Channel="12" Note="60" Velocity="0"/>
  </Event>
  <Event>
    <Absolute>124032</Absolute>
    <NoteOn Channel="12" Note="55" Velocity="78"/>
  </Event>
  <Event>
    <Absolute>124032</Absolute>
    <NoteOn Channel="12" Note="58" Velocity="78"/>
  </Event>
  <Event>
    <Absolute>124272</Absolute>
    <NoteOff Channel="12" Note="46" Velocity="0"/>
  </Event>
  <Event>
    <Absolute>124284</Absolute>
    <NoteOff Channel="12" Note="51" Velocity="0"/>
  </Event>
  <Event>
    <Absolute>124416</Absolute>
    <NoteOff Channel="12" Note="55" Velocity="0"/>
  </Event>
  <Event>
    <Absolute>124416</Absolute>
    <NoteOff Channel="12" Note="58" Velocity="0"/>
  </Event>
  <Event>
    <Absolute>124416</Absolute>
    <NoteOn Channel="12" Note="46" Velocity="73"/>
  </Event>
  <Event>
    <Absolute>124452</Absolute>
    <NoteOn Channel="12" Note="46" Velocity="68"/>
  </Event>
  <Event>
    <Absolute>124452</Absolute>
    <NoteOn Channel="12" Note="50" Velocity="68"/>
  </Event>
  <Event>
    <Absolute>124452</Absolute>
    <NoteOn Channel="12" Note="53" Velocity="68"/>
  </Event>
  <Event>
    <Absolute>124800</Absolute>
    <NoteOn Channel="12" Note="65" Velocity="73"/>
  </Event>
  <Event>
    <Absolute>124800</Absolute>
    <NoteOn Channel="12" Note="70" Velocity="73"/>
  </Event>
  <Event>
    <Absolute>124928</Absolute>
    <NoteOff Channel="12" Note="65" Velocity="0"/>
  </Event>
  <Event>
    <Absolute>124928</Absolute>
    <NoteOff Channel="12" Note="70" Velocity="0"/>
  </Event>
  <Event>
    <Absolute>125024</Absolute>
    <NoteOff Channel="12" Note="46" Velocity="0"/>
  </Event>
  <Event>
    <Absolute>125036</Absolute>
    <NoteOff Channel="12" Note="53" Velocity="0"/>
  </Event>
  <Event>
    <Absolute>125048</Absolute>
    <NoteOff Channel="12" Note="50" Velocity="0"/>
  </Event>
  <Event>
    <Absolute>125056</Absolute>
    <NoteOff Channel="12" Note="46" Velocity="0"/>
  </Event>
  <Event>
    <Absolute>125056</Absolute>
    <NoteOn Channel="12" Note="65" Velocity="73"/>
  </Event>
  <Event>
    <Absolute>125056</Absolute>
    <NoteOn Channel="12" Note="70" Velocity="73"/>
  </Event>
  <Event>
    <Absolute>125184</Absolute>
    <NoteOff Channel="12" Note="65" Velocity="0"/>
  </Event>
  <Event>
    <Absolute>125184</Absolute>
    <NoteOff Channel="12" Note="70" Velocity="0"/>
  </Event>
  <Event>
    <Absolute>125184</Absolute>
    <NoteOn Channel="12" Note="46" Velocity="73"/>
  </Event>
  <Event>
    <Absolute>125184</Absolute>
    <NoteOn Channel="12" Note="46" Velocity="68"/>
  </Event>
  <Event>
    <Absolute>125184</Absolute>
    <NoteOn Channel="12" Note="50" Velocity="68"/>
  </Event>
  <Event>
    <Absolute>125184</Absolute>
    <NoteOn Channel="12" Note="53" Velocity="68"/>
  </Event>
  <Event>
    <Absolute>125568</Absolute>
    <NoteOn Channel="12" Note="65" Velocity="73"/>
  </Event>
  <Event>
    <Absolute>125568</Absolute>
    <NoteOn Channel="12" Note="68" Velocity="73"/>
  </Event>
  <Event>
    <Absolute>125800</Absolute>
    <NoteOff Channel="12" Note="46" Velocity="0"/>
  </Event>
  <Event>
    <Absolute>125824</Absolute>
    <NoteOff Channel="12" Note="46" Velocity="0"/>
  </Event>
  <Event>
    <Absolute>125840</Absolute>
    <NoteOff Channel="12" Note="50" Velocity="0"/>
  </Event>
  <Event>
    <Absolute>125840</Absolute>
    <NoteOff Channel="12" Note="53" Velocity="0"/>
  </Event>
  <Event>
    <Absolute>125952</Absolute>
    <NoteOff Channel="12" Note="65" Velocity="0"/>
  </Event>
  <Event>
    <Absolute>125952</Absolute>
    <NoteOff Channel="12" Note="68" Velocity="0"/>
  </Event>
  <Event>
    <Absolute>125952</Absolute>
    <NoteOn Channel="12" Note="46" Velocity="73"/>
  </Event>
  <Event>
    <Absolute>125960</Absolute>
    <NoteOn Channel="12" Note="46" Velocity="68"/>
  </Event>
  <Event>
    <Absolute>125960</Absolute>
    <NoteOn Channel="12" Note="50" Velocity="68"/>
  </Event>
  <Event>
    <Absolute>125972</Absolute>
    <NoteOn Channel="12" Note="53" Velocity="68"/>
  </Event>
  <Event>
    <Absolute>126336</Absolute>
    <NoteOn Channel="12" Note="67" Velocity="73"/>
  </Event>
  <Event>
    <Absolute>126336</Absolute>
    <NoteOn Channel="12" Note="63" Velocity="73"/>
  </Event>
  <Event>
    <Absolute>126464</Absolute>
    <NoteOff Channel="12" Note="67" Velocity="0"/>
  </Event>
  <Event>
    <Absolute>126464</Absolute>
    <NoteOff Channel="12" Note="63" Velocity="0"/>
  </Event>
  <Event>
    <Absolute>126548</Absolute>
    <NoteOff Channel="12" Note="46" Velocity="0"/>
  </Event>
  <Event>
    <Absolute>126560</Absolute>
    <NoteOff Channel="12" Note="53" Velocity="0"/>
  </Event>
  <Event>
    <Absolute>126576</Absolute>
    <NoteOff Channel="12" Note="50" Velocity="0"/>
  </Event>
  <Event>
    <Absolute>126592</Absolute>
    <NoteOff Channel="12" Note="46" Velocity="0"/>
  </Event>
  <Event>
    <Absolute>126592</Absolute>
    <NoteOn Channel="12" Note="63" Velocity="73"/>
  </Event>
  <Event>
    <Absolute>126592</Absolute>
    <NoteOn Channel="12" Note="67" Velocity="73"/>
  </Event>
  <Event>
    <Absolute>126708</Absolute>
    <NoteOn Channel="12" Note="50" Velocity="68"/>
  </Event>
  <Event>
    <Absolute>126720</Absolute>
    <NoteOff Channel="12" Note="63" Velocity="0"/>
  </Event>
  <Event>
    <Absolute>126720</Absolute>
    <NoteOn Channel="12" Note="46" Velocity="73"/>
  </Event>
  <Event>
    <Absolute>126720</Absolute>
    <NoteOn Channel="12" Note="46" Velocity="68"/>
  </Event>
  <Event>
    <Absolute>126720</Absolute>
    <NoteOn Channel="12" Note="53" Velocity="68"/>
  </Event>
  <Event>
    <Absolute>126848</Absolute>
    <NoteOff Channel="12" Note="67" Velocity="0"/>
  </Event>
  <Event>
    <Absolute>126976</Absolute>
    <NoteOn Channel="12" Note="62" Velocity="73"/>
  </Event>
  <Event>
    <Absolute>126976</Absolute>
    <NoteOn Channel="12" Note="65" Velocity="73"/>
  </Event>
  <Event>
    <Absolute>127308</Absolute>
    <NoteOff Channel="12" Note="46" Velocity="0"/>
  </Event>
  <Event>
    <Absolute>127324</Absolute>
    <NoteOff Channel="12" Note="50" Velocity="0"/>
  </Event>
  <Event>
    <Absolute>127328</Absolute>
    <NoteOff Channel="12" Note="53" Velocity="0"/>
  </Event>
  <Event>
    <Absolute>127360</Absolute>
    <NoteOff Channel="12" Note="46" Velocity="0"/>
  </Event>
  <Event>
    <Absolute>127488</Absolute>
    <NoteOff Channel="12" Note="62" Velocity="0"/>
  </Event>
  <Event>
    <Absolute>127488</Absolute>
    <NoteOff Channel="12" Note="65" Velocity="0"/>
  </Event>
  <Event>
    <Absolute>127488</Absolute>
    <NoteOn Channel="12" Note="46" Velocity="73"/>
  </Event>
  <Event>
    <Absolute>127488</Absolute>
    <NoteOn Channel="12" Note="46" Velocity="68"/>
  </Event>
  <Event>
    <Absolute>127488</Absolute>
    <NoteOn Channel="12" Note="50" Velocity="68"/>
  </Event>
  <Event>
    <Absolute>127500</Absolute>
    <NoteOn Channel="12" Note="53" Velocity="68"/>
  </Event>
  <Event>
    <Absolute>127872</Absolute>
    <NoteOn Channel="12" Note="65" Velocity="73"/>
  </Event>
  <Event>
    <Absolute>127872</Absolute>
    <NoteOn Channel="12" Note="70" Velocity="73"/>
  </Event>
  <Event>
    <Absolute>128000</Absolute>
    <NoteOff Channel="12" Note="65" Velocity="0"/>
  </Event>
  <Event>
    <Absolute>128000</Absolute>
    <NoteOff Channel="12" Note="70" Velocity="0"/>
  </Event>
  <Event>
    <Absolute>128072</Absolute>
    <NoteOff Channel="12" Note="46" Velocity="0"/>
  </Event>
  <Event>
    <Absolute>128112</Absolute>
    <NoteOff Channel="12" Note="53" Velocity="0"/>
  </Event>
  <Event>
    <Absolute>128128</Absolute>
    <NoteOff Channel="12" Note="46" Velocity="0"/>
  </Event>
  <Event>
    <Absolute>128128</Absolute>
    <NoteOff Channel="12" Note="50" Velocity="0"/>
  </Event>
  <Event>
    <Absolute>128128</Absolute>
    <NoteOn Channel="12" Note="70" Velocity="73"/>
  </Event>
  <Event>
    <Absolute>128128</Absolute>
    <NoteOn Channel="12" Note="65" Velocity="73"/>
  </Event>
  <Event>
    <Absolute>128256</Absolute>
    <NoteOff Channel="12" Note="70" Velocity="0"/>
  </Event>
  <Event>
    <Absolute>128256</Absolute>
    <NoteOff Channel="12" Note="65" Velocity="0"/>
  </Event>
  <Event>
    <Absolute>128256</Absolute>
    <NoteOn Channel="12" Note="46" Velocity="73"/>
  </Event>
  <Event>
    <Absolute>128264</Absolute>
    <NoteOn Channel="12" Note="50" Velocity="68"/>
  </Event>
  <Event>
    <Absolute>128264</Absolute>
    <NoteOn Channel="12" Note="53" Velocity="68"/>
  </Event>
  <Event>
    <Absolute>128272</Absolute>
    <NoteOn Channel="12" Note="46" Velocity="68"/>
  </Event>
  <Event>
    <Absolute>128512</Absolute>
    <NoteOn Channel="12" Note="65" Velocity="73"/>
  </Event>
  <Event>
    <Absolute>128512</Absolute>
    <NoteOn Channel="12" Note="68" Velocity="73"/>
  </Event>
  <Event>
    <Absolute>128888</Absolute>
    <NoteOff Channel="12" Note="46" Velocity="0"/>
  </Event>
  <Event>
    <Absolute>128896</Absolute>
    <NoteOff Channel="12" Note="46" Velocity="0"/>
  </Event>
  <Event>
    <Absolute>128916</Absolute>
    <NoteOff Channel="12" Note="50" Velocity="0"/>
  </Event>
  <Event>
    <Absolute>128916</Absolute>
    <NoteOff Channel="12" Note="53" Velocity="0"/>
  </Event>
  <Event>
    <Absolute>129024</Absolute>
    <NoteOn Channel="12" Note="46" Velocity="73"/>
  </Event>
  <Event>
    <Absolute>129036</Absolute>
    <NoteOn Channel="12" Note="46" Velocity="68"/>
  </Event>
  <Event>
    <Absolute>129040</Absolute>
    <NoteOn Channel="12" Note="50" Velocity="68"/>
  </Event>
  <Event>
    <Absolute>129040</Absolute>
    <NoteOn Channel="12" Note="53" Velocity="68"/>
  </Event>
  <Event>
    <Absolute>129152</Absolute>
    <NoteOff Channel="12" Note="65" Velocity="0"/>
  </Event>
  <Event>
    <Absolute>129152</Absolute>
    <NoteOff Channel="12" Note="68" Velocity="0"/>
  </Event>
  <Event>
    <Absolute>129408</Absolute>
    <NoteOn Channel="12" Note="67" Velocity="73"/>
  </Event>
  <Event>
    <Absolute>129408</Absolute>
    <NoteOn Channel="12" Note="63" Velocity="73"/>
  </Event>
  <Event>
    <Absolute>129536</Absolute>
    <NoteOff Channel="12" Note="67" Velocity="0"/>
  </Event>
  <Event>
    <Absolute>129536</Absolute>
    <NoteOff Channel="12" Note="63" Velocity="0"/>
  </Event>
  <Event>
    <Absolute>129636</Absolute>
    <NoteOff Channel="12" Note="46" Velocity="0"/>
  </Event>
  <Event>
    <Absolute>129664</Absolute>
    <NoteOff Channel="12" Note="46" Velocity="0"/>
  </Event>
  <Event>
    <Absolute>129664</Absolute>
    <NoteOn Channel="12" Note="63" Velocity="73"/>
  </Event>
  <Event>
    <Absolute>129664</Absolute>
    <NoteOn Channel="12" Note="67" Velocity="73"/>
  </Event>
  <Event>
    <Absolute>129668</Absolute>
    <NoteOff Channel="12" Note="50" Velocity="0"/>
  </Event>
  <Event>
    <Absolute>129668</Absolute>
    <NoteOff Channel="12" Note="53" Velocity="0"/>
  </Event>
  <Event>
    <Absolute>129792</Absolute>
    <NoteOff Channel="12" Note="63" Velocity="0"/>
  </Event>
  <Event>
    <Absolute>129792</Absolute>
    <NoteOff Channel="12" Note="67" Velocity="0"/>
  </Event>
  <Event>
    <Absolute>129792</Absolute>
    <NoteOn Channel="12" Note="46" Velocity="73"/>
  </Event>
  <Event>
    <Absolute>129796</Absolute>
    <NoteOn Channel="12" Note="50" Velocity="68"/>
  </Event>
  <Event>
    <Absolute>129800</Absolute>
    <NoteOn Channel="12" Note="53" Velocity="68"/>
  </Event>
  <Event>
    <Absolute>129812</Absolute>
    <NoteOn Channel="12" Note="46" Velocity="68"/>
  </Event>
  <Event>
    <Absolute>130048</Absolute>
    <NoteOn Channel="12" Note="62" Velocity="73"/>
  </Event>
  <Event>
    <Absolute>130048</Absolute>
    <NoteOn Channel="12" Note="65" Velocity="73"/>
  </Event>
  <Event>
    <Absolute>130384</Absolute>
    <NoteOff Channel="12" Note="46" Velocity="0"/>
  </Event>
  <Event>
    <Absolute>130384</Absolute>
    <NoteOff Channel="12" Note="53" Velocity="0"/>
  </Event>
  <Event>
    <Absolute>130400</Absolute>
    <NoteOff Channel="12" Note="50" Velocity="0"/>
  </Event>
  <Event>
    <Absolute>130432</Absolute>
    <NoteOff Channel="12" Note="46" Velocity="0"/>
  </Event>
  <Event>
    <Absolute>130560</Absolute>
    <NoteOff Channel="12" Note="62" Velocity="0"/>
  </Event>
  <Event>
    <Absolute>130560</Absolute>
    <NoteOff Channel="12" Note="65" Velocity="0"/>
  </Event>
  <Event>
    <Absolute>198880</Absolute>
    <ControlChange Channel="12" Control="7" Value="126"/>
  </Event>
  <Event>
    <Absolute>200048</Absolute>
    <ControlChange Channel="12" Control="7" Value="125"/>
  </Event>
  <Event>
    <Absolute>200408</Absolute>
    <ControlChange Channel="12" Control="7" Value="124"/>
  </Event>
  <Event>
    <Absolute>200704</Absolute>
    <ControlChange Channel="12" Control="7" Value="123"/>
  </Event>
  <Event>
    <Absolute>200816</Absolute>
    <ControlChange Channel="12" Control="7" Value="122"/>
  </Event>
  <Event>
    <Absolute>201104</Absolute>
    <ControlChange Channel="12" Control="7" Value="121"/>
  </Event>
  <Event>
    <Absolute>201120</Absolute>
    <ControlChange Channel="12" Control="7" Value="120"/>
  </Event>
  <Event>
    <Absolute>201312</Absolute>
    <ControlChange Channel="12" Control="7" Value="119"/>
  </Event>
  <Event>
    <Absolute>201472</Absolute>
    <ControlChange Channel="12" Control="7" Value="118"/>
  </Event>
  <Event>
    <Absolute>201536</Absolute>
    <ControlChange Channel="12" Control="7" Value="117"/>
  </Event>
  <Event>
    <Absolute>201584</Absolute>
    <ControlChange Channel="12" Control="7" Value="116"/>
  </Event>
  <Event>
    <Absolute>201728</Absolute>
    <ControlChange Channel="12" Control="7" Value="115"/>
  </Event>
  <Event>
    <Absolute>201952</Absolute>
    <ControlChange Channel="12" Control="7" Value="114"/>
  </Event>
  <Event>
    <Absolute>202032</Absolute>
    <ControlChange Channel="12" Control="7" Value="113"/>
  </Event>
  <Event>
    <Absolute>202112</Absolute>
    <ControlChange Channel="12" Control="7" Value="112"/>
  </Event>
  <Event>
    <Absolute>202256</Absolute>
    <ControlChange Channel="12" Control="7" Value="111"/>
  </Event>
  <Event>
    <Absolute>202304</Absolute>
    <ControlChange Channel="12" Control="7" Value="109"/>
  </Event>
  <Event>
    <Absolute>202400</Absolute>
    <ControlChange Channel="12" Control="7" Value="108"/>
  </Event>
  <Event>
    <Absolute>202416</Absolute>
    <ControlChange Channel="12" Control="7" Value="106"/>
  </Event>
  <Event>
    <Absolute>202480</Absolute>
    <ControlChange Channel="12" Control="7" Value="105"/>
  </Event>
  <Event>
    <Absolute>202528</Absolute>
    <ControlChange Channel="12" Control="7" Value="103"/>
  </Event>
  <Event>
    <Absolute>202576</Absolute>
    <ControlChange Channel="12" Control="7" Value="102"/>
  </Event>
  <Event>
    <Absolute>202592</Absolute>
    <ControlChange Channel="12" Control="7" Value="100"/>
  </Event>
  <Event>
    <Absolute>202672</Absolute>
    <ControlChange Channel="12" Control="7" Value="99"/>
  </Event>
  <Event>
    <Absolute>202720</Absolute>
    <ControlChange Channel="12" Control="7" Value="97"/>
  </Event>
  <Event>
    <Absolute>202772</Absolute>
    <ControlChange Channel="12" Control="7" Value="96"/>
  </Event>
  <Event>
    <Absolute>202788</Absolute>
    <ControlChange Channel="12" Control="7" Value="95"/>
  </Event>
  <Event>
    <Absolute>202864</Absolute>
    <ControlChange Channel="12" Control="7" Value="94"/>
  </Event>
  <Event>
    <Absolute>202944</Absolute>
    <ControlChange Channel="12" Control="7" Value="93"/>
  </Event>
  <Event>
    <Absolute>203008</Absolute>
    <ControlChange Channel="12" Control="7" Value="92"/>
  </Event>
  <Event>
    <Absolute>203040</Absolute>
    <ControlChange Channel="12" Control="7" Value="91"/>
  </Event>
  <Event>
    <Absolute>203120</Absolute>
    <ControlChange Channel="12" Control="7" Value="90"/>
  </Event>
  <Event>
    <Absolute>203188</Absolute>
    <ControlChange Channel="12" Control="7" Value="89"/>
  </Event>
  <Event>
    <Absolute>203232</Absolute>
    <ControlChange Channel="12" Control="7" Value="88"/>
  </Event>
  <Event>
    <Absolute>203280</Absolute>
    <ControlChange Channel="12" Control="7" Value="87"/>
  </Event>
  <Event>
    <Absolute>203360</Absolute>
    <ControlChange Channel="12" Control="7" Value="86"/>
  </Event>
  <Event>
    <Absolute>203408</Absolute>
    <ControlChange Channel="12" Control="7" Value="85"/>
  </Event>
  <Event>
    <Absolute>203504</Absolute>
    <ControlChange Channel="12" Control="7" Value="84"/>
  </Event>
  <Event>
    <Absolute>203536</Absolute>
    <ControlChange Channel="12" Control="7" Value="83"/>
  </Event>
  <Event>
    <Absolute>203624</Absolute>
    <ControlChange Channel="12" Control="7" Value="82"/>
  </Event>
  <Event>
    <Absolute>203664</Absolute>
    <ControlChange Channel="12" Control="7" Value="81"/>
  </Event>
  <Event>
    <Absolute>203720</Absolute>
    <ControlChange Channel="12" Control="7" Value="80"/>
  </Event>
  <Event>
    <Absolute>203752</Absolute>
    <ControlChange Channel="12" Control="7" Value="78"/>
  </Event>
  <Event>
    <Absolute>203808</Absolute>
    <ControlChange Channel="12" Control="7" Value="77"/>
  </Event>
  <Event>
    <Absolute>203920</Absolute>
    <ControlChange Channel="12" Control="7" Value="75"/>
  </Event>
  <Event>
    <Absolute>203984</Absolute>
    <ControlChange Channel="12" Control="7" Value="74"/>
  </Event>
  <Event>
    <Absolute>204032</Absolute>
    <ControlChange Channel="12" Control="7" Value="72"/>
  </Event>
  <Event>
    <Absolute>204112</Absolute>
    <ControlChange Channel="12" Control="7" Value="71"/>
  </Event>
  <Event>
    <Absolute>204192</Absolute>
    <ControlChange Channel="12" Control="7" Value="69"/>
  </Event>
  <Event>
    <Absolute>204324</Absolute>
    <ControlChange Channel="12" Control="7" Value="68"/>
  </Event>
  <Event>
    <Absolute>204368</Absolute>
    <ControlChange Channel="12" Control="7" Value="66"/>
  </Event>
  <Event>
    <Absolute>204432</Absolute>
    <ControlChange Channel="12" Control="7" Value="65"/>
  </Event>
  <Event>
    <Absolute>204480</Absolute>
    <ControlChange Channel="12" Control="7" Value="64"/>
  </Event>
  <Event>
    <Absolute>204544</Absolute>
    <ControlChange Channel="12" Control="7" Value="63"/>
  </Event>
  <Event>
    <Absolute>204560</Absolute>
    <ControlChange Channel="12" Control="7" Value="62"/>
  </Event>
  <Event>
    <Absolute>204624</Absolute>
    <ControlChange Channel="12" Control="7" Value="61"/>
  </Event>
  <Event>
    <Absolute>204672</Absolute>
    <ControlChange Channel="12" Control="7" Value="60"/>
  </Event>
  <Event>
    <Absolute>204712</Absolute>
    <ControlChange Channel="12" Control="7" Value="59"/>
  </Event>
  <Event>
    <Absolute>204736</Absolute>
    <ControlChange Channel="12" Control="7" Value="58"/>
  </Event>
  <Event>
    <Absolute>204768</Absolute>
    <ControlChange Channel="12" Control="7" Value="57"/>
  </Event>
  <Event>
    <Absolute>204816</Absolute>
    <ControlChange Channel="12" Control="7" Value="56"/>
  </Event>
  <Event>
    <Absolute>204896</Absolute>
    <ControlChange Channel="12" Control="7" Value="55"/>
  </Event>
  <Event>
    <Absolute>204928</Absolute>
    <ControlChange Channel="12" Control="7" Value="54"/>
  </Event>
  <Event>
    <Absolute>204992</Absolute>
    <ControlChange Channel="12" Control="7" Value="53"/>
  </Event>
  <Event>
    <Absolute>205024</Absolute>
    <ControlChange Channel="12" Control="7" Value="52"/>
  </Event>
  <Event>
    <Absolute>205056</Absolute>
    <ControlChange Channel="12" Control="7" Value="51"/>
  </Event>
  <Event>
    <Absolute>205080</Absolute>
    <ControlChange Channel="12" Control="7" Value="50"/>
  </Event>
  <Event>
    <Absolute>205184</Absolute>
    <ControlChange Channel="12" Control="7" Value="49"/>
  </Event>
  <Event>
    <Absolute>205264</Absolute>
    <ControlChange Channel="12" Control="7" Value="48"/>
  </Event>
  <Event>
    <Absolute>205328</Absolute>
    <ControlChange Channel="12" Control="7" Value="47"/>
  </Event>
  <Event>
    <Absolute>205424</Absolute>
    <ControlChange Channel="12" Control="7" Value="46"/>
  </Event>
  <Event>
    <Absolute>205456</Absolute>
    <ControlChange Channel="12" Control="7" Value="44"/>
  </Event>
  <Event>
    <Absolute>205488</Absolute>
    <ControlChange Channel="12" Control="7" Value="43"/>
  </Event>
  <Event>
    <Absolute>205536</Absolute>
    <ControlChange Channel="12" Control="7" Value="41"/>
  </Event>
  <Event>
    <Absolute>205552</Absolute>
    <ControlChange Channel="12" Control="7" Value="40"/>
  </Event>
  <Event>
    <Absolute>205648</Absolute>
    <ControlChange Channel="12" Control="7" Value="38"/>
  </Event>
  <Event>
    <Absolute>205728</Absolute>
    <ControlChange Channel="12" Control="7" Value="37"/>
  </Event>
  <Event>
    <Absolute>205904</Absolute>
    <ControlChange Channel="12" Control="7" Value="35"/>
  </Event>
  <Event>
    <Absolute>205920</Absolute>
    <ControlChange Channel="12" Control="7" Value="34"/>
  </Event>
  <Event>
    <Absolute>206032</Absolute>
    <ControlChange Channel="12" Control="7" Value="32"/>
  </Event>
  <Event>
    <Absolute>206112</Absolute>
    <ControlChange Channel="12" Control="7" Value="31"/>
  </Event>
  <Event>
    <Absolute>206228</Absolute>
    <ControlChange Channel="12" Control="7" Value="30"/>
  </Event>
  <Event>
    <Absolute>206288</Absolute>
    <ControlChange Channel="12" Control="7" Value="29"/>
  </Event>
  <Event>
    <Absolute>206432</Absolute>
    <ControlChange Channel="12" Control="7" Value="28"/>
  </Event>
  <Event>
    <Absolute>206528</Absolute>
    <ControlChange Channel="12" Control="7" Value="27"/>
  </Event>
  <Event>
    <Absolute>206624</Absolute>
    <ControlChange Channel="12" Control="7" Value="26"/>
  </Event>
  <Event>
    <Absolute>206640</Absolute>
    <ControlChange Channel="12" Control="7" Value="25"/>
  </Event>
  <Event>
    <Absolute>206720</Absolute>
    <ControlChange Channel="12" Control="7" Value="24"/>
  </Event>
  <Event>
    <Absolute>206792</Absolute>
    <ControlChange Channel="12" Control="7" Value="23"/>
  </Event>
  <Event>
    <Absolute>206848</Absolute>
    <ControlChange Channel="12" Control="7" Value="22"/>
  </Event>
  <Event>
    <Absolute>206880</Absolute>
    <ControlChange Channel="12" Control="7" Value="21"/>
  </Event>
  <Event>
    <Absolute>207008</Absolute>
    <ControlChange Channel="12" Control="7" Value="20"/>
  </Event>
  <Event>
    <Absolute>207088</Absolute>
    <ControlChange Channel="12" Control="7" Value="19"/>
  </Event>
  <Event>
    <Absolute>207360</Absolute>
    <ControlChange Channel="12" Control="7" Value="18"/>
  </Event>
  <Event>
    <Absolute>207392</Absolute>
    <ControlChange Channel="12" Control="7" Value="17"/>
  </Event>
  <Event>
    <Absolute>207584</Absolute>
    <ControlChange Channel="12" Control="7" Value="16"/>
  </Event>
  <Event>
    <Absolute>207696</Absolute>
    <ControlChange Channel="12" Control="7" Value="15"/>
  </Event>
  <Event>
    <Absolute>207808</Absolute>
    <ControlChange Channel="12" Control="7" Value="13"/>
  </Event>
  <Event>
    <Absolute>207824</Absolute>
    <ControlChange Channel="12" Control="7" Value="12"/>
  </Event>
  <Event>
    <Absolute>208128</Absolute>
    <ControlChange Channel="12" Control="7" Value="10"/>
  </Event>
  <Event>
    <Absolute>208224</Absolute>
    <ControlChange Channel="12" Control="7" Value="9"/>
  </Event>
  <Event>
    <Absolute>208720</Absolute>
    <ControlChange Channel="12" Control="7" Value="7"/>
  </Event>
  <Event>
    <Absolute>208912</Absolute>
    <ControlChange Channel="12" Control="7" Value="6"/>
  </Event>
  <Event>
    <Absolute>209120</Absolute>
    <ControlChange Channel="12" Control="7" Value="4"/>
  </Event>
  <Event>
    <Absolute>209120</Absolute>
    <EndOfTrack/>
  </Event>
</Track>
<Track Number="14">
  <Event>
    <Absolute>0</Absolute>
    <TrackName>Sax</TrackName>
  </Event>
  <Event>
    <Absolute>0</Absolute>
    <ControlChange Channel="7" Control="0" Value="0"/>
  </Event>
  <Event>
    <Absolute>0</Absolute>
    <ProgramChange Channel="7" Number="67"/>
  </Event>
  <Event>
    <Absolute>0</Absolute>
    <ControlChange Channel="7" Control="7" Value="110"/>
  </Event>
  <Event>
    <Absolute>0</Absolute>
    <ControlChange Channel="7" Control="10" Value="93"/>
  </Event>
  <Event>
    <Absolute>0</Absolute>
    <ControlChange Channel="7" Control="91" Value="127"/>
  </Event>
  <Event>
    <Absolute>0</Absolute>
    <ControlChange Channel="7" Control="93" Value="75"/>
  </Event>
  <Event>
    <Absolute>0</Absolute>
    <KeySignature Fifths="0" Mode="0"/>
  </Event>
  <Event>
    <Absolute>99840</Absolute>
    <NoteOn Channel="7" Note="46" Velocity="104"/>
  </Event>
  <Event>
    <Absolute>99840</Absolute>
    <NoteOn Channel="7" Note="50" Velocity="104"/>
  </Event>
  <Event>
    <Absolute>99840</Absolute>
    <NoteOn Channel="7" Note="53" Velocity="104"/>
  </Event>
  <Event>
    <Absolute>99844</Absolute>
    <NoteOn Channel="7" Note="34" Velocity="127"/>
  </Event>
  <Event>
    <Absolute>101312</Absolute>
    <NoteOff Channel="7" Note="34" Velocity="0"/>
  </Event>
  <Event>
    <Absolute>102784</Absolute>
    <NoteOff Channel="7" Note="46" Velocity="0"/>
  </Event>
  <Event>
    <Absolute>102784</Absolute>
    <NoteOff Channel="7" Note="53" Velocity="0"/>
  </Event>
  <Event>
    <Absolute>102912</Absolute>
    <NoteOff Channel="7" Note="50" Velocity="0"/>
  </Event>
  <Event>
    <Absolute>102912</Absolute>
    <NoteOn Channel="7" Note="46" Velocity="104"/>
  </Event>
  <Event>
    <Absolute>103552</Absolute>
    <NoteOff Channel="7" Note="46" Velocity="0"/>
  </Event>
  <Event>
    <Absolute>103680</Absolute>
    <NoteOn Channel="7" Note="46" Velocity="104"/>
  </Event>
  <Event>
    <Absolute>104320</Absolute>
    <NoteOff Channel="7" Note="46" Velocity="0"/>
  </Event>
  <Event>
    <Absolute>104448</Absolute>
    <NoteOn Channel="7" Note="46" Velocity="104"/>
  </Event>
  <Event>
    <Absolute>105088</Absolute>
    <NoteOff Channel="7" Note="46" Velocity="0"/>
  </Event>
  <Event>
    <Absolute>105216</Absolute>
    <NoteOn Channel="7" Note="46" Velocity="104"/>
  </Event>
  <Event>
    <Absolute>105856</Absolute>
    <NoteOff Channel="7" Note="46" Velocity="0"/>
  </Event>
  <Event>
    <Absolute>105984</Absolute>
    <NoteOn Channel="7" Note="46" Velocity="104"/>
  </Event>
  <Event>
    <Absolute>106624</Absolute>
    <NoteOff Channel="7" Note="46" Velocity="0"/>
  </Event>
  <Event>
    <Absolute>106752</Absolute>
    <NoteOn Channel="7" Note="46" Velocity="104"/>
  </Event>
  <Event>
    <Absolute>107392</Absolute>
    <NoteOff Channel="7" Note="46" Velocity="0"/>
  </Event>
  <Event>
    <Absolute>107520</Absolute>
    <NoteOn Channel="7" Note="46" Velocity="104"/>
  </Event>
  <Event>
    <Absolute>108160</Absolute>
    <NoteOff Channel="7" Note="46" Velocity="0"/>
  </Event>
  <Event>
    <Absolute>108288</Absolute>
    <NoteOn Channel="7" Note="46" Velocity="104"/>
  </Event>
  <Event>
    <Absolute>108928</Absolute>
    <NoteOff Channel="7" Note="46" Velocity="0"/>
  </Event>
  <Event>
    <Absolute>109056</Absolute>
    <NoteOn Channel="7" Note="46" Velocity="104"/>
  </Event>
  <Event>
    <Absolute>109824</Absolute>
    <NoteOff Channel="7" Note="46" Velocity="0"/>
  </Event>
  <Event>
    <Absolute>109824</Absolute>
    <NoteOn Channel="7" Note="46" Velocity="104"/>
  </Event>
  <Event>
    <Absolute>110464</Absolute>
    <NoteOff Channel="7" Note="46" Velocity="0"/>
  </Event>
  <Event>
    <Absolute>110592</Absolute>
    <NoteOn Channel="7" Note="46" Velocity="104"/>
  </Event>
  <Event>
    <Absolute>111232</Absolute>
    <NoteOff Channel="7" Note="46" Velocity="0"/>
  </Event>
  <Event>
    <Absolute>111360</Absolute>
    <NoteOn Channel="7" Note="46" Velocity="104"/>
  </Event>
  <Event>
    <Absolute>112000</Absolute>
    <NoteOff Channel="7" Note="46" Velocity="0"/>
  </Event>
  <Event>
    <Absolute>112128</Absolute>
    <NoteOn Channel="7" Note="46" Velocity="104"/>
  </Event>
  <Event>
    <Absolute>112768</Absolute>
    <NoteOff Channel="7" Note="46" Velocity="0"/>
  </Event>
  <Event>
    <Absolute>112896</Absolute>
    <NoteOn Channel="7" Note="46" Velocity="104"/>
  </Event>
  <Event>
    <Absolute>113536</Absolute>
    <NoteOff Channel="7" Note="46" Velocity="0"/>
  </Event>
  <Event>
    <Absolute>113664</Absolute>
    <NoteOn Channel="7" Note="46" Velocity="104"/>
  </Event>
  <Event>
    <Absolute>114304</Absolute>
    <NoteOff Channel="7" Note="46" Velocity="0"/>
  </Event>
  <Event>
    <Absolute>114432</Absolute>
    <NoteOn Channel="7" Note="46" Velocity="104"/>
  </Event>
  <Event>
    <Absolute>115072</Absolute>
    <NoteOff Channel="7" Note="46" Velocity="0"/>
  </Event>
  <Event>
    <Absolute>115200</Absolute>
    <NoteOn Channel="7" Note="46" Velocity="104"/>
  </Event>
  <Event>
    <Absolute>115840</Absolute>
    <NoteOff Channel="7" Note="46" Velocity="0"/>
  </Event>
  <Event>
    <Absolute>115968</Absolute>
    <NoteOn Channel="7" Note="46" Velocity="104"/>
  </Event>
  <Event>
    <Absolute>116608</Absolute>
    <NoteOff Channel="7" Note="46" Velocity="0"/>
  </Event>
  <Event>
    <Absolute>116736</Absolute>
    <NoteOn Channel="7" Note="46" Velocity="104"/>
  </Event>
  <Event>
    <Absolute>117376</Absolute>
    <NoteOff Channel="7" Note="46" Velocity="0"/>
  </Event>
  <Event>
    <Absolute>117504</Absolute>
    <NoteOn Channel="7" Note="46" Velocity="104"/>
  </Event>
  <Event>
    <Absolute>118144</Absolute>
    <NoteOff Channel="7" Note="46" Velocity="0"/>
  </Event>
  <Event>
    <Absolute>118272</Absolute>
    <NoteOn Channel="7" Note="51" Velocity="96"/>
  </Event>
  <Event>
    <Absolute>124312</Absolute>
    <NoteOff Channel="7" Note="51" Velocity="0"/>
  </Event>
  <Event>
    <Absolute>124388</Absolute>
    <NoteOn Channel="7" Note="46" Velocity="96"/>
  </Event>
  <Event>
    <Absolute>130464</Absolute>
    <NoteOff Channel="7" Note="46" Velocity="0"/>
  </Event>
  <Event>
    <Absolute>170496</Absolute>
    <NoteOn Channel="7" Note="46" Velocity="73"/>
  </Event>
  <Event>
    <Absolute>170496</Absolute>
    <NoteOff Channel="7" Note="46" Velocity="0"/>
  </Event>
  <Event>
    <Absolute>170496</Absolute>
    <NoteOn Channel="7" Note="46" Velocity="73"/>
  </Event>
  <Event>
    <Absolute>170496</Absolute>
    <NoteOff Channel="7" Note="46" Velocity="0"/>
  </Event>
  <Event>
    <Absolute>198880</Absolute>
    <ControlChange Channel="7" Control="7" Value="126"/>
  </Event>
  <Event>
    <Absolute>200048</Absolute>
    <ControlChange Channel="7" Control="7" Value="125"/>
  </Event>
  <Event>
    <Absolute>200408</Absolute>
    <ControlChange Channel="7" Control="7" Value="124"/>
  </Event>
  <Event>
    <Absolute>200704</Absolute>
    <ControlChange Channel="7" Control="7" Value="123"/>
  </Event>
  <Event>
    <Absolute>200816</Absolute>
    <ControlChange Channel="7" Control="7" Value="122"/>
  </Event>
  <Event>
    <Absolute>201104</Absolute>
    <ControlChange Channel="7" Control="7" Value="121"/>
  </Event>
  <Event>
    <Absolute>201120</Absolute>
    <ControlChange Channel="7" Control="7" Value="120"/>
  </Event>
  <Event>
    <Absolute>201312</Absolute>
    <ControlChange Channel="7" Control="7" Value="119"/>
  </Event>
  <Event>
    <Absolute>201472</Absolute>
    <ControlChange Channel="7" Control="7" Value="118"/>
  </Event>
  <Event>
    <Absolute>201536</Absolute>
    <ControlChange Channel="7" Control="7" Value="117"/>
  </Event>
  <Event>
    <Absolute>201584</Absolute>
    <ControlChange Channel="7" Control="7" Value="116"/>
  </Event>
  <Event>
    <Absolute>201728</Absolute>
    <ControlChange Channel="7" Control="7" Value="115"/>
  </Event>
  <Event>
    <Absolute>201952</Absolute>
    <ControlChange Channel="7" Control="7" Value="114"/>
  </Event>
  <Event>
    <Absolute>202032</Absolute>
    <ControlChange Channel="7" Control="7" Value="113"/>
  </Event>
  <Event>
    <Absolute>202112</Absolute>
    <ControlChange Channel="7" Control="7" Value="112"/>
  </Event>
  <Event>
    <Absolute>202256</Absolute>
    <ControlChange Channel="7" Control="7" Value="111"/>
  </Event>
  <Event>
    <Absolute>202304</Absolute>
    <ControlChange Channel="7" Control="7" Value="109"/>
  </Event>
  <Event>
    <Absolute>202400</Absolute>
    <ControlChange Channel="7" Control="7" Value="108"/>
  </Event>
  <Event>
    <Absolute>202416</Absolute>
    <ControlChange Channel="7" Control="7" Value="106"/>
  </Event>
  <Event>
    <Absolute>202480</Absolute>
    <ControlChange Channel="7" Control="7" Value="105"/>
  </Event>
  <Event>
    <Absolute>202528</Absolute>
    <ControlChange Channel="7" Control="7" Value="103"/>
  </Event>
  <Event>
    <Absolute>202576</Absolute>
    <ControlChange Channel="7" Control="7" Value="102"/>
  </Event>
  <Event>
    <Absolute>202592</Absolute>
    <ControlChange Channel="7" Control="7" Value="100"/>
  </Event>
  <Event>
    <Absolute>202672</Absolute>
    <ControlChange Channel="7" Control="7" Value="99"/>
  </Event>
  <Event>
    <Absolute>202720</Absolute>
    <ControlChange Channel="7" Control="7" Value="97"/>
  </Event>
  <Event>
    <Absolute>202772</Absolute>
    <ControlChange Channel="7" Control="7" Value="96"/>
  </Event>
  <Event>
    <Absolute>202788</Absolute>
    <ControlChange Channel="7" Control="7" Value="95"/>
  </Event>
  <Event>
    <Absolute>202864</Absolute>
    <ControlChange Channel="7" Control="7" Value="94"/>
  </Event>
  <Event>
    <Absolute>202944</Absolute>
    <ControlChange Channel="7" Control="7" Value="93"/>
  </Event>
  <Event>
    <Absolute>203008</Absolute>
    <ControlChange Channel="7" Control="7" Value="92"/>
  </Event>
  <Event>
    <Absolute>203040</Absolute>
    <ControlChange Channel="7" Control="7" Value="91"/>
  </Event>
  <Event>
    <Absolute>203120</Absolute>
    <ControlChange Channel="7" Control="7" Value="90"/>
  </Event>
  <Event>
    <Absolute>203188</Absolute>
    <ControlChange Channel="7" Control="7" Value="89"/>
  </Event>
  <Event>
    <Absolute>203232</Absolute>
    <ControlChange Channel="7" Control="7" Value="88"/>
  </Event>
  <Event>
    <Absolute>203280</Absolute>
    <ControlChange Channel="7" Control="7" Value="87"/>
  </Event>
  <Event>
    <Absolute>203360</Absolute>
    <ControlChange Channel="7" Control="7" Value="86"/>
  </Event>
  <Event>
    <Absolute>203408</Absolute>
    <ControlChange Channel="7" Control="7" Value="85"/>
  </Event>
  <Event>
    <Absolute>203504</Absolute>
    <ControlChange Channel="7" Control="7" Value="84"/>
  </Event>
  <Event>
    <Absolute>203536</Absolute>
    <ControlChange Channel="7" Control="7" Value="83"/>
  </Event>
  <Event>
    <Absolute>203624</Absolute>
    <ControlChange Channel="7" Control="7" Value="82"/>
  </Event>
  <Event>
    <Absolute>203664</Absolute>
    <ControlChange Channel="7" Control="7" Value="81"/>
  </Event>
  <Event>
    <Absolute>203720</Absolute>
    <ControlChange Channel="7" Control="7" Value="80"/>
  </Event>
  <Event>
    <Absolute>203752</Absolute>
    <ControlChange Channel="7" Control="7" Value="78"/>
  </Event>
  <Event>
    <Absolute>203808</Absolute>
    <ControlChange Channel="7" Control="7" Value="77"/>
  </Event>
  <Event>
    <Absolute>203920</Absolute>
    <ControlChange Channel="7" Control="7" Value="75"/>
  </Event>
  <Event>
    <Absolute>203984</Absolute>
    <ControlChange Channel="7" Control="7" Value="74"/>
  </Event>
  <Event>
    <Absolute>204032</Absolute>
    <ControlChange Channel="7" Control="7" Value="72"/>
  </Event>
  <Event>
    <Absolute>204112</Absolute>
    <ControlChange Channel="7" Control="7" Value="71"/>
  </Event>
  <Event>
    <Absolute>204192</Absolute>
    <ControlChange Channel="7" Control="7" Value="69"/>
  </Event>
  <Event>
    <Absolute>204324</Absolute>
    <ControlChange Channel="7" Control="7" Value="68"/>
  </Event>
  <Event>
    <Absolute>204368</Absolute>
    <ControlChange Channel="7" Control="7" Value="66"/>
  </Event>
  <Event>
    <Absolute>204432</Absolute>
    <ControlChange Channel="7" Control="7" Value="65"/>
  </Event>
  <Event>
    <Absolute>204480</Absolute>
    <ControlChange Channel="7" Control="7" Value="64"/>
  </Event>
  <Event>
    <Absolute>204544</Absolute>
    <ControlChange Channel="7" Control="7" Value="63"/>
  </Event>
  <Event>
    <Absolute>204560</Absolute>
    <ControlChange Channel="7" Control="7" Value="62"/>
  </Event>
  <Event>
    <Absolute>204624</Absolute>
    <ControlChange Channel="7" Control="7" Value="61"/>
  </Event>
  <Event>
    <Absolute>204672</Absolute>
    <ControlChange Channel="7" Control="7" Value="60"/>
  </Event>
  <Event>
    <Absolute>204712</Absolute>
    <ControlChange Channel="7" Control="7" Value="59"/>
  </Event>
  <Event>
    <Absolute>204736</Absolute>
    <ControlChange Channel="7" Control="7" Value="58"/>
  </Event>
  <Event>
    <Absolute>204768</Absolute>
    <ControlChange Channel="7" Control="7" Value="57"/>
  </Event>
  <Event>
    <Absolute>204816</Absolute>
    <ControlChange Channel="7" Control="7" Value="56"/>
  </Event>
  <Event>
    <Absolute>204896</Absolute>
    <ControlChange Channel="7" Control="7" Value="55"/>
  </Event>
  <Event>
    <Absolute>204928</Absolute>
    <ControlChange Channel="7" Control="7" Value="54"/>
  </Event>
  <Event>
    <Absolute>204992</Absolute>
    <ControlChange Channel="7" Control="7" Value="53"/>
  </Event>
  <Event>
    <Absolute>205024</Absolute>
    <ControlChange Channel="7" Control="7" Value="52"/>
  </Event>
  <Event>
    <Absolute>205056</Absolute>
    <ControlChange Channel="7" Control="7" Value="51"/>
  </Event>
  <Event>
    <Absolute>205080</Absolute>
    <ControlChange Channel="7" Control="7" Value="50"/>
  </Event>
  <Event>
    <Absolute>205184</Absolute>
    <ControlChange Channel="7" Control="7" Value="49"/>
  </Event>
  <Event>
    <Absolute>205264</Absolute>
    <ControlChange Channel="7" Control="7" Value="48"/>
  </Event>
  <Event>
    <Absolute>205328</Absolute>
    <ControlChange Channel="7" Control="7" Value="47"/>
  </Event>
  <Event>
    <Absolute>205424</Absolute>
    <ControlChange Channel="7" Control="7" Value="46"/>
  </Event>
  <Event>
    <Absolute>205456</Absolute>
    <ControlChange Channel="7" Control="7" Value="44"/>
  </Event>
  <Event>
    <Absolute>205488</Absolute>
    <ControlChange Channel="7" Control="7" Value="43"/>
  </Event>
  <Event>
    <Absolute>205536</Absolute>
    <ControlChange Channel="7" Control="7" Value="41"/>
  </Event>
  <Event>
    <Absolute>205552</Absolute>
    <ControlChange Channel="7" Control="7" Value="40"/>
  </Event>
  <Event>
    <Absolute>205648</Absolute>
    <ControlChange Channel="7" Control="7" Value="38"/>
  </Event>
  <Event>
    <Absolute>205728</Absolute>
    <ControlChange Channel="7" Control="7" Value="37"/>
  </Event>
  <Event>
    <Absolute>205904</Absolute>
    <ControlChange Channel="7" Control="7" Value="35"/>
  </Event>
  <Event>
    <Absolute>205920</Absolute>
    <ControlChange Channel="7" Control="7" Value="34"/>
  </Event>
  <Event>
    <Absolute>206032</Absolute>
    <ControlChange Channel="7" Control="7" Value="32"/>
  </Event>
  <Event>
    <Absolute>206112</Absolute>
    <ControlChange Channel="7" Control="7" Value="31"/>
  </Event>
  <Event>
    <Absolute>206228</Absolute>
    <ControlChange Channel="7" Control="7" Value="30"/>
  </Event>
  <Event>
    <Absolute>206288</Absolute>
    <ControlChange Channel="7" Control="7" Value="29"/>
  </Event>
  <Event>
    <Absolute>206432</Absolute>
    <ControlChange Channel="7" Control="7" Value="28"/>
  </Event>
  <Event>
    <Absolute>206528</Absolute>
    <ControlChange Channel="7" Control="7" Value="27"/>
  </Event>
  <Event>
    <Absolute>206624</Absolute>
    <ControlChange Channel="7" Control="7" Value="26"/>
  </Event>
  <Event>
    <Absolute>206640</Absolute>
    <ControlChange Channel="7" Control="7" Value="25"/>
  </Event>
  <Event>
    <Absolute>206720</Absolute>
    <ControlChange Channel="7" Control="7" Value="24"/>
  </Event>
  <Event>
    <Absolute>206792</Absolute>
    <ControlChange Channel="7" Control="7" Value="23"/>
  </Event>
  <Event>
    <Absolute>206848</Absolute>
    <ControlChange Channel="7" Control="7" Value="22"/>
  </Event>
  <Event>
    <Absolute>206880</Absolute>
    <ControlChange Channel="7" Control="7" Value="21"/>
  </Event>
  <Event>
    <Absolute>207008</Absolute>
    <ControlChange Channel="7" Control="7" Value="20"/>
  </Event>
  <Event>
    <Absolute>207088</Absolute>
    <ControlChange Channel="7" Control="7" Value="19"/>
  </Event>
  <Event>
    <Absolute>207360</Absolute>
    <ControlChange Channel="7" Control="7" Value="18"/>
  </Event>
  <Event>
    <Absolute>207392</Absolute>
    <ControlChange Channel="7" Control="7" Value="17"/>
  </Event>
  <Event>
    <Absolute>207584</Absolute>
    <ControlChange Channel="7" Control="7" Value="16"/>
  </Event>
  <Event>
    <Absolute>207696</Absolute>
    <ControlChange Channel="7" Control="7" Value="15"/>
  </Event>
  <Event>
    <Absolute>207808</Absolute>
    <ControlChange Channel="7" Control="7" Value="13"/>
  </Event>
  <Event>
    <Absolute>207824</Absolute>
    <ControlChange Channel="7" Control="7" Value="12"/>
  </Event>
  <Event>
    <Absolute>208128</Absolute>
    <ControlChange Channel="7" Control="7" Value="10"/>
  </Event>
  <Event>
    <Absolute>208224</Absolute>
    <ControlChange Channel="7" Control="7" Value="9"/>
  </Event>
  <Event>
    <Absolute>208720</Absolute>
    <ControlChange Channel="7" Control="7" Value="7"/>
  </Event>
  <Event>
    <Absolute>208912</Absolute>
    <ControlChange Channel="7" Control="7" Value="6"/>
  </Event>
  <Event>
    <Absolute>209120</Absolute>
    <ControlChange Channel="7" Control="7" Value="4"/>
  </Event>
  <Event>
    <Absolute>209120</Absolute>
    <EndOfTrack/>
  </Event>
</Track>
<Track Number="15">
  <Event>
    <Absolute>0</Absolute>
    <TrackName>Re-Mixed By Jay Paulovicks (jayp@ovnet.com)  - http://www.ovnet.com/~jayp/jukebox</TrackName>
  </Event>
  <Event>
    <Absolute>0</Absolute>
    <KeySignature Fifths="0" Mode="0"/>
  </Event>
  <Event>
    <Absolute>0</Absolute>
    <EndOfTrack/>
  </Event>
</Track>
</MIDIFile>
